0
SECTION
2
HEADER
9
$ACADVER
1
AC1009
0
ENDSEC
0
SECTION
2
ENTITIES
0
POLYLINE
8
M1_Neg
70
1
0
VERTEX
10
-3498.0000
20
-199.8000
0
VERTEX
10
-3499.8000
20
-199.8000
0
VERTEX
10
-3499.8000
20
-198.0000
0
VERTEX
10
-3500.2000
20
-198.0000
0
VERTEX
10
-3500.2000
20
-199.8000
0
VERTEX
10
-3502.0000
20
-199.8000
0
VERTEX
10
-3502.0000
20
-200.2000
0
VERTEX
10
-3500.2000
20
-200.2000
0
VERTEX
10
-3500.2000
20
-202.0000
0
VERTEX
10
-3499.8000
20
-202.0000
0
VERTEX
10
-3499.8000
20
-200.2000
0
VERTEX
10
-3498.0000
20
-200.2000
0
SEQEND
0
POLYLINE
8
M1_Neg
70
1
0
VERTEX
10
-3498.0000
20
-201.0000
0
VERTEX
10
-3470.0000
20
-201.0000
0
VERTEX
10
-3470.0000
20
-199.0000
0
VERTEX
10
-3498.0000
20
-199.0000
0
SEQEND
0
POLYLINE
8
M1_Neg
70
1
0
VERTEX
10
-3530.0000
20
-201.0000
0
VERTEX
10
-3502.0000
20
-201.0000
0
VERTEX
10
-3502.0000
20
-199.0000
0
VERTEX
10
-3530.0000
20
-199.0000
0
SEQEND
0
POLYLINE
8
M1_Neg
70
1
0
VERTEX
10
-3501.0000
20
-198.0000
0
VERTEX
10
-3499.0000
20
-198.0000
0
VERTEX
10
-3499.0000
20
-170.0000
0
VERTEX
10
-3501.0000
20
-170.0000
0
SEQEND
0
POLYLINE
8
M1_Neg
70
1
0
VERTEX
10
-3501.0000
20
-230.0000
0
VERTEX
10
-3499.0000
20
-230.0000
0
VERTEX
10
-3499.0000
20
-202.0000
0
VERTEX
10
-3501.0000
20
-202.0000
0
SEQEND
0
POLYLINE
8
M1_Neg
70
1
0
VERTEX
10
-3534.3000
20
-211.3000
0
VERTEX
10
-3533.6000
20
-210.6000
0
VERTEX
10
-3533.6000
20
-209.9000
0
VERTEX
10
-3532.9000
20
-209.2000
0
VERTEX
10
-3532.9000
20
-208.5000
0
VERTEX
10
-3532.2000
20
-207.8000
0
VERTEX
10
-3531.5000
20
-207.8000
0
VERTEX
10
-3530.8000
20
-207.1000
0
VERTEX
10
-3530.1000
20
-207.1000
0
VERTEX
10
-3529.4000
20
-207.1000
0
VERTEX
10
-3528.7000
20
-207.1000
0
VERTEX
10
-3528.0000
20
-207.1000
0
VERTEX
10
-3527.3000
20
-207.1000
0
VERTEX
10
-3526.6000
20
-207.1000
0
VERTEX
10
-3525.9000
20
-207.8000
0
VERTEX
10
-3525.9000
20
-208.5000
0
VERTEX
10
-3525.2000
20
-209.2000
0
VERTEX
10
-3525.2000
20
-209.9000
0
VERTEX
10
-3525.2000
20
-210.6000
0
VERTEX
10
-3525.9000
20
-210.6000
0
VERTEX
10
-3526.6000
20
-210.6000
0
VERTEX
10
-3526.6000
20
-209.9000
0
VERTEX
10
-3526.6000
20
-209.2000
0
VERTEX
10
-3527.3000
20
-208.5000
0
VERTEX
10
-3528.0000
20
-207.8000
0
VERTEX
10
-3528.7000
20
-207.8000
0
VERTEX
10
-3529.4000
20
-207.8000
0
VERTEX
10
-3530.1000
20
-208.5000
0
VERTEX
10
-3530.8000
20
-209.2000
0
VERTEX
10
-3531.5000
20
-209.9000
0
VERTEX
10
-3532.2000
20
-210.6000
0
VERTEX
10
-3532.2000
20
-211.3000
0
VERTEX
10
-3532.2000
20
-212.0000
0
VERTEX
10
-3532.2000
20
-212.7000
0
VERTEX
10
-3532.2000
20
-213.4000
0
VERTEX
10
-3532.2000
20
-214.1000
0
VERTEX
10
-3532.2000
20
-214.8000
0
VERTEX
10
-3532.2000
20
-215.5000
0
VERTEX
10
-3531.5000
20
-216.2000
0
VERTEX
10
-3530.8000
20
-216.9000
0
VERTEX
10
-3530.1000
20
-217.6000
0
VERTEX
10
-3529.4000
20
-218.3000
0
VERTEX
10
-3528.7000
20
-218.3000
0
VERTEX
10
-3528.0000
20
-218.3000
0
VERTEX
10
-3527.3000
20
-217.6000
0
VERTEX
10
-3526.6000
20
-216.9000
0
VERTEX
10
-3526.6000
20
-216.2000
0
VERTEX
10
-3526.6000
20
-215.5000
0
VERTEX
10
-3527.3000
20
-214.8000
0
VERTEX
10
-3528.0000
20
-214.1000
0
VERTEX
10
-3528.7000
20
-214.1000
0
VERTEX
10
-3528.0000
20
-214.1000
0
VERTEX
10
-3527.3000
20
-214.1000
0
VERTEX
10
-3526.6000
20
-214.1000
0
VERTEX
10
-3525.9000
20
-214.1000
0
VERTEX
10
-3525.2000
20
-214.1000
0
VERTEX
10
-3525.2000
20
-214.8000
0
VERTEX
10
-3525.2000
20
-215.5000
0
VERTEX
10
-3525.2000
20
-216.2000
0
VERTEX
10
-3525.2000
20
-216.9000
0
VERTEX
10
-3525.2000
20
-217.6000
0
VERTEX
10
-3525.2000
20
-218.3000
0
VERTEX
10
-3525.2000
20
-219.0000
0
VERTEX
10
-3525.9000
20
-218.3000
0
VERTEX
10
-3526.6000
20
-219.0000
0
VERTEX
10
-3527.3000
20
-219.0000
0
VERTEX
10
-3528.0000
20
-219.0000
0
VERTEX
10
-3528.7000
20
-219.0000
0
VERTEX
10
-3529.4000
20
-219.0000
0
VERTEX
10
-3530.1000
20
-219.0000
0
VERTEX
10
-3530.8000
20
-219.0000
0
VERTEX
10
-3531.5000
20
-218.3000
0
VERTEX
10
-3532.2000
20
-218.3000
0
VERTEX
10
-3532.9000
20
-217.6000
0
VERTEX
10
-3532.9000
20
-216.9000
0
VERTEX
10
-3533.6000
20
-216.2000
0
VERTEX
10
-3533.6000
20
-215.5000
0
VERTEX
10
-3534.3000
20
-214.8000
0
VERTEX
10
-3534.3000
20
-214.1000
0
VERTEX
10
-3534.3000
20
-213.4000
0
VERTEX
10
-3534.3000
20
-212.7000
0
VERTEX
10
-3534.3000
20
-212.0000
0
VERTEX
10
-3534.3000
20
-211.3000
0
SEQEND
0
POLYLINE
8
M1_Neg
70
1
0
VERTEX
10
-3522.4000
20
-207.1000
0
VERTEX
10
-3521.7000
20
-207.1000
0
VERTEX
10
-3521.0000
20
-207.1000
0
VERTEX
10
-3520.3000
20
-207.1000
0
VERTEX
10
-3519.6000
20
-207.1000
0
VERTEX
10
-3518.9000
20
-207.1000
0
VERTEX
10
-3518.2000
20
-207.1000
0
VERTEX
10
-3517.5000
20
-207.1000
0
VERTEX
10
-3516.8000
20
-207.1000
0
VERTEX
10
-3516.1000
20
-207.8000
0
VERTEX
10
-3515.4000
20
-207.8000
0
VERTEX
10
-3514.7000
20
-208.5000
0
VERTEX
10
-3514.0000
20
-209.2000
0
VERTEX
10
-3514.0000
20
-209.9000
0
VERTEX
10
-3514.0000
20
-210.6000
0
VERTEX
10
-3514.0000
20
-211.3000
0
VERTEX
10
-3514.7000
20
-212.0000
0
VERTEX
10
-3515.4000
20
-212.7000
0
VERTEX
10
-3516.1000
20
-212.7000
0
VERTEX
10
-3516.8000
20
-213.4000
0
VERTEX
10
-3517.5000
20
-213.4000
0
VERTEX
10
-3518.2000
20
-213.4000
0
VERTEX
10
-3518.9000
20
-213.4000
0
VERTEX
10
-3519.6000
20
-213.4000
0
VERTEX
10
-3520.3000
20
-214.1000
0
VERTEX
10
-3520.3000
20
-214.8000
0
VERTEX
10
-3520.3000
20
-215.5000
0
VERTEX
10
-3520.3000
20
-216.2000
0
VERTEX
10
-3520.3000
20
-216.9000
0
VERTEX
10
-3520.3000
20
-217.6000
0
VERTEX
10
-3520.3000
20
-218.3000
0
VERTEX
10
-3519.6000
20
-219.0000
0
VERTEX
10
-3520.3000
20
-219.0000
0
VERTEX
10
-3521.0000
20
-219.0000
0
VERTEX
10
-3521.7000
20
-219.0000
0
VERTEX
10
-3522.4000
20
-219.0000
0
VERTEX
10
-3521.7000
20
-218.3000
0
VERTEX
10
-3521.7000
20
-217.6000
0
VERTEX
10
-3521.7000
20
-216.9000
0
VERTEX
10
-3521.7000
20
-216.2000
0
VERTEX
10
-3521.7000
20
-215.5000
0
VERTEX
10
-3521.7000
20
-214.8000
0
VERTEX
10
-3521.7000
20
-214.1000
0
VERTEX
10
-3521.7000
20
-213.4000
0
VERTEX
10
-3521.7000
20
-212.7000
0
VERTEX
10
-3521.7000
20
-212.0000
0
VERTEX
10
-3521.7000
20
-211.3000
0
VERTEX
10
-3521.7000
20
-210.6000
0
VERTEX
10
-3521.7000
20
-209.9000
0
VERTEX
10
-3521.7000
20
-209.2000
0
VERTEX
10
-3521.7000
20
-208.5000
0
VERTEX
10
-3521.7000
20
-207.8000
0
VERTEX
10
-3522.4000
20
-207.1000
0
SEQEND
0
POLYLINE
8
M1_Neg
70
1
0
VERTEX
10
-3511.9000
20
-219.0000
0
VERTEX
10
-3511.2000
20
-219.0000
0
VERTEX
10
-3510.5000
20
-218.3000
0
VERTEX
10
-3509.8000
20
-218.3000
0
VERTEX
10
-3509.1000
20
-217.6000
0
VERTEX
10
-3508.4000
20
-216.9000
0
VERTEX
10
-3508.4000
20
-216.2000
0
VERTEX
10
-3508.4000
20
-215.5000
0
VERTEX
10
-3508.4000
20
-214.8000
0
VERTEX
10
-3508.4000
20
-214.1000
0
VERTEX
10
-3508.4000
20
-213.4000
0
VERTEX
10
-3508.4000
20
-212.7000
0
VERTEX
10
-3508.4000
20
-212.0000
0
VERTEX
10
-3508.4000
20
-211.3000
0
VERTEX
10
-3509.1000
20
-210.6000
0
VERTEX
10
-3509.8000
20
-210.6000
0
VERTEX
10
-3510.5000
20
-210.6000
0
VERTEX
10
-3511.2000
20
-210.6000
0
VERTEX
10
-3510.5000
20
-209.9000
0
VERTEX
10
-3509.8000
20
-209.2000
0
VERTEX
10
-3509.1000
20
-208.5000
0
VERTEX
10
-3508.4000
20
-207.8000
0
VERTEX
10
-3507.7000
20
-207.8000
0
VERTEX
10
-3507.0000
20
-207.8000
0
VERTEX
10
-3507.0000
20
-208.5000
0
VERTEX
10
-3507.0000
20
-209.2000
0
VERTEX
10
-3507.0000
20
-209.9000
0
VERTEX
10
-3507.0000
20
-210.6000
0
VERTEX
10
-3507.0000
20
-211.3000
0
VERTEX
10
-3507.0000
20
-212.0000
0
VERTEX
10
-3507.0000
20
-212.7000
0
VERTEX
10
-3507.0000
20
-213.4000
0
VERTEX
10
-3507.0000
20
-214.1000
0
VERTEX
10
-3507.0000
20
-214.8000
0
VERTEX
10
-3507.0000
20
-215.5000
0
VERTEX
10
-3507.0000
20
-216.2000
0
VERTEX
10
-3507.0000
20
-216.9000
0
VERTEX
10
-3507.0000
20
-217.6000
0
VERTEX
10
-3506.3000
20
-218.3000
0
VERTEX
10
-3505.6000
20
-218.3000
0
VERTEX
10
-3504.9000
20
-219.0000
0
VERTEX
10
-3504.2000
20
-219.0000
0
VERTEX
10
-3504.9000
20
-219.0000
0
VERTEX
10
-3505.6000
20
-219.0000
0
VERTEX
10
-3506.3000
20
-219.0000
0
VERTEX
10
-3507.0000
20
-219.0000
0
VERTEX
10
-3507.7000
20
-219.0000
0
VERTEX
10
-3508.4000
20
-219.0000
0
VERTEX
10
-3509.1000
20
-219.0000
0
VERTEX
10
-3509.8000
20
-219.0000
0
VERTEX
10
-3510.5000
20
-219.0000
0
VERTEX
10
-3511.2000
20
-219.0000
0
VERTEX
10
-3511.9000
20
-219.0000
0
SEQEND
0
POLYLINE
8
M1_Pos
70
1
0
VERTEX
10
-3519.6000
20
-208.5000
0
VERTEX
10
-3518.9000
20
-208.5000
0
VERTEX
10
-3518.2000
20
-208.5000
0
VERTEX
10
-3517.5000
20
-208.5000
0
VERTEX
10
-3517.5000
20
-209.2000
0
VERTEX
10
-3516.8000
20
-209.2000
0
VERTEX
10
-3516.8000
20
-209.9000
0
VERTEX
10
-3516.1000
20
-209.9000
0
VERTEX
10
-3516.1000
20
-210.6000
0
VERTEX
10
-3516.8000
20
-210.6000
0
VERTEX
10
-3516.8000
20
-211.3000
0
VERTEX
10
-3517.5000
20
-211.3000
0
VERTEX
10
-3517.5000
20
-212.0000
0
VERTEX
10
-3518.2000
20
-212.0000
0
VERTEX
10
-3518.9000
20
-212.0000
0
VERTEX
10
-3519.6000
20
-212.0000
0
VERTEX
10
-3519.6000
20
-211.3000
0
VERTEX
10
-3519.6000
20
-210.6000
0
VERTEX
10
-3519.6000
20
-209.9000
0
VERTEX
10
-3519.6000
20
-209.2000
0
VERTEX
10
-3519.6000
20
-208.5000
0
SEQEND
0
POLYLINE
8
M2_Neg
70
1
0
VERTEX
10
-3590.0000
20
-290.0000
0
VERTEX
10
-3410.0000
20
-290.0000
0
VERTEX
10
-3410.0000
20
-110.0000
0
VERTEX
10
-3590.0000
20
-110.0000
0
SEQEND
0
POLYLINE
8
M1_Neg
70
1
0
VERTEX
10
3502.0000
20
-199.8000
0
VERTEX
10
3500.2000
20
-199.8000
0
VERTEX
10
3500.2000
20
-198.0000
0
VERTEX
10
3499.8000
20
-198.0000
0
VERTEX
10
3499.8000
20
-199.8000
0
VERTEX
10
3498.0000
20
-199.8000
0
VERTEX
10
3498.0000
20
-200.2000
0
VERTEX
10
3499.8000
20
-200.2000
0
VERTEX
10
3499.8000
20
-202.0000
0
VERTEX
10
3500.2000
20
-202.0000
0
VERTEX
10
3500.2000
20
-200.2000
0
VERTEX
10
3502.0000
20
-200.2000
0
SEQEND
0
POLYLINE
8
M1_Neg
70
1
0
VERTEX
10
3502.0000
20
-201.0000
0
VERTEX
10
3530.0000
20
-201.0000
0
VERTEX
10
3530.0000
20
-199.0000
0
VERTEX
10
3502.0000
20
-199.0000
0
SEQEND
0
POLYLINE
8
M1_Neg
70
1
0
VERTEX
10
3470.0000
20
-201.0000
0
VERTEX
10
3498.0000
20
-201.0000
0
VERTEX
10
3498.0000
20
-199.0000
0
VERTEX
10
3470.0000
20
-199.0000
0
SEQEND
0
POLYLINE
8
M1_Neg
70
1
0
VERTEX
10
3499.0000
20
-198.0000
0
VERTEX
10
3501.0000
20
-198.0000
0
VERTEX
10
3501.0000
20
-170.0000
0
VERTEX
10
3499.0000
20
-170.0000
0
SEQEND
0
POLYLINE
8
M1_Neg
70
1
0
VERTEX
10
3499.0000
20
-230.0000
0
VERTEX
10
3501.0000
20
-230.0000
0
VERTEX
10
3501.0000
20
-202.0000
0
VERTEX
10
3499.0000
20
-202.0000
0
SEQEND
0
POLYLINE
8
M1_Neg
70
1
0
VERTEX
10
3465.7000
20
-211.3000
0
VERTEX
10
3466.4000
20
-210.6000
0
VERTEX
10
3466.4000
20
-209.9000
0
VERTEX
10
3467.1000
20
-209.2000
0
VERTEX
10
3467.1000
20
-208.5000
0
VERTEX
10
3467.8000
20
-207.8000
0
VERTEX
10
3468.5000
20
-207.8000
0
VERTEX
10
3469.2000
20
-207.1000
0
VERTEX
10
3469.9000
20
-207.1000
0
VERTEX
10
3470.6000
20
-207.1000
0
VERTEX
10
3471.3000
20
-207.1000
0
VERTEX
10
3472.0000
20
-207.1000
0
VERTEX
10
3472.7000
20
-207.1000
0
VERTEX
10
3473.4000
20
-207.1000
0
VERTEX
10
3474.1000
20
-207.8000
0
VERTEX
10
3474.1000
20
-208.5000
0
VERTEX
10
3474.8000
20
-209.2000
0
VERTEX
10
3474.8000
20
-209.9000
0
VERTEX
10
3474.8000
20
-210.6000
0
VERTEX
10
3474.1000
20
-210.6000
0
VERTEX
10
3473.4000
20
-210.6000
0
VERTEX
10
3473.4000
20
-209.9000
0
VERTEX
10
3473.4000
20
-209.2000
0
VERTEX
10
3472.7000
20
-208.5000
0
VERTEX
10
3472.0000
20
-207.8000
0
VERTEX
10
3471.3000
20
-207.8000
0
VERTEX
10
3470.6000
20
-207.8000
0
VERTEX
10
3469.9000
20
-208.5000
0
VERTEX
10
3469.2000
20
-209.2000
0
VERTEX
10
3468.5000
20
-209.9000
0
VERTEX
10
3467.8000
20
-210.6000
0
VERTEX
10
3467.8000
20
-211.3000
0
VERTEX
10
3467.8000
20
-212.0000
0
VERTEX
10
3467.8000
20
-212.7000
0
VERTEX
10
3467.8000
20
-213.4000
0
VERTEX
10
3467.8000
20
-214.1000
0
VERTEX
10
3467.8000
20
-214.8000
0
VERTEX
10
3467.8000
20
-215.5000
0
VERTEX
10
3468.5000
20
-216.2000
0
VERTEX
10
3469.2000
20
-216.9000
0
VERTEX
10
3469.9000
20
-217.6000
0
VERTEX
10
3470.6000
20
-218.3000
0
VERTEX
10
3471.3000
20
-218.3000
0
VERTEX
10
3472.0000
20
-218.3000
0
VERTEX
10
3472.7000
20
-217.6000
0
VERTEX
10
3473.4000
20
-216.9000
0
VERTEX
10
3473.4000
20
-216.2000
0
VERTEX
10
3473.4000
20
-215.5000
0
VERTEX
10
3472.7000
20
-214.8000
0
VERTEX
10
3472.0000
20
-214.1000
0
VERTEX
10
3471.3000
20
-214.1000
0
VERTEX
10
3472.0000
20
-214.1000
0
VERTEX
10
3472.7000
20
-214.1000
0
VERTEX
10
3473.4000
20
-214.1000
0
VERTEX
10
3474.1000
20
-214.1000
0
VERTEX
10
3474.8000
20
-214.1000
0
VERTEX
10
3474.8000
20
-214.8000
0
VERTEX
10
3474.8000
20
-215.5000
0
VERTEX
10
3474.8000
20
-216.2000
0
VERTEX
10
3474.8000
20
-216.9000
0
VERTEX
10
3474.8000
20
-217.6000
0
VERTEX
10
3474.8000
20
-218.3000
0
VERTEX
10
3474.8000
20
-219.0000
0
VERTEX
10
3474.1000
20
-218.3000
0
VERTEX
10
3473.4000
20
-219.0000
0
VERTEX
10
3472.7000
20
-219.0000
0
VERTEX
10
3472.0000
20
-219.0000
0
VERTEX
10
3471.3000
20
-219.0000
0
VERTEX
10
3470.6000
20
-219.0000
0
VERTEX
10
3469.9000
20
-219.0000
0
VERTEX
10
3469.2000
20
-219.0000
0
VERTEX
10
3468.5000
20
-218.3000
0
VERTEX
10
3467.8000
20
-218.3000
0
VERTEX
10
3467.1000
20
-217.6000
0
VERTEX
10
3467.1000
20
-216.9000
0
VERTEX
10
3466.4000
20
-216.2000
0
VERTEX
10
3466.4000
20
-215.5000
0
VERTEX
10
3465.7000
20
-214.8000
0
VERTEX
10
3465.7000
20
-214.1000
0
VERTEX
10
3465.7000
20
-213.4000
0
VERTEX
10
3465.7000
20
-212.7000
0
VERTEX
10
3465.7000
20
-212.0000
0
VERTEX
10
3465.7000
20
-211.3000
0
SEQEND
0
POLYLINE
8
M1_Neg
70
1
0
VERTEX
10
3476.9000
20
-210.6000
0
VERTEX
10
3477.6000
20
-209.9000
0
VERTEX
10
3477.6000
20
-209.2000
0
VERTEX
10
3478.3000
20
-208.5000
0
VERTEX
10
3479.0000
20
-207.8000
0
VERTEX
10
3479.7000
20
-207.1000
0
VERTEX
10
3480.4000
20
-207.1000
0
VERTEX
10
3481.1000
20
-207.1000
0
VERTEX
10
3481.8000
20
-207.1000
0
VERTEX
10
3482.5000
20
-207.1000
0
VERTEX
10
3483.2000
20
-207.1000
0
VERTEX
10
3483.9000
20
-207.8000
0
VERTEX
10
3484.6000
20
-208.5000
0
VERTEX
10
3485.3000
20
-209.2000
0
VERTEX
10
3485.3000
20
-209.9000
0
VERTEX
10
3486.0000
20
-210.6000
0
VERTEX
10
3486.0000
20
-211.3000
0
VERTEX
10
3486.0000
20
-212.0000
0
VERTEX
10
3486.0000
20
-212.7000
0
VERTEX
10
3486.0000
20
-213.4000
0
VERTEX
10
3486.0000
20
-214.1000
0
VERTEX
10
3486.0000
20
-214.8000
0
VERTEX
10
3486.0000
20
-215.5000
0
VERTEX
10
3485.3000
20
-216.2000
0
VERTEX
10
3486.0000
20
-216.9000
0
VERTEX
10
3486.0000
20
-217.6000
0
VERTEX
10
3486.0000
20
-218.3000
0
VERTEX
10
3486.0000
20
-219.0000
0
VERTEX
10
3485.3000
20
-219.0000
0
VERTEX
10
3485.3000
20
-218.3000
0
VERTEX
10
3484.6000
20
-217.6000
0
VERTEX
10
3483.9000
20
-218.3000
0
VERTEX
10
3483.2000
20
-219.0000
0
VERTEX
10
3482.5000
20
-219.0000
0
VERTEX
10
3481.8000
20
-219.0000
0
VERTEX
10
3481.1000
20
-219.0000
0
VERTEX
10
3480.4000
20
-219.0000
0
VERTEX
10
3479.7000
20
-219.0000
0
VERTEX
10
3479.0000
20
-218.3000
0
VERTEX
10
3478.3000
20
-217.6000
0
VERTEX
10
3477.6000
20
-216.9000
0
VERTEX
10
3477.6000
20
-216.2000
0
VERTEX
10
3476.9000
20
-215.5000
0
VERTEX
10
3476.9000
20
-214.8000
0
VERTEX
10
3476.9000
20
-214.1000
0
VERTEX
10
3476.9000
20
-213.4000
0
VERTEX
10
3476.9000
20
-212.7000
0
VERTEX
10
3476.9000
20
-212.0000
0
VERTEX
10
3476.9000
20
-211.3000
0
VERTEX
10
3476.9000
20
-210.6000
0
SEQEND
0
POLYLINE
8
M1_Neg
70
1
0
VERTEX
10
3488.1000
20
-219.0000
0
VERTEX
10
3488.8000
20
-219.0000
0
VERTEX
10
3489.5000
20
-218.3000
0
VERTEX
10
3490.2000
20
-218.3000
0
VERTEX
10
3490.9000
20
-217.6000
0
VERTEX
10
3491.6000
20
-216.9000
0
VERTEX
10
3491.6000
20
-216.2000
0
VERTEX
10
3491.6000
20
-215.5000
0
VERTEX
10
3491.6000
20
-214.8000
0
VERTEX
10
3491.6000
20
-214.1000
0
VERTEX
10
3491.6000
20
-213.4000
0
VERTEX
10
3491.6000
20
-212.7000
0
VERTEX
10
3491.6000
20
-212.0000
0
VERTEX
10
3491.6000
20
-211.3000
0
VERTEX
10
3490.9000
20
-210.6000
0
VERTEX
10
3490.2000
20
-210.6000
0
VERTEX
10
3489.5000
20
-210.6000
0
VERTEX
10
3488.8000
20
-210.6000
0
VERTEX
10
3489.5000
20
-209.9000
0
VERTEX
10
3490.2000
20
-209.2000
0
VERTEX
10
3490.9000
20
-208.5000
0
VERTEX
10
3491.6000
20
-207.8000
0
VERTEX
10
3492.3000
20
-207.8000
0
VERTEX
10
3493.0000
20
-207.8000
0
VERTEX
10
3493.0000
20
-208.5000
0
VERTEX
10
3493.0000
20
-209.2000
0
VERTEX
10
3493.0000
20
-209.9000
0
VERTEX
10
3493.0000
20
-210.6000
0
VERTEX
10
3493.0000
20
-211.3000
0
VERTEX
10
3493.0000
20
-212.0000
0
VERTEX
10
3493.0000
20
-212.7000
0
VERTEX
10
3493.0000
20
-213.4000
0
VERTEX
10
3493.0000
20
-214.1000
0
VERTEX
10
3493.0000
20
-214.8000
0
VERTEX
10
3493.0000
20
-215.5000
0
VERTEX
10
3493.0000
20
-216.2000
0
VERTEX
10
3493.0000
20
-216.9000
0
VERTEX
10
3493.0000
20
-217.6000
0
VERTEX
10
3493.7000
20
-218.3000
0
VERTEX
10
3494.4000
20
-218.3000
0
VERTEX
10
3495.1000
20
-219.0000
0
VERTEX
10
3495.8000
20
-219.0000
0
VERTEX
10
3495.1000
20
-219.0000
0
VERTEX
10
3494.4000
20
-219.0000
0
VERTEX
10
3493.7000
20
-219.0000
0
VERTEX
10
3493.0000
20
-219.0000
0
VERTEX
10
3492.3000
20
-219.0000
0
VERTEX
10
3491.6000
20
-219.0000
0
VERTEX
10
3490.9000
20
-219.0000
0
VERTEX
10
3490.2000
20
-219.0000
0
VERTEX
10
3489.5000
20
-219.0000
0
VERTEX
10
3488.8000
20
-219.0000
0
VERTEX
10
3488.1000
20
-219.0000
0
SEQEND
0
POLYLINE
8
M1_Pos
70
1
0
VERTEX
10
3479.0000
20
-211.3000
0
VERTEX
10
3479.7000
20
-211.3000
0
VERTEX
10
3479.7000
20
-210.6000
0
VERTEX
10
3479.7000
20
-209.9000
0
VERTEX
10
3480.4000
20
-209.9000
0
VERTEX
10
3480.4000
20
-209.2000
0
VERTEX
10
3481.1000
20
-209.2000
0
VERTEX
10
3481.1000
20
-208.5000
0
VERTEX
10
3481.8000
20
-208.5000
0
VERTEX
10
3481.8000
20
-209.2000
0
VERTEX
10
3482.5000
20
-209.2000
0
VERTEX
10
3482.5000
20
-209.9000
0
VERTEX
10
3483.2000
20
-209.9000
0
VERTEX
10
3483.2000
20
-210.6000
0
VERTEX
10
3483.2000
20
-211.3000
0
VERTEX
10
3483.9000
20
-211.3000
0
VERTEX
10
3483.9000
20
-212.0000
0
VERTEX
10
3483.9000
20
-212.7000
0
VERTEX
10
3483.9000
20
-213.4000
0
VERTEX
10
3483.9000
20
-214.1000
0
VERTEX
10
3483.9000
20
-214.8000
0
VERTEX
10
3483.9000
20
-214.1000
0
VERTEX
10
3483.2000
20
-214.1000
0
VERTEX
10
3482.5000
20
-214.1000
0
VERTEX
10
3481.8000
20
-214.1000
0
VERTEX
10
3481.8000
20
-214.8000
0
VERTEX
10
3481.8000
20
-215.5000
0
VERTEX
10
3481.8000
20
-216.2000
0
VERTEX
10
3481.8000
20
-216.9000
0
VERTEX
10
3482.5000
20
-216.9000
0
VERTEX
10
3481.8000
20
-216.9000
0
VERTEX
10
3481.8000
20
-217.6000
0
VERTEX
10
3481.1000
20
-217.6000
0
VERTEX
10
3481.1000
20
-216.9000
0
VERTEX
10
3480.4000
20
-216.9000
0
VERTEX
10
3480.4000
20
-216.2000
0
VERTEX
10
3479.7000
20
-216.2000
0
VERTEX
10
3479.7000
20
-215.5000
0
VERTEX
10
3479.7000
20
-214.8000
0
VERTEX
10
3479.0000
20
-214.8000
0
VERTEX
10
3479.0000
20
-214.1000
0
VERTEX
10
3479.0000
20
-213.4000
0
VERTEX
10
3479.0000
20
-212.7000
0
VERTEX
10
3479.0000
20
-212.0000
0
VERTEX
10
3479.0000
20
-211.3000
0
SEQEND
0
POLYLINE
8
M2_Neg
70
1
0
VERTEX
10
3410.0000
20
-290.0000
0
VERTEX
10
3590.0000
20
-290.0000
0
VERTEX
10
3590.0000
20
-110.0000
0
VERTEX
10
3410.0000
20
-110.0000
0
SEQEND
0
POLYLINE
8
M1_Neg
70
1
0
VERTEX
10
-198.0000
20
2000.2000
0
VERTEX
10
-199.8000
20
2000.2000
0
VERTEX
10
-199.8000
20
2002.0000
0
VERTEX
10
-200.2000
20
2002.0000
0
VERTEX
10
-200.2000
20
2000.2000
0
VERTEX
10
-202.0000
20
2000.2000
0
VERTEX
10
-202.0000
20
1999.8000
0
VERTEX
10
-200.2000
20
1999.8000
0
VERTEX
10
-200.2000
20
1998.0000
0
VERTEX
10
-199.8000
20
1998.0000
0
VERTEX
10
-199.8000
20
1999.8000
0
VERTEX
10
-198.0000
20
1999.8000
0
SEQEND
0
POLYLINE
8
M1_Neg
70
1
0
VERTEX
10
-198.0000
20
1999.0000
0
VERTEX
10
-170.0000
20
1999.0000
0
VERTEX
10
-170.0000
20
2001.0000
0
VERTEX
10
-198.0000
20
2001.0000
0
SEQEND
0
POLYLINE
8
M1_Neg
70
1
0
VERTEX
10
-230.0000
20
1999.0000
0
VERTEX
10
-202.0000
20
1999.0000
0
VERTEX
10
-202.0000
20
2001.0000
0
VERTEX
10
-230.0000
20
2001.0000
0
SEQEND
0
POLYLINE
8
M1_Neg
70
1
0
VERTEX
10
-201.0000
20
2002.0000
0
VERTEX
10
-199.0000
20
2002.0000
0
VERTEX
10
-199.0000
20
2030.0000
0
VERTEX
10
-201.0000
20
2030.0000
0
SEQEND
0
POLYLINE
8
M1_Neg
70
1
0
VERTEX
10
-201.0000
20
1970.0000
0
VERTEX
10
-199.0000
20
1970.0000
0
VERTEX
10
-199.0000
20
1998.0000
0
VERTEX
10
-201.0000
20
1998.0000
0
SEQEND
0
POLYLINE
8
M1_Neg
70
1
0
VERTEX
10
-234.3000
20
1988.7000
0
VERTEX
10
-233.6000
20
1989.4000
0
VERTEX
10
-233.6000
20
1990.1000
0
VERTEX
10
-232.9000
20
1990.8000
0
VERTEX
10
-232.9000
20
1991.5000
0
VERTEX
10
-232.2000
20
1992.2000
0
VERTEX
10
-231.5000
20
1992.2000
0
VERTEX
10
-230.8000
20
1992.9000
0
VERTEX
10
-230.1000
20
1992.9000
0
VERTEX
10
-229.4000
20
1992.9000
0
VERTEX
10
-228.7000
20
1992.9000
0
VERTEX
10
-228.0000
20
1992.9000
0
VERTEX
10
-227.3000
20
1992.9000
0
VERTEX
10
-226.6000
20
1992.9000
0
VERTEX
10
-225.9000
20
1992.2000
0
VERTEX
10
-225.9000
20
1991.5000
0
VERTEX
10
-225.2000
20
1990.8000
0
VERTEX
10
-225.2000
20
1990.1000
0
VERTEX
10
-225.2000
20
1989.4000
0
VERTEX
10
-225.9000
20
1989.4000
0
VERTEX
10
-226.6000
20
1989.4000
0
VERTEX
10
-226.6000
20
1990.1000
0
VERTEX
10
-226.6000
20
1990.8000
0
VERTEX
10
-227.3000
20
1991.5000
0
VERTEX
10
-228.0000
20
1992.2000
0
VERTEX
10
-228.7000
20
1992.2000
0
VERTEX
10
-229.4000
20
1992.2000
0
VERTEX
10
-230.1000
20
1991.5000
0
VERTEX
10
-230.8000
20
1990.8000
0
VERTEX
10
-231.5000
20
1990.1000
0
VERTEX
10
-232.2000
20
1989.4000
0
VERTEX
10
-232.2000
20
1988.7000
0
VERTEX
10
-232.2000
20
1988.0000
0
VERTEX
10
-232.2000
20
1987.3000
0
VERTEX
10
-232.2000
20
1986.6000
0
VERTEX
10
-232.2000
20
1985.9000
0
VERTEX
10
-232.2000
20
1985.2000
0
VERTEX
10
-232.2000
20
1984.5000
0
VERTEX
10
-231.5000
20
1983.8000
0
VERTEX
10
-230.8000
20
1983.1000
0
VERTEX
10
-230.1000
20
1982.4000
0
VERTEX
10
-229.4000
20
1981.7000
0
VERTEX
10
-228.7000
20
1981.7000
0
VERTEX
10
-228.0000
20
1981.7000
0
VERTEX
10
-227.3000
20
1982.4000
0
VERTEX
10
-226.6000
20
1983.1000
0
VERTEX
10
-226.6000
20
1983.8000
0
VERTEX
10
-226.6000
20
1984.5000
0
VERTEX
10
-227.3000
20
1985.2000
0
VERTEX
10
-228.0000
20
1985.9000
0
VERTEX
10
-228.7000
20
1985.9000
0
VERTEX
10
-228.0000
20
1985.9000
0
VERTEX
10
-227.3000
20
1985.9000
0
VERTEX
10
-226.6000
20
1985.9000
0
VERTEX
10
-225.9000
20
1985.9000
0
VERTEX
10
-225.2000
20
1985.9000
0
VERTEX
10
-225.2000
20
1985.2000
0
VERTEX
10
-225.2000
20
1984.5000
0
VERTEX
10
-225.2000
20
1983.8000
0
VERTEX
10
-225.2000
20
1983.1000
0
VERTEX
10
-225.2000
20
1982.4000
0
VERTEX
10
-225.2000
20
1981.7000
0
VERTEX
10
-225.2000
20
1981.0000
0
VERTEX
10
-225.9000
20
1981.7000
0
VERTEX
10
-226.6000
20
1981.0000
0
VERTEX
10
-227.3000
20
1981.0000
0
VERTEX
10
-228.0000
20
1981.0000
0
VERTEX
10
-228.7000
20
1981.0000
0
VERTEX
10
-229.4000
20
1981.0000
0
VERTEX
10
-230.1000
20
1981.0000
0
VERTEX
10
-230.8000
20
1981.0000
0
VERTEX
10
-231.5000
20
1981.7000
0
VERTEX
10
-232.2000
20
1981.7000
0
VERTEX
10
-232.9000
20
1982.4000
0
VERTEX
10
-232.9000
20
1983.1000
0
VERTEX
10
-233.6000
20
1983.8000
0
VERTEX
10
-233.6000
20
1984.5000
0
VERTEX
10
-234.3000
20
1985.2000
0
VERTEX
10
-234.3000
20
1985.9000
0
VERTEX
10
-234.3000
20
1986.6000
0
VERTEX
10
-234.3000
20
1987.3000
0
VERTEX
10
-234.3000
20
1988.0000
0
VERTEX
10
-234.3000
20
1988.7000
0
SEQEND
0
POLYLINE
8
M1_Neg
70
1
0
VERTEX
10
-223.1000
20
1992.9000
0
VERTEX
10
-222.4000
20
1992.9000
0
VERTEX
10
-221.7000
20
1992.9000
0
VERTEX
10
-221.0000
20
1992.9000
0
VERTEX
10
-220.3000
20
1992.9000
0
VERTEX
10
-219.6000
20
1992.9000
0
VERTEX
10
-218.9000
20
1992.9000
0
VERTEX
10
-218.2000
20
1992.9000
0
VERTEX
10
-217.5000
20
1992.9000
0
VERTEX
10
-216.8000
20
1992.9000
0
VERTEX
10
-216.1000
20
1992.9000
0
VERTEX
10
-215.4000
20
1992.2000
0
VERTEX
10
-214.7000
20
1991.5000
0
VERTEX
10
-214.7000
20
1990.8000
0
VERTEX
10
-214.0000
20
1990.1000
0
VERTEX
10
-214.0000
20
1989.4000
0
VERTEX
10
-214.0000
20
1988.7000
0
VERTEX
10
-214.7000
20
1988.0000
0
VERTEX
10
-215.4000
20
1987.3000
0
VERTEX
10
-216.1000
20
1986.6000
0
VERTEX
10
-216.1000
20
1985.9000
0
VERTEX
10
-215.4000
20
1985.2000
0
VERTEX
10
-214.7000
20
1984.5000
0
VERTEX
10
-214.7000
20
1983.8000
0
VERTEX
10
-214.7000
20
1983.1000
0
VERTEX
10
-214.7000
20
1982.4000
0
VERTEX
10
-214.7000
20
1981.7000
0
VERTEX
10
-214.0000
20
1981.0000
0
VERTEX
10
-214.7000
20
1981.0000
0
VERTEX
10
-215.4000
20
1981.0000
0
VERTEX
10
-216.1000
20
1981.0000
0
VERTEX
10
-216.1000
20
1981.7000
0
VERTEX
10
-216.1000
20
1982.4000
0
VERTEX
10
-216.1000
20
1983.1000
0
VERTEX
10
-216.1000
20
1983.8000
0
VERTEX
10
-216.1000
20
1984.5000
0
VERTEX
10
-216.8000
20
1985.2000
0
VERTEX
10
-217.5000
20
1985.9000
0
VERTEX
10
-218.2000
20
1986.6000
0
VERTEX
10
-218.9000
20
1986.6000
0
VERTEX
10
-219.6000
20
1986.6000
0
VERTEX
10
-220.3000
20
1985.9000
0
VERTEX
10
-220.3000
20
1985.2000
0
VERTEX
10
-220.3000
20
1984.5000
0
VERTEX
10
-220.3000
20
1983.8000
0
VERTEX
10
-220.3000
20
1983.1000
0
VERTEX
10
-220.3000
20
1982.4000
0
VERTEX
10
-220.3000
20
1981.7000
0
VERTEX
10
-220.3000
20
1981.0000
0
VERTEX
10
-221.0000
20
1981.0000
0
VERTEX
10
-221.7000
20
1981.0000
0
VERTEX
10
-222.4000
20
1981.0000
0
VERTEX
10
-223.1000
20
1981.0000
0
VERTEX
10
-222.4000
20
1981.7000
0
VERTEX
10
-221.7000
20
1982.4000
0
VERTEX
10
-221.7000
20
1983.1000
0
VERTEX
10
-221.7000
20
1983.8000
0
VERTEX
10
-221.7000
20
1984.5000
0
VERTEX
10
-221.7000
20
1985.2000
0
VERTEX
10
-221.7000
20
1985.9000
0
VERTEX
10
-221.7000
20
1986.6000
0
VERTEX
10
-221.7000
20
1987.3000
0
VERTEX
10
-221.7000
20
1988.0000
0
VERTEX
10
-221.7000
20
1988.7000
0
VERTEX
10
-221.7000
20
1989.4000
0
VERTEX
10
-221.7000
20
1990.1000
0
VERTEX
10
-221.7000
20
1990.8000
0
VERTEX
10
-221.7000
20
1991.5000
0
VERTEX
10
-222.4000
20
1992.2000
0
VERTEX
10
-223.1000
20
1992.9000
0
SEQEND
0
POLYLINE
8
M1_Neg
70
1
0
VERTEX
10
-211.9000
20
1981.0000
0
VERTEX
10
-211.2000
20
1981.0000
0
VERTEX
10
-210.5000
20
1981.7000
0
VERTEX
10
-209.8000
20
1981.7000
0
VERTEX
10
-209.1000
20
1982.4000
0
VERTEX
10
-208.4000
20
1983.1000
0
VERTEX
10
-208.4000
20
1983.8000
0
VERTEX
10
-208.4000
20
1984.5000
0
VERTEX
10
-208.4000
20
1985.2000
0
VERTEX
10
-208.4000
20
1985.9000
0
VERTEX
10
-208.4000
20
1986.6000
0
VERTEX
10
-208.4000
20
1987.3000
0
VERTEX
10
-208.4000
20
1988.0000
0
VERTEX
10
-208.4000
20
1988.7000
0
VERTEX
10
-209.1000
20
1989.4000
0
VERTEX
10
-209.8000
20
1989.4000
0
VERTEX
10
-210.5000
20
1989.4000
0
VERTEX
10
-211.2000
20
1989.4000
0
VERTEX
10
-210.5000
20
1990.1000
0
VERTEX
10
-209.8000
20
1990.8000
0
VERTEX
10
-209.1000
20
1991.5000
0
VERTEX
10
-208.4000
20
1992.2000
0
VERTEX
10
-207.7000
20
1992.2000
0
VERTEX
10
-207.0000
20
1992.2000
0
VERTEX
10
-207.0000
20
1991.5000
0
VERTEX
10
-207.0000
20
1990.8000
0
VERTEX
10
-207.0000
20
1990.1000
0
VERTEX
10
-207.0000
20
1989.4000
0
VERTEX
10
-207.0000
20
1988.7000
0
VERTEX
10
-207.0000
20
1988.0000
0
VERTEX
10
-207.0000
20
1987.3000
0
VERTEX
10
-207.0000
20
1986.6000
0
VERTEX
10
-207.0000
20
1985.9000
0
VERTEX
10
-207.0000
20
1985.2000
0
VERTEX
10
-207.0000
20
1984.5000
0
VERTEX
10
-207.0000
20
1983.8000
0
VERTEX
10
-207.0000
20
1983.1000
0
VERTEX
10
-207.0000
20
1982.4000
0
VERTEX
10
-206.3000
20
1981.7000
0
VERTEX
10
-205.6000
20
1981.7000
0
VERTEX
10
-204.9000
20
1981.0000
0
VERTEX
10
-204.2000
20
1981.0000
0
VERTEX
10
-204.9000
20
1981.0000
0
VERTEX
10
-205.6000
20
1981.0000
0
VERTEX
10
-206.3000
20
1981.0000
0
VERTEX
10
-207.0000
20
1981.0000
0
VERTEX
10
-207.7000
20
1981.0000
0
VERTEX
10
-208.4000
20
1981.0000
0
VERTEX
10
-209.1000
20
1981.0000
0
VERTEX
10
-209.8000
20
1981.0000
0
VERTEX
10
-210.5000
20
1981.0000
0
VERTEX
10
-211.2000
20
1981.0000
0
VERTEX
10
-211.9000
20
1981.0000
0
SEQEND
0
POLYLINE
8
M1_Pos
70
1
0
VERTEX
10
-219.6000
20
1991.5000
0
VERTEX
10
-218.9000
20
1991.5000
0
VERTEX
10
-218.2000
20
1991.5000
0
VERTEX
10
-217.5000
20
1991.5000
0
VERTEX
10
-217.5000
20
1990.8000
0
VERTEX
10
-216.8000
20
1990.8000
0
VERTEX
10
-216.8000
20
1990.1000
0
VERTEX
10
-216.8000
20
1989.4000
0
VERTEX
10
-216.8000
20
1988.7000
0
VERTEX
10
-217.5000
20
1988.7000
0
VERTEX
10
-217.5000
20
1988.0000
0
VERTEX
10
-218.2000
20
1988.0000
0
VERTEX
10
-218.9000
20
1988.0000
0
VERTEX
10
-219.6000
20
1988.0000
0
VERTEX
10
-219.6000
20
1988.7000
0
VERTEX
10
-219.6000
20
1989.4000
0
VERTEX
10
-219.6000
20
1990.1000
0
VERTEX
10
-219.6000
20
1990.8000
0
VERTEX
10
-219.6000
20
1991.5000
0
SEQEND
0
POLYLINE
8
M2_Neg
70
1
0
VERTEX
10
-290.0000
20
1910.0000
0
VERTEX
10
-110.0000
20
1910.0000
0
VERTEX
10
-110.0000
20
2090.0000
0
VERTEX
10
-290.0000
20
2090.0000
0
SEQEND
0
POLYLINE
8
M1_Neg
70
1
0
VERTEX
10
-198.0000
20
-1999.8000
0
VERTEX
10
-199.8000
20
-1999.8000
0
VERTEX
10
-199.8000
20
-1998.0000
0
VERTEX
10
-200.2000
20
-1998.0000
0
VERTEX
10
-200.2000
20
-1999.8000
0
VERTEX
10
-202.0000
20
-1999.8000
0
VERTEX
10
-202.0000
20
-2000.2000
0
VERTEX
10
-200.2000
20
-2000.2000
0
VERTEX
10
-200.2000
20
-2002.0000
0
VERTEX
10
-199.8000
20
-2002.0000
0
VERTEX
10
-199.8000
20
-2000.2000
0
VERTEX
10
-198.0000
20
-2000.2000
0
SEQEND
0
POLYLINE
8
M1_Neg
70
1
0
VERTEX
10
-198.0000
20
-2001.0000
0
VERTEX
10
-170.0000
20
-2001.0000
0
VERTEX
10
-170.0000
20
-1999.0000
0
VERTEX
10
-198.0000
20
-1999.0000
0
SEQEND
0
POLYLINE
8
M1_Neg
70
1
0
VERTEX
10
-230.0000
20
-2001.0000
0
VERTEX
10
-202.0000
20
-2001.0000
0
VERTEX
10
-202.0000
20
-1999.0000
0
VERTEX
10
-230.0000
20
-1999.0000
0
SEQEND
0
POLYLINE
8
M1_Neg
70
1
0
VERTEX
10
-201.0000
20
-1998.0000
0
VERTEX
10
-199.0000
20
-1998.0000
0
VERTEX
10
-199.0000
20
-1970.0000
0
VERTEX
10
-201.0000
20
-1970.0000
0
SEQEND
0
POLYLINE
8
M1_Neg
70
1
0
VERTEX
10
-201.0000
20
-2030.0000
0
VERTEX
10
-199.0000
20
-2030.0000
0
VERTEX
10
-199.0000
20
-2002.0000
0
VERTEX
10
-201.0000
20
-2002.0000
0
SEQEND
0
POLYLINE
8
M1_Neg
70
1
0
VERTEX
10
-234.3000
20
-2011.3000
0
VERTEX
10
-233.6000
20
-2010.6000
0
VERTEX
10
-233.6000
20
-2009.9000
0
VERTEX
10
-232.9000
20
-2009.2000
0
VERTEX
10
-232.9000
20
-2008.5000
0
VERTEX
10
-232.2000
20
-2007.8000
0
VERTEX
10
-231.5000
20
-2007.8000
0
VERTEX
10
-230.8000
20
-2007.1000
0
VERTEX
10
-230.1000
20
-2007.1000
0
VERTEX
10
-229.4000
20
-2007.1000
0
VERTEX
10
-228.7000
20
-2007.1000
0
VERTEX
10
-228.0000
20
-2007.1000
0
VERTEX
10
-227.3000
20
-2007.1000
0
VERTEX
10
-226.6000
20
-2007.1000
0
VERTEX
10
-225.9000
20
-2007.8000
0
VERTEX
10
-225.9000
20
-2008.5000
0
VERTEX
10
-225.2000
20
-2009.2000
0
VERTEX
10
-225.2000
20
-2009.9000
0
VERTEX
10
-225.2000
20
-2010.6000
0
VERTEX
10
-225.9000
20
-2010.6000
0
VERTEX
10
-226.6000
20
-2010.6000
0
VERTEX
10
-226.6000
20
-2009.9000
0
VERTEX
10
-226.6000
20
-2009.2000
0
VERTEX
10
-227.3000
20
-2008.5000
0
VERTEX
10
-228.0000
20
-2007.8000
0
VERTEX
10
-228.7000
20
-2007.8000
0
VERTEX
10
-229.4000
20
-2007.8000
0
VERTEX
10
-230.1000
20
-2008.5000
0
VERTEX
10
-230.8000
20
-2009.2000
0
VERTEX
10
-231.5000
20
-2009.9000
0
VERTEX
10
-232.2000
20
-2010.6000
0
VERTEX
10
-232.2000
20
-2011.3000
0
VERTEX
10
-232.2000
20
-2012.0000
0
VERTEX
10
-232.2000
20
-2012.7000
0
VERTEX
10
-232.2000
20
-2013.4000
0
VERTEX
10
-232.2000
20
-2014.1000
0
VERTEX
10
-232.2000
20
-2014.8000
0
VERTEX
10
-232.2000
20
-2015.5000
0
VERTEX
10
-231.5000
20
-2016.2000
0
VERTEX
10
-230.8000
20
-2016.9000
0
VERTEX
10
-230.1000
20
-2017.6000
0
VERTEX
10
-229.4000
20
-2018.3000
0
VERTEX
10
-228.7000
20
-2018.3000
0
VERTEX
10
-228.0000
20
-2018.3000
0
VERTEX
10
-227.3000
20
-2017.6000
0
VERTEX
10
-226.6000
20
-2016.9000
0
VERTEX
10
-226.6000
20
-2016.2000
0
VERTEX
10
-226.6000
20
-2015.5000
0
VERTEX
10
-227.3000
20
-2014.8000
0
VERTEX
10
-228.0000
20
-2014.1000
0
VERTEX
10
-228.7000
20
-2014.1000
0
VERTEX
10
-228.0000
20
-2014.1000
0
VERTEX
10
-227.3000
20
-2014.1000
0
VERTEX
10
-226.6000
20
-2014.1000
0
VERTEX
10
-225.9000
20
-2014.1000
0
VERTEX
10
-225.2000
20
-2014.1000
0
VERTEX
10
-225.2000
20
-2014.8000
0
VERTEX
10
-225.2000
20
-2015.5000
0
VERTEX
10
-225.2000
20
-2016.2000
0
VERTEX
10
-225.2000
20
-2016.9000
0
VERTEX
10
-225.2000
20
-2017.6000
0
VERTEX
10
-225.2000
20
-2018.3000
0
VERTEX
10
-225.2000
20
-2019.0000
0
VERTEX
10
-225.9000
20
-2018.3000
0
VERTEX
10
-226.6000
20
-2019.0000
0
VERTEX
10
-227.3000
20
-2019.0000
0
VERTEX
10
-228.0000
20
-2019.0000
0
VERTEX
10
-228.7000
20
-2019.0000
0
VERTEX
10
-229.4000
20
-2019.0000
0
VERTEX
10
-230.1000
20
-2019.0000
0
VERTEX
10
-230.8000
20
-2019.0000
0
VERTEX
10
-231.5000
20
-2018.3000
0
VERTEX
10
-232.2000
20
-2018.3000
0
VERTEX
10
-232.9000
20
-2017.6000
0
VERTEX
10
-232.9000
20
-2016.9000
0
VERTEX
10
-233.6000
20
-2016.2000
0
VERTEX
10
-233.6000
20
-2015.5000
0
VERTEX
10
-234.3000
20
-2014.8000
0
VERTEX
10
-234.3000
20
-2014.1000
0
VERTEX
10
-234.3000
20
-2013.4000
0
VERTEX
10
-234.3000
20
-2012.7000
0
VERTEX
10
-234.3000
20
-2012.0000
0
VERTEX
10
-234.3000
20
-2011.3000
0
SEQEND
0
POLYLINE
8
M1_Neg
70
1
0
VERTEX
10
-223.1000
20
-2009.2000
0
VERTEX
10
-222.4000
20
-2008.5000
0
VERTEX
10
-222.4000
20
-2007.8000
0
VERTEX
10
-221.7000
20
-2007.8000
0
VERTEX
10
-221.0000
20
-2007.1000
0
VERTEX
10
-220.3000
20
-2007.1000
0
VERTEX
10
-219.6000
20
-2007.1000
0
VERTEX
10
-218.9000
20
-2007.1000
0
VERTEX
10
-218.2000
20
-2007.1000
0
VERTEX
10
-217.5000
20
-2007.1000
0
VERTEX
10
-216.8000
20
-2007.8000
0
VERTEX
10
-216.1000
20
-2007.8000
0
VERTEX
10
-216.1000
20
-2008.5000
0
VERTEX
10
-215.4000
20
-2009.2000
0
VERTEX
10
-215.4000
20
-2009.9000
0
VERTEX
10
-216.1000
20
-2010.6000
0
VERTEX
10
-216.8000
20
-2010.6000
0
VERTEX
10
-216.8000
20
-2009.9000
0
VERTEX
10
-216.8000
20
-2009.2000
0
VERTEX
10
-217.5000
20
-2008.5000
0
VERTEX
10
-218.2000
20
-2007.8000
0
VERTEX
10
-218.9000
20
-2007.8000
0
VERTEX
10
-219.6000
20
-2007.8000
0
VERTEX
10
-220.3000
20
-2007.8000
0
VERTEX
10
-221.0000
20
-2008.5000
0
VERTEX
10
-221.7000
20
-2009.2000
0
VERTEX
10
-221.7000
20
-2009.9000
0
VERTEX
10
-221.7000
20
-2010.6000
0
VERTEX
10
-221.7000
20
-2011.3000
0
VERTEX
10
-221.0000
20
-2012.0000
0
VERTEX
10
-220.3000
20
-2012.7000
0
VERTEX
10
-219.6000
20
-2012.7000
0
VERTEX
10
-218.9000
20
-2012.7000
0
VERTEX
10
-218.2000
20
-2012.7000
0
VERTEX
10
-217.5000
20
-2013.4000
0
VERTEX
10
-216.8000
20
-2013.4000
0
VERTEX
10
-216.1000
20
-2014.1000
0
VERTEX
10
-216.1000
20
-2014.8000
0
VERTEX
10
-215.4000
20
-2015.5000
0
VERTEX
10
-215.4000
20
-2016.2000
0
VERTEX
10
-215.4000
20
-2016.9000
0
VERTEX
10
-216.1000
20
-2017.6000
0
VERTEX
10
-216.1000
20
-2018.3000
0
VERTEX
10
-216.8000
20
-2018.3000
0
VERTEX
10
-217.5000
20
-2019.0000
0
VERTEX
10
-218.2000
20
-2019.0000
0
VERTEX
10
-218.9000
20
-2019.0000
0
VERTEX
10
-219.6000
20
-2019.0000
0
VERTEX
10
-220.3000
20
-2019.0000
0
VERTEX
10
-221.0000
20
-2019.0000
0
VERTEX
10
-221.7000
20
-2018.3000
0
VERTEX
10
-222.4000
20
-2018.3000
0
VERTEX
10
-222.4000
20
-2017.6000
0
VERTEX
10
-223.1000
20
-2016.9000
0
VERTEX
10
-223.1000
20
-2016.2000
0
VERTEX
10
-222.4000
20
-2015.5000
0
VERTEX
10
-221.7000
20
-2015.5000
0
VERTEX
10
-221.7000
20
-2016.2000
0
VERTEX
10
-221.7000
20
-2016.9000
0
VERTEX
10
-221.0000
20
-2017.6000
0
VERTEX
10
-220.3000
20
-2018.3000
0
VERTEX
10
-219.6000
20
-2018.3000
0
VERTEX
10
-218.9000
20
-2018.3000
0
VERTEX
10
-218.2000
20
-2018.3000
0
VERTEX
10
-217.5000
20
-2017.6000
0
VERTEX
10
-216.8000
20
-2016.9000
0
VERTEX
10
-216.8000
20
-2016.2000
0
VERTEX
10
-216.8000
20
-2015.5000
0
VERTEX
10
-216.8000
20
-2014.8000
0
VERTEX
10
-217.5000
20
-2014.1000
0
VERTEX
10
-218.2000
20
-2014.1000
0
VERTEX
10
-218.9000
20
-2013.4000
0
VERTEX
10
-219.6000
20
-2013.4000
0
VERTEX
10
-220.3000
20
-2013.4000
0
VERTEX
10
-221.0000
20
-2013.4000
0
VERTEX
10
-221.7000
20
-2013.4000
0
VERTEX
10
-222.4000
20
-2012.7000
0
VERTEX
10
-223.1000
20
-2012.0000
0
VERTEX
10
-223.1000
20
-2011.3000
0
VERTEX
10
-223.1000
20
-2010.6000
0
VERTEX
10
-223.1000
20
-2009.9000
0
VERTEX
10
-223.1000
20
-2009.2000
0
SEQEND
0
POLYLINE
8
M1_Neg
70
1
0
VERTEX
10
-211.9000
20
-2019.0000
0
VERTEX
10
-211.2000
20
-2019.0000
0
VERTEX
10
-210.5000
20
-2018.3000
0
VERTEX
10
-209.8000
20
-2018.3000
0
VERTEX
10
-209.1000
20
-2017.6000
0
VERTEX
10
-208.4000
20
-2016.9000
0
VERTEX
10
-208.4000
20
-2016.2000
0
VERTEX
10
-208.4000
20
-2015.5000
0
VERTEX
10
-208.4000
20
-2014.8000
0
VERTEX
10
-208.4000
20
-2014.1000
0
VERTEX
10
-208.4000
20
-2013.4000
0
VERTEX
10
-208.4000
20
-2012.7000
0
VERTEX
10
-208.4000
20
-2012.0000
0
VERTEX
10
-208.4000
20
-2011.3000
0
VERTEX
10
-209.1000
20
-2010.6000
0
VERTEX
10
-209.8000
20
-2010.6000
0
VERTEX
10
-210.5000
20
-2010.6000
0
VERTEX
10
-211.2000
20
-2010.6000
0
VERTEX
10
-210.5000
20
-2009.9000
0
VERTEX
10
-209.8000
20
-2009.2000
0
VERTEX
10
-209.1000
20
-2008.5000
0
VERTEX
10
-208.4000
20
-2007.8000
0
VERTEX
10
-207.7000
20
-2007.8000
0
VERTEX
10
-207.0000
20
-2007.8000
0
VERTEX
10
-207.0000
20
-2008.5000
0
VERTEX
10
-207.0000
20
-2009.2000
0
VERTEX
10
-207.0000
20
-2009.9000
0
VERTEX
10
-207.0000
20
-2010.6000
0
VERTEX
10
-207.0000
20
-2011.3000
0
VERTEX
10
-207.0000
20
-2012.0000
0
VERTEX
10
-207.0000
20
-2012.7000
0
VERTEX
10
-207.0000
20
-2013.4000
0
VERTEX
10
-207.0000
20
-2014.1000
0
VERTEX
10
-207.0000
20
-2014.8000
0
VERTEX
10
-207.0000
20
-2015.5000
0
VERTEX
10
-207.0000
20
-2016.2000
0
VERTEX
10
-207.0000
20
-2016.9000
0
VERTEX
10
-207.0000
20
-2017.6000
0
VERTEX
10
-206.3000
20
-2018.3000
0
VERTEX
10
-205.6000
20
-2018.3000
0
VERTEX
10
-204.9000
20
-2019.0000
0
VERTEX
10
-204.2000
20
-2019.0000
0
VERTEX
10
-204.9000
20
-2019.0000
0
VERTEX
10
-205.6000
20
-2019.0000
0
VERTEX
10
-206.3000
20
-2019.0000
0
VERTEX
10
-207.0000
20
-2019.0000
0
VERTEX
10
-207.7000
20
-2019.0000
0
VERTEX
10
-208.4000
20
-2019.0000
0
VERTEX
10
-209.1000
20
-2019.0000
0
VERTEX
10
-209.8000
20
-2019.0000
0
VERTEX
10
-210.5000
20
-2019.0000
0
VERTEX
10
-211.2000
20
-2019.0000
0
VERTEX
10
-211.9000
20
-2019.0000
0
SEQEND
0
POLYLINE
8
M2_Neg
70
1
0
VERTEX
10
-290.0000
20
-2090.0000
0
VERTEX
10
-110.0000
20
-2090.0000
0
VERTEX
10
-110.0000
20
-1910.0000
0
VERTEX
10
-290.0000
20
-1910.0000
0
SEQEND
0
POLYLINE
8
M1_Neg
70
1
0
VERTEX
10
-3498.0000
20
0.2000
0
VERTEX
10
-3499.8000
20
0.2000
0
VERTEX
10
-3499.8000
20
2.0000
0
VERTEX
10
-3500.2000
20
2.0000
0
VERTEX
10
-3500.2000
20
0.2000
0
VERTEX
10
-3502.0000
20
0.2000
0
VERTEX
10
-3502.0000
20
-0.2000
0
VERTEX
10
-3500.2000
20
-0.2000
0
VERTEX
10
-3500.2000
20
-2.0000
0
VERTEX
10
-3499.8000
20
-2.0000
0
VERTEX
10
-3499.8000
20
-0.2000
0
VERTEX
10
-3498.0000
20
-0.2000
0
SEQEND
0
POLYLINE
8
M1_Neg
70
1
0
VERTEX
10
-3498.0000
20
-1.0000
0
VERTEX
10
-3470.0000
20
-1.0000
0
VERTEX
10
-3470.0000
20
1.0000
0
VERTEX
10
-3498.0000
20
1.0000
0
SEQEND
0
POLYLINE
8
M1_Neg
70
1
0
VERTEX
10
-3530.0000
20
-1.0000
0
VERTEX
10
-3502.0000
20
-1.0000
0
VERTEX
10
-3502.0000
20
1.0000
0
VERTEX
10
-3530.0000
20
1.0000
0
SEQEND
0
POLYLINE
8
M1_Neg
70
1
0
VERTEX
10
-3501.0000
20
2.0000
0
VERTEX
10
-3499.0000
20
2.0000
0
VERTEX
10
-3499.0000
20
30.0000
0
VERTEX
10
-3501.0000
20
30.0000
0
SEQEND
0
POLYLINE
8
M1_Neg
70
1
0
VERTEX
10
-3501.0000
20
-30.0000
0
VERTEX
10
-3499.0000
20
-30.0000
0
VERTEX
10
-3499.0000
20
-2.0000
0
VERTEX
10
-3501.0000
20
-2.0000
0
SEQEND
0
POLYLINE
8
M1_Neg
70
1
0
VERTEX
10
-3534.3000
20
-11.3000
0
VERTEX
10
-3533.6000
20
-10.6000
0
VERTEX
10
-3533.6000
20
-9.9000
0
VERTEX
10
-3532.9000
20
-9.2000
0
VERTEX
10
-3532.9000
20
-8.5000
0
VERTEX
10
-3532.2000
20
-7.8000
0
VERTEX
10
-3531.5000
20
-7.8000
0
VERTEX
10
-3530.8000
20
-7.1000
0
VERTEX
10
-3530.1000
20
-7.1000
0
VERTEX
10
-3529.4000
20
-7.1000
0
VERTEX
10
-3528.7000
20
-7.1000
0
VERTEX
10
-3528.0000
20
-7.1000
0
VERTEX
10
-3527.3000
20
-7.1000
0
VERTEX
10
-3526.6000
20
-7.1000
0
VERTEX
10
-3525.9000
20
-7.8000
0
VERTEX
10
-3525.9000
20
-8.5000
0
VERTEX
10
-3525.2000
20
-9.2000
0
VERTEX
10
-3525.2000
20
-9.9000
0
VERTEX
10
-3525.2000
20
-10.6000
0
VERTEX
10
-3525.9000
20
-10.6000
0
VERTEX
10
-3526.6000
20
-10.6000
0
VERTEX
10
-3526.6000
20
-9.9000
0
VERTEX
10
-3526.6000
20
-9.2000
0
VERTEX
10
-3527.3000
20
-8.5000
0
VERTEX
10
-3528.0000
20
-7.8000
0
VERTEX
10
-3528.7000
20
-7.8000
0
VERTEX
10
-3529.4000
20
-7.8000
0
VERTEX
10
-3530.1000
20
-8.5000
0
VERTEX
10
-3530.8000
20
-9.2000
0
VERTEX
10
-3531.5000
20
-9.9000
0
VERTEX
10
-3532.2000
20
-10.6000
0
VERTEX
10
-3532.2000
20
-11.3000
0
VERTEX
10
-3532.2000
20
-12.0000
0
VERTEX
10
-3532.2000
20
-12.7000
0
VERTEX
10
-3532.2000
20
-13.4000
0
VERTEX
10
-3532.2000
20
-14.1000
0
VERTEX
10
-3532.2000
20
-14.8000
0
VERTEX
10
-3532.2000
20
-15.5000
0
VERTEX
10
-3531.5000
20
-16.2000
0
VERTEX
10
-3530.8000
20
-16.9000
0
VERTEX
10
-3530.1000
20
-17.6000
0
VERTEX
10
-3529.4000
20
-18.3000
0
VERTEX
10
-3528.7000
20
-18.3000
0
VERTEX
10
-3528.0000
20
-18.3000
0
VERTEX
10
-3527.3000
20
-17.6000
0
VERTEX
10
-3526.6000
20
-16.9000
0
VERTEX
10
-3526.6000
20
-16.2000
0
VERTEX
10
-3526.6000
20
-15.5000
0
VERTEX
10
-3527.3000
20
-14.8000
0
VERTEX
10
-3528.0000
20
-14.1000
0
VERTEX
10
-3528.7000
20
-14.1000
0
VERTEX
10
-3528.0000
20
-14.1000
0
VERTEX
10
-3527.3000
20
-14.1000
0
VERTEX
10
-3526.6000
20
-14.1000
0
VERTEX
10
-3525.9000
20
-14.1000
0
VERTEX
10
-3525.2000
20
-14.1000
0
VERTEX
10
-3525.2000
20
-14.8000
0
VERTEX
10
-3525.2000
20
-15.5000
0
VERTEX
10
-3525.2000
20
-16.2000
0
VERTEX
10
-3525.2000
20
-16.9000
0
VERTEX
10
-3525.2000
20
-17.6000
0
VERTEX
10
-3525.2000
20
-18.3000
0
VERTEX
10
-3525.2000
20
-19.0000
0
VERTEX
10
-3525.9000
20
-18.3000
0
VERTEX
10
-3526.6000
20
-19.0000
0
VERTEX
10
-3527.3000
20
-19.0000
0
VERTEX
10
-3528.0000
20
-19.0000
0
VERTEX
10
-3528.7000
20
-19.0000
0
VERTEX
10
-3529.4000
20
-19.0000
0
VERTEX
10
-3530.1000
20
-19.0000
0
VERTEX
10
-3530.8000
20
-19.0000
0
VERTEX
10
-3531.5000
20
-18.3000
0
VERTEX
10
-3532.2000
20
-18.3000
0
VERTEX
10
-3532.9000
20
-17.6000
0
VERTEX
10
-3532.9000
20
-16.9000
0
VERTEX
10
-3533.6000
20
-16.2000
0
VERTEX
10
-3533.6000
20
-15.5000
0
VERTEX
10
-3534.3000
20
-14.8000
0
VERTEX
10
-3534.3000
20
-14.1000
0
VERTEX
10
-3534.3000
20
-13.4000
0
VERTEX
10
-3534.3000
20
-12.7000
0
VERTEX
10
-3534.3000
20
-12.0000
0
VERTEX
10
-3534.3000
20
-11.3000
0
SEQEND
0
POLYLINE
8
M1_Neg
70
1
0
VERTEX
10
-3522.4000
20
-7.1000
0
VERTEX
10
-3521.7000
20
-7.1000
0
VERTEX
10
-3521.0000
20
-7.1000
0
VERTEX
10
-3520.3000
20
-7.1000
0
VERTEX
10
-3519.6000
20
-7.1000
0
VERTEX
10
-3518.9000
20
-7.1000
0
VERTEX
10
-3518.2000
20
-7.1000
0
VERTEX
10
-3517.5000
20
-7.1000
0
VERTEX
10
-3516.8000
20
-7.1000
0
VERTEX
10
-3516.1000
20
-7.8000
0
VERTEX
10
-3515.4000
20
-7.8000
0
VERTEX
10
-3514.7000
20
-8.5000
0
VERTEX
10
-3514.0000
20
-9.2000
0
VERTEX
10
-3514.0000
20
-9.9000
0
VERTEX
10
-3514.0000
20
-10.6000
0
VERTEX
10
-3514.0000
20
-11.3000
0
VERTEX
10
-3514.7000
20
-12.0000
0
VERTEX
10
-3515.4000
20
-12.7000
0
VERTEX
10
-3516.1000
20
-12.7000
0
VERTEX
10
-3516.8000
20
-13.4000
0
VERTEX
10
-3517.5000
20
-13.4000
0
VERTEX
10
-3518.2000
20
-13.4000
0
VERTEX
10
-3518.9000
20
-13.4000
0
VERTEX
10
-3519.6000
20
-13.4000
0
VERTEX
10
-3520.3000
20
-14.1000
0
VERTEX
10
-3520.3000
20
-14.8000
0
VERTEX
10
-3520.3000
20
-15.5000
0
VERTEX
10
-3520.3000
20
-16.2000
0
VERTEX
10
-3520.3000
20
-16.9000
0
VERTEX
10
-3520.3000
20
-17.6000
0
VERTEX
10
-3520.3000
20
-18.3000
0
VERTEX
10
-3519.6000
20
-19.0000
0
VERTEX
10
-3520.3000
20
-19.0000
0
VERTEX
10
-3521.0000
20
-19.0000
0
VERTEX
10
-3521.7000
20
-19.0000
0
VERTEX
10
-3522.4000
20
-19.0000
0
VERTEX
10
-3521.7000
20
-18.3000
0
VERTEX
10
-3521.7000
20
-17.6000
0
VERTEX
10
-3521.7000
20
-16.9000
0
VERTEX
10
-3521.7000
20
-16.2000
0
VERTEX
10
-3521.7000
20
-15.5000
0
VERTEX
10
-3521.7000
20
-14.8000
0
VERTEX
10
-3521.7000
20
-14.1000
0
VERTEX
10
-3521.7000
20
-13.4000
0
VERTEX
10
-3521.7000
20
-12.7000
0
VERTEX
10
-3521.7000
20
-12.0000
0
VERTEX
10
-3521.7000
20
-11.3000
0
VERTEX
10
-3521.7000
20
-10.6000
0
VERTEX
10
-3521.7000
20
-9.9000
0
VERTEX
10
-3521.7000
20
-9.2000
0
VERTEX
10
-3521.7000
20
-8.5000
0
VERTEX
10
-3521.7000
20
-7.8000
0
VERTEX
10
-3522.4000
20
-7.1000
0
SEQEND
0
POLYLINE
8
M1_Neg
70
1
0
VERTEX
10
-3511.9000
20
-9.2000
0
VERTEX
10
-3511.2000
20
-8.5000
0
VERTEX
10
-3510.5000
20
-7.8000
0
VERTEX
10
-3509.8000
20
-7.8000
0
VERTEX
10
-3509.1000
20
-7.1000
0
VERTEX
10
-3508.4000
20
-7.1000
0
VERTEX
10
-3507.7000
20
-7.1000
0
VERTEX
10
-3507.0000
20
-7.1000
0
VERTEX
10
-3506.3000
20
-7.1000
0
VERTEX
10
-3505.6000
20
-7.8000
0
VERTEX
10
-3504.9000
20
-8.5000
0
VERTEX
10
-3504.2000
20
-9.2000
0
VERTEX
10
-3504.2000
20
-9.9000
0
VERTEX
10
-3504.2000
20
-10.6000
0
VERTEX
10
-3504.9000
20
-11.3000
0
VERTEX
10
-3504.9000
20
-12.0000
0
VERTEX
10
-3505.6000
20
-12.7000
0
VERTEX
10
-3506.3000
20
-13.4000
0
VERTEX
10
-3507.0000
20
-14.1000
0
VERTEX
10
-3507.7000
20
-14.8000
0
VERTEX
10
-3508.4000
20
-15.5000
0
VERTEX
10
-3509.1000
20
-16.2000
0
VERTEX
10
-3509.8000
20
-16.9000
0
VERTEX
10
-3510.5000
20
-17.6000
0
VERTEX
10
-3509.8000
20
-18.3000
0
VERTEX
10
-3509.1000
20
-18.3000
0
VERTEX
10
-3508.4000
20
-18.3000
0
VERTEX
10
-3507.7000
20
-18.3000
0
VERTEX
10
-3507.0000
20
-18.3000
0
VERTEX
10
-3506.3000
20
-17.6000
0
VERTEX
10
-3505.6000
20
-16.9000
0
VERTEX
10
-3504.9000
20
-16.9000
0
VERTEX
10
-3504.2000
20
-16.9000
0
VERTEX
10
-3504.2000
20
-17.6000
0
VERTEX
10
-3504.2000
20
-18.3000
0
VERTEX
10
-3504.2000
20
-19.0000
0
VERTEX
10
-3504.9000
20
-19.0000
0
VERTEX
10
-3505.6000
20
-19.0000
0
VERTEX
10
-3506.3000
20
-19.0000
0
VERTEX
10
-3507.0000
20
-19.0000
0
VERTEX
10
-3507.7000
20
-19.0000
0
VERTEX
10
-3508.4000
20
-19.0000
0
VERTEX
10
-3509.1000
20
-19.0000
0
VERTEX
10
-3509.8000
20
-19.0000
0
VERTEX
10
-3510.5000
20
-19.0000
0
VERTEX
10
-3511.2000
20
-19.0000
0
VERTEX
10
-3511.9000
20
-19.0000
0
VERTEX
10
-3511.9000
20
-18.3000
0
VERTEX
10
-3511.9000
20
-17.6000
0
VERTEX
10
-3511.2000
20
-16.9000
0
VERTEX
10
-3510.5000
20
-16.2000
0
VERTEX
10
-3509.8000
20
-15.5000
0
VERTEX
10
-3509.1000
20
-14.8000
0
VERTEX
10
-3508.4000
20
-14.1000
0
VERTEX
10
-3507.7000
20
-13.4000
0
VERTEX
10
-3507.0000
20
-12.7000
0
VERTEX
10
-3506.3000
20
-12.0000
0
VERTEX
10
-3505.6000
20
-11.3000
0
VERTEX
10
-3505.6000
20
-10.6000
0
VERTEX
10
-3505.6000
20
-9.9000
0
VERTEX
10
-3505.6000
20
-9.2000
0
VERTEX
10
-3506.3000
20
-8.5000
0
VERTEX
10
-3507.0000
20
-7.8000
0
VERTEX
10
-3507.7000
20
-7.8000
0
VERTEX
10
-3508.4000
20
-7.8000
0
VERTEX
10
-3509.1000
20
-8.5000
0
VERTEX
10
-3509.8000
20
-8.5000
0
VERTEX
10
-3510.5000
20
-9.2000
0
VERTEX
10
-3511.2000
20
-9.9000
0
VERTEX
10
-3511.9000
20
-9.9000
0
VERTEX
10
-3511.9000
20
-9.2000
0
SEQEND
0
POLYLINE
8
M1_Pos
70
1
0
VERTEX
10
-3519.6000
20
-8.5000
0
VERTEX
10
-3518.9000
20
-8.5000
0
VERTEX
10
-3518.2000
20
-8.5000
0
VERTEX
10
-3517.5000
20
-8.5000
0
VERTEX
10
-3517.5000
20
-9.2000
0
VERTEX
10
-3516.8000
20
-9.2000
0
VERTEX
10
-3516.8000
20
-9.9000
0
VERTEX
10
-3516.1000
20
-9.9000
0
VERTEX
10
-3516.1000
20
-10.6000
0
VERTEX
10
-3516.8000
20
-10.6000
0
VERTEX
10
-3516.8000
20
-11.3000
0
VERTEX
10
-3517.5000
20
-11.3000
0
VERTEX
10
-3517.5000
20
-12.0000
0
VERTEX
10
-3518.2000
20
-12.0000
0
VERTEX
10
-3518.9000
20
-12.0000
0
VERTEX
10
-3519.6000
20
-12.0000
0
VERTEX
10
-3519.6000
20
-11.3000
0
VERTEX
10
-3519.6000
20
-10.6000
0
VERTEX
10
-3519.6000
20
-9.9000
0
VERTEX
10
-3519.6000
20
-9.2000
0
VERTEX
10
-3519.6000
20
-8.5000
0
SEQEND
0
POLYLINE
8
M2_Neg
70
1
0
VERTEX
10
-3590.0000
20
-90.0000
0
VERTEX
10
-3410.0000
20
-90.0000
0
VERTEX
10
-3410.0000
20
90.0000
0
VERTEX
10
-3590.0000
20
90.0000
0
SEQEND
0
POLYLINE
8
M1_Neg
70
1
0
VERTEX
10
3502.0000
20
0.2000
0
VERTEX
10
3500.2000
20
0.2000
0
VERTEX
10
3500.2000
20
2.0000
0
VERTEX
10
3499.8000
20
2.0000
0
VERTEX
10
3499.8000
20
0.2000
0
VERTEX
10
3498.0000
20
0.2000
0
VERTEX
10
3498.0000
20
-0.2000
0
VERTEX
10
3499.8000
20
-0.2000
0
VERTEX
10
3499.8000
20
-2.0000
0
VERTEX
10
3500.2000
20
-2.0000
0
VERTEX
10
3500.2000
20
-0.2000
0
VERTEX
10
3502.0000
20
-0.2000
0
SEQEND
0
POLYLINE
8
M1_Neg
70
1
0
VERTEX
10
3502.0000
20
-1.0000
0
VERTEX
10
3530.0000
20
-1.0000
0
VERTEX
10
3530.0000
20
1.0000
0
VERTEX
10
3502.0000
20
1.0000
0
SEQEND
0
POLYLINE
8
M1_Neg
70
1
0
VERTEX
10
3470.0000
20
-1.0000
0
VERTEX
10
3498.0000
20
-1.0000
0
VERTEX
10
3498.0000
20
1.0000
0
VERTEX
10
3470.0000
20
1.0000
0
SEQEND
0
POLYLINE
8
M1_Neg
70
1
0
VERTEX
10
3499.0000
20
2.0000
0
VERTEX
10
3501.0000
20
2.0000
0
VERTEX
10
3501.0000
20
30.0000
0
VERTEX
10
3499.0000
20
30.0000
0
SEQEND
0
POLYLINE
8
M1_Neg
70
1
0
VERTEX
10
3499.0000
20
-30.0000
0
VERTEX
10
3501.0000
20
-30.0000
0
VERTEX
10
3501.0000
20
-2.0000
0
VERTEX
10
3499.0000
20
-2.0000
0
SEQEND
0
POLYLINE
8
M1_Neg
70
1
0
VERTEX
10
3465.7000
20
-11.3000
0
VERTEX
10
3466.4000
20
-10.6000
0
VERTEX
10
3466.4000
20
-9.9000
0
VERTEX
10
3467.1000
20
-9.2000
0
VERTEX
10
3467.1000
20
-8.5000
0
VERTEX
10
3467.8000
20
-7.8000
0
VERTEX
10
3468.5000
20
-7.8000
0
VERTEX
10
3469.2000
20
-7.1000
0
VERTEX
10
3469.9000
20
-7.1000
0
VERTEX
10
3470.6000
20
-7.1000
0
VERTEX
10
3471.3000
20
-7.1000
0
VERTEX
10
3472.0000
20
-7.1000
0
VERTEX
10
3472.7000
20
-7.1000
0
VERTEX
10
3473.4000
20
-7.1000
0
VERTEX
10
3474.1000
20
-7.8000
0
VERTEX
10
3474.1000
20
-8.5000
0
VERTEX
10
3474.8000
20
-9.2000
0
VERTEX
10
3474.8000
20
-9.9000
0
VERTEX
10
3474.8000
20
-10.6000
0
VERTEX
10
3474.1000
20
-10.6000
0
VERTEX
10
3473.4000
20
-10.6000
0
VERTEX
10
3473.4000
20
-9.9000
0
VERTEX
10
3473.4000
20
-9.2000
0
VERTEX
10
3472.7000
20
-8.5000
0
VERTEX
10
3472.0000
20
-7.8000
0
VERTEX
10
3471.3000
20
-7.8000
0
VERTEX
10
3470.6000
20
-7.8000
0
VERTEX
10
3469.9000
20
-8.5000
0
VERTEX
10
3469.2000
20
-9.2000
0
VERTEX
10
3468.5000
20
-9.9000
0
VERTEX
10
3467.8000
20
-10.6000
0
VERTEX
10
3467.8000
20
-11.3000
0
VERTEX
10
3467.8000
20
-12.0000
0
VERTEX
10
3467.8000
20
-12.7000
0
VERTEX
10
3467.8000
20
-13.4000
0
VERTEX
10
3467.8000
20
-14.1000
0
VERTEX
10
3467.8000
20
-14.8000
0
VERTEX
10
3467.8000
20
-15.5000
0
VERTEX
10
3468.5000
20
-16.2000
0
VERTEX
10
3469.2000
20
-16.9000
0
VERTEX
10
3469.9000
20
-17.6000
0
VERTEX
10
3470.6000
20
-18.3000
0
VERTEX
10
3471.3000
20
-18.3000
0
VERTEX
10
3472.0000
20
-18.3000
0
VERTEX
10
3472.7000
20
-17.6000
0
VERTEX
10
3473.4000
20
-16.9000
0
VERTEX
10
3473.4000
20
-16.2000
0
VERTEX
10
3473.4000
20
-15.5000
0
VERTEX
10
3472.7000
20
-14.8000
0
VERTEX
10
3472.0000
20
-14.1000
0
VERTEX
10
3471.3000
20
-14.1000
0
VERTEX
10
3472.0000
20
-14.1000
0
VERTEX
10
3472.7000
20
-14.1000
0
VERTEX
10
3473.4000
20
-14.1000
0
VERTEX
10
3474.1000
20
-14.1000
0
VERTEX
10
3474.8000
20
-14.1000
0
VERTEX
10
3474.8000
20
-14.8000
0
VERTEX
10
3474.8000
20
-15.5000
0
VERTEX
10
3474.8000
20
-16.2000
0
VERTEX
10
3474.8000
20
-16.9000
0
VERTEX
10
3474.8000
20
-17.6000
0
VERTEX
10
3474.8000
20
-18.3000
0
VERTEX
10
3474.8000
20
-19.0000
0
VERTEX
10
3474.1000
20
-18.3000
0
VERTEX
10
3473.4000
20
-19.0000
0
VERTEX
10
3472.7000
20
-19.0000
0
VERTEX
10
3472.0000
20
-19.0000
0
VERTEX
10
3471.3000
20
-19.0000
0
VERTEX
10
3470.6000
20
-19.0000
0
VERTEX
10
3469.9000
20
-19.0000
0
VERTEX
10
3469.2000
20
-19.0000
0
VERTEX
10
3468.5000
20
-18.3000
0
VERTEX
10
3467.8000
20
-18.3000
0
VERTEX
10
3467.1000
20
-17.6000
0
VERTEX
10
3467.1000
20
-16.9000
0
VERTEX
10
3466.4000
20
-16.2000
0
VERTEX
10
3466.4000
20
-15.5000
0
VERTEX
10
3465.7000
20
-14.8000
0
VERTEX
10
3465.7000
20
-14.1000
0
VERTEX
10
3465.7000
20
-13.4000
0
VERTEX
10
3465.7000
20
-12.7000
0
VERTEX
10
3465.7000
20
-12.0000
0
VERTEX
10
3465.7000
20
-11.3000
0
SEQEND
0
POLYLINE
8
M1_Neg
70
1
0
VERTEX
10
3476.9000
20
-10.6000
0
VERTEX
10
3477.6000
20
-9.9000
0
VERTEX
10
3477.6000
20
-9.2000
0
VERTEX
10
3478.3000
20
-8.5000
0
VERTEX
10
3479.0000
20
-7.8000
0
VERTEX
10
3479.7000
20
-7.1000
0
VERTEX
10
3480.4000
20
-7.1000
0
VERTEX
10
3481.1000
20
-7.1000
0
VERTEX
10
3481.8000
20
-7.1000
0
VERTEX
10
3482.5000
20
-7.1000
0
VERTEX
10
3483.2000
20
-7.1000
0
VERTEX
10
3483.9000
20
-7.8000
0
VERTEX
10
3484.6000
20
-8.5000
0
VERTEX
10
3485.3000
20
-9.2000
0
VERTEX
10
3485.3000
20
-9.9000
0
VERTEX
10
3486.0000
20
-10.6000
0
VERTEX
10
3486.0000
20
-11.3000
0
VERTEX
10
3486.0000
20
-12.0000
0
VERTEX
10
3486.0000
20
-12.7000
0
VERTEX
10
3486.0000
20
-13.4000
0
VERTEX
10
3486.0000
20
-14.1000
0
VERTEX
10
3486.0000
20
-14.8000
0
VERTEX
10
3486.0000
20
-15.5000
0
VERTEX
10
3485.3000
20
-16.2000
0
VERTEX
10
3486.0000
20
-16.9000
0
VERTEX
10
3486.0000
20
-17.6000
0
VERTEX
10
3486.0000
20
-18.3000
0
VERTEX
10
3486.0000
20
-19.0000
0
VERTEX
10
3485.3000
20
-19.0000
0
VERTEX
10
3485.3000
20
-18.3000
0
VERTEX
10
3484.6000
20
-17.6000
0
VERTEX
10
3483.9000
20
-18.3000
0
VERTEX
10
3483.2000
20
-19.0000
0
VERTEX
10
3482.5000
20
-19.0000
0
VERTEX
10
3481.8000
20
-19.0000
0
VERTEX
10
3481.1000
20
-19.0000
0
VERTEX
10
3480.4000
20
-19.0000
0
VERTEX
10
3479.7000
20
-19.0000
0
VERTEX
10
3479.0000
20
-18.3000
0
VERTEX
10
3478.3000
20
-17.6000
0
VERTEX
10
3477.6000
20
-16.9000
0
VERTEX
10
3477.6000
20
-16.2000
0
VERTEX
10
3476.9000
20
-15.5000
0
VERTEX
10
3476.9000
20
-14.8000
0
VERTEX
10
3476.9000
20
-14.1000
0
VERTEX
10
3476.9000
20
-13.4000
0
VERTEX
10
3476.9000
20
-12.7000
0
VERTEX
10
3476.9000
20
-12.0000
0
VERTEX
10
3476.9000
20
-11.3000
0
VERTEX
10
3476.9000
20
-10.6000
0
SEQEND
0
POLYLINE
8
M1_Neg
70
1
0
VERTEX
10
3488.1000
20
-9.2000
0
VERTEX
10
3488.8000
20
-8.5000
0
VERTEX
10
3489.5000
20
-7.8000
0
VERTEX
10
3490.2000
20
-7.8000
0
VERTEX
10
3490.9000
20
-7.1000
0
VERTEX
10
3491.6000
20
-7.1000
0
VERTEX
10
3492.3000
20
-7.1000
0
VERTEX
10
3493.0000
20
-7.1000
0
VERTEX
10
3493.7000
20
-7.1000
0
VERTEX
10
3494.4000
20
-7.8000
0
VERTEX
10
3495.1000
20
-8.5000
0
VERTEX
10
3495.8000
20
-9.2000
0
VERTEX
10
3495.8000
20
-9.9000
0
VERTEX
10
3495.8000
20
-10.6000
0
VERTEX
10
3495.1000
20
-11.3000
0
VERTEX
10
3495.1000
20
-12.0000
0
VERTEX
10
3494.4000
20
-12.7000
0
VERTEX
10
3493.7000
20
-13.4000
0
VERTEX
10
3493.0000
20
-14.1000
0
VERTEX
10
3492.3000
20
-14.8000
0
VERTEX
10
3491.6000
20
-15.5000
0
VERTEX
10
3490.9000
20
-16.2000
0
VERTEX
10
3490.2000
20
-16.9000
0
VERTEX
10
3489.5000
20
-17.6000
0
VERTEX
10
3490.2000
20
-18.3000
0
VERTEX
10
3490.9000
20
-18.3000
0
VERTEX
10
3491.6000
20
-18.3000
0
VERTEX
10
3492.3000
20
-18.3000
0
VERTEX
10
3493.0000
20
-18.3000
0
VERTEX
10
3493.7000
20
-17.6000
0
VERTEX
10
3494.4000
20
-16.9000
0
VERTEX
10
3495.1000
20
-16.9000
0
VERTEX
10
3495.8000
20
-16.9000
0
VERTEX
10
3495.8000
20
-17.6000
0
VERTEX
10
3495.8000
20
-18.3000
0
VERTEX
10
3495.8000
20
-19.0000
0
VERTEX
10
3495.1000
20
-19.0000
0
VERTEX
10
3494.4000
20
-19.0000
0
VERTEX
10
3493.7000
20
-19.0000
0
VERTEX
10
3493.0000
20
-19.0000
0
VERTEX
10
3492.3000
20
-19.0000
0
VERTEX
10
3491.6000
20
-19.0000
0
VERTEX
10
3490.9000
20
-19.0000
0
VERTEX
10
3490.2000
20
-19.0000
0
VERTEX
10
3489.5000
20
-19.0000
0
VERTEX
10
3488.8000
20
-19.0000
0
VERTEX
10
3488.1000
20
-19.0000
0
VERTEX
10
3488.1000
20
-18.3000
0
VERTEX
10
3488.1000
20
-17.6000
0
VERTEX
10
3488.8000
20
-16.9000
0
VERTEX
10
3489.5000
20
-16.2000
0
VERTEX
10
3490.2000
20
-15.5000
0
VERTEX
10
3490.9000
20
-14.8000
0
VERTEX
10
3491.6000
20
-14.1000
0
VERTEX
10
3492.3000
20
-13.4000
0
VERTEX
10
3493.0000
20
-12.7000
0
VERTEX
10
3493.7000
20
-12.0000
0
VERTEX
10
3494.4000
20
-11.3000
0
VERTEX
10
3494.4000
20
-10.6000
0
VERTEX
10
3494.4000
20
-9.9000
0
VERTEX
10
3494.4000
20
-9.2000
0
VERTEX
10
3493.7000
20
-8.5000
0
VERTEX
10
3493.0000
20
-7.8000
0
VERTEX
10
3492.3000
20
-7.8000
0
VERTEX
10
3491.6000
20
-7.8000
0
VERTEX
10
3490.9000
20
-8.5000
0
VERTEX
10
3490.2000
20
-8.5000
0
VERTEX
10
3489.5000
20
-9.2000
0
VERTEX
10
3488.8000
20
-9.9000
0
VERTEX
10
3488.1000
20
-9.9000
0
VERTEX
10
3488.1000
20
-9.2000
0
SEQEND
0
POLYLINE
8
M1_Pos
70
1
0
VERTEX
10
3479.0000
20
-11.3000
0
VERTEX
10
3479.7000
20
-11.3000
0
VERTEX
10
3479.7000
20
-10.6000
0
VERTEX
10
3479.7000
20
-9.9000
0
VERTEX
10
3480.4000
20
-9.9000
0
VERTEX
10
3480.4000
20
-9.2000
0
VERTEX
10
3481.1000
20
-9.2000
0
VERTEX
10
3481.1000
20
-8.5000
0
VERTEX
10
3481.8000
20
-8.5000
0
VERTEX
10
3481.8000
20
-9.2000
0
VERTEX
10
3482.5000
20
-9.2000
0
VERTEX
10
3482.5000
20
-9.9000
0
VERTEX
10
3483.2000
20
-9.9000
0
VERTEX
10
3483.2000
20
-10.6000
0
VERTEX
10
3483.2000
20
-11.3000
0
VERTEX
10
3483.9000
20
-11.3000
0
VERTEX
10
3483.9000
20
-12.0000
0
VERTEX
10
3483.9000
20
-12.7000
0
VERTEX
10
3483.9000
20
-13.4000
0
VERTEX
10
3483.9000
20
-14.1000
0
VERTEX
10
3483.9000
20
-14.8000
0
VERTEX
10
3483.9000
20
-14.1000
0
VERTEX
10
3483.2000
20
-14.1000
0
VERTEX
10
3482.5000
20
-14.1000
0
VERTEX
10
3481.8000
20
-14.1000
0
VERTEX
10
3481.8000
20
-14.8000
0
VERTEX
10
3481.8000
20
-15.5000
0
VERTEX
10
3481.8000
20
-16.2000
0
VERTEX
10
3481.8000
20
-16.9000
0
VERTEX
10
3482.5000
20
-16.9000
0
VERTEX
10
3481.8000
20
-16.9000
0
VERTEX
10
3481.8000
20
-17.6000
0
VERTEX
10
3481.1000
20
-17.6000
0
VERTEX
10
3481.1000
20
-16.9000
0
VERTEX
10
3480.4000
20
-16.9000
0
VERTEX
10
3480.4000
20
-16.2000
0
VERTEX
10
3479.7000
20
-16.2000
0
VERTEX
10
3479.7000
20
-15.5000
0
VERTEX
10
3479.7000
20
-14.8000
0
VERTEX
10
3479.0000
20
-14.8000
0
VERTEX
10
3479.0000
20
-14.1000
0
VERTEX
10
3479.0000
20
-13.4000
0
VERTEX
10
3479.0000
20
-12.7000
0
VERTEX
10
3479.0000
20
-12.0000
0
VERTEX
10
3479.0000
20
-11.3000
0
SEQEND
0
POLYLINE
8
M2_Neg
70
1
0
VERTEX
10
3410.0000
20
-90.0000
0
VERTEX
10
3590.0000
20
-90.0000
0
VERTEX
10
3590.0000
20
90.0000
0
VERTEX
10
3410.0000
20
90.0000
0
SEQEND
0
POLYLINE
8
M1_Neg
70
1
0
VERTEX
10
2.0000
20
2000.2000
0
VERTEX
10
0.2000
20
2000.2000
0
VERTEX
10
0.2000
20
2002.0000
0
VERTEX
10
-0.2000
20
2002.0000
0
VERTEX
10
-0.2000
20
2000.2000
0
VERTEX
10
-2.0000
20
2000.2000
0
VERTEX
10
-2.0000
20
1999.8000
0
VERTEX
10
-0.2000
20
1999.8000
0
VERTEX
10
-0.2000
20
1998.0000
0
VERTEX
10
0.2000
20
1998.0000
0
VERTEX
10
0.2000
20
1999.8000
0
VERTEX
10
2.0000
20
1999.8000
0
SEQEND
0
POLYLINE
8
M1_Neg
70
1
0
VERTEX
10
2.0000
20
1999.0000
0
VERTEX
10
30.0000
20
1999.0000
0
VERTEX
10
30.0000
20
2001.0000
0
VERTEX
10
2.0000
20
2001.0000
0
SEQEND
0
POLYLINE
8
M1_Neg
70
1
0
VERTEX
10
-30.0000
20
1999.0000
0
VERTEX
10
-2.0000
20
1999.0000
0
VERTEX
10
-2.0000
20
2001.0000
0
VERTEX
10
-30.0000
20
2001.0000
0
SEQEND
0
POLYLINE
8
M1_Neg
70
1
0
VERTEX
10
-1.0000
20
2002.0000
0
VERTEX
10
1.0000
20
2002.0000
0
VERTEX
10
1.0000
20
2030.0000
0
VERTEX
10
-1.0000
20
2030.0000
0
SEQEND
0
POLYLINE
8
M1_Neg
70
1
0
VERTEX
10
-1.0000
20
1970.0000
0
VERTEX
10
1.0000
20
1970.0000
0
VERTEX
10
1.0000
20
1998.0000
0
VERTEX
10
-1.0000
20
1998.0000
0
SEQEND
0
POLYLINE
8
M1_Neg
70
1
0
VERTEX
10
-34.3000
20
1988.7000
0
VERTEX
10
-33.6000
20
1989.4000
0
VERTEX
10
-33.6000
20
1990.1000
0
VERTEX
10
-32.9000
20
1990.8000
0
VERTEX
10
-32.9000
20
1991.5000
0
VERTEX
10
-32.2000
20
1992.2000
0
VERTEX
10
-31.5000
20
1992.2000
0
VERTEX
10
-30.8000
20
1992.9000
0
VERTEX
10
-30.1000
20
1992.9000
0
VERTEX
10
-29.4000
20
1992.9000
0
VERTEX
10
-28.7000
20
1992.9000
0
VERTEX
10
-28.0000
20
1992.9000
0
VERTEX
10
-27.3000
20
1992.9000
0
VERTEX
10
-26.6000
20
1992.9000
0
VERTEX
10
-25.9000
20
1992.2000
0
VERTEX
10
-25.9000
20
1991.5000
0
VERTEX
10
-25.2000
20
1990.8000
0
VERTEX
10
-25.2000
20
1990.1000
0
VERTEX
10
-25.2000
20
1989.4000
0
VERTEX
10
-25.9000
20
1989.4000
0
VERTEX
10
-26.6000
20
1989.4000
0
VERTEX
10
-26.6000
20
1990.1000
0
VERTEX
10
-26.6000
20
1990.8000
0
VERTEX
10
-27.3000
20
1991.5000
0
VERTEX
10
-28.0000
20
1992.2000
0
VERTEX
10
-28.7000
20
1992.2000
0
VERTEX
10
-29.4000
20
1992.2000
0
VERTEX
10
-30.1000
20
1991.5000
0
VERTEX
10
-30.8000
20
1990.8000
0
VERTEX
10
-31.5000
20
1990.1000
0
VERTEX
10
-32.2000
20
1989.4000
0
VERTEX
10
-32.2000
20
1988.7000
0
VERTEX
10
-32.2000
20
1988.0000
0
VERTEX
10
-32.2000
20
1987.3000
0
VERTEX
10
-32.2000
20
1986.6000
0
VERTEX
10
-32.2000
20
1985.9000
0
VERTEX
10
-32.2000
20
1985.2000
0
VERTEX
10
-32.2000
20
1984.5000
0
VERTEX
10
-31.5000
20
1983.8000
0
VERTEX
10
-30.8000
20
1983.1000
0
VERTEX
10
-30.1000
20
1982.4000
0
VERTEX
10
-29.4000
20
1981.7000
0
VERTEX
10
-28.7000
20
1981.7000
0
VERTEX
10
-28.0000
20
1981.7000
0
VERTEX
10
-27.3000
20
1982.4000
0
VERTEX
10
-26.6000
20
1983.1000
0
VERTEX
10
-26.6000
20
1983.8000
0
VERTEX
10
-26.6000
20
1984.5000
0
VERTEX
10
-27.3000
20
1985.2000
0
VERTEX
10
-28.0000
20
1985.9000
0
VERTEX
10
-28.7000
20
1985.9000
0
VERTEX
10
-28.0000
20
1985.9000
0
VERTEX
10
-27.3000
20
1985.9000
0
VERTEX
10
-26.6000
20
1985.9000
0
VERTEX
10
-25.9000
20
1985.9000
0
VERTEX
10
-25.2000
20
1985.9000
0
VERTEX
10
-25.2000
20
1985.2000
0
VERTEX
10
-25.2000
20
1984.5000
0
VERTEX
10
-25.2000
20
1983.8000
0
VERTEX
10
-25.2000
20
1983.1000
0
VERTEX
10
-25.2000
20
1982.4000
0
VERTEX
10
-25.2000
20
1981.7000
0
VERTEX
10
-25.2000
20
1981.0000
0
VERTEX
10
-25.9000
20
1981.7000
0
VERTEX
10
-26.6000
20
1981.0000
0
VERTEX
10
-27.3000
20
1981.0000
0
VERTEX
10
-28.0000
20
1981.0000
0
VERTEX
10
-28.7000
20
1981.0000
0
VERTEX
10
-29.4000
20
1981.0000
0
VERTEX
10
-30.1000
20
1981.0000
0
VERTEX
10
-30.8000
20
1981.0000
0
VERTEX
10
-31.5000
20
1981.7000
0
VERTEX
10
-32.2000
20
1981.7000
0
VERTEX
10
-32.9000
20
1982.4000
0
VERTEX
10
-32.9000
20
1983.1000
0
VERTEX
10
-33.6000
20
1983.8000
0
VERTEX
10
-33.6000
20
1984.5000
0
VERTEX
10
-34.3000
20
1985.2000
0
VERTEX
10
-34.3000
20
1985.9000
0
VERTEX
10
-34.3000
20
1986.6000
0
VERTEX
10
-34.3000
20
1987.3000
0
VERTEX
10
-34.3000
20
1988.0000
0
VERTEX
10
-34.3000
20
1988.7000
0
SEQEND
0
POLYLINE
8
M1_Neg
70
1
0
VERTEX
10
-23.1000
20
1992.9000
0
VERTEX
10
-22.4000
20
1992.9000
0
VERTEX
10
-21.7000
20
1992.9000
0
VERTEX
10
-21.0000
20
1992.9000
0
VERTEX
10
-20.3000
20
1992.9000
0
VERTEX
10
-19.6000
20
1992.9000
0
VERTEX
10
-18.9000
20
1992.9000
0
VERTEX
10
-18.2000
20
1992.9000
0
VERTEX
10
-17.5000
20
1992.9000
0
VERTEX
10
-16.8000
20
1992.9000
0
VERTEX
10
-16.1000
20
1992.9000
0
VERTEX
10
-15.4000
20
1992.2000
0
VERTEX
10
-14.7000
20
1991.5000
0
VERTEX
10
-14.7000
20
1990.8000
0
VERTEX
10
-14.0000
20
1990.1000
0
VERTEX
10
-14.0000
20
1989.4000
0
VERTEX
10
-14.0000
20
1988.7000
0
VERTEX
10
-14.7000
20
1988.0000
0
VERTEX
10
-15.4000
20
1987.3000
0
VERTEX
10
-16.1000
20
1986.6000
0
VERTEX
10
-16.1000
20
1985.9000
0
VERTEX
10
-15.4000
20
1985.2000
0
VERTEX
10
-14.7000
20
1984.5000
0
VERTEX
10
-14.7000
20
1983.8000
0
VERTEX
10
-14.7000
20
1983.1000
0
VERTEX
10
-14.7000
20
1982.4000
0
VERTEX
10
-14.7000
20
1981.7000
0
VERTEX
10
-14.0000
20
1981.0000
0
VERTEX
10
-14.7000
20
1981.0000
0
VERTEX
10
-15.4000
20
1981.0000
0
VERTEX
10
-16.1000
20
1981.0000
0
VERTEX
10
-16.1000
20
1981.7000
0
VERTEX
10
-16.1000
20
1982.4000
0
VERTEX
10
-16.1000
20
1983.1000
0
VERTEX
10
-16.1000
20
1983.8000
0
VERTEX
10
-16.1000
20
1984.5000
0
VERTEX
10
-16.8000
20
1985.2000
0
VERTEX
10
-17.5000
20
1985.9000
0
VERTEX
10
-18.2000
20
1986.6000
0
VERTEX
10
-18.9000
20
1986.6000
0
VERTEX
10
-19.6000
20
1986.6000
0
VERTEX
10
-20.3000
20
1985.9000
0
VERTEX
10
-20.3000
20
1985.2000
0
VERTEX
10
-20.3000
20
1984.5000
0
VERTEX
10
-20.3000
20
1983.8000
0
VERTEX
10
-20.3000
20
1983.1000
0
VERTEX
10
-20.3000
20
1982.4000
0
VERTEX
10
-20.3000
20
1981.7000
0
VERTEX
10
-20.3000
20
1981.0000
0
VERTEX
10
-21.0000
20
1981.0000
0
VERTEX
10
-21.7000
20
1981.0000
0
VERTEX
10
-22.4000
20
1981.0000
0
VERTEX
10
-23.1000
20
1981.0000
0
VERTEX
10
-22.4000
20
1981.7000
0
VERTEX
10
-21.7000
20
1982.4000
0
VERTEX
10
-21.7000
20
1983.1000
0
VERTEX
10
-21.7000
20
1983.8000
0
VERTEX
10
-21.7000
20
1984.5000
0
VERTEX
10
-21.7000
20
1985.2000
0
VERTEX
10
-21.7000
20
1985.9000
0
VERTEX
10
-21.7000
20
1986.6000
0
VERTEX
10
-21.7000
20
1987.3000
0
VERTEX
10
-21.7000
20
1988.0000
0
VERTEX
10
-21.7000
20
1988.7000
0
VERTEX
10
-21.7000
20
1989.4000
0
VERTEX
10
-21.7000
20
1990.1000
0
VERTEX
10
-21.7000
20
1990.8000
0
VERTEX
10
-21.7000
20
1991.5000
0
VERTEX
10
-22.4000
20
1992.2000
0
VERTEX
10
-23.1000
20
1992.9000
0
SEQEND
0
POLYLINE
8
M1_Neg
70
1
0
VERTEX
10
-11.9000
20
1990.8000
0
VERTEX
10
-11.2000
20
1991.5000
0
VERTEX
10
-10.5000
20
1992.2000
0
VERTEX
10
-9.8000
20
1992.2000
0
VERTEX
10
-9.1000
20
1992.9000
0
VERTEX
10
-8.4000
20
1992.9000
0
VERTEX
10
-7.7000
20
1992.9000
0
VERTEX
10
-7.0000
20
1992.9000
0
VERTEX
10
-6.3000
20
1992.9000
0
VERTEX
10
-5.6000
20
1992.2000
0
VERTEX
10
-4.9000
20
1991.5000
0
VERTEX
10
-4.2000
20
1990.8000
0
VERTEX
10
-4.2000
20
1990.1000
0
VERTEX
10
-4.2000
20
1989.4000
0
VERTEX
10
-4.9000
20
1988.7000
0
VERTEX
10
-4.9000
20
1988.0000
0
VERTEX
10
-5.6000
20
1987.3000
0
VERTEX
10
-6.3000
20
1986.6000
0
VERTEX
10
-7.0000
20
1985.9000
0
VERTEX
10
-7.7000
20
1985.2000
0
VERTEX
10
-8.4000
20
1984.5000
0
VERTEX
10
-9.1000
20
1983.8000
0
VERTEX
10
-9.8000
20
1983.1000
0
VERTEX
10
-10.5000
20
1982.4000
0
VERTEX
10
-9.8000
20
1981.7000
0
VERTEX
10
-9.1000
20
1981.7000
0
VERTEX
10
-8.4000
20
1981.7000
0
VERTEX
10
-7.7000
20
1981.7000
0
VERTEX
10
-7.0000
20
1981.7000
0
VERTEX
10
-6.3000
20
1982.4000
0
VERTEX
10
-5.6000
20
1983.1000
0
VERTEX
10
-4.9000
20
1983.1000
0
VERTEX
10
-4.2000
20
1983.1000
0
VERTEX
10
-4.2000
20
1982.4000
0
VERTEX
10
-4.2000
20
1981.7000
0
VERTEX
10
-4.2000
20
1981.0000
0
VERTEX
10
-4.9000
20
1981.0000
0
VERTEX
10
-5.6000
20
1981.0000
0
VERTEX
10
-6.3000
20
1981.0000
0
VERTEX
10
-7.0000
20
1981.0000
0
VERTEX
10
-7.7000
20
1981.0000
0
VERTEX
10
-8.4000
20
1981.0000
0
VERTEX
10
-9.1000
20
1981.0000
0
VERTEX
10
-9.8000
20
1981.0000
0
VERTEX
10
-10.5000
20
1981.0000
0
VERTEX
10
-11.2000
20
1981.0000
0
VERTEX
10
-11.9000
20
1981.0000
0
VERTEX
10
-11.9000
20
1981.7000
0
VERTEX
10
-11.9000
20
1982.4000
0
VERTEX
10
-11.2000
20
1983.1000
0
VERTEX
10
-10.5000
20
1983.8000
0
VERTEX
10
-9.8000
20
1984.5000
0
VERTEX
10
-9.1000
20
1985.2000
0
VERTEX
10
-8.4000
20
1985.9000
0
VERTEX
10
-7.7000
20
1986.6000
0
VERTEX
10
-7.0000
20
1987.3000
0
VERTEX
10
-6.3000
20
1988.0000
0
VERTEX
10
-5.6000
20
1988.7000
0
VERTEX
10
-5.6000
20
1989.4000
0
VERTEX
10
-5.6000
20
1990.1000
0
VERTEX
10
-5.6000
20
1990.8000
0
VERTEX
10
-6.3000
20
1991.5000
0
VERTEX
10
-7.0000
20
1992.2000
0
VERTEX
10
-7.7000
20
1992.2000
0
VERTEX
10
-8.4000
20
1992.2000
0
VERTEX
10
-9.1000
20
1991.5000
0
VERTEX
10
-9.8000
20
1991.5000
0
VERTEX
10
-10.5000
20
1990.8000
0
VERTEX
10
-11.2000
20
1990.1000
0
VERTEX
10
-11.9000
20
1990.1000
0
VERTEX
10
-11.9000
20
1990.8000
0
SEQEND
0
POLYLINE
8
M1_Pos
70
1
0
VERTEX
10
-19.6000
20
1991.5000
0
VERTEX
10
-18.9000
20
1991.5000
0
VERTEX
10
-18.2000
20
1991.5000
0
VERTEX
10
-17.5000
20
1991.5000
0
VERTEX
10
-17.5000
20
1990.8000
0
VERTEX
10
-16.8000
20
1990.8000
0
VERTEX
10
-16.8000
20
1990.1000
0
VERTEX
10
-16.8000
20
1989.4000
0
VERTEX
10
-16.8000
20
1988.7000
0
VERTEX
10
-17.5000
20
1988.7000
0
VERTEX
10
-17.5000
20
1988.0000
0
VERTEX
10
-18.2000
20
1988.0000
0
VERTEX
10
-18.9000
20
1988.0000
0
VERTEX
10
-19.6000
20
1988.0000
0
VERTEX
10
-19.6000
20
1988.7000
0
VERTEX
10
-19.6000
20
1989.4000
0
VERTEX
10
-19.6000
20
1990.1000
0
VERTEX
10
-19.6000
20
1990.8000
0
VERTEX
10
-19.6000
20
1991.5000
0
SEQEND
0
POLYLINE
8
M2_Neg
70
1
0
VERTEX
10
-90.0000
20
1910.0000
0
VERTEX
10
90.0000
20
1910.0000
0
VERTEX
10
90.0000
20
2090.0000
0
VERTEX
10
-90.0000
20
2090.0000
0
SEQEND
0
POLYLINE
8
M1_Neg
70
1
0
VERTEX
10
2.0000
20
-1999.8000
0
VERTEX
10
0.2000
20
-1999.8000
0
VERTEX
10
0.2000
20
-1998.0000
0
VERTEX
10
-0.2000
20
-1998.0000
0
VERTEX
10
-0.2000
20
-1999.8000
0
VERTEX
10
-2.0000
20
-1999.8000
0
VERTEX
10
-2.0000
20
-2000.2000
0
VERTEX
10
-0.2000
20
-2000.2000
0
VERTEX
10
-0.2000
20
-2002.0000
0
VERTEX
10
0.2000
20
-2002.0000
0
VERTEX
10
0.2000
20
-2000.2000
0
VERTEX
10
2.0000
20
-2000.2000
0
SEQEND
0
POLYLINE
8
M1_Neg
70
1
0
VERTEX
10
2.0000
20
-2001.0000
0
VERTEX
10
30.0000
20
-2001.0000
0
VERTEX
10
30.0000
20
-1999.0000
0
VERTEX
10
2.0000
20
-1999.0000
0
SEQEND
0
POLYLINE
8
M1_Neg
70
1
0
VERTEX
10
-30.0000
20
-2001.0000
0
VERTEX
10
-2.0000
20
-2001.0000
0
VERTEX
10
-2.0000
20
-1999.0000
0
VERTEX
10
-30.0000
20
-1999.0000
0
SEQEND
0
POLYLINE
8
M1_Neg
70
1
0
VERTEX
10
-1.0000
20
-1998.0000
0
VERTEX
10
1.0000
20
-1998.0000
0
VERTEX
10
1.0000
20
-1970.0000
0
VERTEX
10
-1.0000
20
-1970.0000
0
SEQEND
0
POLYLINE
8
M1_Neg
70
1
0
VERTEX
10
-1.0000
20
-2030.0000
0
VERTEX
10
1.0000
20
-2030.0000
0
VERTEX
10
1.0000
20
-2002.0000
0
VERTEX
10
-1.0000
20
-2002.0000
0
SEQEND
0
POLYLINE
8
M1_Neg
70
1
0
VERTEX
10
-34.3000
20
-2011.3000
0
VERTEX
10
-33.6000
20
-2010.6000
0
VERTEX
10
-33.6000
20
-2009.9000
0
VERTEX
10
-32.9000
20
-2009.2000
0
VERTEX
10
-32.9000
20
-2008.5000
0
VERTEX
10
-32.2000
20
-2007.8000
0
VERTEX
10
-31.5000
20
-2007.8000
0
VERTEX
10
-30.8000
20
-2007.1000
0
VERTEX
10
-30.1000
20
-2007.1000
0
VERTEX
10
-29.4000
20
-2007.1000
0
VERTEX
10
-28.7000
20
-2007.1000
0
VERTEX
10
-28.0000
20
-2007.1000
0
VERTEX
10
-27.3000
20
-2007.1000
0
VERTEX
10
-26.6000
20
-2007.1000
0
VERTEX
10
-25.9000
20
-2007.8000
0
VERTEX
10
-25.9000
20
-2008.5000
0
VERTEX
10
-25.2000
20
-2009.2000
0
VERTEX
10
-25.2000
20
-2009.9000
0
VERTEX
10
-25.2000
20
-2010.6000
0
VERTEX
10
-25.9000
20
-2010.6000
0
VERTEX
10
-26.6000
20
-2010.6000
0
VERTEX
10
-26.6000
20
-2009.9000
0
VERTEX
10
-26.6000
20
-2009.2000
0
VERTEX
10
-27.3000
20
-2008.5000
0
VERTEX
10
-28.0000
20
-2007.8000
0
VERTEX
10
-28.7000
20
-2007.8000
0
VERTEX
10
-29.4000
20
-2007.8000
0
VERTEX
10
-30.1000
20
-2008.5000
0
VERTEX
10
-30.8000
20
-2009.2000
0
VERTEX
10
-31.5000
20
-2009.9000
0
VERTEX
10
-32.2000
20
-2010.6000
0
VERTEX
10
-32.2000
20
-2011.3000
0
VERTEX
10
-32.2000
20
-2012.0000
0
VERTEX
10
-32.2000
20
-2012.7000
0
VERTEX
10
-32.2000
20
-2013.4000
0
VERTEX
10
-32.2000
20
-2014.1000
0
VERTEX
10
-32.2000
20
-2014.8000
0
VERTEX
10
-32.2000
20
-2015.5000
0
VERTEX
10
-31.5000
20
-2016.2000
0
VERTEX
10
-30.8000
20
-2016.9000
0
VERTEX
10
-30.1000
20
-2017.6000
0
VERTEX
10
-29.4000
20
-2018.3000
0
VERTEX
10
-28.7000
20
-2018.3000
0
VERTEX
10
-28.0000
20
-2018.3000
0
VERTEX
10
-27.3000
20
-2017.6000
0
VERTEX
10
-26.6000
20
-2016.9000
0
VERTEX
10
-26.6000
20
-2016.2000
0
VERTEX
10
-26.6000
20
-2015.5000
0
VERTEX
10
-27.3000
20
-2014.8000
0
VERTEX
10
-28.0000
20
-2014.1000
0
VERTEX
10
-28.7000
20
-2014.1000
0
VERTEX
10
-28.0000
20
-2014.1000
0
VERTEX
10
-27.3000
20
-2014.1000
0
VERTEX
10
-26.6000
20
-2014.1000
0
VERTEX
10
-25.9000
20
-2014.1000
0
VERTEX
10
-25.2000
20
-2014.1000
0
VERTEX
10
-25.2000
20
-2014.8000
0
VERTEX
10
-25.2000
20
-2015.5000
0
VERTEX
10
-25.2000
20
-2016.2000
0
VERTEX
10
-25.2000
20
-2016.9000
0
VERTEX
10
-25.2000
20
-2017.6000
0
VERTEX
10
-25.2000
20
-2018.3000
0
VERTEX
10
-25.2000
20
-2019.0000
0
VERTEX
10
-25.9000
20
-2018.3000
0
VERTEX
10
-26.6000
20
-2019.0000
0
VERTEX
10
-27.3000
20
-2019.0000
0
VERTEX
10
-28.0000
20
-2019.0000
0
VERTEX
10
-28.7000
20
-2019.0000
0
VERTEX
10
-29.4000
20
-2019.0000
0
VERTEX
10
-30.1000
20
-2019.0000
0
VERTEX
10
-30.8000
20
-2019.0000
0
VERTEX
10
-31.5000
20
-2018.3000
0
VERTEX
10
-32.2000
20
-2018.3000
0
VERTEX
10
-32.9000
20
-2017.6000
0
VERTEX
10
-32.9000
20
-2016.9000
0
VERTEX
10
-33.6000
20
-2016.2000
0
VERTEX
10
-33.6000
20
-2015.5000
0
VERTEX
10
-34.3000
20
-2014.8000
0
VERTEX
10
-34.3000
20
-2014.1000
0
VERTEX
10
-34.3000
20
-2013.4000
0
VERTEX
10
-34.3000
20
-2012.7000
0
VERTEX
10
-34.3000
20
-2012.0000
0
VERTEX
10
-34.3000
20
-2011.3000
0
SEQEND
0
POLYLINE
8
M1_Neg
70
1
0
VERTEX
10
-23.1000
20
-2009.2000
0
VERTEX
10
-22.4000
20
-2008.5000
0
VERTEX
10
-22.4000
20
-2007.8000
0
VERTEX
10
-21.7000
20
-2007.8000
0
VERTEX
10
-21.0000
20
-2007.1000
0
VERTEX
10
-20.3000
20
-2007.1000
0
VERTEX
10
-19.6000
20
-2007.1000
0
VERTEX
10
-18.9000
20
-2007.1000
0
VERTEX
10
-18.2000
20
-2007.1000
0
VERTEX
10
-17.5000
20
-2007.1000
0
VERTEX
10
-16.8000
20
-2007.8000
0
VERTEX
10
-16.1000
20
-2007.8000
0
VERTEX
10
-16.1000
20
-2008.5000
0
VERTEX
10
-15.4000
20
-2009.2000
0
VERTEX
10
-15.4000
20
-2009.9000
0
VERTEX
10
-16.1000
20
-2010.6000
0
VERTEX
10
-16.8000
20
-2010.6000
0
VERTEX
10
-16.8000
20
-2009.9000
0
VERTEX
10
-16.8000
20
-2009.2000
0
VERTEX
10
-17.5000
20
-2008.5000
0
VERTEX
10
-18.2000
20
-2007.8000
0
VERTEX
10
-18.9000
20
-2007.8000
0
VERTEX
10
-19.6000
20
-2007.8000
0
VERTEX
10
-20.3000
20
-2007.8000
0
VERTEX
10
-21.0000
20
-2008.5000
0
VERTEX
10
-21.7000
20
-2009.2000
0
VERTEX
10
-21.7000
20
-2009.9000
0
VERTEX
10
-21.7000
20
-2010.6000
0
VERTEX
10
-21.7000
20
-2011.3000
0
VERTEX
10
-21.0000
20
-2012.0000
0
VERTEX
10
-20.3000
20
-2012.7000
0
VERTEX
10
-19.6000
20
-2012.7000
0
VERTEX
10
-18.9000
20
-2012.7000
0
VERTEX
10
-18.2000
20
-2012.7000
0
VERTEX
10
-17.5000
20
-2013.4000
0
VERTEX
10
-16.8000
20
-2013.4000
0
VERTEX
10
-16.1000
20
-2014.1000
0
VERTEX
10
-16.1000
20
-2014.8000
0
VERTEX
10
-15.4000
20
-2015.5000
0
VERTEX
10
-15.4000
20
-2016.2000
0
VERTEX
10
-15.4000
20
-2016.9000
0
VERTEX
10
-16.1000
20
-2017.6000
0
VERTEX
10
-16.1000
20
-2018.3000
0
VERTEX
10
-16.8000
20
-2018.3000
0
VERTEX
10
-17.5000
20
-2019.0000
0
VERTEX
10
-18.2000
20
-2019.0000
0
VERTEX
10
-18.9000
20
-2019.0000
0
VERTEX
10
-19.6000
20
-2019.0000
0
VERTEX
10
-20.3000
20
-2019.0000
0
VERTEX
10
-21.0000
20
-2019.0000
0
VERTEX
10
-21.7000
20
-2018.3000
0
VERTEX
10
-22.4000
20
-2018.3000
0
VERTEX
10
-22.4000
20
-2017.6000
0
VERTEX
10
-23.1000
20
-2016.9000
0
VERTEX
10
-23.1000
20
-2016.2000
0
VERTEX
10
-22.4000
20
-2015.5000
0
VERTEX
10
-21.7000
20
-2015.5000
0
VERTEX
10
-21.7000
20
-2016.2000
0
VERTEX
10
-21.7000
20
-2016.9000
0
VERTEX
10
-21.0000
20
-2017.6000
0
VERTEX
10
-20.3000
20
-2018.3000
0
VERTEX
10
-19.6000
20
-2018.3000
0
VERTEX
10
-18.9000
20
-2018.3000
0
VERTEX
10
-18.2000
20
-2018.3000
0
VERTEX
10
-17.5000
20
-2017.6000
0
VERTEX
10
-16.8000
20
-2016.9000
0
VERTEX
10
-16.8000
20
-2016.2000
0
VERTEX
10
-16.8000
20
-2015.5000
0
VERTEX
10
-16.8000
20
-2014.8000
0
VERTEX
10
-17.5000
20
-2014.1000
0
VERTEX
10
-18.2000
20
-2014.1000
0
VERTEX
10
-18.9000
20
-2013.4000
0
VERTEX
10
-19.6000
20
-2013.4000
0
VERTEX
10
-20.3000
20
-2013.4000
0
VERTEX
10
-21.0000
20
-2013.4000
0
VERTEX
10
-21.7000
20
-2013.4000
0
VERTEX
10
-22.4000
20
-2012.7000
0
VERTEX
10
-23.1000
20
-2012.0000
0
VERTEX
10
-23.1000
20
-2011.3000
0
VERTEX
10
-23.1000
20
-2010.6000
0
VERTEX
10
-23.1000
20
-2009.9000
0
VERTEX
10
-23.1000
20
-2009.2000
0
SEQEND
0
POLYLINE
8
M1_Neg
70
1
0
VERTEX
10
-11.9000
20
-2009.2000
0
VERTEX
10
-11.2000
20
-2008.5000
0
VERTEX
10
-10.5000
20
-2007.8000
0
VERTEX
10
-9.8000
20
-2007.8000
0
VERTEX
10
-9.1000
20
-2007.1000
0
VERTEX
10
-8.4000
20
-2007.1000
0
VERTEX
10
-7.7000
20
-2007.1000
0
VERTEX
10
-7.0000
20
-2007.1000
0
VERTEX
10
-6.3000
20
-2007.1000
0
VERTEX
10
-5.6000
20
-2007.8000
0
VERTEX
10
-4.9000
20
-2008.5000
0
VERTEX
10
-4.2000
20
-2009.2000
0
VERTEX
10
-4.2000
20
-2009.9000
0
VERTEX
10
-4.2000
20
-2010.6000
0
VERTEX
10
-4.9000
20
-2011.3000
0
VERTEX
10
-4.9000
20
-2012.0000
0
VERTEX
10
-5.6000
20
-2012.7000
0
VERTEX
10
-6.3000
20
-2013.4000
0
VERTEX
10
-7.0000
20
-2014.1000
0
VERTEX
10
-7.7000
20
-2014.8000
0
VERTEX
10
-8.4000
20
-2015.5000
0
VERTEX
10
-9.1000
20
-2016.2000
0
VERTEX
10
-9.8000
20
-2016.9000
0
VERTEX
10
-10.5000
20
-2017.6000
0
VERTEX
10
-9.8000
20
-2018.3000
0
VERTEX
10
-9.1000
20
-2018.3000
0
VERTEX
10
-8.4000
20
-2018.3000
0
VERTEX
10
-7.7000
20
-2018.3000
0
VERTEX
10
-7.0000
20
-2018.3000
0
VERTEX
10
-6.3000
20
-2017.6000
0
VERTEX
10
-5.6000
20
-2016.9000
0
VERTEX
10
-4.9000
20
-2016.9000
0
VERTEX
10
-4.2000
20
-2016.9000
0
VERTEX
10
-4.2000
20
-2017.6000
0
VERTEX
10
-4.2000
20
-2018.3000
0
VERTEX
10
-4.2000
20
-2019.0000
0
VERTEX
10
-4.9000
20
-2019.0000
0
VERTEX
10
-5.6000
20
-2019.0000
0
VERTEX
10
-6.3000
20
-2019.0000
0
VERTEX
10
-7.0000
20
-2019.0000
0
VERTEX
10
-7.7000
20
-2019.0000
0
VERTEX
10
-8.4000
20
-2019.0000
0
VERTEX
10
-9.1000
20
-2019.0000
0
VERTEX
10
-9.8000
20
-2019.0000
0
VERTEX
10
-10.5000
20
-2019.0000
0
VERTEX
10
-11.2000
20
-2019.0000
0
VERTEX
10
-11.9000
20
-2019.0000
0
VERTEX
10
-11.9000
20
-2018.3000
0
VERTEX
10
-11.9000
20
-2017.6000
0
VERTEX
10
-11.2000
20
-2016.9000
0
VERTEX
10
-10.5000
20
-2016.2000
0
VERTEX
10
-9.8000
20
-2015.5000
0
VERTEX
10
-9.1000
20
-2014.8000
0
VERTEX
10
-8.4000
20
-2014.1000
0
VERTEX
10
-7.7000
20
-2013.4000
0
VERTEX
10
-7.0000
20
-2012.7000
0
VERTEX
10
-6.3000
20
-2012.0000
0
VERTEX
10
-5.6000
20
-2011.3000
0
VERTEX
10
-5.6000
20
-2010.6000
0
VERTEX
10
-5.6000
20
-2009.9000
0
VERTEX
10
-5.6000
20
-2009.2000
0
VERTEX
10
-6.3000
20
-2008.5000
0
VERTEX
10
-7.0000
20
-2007.8000
0
VERTEX
10
-7.7000
20
-2007.8000
0
VERTEX
10
-8.4000
20
-2007.8000
0
VERTEX
10
-9.1000
20
-2008.5000
0
VERTEX
10
-9.8000
20
-2008.5000
0
VERTEX
10
-10.5000
20
-2009.2000
0
VERTEX
10
-11.2000
20
-2009.9000
0
VERTEX
10
-11.9000
20
-2009.9000
0
VERTEX
10
-11.9000
20
-2009.2000
0
SEQEND
0
POLYLINE
8
M2_Neg
70
1
0
VERTEX
10
-90.0000
20
-2090.0000
0
VERTEX
10
90.0000
20
-2090.0000
0
VERTEX
10
90.0000
20
-1910.0000
0
VERTEX
10
-90.0000
20
-1910.0000
0
SEQEND
0
POLYLINE
8
M1_Neg
70
1
0
VERTEX
10
-3498.0000
20
200.2000
0
VERTEX
10
-3499.8000
20
200.2000
0
VERTEX
10
-3499.8000
20
202.0000
0
VERTEX
10
-3500.2000
20
202.0000
0
VERTEX
10
-3500.2000
20
200.2000
0
VERTEX
10
-3502.0000
20
200.2000
0
VERTEX
10
-3502.0000
20
199.8000
0
VERTEX
10
-3500.2000
20
199.8000
0
VERTEX
10
-3500.2000
20
198.0000
0
VERTEX
10
-3499.8000
20
198.0000
0
VERTEX
10
-3499.8000
20
199.8000
0
VERTEX
10
-3498.0000
20
199.8000
0
SEQEND
0
POLYLINE
8
M1_Neg
70
1
0
VERTEX
10
-3498.0000
20
199.0000
0
VERTEX
10
-3470.0000
20
199.0000
0
VERTEX
10
-3470.0000
20
201.0000
0
VERTEX
10
-3498.0000
20
201.0000
0
SEQEND
0
POLYLINE
8
M1_Neg
70
1
0
VERTEX
10
-3530.0000
20
199.0000
0
VERTEX
10
-3502.0000
20
199.0000
0
VERTEX
10
-3502.0000
20
201.0000
0
VERTEX
10
-3530.0000
20
201.0000
0
SEQEND
0
POLYLINE
8
M1_Neg
70
1
0
VERTEX
10
-3501.0000
20
202.0000
0
VERTEX
10
-3499.0000
20
202.0000
0
VERTEX
10
-3499.0000
20
230.0000
0
VERTEX
10
-3501.0000
20
230.0000
0
SEQEND
0
POLYLINE
8
M1_Neg
70
1
0
VERTEX
10
-3501.0000
20
170.0000
0
VERTEX
10
-3499.0000
20
170.0000
0
VERTEX
10
-3499.0000
20
198.0000
0
VERTEX
10
-3501.0000
20
198.0000
0
SEQEND
0
POLYLINE
8
M1_Neg
70
1
0
VERTEX
10
-3534.3000
20
188.7000
0
VERTEX
10
-3533.6000
20
189.4000
0
VERTEX
10
-3533.6000
20
190.1000
0
VERTEX
10
-3532.9000
20
190.8000
0
VERTEX
10
-3532.9000
20
191.5000
0
VERTEX
10
-3532.2000
20
192.2000
0
VERTEX
10
-3531.5000
20
192.2000
0
VERTEX
10
-3530.8000
20
192.9000
0
VERTEX
10
-3530.1000
20
192.9000
0
VERTEX
10
-3529.4000
20
192.9000
0
VERTEX
10
-3528.7000
20
192.9000
0
VERTEX
10
-3528.0000
20
192.9000
0
VERTEX
10
-3527.3000
20
192.9000
0
VERTEX
10
-3526.6000
20
192.9000
0
VERTEX
10
-3525.9000
20
192.2000
0
VERTEX
10
-3525.9000
20
191.5000
0
VERTEX
10
-3525.2000
20
190.8000
0
VERTEX
10
-3525.2000
20
190.1000
0
VERTEX
10
-3525.2000
20
189.4000
0
VERTEX
10
-3525.9000
20
189.4000
0
VERTEX
10
-3526.6000
20
189.4000
0
VERTEX
10
-3526.6000
20
190.1000
0
VERTEX
10
-3526.6000
20
190.8000
0
VERTEX
10
-3527.3000
20
191.5000
0
VERTEX
10
-3528.0000
20
192.2000
0
VERTEX
10
-3528.7000
20
192.2000
0
VERTEX
10
-3529.4000
20
192.2000
0
VERTEX
10
-3530.1000
20
191.5000
0
VERTEX
10
-3530.8000
20
190.8000
0
VERTEX
10
-3531.5000
20
190.1000
0
VERTEX
10
-3532.2000
20
189.4000
0
VERTEX
10
-3532.2000
20
188.7000
0
VERTEX
10
-3532.2000
20
188.0000
0
VERTEX
10
-3532.2000
20
187.3000
0
VERTEX
10
-3532.2000
20
186.6000
0
VERTEX
10
-3532.2000
20
185.9000
0
VERTEX
10
-3532.2000
20
185.2000
0
VERTEX
10
-3532.2000
20
184.5000
0
VERTEX
10
-3531.5000
20
183.8000
0
VERTEX
10
-3530.8000
20
183.1000
0
VERTEX
10
-3530.1000
20
182.4000
0
VERTEX
10
-3529.4000
20
181.7000
0
VERTEX
10
-3528.7000
20
181.7000
0
VERTEX
10
-3528.0000
20
181.7000
0
VERTEX
10
-3527.3000
20
182.4000
0
VERTEX
10
-3526.6000
20
183.1000
0
VERTEX
10
-3526.6000
20
183.8000
0
VERTEX
10
-3526.6000
20
184.5000
0
VERTEX
10
-3527.3000
20
185.2000
0
VERTEX
10
-3528.0000
20
185.9000
0
VERTEX
10
-3528.7000
20
185.9000
0
VERTEX
10
-3528.0000
20
185.9000
0
VERTEX
10
-3527.3000
20
185.9000
0
VERTEX
10
-3526.6000
20
185.9000
0
VERTEX
10
-3525.9000
20
185.9000
0
VERTEX
10
-3525.2000
20
185.9000
0
VERTEX
10
-3525.2000
20
185.2000
0
VERTEX
10
-3525.2000
20
184.5000
0
VERTEX
10
-3525.2000
20
183.8000
0
VERTEX
10
-3525.2000
20
183.1000
0
VERTEX
10
-3525.2000
20
182.4000
0
VERTEX
10
-3525.2000
20
181.7000
0
VERTEX
10
-3525.2000
20
181.0000
0
VERTEX
10
-3525.9000
20
181.7000
0
VERTEX
10
-3526.6000
20
181.0000
0
VERTEX
10
-3527.3000
20
181.0000
0
VERTEX
10
-3528.0000
20
181.0000
0
VERTEX
10
-3528.7000
20
181.0000
0
VERTEX
10
-3529.4000
20
181.0000
0
VERTEX
10
-3530.1000
20
181.0000
0
VERTEX
10
-3530.8000
20
181.0000
0
VERTEX
10
-3531.5000
20
181.7000
0
VERTEX
10
-3532.2000
20
181.7000
0
VERTEX
10
-3532.9000
20
182.4000
0
VERTEX
10
-3532.9000
20
183.1000
0
VERTEX
10
-3533.6000
20
183.8000
0
VERTEX
10
-3533.6000
20
184.5000
0
VERTEX
10
-3534.3000
20
185.2000
0
VERTEX
10
-3534.3000
20
185.9000
0
VERTEX
10
-3534.3000
20
186.6000
0
VERTEX
10
-3534.3000
20
187.3000
0
VERTEX
10
-3534.3000
20
188.0000
0
VERTEX
10
-3534.3000
20
188.7000
0
SEQEND
0
POLYLINE
8
M1_Neg
70
1
0
VERTEX
10
-3522.4000
20
192.9000
0
VERTEX
10
-3521.7000
20
192.9000
0
VERTEX
10
-3521.0000
20
192.9000
0
VERTEX
10
-3520.3000
20
192.9000
0
VERTEX
10
-3519.6000
20
192.9000
0
VERTEX
10
-3518.9000
20
192.9000
0
VERTEX
10
-3518.2000
20
192.9000
0
VERTEX
10
-3517.5000
20
192.9000
0
VERTEX
10
-3516.8000
20
192.9000
0
VERTEX
10
-3516.1000
20
192.2000
0
VERTEX
10
-3515.4000
20
192.2000
0
VERTEX
10
-3514.7000
20
191.5000
0
VERTEX
10
-3514.0000
20
190.8000
0
VERTEX
10
-3514.0000
20
190.1000
0
VERTEX
10
-3514.0000
20
189.4000
0
VERTEX
10
-3514.0000
20
188.7000
0
VERTEX
10
-3514.7000
20
188.0000
0
VERTEX
10
-3515.4000
20
187.3000
0
VERTEX
10
-3516.1000
20
187.3000
0
VERTEX
10
-3516.8000
20
186.6000
0
VERTEX
10
-3517.5000
20
186.6000
0
VERTEX
10
-3518.2000
20
186.6000
0
VERTEX
10
-3518.9000
20
186.6000
0
VERTEX
10
-3519.6000
20
186.6000
0
VERTEX
10
-3520.3000
20
185.9000
0
VERTEX
10
-3520.3000
20
185.2000
0
VERTEX
10
-3520.3000
20
184.5000
0
VERTEX
10
-3520.3000
20
183.8000
0
VERTEX
10
-3520.3000
20
183.1000
0
VERTEX
10
-3520.3000
20
182.4000
0
VERTEX
10
-3520.3000
20
181.7000
0
VERTEX
10
-3519.6000
20
181.0000
0
VERTEX
10
-3520.3000
20
181.0000
0
VERTEX
10
-3521.0000
20
181.0000
0
VERTEX
10
-3521.7000
20
181.0000
0
VERTEX
10
-3522.4000
20
181.0000
0
VERTEX
10
-3521.7000
20
181.7000
0
VERTEX
10
-3521.7000
20
182.4000
0
VERTEX
10
-3521.7000
20
183.1000
0
VERTEX
10
-3521.7000
20
183.8000
0
VERTEX
10
-3521.7000
20
184.5000
0
VERTEX
10
-3521.7000
20
185.2000
0
VERTEX
10
-3521.7000
20
185.9000
0
VERTEX
10
-3521.7000
20
186.6000
0
VERTEX
10
-3521.7000
20
187.3000
0
VERTEX
10
-3521.7000
20
188.0000
0
VERTEX
10
-3521.7000
20
188.7000
0
VERTEX
10
-3521.7000
20
189.4000
0
VERTEX
10
-3521.7000
20
190.1000
0
VERTEX
10
-3521.7000
20
190.8000
0
VERTEX
10
-3521.7000
20
191.5000
0
VERTEX
10
-3521.7000
20
192.2000
0
VERTEX
10
-3522.4000
20
192.9000
0
SEQEND
0
POLYLINE
8
M1_Neg
70
1
0
VERTEX
10
-3511.9000
20
190.8000
0
VERTEX
10
-3511.2000
20
191.5000
0
VERTEX
10
-3510.5000
20
192.2000
0
VERTEX
10
-3509.8000
20
192.9000
0
VERTEX
10
-3509.1000
20
192.9000
0
VERTEX
10
-3508.4000
20
192.9000
0
VERTEX
10
-3507.7000
20
192.9000
0
VERTEX
10
-3507.0000
20
192.9000
0
VERTEX
10
-3506.3000
20
192.9000
0
VERTEX
10
-3505.6000
20
192.2000
0
VERTEX
10
-3504.9000
20
191.5000
0
VERTEX
10
-3504.9000
20
190.8000
0
VERTEX
10
-3504.2000
20
190.1000
0
VERTEX
10
-3504.2000
20
189.4000
0
VERTEX
10
-3504.2000
20
188.7000
0
VERTEX
10
-3504.9000
20
188.0000
0
VERTEX
10
-3505.6000
20
187.3000
0
VERTEX
10
-3505.6000
20
186.6000
0
VERTEX
10
-3504.9000
20
185.9000
0
VERTEX
10
-3504.2000
20
185.2000
0
VERTEX
10
-3504.2000
20
184.5000
0
VERTEX
10
-3504.2000
20
183.8000
0
VERTEX
10
-3504.9000
20
183.1000
0
VERTEX
10
-3504.9000
20
182.4000
0
VERTEX
10
-3505.6000
20
181.7000
0
VERTEX
10
-3506.3000
20
181.0000
0
VERTEX
10
-3507.0000
20
181.0000
0
VERTEX
10
-3507.7000
20
181.0000
0
VERTEX
10
-3508.4000
20
181.0000
0
VERTEX
10
-3509.1000
20
181.0000
0
VERTEX
10
-3509.8000
20
181.0000
0
VERTEX
10
-3510.5000
20
181.7000
0
VERTEX
10
-3511.2000
20
182.4000
0
VERTEX
10
-3511.9000
20
183.1000
0
VERTEX
10
-3511.2000
20
183.1000
0
VERTEX
10
-3510.5000
20
183.1000
0
VERTEX
10
-3509.8000
20
182.4000
0
VERTEX
10
-3509.1000
20
181.7000
0
VERTEX
10
-3508.4000
20
181.7000
0
VERTEX
10
-3507.7000
20
181.7000
0
VERTEX
10
-3507.0000
20
181.7000
0
VERTEX
10
-3506.3000
20
182.4000
0
VERTEX
10
-3506.3000
20
183.1000
0
VERTEX
10
-3505.6000
20
183.8000
0
VERTEX
10
-3505.6000
20
184.5000
0
VERTEX
10
-3505.6000
20
185.2000
0
VERTEX
10
-3506.3000
20
185.9000
0
VERTEX
10
-3507.0000
20
186.6000
0
VERTEX
10
-3507.7000
20
186.6000
0
VERTEX
10
-3508.4000
20
186.6000
0
VERTEX
10
-3509.1000
20
186.6000
0
VERTEX
10
-3509.1000
20
187.3000
0
VERTEX
10
-3508.4000
20
187.3000
0
VERTEX
10
-3507.7000
20
187.3000
0
VERTEX
10
-3507.0000
20
187.3000
0
VERTEX
10
-3506.3000
20
188.0000
0
VERTEX
10
-3505.6000
20
188.7000
0
VERTEX
10
-3505.6000
20
189.4000
0
VERTEX
10
-3505.6000
20
190.1000
0
VERTEX
10
-3506.3000
20
190.8000
0
VERTEX
10
-3506.3000
20
191.5000
0
VERTEX
10
-3507.0000
20
192.2000
0
VERTEX
10
-3507.7000
20
192.2000
0
VERTEX
10
-3508.4000
20
192.2000
0
VERTEX
10
-3509.1000
20
192.2000
0
VERTEX
10
-3509.8000
20
191.5000
0
VERTEX
10
-3510.5000
20
190.8000
0
VERTEX
10
-3511.2000
20
190.8000
0
VERTEX
10
-3511.9000
20
190.8000
0
SEQEND
0
POLYLINE
8
M1_Pos
70
1
0
VERTEX
10
-3519.6000
20
191.5000
0
VERTEX
10
-3518.9000
20
191.5000
0
VERTEX
10
-3518.2000
20
191.5000
0
VERTEX
10
-3517.5000
20
191.5000
0
VERTEX
10
-3517.5000
20
190.8000
0
VERTEX
10
-3516.8000
20
190.8000
0
VERTEX
10
-3516.8000
20
190.1000
0
VERTEX
10
-3516.1000
20
190.1000
0
VERTEX
10
-3516.1000
20
189.4000
0
VERTEX
10
-3516.8000
20
189.4000
0
VERTEX
10
-3516.8000
20
188.7000
0
VERTEX
10
-3517.5000
20
188.7000
0
VERTEX
10
-3517.5000
20
188.0000
0
VERTEX
10
-3518.2000
20
188.0000
0
VERTEX
10
-3518.9000
20
188.0000
0
VERTEX
10
-3519.6000
20
188.0000
0
VERTEX
10
-3519.6000
20
188.7000
0
VERTEX
10
-3519.6000
20
189.4000
0
VERTEX
10
-3519.6000
20
190.1000
0
VERTEX
10
-3519.6000
20
190.8000
0
VERTEX
10
-3519.6000
20
191.5000
0
SEQEND
0
POLYLINE
8
M2_Neg
70
1
0
VERTEX
10
-3590.0000
20
110.0000
0
VERTEX
10
-3410.0000
20
110.0000
0
VERTEX
10
-3410.0000
20
290.0000
0
VERTEX
10
-3590.0000
20
290.0000
0
SEQEND
0
POLYLINE
8
M1_Neg
70
1
0
VERTEX
10
3502.0000
20
200.2000
0
VERTEX
10
3500.2000
20
200.2000
0
VERTEX
10
3500.2000
20
202.0000
0
VERTEX
10
3499.8000
20
202.0000
0
VERTEX
10
3499.8000
20
200.2000
0
VERTEX
10
3498.0000
20
200.2000
0
VERTEX
10
3498.0000
20
199.8000
0
VERTEX
10
3499.8000
20
199.8000
0
VERTEX
10
3499.8000
20
198.0000
0
VERTEX
10
3500.2000
20
198.0000
0
VERTEX
10
3500.2000
20
199.8000
0
VERTEX
10
3502.0000
20
199.8000
0
SEQEND
0
POLYLINE
8
M1_Neg
70
1
0
VERTEX
10
3502.0000
20
199.0000
0
VERTEX
10
3530.0000
20
199.0000
0
VERTEX
10
3530.0000
20
201.0000
0
VERTEX
10
3502.0000
20
201.0000
0
SEQEND
0
POLYLINE
8
M1_Neg
70
1
0
VERTEX
10
3470.0000
20
199.0000
0
VERTEX
10
3498.0000
20
199.0000
0
VERTEX
10
3498.0000
20
201.0000
0
VERTEX
10
3470.0000
20
201.0000
0
SEQEND
0
POLYLINE
8
M1_Neg
70
1
0
VERTEX
10
3499.0000
20
202.0000
0
VERTEX
10
3501.0000
20
202.0000
0
VERTEX
10
3501.0000
20
230.0000
0
VERTEX
10
3499.0000
20
230.0000
0
SEQEND
0
POLYLINE
8
M1_Neg
70
1
0
VERTEX
10
3499.0000
20
170.0000
0
VERTEX
10
3501.0000
20
170.0000
0
VERTEX
10
3501.0000
20
198.0000
0
VERTEX
10
3499.0000
20
198.0000
0
SEQEND
0
POLYLINE
8
M1_Neg
70
1
0
VERTEX
10
3465.7000
20
188.7000
0
VERTEX
10
3466.4000
20
189.4000
0
VERTEX
10
3466.4000
20
190.1000
0
VERTEX
10
3467.1000
20
190.8000
0
VERTEX
10
3467.1000
20
191.5000
0
VERTEX
10
3467.8000
20
192.2000
0
VERTEX
10
3468.5000
20
192.2000
0
VERTEX
10
3469.2000
20
192.9000
0
VERTEX
10
3469.9000
20
192.9000
0
VERTEX
10
3470.6000
20
192.9000
0
VERTEX
10
3471.3000
20
192.9000
0
VERTEX
10
3472.0000
20
192.9000
0
VERTEX
10
3472.7000
20
192.9000
0
VERTEX
10
3473.4000
20
192.9000
0
VERTEX
10
3474.1000
20
192.2000
0
VERTEX
10
3474.1000
20
191.5000
0
VERTEX
10
3474.8000
20
190.8000
0
VERTEX
10
3474.8000
20
190.1000
0
VERTEX
10
3474.8000
20
189.4000
0
VERTEX
10
3474.1000
20
189.4000
0
VERTEX
10
3473.4000
20
189.4000
0
VERTEX
10
3473.4000
20
190.1000
0
VERTEX
10
3473.4000
20
190.8000
0
VERTEX
10
3472.7000
20
191.5000
0
VERTEX
10
3472.0000
20
192.2000
0
VERTEX
10
3471.3000
20
192.2000
0
VERTEX
10
3470.6000
20
192.2000
0
VERTEX
10
3469.9000
20
191.5000
0
VERTEX
10
3469.2000
20
190.8000
0
VERTEX
10
3468.5000
20
190.1000
0
VERTEX
10
3467.8000
20
189.4000
0
VERTEX
10
3467.8000
20
188.7000
0
VERTEX
10
3467.8000
20
188.0000
0
VERTEX
10
3467.8000
20
187.3000
0
VERTEX
10
3467.8000
20
186.6000
0
VERTEX
10
3467.8000
20
185.9000
0
VERTEX
10
3467.8000
20
185.2000
0
VERTEX
10
3467.8000
20
184.5000
0
VERTEX
10
3468.5000
20
183.8000
0
VERTEX
10
3469.2000
20
183.1000
0
VERTEX
10
3469.9000
20
182.4000
0
VERTEX
10
3470.6000
20
181.7000
0
VERTEX
10
3471.3000
20
181.7000
0
VERTEX
10
3472.0000
20
181.7000
0
VERTEX
10
3472.7000
20
182.4000
0
VERTEX
10
3473.4000
20
183.1000
0
VERTEX
10
3473.4000
20
183.8000
0
VERTEX
10
3473.4000
20
184.5000
0
VERTEX
10
3472.7000
20
185.2000
0
VERTEX
10
3472.0000
20
185.9000
0
VERTEX
10
3471.3000
20
185.9000
0
VERTEX
10
3472.0000
20
185.9000
0
VERTEX
10
3472.7000
20
185.9000
0
VERTEX
10
3473.4000
20
185.9000
0
VERTEX
10
3474.1000
20
185.9000
0
VERTEX
10
3474.8000
20
185.9000
0
VERTEX
10
3474.8000
20
185.2000
0
VERTEX
10
3474.8000
20
184.5000
0
VERTEX
10
3474.8000
20
183.8000
0
VERTEX
10
3474.8000
20
183.1000
0
VERTEX
10
3474.8000
20
182.4000
0
VERTEX
10
3474.8000
20
181.7000
0
VERTEX
10
3474.8000
20
181.0000
0
VERTEX
10
3474.1000
20
181.7000
0
VERTEX
10
3473.4000
20
181.0000
0
VERTEX
10
3472.7000
20
181.0000
0
VERTEX
10
3472.0000
20
181.0000
0
VERTEX
10
3471.3000
20
181.0000
0
VERTEX
10
3470.6000
20
181.0000
0
VERTEX
10
3469.9000
20
181.0000
0
VERTEX
10
3469.2000
20
181.0000
0
VERTEX
10
3468.5000
20
181.7000
0
VERTEX
10
3467.8000
20
181.7000
0
VERTEX
10
3467.1000
20
182.4000
0
VERTEX
10
3467.1000
20
183.1000
0
VERTEX
10
3466.4000
20
183.8000
0
VERTEX
10
3466.4000
20
184.5000
0
VERTEX
10
3465.7000
20
185.2000
0
VERTEX
10
3465.7000
20
185.9000
0
VERTEX
10
3465.7000
20
186.6000
0
VERTEX
10
3465.7000
20
187.3000
0
VERTEX
10
3465.7000
20
188.0000
0
VERTEX
10
3465.7000
20
188.7000
0
SEQEND
0
POLYLINE
8
M1_Neg
70
1
0
VERTEX
10
3476.9000
20
189.4000
0
VERTEX
10
3477.6000
20
190.1000
0
VERTEX
10
3477.6000
20
190.8000
0
VERTEX
10
3478.3000
20
191.5000
0
VERTEX
10
3479.0000
20
192.2000
0
VERTEX
10
3479.7000
20
192.9000
0
VERTEX
10
3480.4000
20
192.9000
0
VERTEX
10
3481.1000
20
192.9000
0
VERTEX
10
3481.8000
20
192.9000
0
VERTEX
10
3482.5000
20
192.9000
0
VERTEX
10
3483.2000
20
192.9000
0
VERTEX
10
3483.9000
20
192.2000
0
VERTEX
10
3484.6000
20
191.5000
0
VERTEX
10
3485.3000
20
190.8000
0
VERTEX
10
3485.3000
20
190.1000
0
VERTEX
10
3486.0000
20
189.4000
0
VERTEX
10
3486.0000
20
188.7000
0
VERTEX
10
3486.0000
20
188.0000
0
VERTEX
10
3486.0000
20
187.3000
0
VERTEX
10
3486.0000
20
186.6000
0
VERTEX
10
3486.0000
20
185.9000
0
VERTEX
10
3486.0000
20
185.2000
0
VERTEX
10
3486.0000
20
184.5000
0
VERTEX
10
3485.3000
20
183.8000
0
VERTEX
10
3486.0000
20
183.1000
0
VERTEX
10
3486.0000
20
182.4000
0
VERTEX
10
3486.0000
20
181.7000
0
VERTEX
10
3486.0000
20
181.0000
0
VERTEX
10
3485.3000
20
181.0000
0
VERTEX
10
3485.3000
20
181.7000
0
VERTEX
10
3484.6000
20
182.4000
0
VERTEX
10
3483.9000
20
181.7000
0
VERTEX
10
3483.2000
20
181.0000
0
VERTEX
10
3482.5000
20
181.0000
0
VERTEX
10
3481.8000
20
181.0000
0
VERTEX
10
3481.1000
20
181.0000
0
VERTEX
10
3480.4000
20
181.0000
0
VERTEX
10
3479.7000
20
181.0000
0
VERTEX
10
3479.0000
20
181.7000
0
VERTEX
10
3478.3000
20
182.4000
0
VERTEX
10
3477.6000
20
183.1000
0
VERTEX
10
3477.6000
20
183.8000
0
VERTEX
10
3476.9000
20
184.5000
0
VERTEX
10
3476.9000
20
185.2000
0
VERTEX
10
3476.9000
20
185.9000
0
VERTEX
10
3476.9000
20
186.6000
0
VERTEX
10
3476.9000
20
187.3000
0
VERTEX
10
3476.9000
20
188.0000
0
VERTEX
10
3476.9000
20
188.7000
0
VERTEX
10
3476.9000
20
189.4000
0
SEQEND
0
POLYLINE
8
M1_Neg
70
1
0
VERTEX
10
3488.1000
20
190.8000
0
VERTEX
10
3488.8000
20
191.5000
0
VERTEX
10
3489.5000
20
192.2000
0
VERTEX
10
3490.2000
20
192.9000
0
VERTEX
10
3490.9000
20
192.9000
0
VERTEX
10
3491.6000
20
192.9000
0
VERTEX
10
3492.3000
20
192.9000
0
VERTEX
10
3493.0000
20
192.9000
0
VERTEX
10
3493.7000
20
192.9000
0
VERTEX
10
3494.4000
20
192.2000
0
VERTEX
10
3495.1000
20
191.5000
0
VERTEX
10
3495.1000
20
190.8000
0
VERTEX
10
3495.8000
20
190.1000
0
VERTEX
10
3495.8000
20
189.4000
0
VERTEX
10
3495.8000
20
188.7000
0
VERTEX
10
3495.1000
20
188.0000
0
VERTEX
10
3494.4000
20
187.3000
0
VERTEX
10
3494.4000
20
186.6000
0
VERTEX
10
3495.1000
20
185.9000
0
VERTEX
10
3495.8000
20
185.2000
0
VERTEX
10
3495.8000
20
184.5000
0
VERTEX
10
3495.8000
20
183.8000
0
VERTEX
10
3495.1000
20
183.1000
0
VERTEX
10
3495.1000
20
182.4000
0
VERTEX
10
3494.4000
20
181.7000
0
VERTEX
10
3493.7000
20
181.0000
0
VERTEX
10
3493.0000
20
181.0000
0
VERTEX
10
3492.3000
20
181.0000
0
VERTEX
10
3491.6000
20
181.0000
0
VERTEX
10
3490.9000
20
181.0000
0
VERTEX
10
3490.2000
20
181.0000
0
VERTEX
10
3489.5000
20
181.7000
0
VERTEX
10
3488.8000
20
182.4000
0
VERTEX
10
3488.1000
20
183.1000
0
VERTEX
10
3488.8000
20
183.1000
0
VERTEX
10
3489.5000
20
183.1000
0
VERTEX
10
3490.2000
20
182.4000
0
VERTEX
10
3490.9000
20
181.7000
0
VERTEX
10
3491.6000
20
181.7000
0
VERTEX
10
3492.3000
20
181.7000
0
VERTEX
10
3493.0000
20
181.7000
0
VERTEX
10
3493.7000
20
182.4000
0
VERTEX
10
3493.7000
20
183.1000
0
VERTEX
10
3494.4000
20
183.8000
0
VERTEX
10
3494.4000
20
184.5000
0
VERTEX
10
3494.4000
20
185.2000
0
VERTEX
10
3493.7000
20
185.9000
0
VERTEX
10
3493.0000
20
186.6000
0
VERTEX
10
3492.3000
20
186.6000
0
VERTEX
10
3491.6000
20
186.6000
0
VERTEX
10
3490.9000
20
186.6000
0
VERTEX
10
3490.9000
20
187.3000
0
VERTEX
10
3491.6000
20
187.3000
0
VERTEX
10
3492.3000
20
187.3000
0
VERTEX
10
3493.0000
20
187.3000
0
VERTEX
10
3493.7000
20
188.0000
0
VERTEX
10
3494.4000
20
188.7000
0
VERTEX
10
3494.4000
20
189.4000
0
VERTEX
10
3494.4000
20
190.1000
0
VERTEX
10
3493.7000
20
190.8000
0
VERTEX
10
3493.7000
20
191.5000
0
VERTEX
10
3493.0000
20
192.2000
0
VERTEX
10
3492.3000
20
192.2000
0
VERTEX
10
3491.6000
20
192.2000
0
VERTEX
10
3490.9000
20
192.2000
0
VERTEX
10
3490.2000
20
191.5000
0
VERTEX
10
3489.5000
20
190.8000
0
VERTEX
10
3488.8000
20
190.8000
0
VERTEX
10
3488.1000
20
190.8000
0
SEQEND
0
POLYLINE
8
M1_Pos
70
1
0
VERTEX
10
3479.0000
20
188.7000
0
VERTEX
10
3479.7000
20
188.7000
0
VERTEX
10
3479.7000
20
189.4000
0
VERTEX
10
3479.7000
20
190.1000
0
VERTEX
10
3480.4000
20
190.1000
0
VERTEX
10
3480.4000
20
190.8000
0
VERTEX
10
3481.1000
20
190.8000
0
VERTEX
10
3481.1000
20
191.5000
0
VERTEX
10
3481.8000
20
191.5000
0
VERTEX
10
3481.8000
20
190.8000
0
VERTEX
10
3482.5000
20
190.8000
0
VERTEX
10
3482.5000
20
190.1000
0
VERTEX
10
3483.2000
20
190.1000
0
VERTEX
10
3483.2000
20
189.4000
0
VERTEX
10
3483.2000
20
188.7000
0
VERTEX
10
3483.9000
20
188.7000
0
VERTEX
10
3483.9000
20
188.0000
0
VERTEX
10
3483.9000
20
187.3000
0
VERTEX
10
3483.9000
20
186.6000
0
VERTEX
10
3483.9000
20
185.9000
0
VERTEX
10
3483.9000
20
185.2000
0
VERTEX
10
3483.9000
20
185.9000
0
VERTEX
10
3483.2000
20
185.9000
0
VERTEX
10
3482.5000
20
185.9000
0
VERTEX
10
3481.8000
20
185.9000
0
VERTEX
10
3481.8000
20
185.2000
0
VERTEX
10
3481.8000
20
184.5000
0
VERTEX
10
3481.8000
20
183.8000
0
VERTEX
10
3481.8000
20
183.1000
0
VERTEX
10
3482.5000
20
183.1000
0
VERTEX
10
3481.8000
20
183.1000
0
VERTEX
10
3481.8000
20
182.4000
0
VERTEX
10
3481.1000
20
182.4000
0
VERTEX
10
3481.1000
20
183.1000
0
VERTEX
10
3480.4000
20
183.1000
0
VERTEX
10
3480.4000
20
183.8000
0
VERTEX
10
3479.7000
20
183.8000
0
VERTEX
10
3479.7000
20
184.5000
0
VERTEX
10
3479.7000
20
185.2000
0
VERTEX
10
3479.0000
20
185.2000
0
VERTEX
10
3479.0000
20
185.9000
0
VERTEX
10
3479.0000
20
186.6000
0
VERTEX
10
3479.0000
20
187.3000
0
VERTEX
10
3479.0000
20
188.0000
0
VERTEX
10
3479.0000
20
188.7000
0
SEQEND
0
POLYLINE
8
M2_Neg
70
1
0
VERTEX
10
3410.0000
20
110.0000
0
VERTEX
10
3590.0000
20
110.0000
0
VERTEX
10
3590.0000
20
290.0000
0
VERTEX
10
3410.0000
20
290.0000
0
SEQEND
0
POLYLINE
8
M1_Neg
70
1
0
VERTEX
10
202.0000
20
2000.2000
0
VERTEX
10
200.2000
20
2000.2000
0
VERTEX
10
200.2000
20
2002.0000
0
VERTEX
10
199.8000
20
2002.0000
0
VERTEX
10
199.8000
20
2000.2000
0
VERTEX
10
198.0000
20
2000.2000
0
VERTEX
10
198.0000
20
1999.8000
0
VERTEX
10
199.8000
20
1999.8000
0
VERTEX
10
199.8000
20
1998.0000
0
VERTEX
10
200.2000
20
1998.0000
0
VERTEX
10
200.2000
20
1999.8000
0
VERTEX
10
202.0000
20
1999.8000
0
SEQEND
0
POLYLINE
8
M1_Neg
70
1
0
VERTEX
10
202.0000
20
1999.0000
0
VERTEX
10
230.0000
20
1999.0000
0
VERTEX
10
230.0000
20
2001.0000
0
VERTEX
10
202.0000
20
2001.0000
0
SEQEND
0
POLYLINE
8
M1_Neg
70
1
0
VERTEX
10
170.0000
20
1999.0000
0
VERTEX
10
198.0000
20
1999.0000
0
VERTEX
10
198.0000
20
2001.0000
0
VERTEX
10
170.0000
20
2001.0000
0
SEQEND
0
POLYLINE
8
M1_Neg
70
1
0
VERTEX
10
199.0000
20
2002.0000
0
VERTEX
10
201.0000
20
2002.0000
0
VERTEX
10
201.0000
20
2030.0000
0
VERTEX
10
199.0000
20
2030.0000
0
SEQEND
0
POLYLINE
8
M1_Neg
70
1
0
VERTEX
10
199.0000
20
1970.0000
0
VERTEX
10
201.0000
20
1970.0000
0
VERTEX
10
201.0000
20
1998.0000
0
VERTEX
10
199.0000
20
1998.0000
0
SEQEND
0
POLYLINE
8
M1_Neg
70
1
0
VERTEX
10
165.7000
20
1988.7000
0
VERTEX
10
166.4000
20
1989.4000
0
VERTEX
10
166.4000
20
1990.1000
0
VERTEX
10
167.1000
20
1990.8000
0
VERTEX
10
167.1000
20
1991.5000
0
VERTEX
10
167.8000
20
1992.2000
0
VERTEX
10
168.5000
20
1992.2000
0
VERTEX
10
169.2000
20
1992.9000
0
VERTEX
10
169.9000
20
1992.9000
0
VERTEX
10
170.6000
20
1992.9000
0
VERTEX
10
171.3000
20
1992.9000
0
VERTEX
10
172.0000
20
1992.9000
0
VERTEX
10
172.7000
20
1992.9000
0
VERTEX
10
173.4000
20
1992.9000
0
VERTEX
10
174.1000
20
1992.2000
0
VERTEX
10
174.1000
20
1991.5000
0
VERTEX
10
174.8000
20
1990.8000
0
VERTEX
10
174.8000
20
1990.1000
0
VERTEX
10
174.8000
20
1989.4000
0
VERTEX
10
174.1000
20
1989.4000
0
VERTEX
10
173.4000
20
1989.4000
0
VERTEX
10
173.4000
20
1990.1000
0
VERTEX
10
173.4000
20
1990.8000
0
VERTEX
10
172.7000
20
1991.5000
0
VERTEX
10
172.0000
20
1992.2000
0
VERTEX
10
171.3000
20
1992.2000
0
VERTEX
10
170.6000
20
1992.2000
0
VERTEX
10
169.9000
20
1991.5000
0
VERTEX
10
169.2000
20
1990.8000
0
VERTEX
10
168.5000
20
1990.1000
0
VERTEX
10
167.8000
20
1989.4000
0
VERTEX
10
167.8000
20
1988.7000
0
VERTEX
10
167.8000
20
1988.0000
0
VERTEX
10
167.8000
20
1987.3000
0
VERTEX
10
167.8000
20
1986.6000
0
VERTEX
10
167.8000
20
1985.9000
0
VERTEX
10
167.8000
20
1985.2000
0
VERTEX
10
167.8000
20
1984.5000
0
VERTEX
10
168.5000
20
1983.8000
0
VERTEX
10
169.2000
20
1983.1000
0
VERTEX
10
169.9000
20
1982.4000
0
VERTEX
10
170.6000
20
1981.7000
0
VERTEX
10
171.3000
20
1981.7000
0
VERTEX
10
172.0000
20
1981.7000
0
VERTEX
10
172.7000
20
1982.4000
0
VERTEX
10
173.4000
20
1983.1000
0
VERTEX
10
173.4000
20
1983.8000
0
VERTEX
10
173.4000
20
1984.5000
0
VERTEX
10
172.7000
20
1985.2000
0
VERTEX
10
172.0000
20
1985.9000
0
VERTEX
10
171.3000
20
1985.9000
0
VERTEX
10
172.0000
20
1985.9000
0
VERTEX
10
172.7000
20
1985.9000
0
VERTEX
10
173.4000
20
1985.9000
0
VERTEX
10
174.1000
20
1985.9000
0
VERTEX
10
174.8000
20
1985.9000
0
VERTEX
10
174.8000
20
1985.2000
0
VERTEX
10
174.8000
20
1984.5000
0
VERTEX
10
174.8000
20
1983.8000
0
VERTEX
10
174.8000
20
1983.1000
0
VERTEX
10
174.8000
20
1982.4000
0
VERTEX
10
174.8000
20
1981.7000
0
VERTEX
10
174.8000
20
1981.0000
0
VERTEX
10
174.1000
20
1981.7000
0
VERTEX
10
173.4000
20
1981.0000
0
VERTEX
10
172.7000
20
1981.0000
0
VERTEX
10
172.0000
20
1981.0000
0
VERTEX
10
171.3000
20
1981.0000
0
VERTEX
10
170.6000
20
1981.0000
0
VERTEX
10
169.9000
20
1981.0000
0
VERTEX
10
169.2000
20
1981.0000
0
VERTEX
10
168.5000
20
1981.7000
0
VERTEX
10
167.8000
20
1981.7000
0
VERTEX
10
167.1000
20
1982.4000
0
VERTEX
10
167.1000
20
1983.1000
0
VERTEX
10
166.4000
20
1983.8000
0
VERTEX
10
166.4000
20
1984.5000
0
VERTEX
10
165.7000
20
1985.2000
0
VERTEX
10
165.7000
20
1985.9000
0
VERTEX
10
165.7000
20
1986.6000
0
VERTEX
10
165.7000
20
1987.3000
0
VERTEX
10
165.7000
20
1988.0000
0
VERTEX
10
165.7000
20
1988.7000
0
SEQEND
0
POLYLINE
8
M1_Neg
70
1
0
VERTEX
10
176.9000
20
1992.9000
0
VERTEX
10
177.6000
20
1992.9000
0
VERTEX
10
178.3000
20
1992.9000
0
VERTEX
10
179.0000
20
1992.9000
0
VERTEX
10
179.7000
20
1992.9000
0
VERTEX
10
180.4000
20
1992.9000
0
VERTEX
10
181.1000
20
1992.9000
0
VERTEX
10
181.8000
20
1992.9000
0
VERTEX
10
182.5000
20
1992.9000
0
VERTEX
10
183.2000
20
1992.9000
0
VERTEX
10
183.9000
20
1992.9000
0
VERTEX
10
184.6000
20
1992.2000
0
VERTEX
10
185.3000
20
1991.5000
0
VERTEX
10
185.3000
20
1990.8000
0
VERTEX
10
186.0000
20
1990.1000
0
VERTEX
10
186.0000
20
1989.4000
0
VERTEX
10
186.0000
20
1988.7000
0
VERTEX
10
185.3000
20
1988.0000
0
VERTEX
10
184.6000
20
1987.3000
0
VERTEX
10
183.9000
20
1986.6000
0
VERTEX
10
183.9000
20
1985.9000
0
VERTEX
10
184.6000
20
1985.2000
0
VERTEX
10
185.3000
20
1984.5000
0
VERTEX
10
185.3000
20
1983.8000
0
VERTEX
10
185.3000
20
1983.1000
0
VERTEX
10
185.3000
20
1982.4000
0
VERTEX
10
185.3000
20
1981.7000
0
VERTEX
10
186.0000
20
1981.0000
0
VERTEX
10
185.3000
20
1981.0000
0
VERTEX
10
184.6000
20
1981.0000
0
VERTEX
10
183.9000
20
1981.0000
0
VERTEX
10
183.9000
20
1981.7000
0
VERTEX
10
183.9000
20
1982.4000
0
VERTEX
10
183.9000
20
1983.1000
0
VERTEX
10
183.9000
20
1983.8000
0
VERTEX
10
183.9000
20
1984.5000
0
VERTEX
10
183.2000
20
1985.2000
0
VERTEX
10
182.5000
20
1985.9000
0
VERTEX
10
181.8000
20
1986.6000
0
VERTEX
10
181.1000
20
1986.6000
0
VERTEX
10
180.4000
20
1986.6000
0
VERTEX
10
179.7000
20
1985.9000
0
VERTEX
10
179.7000
20
1985.2000
0
VERTEX
10
179.7000
20
1984.5000
0
VERTEX
10
179.7000
20
1983.8000
0
VERTEX
10
179.7000
20
1983.1000
0
VERTEX
10
179.7000
20
1982.4000
0
VERTEX
10
179.7000
20
1981.7000
0
VERTEX
10
179.7000
20
1981.0000
0
VERTEX
10
179.0000
20
1981.0000
0
VERTEX
10
178.3000
20
1981.0000
0
VERTEX
10
177.6000
20
1981.0000
0
VERTEX
10
176.9000
20
1981.0000
0
VERTEX
10
177.6000
20
1981.7000
0
VERTEX
10
178.3000
20
1982.4000
0
VERTEX
10
178.3000
20
1983.1000
0
VERTEX
10
178.3000
20
1983.8000
0
VERTEX
10
178.3000
20
1984.5000
0
VERTEX
10
178.3000
20
1985.2000
0
VERTEX
10
178.3000
20
1985.9000
0
VERTEX
10
178.3000
20
1986.6000
0
VERTEX
10
178.3000
20
1987.3000
0
VERTEX
10
178.3000
20
1988.0000
0
VERTEX
10
178.3000
20
1988.7000
0
VERTEX
10
178.3000
20
1989.4000
0
VERTEX
10
178.3000
20
1990.1000
0
VERTEX
10
178.3000
20
1990.8000
0
VERTEX
10
178.3000
20
1991.5000
0
VERTEX
10
177.6000
20
1992.2000
0
VERTEX
10
176.9000
20
1992.9000
0
SEQEND
0
POLYLINE
8
M1_Neg
70
1
0
VERTEX
10
188.1000
20
1990.8000
0
VERTEX
10
188.8000
20
1991.5000
0
VERTEX
10
189.5000
20
1992.2000
0
VERTEX
10
190.2000
20
1992.9000
0
VERTEX
10
190.9000
20
1992.9000
0
VERTEX
10
191.6000
20
1992.9000
0
VERTEX
10
192.3000
20
1992.9000
0
VERTEX
10
193.0000
20
1992.9000
0
VERTEX
10
193.7000
20
1992.9000
0
VERTEX
10
194.4000
20
1992.2000
0
VERTEX
10
195.1000
20
1991.5000
0
VERTEX
10
195.1000
20
1990.8000
0
VERTEX
10
195.8000
20
1990.1000
0
VERTEX
10
195.8000
20
1989.4000
0
VERTEX
10
195.8000
20
1988.7000
0
VERTEX
10
195.1000
20
1988.0000
0
VERTEX
10
194.4000
20
1987.3000
0
VERTEX
10
194.4000
20
1986.6000
0
VERTEX
10
195.1000
20
1985.9000
0
VERTEX
10
195.8000
20
1985.2000
0
VERTEX
10
195.8000
20
1984.5000
0
VERTEX
10
195.8000
20
1983.8000
0
VERTEX
10
195.1000
20
1983.1000
0
VERTEX
10
195.1000
20
1982.4000
0
VERTEX
10
194.4000
20
1981.7000
0
VERTEX
10
193.7000
20
1981.0000
0
VERTEX
10
193.0000
20
1981.0000
0
VERTEX
10
192.3000
20
1981.0000
0
VERTEX
10
191.6000
20
1981.0000
0
VERTEX
10
190.9000
20
1981.0000
0
VERTEX
10
190.2000
20
1981.0000
0
VERTEX
10
189.5000
20
1981.7000
0
VERTEX
10
188.8000
20
1982.4000
0
VERTEX
10
188.1000
20
1983.1000
0
VERTEX
10
188.8000
20
1983.1000
0
VERTEX
10
189.5000
20
1983.1000
0
VERTEX
10
190.2000
20
1982.4000
0
VERTEX
10
190.9000
20
1981.7000
0
VERTEX
10
191.6000
20
1981.7000
0
VERTEX
10
192.3000
20
1981.7000
0
VERTEX
10
193.0000
20
1981.7000
0
VERTEX
10
193.7000
20
1982.4000
0
VERTEX
10
193.7000
20
1983.1000
0
VERTEX
10
194.4000
20
1983.8000
0
VERTEX
10
194.4000
20
1984.5000
0
VERTEX
10
194.4000
20
1985.2000
0
VERTEX
10
193.7000
20
1985.9000
0
VERTEX
10
193.0000
20
1986.6000
0
VERTEX
10
192.3000
20
1986.6000
0
VERTEX
10
191.6000
20
1986.6000
0
VERTEX
10
190.9000
20
1986.6000
0
VERTEX
10
190.9000
20
1987.3000
0
VERTEX
10
191.6000
20
1987.3000
0
VERTEX
10
192.3000
20
1987.3000
0
VERTEX
10
193.0000
20
1987.3000
0
VERTEX
10
193.7000
20
1988.0000
0
VERTEX
10
194.4000
20
1988.7000
0
VERTEX
10
194.4000
20
1989.4000
0
VERTEX
10
194.4000
20
1990.1000
0
VERTEX
10
193.7000
20
1990.8000
0
VERTEX
10
193.7000
20
1991.5000
0
VERTEX
10
193.0000
20
1992.2000
0
VERTEX
10
192.3000
20
1992.2000
0
VERTEX
10
191.6000
20
1992.2000
0
VERTEX
10
190.9000
20
1992.2000
0
VERTEX
10
190.2000
20
1991.5000
0
VERTEX
10
189.5000
20
1990.8000
0
VERTEX
10
188.8000
20
1990.8000
0
VERTEX
10
188.1000
20
1990.8000
0
SEQEND
0
POLYLINE
8
M1_Pos
70
1
0
VERTEX
10
180.4000
20
1991.5000
0
VERTEX
10
181.1000
20
1991.5000
0
VERTEX
10
181.8000
20
1991.5000
0
VERTEX
10
182.5000
20
1991.5000
0
VERTEX
10
182.5000
20
1990.8000
0
VERTEX
10
183.2000
20
1990.8000
0
VERTEX
10
183.2000
20
1990.1000
0
VERTEX
10
183.2000
20
1989.4000
0
VERTEX
10
183.2000
20
1988.7000
0
VERTEX
10
182.5000
20
1988.7000
0
VERTEX
10
182.5000
20
1988.0000
0
VERTEX
10
181.8000
20
1988.0000
0
VERTEX
10
181.1000
20
1988.0000
0
VERTEX
10
180.4000
20
1988.0000
0
VERTEX
10
180.4000
20
1988.7000
0
VERTEX
10
180.4000
20
1989.4000
0
VERTEX
10
180.4000
20
1990.1000
0
VERTEX
10
180.4000
20
1990.8000
0
VERTEX
10
180.4000
20
1991.5000
0
SEQEND
0
POLYLINE
8
M2_Neg
70
1
0
VERTEX
10
110.0000
20
1910.0000
0
VERTEX
10
290.0000
20
1910.0000
0
VERTEX
10
290.0000
20
2090.0000
0
VERTEX
10
110.0000
20
2090.0000
0
SEQEND
0
POLYLINE
8
M1_Neg
70
1
0
VERTEX
10
202.0000
20
-1999.8000
0
VERTEX
10
200.2000
20
-1999.8000
0
VERTEX
10
200.2000
20
-1998.0000
0
VERTEX
10
199.8000
20
-1998.0000
0
VERTEX
10
199.8000
20
-1999.8000
0
VERTEX
10
198.0000
20
-1999.8000
0
VERTEX
10
198.0000
20
-2000.2000
0
VERTEX
10
199.8000
20
-2000.2000
0
VERTEX
10
199.8000
20
-2002.0000
0
VERTEX
10
200.2000
20
-2002.0000
0
VERTEX
10
200.2000
20
-2000.2000
0
VERTEX
10
202.0000
20
-2000.2000
0
SEQEND
0
POLYLINE
8
M1_Neg
70
1
0
VERTEX
10
202.0000
20
-2001.0000
0
VERTEX
10
230.0000
20
-2001.0000
0
VERTEX
10
230.0000
20
-1999.0000
0
VERTEX
10
202.0000
20
-1999.0000
0
SEQEND
0
POLYLINE
8
M1_Neg
70
1
0
VERTEX
10
170.0000
20
-2001.0000
0
VERTEX
10
198.0000
20
-2001.0000
0
VERTEX
10
198.0000
20
-1999.0000
0
VERTEX
10
170.0000
20
-1999.0000
0
SEQEND
0
POLYLINE
8
M1_Neg
70
1
0
VERTEX
10
199.0000
20
-1998.0000
0
VERTEX
10
201.0000
20
-1998.0000
0
VERTEX
10
201.0000
20
-1970.0000
0
VERTEX
10
199.0000
20
-1970.0000
0
SEQEND
0
POLYLINE
8
M1_Neg
70
1
0
VERTEX
10
199.0000
20
-2030.0000
0
VERTEX
10
201.0000
20
-2030.0000
0
VERTEX
10
201.0000
20
-2002.0000
0
VERTEX
10
199.0000
20
-2002.0000
0
SEQEND
0
POLYLINE
8
M1_Neg
70
1
0
VERTEX
10
165.7000
20
-2011.3000
0
VERTEX
10
166.4000
20
-2010.6000
0
VERTEX
10
166.4000
20
-2009.9000
0
VERTEX
10
167.1000
20
-2009.2000
0
VERTEX
10
167.1000
20
-2008.5000
0
VERTEX
10
167.8000
20
-2007.8000
0
VERTEX
10
168.5000
20
-2007.8000
0
VERTEX
10
169.2000
20
-2007.1000
0
VERTEX
10
169.9000
20
-2007.1000
0
VERTEX
10
170.6000
20
-2007.1000
0
VERTEX
10
171.3000
20
-2007.1000
0
VERTEX
10
172.0000
20
-2007.1000
0
VERTEX
10
172.7000
20
-2007.1000
0
VERTEX
10
173.4000
20
-2007.1000
0
VERTEX
10
174.1000
20
-2007.8000
0
VERTEX
10
174.1000
20
-2008.5000
0
VERTEX
10
174.8000
20
-2009.2000
0
VERTEX
10
174.8000
20
-2009.9000
0
VERTEX
10
174.8000
20
-2010.6000
0
VERTEX
10
174.1000
20
-2010.6000
0
VERTEX
10
173.4000
20
-2010.6000
0
VERTEX
10
173.4000
20
-2009.9000
0
VERTEX
10
173.4000
20
-2009.2000
0
VERTEX
10
172.7000
20
-2008.5000
0
VERTEX
10
172.0000
20
-2007.8000
0
VERTEX
10
171.3000
20
-2007.8000
0
VERTEX
10
170.6000
20
-2007.8000
0
VERTEX
10
169.9000
20
-2008.5000
0
VERTEX
10
169.2000
20
-2009.2000
0
VERTEX
10
168.5000
20
-2009.9000
0
VERTEX
10
167.8000
20
-2010.6000
0
VERTEX
10
167.8000
20
-2011.3000
0
VERTEX
10
167.8000
20
-2012.0000
0
VERTEX
10
167.8000
20
-2012.7000
0
VERTEX
10
167.8000
20
-2013.4000
0
VERTEX
10
167.8000
20
-2014.1000
0
VERTEX
10
167.8000
20
-2014.8000
0
VERTEX
10
167.8000
20
-2015.5000
0
VERTEX
10
168.5000
20
-2016.2000
0
VERTEX
10
169.2000
20
-2016.9000
0
VERTEX
10
169.9000
20
-2017.6000
0
VERTEX
10
170.6000
20
-2018.3000
0
VERTEX
10
171.3000
20
-2018.3000
0
VERTEX
10
172.0000
20
-2018.3000
0
VERTEX
10
172.7000
20
-2017.6000
0
VERTEX
10
173.4000
20
-2016.9000
0
VERTEX
10
173.4000
20
-2016.2000
0
VERTEX
10
173.4000
20
-2015.5000
0
VERTEX
10
172.7000
20
-2014.8000
0
VERTEX
10
172.0000
20
-2014.1000
0
VERTEX
10
171.3000
20
-2014.1000
0
VERTEX
10
172.0000
20
-2014.1000
0
VERTEX
10
172.7000
20
-2014.1000
0
VERTEX
10
173.4000
20
-2014.1000
0
VERTEX
10
174.1000
20
-2014.1000
0
VERTEX
10
174.8000
20
-2014.1000
0
VERTEX
10
174.8000
20
-2014.8000
0
VERTEX
10
174.8000
20
-2015.5000
0
VERTEX
10
174.8000
20
-2016.2000
0
VERTEX
10
174.8000
20
-2016.9000
0
VERTEX
10
174.8000
20
-2017.6000
0
VERTEX
10
174.8000
20
-2018.3000
0
VERTEX
10
174.8000
20
-2019.0000
0
VERTEX
10
174.1000
20
-2018.3000
0
VERTEX
10
173.4000
20
-2019.0000
0
VERTEX
10
172.7000
20
-2019.0000
0
VERTEX
10
172.0000
20
-2019.0000
0
VERTEX
10
171.3000
20
-2019.0000
0
VERTEX
10
170.6000
20
-2019.0000
0
VERTEX
10
169.9000
20
-2019.0000
0
VERTEX
10
169.2000
20
-2019.0000
0
VERTEX
10
168.5000
20
-2018.3000
0
VERTEX
10
167.8000
20
-2018.3000
0
VERTEX
10
167.1000
20
-2017.6000
0
VERTEX
10
167.1000
20
-2016.9000
0
VERTEX
10
166.4000
20
-2016.2000
0
VERTEX
10
166.4000
20
-2015.5000
0
VERTEX
10
165.7000
20
-2014.8000
0
VERTEX
10
165.7000
20
-2014.1000
0
VERTEX
10
165.7000
20
-2013.4000
0
VERTEX
10
165.7000
20
-2012.7000
0
VERTEX
10
165.7000
20
-2012.0000
0
VERTEX
10
165.7000
20
-2011.3000
0
SEQEND
0
POLYLINE
8
M1_Neg
70
1
0
VERTEX
10
176.9000
20
-2009.2000
0
VERTEX
10
177.6000
20
-2008.5000
0
VERTEX
10
177.6000
20
-2007.8000
0
VERTEX
10
178.3000
20
-2007.8000
0
VERTEX
10
179.0000
20
-2007.1000
0
VERTEX
10
179.7000
20
-2007.1000
0
VERTEX
10
180.4000
20
-2007.1000
0
VERTEX
10
181.1000
20
-2007.1000
0
VERTEX
10
181.8000
20
-2007.1000
0
VERTEX
10
182.5000
20
-2007.1000
0
VERTEX
10
183.2000
20
-2007.8000
0
VERTEX
10
183.9000
20
-2007.8000
0
VERTEX
10
183.9000
20
-2008.5000
0
VERTEX
10
184.6000
20
-2009.2000
0
VERTEX
10
184.6000
20
-2009.9000
0
VERTEX
10
183.9000
20
-2010.6000
0
VERTEX
10
183.2000
20
-2010.6000
0
VERTEX
10
183.2000
20
-2009.9000
0
VERTEX
10
183.2000
20
-2009.2000
0
VERTEX
10
182.5000
20
-2008.5000
0
VERTEX
10
181.8000
20
-2007.8000
0
VERTEX
10
181.1000
20
-2007.8000
0
VERTEX
10
180.4000
20
-2007.8000
0
VERTEX
10
179.7000
20
-2007.8000
0
VERTEX
10
179.0000
20
-2008.5000
0
VERTEX
10
178.3000
20
-2009.2000
0
VERTEX
10
178.3000
20
-2009.9000
0
VERTEX
10
178.3000
20
-2010.6000
0
VERTEX
10
178.3000
20
-2011.3000
0
VERTEX
10
179.0000
20
-2012.0000
0
VERTEX
10
179.7000
20
-2012.7000
0
VERTEX
10
180.4000
20
-2012.7000
0
VERTEX
10
181.1000
20
-2012.7000
0
VERTEX
10
181.8000
20
-2012.7000
0
VERTEX
10
182.5000
20
-2013.4000
0
VERTEX
10
183.2000
20
-2013.4000
0
VERTEX
10
183.9000
20
-2014.1000
0
VERTEX
10
183.9000
20
-2014.8000
0
VERTEX
10
184.6000
20
-2015.5000
0
VERTEX
10
184.6000
20
-2016.2000
0
VERTEX
10
184.6000
20
-2016.9000
0
VERTEX
10
183.9000
20
-2017.6000
0
VERTEX
10
183.9000
20
-2018.3000
0
VERTEX
10
183.2000
20
-2018.3000
0
VERTEX
10
182.5000
20
-2019.0000
0
VERTEX
10
181.8000
20
-2019.0000
0
VERTEX
10
181.1000
20
-2019.0000
0
VERTEX
10
180.4000
20
-2019.0000
0
VERTEX
10
179.7000
20
-2019.0000
0
VERTEX
10
179.0000
20
-2019.0000
0
VERTEX
10
178.3000
20
-2018.3000
0
VERTEX
10
177.6000
20
-2018.3000
0
VERTEX
10
177.6000
20
-2017.6000
0
VERTEX
10
176.9000
20
-2016.9000
0
VERTEX
10
176.9000
20
-2016.2000
0
VERTEX
10
177.6000
20
-2015.5000
0
VERTEX
10
178.3000
20
-2015.5000
0
VERTEX
10
178.3000
20
-2016.2000
0
VERTEX
10
178.3000
20
-2016.9000
0
VERTEX
10
179.0000
20
-2017.6000
0
VERTEX
10
179.7000
20
-2018.3000
0
VERTEX
10
180.4000
20
-2018.3000
0
VERTEX
10
181.1000
20
-2018.3000
0
VERTEX
10
181.8000
20
-2018.3000
0
VERTEX
10
182.5000
20
-2017.6000
0
VERTEX
10
183.2000
20
-2016.9000
0
VERTEX
10
183.2000
20
-2016.2000
0
VERTEX
10
183.2000
20
-2015.5000
0
VERTEX
10
183.2000
20
-2014.8000
0
VERTEX
10
182.5000
20
-2014.1000
0
VERTEX
10
181.8000
20
-2014.1000
0
VERTEX
10
181.1000
20
-2013.4000
0
VERTEX
10
180.4000
20
-2013.4000
0
VERTEX
10
179.7000
20
-2013.4000
0
VERTEX
10
179.0000
20
-2013.4000
0
VERTEX
10
178.3000
20
-2013.4000
0
VERTEX
10
177.6000
20
-2012.7000
0
VERTEX
10
176.9000
20
-2012.0000
0
VERTEX
10
176.9000
20
-2011.3000
0
VERTEX
10
176.9000
20
-2010.6000
0
VERTEX
10
176.9000
20
-2009.9000
0
VERTEX
10
176.9000
20
-2009.2000
0
SEQEND
0
POLYLINE
8
M1_Neg
70
1
0
VERTEX
10
188.1000
20
-2009.2000
0
VERTEX
10
188.8000
20
-2008.5000
0
VERTEX
10
189.5000
20
-2007.8000
0
VERTEX
10
190.2000
20
-2007.1000
0
VERTEX
10
190.9000
20
-2007.1000
0
VERTEX
10
191.6000
20
-2007.1000
0
VERTEX
10
192.3000
20
-2007.1000
0
VERTEX
10
193.0000
20
-2007.1000
0
VERTEX
10
193.7000
20
-2007.1000
0
VERTEX
10
194.4000
20
-2007.8000
0
VERTEX
10
195.1000
20
-2008.5000
0
VERTEX
10
195.1000
20
-2009.2000
0
VERTEX
10
195.8000
20
-2009.9000
0
VERTEX
10
195.8000
20
-2010.6000
0
VERTEX
10
195.8000
20
-2011.3000
0
VERTEX
10
195.1000
20
-2012.0000
0
VERTEX
10
194.4000
20
-2012.7000
0
VERTEX
10
194.4000
20
-2013.4000
0
VERTEX
10
195.1000
20
-2014.1000
0
VERTEX
10
195.8000
20
-2014.8000
0
VERTEX
10
195.8000
20
-2015.5000
0
VERTEX
10
195.8000
20
-2016.2000
0
VERTEX
10
195.1000
20
-2016.9000
0
VERTEX
10
195.1000
20
-2017.6000
0
VERTEX
10
194.4000
20
-2018.3000
0
VERTEX
10
193.7000
20
-2019.0000
0
VERTEX
10
193.0000
20
-2019.0000
0
VERTEX
10
192.3000
20
-2019.0000
0
VERTEX
10
191.6000
20
-2019.0000
0
VERTEX
10
190.9000
20
-2019.0000
0
VERTEX
10
190.2000
20
-2019.0000
0
VERTEX
10
189.5000
20
-2018.3000
0
VERTEX
10
188.8000
20
-2017.6000
0
VERTEX
10
188.1000
20
-2016.9000
0
VERTEX
10
188.8000
20
-2016.9000
0
VERTEX
10
189.5000
20
-2016.9000
0
VERTEX
10
190.2000
20
-2017.6000
0
VERTEX
10
190.9000
20
-2018.3000
0
VERTEX
10
191.6000
20
-2018.3000
0
VERTEX
10
192.3000
20
-2018.3000
0
VERTEX
10
193.0000
20
-2018.3000
0
VERTEX
10
193.7000
20
-2017.6000
0
VERTEX
10
193.7000
20
-2016.9000
0
VERTEX
10
194.4000
20
-2016.2000
0
VERTEX
10
194.4000
20
-2015.5000
0
VERTEX
10
194.4000
20
-2014.8000
0
VERTEX
10
193.7000
20
-2014.1000
0
VERTEX
10
193.0000
20
-2013.4000
0
VERTEX
10
192.3000
20
-2013.4000
0
VERTEX
10
191.6000
20
-2013.4000
0
VERTEX
10
190.9000
20
-2013.4000
0
VERTEX
10
190.9000
20
-2012.7000
0
VERTEX
10
191.6000
20
-2012.7000
0
VERTEX
10
192.3000
20
-2012.7000
0
VERTEX
10
193.0000
20
-2012.7000
0
VERTEX
10
193.7000
20
-2012.0000
0
VERTEX
10
194.4000
20
-2011.3000
0
VERTEX
10
194.4000
20
-2010.6000
0
VERTEX
10
194.4000
20
-2009.9000
0
VERTEX
10
193.7000
20
-2009.2000
0
VERTEX
10
193.7000
20
-2008.5000
0
VERTEX
10
193.0000
20
-2007.8000
0
VERTEX
10
192.3000
20
-2007.8000
0
VERTEX
10
191.6000
20
-2007.8000
0
VERTEX
10
190.9000
20
-2007.8000
0
VERTEX
10
190.2000
20
-2008.5000
0
VERTEX
10
189.5000
20
-2009.2000
0
VERTEX
10
188.8000
20
-2009.2000
0
VERTEX
10
188.1000
20
-2009.2000
0
SEQEND
0
POLYLINE
8
M2_Neg
70
1
0
VERTEX
10
110.0000
20
-2090.0000
0
VERTEX
10
290.0000
20
-2090.0000
0
VERTEX
10
290.0000
20
-1910.0000
0
VERTEX
10
110.0000
20
-1910.0000
0
SEQEND
0
POLYLINE
8
metal1_BB
70
1
0
VERTEX
10
-82.5000
20
1724.0000
0
VERTEX
10
-92.5000
20
1724.0000
0
VERTEX
10
-92.5000
20
1714.0000
0
VERTEX
10
-82.5000
20
1714.0000
0
SEQEND
0
POLYLINE
8
metal1_BB
70
1
0
VERTEX
10
-82.5000
20
1755.0000
0
VERTEX
10
-92.5000
20
1755.0000
0
VERTEX
10
-92.5000
20
1745.0000
0
VERTEX
10
-82.5000
20
1745.0000
0
SEQEND
0
POLYLINE
8
metal1_BB
70
1
0
VERTEX
10
-87.5000
20
1714.0000
0
VERTEX
10
-105.0000
20
1716.5000
0
VERTEX
10
-105.0000
20
1877.5000
0
VERTEX
10
-190.0000
20
1877.5000
0
VERTEX
10
-190.0000
20
2252.5000
0
VERTEX
10
-62.5000
20
2255.0000
0
VERTEX
10
-62.5000
20
2245.0000
0
VERTEX
10
-185.0000
20
2247.5000
0
VERTEX
10
-185.0000
20
1882.5000
0
VERTEX
10
-100.0000
20
1882.5000
0
VERTEX
10
-100.0000
20
1721.5000
0
VERTEX
10
-87.5000
20
1724.0000
0
VERTEX
10
-87.5000
20
1714.0000
0
SEQEND
0
POLYLINE
8
metal1_BB
70
1
0
VERTEX
10
-89.9914
20
1750.2076
0
VERTEX
10
-64.9914
20
2050.2076
0
VERTEX
10
-60.0086
20
2049.7924
0
VERTEX
10
-85.0086
20
1749.7924
0
VERTEX
10
-89.9914
20
1750.2076
0
SEQEND
0
POLYLINE
8
metal1_BB
70
1
0
VERTEX
10
32.5000
20
2145.0000
0
VERTEX
10
-157.5000
20
2145.0000
0
VERTEX
10
-157.5000
20
1955.0000
0
VERTEX
10
32.5000
20
1955.0000
0
SEQEND
0
POLYLINE
8
M2_undercutMsk
70
1
0
VERTEX
10
27.5000
20
2140.0000
0
VERTEX
10
-152.5000
20
2140.0000
0
VERTEX
10
-152.5000
20
1960.0000
0
VERTEX
10
27.5000
20
1960.0000
0
SEQEND
0
POLYLINE
8
metal2_BB
70
1
0
VERTEX
10
-85.5000
20
1744.5000
0
VERTEX
10
-90.5000
20
1744.5000
0
VERTEX
10
-90.5000
20
1739.5000
0
VERTEX
10
-85.5000
20
1739.5000
0
SEQEND
0
POLYLINE
8
metal2_BB
70
1
0
VERTEX
10
-85.5000
20
1758.5000
0
VERTEX
10
-90.5000
20
1758.5000
0
VERTEX
10
-90.5000
20
1753.5000
0
VERTEX
10
-85.5000
20
1753.5000
0
SEQEND
0
POLYLINE
8
metal2_BB
70
1
0
VERTEX
10
-88.8495
20
1737.0727
0
VERTEX
10
-105.4248
20
1742.0363
0
VERTEX
10
-105.0000
20
1877.5000
0
VERTEX
10
-190.0000
20
1877.5000
0
VERTEX
10
-190.0000
20
2252.5000
0
VERTEX
10
-62.5000
20
2255.0000
0
VERTEX
10
-62.5000
20
2245.0000
0
VERTEX
10
-185.0000
20
2247.5000
0
VERTEX
10
-185.0000
20
1882.5000
0
VERTEX
10
-100.0000
20
1882.5000
0
VERTEX
10
-99.5752
20
1746.9637
0
VERTEX
10
-87.1505
20
1746.9273
0
VERTEX
10
-88.8495
20
1737.0727
0
SEQEND
0
POLYLINE
8
metal2_BB
70
1
0
VERTEX
10
-90.4906
20
1756.2160
0
VERTEX
10
-64.9906
20
2050.2160
0
VERTEX
10
-60.0094
20
2049.7840
0
VERTEX
10
-85.5094
20
1755.7840
0
VERTEX
10
-90.4906
20
1756.2160
0
SEQEND
0
POLYLINE
8
metal2_BB
70
1
0
VERTEX
10
32.5000
20
2145.0000
0
VERTEX
10
-157.5000
20
2145.0000
0
VERTEX
10
-157.5000
20
1955.0000
0
VERTEX
10
32.5000
20
1955.0000
0
SEQEND
0
POLYLINE
8
M2_undercutMsk
70
1
0
VERTEX
10
27.5000
20
2140.0000
0
VERTEX
10
-152.5000
20
2140.0000
0
VERTEX
10
-152.5000
20
1960.0000
0
VERTEX
10
27.5000
20
1960.0000
0
SEQEND
0
POLYLINE
8
metal1_BB
70
1
0
VERTEX
10
-42.5000
20
1714.0000
0
VERTEX
10
-32.5000
20
1714.0000
0
VERTEX
10
-32.5000
20
1724.0000
0
VERTEX
10
-42.5000
20
1724.0000
0
SEQEND
0
POLYLINE
8
metal1_BB
70
1
0
VERTEX
10
-42.5000
20
1745.0000
0
VERTEX
10
-32.5000
20
1745.0000
0
VERTEX
10
-32.5000
20
1755.0000
0
VERTEX
10
-42.5000
20
1755.0000
0
SEQEND
0
POLYLINE
8
metal1_BB
70
1
0
VERTEX
10
-37.5000
20
1714.0000
0
VERTEX
10
-20.0000
20
1716.5000
0
VERTEX
10
-20.0000
20
1877.5000
0
VERTEX
10
65.0000
20
1877.5000
0
VERTEX
10
65.0000
20
2252.5000
0
VERTEX
10
-62.5000
20
2255.0000
0
VERTEX
10
-62.5000
20
2245.0000
0
VERTEX
10
60.0000
20
2247.5000
0
VERTEX
10
60.0000
20
1882.5000
0
VERTEX
10
-25.0000
20
1882.5000
0
VERTEX
10
-25.0000
20
1721.5000
0
VERTEX
10
-37.5000
20
1724.0000
0
VERTEX
10
-37.5000
20
1714.0000
0
SEQEND
0
POLYLINE
8
metal1_BB
70
1
0
VERTEX
10
-35.0086
20
1750.2076
0
VERTEX
10
-60.0086
20
2050.2076
0
VERTEX
10
-64.9914
20
2049.7924
0
VERTEX
10
-39.9914
20
1749.7924
0
VERTEX
10
-35.0086
20
1750.2076
0
SEQEND
0
POLYLINE
8
metal1_BB
70
1
0
VERTEX
10
-157.5000
20
1955.0000
0
VERTEX
10
32.5000
20
1955.0000
0
VERTEX
10
32.5000
20
2145.0000
0
VERTEX
10
-157.5000
20
2145.0000
0
SEQEND
0
POLYLINE
8
M2_undercutMsk
70
1
0
VERTEX
10
-152.5000
20
1960.0000
0
VERTEX
10
27.5000
20
1960.0000
0
VERTEX
10
27.5000
20
2140.0000
0
VERTEX
10
-152.5000
20
2140.0000
0
SEQEND
0
POLYLINE
8
metal2_BB
70
1
0
VERTEX
10
-39.5000
20
1739.5000
0
VERTEX
10
-34.5000
20
1739.5000
0
VERTEX
10
-34.5000
20
1744.5000
0
VERTEX
10
-39.5000
20
1744.5000
0
SEQEND
0
POLYLINE
8
metal2_BB
70
1
0
VERTEX
10
-39.5000
20
1753.5000
0
VERTEX
10
-34.5000
20
1753.5000
0
VERTEX
10
-34.5000
20
1758.5000
0
VERTEX
10
-39.5000
20
1758.5000
0
SEQEND
0
POLYLINE
8
metal2_BB
70
1
0
VERTEX
10
-36.1505
20
1737.0727
0
VERTEX
10
-19.5752
20
1742.0363
0
VERTEX
10
-20.0000
20
1877.5000
0
VERTEX
10
65.0000
20
1877.5000
0
VERTEX
10
65.0000
20
2252.5000
0
VERTEX
10
-62.5000
20
2255.0000
0
VERTEX
10
-62.5000
20
2245.0000
0
VERTEX
10
60.0000
20
2247.5000
0
VERTEX
10
60.0000
20
1882.5000
0
VERTEX
10
-25.0000
20
1882.5000
0
VERTEX
10
-25.4248
20
1746.9637
0
VERTEX
10
-37.8495
20
1746.9273
0
VERTEX
10
-36.1505
20
1737.0727
0
SEQEND
0
POLYLINE
8
metal2_BB
70
1
0
VERTEX
10
-34.5094
20
1756.2160
0
VERTEX
10
-60.0094
20
2050.2160
0
VERTEX
10
-64.9906
20
2049.7840
0
VERTEX
10
-39.4906
20
1755.7840
0
VERTEX
10
-34.5094
20
1756.2160
0
SEQEND
0
POLYLINE
8
metal2_BB
70
1
0
VERTEX
10
-157.5000
20
1955.0000
0
VERTEX
10
32.5000
20
1955.0000
0
VERTEX
10
32.5000
20
2145.0000
0
VERTEX
10
-157.5000
20
2145.0000
0
SEQEND
0
POLYLINE
8
M2_undercutMsk
70
1
0
VERTEX
10
-152.5000
20
1960.0000
0
VERTEX
10
27.5000
20
1960.0000
0
VERTEX
10
27.5000
20
2140.0000
0
VERTEX
10
-152.5000
20
2140.0000
0
SEQEND
0
POLYLINE
8
metal_BB
70
1
0
VERTEX
10
-2415.0000
20
2275.0000
0
VERTEX
10
-2465.0000
20
2275.0000
0
VERTEX
10
-2465.0000
20
2225.0000
0
VERTEX
10
-2415.0000
20
2225.0000
0
SEQEND
0
POLYLINE
8
metal_BB
70
1
0
VERTEX
10
-2495.0000
20
2145.0000
0
VERTEX
10
-2685.0000
20
2145.0000
0
VERTEX
10
-2685.0000
20
1955.0000
0
VERTEX
10
-2495.0000
20
1955.0000
0
SEQEND
0
POLYLINE
8
M2_undercutMsk
70
1
0
VERTEX
10
-2500.0000
20
2140.0000
0
VERTEX
10
-2680.0000
20
2140.0000
0
VERTEX
10
-2680.0000
20
1960.0000
0
VERTEX
10
-2500.0000
20
1960.0000
0
SEQEND
0
POLYLINE
8
metal_BB
70
1
0
VERTEX
10
-3125.0000
20
2175.0000
0
VERTEX
10
-3375.0000
20
2175.0000
0
VERTEX
10
-3375.0000
20
1925.0000
0
VERTEX
10
-3125.0000
20
1925.0000
0
SEQEND
0
POLYLINE
8
M2_undercutMsk
70
1
0
VERTEX
10
-3130.0000
20
2170.0000
0
VERTEX
10
-3370.0000
20
2170.0000
0
VERTEX
10
-3370.0000
20
1930.0000
0
VERTEX
10
-3130.0000
20
1930.0000
0
SEQEND
0
POLYLINE
8
metal_BB
70
1
0
VERTEX
10
-3125.0000
20
2775.0000
0
VERTEX
10
-3375.0000
20
2775.0000
0
VERTEX
10
-3375.0000
20
2525.0000
0
VERTEX
10
-3125.0000
20
2525.0000
0
SEQEND
0
POLYLINE
8
M2_undercutMsk
70
1
0
VERTEX
10
-3130.0000
20
2770.0000
0
VERTEX
10
-3370.0000
20
2770.0000
0
VERTEX
10
-3370.0000
20
2530.0000
0
VERTEX
10
-3130.0000
20
2530.0000
0
SEQEND
0
POLYLINE
8
metal_BB
70
1
0
VERTEX
10
-2590.0000
20
2045.0000
0
VERTEX
10
-3250.0000
20
2045.0000
0
VERTEX
10
-3250.0000
20
2055.0000
0
VERTEX
10
-2590.0000
20
2055.0000
0
VERTEX
10
-2590.0000
20
2045.0000
0
SEQEND
0
POLYLINE
8
metal_BB
70
1
0
VERTEX
10
-2442.2139
20
2245.5168
0
VERTEX
10
-3252.2139
20
2645.5168
0
VERTEX
10
-3247.7861
20
2654.4832
0
VERTEX
10
-2437.7861
20
2254.4832
0
VERTEX
10
-2442.2139
20
2245.5168
0
SEQEND
0
POLYLINE
8
metal1_BB
70
1
0
VERTEX
10
-82.5000
20
-1676.0000
0
VERTEX
10
-92.5000
20
-1676.0000
0
VERTEX
10
-92.5000
20
-1686.0000
0
VERTEX
10
-82.5000
20
-1686.0000
0
SEQEND
0
POLYLINE
8
metal1_BB
70
1
0
VERTEX
10
-82.5000
20
-1645.0000
0
VERTEX
10
-92.5000
20
-1645.0000
0
VERTEX
10
-92.5000
20
-1655.0000
0
VERTEX
10
-82.5000
20
-1655.0000
0
SEQEND
0
POLYLINE
8
metal1_BB
70
1
0
VERTEX
10
-87.5000
20
-1686.0000
0
VERTEX
10
-105.0000
20
-1683.5000
0
VERTEX
10
-105.0000
20
-1522.5000
0
VERTEX
10
-190.0000
20
-1522.5000
0
VERTEX
10
-190.0000
20
-1147.5000
0
VERTEX
10
-62.5000
20
-1145.0000
0
VERTEX
10
-62.5000
20
-1155.0000
0
VERTEX
10
-185.0000
20
-1152.5000
0
VERTEX
10
-185.0000
20
-1517.5000
0
VERTEX
10
-100.0000
20
-1517.5000
0
VERTEX
10
-100.0000
20
-1678.5000
0
VERTEX
10
-87.5000
20
-1676.0000
0
VERTEX
10
-87.5000
20
-1686.0000
0
SEQEND
0
POLYLINE
8
metal1_BB
70
1
0
VERTEX
10
-89.9914
20
-1649.7924
0
VERTEX
10
-64.9914
20
-1349.7924
0
VERTEX
10
-60.0086
20
-1350.2076
0
VERTEX
10
-85.0086
20
-1650.2076
0
VERTEX
10
-89.9914
20
-1649.7924
0
SEQEND
0
POLYLINE
8
metal1_BB
70
1
0
VERTEX
10
32.5000
20
-1255.0000
0
VERTEX
10
-157.5000
20
-1255.0000
0
VERTEX
10
-157.5000
20
-1445.0000
0
VERTEX
10
32.5000
20
-1445.0000
0
SEQEND
0
POLYLINE
8
M2_undercutMsk
70
1
0
VERTEX
10
27.5000
20
-1260.0000
0
VERTEX
10
-152.5000
20
-1260.0000
0
VERTEX
10
-152.5000
20
-1440.0000
0
VERTEX
10
27.5000
20
-1440.0000
0
SEQEND
0
POLYLINE
8
metal2_BB
70
1
0
VERTEX
10
-85.5000
20
-1655.5000
0
VERTEX
10
-90.5000
20
-1655.5000
0
VERTEX
10
-90.5000
20
-1660.5000
0
VERTEX
10
-85.5000
20
-1660.5000
0
SEQEND
0
POLYLINE
8
metal2_BB
70
1
0
VERTEX
10
-85.5000
20
-1641.5000
0
VERTEX
10
-90.5000
20
-1641.5000
0
VERTEX
10
-90.5000
20
-1646.5000
0
VERTEX
10
-85.5000
20
-1646.5000
0
SEQEND
0
POLYLINE
8
metal2_BB
70
1
0
VERTEX
10
-88.8495
20
-1662.9273
0
VERTEX
10
-105.4248
20
-1657.9637
0
VERTEX
10
-105.0000
20
-1522.5000
0
VERTEX
10
-190.0000
20
-1522.5000
0
VERTEX
10
-190.0000
20
-1147.5000
0
VERTEX
10
-62.5000
20
-1145.0000
0
VERTEX
10
-62.5000
20
-1155.0000
0
VERTEX
10
-185.0000
20
-1152.5000
0
VERTEX
10
-185.0000
20
-1517.5000
0
VERTEX
10
-100.0000
20
-1517.5000
0
VERTEX
10
-99.5752
20
-1653.0363
0
VERTEX
10
-87.1505
20
-1653.0727
0
VERTEX
10
-88.8495
20
-1662.9273
0
SEQEND
0
POLYLINE
8
metal2_BB
70
1
0
VERTEX
10
-90.4906
20
-1643.7840
0
VERTEX
10
-64.9906
20
-1349.7840
0
VERTEX
10
-60.0094
20
-1350.2160
0
VERTEX
10
-85.5094
20
-1644.2160
0
VERTEX
10
-90.4906
20
-1643.7840
0
SEQEND
0
POLYLINE
8
metal2_BB
70
1
0
VERTEX
10
32.5000
20
-1255.0000
0
VERTEX
10
-157.5000
20
-1255.0000
0
VERTEX
10
-157.5000
20
-1445.0000
0
VERTEX
10
32.5000
20
-1445.0000
0
SEQEND
0
POLYLINE
8
M2_undercutMsk
70
1
0
VERTEX
10
27.5000
20
-1260.0000
0
VERTEX
10
-152.5000
20
-1260.0000
0
VERTEX
10
-152.5000
20
-1440.0000
0
VERTEX
10
27.5000
20
-1440.0000
0
SEQEND
0
POLYLINE
8
metal1_BB
70
1
0
VERTEX
10
-42.5000
20
-1686.0000
0
VERTEX
10
-32.5000
20
-1686.0000
0
VERTEX
10
-32.5000
20
-1676.0000
0
VERTEX
10
-42.5000
20
-1676.0000
0
SEQEND
0
POLYLINE
8
metal1_BB
70
1
0
VERTEX
10
-42.5000
20
-1655.0000
0
VERTEX
10
-32.5000
20
-1655.0000
0
VERTEX
10
-32.5000
20
-1645.0000
0
VERTEX
10
-42.5000
20
-1645.0000
0
SEQEND
0
POLYLINE
8
metal1_BB
70
1
0
VERTEX
10
-37.5000
20
-1686.0000
0
VERTEX
10
-20.0000
20
-1683.5000
0
VERTEX
10
-20.0000
20
-1522.5000
0
VERTEX
10
65.0000
20
-1522.5000
0
VERTEX
10
65.0000
20
-1147.5000
0
VERTEX
10
-62.5000
20
-1145.0000
0
VERTEX
10
-62.5000
20
-1155.0000
0
VERTEX
10
60.0000
20
-1152.5000
0
VERTEX
10
60.0000
20
-1517.5000
0
VERTEX
10
-25.0000
20
-1517.5000
0
VERTEX
10
-25.0000
20
-1678.5000
0
VERTEX
10
-37.5000
20
-1676.0000
0
VERTEX
10
-37.5000
20
-1686.0000
0
SEQEND
0
POLYLINE
8
metal1_BB
70
1
0
VERTEX
10
-35.0086
20
-1649.7924
0
VERTEX
10
-60.0086
20
-1349.7924
0
VERTEX
10
-64.9914
20
-1350.2076
0
VERTEX
10
-39.9914
20
-1650.2076
0
VERTEX
10
-35.0086
20
-1649.7924
0
SEQEND
0
POLYLINE
8
metal1_BB
70
1
0
VERTEX
10
-157.5000
20
-1445.0000
0
VERTEX
10
32.5000
20
-1445.0000
0
VERTEX
10
32.5000
20
-1255.0000
0
VERTEX
10
-157.5000
20
-1255.0000
0
SEQEND
0
POLYLINE
8
M2_undercutMsk
70
1
0
VERTEX
10
-152.5000
20
-1440.0000
0
VERTEX
10
27.5000
20
-1440.0000
0
VERTEX
10
27.5000
20
-1260.0000
0
VERTEX
10
-152.5000
20
-1260.0000
0
SEQEND
0
POLYLINE
8
metal2_BB
70
1
0
VERTEX
10
-39.5000
20
-1660.5000
0
VERTEX
10
-34.5000
20
-1660.5000
0
VERTEX
10
-34.5000
20
-1655.5000
0
VERTEX
10
-39.5000
20
-1655.5000
0
SEQEND
0
POLYLINE
8
metal2_BB
70
1
0
VERTEX
10
-39.5000
20
-1646.5000
0
VERTEX
10
-34.5000
20
-1646.5000
0
VERTEX
10
-34.5000
20
-1641.5000
0
VERTEX
10
-39.5000
20
-1641.5000
0
SEQEND
0
POLYLINE
8
metal2_BB
70
1
0
VERTEX
10
-36.1505
20
-1662.9273
0
VERTEX
10
-19.5752
20
-1657.9637
0
VERTEX
10
-20.0000
20
-1522.5000
0
VERTEX
10
65.0000
20
-1522.5000
0
VERTEX
10
65.0000
20
-1147.5000
0
VERTEX
10
-62.5000
20
-1145.0000
0
VERTEX
10
-62.5000
20
-1155.0000
0
VERTEX
10
60.0000
20
-1152.5000
0
VERTEX
10
60.0000
20
-1517.5000
0
VERTEX
10
-25.0000
20
-1517.5000
0
VERTEX
10
-25.4248
20
-1653.0363
0
VERTEX
10
-37.8495
20
-1653.0727
0
VERTEX
10
-36.1505
20
-1662.9273
0
SEQEND
0
POLYLINE
8
metal2_BB
70
1
0
VERTEX
10
-34.5094
20
-1643.7840
0
VERTEX
10
-60.0094
20
-1349.7840
0
VERTEX
10
-64.9906
20
-1350.2160
0
VERTEX
10
-39.4906
20
-1644.2160
0
VERTEX
10
-34.5094
20
-1643.7840
0
SEQEND
0
POLYLINE
8
metal2_BB
70
1
0
VERTEX
10
-157.5000
20
-1445.0000
0
VERTEX
10
32.5000
20
-1445.0000
0
VERTEX
10
32.5000
20
-1255.0000
0
VERTEX
10
-157.5000
20
-1255.0000
0
SEQEND
0
POLYLINE
8
M2_undercutMsk
70
1
0
VERTEX
10
-152.5000
20
-1440.0000
0
VERTEX
10
27.5000
20
-1440.0000
0
VERTEX
10
27.5000
20
-1260.0000
0
VERTEX
10
-152.5000
20
-1260.0000
0
SEQEND
0
POLYLINE
8
metal_BB
70
1
0
VERTEX
10
-2415.0000
20
-1125.0000
0
VERTEX
10
-2465.0000
20
-1125.0000
0
VERTEX
10
-2465.0000
20
-1175.0000
0
VERTEX
10
-2415.0000
20
-1175.0000
0
SEQEND
0
POLYLINE
8
metal_BB
70
1
0
VERTEX
10
-2495.0000
20
-1255.0000
0
VERTEX
10
-2685.0000
20
-1255.0000
0
VERTEX
10
-2685.0000
20
-1445.0000
0
VERTEX
10
-2495.0000
20
-1445.0000
0
SEQEND
0
POLYLINE
8
M2_undercutMsk
70
1
0
VERTEX
10
-2500.0000
20
-1260.0000
0
VERTEX
10
-2680.0000
20
-1260.0000
0
VERTEX
10
-2680.0000
20
-1440.0000
0
VERTEX
10
-2500.0000
20
-1440.0000
0
SEQEND
0
POLYLINE
8
metal_BB
70
1
0
VERTEX
10
-3125.0000
20
-1225.0000
0
VERTEX
10
-3375.0000
20
-1225.0000
0
VERTEX
10
-3375.0000
20
-1475.0000
0
VERTEX
10
-3125.0000
20
-1475.0000
0
SEQEND
0
POLYLINE
8
M2_undercutMsk
70
1
0
VERTEX
10
-3130.0000
20
-1230.0000
0
VERTEX
10
-3370.0000
20
-1230.0000
0
VERTEX
10
-3370.0000
20
-1470.0000
0
VERTEX
10
-3130.0000
20
-1470.0000
0
SEQEND
0
POLYLINE
8
metal_BB
70
1
0
VERTEX
10
-3125.0000
20
-625.0000
0
VERTEX
10
-3375.0000
20
-625.0000
0
VERTEX
10
-3375.0000
20
-875.0000
0
VERTEX
10
-3125.0000
20
-875.0000
0
SEQEND
0
POLYLINE
8
M2_undercutMsk
70
1
0
VERTEX
10
-3130.0000
20
-630.0000
0
VERTEX
10
-3370.0000
20
-630.0000
0
VERTEX
10
-3370.0000
20
-870.0000
0
VERTEX
10
-3130.0000
20
-870.0000
0
SEQEND
0
POLYLINE
8
metal_BB
70
1
0
VERTEX
10
-2590.0000
20
-1355.0000
0
VERTEX
10
-3250.0000
20
-1355.0000
0
VERTEX
10
-3250.0000
20
-1345.0000
0
VERTEX
10
-2590.0000
20
-1345.0000
0
VERTEX
10
-2590.0000
20
-1355.0000
0
SEQEND
0
POLYLINE
8
metal_BB
70
1
0
VERTEX
10
-2442.2139
20
-1154.4832
0
VERTEX
10
-3252.2139
20
-754.4832
0
VERTEX
10
-3247.7861
20
-745.5168
0
VERTEX
10
-2437.7861
20
-1145.5168
0
VERTEX
10
-2442.2139
20
-1154.4832
0
SEQEND
0
ENDSEC
0
EOF