0
SECTION
2
HEADER
9
$ACADVER
1
AC1009
0
ENDSEC
0
SECTION
2
ENTITIES
0
POLYLINE
8
M1_Neg
70
1
0
VERTEX
10
13.7500
20
-22.2000
0
VERTEX
10
13.7500
20
-22.3500
0
VERTEX
10
3.7500
20
-22.3500
0
VERTEX
10
3.7500
20
-23.2500
0
VERTEX
10
13.7500
20
-23.2500
0
VERTEX
10
13.7500
20
-23.4000
0
VERTEX
10
14.0500
20
-23.4000
0
VERTEX
10
14.0500
20
-22.9500
0
VERTEX
10
4.0500
20
-22.9500
0
VERTEX
10
4.0500
20
-22.6500
0
VERTEX
10
14.0500
20
-22.6500
0
VERTEX
10
14.0500
20
-22.2000
0
SEQEND
0
POLYLINE
8
M1_Neg
70
1
0
VERTEX
10
13.7500
20
-21.0000
0
VERTEX
10
13.7500
20
-21.1500
0
VERTEX
10
3.7500
20
-21.1500
0
VERTEX
10
3.7500
20
-22.0500
0
VERTEX
10
13.7500
20
-22.0500
0
VERTEX
10
13.7500
20
-22.2000
0
VERTEX
10
14.0500
20
-22.2000
0
VERTEX
10
14.0500
20
-21.7500
0
VERTEX
10
4.0500
20
-21.7500
0
VERTEX
10
4.0500
20
-21.4500
0
VERTEX
10
14.0500
20
-21.4500
0
VERTEX
10
14.0500
20
-21.0000
0
SEQEND
0
POLYLINE
8
M1_Neg
70
1
0
VERTEX
10
13.7500
20
-19.8000
0
VERTEX
10
13.7500
20
-19.9500
0
VERTEX
10
3.7500
20
-19.9500
0
VERTEX
10
3.7500
20
-20.8500
0
VERTEX
10
13.7500
20
-20.8500
0
VERTEX
10
13.7500
20
-21.0000
0
VERTEX
10
14.0500
20
-21.0000
0
VERTEX
10
14.0500
20
-20.5500
0
VERTEX
10
4.0500
20
-20.5500
0
VERTEX
10
4.0500
20
-20.2500
0
VERTEX
10
14.0500
20
-20.2500
0
VERTEX
10
14.0500
20
-19.8000
0
SEQEND
0
POLYLINE
8
M1_Neg
70
1
0
VERTEX
10
13.7500
20
-18.6000
0
VERTEX
10
13.7500
20
-18.7500
0
VERTEX
10
3.7500
20
-18.7500
0
VERTEX
10
3.7500
20
-19.6500
0
VERTEX
10
13.7500
20
-19.6500
0
VERTEX
10
13.7500
20
-19.8000
0
VERTEX
10
14.0500
20
-19.8000
0
VERTEX
10
14.0500
20
-19.3500
0
VERTEX
10
4.0500
20
-19.3500
0
VERTEX
10
4.0500
20
-19.0500
0
VERTEX
10
14.0500
20
-19.0500
0
VERTEX
10
14.0500
20
-18.6000
0
SEQEND
0
POLYLINE
8
M1_Neg
70
1
0
VERTEX
10
13.7500
20
-17.4000
0
VERTEX
10
13.7500
20
-17.5500
0
VERTEX
10
3.7500
20
-17.5500
0
VERTEX
10
3.7500
20
-18.4500
0
VERTEX
10
13.7500
20
-18.4500
0
VERTEX
10
13.7500
20
-18.6000
0
VERTEX
10
14.0500
20
-18.6000
0
VERTEX
10
14.0500
20
-18.1500
0
VERTEX
10
4.0500
20
-18.1500
0
VERTEX
10
4.0500
20
-17.8500
0
VERTEX
10
14.0500
20
-17.8500
0
VERTEX
10
14.0500
20
-17.4000
0
SEQEND
0
POLYLINE
8
M1_Neg
70
1
0
VERTEX
10
13.7500
20
-16.2000
0
VERTEX
10
13.7500
20
-16.3500
0
VERTEX
10
3.7500
20
-16.3500
0
VERTEX
10
3.7500
20
-17.2500
0
VERTEX
10
13.7500
20
-17.2500
0
VERTEX
10
13.7500
20
-17.4000
0
VERTEX
10
14.0500
20
-17.4000
0
VERTEX
10
14.0500
20
-16.9500
0
VERTEX
10
4.0500
20
-16.9500
0
VERTEX
10
4.0500
20
-16.6500
0
VERTEX
10
14.0500
20
-16.6500
0
VERTEX
10
14.0500
20
-16.2000
0
SEQEND
0
POLYLINE
8
M1_Neg
70
1
0
VERTEX
10
13.7500
20
-15.0000
0
VERTEX
10
13.7500
20
-15.1500
0
VERTEX
10
3.7500
20
-15.1500
0
VERTEX
10
3.7500
20
-16.0500
0
VERTEX
10
13.7500
20
-16.0500
0
VERTEX
10
13.7500
20
-16.2000
0
VERTEX
10
14.0500
20
-16.2000
0
VERTEX
10
14.0500
20
-15.7500
0
VERTEX
10
4.0500
20
-15.7500
0
VERTEX
10
4.0500
20
-15.4500
0
VERTEX
10
14.0500
20
-15.4500
0
VERTEX
10
14.0500
20
-15.0000
0
SEQEND
0
POLYLINE
8
M1_Neg
70
1
0
VERTEX
10
13.7500
20
-13.8000
0
VERTEX
10
13.7500
20
-13.9500
0
VERTEX
10
3.7500
20
-13.9500
0
VERTEX
10
3.7500
20
-14.8500
0
VERTEX
10
13.7500
20
-14.8500
0
VERTEX
10
13.7500
20
-15.0000
0
VERTEX
10
14.0500
20
-15.0000
0
VERTEX
10
14.0500
20
-14.5500
0
VERTEX
10
4.0500
20
-14.5500
0
VERTEX
10
4.0500
20
-14.2500
0
VERTEX
10
14.0500
20
-14.2500
0
VERTEX
10
14.0500
20
-13.8000
0
SEQEND
0
POLYLINE
8
M1_Neg
70
1
0
VERTEX
10
3.7500
20
-13.2000
0
VERTEX
10
3.7500
20
-13.6500
0
VERTEX
10
13.7500
20
-13.6500
0
VERTEX
10
13.7500
20
-13.8000
0
VERTEX
10
14.0500
20
-13.8000
0
VERTEX
10
14.0500
20
-13.3500
0
VERTEX
10
4.0500
20
-13.3500
0
VERTEX
10
4.0500
20
-13.2000
0
SEQEND
0
POLYLINE
8
metal
70
1
0
VERTEX
10
13.7500
20
-22.2000
0
VERTEX
10
13.7500
20
-22.3500
0
VERTEX
10
3.7500
20
-22.3500
0
VERTEX
10
3.7500
20
-23.2500
0
VERTEX
10
13.7500
20
-23.2500
0
VERTEX
10
13.7500
20
-23.4000
0
VERTEX
10
13.8500
20
-23.4000
0
VERTEX
10
13.8500
20
-23.1500
0
VERTEX
10
3.8500
20
-23.1500
0
VERTEX
10
3.8500
20
-22.4500
0
VERTEX
10
13.8500
20
-22.4500
0
VERTEX
10
13.8500
20
-22.2000
0
SEQEND
0
POLYLINE
8
metal
70
1
0
VERTEX
10
13.7500
20
-21.0000
0
VERTEX
10
13.7500
20
-21.1500
0
VERTEX
10
3.7500
20
-21.1500
0
VERTEX
10
3.7500
20
-22.0500
0
VERTEX
10
13.7500
20
-22.0500
0
VERTEX
10
13.7500
20
-22.2000
0
VERTEX
10
13.8500
20
-22.2000
0
VERTEX
10
13.8500
20
-21.9500
0
VERTEX
10
3.8500
20
-21.9500
0
VERTEX
10
3.8500
20
-21.2500
0
VERTEX
10
13.8500
20
-21.2500
0
VERTEX
10
13.8500
20
-21.0000
0
SEQEND
0
POLYLINE
8
metal
70
1
0
VERTEX
10
13.7500
20
-19.8000
0
VERTEX
10
13.7500
20
-19.9500
0
VERTEX
10
3.7500
20
-19.9500
0
VERTEX
10
3.7500
20
-20.8500
0
VERTEX
10
13.7500
20
-20.8500
0
VERTEX
10
13.7500
20
-21.0000
0
VERTEX
10
13.8500
20
-21.0000
0
VERTEX
10
13.8500
20
-20.7500
0
VERTEX
10
3.8500
20
-20.7500
0
VERTEX
10
3.8500
20
-20.0500
0
VERTEX
10
13.8500
20
-20.0500
0
VERTEX
10
13.8500
20
-19.8000
0
SEQEND
0
POLYLINE
8
metal
70
1
0
VERTEX
10
13.7500
20
-18.6000
0
VERTEX
10
13.7500
20
-18.7500
0
VERTEX
10
3.7500
20
-18.7500
0
VERTEX
10
3.7500
20
-19.6500
0
VERTEX
10
13.7500
20
-19.6500
0
VERTEX
10
13.7500
20
-19.8000
0
VERTEX
10
13.8500
20
-19.8000
0
VERTEX
10
13.8500
20
-19.5500
0
VERTEX
10
3.8500
20
-19.5500
0
VERTEX
10
3.8500
20
-18.8500
0
VERTEX
10
13.8500
20
-18.8500
0
VERTEX
10
13.8500
20
-18.6000
0
SEQEND
0
POLYLINE
8
metal
70
1
0
VERTEX
10
13.7500
20
-17.4000
0
VERTEX
10
13.7500
20
-17.5500
0
VERTEX
10
3.7500
20
-17.5500
0
VERTEX
10
3.7500
20
-18.4500
0
VERTEX
10
13.7500
20
-18.4500
0
VERTEX
10
13.7500
20
-18.6000
0
VERTEX
10
13.8500
20
-18.6000
0
VERTEX
10
13.8500
20
-18.3500
0
VERTEX
10
3.8500
20
-18.3500
0
VERTEX
10
3.8500
20
-17.6500
0
VERTEX
10
13.8500
20
-17.6500
0
VERTEX
10
13.8500
20
-17.4000
0
SEQEND
0
POLYLINE
8
metal
70
1
0
VERTEX
10
13.7500
20
-16.2000
0
VERTEX
10
13.7500
20
-16.3500
0
VERTEX
10
3.7500
20
-16.3500
0
VERTEX
10
3.7500
20
-17.2500
0
VERTEX
10
13.7500
20
-17.2500
0
VERTEX
10
13.7500
20
-17.4000
0
VERTEX
10
13.8500
20
-17.4000
0
VERTEX
10
13.8500
20
-17.1500
0
VERTEX
10
3.8500
20
-17.1500
0
VERTEX
10
3.8500
20
-16.4500
0
VERTEX
10
13.8500
20
-16.4500
0
VERTEX
10
13.8500
20
-16.2000
0
SEQEND
0
POLYLINE
8
metal
70
1
0
VERTEX
10
13.7500
20
-15.0000
0
VERTEX
10
13.7500
20
-15.1500
0
VERTEX
10
3.7500
20
-15.1500
0
VERTEX
10
3.7500
20
-16.0500
0
VERTEX
10
13.7500
20
-16.0500
0
VERTEX
10
13.7500
20
-16.2000
0
VERTEX
10
13.8500
20
-16.2000
0
VERTEX
10
13.8500
20
-15.9500
0
VERTEX
10
3.8500
20
-15.9500
0
VERTEX
10
3.8500
20
-15.2500
0
VERTEX
10
13.8500
20
-15.2500
0
VERTEX
10
13.8500
20
-15.0000
0
SEQEND
0
POLYLINE
8
metal
70
1
0
VERTEX
10
13.7500
20
-13.8000
0
VERTEX
10
13.7500
20
-13.9500
0
VERTEX
10
3.7500
20
-13.9500
0
VERTEX
10
3.7500
20
-14.8500
0
VERTEX
10
13.7500
20
-14.8500
0
VERTEX
10
13.7500
20
-15.0000
0
VERTEX
10
13.8500
20
-15.0000
0
VERTEX
10
13.8500
20
-14.7500
0
VERTEX
10
3.8500
20
-14.7500
0
VERTEX
10
3.8500
20
-14.0500
0
VERTEX
10
13.8500
20
-14.0500
0
VERTEX
10
13.8500
20
-13.8000
0
SEQEND
0
POLYLINE
8
metal
70
1
0
VERTEX
10
3.7500
20
-13.2000
0
VERTEX
10
3.7500
20
-13.6500
0
VERTEX
10
13.7500
20
-13.6500
0
VERTEX
10
13.7500
20
-13.8000
0
VERTEX
10
13.8500
20
-13.8000
0
VERTEX
10
13.8500
20
-13.5500
0
VERTEX
10
3.8500
20
-13.5500
0
VERTEX
10
3.8500
20
-13.2000
0
SEQEND
0
POLYLINE
8
metal
70
1
0
VERTEX
10
13.9500
20
-22.2000
0
VERTEX
10
13.9500
20
-22.5500
0
VERTEX
10
3.9500
20
-22.5500
0
VERTEX
10
3.9500
20
-23.0500
0
VERTEX
10
13.9500
20
-23.0500
0
VERTEX
10
13.9500
20
-23.4000
0
VERTEX
10
14.0500
20
-23.4000
0
VERTEX
10
14.0500
20
-22.9500
0
VERTEX
10
4.0500
20
-22.9500
0
VERTEX
10
4.0500
20
-22.6500
0
VERTEX
10
14.0500
20
-22.6500
0
VERTEX
10
14.0500
20
-22.2000
0
SEQEND
0
POLYLINE
8
metal
70
1
0
VERTEX
10
13.9500
20
-21.0000
0
VERTEX
10
13.9500
20
-21.3500
0
VERTEX
10
3.9500
20
-21.3500
0
VERTEX
10
3.9500
20
-21.8500
0
VERTEX
10
13.9500
20
-21.8500
0
VERTEX
10
13.9500
20
-22.2000
0
VERTEX
10
14.0500
20
-22.2000
0
VERTEX
10
14.0500
20
-21.7500
0
VERTEX
10
4.0500
20
-21.7500
0
VERTEX
10
4.0500
20
-21.4500
0
VERTEX
10
14.0500
20
-21.4500
0
VERTEX
10
14.0500
20
-21.0000
0
SEQEND
0
POLYLINE
8
metal
70
1
0
VERTEX
10
13.9500
20
-19.8000
0
VERTEX
10
13.9500
20
-20.1500
0
VERTEX
10
3.9500
20
-20.1500
0
VERTEX
10
3.9500
20
-20.6500
0
VERTEX
10
13.9500
20
-20.6500
0
VERTEX
10
13.9500
20
-21.0000
0
VERTEX
10
14.0500
20
-21.0000
0
VERTEX
10
14.0500
20
-20.5500
0
VERTEX
10
4.0500
20
-20.5500
0
VERTEX
10
4.0500
20
-20.2500
0
VERTEX
10
14.0500
20
-20.2500
0
VERTEX
10
14.0500
20
-19.8000
0
SEQEND
0
POLYLINE
8
metal
70
1
0
VERTEX
10
13.9500
20
-18.6000
0
VERTEX
10
13.9500
20
-18.9500
0
VERTEX
10
3.9500
20
-18.9500
0
VERTEX
10
3.9500
20
-19.4500
0
VERTEX
10
13.9500
20
-19.4500
0
VERTEX
10
13.9500
20
-19.8000
0
VERTEX
10
14.0500
20
-19.8000
0
VERTEX
10
14.0500
20
-19.3500
0
VERTEX
10
4.0500
20
-19.3500
0
VERTEX
10
4.0500
20
-19.0500
0
VERTEX
10
14.0500
20
-19.0500
0
VERTEX
10
14.0500
20
-18.6000
0
SEQEND
0
POLYLINE
8
metal
70
1
0
VERTEX
10
13.9500
20
-17.4000
0
VERTEX
10
13.9500
20
-17.7500
0
VERTEX
10
3.9500
20
-17.7500
0
VERTEX
10
3.9500
20
-18.2500
0
VERTEX
10
13.9500
20
-18.2500
0
VERTEX
10
13.9500
20
-18.6000
0
VERTEX
10
14.0500
20
-18.6000
0
VERTEX
10
14.0500
20
-18.1500
0
VERTEX
10
4.0500
20
-18.1500
0
VERTEX
10
4.0500
20
-17.8500
0
VERTEX
10
14.0500
20
-17.8500
0
VERTEX
10
14.0500
20
-17.4000
0
SEQEND
0
POLYLINE
8
metal
70
1
0
VERTEX
10
13.9500
20
-16.2000
0
VERTEX
10
13.9500
20
-16.5500
0
VERTEX
10
3.9500
20
-16.5500
0
VERTEX
10
3.9500
20
-17.0500
0
VERTEX
10
13.9500
20
-17.0500
0
VERTEX
10
13.9500
20
-17.4000
0
VERTEX
10
14.0500
20
-17.4000
0
VERTEX
10
14.0500
20
-16.9500
0
VERTEX
10
4.0500
20
-16.9500
0
VERTEX
10
4.0500
20
-16.6500
0
VERTEX
10
14.0500
20
-16.6500
0
VERTEX
10
14.0500
20
-16.2000
0
SEQEND
0
POLYLINE
8
metal
70
1
0
VERTEX
10
13.9500
20
-15.0000
0
VERTEX
10
13.9500
20
-15.3500
0
VERTEX
10
3.9500
20
-15.3500
0
VERTEX
10
3.9500
20
-15.8500
0
VERTEX
10
13.9500
20
-15.8500
0
VERTEX
10
13.9500
20
-16.2000
0
VERTEX
10
14.0500
20
-16.2000
0
VERTEX
10
14.0500
20
-15.7500
0
VERTEX
10
4.0500
20
-15.7500
0
VERTEX
10
4.0500
20
-15.4500
0
VERTEX
10
14.0500
20
-15.4500
0
VERTEX
10
14.0500
20
-15.0000
0
SEQEND
0
POLYLINE
8
metal
70
1
0
VERTEX
10
13.9500
20
-13.8000
0
VERTEX
10
13.9500
20
-14.1500
0
VERTEX
10
3.9500
20
-14.1500
0
VERTEX
10
3.9500
20
-14.6500
0
VERTEX
10
13.9500
20
-14.6500
0
VERTEX
10
13.9500
20
-15.0000
0
VERTEX
10
14.0500
20
-15.0000
0
VERTEX
10
14.0500
20
-14.5500
0
VERTEX
10
4.0500
20
-14.5500
0
VERTEX
10
4.0500
20
-14.2500
0
VERTEX
10
14.0500
20
-14.2500
0
VERTEX
10
14.0500
20
-13.8000
0
SEQEND
0
POLYLINE
8
metal
70
1
0
VERTEX
10
3.9500
20
-13.2000
0
VERTEX
10
3.9500
20
-13.4500
0
VERTEX
10
13.9500
20
-13.4500
0
VERTEX
10
13.9500
20
-13.8000
0
VERTEX
10
14.0500
20
-13.8000
0
VERTEX
10
14.0500
20
-13.3500
0
VERTEX
10
4.0500
20
-13.3500
0
VERTEX
10
4.0500
20
-13.2000
0
SEQEND
0
POLYLINE
8
M1_Neg
70
1
0
VERTEX
10
13.9311
20
-23.2189
0
VERTEX
10
22.4163
20
-23.2189
0
VERTEX
10
26.6590
20
-27.4616
0
VERTEX
10
17.9616
20
-36.1590
0
VERTEX
10
13.7189
20
-31.9163
0
VERTEX
10
13.7189
20
-23.4311
0
SEQEND
0
POLYLINE
8
cure
70
1
0
VERTEX
10
3.1000
20
-25.3000
0
VERTEX
10
14.7000
20
-25.3000
0
VERTEX
10
14.7000
20
-11.3000
0
VERTEX
10
3.1000
20
-11.3000
0
SEQEND
0
POLYLINE
8
M2_undercutMsk
70
1
0
VERTEX
10
0.1000
20
-25.3000
0
VERTEX
10
17.7000
20
-25.3000
0
VERTEX
10
17.7000
20
-11.3000
0
VERTEX
10
0.1000
20
-11.3000
0
SEQEND
0
CIRCLE
8
M1_LD
10
20.2640
20
-29.7640
40
7.5000
0
SEQEND
0
POLYLINE
8
metal
70
1
0
VERTEX
10
13.7500
20
-23.7000
0
VERTEX
10
13.7500
20
-23.4000
0
VERTEX
10
13.8500
20
-23.4000
0
VERTEX
10
13.8500
20
-23.5500
0
VERTEX
10
18.2500
20
-36.7500
0
VERTEX
10
18.2500
20
-37.0500
0
SEQEND
0
POLYLINE
8
metal
70
1
0
VERTEX
10
16.2500
20
-38.9000
0
VERTEX
10
20.2500
20
-38.9000
0
VERTEX
10
20.2500
20
-34.9000
0
VERTEX
10
16.2500
20
-34.9000
0
SEQEND
0
POLYLINE
8
metal_BB
70
1
0
VERTEX
10
16.2500
20
-38.9000
0
VERTEX
10
20.2500
20
-38.9000
0
VERTEX
10
20.2500
20
-34.9000
0
VERTEX
10
16.2500
20
-34.9000
0
SEQEND
0
POLYLINE
8
metal
70
1
0
VERTEX
10
13.9500
20
-23.2500
0
VERTEX
10
13.9500
20
-23.4000
0
VERTEX
10
14.0500
20
-23.4000
0
VERTEX
10
27.4500
20
-28.0500
0
VERTEX
10
27.4500
20
-27.7500
0
SEQEND
0
POLYLINE
8
metal
70
1
0
VERTEX
10
25.4500
20
-29.9000
0
VERTEX
10
29.4500
20
-29.9000
0
VERTEX
10
29.4500
20
-25.9000
0
VERTEX
10
25.4500
20
-25.9000
0
SEQEND
0
POLYLINE
8
metal_BB
70
1
0
VERTEX
10
25.4500
20
-29.9000
0
VERTEX
10
29.4500
20
-29.9000
0
VERTEX
10
29.4500
20
-25.9000
0
VERTEX
10
25.4500
20
-25.9000
0
SEQEND
0
POLYLINE
8
M1_Pos_holes
70
1
0
VERTEX
10
15.0314
20
-35.1380
0
VERTEX
10
15.4978
20
-34.5302
0
VERTEX
10
14.8899
20
-34.9966
0
VERTEX
10
14.4236
20
-35.6044
0
SEQEND
0
POLYLINE
8
M1_Pos_holes
70
1
0
VERTEX
10
15.4776
20
-35.5389
0
VERTEX
10
15.8939
20
-34.8958
0
VERTEX
10
15.3253
20
-35.4093
0
VERTEX
10
14.9090
20
-36.0524
0
SEQEND
0
POLYLINE
8
M1_Pos_holes
70
1
0
VERTEX
10
15.9544
20
-35.9030
0
VERTEX
10
16.3180
20
-35.2286
0
VERTEX
10
15.7922
20
-35.7859
0
VERTEX
10
15.4286
20
-36.4602
0
SEQEND
0
POLYLINE
8
M1_Pos_holes
70
1
0
VERTEX
10
16.4588
20
-36.2277
0
VERTEX
10
16.7673
20
-35.5265
0
VERTEX
10
16.2878
20
-36.1240
0
VERTEX
10
15.9792
20
-36.8252
0
SEQEND
0
POLYLINE
8
M1_Pos_holes
70
1
0
VERTEX
10
16.9875
20
-36.5112
0
VERTEX
10
17.2390
20
-35.7875
0
VERTEX
10
16.8088
20
-36.4214
0
VERTEX
10
16.5572
20
-37.1451
0
SEQEND
0
POLYLINE
8
M1_Pos_holes
70
1
0
VERTEX
10
17.5372
20
-36.7514
0
VERTEX
10
17.7300
20
-36.0100
0
VERTEX
10
17.3518
20
-36.6762
0
VERTEX
10
17.1590
20
-37.4177
0
SEQEND
0
POLYLINE
8
M1_Pos_holes
70
1
0
VERTEX
10
18.1043
20
-36.9470
0
VERTEX
10
18.2373
20
-36.1925
0
VERTEX
10
17.9135
20
-36.8868
0
VERTEX
10
17.7805
20
-37.6413
0
SEQEND
0
POLYLINE
8
M1_Pos_holes
70
1
0
VERTEX
10
18.6852
20
-37.0966
0
VERTEX
10
18.7575
20
-36.3339
0
VERTEX
10
18.4903
20
-37.0519
0
VERTEX
10
18.4180
20
-37.8146
0
SEQEND
0
POLYLINE
8
M1_Pos_holes
70
1
0
VERTEX
10
19.2763
20
-37.1993
0
VERTEX
10
19.2874
20
-36.4333
0
VERTEX
10
19.0784
20
-37.1703
0
VERTEX
10
19.0673
20
-37.9364
0
SEQEND
0
POLYLINE
8
M1_Pos_holes
70
1
0
VERTEX
10
19.8736
20
-37.2545
0
VERTEX
10
19.8235
20
-36.4900
0
VERTEX
10
19.6740
20
-37.2414
0
VERTEX
10
19.7242
20
-38.0059
0
SEQEND
0
POLYLINE
8
M1_Pos_holes
70
1
0
VERTEX
10
20.4735
20
-37.2617
0
VERTEX
10
20.3624
20
-36.5037
0
VERTEX
10
20.2735
20
-37.2646
0
VERTEX
10
20.3846
20
-38.0227
0
SEQEND
0
POLYLINE
8
M1_Pos_holes
70
1
0
VERTEX
10
21.0720
20
-37.2210
0
VERTEX
10
20.9007
20
-36.4742
0
VERTEX
10
20.8729
20
-37.2399
0
VERTEX
10
21.0442
20
-37.9866
0
SEQEND
0
POLYLINE
8
M1_Pos_holes
70
1
0
VERTEX
10
21.6653
20
-37.1326
0
VERTEX
10
21.4349
20
-36.4019
0
VERTEX
10
21.4684
20
-37.1673
0
VERTEX
10
21.6988
20
-37.8980
0
SEQEND
0
POLYLINE
8
M1_Pos_holes
70
1
0
VERTEX
10
22.2497
20
-36.9970
0
VERTEX
10
21.9616
20
-36.2871
0
VERTEX
10
22.0561
20
-37.0474
0
VERTEX
10
22.3442
20
-37.7573
0
SEQEND
0
POLYLINE
8
M1_Pos_holes
70
1
0
VERTEX
10
22.8214
20
-36.8152
0
VERTEX
10
22.4775
20
-36.1306
0
VERTEX
10
22.6325
20
-36.8809
0
VERTEX
10
22.9763
20
-37.5655
0
SEQEND
0
POLYLINE
8
M1_Pos_holes
70
1
0
VERTEX
10
23.3767
20
-36.5883
0
VERTEX
10
22.9792
20
-35.9333
0
VERTEX
10
23.1936
20
-36.6688
0
VERTEX
10
23.5911
20
-37.3238
0
SEQEND
0
POLYLINE
8
M1_Pos_holes
70
1
0
VERTEX
10
23.9121
20
-36.3177
0
VERTEX
10
23.4635
20
-35.6966
0
VERTEX
10
23.7361
20
-36.4126
0
VERTEX
10
24.1846
20
-37.0337
0
SEQEND
0
POLYLINE
8
M1_Pos_holes
70
1
0
VERTEX
10
24.4242
20
-36.0052
0
VERTEX
10
23.9274
20
-35.4219
0
VERTEX
10
24.2563
20
-36.1139
0
VERTEX
10
24.7530
20
-36.6971
0
SEQEND
0
POLYLINE
8
M1_Pos_holes
70
1
0
VERTEX
10
24.9096
20
-35.6528
0
VERTEX
10
24.3678
20
-35.1111
0
VERTEX
10
24.7510
20
-35.7745
0
VERTEX
10
25.2927
20
-36.3162
0
SEQEND
0
POLYLINE
8
M1_Pos_holes
70
1
0
VERTEX
10
25.3654
20
-35.2627
0
VERTEX
10
24.7820
20
-34.7660
0
VERTEX
10
25.2169
20
-35.3967
0
VERTEX
10
25.8003
20
-35.8934
0
SEQEND
0
POLYLINE
8
M1_Pos_holes
70
1
0
VERTEX
10
25.7885
20
-34.8374
0
VERTEX
10
25.1673
20
-34.3890
0
VERTEX
10
25.6512
20
-34.9829
0
VERTEX
10
26.2724
20
-35.4313
0
SEQEND
0
POLYLINE
8
M1_Pos_holes
70
1
0
VERTEX
10
26.1762
20
-34.3797
0
VERTEX
10
25.5212
20
-33.9823
0
VERTEX
10
26.0511
20
-34.5357
0
VERTEX
10
26.7061
20
-34.9330
0
SEQEND
0
POLYLINE
8
M1_Pos_holes
70
1
0
VERTEX
10
26.5262
20
-33.8924
0
VERTEX
10
25.8415
20
-33.5487
0
VERTEX
10
26.4139
20
-34.0579
0
VERTEX
10
27.0986
20
-34.4017
0
SEQEND
0
POLYLINE
8
M1_Pos_holes
70
1
0
VERTEX
10
26.8361
20
-33.3788
0
VERTEX
10
26.1261
20
-33.0909
0
VERTEX
10
26.7374
20
-33.5527
0
VERTEX
10
27.4473
20
-33.8407
0
SEQEND
0
POLYLINE
8
M1_Pos_holes
70
1
0
VERTEX
10
27.1040
20
-32.8420
0
VERTEX
10
26.3733
20
-32.6117
0
VERTEX
10
27.0195
20
-33.0233
0
VERTEX
10
27.7502
20
-33.2536
0
SEQEND
0
POLYLINE
8
M1_Pos_holes
70
1
0
VERTEX
10
27.3281
20
-32.2856
0
VERTEX
10
26.5813
20
-32.1144
0
VERTEX
10
27.2583
20
-32.4730
0
VERTEX
10
28.0051
20
-32.6442
0
SEQEND
0
POLYLINE
8
M1_Pos_holes
70
1
0
VERTEX
10
27.5070
20
-31.7130
0
VERTEX
10
26.7489
20
-31.6021
0
VERTEX
10
27.4524
20
-31.9054
0
VERTEX
10
28.2105
20
-32.0163
0
SEQEND
0
POLYLINE
8
M1_Pos_holes
70
1
0
VERTEX
10
27.6396
20
-31.1279
0
VERTEX
10
26.8751
20
-31.0779
0
VERTEX
10
27.6006
20
-31.3241
0
VERTEX
10
28.3651
20
-31.3741
0
SEQEND
0
POLYLINE
8
M1_Pos_holes
70
1
0
VERTEX
10
27.7250
20
-30.5341
0
VERTEX
10
26.9589
20
-30.5454
0
VERTEX
10
27.7018
20
-30.7328
0
VERTEX
10
28.4678
20
-30.7215
0
SEQEND
0
POLYLINE
8
M1_Pos_holes
70
1
0
VERTEX
10
27.7627
20
-29.9354
0
VERTEX
10
27.0000
20
-30.0079
0
VERTEX
10
27.7554
20
-30.1353
0
VERTEX
10
28.5181
20
-30.0628
0
SEQEND
0
POLYLINE
8
M1_Pos_holes
70
1
0
VERTEX
10
27.7524
20
-29.3356
0
VERTEX
10
26.9979
20
-29.4688
0
VERTEX
10
27.7611
20
-29.5354
0
VERTEX
10
28.5156
20
-29.4023
0
SEQEND
0
POLYLINE
8
M1_Pos_holes
70
1
0
VERTEX
10
27.6942
20
-28.7386
0
VERTEX
10
26.9528
20
-28.9316
0
VERTEX
10
27.7189
20
-28.9370
0
VERTEX
10
28.4603
20
-28.7440
0
SEQEND
0
POLYLINE
8
M1_Pos_holes
70
1
0
VERTEX
10
27.5885
20
-28.1480
0
VERTEX
10
26.8649
20
-28.3997
0
VERTEX
10
27.6290
20
-28.3439
0
VERTEX
10
28.3526
20
-28.0922
0
SEQEND
0
POLYLINE
8
M1_Pos_holes
70
1
0
VERTEX
10
27.4359
20
-27.5679
0
VERTEX
10
26.7347
20
-27.8766
0
VERTEX
10
27.4919
20
-27.7599
0
VERTEX
10
28.1931
20
-27.4512
0
SEQEND
0
POLYLINE
8
M1_Pos_holes
70
1
0
VERTEX
10
27.2375
20
-27.0018
0
VERTEX
10
26.5632
20
-27.3655
0
VERTEX
10
27.3087
20
-27.1887
0
VERTEX
10
27.9829
20
-26.8249
0
SEQEND
0
POLYLINE
8
M1_Pos_holes
70
1
0
VERTEX
10
26.9945
20
-26.4533
0
VERTEX
10
26.3514
20
-26.8698
0
VERTEX
10
27.0803
20
-26.6339
0
VERTEX
10
27.7234
20
-26.2175
0
SEQEND
0
POLYLINE
8
M1_Pos_holes
70
1
0
VERTEX
10
26.7084
20
-25.9260
0
VERTEX
10
26.1006
20
-26.3925
0
VERTEX
10
26.8084
20
-26.0992
0
VERTEX
10
27.4161
20
-25.6327
0
SEQEND
0
POLYLINE
8
M1_Pos_holes
70
1
0
VERTEX
10
26.3810
20
-25.4233
0
VERTEX
10
25.8125
20
-25.9369
0
VERTEX
10
26.4946
20
-25.5879
0
VERTEX
10
27.0631
20
-25.0743
0
SEQEND
0
POLYLINE
8
M1_Pos_holes
70
1
0
VERTEX
10
26.0146
20
-24.9483
0
VERTEX
10
25.4890
20
-25.5057
0
VERTEX
10
26.1409
20
-25.1034
0
VERTEX
10
26.6666
20
-24.5460
0
SEQEND
0
POLYLINE
8
M1_Pos_holes
70
1
0
VERTEX
10
25.6114
20
-24.5042
0
VERTEX
10
25.1320
20
-25.1018
0
VERTEX
10
25.7497
20
-24.6486
0
VERTEX
10
26.2291
20
-24.0510
0
SEQEND
0
POLYLINE
8
M1_Neg
70
1
0
VERTEX
10
-13.7500
20
-22.2000
0
VERTEX
10
-13.7500
20
-22.3500
0
VERTEX
10
-3.7500
20
-22.3500
0
VERTEX
10
-3.7500
20
-23.2500
0
VERTEX
10
-13.7500
20
-23.2500
0
VERTEX
10
-13.7500
20
-23.4000
0
VERTEX
10
-14.0500
20
-23.4000
0
VERTEX
10
-14.0500
20
-22.9500
0
VERTEX
10
-4.0500
20
-22.9500
0
VERTEX
10
-4.0500
20
-22.6500
0
VERTEX
10
-14.0500
20
-22.6500
0
VERTEX
10
-14.0500
20
-22.2000
0
SEQEND
0
POLYLINE
8
M1_Neg
70
1
0
VERTEX
10
-13.7500
20
-21.0000
0
VERTEX
10
-13.7500
20
-21.1500
0
VERTEX
10
-3.7500
20
-21.1500
0
VERTEX
10
-3.7500
20
-22.0500
0
VERTEX
10
-13.7500
20
-22.0500
0
VERTEX
10
-13.7500
20
-22.2000
0
VERTEX
10
-14.0500
20
-22.2000
0
VERTEX
10
-14.0500
20
-21.7500
0
VERTEX
10
-4.0500
20
-21.7500
0
VERTEX
10
-4.0500
20
-21.4500
0
VERTEX
10
-14.0500
20
-21.4500
0
VERTEX
10
-14.0500
20
-21.0000
0
SEQEND
0
POLYLINE
8
M1_Neg
70
1
0
VERTEX
10
-13.7500
20
-19.8000
0
VERTEX
10
-13.7500
20
-19.9500
0
VERTEX
10
-3.7500
20
-19.9500
0
VERTEX
10
-3.7500
20
-20.8500
0
VERTEX
10
-13.7500
20
-20.8500
0
VERTEX
10
-13.7500
20
-21.0000
0
VERTEX
10
-14.0500
20
-21.0000
0
VERTEX
10
-14.0500
20
-20.5500
0
VERTEX
10
-4.0500
20
-20.5500
0
VERTEX
10
-4.0500
20
-20.2500
0
VERTEX
10
-14.0500
20
-20.2500
0
VERTEX
10
-14.0500
20
-19.8000
0
SEQEND
0
POLYLINE
8
M1_Neg
70
1
0
VERTEX
10
-13.7500
20
-18.6000
0
VERTEX
10
-13.7500
20
-18.7500
0
VERTEX
10
-3.7500
20
-18.7500
0
VERTEX
10
-3.7500
20
-19.6500
0
VERTEX
10
-13.7500
20
-19.6500
0
VERTEX
10
-13.7500
20
-19.8000
0
VERTEX
10
-14.0500
20
-19.8000
0
VERTEX
10
-14.0500
20
-19.3500
0
VERTEX
10
-4.0500
20
-19.3500
0
VERTEX
10
-4.0500
20
-19.0500
0
VERTEX
10
-14.0500
20
-19.0500
0
VERTEX
10
-14.0500
20
-18.6000
0
SEQEND
0
POLYLINE
8
M1_Neg
70
1
0
VERTEX
10
-13.7500
20
-17.4000
0
VERTEX
10
-13.7500
20
-17.5500
0
VERTEX
10
-3.7500
20
-17.5500
0
VERTEX
10
-3.7500
20
-18.4500
0
VERTEX
10
-13.7500
20
-18.4500
0
VERTEX
10
-13.7500
20
-18.6000
0
VERTEX
10
-14.0500
20
-18.6000
0
VERTEX
10
-14.0500
20
-18.1500
0
VERTEX
10
-4.0500
20
-18.1500
0
VERTEX
10
-4.0500
20
-17.8500
0
VERTEX
10
-14.0500
20
-17.8500
0
VERTEX
10
-14.0500
20
-17.4000
0
SEQEND
0
POLYLINE
8
M1_Neg
70
1
0
VERTEX
10
-13.7500
20
-16.2000
0
VERTEX
10
-13.7500
20
-16.3500
0
VERTEX
10
-3.7500
20
-16.3500
0
VERTEX
10
-3.7500
20
-17.2500
0
VERTEX
10
-13.7500
20
-17.2500
0
VERTEX
10
-13.7500
20
-17.4000
0
VERTEX
10
-14.0500
20
-17.4000
0
VERTEX
10
-14.0500
20
-16.9500
0
VERTEX
10
-4.0500
20
-16.9500
0
VERTEX
10
-4.0500
20
-16.6500
0
VERTEX
10
-14.0500
20
-16.6500
0
VERTEX
10
-14.0500
20
-16.2000
0
SEQEND
0
POLYLINE
8
M1_Neg
70
1
0
VERTEX
10
-13.7500
20
-15.0000
0
VERTEX
10
-13.7500
20
-15.1500
0
VERTEX
10
-3.7500
20
-15.1500
0
VERTEX
10
-3.7500
20
-16.0500
0
VERTEX
10
-13.7500
20
-16.0500
0
VERTEX
10
-13.7500
20
-16.2000
0
VERTEX
10
-14.0500
20
-16.2000
0
VERTEX
10
-14.0500
20
-15.7500
0
VERTEX
10
-4.0500
20
-15.7500
0
VERTEX
10
-4.0500
20
-15.4500
0
VERTEX
10
-14.0500
20
-15.4500
0
VERTEX
10
-14.0500
20
-15.0000
0
SEQEND
0
POLYLINE
8
M1_Neg
70
1
0
VERTEX
10
-13.7500
20
-13.8000
0
VERTEX
10
-13.7500
20
-13.9500
0
VERTEX
10
-3.7500
20
-13.9500
0
VERTEX
10
-3.7500
20
-14.8500
0
VERTEX
10
-13.7500
20
-14.8500
0
VERTEX
10
-13.7500
20
-15.0000
0
VERTEX
10
-14.0500
20
-15.0000
0
VERTEX
10
-14.0500
20
-14.5500
0
VERTEX
10
-4.0500
20
-14.5500
0
VERTEX
10
-4.0500
20
-14.2500
0
VERTEX
10
-14.0500
20
-14.2500
0
VERTEX
10
-14.0500
20
-13.8000
0
SEQEND
0
POLYLINE
8
M1_Neg
70
1
0
VERTEX
10
-3.7500
20
-13.2000
0
VERTEX
10
-3.7500
20
-13.6500
0
VERTEX
10
-13.7500
20
-13.6500
0
VERTEX
10
-13.7500
20
-13.8000
0
VERTEX
10
-14.0500
20
-13.8000
0
VERTEX
10
-14.0500
20
-13.3500
0
VERTEX
10
-4.0500
20
-13.3500
0
VERTEX
10
-4.0500
20
-13.2000
0
SEQEND
0
POLYLINE
8
metal
70
1
0
VERTEX
10
-13.7500
20
-22.2000
0
VERTEX
10
-13.7500
20
-22.3500
0
VERTEX
10
-3.7500
20
-22.3500
0
VERTEX
10
-3.7500
20
-23.2500
0
VERTEX
10
-13.7500
20
-23.2500
0
VERTEX
10
-13.7500
20
-23.4000
0
VERTEX
10
-13.8500
20
-23.4000
0
VERTEX
10
-13.8500
20
-23.1500
0
VERTEX
10
-3.8500
20
-23.1500
0
VERTEX
10
-3.8500
20
-22.4500
0
VERTEX
10
-13.8500
20
-22.4500
0
VERTEX
10
-13.8500
20
-22.2000
0
SEQEND
0
POLYLINE
8
metal
70
1
0
VERTEX
10
-13.7500
20
-21.0000
0
VERTEX
10
-13.7500
20
-21.1500
0
VERTEX
10
-3.7500
20
-21.1500
0
VERTEX
10
-3.7500
20
-22.0500
0
VERTEX
10
-13.7500
20
-22.0500
0
VERTEX
10
-13.7500
20
-22.2000
0
VERTEX
10
-13.8500
20
-22.2000
0
VERTEX
10
-13.8500
20
-21.9500
0
VERTEX
10
-3.8500
20
-21.9500
0
VERTEX
10
-3.8500
20
-21.2500
0
VERTEX
10
-13.8500
20
-21.2500
0
VERTEX
10
-13.8500
20
-21.0000
0
SEQEND
0
POLYLINE
8
metal
70
1
0
VERTEX
10
-13.7500
20
-19.8000
0
VERTEX
10
-13.7500
20
-19.9500
0
VERTEX
10
-3.7500
20
-19.9500
0
VERTEX
10
-3.7500
20
-20.8500
0
VERTEX
10
-13.7500
20
-20.8500
0
VERTEX
10
-13.7500
20
-21.0000
0
VERTEX
10
-13.8500
20
-21.0000
0
VERTEX
10
-13.8500
20
-20.7500
0
VERTEX
10
-3.8500
20
-20.7500
0
VERTEX
10
-3.8500
20
-20.0500
0
VERTEX
10
-13.8500
20
-20.0500
0
VERTEX
10
-13.8500
20
-19.8000
0
SEQEND
0
POLYLINE
8
metal
70
1
0
VERTEX
10
-13.7500
20
-18.6000
0
VERTEX
10
-13.7500
20
-18.7500
0
VERTEX
10
-3.7500
20
-18.7500
0
VERTEX
10
-3.7500
20
-19.6500
0
VERTEX
10
-13.7500
20
-19.6500
0
VERTEX
10
-13.7500
20
-19.8000
0
VERTEX
10
-13.8500
20
-19.8000
0
VERTEX
10
-13.8500
20
-19.5500
0
VERTEX
10
-3.8500
20
-19.5500
0
VERTEX
10
-3.8500
20
-18.8500
0
VERTEX
10
-13.8500
20
-18.8500
0
VERTEX
10
-13.8500
20
-18.6000
0
SEQEND
0
POLYLINE
8
metal
70
1
0
VERTEX
10
-13.7500
20
-17.4000
0
VERTEX
10
-13.7500
20
-17.5500
0
VERTEX
10
-3.7500
20
-17.5500
0
VERTEX
10
-3.7500
20
-18.4500
0
VERTEX
10
-13.7500
20
-18.4500
0
VERTEX
10
-13.7500
20
-18.6000
0
VERTEX
10
-13.8500
20
-18.6000
0
VERTEX
10
-13.8500
20
-18.3500
0
VERTEX
10
-3.8500
20
-18.3500
0
VERTEX
10
-3.8500
20
-17.6500
0
VERTEX
10
-13.8500
20
-17.6500
0
VERTEX
10
-13.8500
20
-17.4000
0
SEQEND
0
POLYLINE
8
metal
70
1
0
VERTEX
10
-13.7500
20
-16.2000
0
VERTEX
10
-13.7500
20
-16.3500
0
VERTEX
10
-3.7500
20
-16.3500
0
VERTEX
10
-3.7500
20
-17.2500
0
VERTEX
10
-13.7500
20
-17.2500
0
VERTEX
10
-13.7500
20
-17.4000
0
VERTEX
10
-13.8500
20
-17.4000
0
VERTEX
10
-13.8500
20
-17.1500
0
VERTEX
10
-3.8500
20
-17.1500
0
VERTEX
10
-3.8500
20
-16.4500
0
VERTEX
10
-13.8500
20
-16.4500
0
VERTEX
10
-13.8500
20
-16.2000
0
SEQEND
0
POLYLINE
8
metal
70
1
0
VERTEX
10
-13.7500
20
-15.0000
0
VERTEX
10
-13.7500
20
-15.1500
0
VERTEX
10
-3.7500
20
-15.1500
0
VERTEX
10
-3.7500
20
-16.0500
0
VERTEX
10
-13.7500
20
-16.0500
0
VERTEX
10
-13.7500
20
-16.2000
0
VERTEX
10
-13.8500
20
-16.2000
0
VERTEX
10
-13.8500
20
-15.9500
0
VERTEX
10
-3.8500
20
-15.9500
0
VERTEX
10
-3.8500
20
-15.2500
0
VERTEX
10
-13.8500
20
-15.2500
0
VERTEX
10
-13.8500
20
-15.0000
0
SEQEND
0
POLYLINE
8
metal
70
1
0
VERTEX
10
-13.7500
20
-13.8000
0
VERTEX
10
-13.7500
20
-13.9500
0
VERTEX
10
-3.7500
20
-13.9500
0
VERTEX
10
-3.7500
20
-14.8500
0
VERTEX
10
-13.7500
20
-14.8500
0
VERTEX
10
-13.7500
20
-15.0000
0
VERTEX
10
-13.8500
20
-15.0000
0
VERTEX
10
-13.8500
20
-14.7500
0
VERTEX
10
-3.8500
20
-14.7500
0
VERTEX
10
-3.8500
20
-14.0500
0
VERTEX
10
-13.8500
20
-14.0500
0
VERTEX
10
-13.8500
20
-13.8000
0
SEQEND
0
POLYLINE
8
metal
70
1
0
VERTEX
10
-3.7500
20
-13.2000
0
VERTEX
10
-3.7500
20
-13.6500
0
VERTEX
10
-13.7500
20
-13.6500
0
VERTEX
10
-13.7500
20
-13.8000
0
VERTEX
10
-13.8500
20
-13.8000
0
VERTEX
10
-13.8500
20
-13.5500
0
VERTEX
10
-3.8500
20
-13.5500
0
VERTEX
10
-3.8500
20
-13.2000
0
SEQEND
0
POLYLINE
8
metal
70
1
0
VERTEX
10
-13.9500
20
-22.2000
0
VERTEX
10
-13.9500
20
-22.5500
0
VERTEX
10
-3.9500
20
-22.5500
0
VERTEX
10
-3.9500
20
-23.0500
0
VERTEX
10
-13.9500
20
-23.0500
0
VERTEX
10
-13.9500
20
-23.4000
0
VERTEX
10
-14.0500
20
-23.4000
0
VERTEX
10
-14.0500
20
-22.9500
0
VERTEX
10
-4.0500
20
-22.9500
0
VERTEX
10
-4.0500
20
-22.6500
0
VERTEX
10
-14.0500
20
-22.6500
0
VERTEX
10
-14.0500
20
-22.2000
0
SEQEND
0
POLYLINE
8
metal
70
1
0
VERTEX
10
-13.9500
20
-21.0000
0
VERTEX
10
-13.9500
20
-21.3500
0
VERTEX
10
-3.9500
20
-21.3500
0
VERTEX
10
-3.9500
20
-21.8500
0
VERTEX
10
-13.9500
20
-21.8500
0
VERTEX
10
-13.9500
20
-22.2000
0
VERTEX
10
-14.0500
20
-22.2000
0
VERTEX
10
-14.0500
20
-21.7500
0
VERTEX
10
-4.0500
20
-21.7500
0
VERTEX
10
-4.0500
20
-21.4500
0
VERTEX
10
-14.0500
20
-21.4500
0
VERTEX
10
-14.0500
20
-21.0000
0
SEQEND
0
POLYLINE
8
metal
70
1
0
VERTEX
10
-13.9500
20
-19.8000
0
VERTEX
10
-13.9500
20
-20.1500
0
VERTEX
10
-3.9500
20
-20.1500
0
VERTEX
10
-3.9500
20
-20.6500
0
VERTEX
10
-13.9500
20
-20.6500
0
VERTEX
10
-13.9500
20
-21.0000
0
VERTEX
10
-14.0500
20
-21.0000
0
VERTEX
10
-14.0500
20
-20.5500
0
VERTEX
10
-4.0500
20
-20.5500
0
VERTEX
10
-4.0500
20
-20.2500
0
VERTEX
10
-14.0500
20
-20.2500
0
VERTEX
10
-14.0500
20
-19.8000
0
SEQEND
0
POLYLINE
8
metal
70
1
0
VERTEX
10
-13.9500
20
-18.6000
0
VERTEX
10
-13.9500
20
-18.9500
0
VERTEX
10
-3.9500
20
-18.9500
0
VERTEX
10
-3.9500
20
-19.4500
0
VERTEX
10
-13.9500
20
-19.4500
0
VERTEX
10
-13.9500
20
-19.8000
0
VERTEX
10
-14.0500
20
-19.8000
0
VERTEX
10
-14.0500
20
-19.3500
0
VERTEX
10
-4.0500
20
-19.3500
0
VERTEX
10
-4.0500
20
-19.0500
0
VERTEX
10
-14.0500
20
-19.0500
0
VERTEX
10
-14.0500
20
-18.6000
0
SEQEND
0
POLYLINE
8
metal
70
1
0
VERTEX
10
-13.9500
20
-17.4000
0
VERTEX
10
-13.9500
20
-17.7500
0
VERTEX
10
-3.9500
20
-17.7500
0
VERTEX
10
-3.9500
20
-18.2500
0
VERTEX
10
-13.9500
20
-18.2500
0
VERTEX
10
-13.9500
20
-18.6000
0
VERTEX
10
-14.0500
20
-18.6000
0
VERTEX
10
-14.0500
20
-18.1500
0
VERTEX
10
-4.0500
20
-18.1500
0
VERTEX
10
-4.0500
20
-17.8500
0
VERTEX
10
-14.0500
20
-17.8500
0
VERTEX
10
-14.0500
20
-17.4000
0
SEQEND
0
POLYLINE
8
metal
70
1
0
VERTEX
10
-13.9500
20
-16.2000
0
VERTEX
10
-13.9500
20
-16.5500
0
VERTEX
10
-3.9500
20
-16.5500
0
VERTEX
10
-3.9500
20
-17.0500
0
VERTEX
10
-13.9500
20
-17.0500
0
VERTEX
10
-13.9500
20
-17.4000
0
VERTEX
10
-14.0500
20
-17.4000
0
VERTEX
10
-14.0500
20
-16.9500
0
VERTEX
10
-4.0500
20
-16.9500
0
VERTEX
10
-4.0500
20
-16.6500
0
VERTEX
10
-14.0500
20
-16.6500
0
VERTEX
10
-14.0500
20
-16.2000
0
SEQEND
0
POLYLINE
8
metal
70
1
0
VERTEX
10
-13.9500
20
-15.0000
0
VERTEX
10
-13.9500
20
-15.3500
0
VERTEX
10
-3.9500
20
-15.3500
0
VERTEX
10
-3.9500
20
-15.8500
0
VERTEX
10
-13.9500
20
-15.8500
0
VERTEX
10
-13.9500
20
-16.2000
0
VERTEX
10
-14.0500
20
-16.2000
0
VERTEX
10
-14.0500
20
-15.7500
0
VERTEX
10
-4.0500
20
-15.7500
0
VERTEX
10
-4.0500
20
-15.4500
0
VERTEX
10
-14.0500
20
-15.4500
0
VERTEX
10
-14.0500
20
-15.0000
0
SEQEND
0
POLYLINE
8
metal
70
1
0
VERTEX
10
-13.9500
20
-13.8000
0
VERTEX
10
-13.9500
20
-14.1500
0
VERTEX
10
-3.9500
20
-14.1500
0
VERTEX
10
-3.9500
20
-14.6500
0
VERTEX
10
-13.9500
20
-14.6500
0
VERTEX
10
-13.9500
20
-15.0000
0
VERTEX
10
-14.0500
20
-15.0000
0
VERTEX
10
-14.0500
20
-14.5500
0
VERTEX
10
-4.0500
20
-14.5500
0
VERTEX
10
-4.0500
20
-14.2500
0
VERTEX
10
-14.0500
20
-14.2500
0
VERTEX
10
-14.0500
20
-13.8000
0
SEQEND
0
POLYLINE
8
metal
70
1
0
VERTEX
10
-3.9500
20
-13.2000
0
VERTEX
10
-3.9500
20
-13.4500
0
VERTEX
10
-13.9500
20
-13.4500
0
VERTEX
10
-13.9500
20
-13.8000
0
VERTEX
10
-14.0500
20
-13.8000
0
VERTEX
10
-14.0500
20
-13.3500
0
VERTEX
10
-4.0500
20
-13.3500
0
VERTEX
10
-4.0500
20
-13.2000
0
SEQEND
0
POLYLINE
8
M1_Neg
70
1
0
VERTEX
10
-13.9311
20
-23.2189
0
VERTEX
10
-22.4163
20
-23.2189
0
VERTEX
10
-26.6590
20
-27.4616
0
VERTEX
10
-17.9616
20
-36.1590
0
VERTEX
10
-13.7189
20
-31.9163
0
VERTEX
10
-13.7189
20
-23.4311
0
SEQEND
0
POLYLINE
8
cure
70
1
0
VERTEX
10
-3.1000
20
-11.3000
0
VERTEX
10
-14.7000
20
-11.3000
0
VERTEX
10
-14.7000
20
-25.3000
0
VERTEX
10
-3.1000
20
-25.3000
0
SEQEND
0
POLYLINE
8
M2_undercutMsk
70
1
0
VERTEX
10
-0.1000
20
-11.3000
0
VERTEX
10
-17.7000
20
-11.3000
0
VERTEX
10
-17.7000
20
-25.3000
0
VERTEX
10
-0.1000
20
-25.3000
0
SEQEND
0
CIRCLE
8
M1_LD
10
-20.2640
20
-29.7640
40
7.5000
0
SEQEND
0
POLYLINE
8
metal
70
1
0
VERTEX
10
-13.7500
20
-23.7000
0
VERTEX
10
-13.7500
20
-23.4000
0
VERTEX
10
-13.8500
20
-23.4000
0
VERTEX
10
-13.8500
20
-23.5500
0
VERTEX
10
-18.2500
20
-36.7500
0
VERTEX
10
-18.2500
20
-37.0500
0
SEQEND
0
POLYLINE
8
metal
70
1
0
VERTEX
10
-16.2500
20
-34.9000
0
VERTEX
10
-20.2500
20
-34.9000
0
VERTEX
10
-20.2500
20
-38.9000
0
VERTEX
10
-16.2500
20
-38.9000
0
SEQEND
0
POLYLINE
8
metal_BB
70
1
0
VERTEX
10
-16.2500
20
-34.9000
0
VERTEX
10
-20.2500
20
-34.9000
0
VERTEX
10
-20.2500
20
-38.9000
0
VERTEX
10
-16.2500
20
-38.9000
0
SEQEND
0
POLYLINE
8
metal
70
1
0
VERTEX
10
-13.9500
20
-23.2500
0
VERTEX
10
-13.9500
20
-23.4000
0
VERTEX
10
-14.0500
20
-23.4000
0
VERTEX
10
-27.4500
20
-28.0500
0
VERTEX
10
-27.4500
20
-27.7500
0
SEQEND
0
POLYLINE
8
metal
70
1
0
VERTEX
10
-25.4500
20
-25.9000
0
VERTEX
10
-29.4500
20
-25.9000
0
VERTEX
10
-29.4500
20
-29.9000
0
VERTEX
10
-25.4500
20
-29.9000
0
SEQEND
0
POLYLINE
8
metal_BB
70
1
0
VERTEX
10
-25.4500
20
-25.9000
0
VERTEX
10
-29.4500
20
-25.9000
0
VERTEX
10
-29.4500
20
-29.9000
0
VERTEX
10
-25.4500
20
-29.9000
0
SEQEND
0
POLYLINE
8
M1_Pos_holes
70
1
0
VERTEX
10
-14.2024
20
-35.8205
0
VERTEX
10
-14.6688
20
-35.2127
0
VERTEX
10
-14.0610
20
-35.6790
0
VERTEX
10
-13.5946
20
-36.2869
0
SEQEND
0
POLYLINE
8
M1_Pos_holes
70
1
0
VERTEX
10
-14.6486
20
-36.2214
0
VERTEX
10
-15.0650
20
-35.5783
0
VERTEX
10
-14.4964
20
-36.0918
0
VERTEX
10
-14.0800
20
-36.7349
0
SEQEND
0
POLYLINE
8
M1_Pos_holes
70
1
0
VERTEX
10
-15.1255
20
-36.5855
0
VERTEX
10
-15.4890
20
-35.9111
0
VERTEX
10
-14.9633
20
-36.4684
0
VERTEX
10
-14.5997
20
-37.1427
0
SEQEND
0
POLYLINE
8
M1_Pos_holes
70
1
0
VERTEX
10
-15.6298
20
-36.9102
0
VERTEX
10
-15.9384
20
-36.2090
0
VERTEX
10
-15.4588
20
-36.8065
0
VERTEX
10
-15.1503
20
-37.5077
0
SEQEND
0
POLYLINE
8
M1_Pos_holes
70
1
0
VERTEX
10
-16.1586
20
-37.1937
0
VERTEX
10
-16.4101
20
-36.4700
0
VERTEX
10
-15.9798
20
-37.1039
0
VERTEX
10
-15.7283
20
-37.8276
0
SEQEND
0
POLYLINE
8
M1_Pos_holes
70
1
0
VERTEX
10
-16.7082
20
-37.4339
0
VERTEX
10
-16.9011
20
-36.6925
0
VERTEX
10
-16.5229
20
-37.3587
0
VERTEX
10
-16.3300
20
-38.1002
0
SEQEND
0
POLYLINE
8
M1_Pos_holes
70
1
0
VERTEX
10
-17.2754
20
-37.6295
0
VERTEX
10
-17.4084
20
-36.8750
0
VERTEX
10
-17.0846
20
-37.5693
0
VERTEX
10
-16.9516
20
-38.3238
0
SEQEND
0
POLYLINE
8
M1_Pos_holes
70
1
0
VERTEX
10
-17.8563
20
-37.7791
0
VERTEX
10
-17.9286
20
-37.0164
0
VERTEX
10
-17.6613
20
-37.7344
0
VERTEX
10
-17.5891
20
-38.4971
0
SEQEND
0
POLYLINE
8
M1_Pos_holes
70
1
0
VERTEX
10
-18.4473
20
-37.8818
0
VERTEX
10
-18.4584
20
-37.1158
0
VERTEX
10
-18.2494
20
-37.8528
0
VERTEX
10
-18.2383
20
-38.6189
0
SEQEND
0
POLYLINE
8
M1_Pos_holes
70
1
0
VERTEX
10
-19.0447
20
-37.9370
0
VERTEX
10
-18.9945
20
-37.1725
0
VERTEX
10
-18.8451
20
-37.9239
0
VERTEX
10
-18.8953
20
-38.6884
0
SEQEND
0
POLYLINE
8
M1_Pos_holes
70
1
0
VERTEX
10
-19.6445
20
-37.9442
0
VERTEX
10
-19.5334
20
-37.1862
0
VERTEX
10
-19.4445
20
-37.9471
0
VERTEX
10
-19.5556
20
-38.7051
0
SEQEND
0
POLYLINE
8
M1_Pos_holes
70
1
0
VERTEX
10
-20.2430
20
-37.9035
0
VERTEX
10
-20.0717
20
-37.1567
0
VERTEX
10
-20.0439
20
-37.9224
0
VERTEX
10
-20.2152
20
-38.6691
0
SEQEND
0
POLYLINE
8
M1_Pos_holes
70
1
0
VERTEX
10
-20.8364
20
-37.8150
0
VERTEX
10
-20.6059
20
-37.0844
0
VERTEX
10
-20.6394
20
-37.8498
0
VERTEX
10
-20.8698
20
-38.5804
0
SEQEND
0
POLYLINE
8
M1_Pos_holes
70
1
0
VERTEX
10
-21.4208
20
-37.6795
0
VERTEX
10
-21.1327
20
-36.9696
0
VERTEX
10
-21.2272
20
-37.7299
0
VERTEX
10
-21.5153
20
-38.4398
0
SEQEND
0
POLYLINE
8
M1_Pos_holes
70
1
0
VERTEX
10
-21.9924
20
-37.4977
0
VERTEX
10
-21.6485
20
-36.8131
0
VERTEX
10
-21.8035
20
-37.5633
0
VERTEX
10
-22.1474
20
-38.2480
0
SEQEND
0
POLYLINE
8
M1_Pos_holes
70
1
0
VERTEX
10
-22.5477
20
-37.2707
0
VERTEX
10
-22.1502
20
-36.6158
0
VERTEX
10
-22.3647
20
-37.3513
0
VERTEX
10
-22.7622
20
-38.0062
0
SEQEND
0
POLYLINE
8
M1_Pos_holes
70
1
0
VERTEX
10
-23.0832
20
-37.0002
0
VERTEX
10
-22.6346
20
-36.3791
0
VERTEX
10
-22.9071
20
-37.0951
0
VERTEX
10
-23.3557
20
-37.7162
0
SEQEND
0
POLYLINE
8
M1_Pos_holes
70
1
0
VERTEX
10
-23.5952
20
-36.6877
0
VERTEX
10
-23.0985
20
-36.1044
0
VERTEX
10
-23.4273
20
-36.7964
0
VERTEX
10
-23.9241
20
-37.3796
0
SEQEND
0
POLYLINE
8
M1_Pos_holes
70
1
0
VERTEX
10
-24.0807
20
-36.3352
0
VERTEX
10
-23.5389
20
-35.7936
0
VERTEX
10
-23.9220
20
-36.4570
0
VERTEX
10
-24.4638
20
-36.9987
0
SEQEND
0
POLYLINE
8
M1_Pos_holes
70
1
0
VERTEX
10
-24.5364
20
-35.9452
0
VERTEX
10
-23.9531
20
-35.4485
0
VERTEX
10
-24.3880
20
-36.0792
0
VERTEX
10
-24.9714
20
-36.5759
0
SEQEND
0
POLYLINE
8
M1_Pos_holes
70
1
0
VERTEX
10
-24.9595
20
-35.5199
0
VERTEX
10
-24.3384
20
-35.0714
0
VERTEX
10
-24.8223
20
-35.6654
0
VERTEX
10
-25.4435
20
-36.1138
0
SEQEND
0
POLYLINE
8
M1_Pos_holes
70
1
0
VERTEX
10
-25.3473
20
-35.0622
0
VERTEX
10
-24.6923
20
-34.6648
0
VERTEX
10
-25.2221
20
-35.2182
0
VERTEX
10
-25.8772
20
-35.6155
0
SEQEND
0
POLYLINE
8
M1_Pos_holes
70
1
0
VERTEX
10
-25.6973
20
-34.5749
0
VERTEX
10
-25.0126
20
-34.2312
0
VERTEX
10
-25.5850
20
-34.7404
0
VERTEX
10
-26.2696
20
-35.0842
0
SEQEND
0
POLYLINE
8
M1_Pos_holes
70
1
0
VERTEX
10
-26.0072
20
-34.0613
0
VERTEX
10
-25.2972
20
-33.7733
0
VERTEX
10
-25.9084
20
-34.2352
0
VERTEX
10
-26.6184
20
-34.5232
0
SEQEND
0
POLYLINE
8
M1_Pos_holes
70
1
0
VERTEX
10
-26.2750
20
-33.5245
0
VERTEX
10
-25.5443
20
-33.2942
0
VERTEX
10
-26.1905
20
-33.7058
0
VERTEX
10
-26.9212
20
-33.9361
0
SEQEND
0
POLYLINE
8
M1_Pos_holes
70
1
0
VERTEX
10
-26.4991
20
-32.9681
0
VERTEX
10
-25.7524
20
-32.7969
0
VERTEX
10
-26.4294
20
-33.1555
0
VERTEX
10
-27.1762
20
-33.3266
0
SEQEND
0
POLYLINE
8
M1_Pos_holes
70
1
0
VERTEX
10
-26.6780
20
-32.3955
0
VERTEX
10
-25.9200
20
-32.2845
0
VERTEX
10
-26.6235
20
-32.5879
0
VERTEX
10
-27.3816
20
-32.6988
0
SEQEND
0
POLYLINE
8
M1_Pos_holes
70
1
0
VERTEX
10
-26.8106
20
-31.8104
0
VERTEX
10
-26.0461
20
-31.7604
0
VERTEX
10
-26.7717
20
-32.0066
0
VERTEX
10
-27.5361
20
-32.0566
0
SEQEND
0
POLYLINE
8
M1_Pos_holes
70
1
0
VERTEX
10
-26.8960
20
-31.2166
0
VERTEX
10
-26.1300
20
-31.2279
0
VERTEX
10
-26.8729
20
-31.4153
0
VERTEX
10
-27.6389
20
-31.4040
0
SEQEND
0
POLYLINE
8
M1_Pos_holes
70
1
0
VERTEX
10
-26.9337
20
-30.6179
0
VERTEX
10
-26.1710
20
-30.6904
0
VERTEX
10
-26.9265
20
-30.8178
0
VERTEX
10
-27.6892
20
-30.7453
0
SEQEND
0
POLYLINE
8
M1_Pos_holes
70
1
0
VERTEX
10
-26.9235
20
-30.0181
0
VERTEX
10
-26.1690
20
-30.1513
0
VERTEX
10
-26.9322
20
-30.2179
0
VERTEX
10
-27.6867
20
-30.0848
0
SEQEND
0
POLYLINE
8
M1_Pos_holes
70
1
0
VERTEX
10
-26.8653
20
-29.4210
0
VERTEX
10
-26.1239
20
-29.6141
0
VERTEX
10
-26.8900
20
-29.6195
0
VERTEX
10
-27.6314
20
-29.4265
0
SEQEND
0
POLYLINE
8
M1_Pos_holes
70
1
0
VERTEX
10
-26.7596
20
-28.8305
0
VERTEX
10
-26.0359
20
-29.0822
0
VERTEX
10
-26.8000
20
-29.0264
0
VERTEX
10
-27.5237
20
-28.7747
0
SEQEND
0
POLYLINE
8
M1_Pos_holes
70
1
0
VERTEX
10
-26.6070
20
-28.2504
0
VERTEX
10
-25.9058
20
-28.5591
0
VERTEX
10
-26.6630
20
-28.4424
0
VERTEX
10
-27.3642
20
-28.1337
0
SEQEND
0
POLYLINE
8
M1_Pos_holes
70
1
0
VERTEX
10
-26.4086
20
-27.6842
0
VERTEX
10
-25.7343
20
-28.0480
0
VERTEX
10
-26.4797
20
-27.8712
0
VERTEX
10
-27.1540
20
-27.5074
0
SEQEND
0
POLYLINE
8
M1_Pos_holes
70
1
0
VERTEX
10
-26.1655
20
-27.1358
0
VERTEX
10
-25.5225
20
-27.5523
0
VERTEX
10
-26.2514
20
-27.3164
0
VERTEX
10
-26.8945
20
-26.9000
0
SEQEND
0
POLYLINE
8
M1_Pos_holes
70
1
0
VERTEX
10
-25.8794
20
-26.6085
0
VERTEX
10
-25.2717
20
-27.0750
0
VERTEX
10
-25.9795
20
-26.7817
0
VERTEX
10
-26.5872
20
-26.3152
0
SEQEND
0
POLYLINE
8
M1_Pos_holes
70
1
0
VERTEX
10
-25.5521
20
-26.1058
0
VERTEX
10
-24.9836
20
-26.6194
0
VERTEX
10
-25.6657
20
-26.2704
0
VERTEX
10
-26.2342
20
-25.7568
0
SEQEND
0
POLYLINE
8
M1_Pos_holes
70
1
0
VERTEX
10
-25.1857
20
-25.6308
0
VERTEX
10
-24.6600
20
-26.1882
0
VERTEX
10
-25.3120
20
-25.7859
0
VERTEX
10
-25.8376
20
-25.2285
0
SEQEND
0
POLYLINE
8
M1_Pos_holes
70
1
0
VERTEX
10
-24.7824
20
-25.1867
0
VERTEX
10
-24.3030
20
-25.7843
0
VERTEX
10
-24.9208
20
-25.3311
0
VERTEX
10
-25.4002
20
-24.7335
0
SEQEND
0
POLYLINE
8
M1_Neg
70
1
0
VERTEX
10
3.4625
20
-13.5500
0
VERTEX
10
3.8375
20
-13.5500
0
VERTEX
10
3.8375
20
-13.4500
0
VERTEX
10
3.4625
20
-13.4500
0
SEQEND
0
POLYLINE
8
M1_Neg
70
1
0
VERTEX
10
-3.8375
20
-13.5500
0
VERTEX
10
-3.4625
20
-13.5500
0
VERTEX
10
-3.4625
20
-13.4500
0
VERTEX
10
-3.8375
20
-13.4500
0
SEQEND
0
POLYLINE
8
M2_undercutMsk
70
1
0
VERTEX
10
-6.5000
20
-20.0000
0
VERTEX
10
6.5000
20
-20.0000
0
VERTEX
10
6.5000
20
-7.0000
0
VERTEX
10
-6.5000
20
-7.0000
0
SEQEND
0
ENDSEC
0
EOF