0
SECTION
2
HEADER
9
$ACADVER
1
AC1009
0
ENDSEC
0
SECTION
2
ENTITIES
0
POLYLINE
8
M1_Neg
70
1
0
VERTEX
10
-4.8500
20
-9.0000
0
VERTEX
10
-4.8500
20
-9.1500
0
VERTEX
10
5.1500
20
-9.1500
0
VERTEX
10
5.1500
20
-10.0500
0
VERTEX
10
-4.8500
20
-10.0500
0
VERTEX
10
-4.8500
20
-10.2000
0
VERTEX
10
-5.1500
20
-10.2000
0
VERTEX
10
-5.1500
20
-9.7500
0
VERTEX
10
4.8500
20
-9.7500
0
VERTEX
10
4.8500
20
-9.4500
0
VERTEX
10
-5.1500
20
-9.4500
0
VERTEX
10
-5.1500
20
-9.0000
0
SEQEND
0
POLYLINE
8
M1_Neg
70
1
0
VERTEX
10
-4.8500
20
-7.8000
0
VERTEX
10
-4.8500
20
-7.9500
0
VERTEX
10
5.1500
20
-7.9500
0
VERTEX
10
5.1500
20
-8.8500
0
VERTEX
10
-4.8500
20
-8.8500
0
VERTEX
10
-4.8500
20
-9.0000
0
VERTEX
10
-5.1500
20
-9.0000
0
VERTEX
10
-5.1500
20
-8.5500
0
VERTEX
10
4.8500
20
-8.5500
0
VERTEX
10
4.8500
20
-8.2500
0
VERTEX
10
-5.1500
20
-8.2500
0
VERTEX
10
-5.1500
20
-7.8000
0
SEQEND
0
POLYLINE
8
M1_Neg
70
1
0
VERTEX
10
-4.8500
20
-6.6000
0
VERTEX
10
-4.8500
20
-6.7500
0
VERTEX
10
5.1500
20
-6.7500
0
VERTEX
10
5.1500
20
-7.6500
0
VERTEX
10
-4.8500
20
-7.6500
0
VERTEX
10
-4.8500
20
-7.8000
0
VERTEX
10
-5.1500
20
-7.8000
0
VERTEX
10
-5.1500
20
-7.3500
0
VERTEX
10
4.8500
20
-7.3500
0
VERTEX
10
4.8500
20
-7.0500
0
VERTEX
10
-5.1500
20
-7.0500
0
VERTEX
10
-5.1500
20
-6.6000
0
SEQEND
0
POLYLINE
8
M1_Neg
70
1
0
VERTEX
10
-4.8500
20
-5.4000
0
VERTEX
10
-4.8500
20
-5.5500
0
VERTEX
10
5.1500
20
-5.5500
0
VERTEX
10
5.1500
20
-6.4500
0
VERTEX
10
-4.8500
20
-6.4500
0
VERTEX
10
-4.8500
20
-6.6000
0
VERTEX
10
-5.1500
20
-6.6000
0
VERTEX
10
-5.1500
20
-6.1500
0
VERTEX
10
4.8500
20
-6.1500
0
VERTEX
10
4.8500
20
-5.8500
0
VERTEX
10
-5.1500
20
-5.8500
0
VERTEX
10
-5.1500
20
-5.4000
0
SEQEND
0
POLYLINE
8
M1_Neg
70
1
0
VERTEX
10
-4.8500
20
-4.2000
0
VERTEX
10
-4.8500
20
-4.3500
0
VERTEX
10
5.1500
20
-4.3500
0
VERTEX
10
5.1500
20
-5.2500
0
VERTEX
10
-4.8500
20
-5.2500
0
VERTEX
10
-4.8500
20
-5.4000
0
VERTEX
10
-5.1500
20
-5.4000
0
VERTEX
10
-5.1500
20
-4.9500
0
VERTEX
10
4.8500
20
-4.9500
0
VERTEX
10
4.8500
20
-4.6500
0
VERTEX
10
-5.1500
20
-4.6500
0
VERTEX
10
-5.1500
20
-4.2000
0
SEQEND
0
POLYLINE
8
M1_Neg
70
1
0
VERTEX
10
-4.8500
20
-3.0000
0
VERTEX
10
-4.8500
20
-3.1500
0
VERTEX
10
5.1500
20
-3.1500
0
VERTEX
10
5.1500
20
-4.0500
0
VERTEX
10
-4.8500
20
-4.0500
0
VERTEX
10
-4.8500
20
-4.2000
0
VERTEX
10
-5.1500
20
-4.2000
0
VERTEX
10
-5.1500
20
-3.7500
0
VERTEX
10
4.8500
20
-3.7500
0
VERTEX
10
4.8500
20
-3.4500
0
VERTEX
10
-5.1500
20
-3.4500
0
VERTEX
10
-5.1500
20
-3.0000
0
SEQEND
0
POLYLINE
8
M1_Neg
70
1
0
VERTEX
10
-4.8500
20
-1.8000
0
VERTEX
10
-4.8500
20
-1.9500
0
VERTEX
10
5.1500
20
-1.9500
0
VERTEX
10
5.1500
20
-2.8500
0
VERTEX
10
-4.8500
20
-2.8500
0
VERTEX
10
-4.8500
20
-3.0000
0
VERTEX
10
-5.1500
20
-3.0000
0
VERTEX
10
-5.1500
20
-2.5500
0
VERTEX
10
4.8500
20
-2.5500
0
VERTEX
10
4.8500
20
-2.2500
0
VERTEX
10
-5.1500
20
-2.2500
0
VERTEX
10
-5.1500
20
-1.8000
0
SEQEND
0
POLYLINE
8
M1_Neg
70
1
0
VERTEX
10
-4.8500
20
-0.6000
0
VERTEX
10
-4.8500
20
-0.7500
0
VERTEX
10
5.1500
20
-0.7500
0
VERTEX
10
5.1500
20
-1.6500
0
VERTEX
10
-4.8500
20
-1.6500
0
VERTEX
10
-4.8500
20
-1.8000
0
VERTEX
10
-5.1500
20
-1.8000
0
VERTEX
10
-5.1500
20
-1.3500
0
VERTEX
10
4.8500
20
-1.3500
0
VERTEX
10
4.8500
20
-1.0500
0
VERTEX
10
-5.1500
20
-1.0500
0
VERTEX
10
-5.1500
20
-0.6000
0
SEQEND
0
POLYLINE
8
M1_Neg
70
1
0
VERTEX
10
5.1500
20
0.0000
0
VERTEX
10
5.1500
20
-0.4500
0
VERTEX
10
-4.8500
20
-0.4500
0
VERTEX
10
-4.8500
20
-0.6000
0
VERTEX
10
-5.1500
20
-0.6000
0
VERTEX
10
-5.1500
20
-0.1500
0
VERTEX
10
4.8500
20
-0.1500
0
VERTEX
10
4.8500
20
0.0000
0
SEQEND
0
POLYLINE
8
metal
70
1
0
VERTEX
10
-4.8500
20
-9.0000
0
VERTEX
10
-4.8500
20
-9.1500
0
VERTEX
10
5.1500
20
-9.1500
0
VERTEX
10
5.1500
20
-10.0500
0
VERTEX
10
-4.8500
20
-10.0500
0
VERTEX
10
-4.8500
20
-10.2000
0
VERTEX
10
-4.9500
20
-10.2000
0
VERTEX
10
-4.9500
20
-9.9500
0
VERTEX
10
5.0500
20
-9.9500
0
VERTEX
10
5.0500
20
-9.2500
0
VERTEX
10
-4.9500
20
-9.2500
0
VERTEX
10
-4.9500
20
-9.0000
0
SEQEND
0
POLYLINE
8
metal
70
1
0
VERTEX
10
-4.8500
20
-7.8000
0
VERTEX
10
-4.8500
20
-7.9500
0
VERTEX
10
5.1500
20
-7.9500
0
VERTEX
10
5.1500
20
-8.8500
0
VERTEX
10
-4.8500
20
-8.8500
0
VERTEX
10
-4.8500
20
-9.0000
0
VERTEX
10
-4.9500
20
-9.0000
0
VERTEX
10
-4.9500
20
-8.7500
0
VERTEX
10
5.0500
20
-8.7500
0
VERTEX
10
5.0500
20
-8.0500
0
VERTEX
10
-4.9500
20
-8.0500
0
VERTEX
10
-4.9500
20
-7.8000
0
SEQEND
0
POLYLINE
8
metal
70
1
0
VERTEX
10
-4.8500
20
-6.6000
0
VERTEX
10
-4.8500
20
-6.7500
0
VERTEX
10
5.1500
20
-6.7500
0
VERTEX
10
5.1500
20
-7.6500
0
VERTEX
10
-4.8500
20
-7.6500
0
VERTEX
10
-4.8500
20
-7.8000
0
VERTEX
10
-4.9500
20
-7.8000
0
VERTEX
10
-4.9500
20
-7.5500
0
VERTEX
10
5.0500
20
-7.5500
0
VERTEX
10
5.0500
20
-6.8500
0
VERTEX
10
-4.9500
20
-6.8500
0
VERTEX
10
-4.9500
20
-6.6000
0
SEQEND
0
POLYLINE
8
metal
70
1
0
VERTEX
10
-4.8500
20
-5.4000
0
VERTEX
10
-4.8500
20
-5.5500
0
VERTEX
10
5.1500
20
-5.5500
0
VERTEX
10
5.1500
20
-6.4500
0
VERTEX
10
-4.8500
20
-6.4500
0
VERTEX
10
-4.8500
20
-6.6000
0
VERTEX
10
-4.9500
20
-6.6000
0
VERTEX
10
-4.9500
20
-6.3500
0
VERTEX
10
5.0500
20
-6.3500
0
VERTEX
10
5.0500
20
-5.6500
0
VERTEX
10
-4.9500
20
-5.6500
0
VERTEX
10
-4.9500
20
-5.4000
0
SEQEND
0
POLYLINE
8
metal
70
1
0
VERTEX
10
-4.8500
20
-4.2000
0
VERTEX
10
-4.8500
20
-4.3500
0
VERTEX
10
5.1500
20
-4.3500
0
VERTEX
10
5.1500
20
-5.2500
0
VERTEX
10
-4.8500
20
-5.2500
0
VERTEX
10
-4.8500
20
-5.4000
0
VERTEX
10
-4.9500
20
-5.4000
0
VERTEX
10
-4.9500
20
-5.1500
0
VERTEX
10
5.0500
20
-5.1500
0
VERTEX
10
5.0500
20
-4.4500
0
VERTEX
10
-4.9500
20
-4.4500
0
VERTEX
10
-4.9500
20
-4.2000
0
SEQEND
0
POLYLINE
8
metal
70
1
0
VERTEX
10
-4.8500
20
-3.0000
0
VERTEX
10
-4.8500
20
-3.1500
0
VERTEX
10
5.1500
20
-3.1500
0
VERTEX
10
5.1500
20
-4.0500
0
VERTEX
10
-4.8500
20
-4.0500
0
VERTEX
10
-4.8500
20
-4.2000
0
VERTEX
10
-4.9500
20
-4.2000
0
VERTEX
10
-4.9500
20
-3.9500
0
VERTEX
10
5.0500
20
-3.9500
0
VERTEX
10
5.0500
20
-3.2500
0
VERTEX
10
-4.9500
20
-3.2500
0
VERTEX
10
-4.9500
20
-3.0000
0
SEQEND
0
POLYLINE
8
metal
70
1
0
VERTEX
10
-4.8500
20
-1.8000
0
VERTEX
10
-4.8500
20
-1.9500
0
VERTEX
10
5.1500
20
-1.9500
0
VERTEX
10
5.1500
20
-2.8500
0
VERTEX
10
-4.8500
20
-2.8500
0
VERTEX
10
-4.8500
20
-3.0000
0
VERTEX
10
-4.9500
20
-3.0000
0
VERTEX
10
-4.9500
20
-2.7500
0
VERTEX
10
5.0500
20
-2.7500
0
VERTEX
10
5.0500
20
-2.0500
0
VERTEX
10
-4.9500
20
-2.0500
0
VERTEX
10
-4.9500
20
-1.8000
0
SEQEND
0
POLYLINE
8
metal
70
1
0
VERTEX
10
-4.8500
20
-0.6000
0
VERTEX
10
-4.8500
20
-0.7500
0
VERTEX
10
5.1500
20
-0.7500
0
VERTEX
10
5.1500
20
-1.6500
0
VERTEX
10
-4.8500
20
-1.6500
0
VERTEX
10
-4.8500
20
-1.8000
0
VERTEX
10
-4.9500
20
-1.8000
0
VERTEX
10
-4.9500
20
-1.5500
0
VERTEX
10
5.0500
20
-1.5500
0
VERTEX
10
5.0500
20
-0.8500
0
VERTEX
10
-4.9500
20
-0.8500
0
VERTEX
10
-4.9500
20
-0.6000
0
SEQEND
0
POLYLINE
8
metal
70
1
0
VERTEX
10
5.1500
20
0.0000
0
VERTEX
10
5.1500
20
-0.4500
0
VERTEX
10
-4.8500
20
-0.4500
0
VERTEX
10
-4.8500
20
-0.6000
0
VERTEX
10
-4.9500
20
-0.6000
0
VERTEX
10
-4.9500
20
-0.3500
0
VERTEX
10
5.0500
20
-0.3500
0
VERTEX
10
5.0500
20
0.0000
0
SEQEND
0
POLYLINE
8
metal
70
1
0
VERTEX
10
-5.0500
20
-9.0000
0
VERTEX
10
-5.0500
20
-9.3500
0
VERTEX
10
4.9500
20
-9.3500
0
VERTEX
10
4.9500
20
-9.8500
0
VERTEX
10
-5.0500
20
-9.8500
0
VERTEX
10
-5.0500
20
-10.2000
0
VERTEX
10
-5.1500
20
-10.2000
0
VERTEX
10
-5.1500
20
-9.7500
0
VERTEX
10
4.8500
20
-9.7500
0
VERTEX
10
4.8500
20
-9.4500
0
VERTEX
10
-5.1500
20
-9.4500
0
VERTEX
10
-5.1500
20
-9.0000
0
SEQEND
0
POLYLINE
8
metal
70
1
0
VERTEX
10
-5.0500
20
-7.8000
0
VERTEX
10
-5.0500
20
-8.1500
0
VERTEX
10
4.9500
20
-8.1500
0
VERTEX
10
4.9500
20
-8.6500
0
VERTEX
10
-5.0500
20
-8.6500
0
VERTEX
10
-5.0500
20
-9.0000
0
VERTEX
10
-5.1500
20
-9.0000
0
VERTEX
10
-5.1500
20
-8.5500
0
VERTEX
10
4.8500
20
-8.5500
0
VERTEX
10
4.8500
20
-8.2500
0
VERTEX
10
-5.1500
20
-8.2500
0
VERTEX
10
-5.1500
20
-7.8000
0
SEQEND
0
POLYLINE
8
metal
70
1
0
VERTEX
10
-5.0500
20
-6.6000
0
VERTEX
10
-5.0500
20
-6.9500
0
VERTEX
10
4.9500
20
-6.9500
0
VERTEX
10
4.9500
20
-7.4500
0
VERTEX
10
-5.0500
20
-7.4500
0
VERTEX
10
-5.0500
20
-7.8000
0
VERTEX
10
-5.1500
20
-7.8000
0
VERTEX
10
-5.1500
20
-7.3500
0
VERTEX
10
4.8500
20
-7.3500
0
VERTEX
10
4.8500
20
-7.0500
0
VERTEX
10
-5.1500
20
-7.0500
0
VERTEX
10
-5.1500
20
-6.6000
0
SEQEND
0
POLYLINE
8
metal
70
1
0
VERTEX
10
-5.0500
20
-5.4000
0
VERTEX
10
-5.0500
20
-5.7500
0
VERTEX
10
4.9500
20
-5.7500
0
VERTEX
10
4.9500
20
-6.2500
0
VERTEX
10
-5.0500
20
-6.2500
0
VERTEX
10
-5.0500
20
-6.6000
0
VERTEX
10
-5.1500
20
-6.6000
0
VERTEX
10
-5.1500
20
-6.1500
0
VERTEX
10
4.8500
20
-6.1500
0
VERTEX
10
4.8500
20
-5.8500
0
VERTEX
10
-5.1500
20
-5.8500
0
VERTEX
10
-5.1500
20
-5.4000
0
SEQEND
0
POLYLINE
8
metal
70
1
0
VERTEX
10
-5.0500
20
-4.2000
0
VERTEX
10
-5.0500
20
-4.5500
0
VERTEX
10
4.9500
20
-4.5500
0
VERTEX
10
4.9500
20
-5.0500
0
VERTEX
10
-5.0500
20
-5.0500
0
VERTEX
10
-5.0500
20
-5.4000
0
VERTEX
10
-5.1500
20
-5.4000
0
VERTEX
10
-5.1500
20
-4.9500
0
VERTEX
10
4.8500
20
-4.9500
0
VERTEX
10
4.8500
20
-4.6500
0
VERTEX
10
-5.1500
20
-4.6500
0
VERTEX
10
-5.1500
20
-4.2000
0
SEQEND
0
POLYLINE
8
metal
70
1
0
VERTEX
10
-5.0500
20
-3.0000
0
VERTEX
10
-5.0500
20
-3.3500
0
VERTEX
10
4.9500
20
-3.3500
0
VERTEX
10
4.9500
20
-3.8500
0
VERTEX
10
-5.0500
20
-3.8500
0
VERTEX
10
-5.0500
20
-4.2000
0
VERTEX
10
-5.1500
20
-4.2000
0
VERTEX
10
-5.1500
20
-3.7500
0
VERTEX
10
4.8500
20
-3.7500
0
VERTEX
10
4.8500
20
-3.4500
0
VERTEX
10
-5.1500
20
-3.4500
0
VERTEX
10
-5.1500
20
-3.0000
0
SEQEND
0
POLYLINE
8
metal
70
1
0
VERTEX
10
-5.0500
20
-1.8000
0
VERTEX
10
-5.0500
20
-2.1500
0
VERTEX
10
4.9500
20
-2.1500
0
VERTEX
10
4.9500
20
-2.6500
0
VERTEX
10
-5.0500
20
-2.6500
0
VERTEX
10
-5.0500
20
-3.0000
0
VERTEX
10
-5.1500
20
-3.0000
0
VERTEX
10
-5.1500
20
-2.5500
0
VERTEX
10
4.8500
20
-2.5500
0
VERTEX
10
4.8500
20
-2.2500
0
VERTEX
10
-5.1500
20
-2.2500
0
VERTEX
10
-5.1500
20
-1.8000
0
SEQEND
0
POLYLINE
8
metal
70
1
0
VERTEX
10
-5.0500
20
-0.6000
0
VERTEX
10
-5.0500
20
-0.9500
0
VERTEX
10
4.9500
20
-0.9500
0
VERTEX
10
4.9500
20
-1.4500
0
VERTEX
10
-5.0500
20
-1.4500
0
VERTEX
10
-5.0500
20
-1.8000
0
VERTEX
10
-5.1500
20
-1.8000
0
VERTEX
10
-5.1500
20
-1.3500
0
VERTEX
10
4.8500
20
-1.3500
0
VERTEX
10
4.8500
20
-1.0500
0
VERTEX
10
-5.1500
20
-1.0500
0
VERTEX
10
-5.1500
20
-0.6000
0
SEQEND
0
POLYLINE
8
metal
70
1
0
VERTEX
10
4.9500
20
0.0000
0
VERTEX
10
4.9500
20
-0.2500
0
VERTEX
10
-5.0500
20
-0.2500
0
VERTEX
10
-5.0500
20
-0.6000
0
VERTEX
10
-5.1500
20
-0.6000
0
VERTEX
10
-5.1500
20
-0.1500
0
VERTEX
10
4.8500
20
-0.1500
0
VERTEX
10
4.8500
20
0.0000
0
SEQEND
0
POLYLINE
8
M1_Neg
70
1
0
VERTEX
10
-5.0311
20
-10.0189
0
VERTEX
10
-13.5163
20
-10.0189
0
VERTEX
10
-17.7590
20
-14.2616
0
VERTEX
10
-9.0616
20
-22.9590
0
VERTEX
10
-4.8189
20
-18.7163
0
VERTEX
10
-4.8189
20
-10.2311
0
SEQEND
0
POLYLINE
8
cure
70
1
0
VERTEX
10
5.8000
20
1.9000
0
VERTEX
10
-5.8000
20
1.9000
0
VERTEX
10
-5.8000
20
-12.1000
0
VERTEX
10
5.8000
20
-12.1000
0
SEQEND
0
POLYLINE
8
M2_undercutMsk
70
1
0
VERTEX
10
8.8000
20
1.9000
0
VERTEX
10
-8.8000
20
1.9000
0
VERTEX
10
-8.8000
20
-12.1000
0
VERTEX
10
8.8000
20
-12.1000
0
SEQEND
0
CIRCLE
8
M1_LD
10
-11.3640
20
-16.5640
40
7.5000
0
SEQEND
0
POLYLINE
8
metal
70
1
0
VERTEX
10
-4.8500
20
-10.5000
0
VERTEX
10
-4.8500
20
-10.2000
0
VERTEX
10
-4.9500
20
-10.2000
0
VERTEX
10
-4.9500
20
-10.3500
0
VERTEX
10
-9.3500
20
-23.5500
0
VERTEX
10
-9.3500
20
-23.8500
0
SEQEND
0
POLYLINE
8
metal
70
1
0
VERTEX
10
-7.3500
20
-21.7000
0
VERTEX
10
-11.3500
20
-21.7000
0
VERTEX
10
-11.3500
20
-25.7000
0
VERTEX
10
-7.3500
20
-25.7000
0
SEQEND
0
POLYLINE
8
metal_BB
70
1
0
VERTEX
10
-7.3500
20
-21.7000
0
VERTEX
10
-11.3500
20
-21.7000
0
VERTEX
10
-11.3500
20
-25.7000
0
VERTEX
10
-7.3500
20
-25.7000
0
SEQEND
0
POLYLINE
8
metal
70
1
0
VERTEX
10
-5.0500
20
-10.0500
0
VERTEX
10
-5.0500
20
-10.2000
0
VERTEX
10
-5.1500
20
-10.2000
0
VERTEX
10
-18.5500
20
-14.8500
0
VERTEX
10
-18.5500
20
-14.5500
0
SEQEND
0
POLYLINE
8
metal
70
1
0
VERTEX
10
-16.5500
20
-12.7000
0
VERTEX
10
-20.5500
20
-12.7000
0
VERTEX
10
-20.5500
20
-16.7000
0
VERTEX
10
-16.5500
20
-16.7000
0
SEQEND
0
POLYLINE
8
metal_BB
70
1
0
VERTEX
10
-16.5500
20
-12.7000
0
VERTEX
10
-20.5500
20
-12.7000
0
VERTEX
10
-20.5500
20
-16.7000
0
VERTEX
10
-16.5500
20
-16.7000
0
SEQEND
0
POLYLINE
8
M1_Pos_holes
70
1
0
VERTEX
10
-13.3024
20
-19.0505
0
VERTEX
10
-13.7688
20
-18.4427
0
VERTEX
10
-13.1610
20
-18.9090
0
VERTEX
10
-12.6946
20
-19.5169
0
SEQEND
0
POLYLINE
8
M1_Pos_holes
70
1
0
VERTEX
10
-13.7486
20
-19.4514
0
VERTEX
10
-14.1650
20
-18.8083
0
VERTEX
10
-13.5964
20
-19.3218
0
VERTEX
10
-13.1800
20
-19.9649
0
SEQEND
0
POLYLINE
8
M1_Pos_holes
70
1
0
VERTEX
10
-14.2255
20
-19.8155
0
VERTEX
10
-14.5890
20
-19.1411
0
VERTEX
10
-14.0633
20
-19.6984
0
VERTEX
10
-13.6997
20
-20.3727
0
SEQEND
0
POLYLINE
8
M1_Pos_holes
70
1
0
VERTEX
10
-14.7298
20
-20.1402
0
VERTEX
10
-15.0384
20
-19.4390
0
VERTEX
10
-14.5588
20
-20.0365
0
VERTEX
10
-14.2503
20
-20.7377
0
SEQEND
0
POLYLINE
8
M1_Pos_holes
70
1
0
VERTEX
10
-15.2586
20
-20.4237
0
VERTEX
10
-15.5101
20
-19.7000
0
VERTEX
10
-15.0798
20
-20.3339
0
VERTEX
10
-14.8283
20
-21.0576
0
SEQEND
0
POLYLINE
8
M1_Pos_holes
70
1
0
VERTEX
10
-15.8082
20
-20.6639
0
VERTEX
10
-16.0011
20
-19.9225
0
VERTEX
10
-15.6229
20
-20.5887
0
VERTEX
10
-15.4300
20
-21.3302
0
SEQEND
0
POLYLINE
8
M1_Pos_holes
70
1
0
VERTEX
10
-16.3754
20
-20.8595
0
VERTEX
10
-16.5084
20
-20.1050
0
VERTEX
10
-16.1846
20
-20.7993
0
VERTEX
10
-16.0516
20
-21.5538
0
SEQEND
0
POLYLINE
8
M1_Pos_holes
70
1
0
VERTEX
10
-16.9563
20
-21.0091
0
VERTEX
10
-17.0286
20
-20.2464
0
VERTEX
10
-16.7613
20
-20.9644
0
VERTEX
10
-16.6891
20
-21.7271
0
SEQEND
0
POLYLINE
8
M1_Pos_holes
70
1
0
VERTEX
10
-17.5473
20
-21.1118
0
VERTEX
10
-17.5584
20
-20.3458
0
VERTEX
10
-17.3494
20
-21.0828
0
VERTEX
10
-17.3383
20
-21.8489
0
SEQEND
0
POLYLINE
8
M1_Pos_holes
70
1
0
VERTEX
10
-18.1447
20
-21.1670
0
VERTEX
10
-18.0945
20
-20.4025
0
VERTEX
10
-17.9451
20
-21.1539
0
VERTEX
10
-17.9953
20
-21.9184
0
SEQEND
0
POLYLINE
8
M1_Pos_holes
70
1
0
VERTEX
10
-18.7445
20
-21.1742
0
VERTEX
10
-18.6334
20
-20.4162
0
VERTEX
10
-18.5445
20
-21.1771
0
VERTEX
10
-18.6556
20
-21.9351
0
SEQEND
0
POLYLINE
8
M1_Pos_holes
70
1
0
VERTEX
10
-19.3430
20
-21.1335
0
VERTEX
10
-19.1717
20
-20.3867
0
VERTEX
10
-19.1439
20
-21.1524
0
VERTEX
10
-19.3152
20
-21.8991
0
SEQEND
0
POLYLINE
8
M1_Pos_holes
70
1
0
VERTEX
10
-19.9364
20
-21.0450
0
VERTEX
10
-19.7059
20
-20.3144
0
VERTEX
10
-19.7394
20
-21.0798
0
VERTEX
10
-19.9698
20
-21.8104
0
SEQEND
0
POLYLINE
8
M1_Pos_holes
70
1
0
VERTEX
10
-20.5208
20
-20.9095
0
VERTEX
10
-20.2327
20
-20.1996
0
VERTEX
10
-20.3272
20
-20.9599
0
VERTEX
10
-20.6153
20
-21.6698
0
SEQEND
0
POLYLINE
8
M1_Pos_holes
70
1
0
VERTEX
10
-21.0924
20
-20.7277
0
VERTEX
10
-20.7485
20
-20.0431
0
VERTEX
10
-20.9035
20
-20.7933
0
VERTEX
10
-21.2474
20
-21.4780
0
SEQEND
0
POLYLINE
8
M1_Pos_holes
70
1
0
VERTEX
10
-21.6477
20
-20.5007
0
VERTEX
10
-21.2502
20
-19.8458
0
VERTEX
10
-21.4647
20
-20.5813
0
VERTEX
10
-21.8622
20
-21.2362
0
SEQEND
0
POLYLINE
8
M1_Pos_holes
70
1
0
VERTEX
10
-22.1832
20
-20.2302
0
VERTEX
10
-21.7346
20
-19.6091
0
VERTEX
10
-22.0071
20
-20.3251
0
VERTEX
10
-22.4557
20
-20.9462
0
SEQEND
0
POLYLINE
8
M1_Pos_holes
70
1
0
VERTEX
10
-22.6952
20
-19.9177
0
VERTEX
10
-22.1985
20
-19.3344
0
VERTEX
10
-22.5273
20
-20.0264
0
VERTEX
10
-23.0241
20
-20.6096
0
SEQEND
0
POLYLINE
8
M1_Pos_holes
70
1
0
VERTEX
10
-23.1807
20
-19.5652
0
VERTEX
10
-22.6389
20
-19.0236
0
VERTEX
10
-23.0220
20
-19.6870
0
VERTEX
10
-23.5638
20
-20.2287
0
SEQEND
0
POLYLINE
8
M1_Pos_holes
70
1
0
VERTEX
10
-23.6364
20
-19.1752
0
VERTEX
10
-23.0531
20
-18.6785
0
VERTEX
10
-23.4880
20
-19.3092
0
VERTEX
10
-24.0714
20
-19.8059
0
SEQEND
0
POLYLINE
8
M1_Pos_holes
70
1
0
VERTEX
10
-24.0595
20
-18.7499
0
VERTEX
10
-23.4384
20
-18.3014
0
VERTEX
10
-23.9223
20
-18.8954
0
VERTEX
10
-24.5435
20
-19.3438
0
SEQEND
0
POLYLINE
8
M1_Pos_holes
70
1
0
VERTEX
10
-24.4473
20
-18.2922
0
VERTEX
10
-23.7923
20
-17.8948
0
VERTEX
10
-24.3221
20
-18.4482
0
VERTEX
10
-24.9772
20
-18.8455
0
SEQEND
0
POLYLINE
8
M1_Pos_holes
70
1
0
VERTEX
10
-24.7973
20
-17.8049
0
VERTEX
10
-24.1126
20
-17.4612
0
VERTEX
10
-24.6850
20
-17.9704
0
VERTEX
10
-25.3696
20
-18.3142
0
SEQEND
0
POLYLINE
8
M1_Pos_holes
70
1
0
VERTEX
10
-25.1072
20
-17.2913
0
VERTEX
10
-24.3972
20
-17.0033
0
VERTEX
10
-25.0084
20
-17.4652
0
VERTEX
10
-25.7184
20
-17.7532
0
SEQEND
0
POLYLINE
8
M1_Pos_holes
70
1
0
VERTEX
10
-25.3750
20
-16.7545
0
VERTEX
10
-24.6443
20
-16.5242
0
VERTEX
10
-25.2905
20
-16.9358
0
VERTEX
10
-26.0212
20
-17.1661
0
SEQEND
0
POLYLINE
8
M1_Pos_holes
70
1
0
VERTEX
10
-25.5991
20
-16.1981
0
VERTEX
10
-24.8524
20
-16.0269
0
VERTEX
10
-25.5294
20
-16.3855
0
VERTEX
10
-26.2762
20
-16.5566
0
SEQEND
0
POLYLINE
8
M1_Pos_holes
70
1
0
VERTEX
10
-25.7780
20
-15.6255
0
VERTEX
10
-25.0200
20
-15.5145
0
VERTEX
10
-25.7235
20
-15.8179
0
VERTEX
10
-26.4816
20
-15.9288
0
SEQEND
0
POLYLINE
8
M1_Pos_holes
70
1
0
VERTEX
10
-25.9106
20
-15.0404
0
VERTEX
10
-25.1461
20
-14.9904
0
VERTEX
10
-25.8717
20
-15.2366
0
VERTEX
10
-26.6361
20
-15.2866
0
SEQEND
0
POLYLINE
8
M1_Pos_holes
70
1
0
VERTEX
10
-25.9960
20
-14.4466
0
VERTEX
10
-25.2300
20
-14.4579
0
VERTEX
10
-25.9729
20
-14.6453
0
VERTEX
10
-26.7389
20
-14.6340
0
SEQEND
0
POLYLINE
8
M1_Pos_holes
70
1
0
VERTEX
10
-26.0337
20
-13.8479
0
VERTEX
10
-25.2710
20
-13.9204
0
VERTEX
10
-26.0265
20
-14.0478
0
VERTEX
10
-26.7892
20
-13.9753
0
SEQEND
0
POLYLINE
8
M1_Pos_holes
70
1
0
VERTEX
10
-26.0235
20
-13.2481
0
VERTEX
10
-25.2690
20
-13.3813
0
VERTEX
10
-26.0322
20
-13.4479
0
VERTEX
10
-26.7867
20
-13.3148
0
SEQEND
0
POLYLINE
8
M1_Pos_holes
70
1
0
VERTEX
10
-25.9653
20
-12.6510
0
VERTEX
10
-25.2239
20
-12.8441
0
VERTEX
10
-25.9900
20
-12.8495
0
VERTEX
10
-26.7314
20
-12.6565
0
SEQEND
0
POLYLINE
8
M1_Pos_holes
70
1
0
VERTEX
10
-25.8596
20
-12.0605
0
VERTEX
10
-25.1359
20
-12.3122
0
VERTEX
10
-25.9000
20
-12.2564
0
VERTEX
10
-26.6237
20
-12.0047
0
SEQEND
0
POLYLINE
8
M1_Pos_holes
70
1
0
VERTEX
10
-25.7070
20
-11.4804
0
VERTEX
10
-25.0058
20
-11.7891
0
VERTEX
10
-25.7630
20
-11.6724
0
VERTEX
10
-26.4642
20
-11.3637
0
SEQEND
0
POLYLINE
8
M1_Pos_holes
70
1
0
VERTEX
10
-25.5086
20
-10.9142
0
VERTEX
10
-24.8343
20
-11.2780
0
VERTEX
10
-25.5797
20
-11.1012
0
VERTEX
10
-26.2540
20
-10.7374
0
SEQEND
0
POLYLINE
8
M1_Pos_holes
70
1
0
VERTEX
10
-25.2655
20
-10.3658
0
VERTEX
10
-24.6225
20
-10.7823
0
VERTEX
10
-25.3514
20
-10.5464
0
VERTEX
10
-25.9945
20
-10.1300
0
SEQEND
0
POLYLINE
8
M1_Pos_holes
70
1
0
VERTEX
10
-24.9794
20
-9.8385
0
VERTEX
10
-24.3717
20
-10.3050
0
VERTEX
10
-25.0795
20
-10.0117
0
VERTEX
10
-25.6872
20
-9.5452
0
SEQEND
0
POLYLINE
8
M1_Pos_holes
70
1
0
VERTEX
10
-24.6521
20
-9.3358
0
VERTEX
10
-24.0836
20
-9.8494
0
VERTEX
10
-24.7657
20
-9.5004
0
VERTEX
10
-25.3342
20
-8.9868
0
SEQEND
0
POLYLINE
8
M1_Pos_holes
70
1
0
VERTEX
10
-24.2857
20
-8.8608
0
VERTEX
10
-23.7600
20
-9.4182
0
VERTEX
10
-24.4120
20
-9.0159
0
VERTEX
10
-24.9376
20
-8.4585
0
SEQEND
0
POLYLINE
8
M1_Pos_holes
70
1
0
VERTEX
10
-23.8824
20
-8.4167
0
VERTEX
10
-23.4030
20
-9.0143
0
VERTEX
10
-24.0208
20
-8.5611
0
VERTEX
10
-24.5002
20
-7.9635
0
SEQEND
0
ENDSEC
0
EOF