0
SECTION
2
HEADER
9
$ACADVER
1
AC1009
0
ENDSEC
0
SECTION
2
ENTITIES
0
POLYLINE
8
M1_Neg
70
1
0
VERTEX
10
4.8500
20
-3.9000
0
VERTEX
10
4.8500
20
-4.0500
0
VERTEX
10
-5.1500
20
-4.0500
0
VERTEX
10
-5.1500
20
-4.9500
0
VERTEX
10
4.8500
20
-4.9500
0
VERTEX
10
4.8500
20
-5.1000
0
VERTEX
10
5.1500
20
-5.1000
0
VERTEX
10
5.1500
20
-4.6500
0
VERTEX
10
-4.8500
20
-4.6500
0
VERTEX
10
-4.8500
20
-4.3500
0
VERTEX
10
5.1500
20
-4.3500
0
VERTEX
10
5.1500
20
-3.9000
0
SEQEND
0
POLYLINE
8
M1_Neg
70
1
0
VERTEX
10
4.8500
20
-2.7000
0
VERTEX
10
4.8500
20
-2.8500
0
VERTEX
10
-5.1500
20
-2.8500
0
VERTEX
10
-5.1500
20
-3.7500
0
VERTEX
10
4.8500
20
-3.7500
0
VERTEX
10
4.8500
20
-3.9000
0
VERTEX
10
5.1500
20
-3.9000
0
VERTEX
10
5.1500
20
-3.4500
0
VERTEX
10
-4.8500
20
-3.4500
0
VERTEX
10
-4.8500
20
-3.1500
0
VERTEX
10
5.1500
20
-3.1500
0
VERTEX
10
5.1500
20
-2.7000
0
SEQEND
0
POLYLINE
8
M1_Neg
70
1
0
VERTEX
10
4.8500
20
-1.5000
0
VERTEX
10
4.8500
20
-1.6500
0
VERTEX
10
-5.1500
20
-1.6500
0
VERTEX
10
-5.1500
20
-2.5500
0
VERTEX
10
4.8500
20
-2.5500
0
VERTEX
10
4.8500
20
-2.7000
0
VERTEX
10
5.1500
20
-2.7000
0
VERTEX
10
5.1500
20
-2.2500
0
VERTEX
10
-4.8500
20
-2.2500
0
VERTEX
10
-4.8500
20
-1.9500
0
VERTEX
10
5.1500
20
-1.9500
0
VERTEX
10
5.1500
20
-1.5000
0
SEQEND
0
POLYLINE
8
M1_Neg
70
1
0
VERTEX
10
4.8500
20
-0.3000
0
VERTEX
10
4.8500
20
-0.4500
0
VERTEX
10
-5.1500
20
-0.4500
0
VERTEX
10
-5.1500
20
-1.3500
0
VERTEX
10
4.8500
20
-1.3500
0
VERTEX
10
4.8500
20
-1.5000
0
VERTEX
10
5.1500
20
-1.5000
0
VERTEX
10
5.1500
20
-1.0500
0
VERTEX
10
-4.8500
20
-1.0500
0
VERTEX
10
-4.8500
20
-0.7500
0
VERTEX
10
5.1500
20
-0.7500
0
VERTEX
10
5.1500
20
-0.3000
0
SEQEND
0
POLYLINE
8
M1_Neg
70
1
0
VERTEX
10
4.8500
20
0.9000
0
VERTEX
10
4.8500
20
0.7500
0
VERTEX
10
-5.1500
20
0.7500
0
VERTEX
10
-5.1500
20
-0.1500
0
VERTEX
10
4.8500
20
-0.1500
0
VERTEX
10
4.8500
20
-0.3000
0
VERTEX
10
5.1500
20
-0.3000
0
VERTEX
10
5.1500
20
0.1500
0
VERTEX
10
-4.8500
20
0.1500
0
VERTEX
10
-4.8500
20
0.4500
0
VERTEX
10
5.1500
20
0.4500
0
VERTEX
10
5.1500
20
0.9000
0
SEQEND
0
POLYLINE
8
M1_Neg
70
1
0
VERTEX
10
4.8500
20
2.1000
0
VERTEX
10
4.8500
20
1.9500
0
VERTEX
10
-5.1500
20
1.9500
0
VERTEX
10
-5.1500
20
1.0500
0
VERTEX
10
4.8500
20
1.0500
0
VERTEX
10
4.8500
20
0.9000
0
VERTEX
10
5.1500
20
0.9000
0
VERTEX
10
5.1500
20
1.3500
0
VERTEX
10
-4.8500
20
1.3500
0
VERTEX
10
-4.8500
20
1.6500
0
VERTEX
10
5.1500
20
1.6500
0
VERTEX
10
5.1500
20
2.1000
0
SEQEND
0
POLYLINE
8
M1_Neg
70
1
0
VERTEX
10
4.8500
20
3.3000
0
VERTEX
10
4.8500
20
3.1500
0
VERTEX
10
-5.1500
20
3.1500
0
VERTEX
10
-5.1500
20
2.2500
0
VERTEX
10
4.8500
20
2.2500
0
VERTEX
10
4.8500
20
2.1000
0
VERTEX
10
5.1500
20
2.1000
0
VERTEX
10
5.1500
20
2.5500
0
VERTEX
10
-4.8500
20
2.5500
0
VERTEX
10
-4.8500
20
2.8500
0
VERTEX
10
5.1500
20
2.8500
0
VERTEX
10
5.1500
20
3.3000
0
SEQEND
0
POLYLINE
8
M1_Neg
70
1
0
VERTEX
10
4.8500
20
4.5000
0
VERTEX
10
4.8500
20
4.3500
0
VERTEX
10
-5.1500
20
4.3500
0
VERTEX
10
-5.1500
20
3.4500
0
VERTEX
10
4.8500
20
3.4500
0
VERTEX
10
4.8500
20
3.3000
0
VERTEX
10
5.1500
20
3.3000
0
VERTEX
10
5.1500
20
3.7500
0
VERTEX
10
-4.8500
20
3.7500
0
VERTEX
10
-4.8500
20
4.0500
0
VERTEX
10
5.1500
20
4.0500
0
VERTEX
10
5.1500
20
4.5000
0
SEQEND
0
POLYLINE
8
M1_Neg
70
1
0
VERTEX
10
-5.1500
20
5.1000
0
VERTEX
10
-5.1500
20
4.6500
0
VERTEX
10
4.8500
20
4.6500
0
VERTEX
10
4.8500
20
4.5000
0
VERTEX
10
5.1500
20
4.5000
0
VERTEX
10
5.1500
20
4.9500
0
VERTEX
10
-4.8500
20
4.9500
0
VERTEX
10
-4.8500
20
5.1000
0
SEQEND
0
POLYLINE
8
metal
70
1
0
VERTEX
10
4.8500
20
-3.9000
0
VERTEX
10
4.8500
20
-4.0500
0
VERTEX
10
-5.1500
20
-4.0500
0
VERTEX
10
-5.1500
20
-4.9500
0
VERTEX
10
4.8500
20
-4.9500
0
VERTEX
10
4.8500
20
-5.1000
0
VERTEX
10
4.9500
20
-5.1000
0
VERTEX
10
4.9500
20
-4.8500
0
VERTEX
10
-5.0500
20
-4.8500
0
VERTEX
10
-5.0500
20
-4.1500
0
VERTEX
10
4.9500
20
-4.1500
0
VERTEX
10
4.9500
20
-3.9000
0
SEQEND
0
POLYLINE
8
metal
70
1
0
VERTEX
10
4.8500
20
-2.7000
0
VERTEX
10
4.8500
20
-2.8500
0
VERTEX
10
-5.1500
20
-2.8500
0
VERTEX
10
-5.1500
20
-3.7500
0
VERTEX
10
4.8500
20
-3.7500
0
VERTEX
10
4.8500
20
-3.9000
0
VERTEX
10
4.9500
20
-3.9000
0
VERTEX
10
4.9500
20
-3.6500
0
VERTEX
10
-5.0500
20
-3.6500
0
VERTEX
10
-5.0500
20
-2.9500
0
VERTEX
10
4.9500
20
-2.9500
0
VERTEX
10
4.9500
20
-2.7000
0
SEQEND
0
POLYLINE
8
metal
70
1
0
VERTEX
10
4.8500
20
-1.5000
0
VERTEX
10
4.8500
20
-1.6500
0
VERTEX
10
-5.1500
20
-1.6500
0
VERTEX
10
-5.1500
20
-2.5500
0
VERTEX
10
4.8500
20
-2.5500
0
VERTEX
10
4.8500
20
-2.7000
0
VERTEX
10
4.9500
20
-2.7000
0
VERTEX
10
4.9500
20
-2.4500
0
VERTEX
10
-5.0500
20
-2.4500
0
VERTEX
10
-5.0500
20
-1.7500
0
VERTEX
10
4.9500
20
-1.7500
0
VERTEX
10
4.9500
20
-1.5000
0
SEQEND
0
POLYLINE
8
metal
70
1
0
VERTEX
10
4.8500
20
-0.3000
0
VERTEX
10
4.8500
20
-0.4500
0
VERTEX
10
-5.1500
20
-0.4500
0
VERTEX
10
-5.1500
20
-1.3500
0
VERTEX
10
4.8500
20
-1.3500
0
VERTEX
10
4.8500
20
-1.5000
0
VERTEX
10
4.9500
20
-1.5000
0
VERTEX
10
4.9500
20
-1.2500
0
VERTEX
10
-5.0500
20
-1.2500
0
VERTEX
10
-5.0500
20
-0.5500
0
VERTEX
10
4.9500
20
-0.5500
0
VERTEX
10
4.9500
20
-0.3000
0
SEQEND
0
POLYLINE
8
metal
70
1
0
VERTEX
10
4.8500
20
0.9000
0
VERTEX
10
4.8500
20
0.7500
0
VERTEX
10
-5.1500
20
0.7500
0
VERTEX
10
-5.1500
20
-0.1500
0
VERTEX
10
4.8500
20
-0.1500
0
VERTEX
10
4.8500
20
-0.3000
0
VERTEX
10
4.9500
20
-0.3000
0
VERTEX
10
4.9500
20
-0.0500
0
VERTEX
10
-5.0500
20
-0.0500
0
VERTEX
10
-5.0500
20
0.6500
0
VERTEX
10
4.9500
20
0.6500
0
VERTEX
10
4.9500
20
0.9000
0
SEQEND
0
POLYLINE
8
metal
70
1
0
VERTEX
10
4.8500
20
2.1000
0
VERTEX
10
4.8500
20
1.9500
0
VERTEX
10
-5.1500
20
1.9500
0
VERTEX
10
-5.1500
20
1.0500
0
VERTEX
10
4.8500
20
1.0500
0
VERTEX
10
4.8500
20
0.9000
0
VERTEX
10
4.9500
20
0.9000
0
VERTEX
10
4.9500
20
1.1500
0
VERTEX
10
-5.0500
20
1.1500
0
VERTEX
10
-5.0500
20
1.8500
0
VERTEX
10
4.9500
20
1.8500
0
VERTEX
10
4.9500
20
2.1000
0
SEQEND
0
POLYLINE
8
metal
70
1
0
VERTEX
10
4.8500
20
3.3000
0
VERTEX
10
4.8500
20
3.1500
0
VERTEX
10
-5.1500
20
3.1500
0
VERTEX
10
-5.1500
20
2.2500
0
VERTEX
10
4.8500
20
2.2500
0
VERTEX
10
4.8500
20
2.1000
0
VERTEX
10
4.9500
20
2.1000
0
VERTEX
10
4.9500
20
2.3500
0
VERTEX
10
-5.0500
20
2.3500
0
VERTEX
10
-5.0500
20
3.0500
0
VERTEX
10
4.9500
20
3.0500
0
VERTEX
10
4.9500
20
3.3000
0
SEQEND
0
POLYLINE
8
metal
70
1
0
VERTEX
10
4.8500
20
4.5000
0
VERTEX
10
4.8500
20
4.3500
0
VERTEX
10
-5.1500
20
4.3500
0
VERTEX
10
-5.1500
20
3.4500
0
VERTEX
10
4.8500
20
3.4500
0
VERTEX
10
4.8500
20
3.3000
0
VERTEX
10
4.9500
20
3.3000
0
VERTEX
10
4.9500
20
3.5500
0
VERTEX
10
-5.0500
20
3.5500
0
VERTEX
10
-5.0500
20
4.2500
0
VERTEX
10
4.9500
20
4.2500
0
VERTEX
10
4.9500
20
4.5000
0
SEQEND
0
POLYLINE
8
metal
70
1
0
VERTEX
10
-5.1500
20
5.1000
0
VERTEX
10
-5.1500
20
4.6500
0
VERTEX
10
4.8500
20
4.6500
0
VERTEX
10
4.8500
20
4.5000
0
VERTEX
10
4.9500
20
4.5000
0
VERTEX
10
4.9500
20
4.7500
0
VERTEX
10
-5.0500
20
4.7500
0
VERTEX
10
-5.0500
20
5.1000
0
SEQEND
0
POLYLINE
8
metal
70
1
0
VERTEX
10
5.0500
20
-3.9000
0
VERTEX
10
5.0500
20
-4.2500
0
VERTEX
10
-4.9500
20
-4.2500
0
VERTEX
10
-4.9500
20
-4.7500
0
VERTEX
10
5.0500
20
-4.7500
0
VERTEX
10
5.0500
20
-5.1000
0
VERTEX
10
5.1500
20
-5.1000
0
VERTEX
10
5.1500
20
-4.6500
0
VERTEX
10
-4.8500
20
-4.6500
0
VERTEX
10
-4.8500
20
-4.3500
0
VERTEX
10
5.1500
20
-4.3500
0
VERTEX
10
5.1500
20
-3.9000
0
SEQEND
0
POLYLINE
8
metal
70
1
0
VERTEX
10
5.0500
20
-2.7000
0
VERTEX
10
5.0500
20
-3.0500
0
VERTEX
10
-4.9500
20
-3.0500
0
VERTEX
10
-4.9500
20
-3.5500
0
VERTEX
10
5.0500
20
-3.5500
0
VERTEX
10
5.0500
20
-3.9000
0
VERTEX
10
5.1500
20
-3.9000
0
VERTEX
10
5.1500
20
-3.4500
0
VERTEX
10
-4.8500
20
-3.4500
0
VERTEX
10
-4.8500
20
-3.1500
0
VERTEX
10
5.1500
20
-3.1500
0
VERTEX
10
5.1500
20
-2.7000
0
SEQEND
0
POLYLINE
8
metal
70
1
0
VERTEX
10
5.0500
20
-1.5000
0
VERTEX
10
5.0500
20
-1.8500
0
VERTEX
10
-4.9500
20
-1.8500
0
VERTEX
10
-4.9500
20
-2.3500
0
VERTEX
10
5.0500
20
-2.3500
0
VERTEX
10
5.0500
20
-2.7000
0
VERTEX
10
5.1500
20
-2.7000
0
VERTEX
10
5.1500
20
-2.2500
0
VERTEX
10
-4.8500
20
-2.2500
0
VERTEX
10
-4.8500
20
-1.9500
0
VERTEX
10
5.1500
20
-1.9500
0
VERTEX
10
5.1500
20
-1.5000
0
SEQEND
0
POLYLINE
8
metal
70
1
0
VERTEX
10
5.0500
20
-0.3000
0
VERTEX
10
5.0500
20
-0.6500
0
VERTEX
10
-4.9500
20
-0.6500
0
VERTEX
10
-4.9500
20
-1.1500
0
VERTEX
10
5.0500
20
-1.1500
0
VERTEX
10
5.0500
20
-1.5000
0
VERTEX
10
5.1500
20
-1.5000
0
VERTEX
10
5.1500
20
-1.0500
0
VERTEX
10
-4.8500
20
-1.0500
0
VERTEX
10
-4.8500
20
-0.7500
0
VERTEX
10
5.1500
20
-0.7500
0
VERTEX
10
5.1500
20
-0.3000
0
SEQEND
0
POLYLINE
8
metal
70
1
0
VERTEX
10
5.0500
20
0.9000
0
VERTEX
10
5.0500
20
0.5500
0
VERTEX
10
-4.9500
20
0.5500
0
VERTEX
10
-4.9500
20
0.0500
0
VERTEX
10
5.0500
20
0.0500
0
VERTEX
10
5.0500
20
-0.3000
0
VERTEX
10
5.1500
20
-0.3000
0
VERTEX
10
5.1500
20
0.1500
0
VERTEX
10
-4.8500
20
0.1500
0
VERTEX
10
-4.8500
20
0.4500
0
VERTEX
10
5.1500
20
0.4500
0
VERTEX
10
5.1500
20
0.9000
0
SEQEND
0
POLYLINE
8
metal
70
1
0
VERTEX
10
5.0500
20
2.1000
0
VERTEX
10
5.0500
20
1.7500
0
VERTEX
10
-4.9500
20
1.7500
0
VERTEX
10
-4.9500
20
1.2500
0
VERTEX
10
5.0500
20
1.2500
0
VERTEX
10
5.0500
20
0.9000
0
VERTEX
10
5.1500
20
0.9000
0
VERTEX
10
5.1500
20
1.3500
0
VERTEX
10
-4.8500
20
1.3500
0
VERTEX
10
-4.8500
20
1.6500
0
VERTEX
10
5.1500
20
1.6500
0
VERTEX
10
5.1500
20
2.1000
0
SEQEND
0
POLYLINE
8
metal
70
1
0
VERTEX
10
5.0500
20
3.3000
0
VERTEX
10
5.0500
20
2.9500
0
VERTEX
10
-4.9500
20
2.9500
0
VERTEX
10
-4.9500
20
2.4500
0
VERTEX
10
5.0500
20
2.4500
0
VERTEX
10
5.0500
20
2.1000
0
VERTEX
10
5.1500
20
2.1000
0
VERTEX
10
5.1500
20
2.5500
0
VERTEX
10
-4.8500
20
2.5500
0
VERTEX
10
-4.8500
20
2.8500
0
VERTEX
10
5.1500
20
2.8500
0
VERTEX
10
5.1500
20
3.3000
0
SEQEND
0
POLYLINE
8
metal
70
1
0
VERTEX
10
5.0500
20
4.5000
0
VERTEX
10
5.0500
20
4.1500
0
VERTEX
10
-4.9500
20
4.1500
0
VERTEX
10
-4.9500
20
3.6500
0
VERTEX
10
5.0500
20
3.6500
0
VERTEX
10
5.0500
20
3.3000
0
VERTEX
10
5.1500
20
3.3000
0
VERTEX
10
5.1500
20
3.7500
0
VERTEX
10
-4.8500
20
3.7500
0
VERTEX
10
-4.8500
20
4.0500
0
VERTEX
10
5.1500
20
4.0500
0
VERTEX
10
5.1500
20
4.5000
0
SEQEND
0
POLYLINE
8
metal
70
1
0
VERTEX
10
-4.9500
20
5.1000
0
VERTEX
10
-4.9500
20
4.8500
0
VERTEX
10
5.0500
20
4.8500
0
VERTEX
10
5.0500
20
4.5000
0
VERTEX
10
5.1500
20
4.5000
0
VERTEX
10
5.1500
20
4.9500
0
VERTEX
10
-4.8500
20
4.9500
0
VERTEX
10
-4.8500
20
5.1000
0
SEQEND
0
POLYLINE
8
M1_Neg
70
1
0
VERTEX
10
5.0311
20
-4.9189
0
VERTEX
10
13.5163
20
-4.9189
0
VERTEX
10
17.7590
20
-9.1616
0
VERTEX
10
9.0616
20
-17.8590
0
VERTEX
10
4.8189
20
-13.6163
0
VERTEX
10
4.8189
20
-5.1311
0
SEQEND
0
POLYLINE
8
cure
70
1
0
VERTEX
10
-5.8000
20
-7.0000
0
VERTEX
10
5.8000
20
-7.0000
0
VERTEX
10
5.8000
20
7.0000
0
VERTEX
10
-5.8000
20
7.0000
0
SEQEND
0
POLYLINE
8
M2_undercutMsk
70
1
0
VERTEX
10
-8.8000
20
-7.0000
0
VERTEX
10
8.8000
20
-7.0000
0
VERTEX
10
8.8000
20
7.0000
0
VERTEX
10
-8.8000
20
7.0000
0
SEQEND
0
CIRCLE
8
M1_LD
10
11.3640
20
-11.4640
40
7.5000
0
SEQEND
0
POLYLINE
8
metal
70
1
0
VERTEX
10
4.8500
20
-5.4000
0
VERTEX
10
4.8500
20
-5.1000
0
VERTEX
10
4.9500
20
-5.1000
0
VERTEX
10
4.9500
20
-5.2500
0
VERTEX
10
9.3500
20
-18.4500
0
VERTEX
10
9.3500
20
-18.7500
0
SEQEND
0
POLYLINE
8
metal
70
1
0
VERTEX
10
7.3500
20
-20.6000
0
VERTEX
10
11.3500
20
-20.6000
0
VERTEX
10
11.3500
20
-16.6000
0
VERTEX
10
7.3500
20
-16.6000
0
SEQEND
0
POLYLINE
8
metal_BB
70
1
0
VERTEX
10
7.3500
20
-20.6000
0
VERTEX
10
11.3500
20
-20.6000
0
VERTEX
10
11.3500
20
-16.6000
0
VERTEX
10
7.3500
20
-16.6000
0
SEQEND
0
POLYLINE
8
metal
70
1
0
VERTEX
10
5.0500
20
-4.9500
0
VERTEX
10
5.0500
20
-5.1000
0
VERTEX
10
5.1500
20
-5.1000
0
VERTEX
10
18.5500
20
-9.7500
0
VERTEX
10
18.5500
20
-9.4500
0
SEQEND
0
POLYLINE
8
metal
70
1
0
VERTEX
10
16.5500
20
-11.6000
0
VERTEX
10
20.5500
20
-11.6000
0
VERTEX
10
20.5500
20
-7.6000
0
VERTEX
10
16.5500
20
-7.6000
0
SEQEND
0
POLYLINE
8
metal_BB
70
1
0
VERTEX
10
16.5500
20
-11.6000
0
VERTEX
10
20.5500
20
-11.6000
0
VERTEX
10
20.5500
20
-7.6000
0
VERTEX
10
16.5500
20
-7.6000
0
SEQEND
0
POLYLINE
8
M1_Pos_holes
70
1
0
VERTEX
10
6.1314
20
-16.8380
0
VERTEX
10
6.5978
20
-16.2302
0
VERTEX
10
5.9899
20
-16.6966
0
VERTEX
10
5.5236
20
-17.3044
0
SEQEND
0
POLYLINE
8
M1_Pos_holes
70
1
0
VERTEX
10
6.5776
20
-17.2389
0
VERTEX
10
6.9939
20
-16.5958
0
VERTEX
10
6.4253
20
-17.1093
0
VERTEX
10
6.0090
20
-17.7524
0
SEQEND
0
POLYLINE
8
M1_Pos_holes
70
1
0
VERTEX
10
7.0544
20
-17.6030
0
VERTEX
10
7.4180
20
-16.9286
0
VERTEX
10
6.8922
20
-17.4859
0
VERTEX
10
6.5286
20
-18.1602
0
SEQEND
0
POLYLINE
8
M1_Pos_holes
70
1
0
VERTEX
10
7.5588
20
-17.9277
0
VERTEX
10
7.8673
20
-17.2265
0
VERTEX
10
7.3878
20
-17.8240
0
VERTEX
10
7.0792
20
-18.5252
0
SEQEND
0
POLYLINE
8
M1_Pos_holes
70
1
0
VERTEX
10
8.0875
20
-18.2112
0
VERTEX
10
8.3390
20
-17.4875
0
VERTEX
10
7.9088
20
-18.1214
0
VERTEX
10
7.6572
20
-18.8451
0
SEQEND
0
POLYLINE
8
M1_Pos_holes
70
1
0
VERTEX
10
8.6372
20
-18.4514
0
VERTEX
10
8.8300
20
-17.7100
0
VERTEX
10
8.4518
20
-18.3762
0
VERTEX
10
8.2590
20
-19.1177
0
SEQEND
0
POLYLINE
8
M1_Pos_holes
70
1
0
VERTEX
10
9.2043
20
-18.6470
0
VERTEX
10
9.3373
20
-17.8925
0
VERTEX
10
9.0135
20
-18.5868
0
VERTEX
10
8.8805
20
-19.3413
0
SEQEND
0
POLYLINE
8
M1_Pos_holes
70
1
0
VERTEX
10
9.7852
20
-18.7966
0
VERTEX
10
9.8575
20
-18.0339
0
VERTEX
10
9.5903
20
-18.7519
0
VERTEX
10
9.5180
20
-19.5146
0
SEQEND
0
POLYLINE
8
M1_Pos_holes
70
1
0
VERTEX
10
10.3763
20
-18.8993
0
VERTEX
10
10.3874
20
-18.1333
0
VERTEX
10
10.1784
20
-18.8703
0
VERTEX
10
10.1673
20
-19.6364
0
SEQEND
0
POLYLINE
8
M1_Pos_holes
70
1
0
VERTEX
10
10.9736
20
-18.9545
0
VERTEX
10
10.9235
20
-18.1900
0
VERTEX
10
10.7740
20
-18.9414
0
VERTEX
10
10.8242
20
-19.7059
0
SEQEND
0
POLYLINE
8
M1_Pos_holes
70
1
0
VERTEX
10
11.5735
20
-18.9617
0
VERTEX
10
11.4624
20
-18.2037
0
VERTEX
10
11.3735
20
-18.9646
0
VERTEX
10
11.4846
20
-19.7227
0
SEQEND
0
POLYLINE
8
M1_Pos_holes
70
1
0
VERTEX
10
12.1720
20
-18.9210
0
VERTEX
10
12.0007
20
-18.1742
0
VERTEX
10
11.9729
20
-18.9399
0
VERTEX
10
12.1442
20
-19.6866
0
SEQEND
0
POLYLINE
8
M1_Pos_holes
70
1
0
VERTEX
10
12.7653
20
-18.8326
0
VERTEX
10
12.5349
20
-18.1019
0
VERTEX
10
12.5684
20
-18.8673
0
VERTEX
10
12.7988
20
-19.5980
0
SEQEND
0
POLYLINE
8
M1_Pos_holes
70
1
0
VERTEX
10
13.3497
20
-18.6970
0
VERTEX
10
13.0616
20
-17.9871
0
VERTEX
10
13.1561
20
-18.7474
0
VERTEX
10
13.4442
20
-19.4573
0
SEQEND
0
POLYLINE
8
M1_Pos_holes
70
1
0
VERTEX
10
13.9214
20
-18.5152
0
VERTEX
10
13.5775
20
-17.8306
0
VERTEX
10
13.7325
20
-18.5809
0
VERTEX
10
14.0763
20
-19.2655
0
SEQEND
0
POLYLINE
8
M1_Pos_holes
70
1
0
VERTEX
10
14.4767
20
-18.2883
0
VERTEX
10
14.0792
20
-17.6333
0
VERTEX
10
14.2936
20
-18.3688
0
VERTEX
10
14.6911
20
-19.0238
0
SEQEND
0
POLYLINE
8
M1_Pos_holes
70
1
0
VERTEX
10
15.0121
20
-18.0177
0
VERTEX
10
14.5635
20
-17.3966
0
VERTEX
10
14.8361
20
-18.1126
0
VERTEX
10
15.2846
20
-18.7337
0
SEQEND
0
POLYLINE
8
M1_Pos_holes
70
1
0
VERTEX
10
15.5242
20
-17.7052
0
VERTEX
10
15.0274
20
-17.1219
0
VERTEX
10
15.3563
20
-17.8139
0
VERTEX
10
15.8530
20
-18.3971
0
SEQEND
0
POLYLINE
8
M1_Pos_holes
70
1
0
VERTEX
10
16.0096
20
-17.3528
0
VERTEX
10
15.4678
20
-16.8111
0
VERTEX
10
15.8510
20
-17.4745
0
VERTEX
10
16.3927
20
-18.0162
0
SEQEND
0
POLYLINE
8
M1_Pos_holes
70
1
0
VERTEX
10
16.4654
20
-16.9627
0
VERTEX
10
15.8820
20
-16.4660
0
VERTEX
10
16.3169
20
-17.0967
0
VERTEX
10
16.9003
20
-17.5934
0
SEQEND
0
POLYLINE
8
M1_Pos_holes
70
1
0
VERTEX
10
16.8885
20
-16.5374
0
VERTEX
10
16.2673
20
-16.0890
0
VERTEX
10
16.7512
20
-16.6829
0
VERTEX
10
17.3724
20
-17.1313
0
SEQEND
0
POLYLINE
8
M1_Pos_holes
70
1
0
VERTEX
10
17.2762
20
-16.0797
0
VERTEX
10
16.6212
20
-15.6823
0
VERTEX
10
17.1511
20
-16.2357
0
VERTEX
10
17.8061
20
-16.6330
0
SEQEND
0
POLYLINE
8
M1_Pos_holes
70
1
0
VERTEX
10
17.6262
20
-15.5924
0
VERTEX
10
16.9415
20
-15.2487
0
VERTEX
10
17.5139
20
-15.7579
0
VERTEX
10
18.1986
20
-16.1017
0
SEQEND
0
POLYLINE
8
M1_Pos_holes
70
1
0
VERTEX
10
17.9361
20
-15.0788
0
VERTEX
10
17.2261
20
-14.7909
0
VERTEX
10
17.8374
20
-15.2527
0
VERTEX
10
18.5473
20
-15.5407
0
SEQEND
0
POLYLINE
8
M1_Pos_holes
70
1
0
VERTEX
10
18.2040
20
-14.5420
0
VERTEX
10
17.4733
20
-14.3117
0
VERTEX
10
18.1195
20
-14.7233
0
VERTEX
10
18.8502
20
-14.9536
0
SEQEND
0
POLYLINE
8
M1_Pos_holes
70
1
0
VERTEX
10
18.4281
20
-13.9856
0
VERTEX
10
17.6813
20
-13.8144
0
VERTEX
10
18.3583
20
-14.1730
0
VERTEX
10
19.1051
20
-14.3442
0
SEQEND
0
POLYLINE
8
M1_Pos_holes
70
1
0
VERTEX
10
18.6070
20
-13.4130
0
VERTEX
10
17.8489
20
-13.3021
0
VERTEX
10
18.5524
20
-13.6054
0
VERTEX
10
19.3105
20
-13.7163
0
SEQEND
0
POLYLINE
8
M1_Pos_holes
70
1
0
VERTEX
10
18.7396
20
-12.8279
0
VERTEX
10
17.9751
20
-12.7779
0
VERTEX
10
18.7006
20
-13.0241
0
VERTEX
10
19.4651
20
-13.0741
0
SEQEND
0
POLYLINE
8
M1_Pos_holes
70
1
0
VERTEX
10
18.8250
20
-12.2341
0
VERTEX
10
18.0589
20
-12.2454
0
VERTEX
10
18.8018
20
-12.4328
0
VERTEX
10
19.5678
20
-12.4215
0
SEQEND
0
POLYLINE
8
M1_Pos_holes
70
1
0
VERTEX
10
18.8627
20
-11.6354
0
VERTEX
10
18.1000
20
-11.7079
0
VERTEX
10
18.8554
20
-11.8353
0
VERTEX
10
19.6181
20
-11.7628
0
SEQEND
0
POLYLINE
8
M1_Pos_holes
70
1
0
VERTEX
10
18.8524
20
-11.0356
0
VERTEX
10
18.0979
20
-11.1688
0
VERTEX
10
18.8611
20
-11.2354
0
VERTEX
10
19.6156
20
-11.1023
0
SEQEND
0
POLYLINE
8
M1_Pos_holes
70
1
0
VERTEX
10
18.7942
20
-10.4386
0
VERTEX
10
18.0528
20
-10.6316
0
VERTEX
10
18.8189
20
-10.6370
0
VERTEX
10
19.5603
20
-10.4440
0
SEQEND
0
POLYLINE
8
M1_Pos_holes
70
1
0
VERTEX
10
18.6885
20
-9.8480
0
VERTEX
10
17.9649
20
-10.0997
0
VERTEX
10
18.7290
20
-10.0439
0
VERTEX
10
19.4526
20
-9.7922
0
SEQEND
0
POLYLINE
8
M1_Pos_holes
70
1
0
VERTEX
10
18.5359
20
-9.2679
0
VERTEX
10
17.8347
20
-9.5766
0
VERTEX
10
18.5919
20
-9.4599
0
VERTEX
10
19.2931
20
-9.1512
0
SEQEND
0
POLYLINE
8
M1_Pos_holes
70
1
0
VERTEX
10
18.3375
20
-8.7018
0
VERTEX
10
17.6632
20
-9.0655
0
VERTEX
10
18.4087
20
-8.8887
0
VERTEX
10
19.0829
20
-8.5249
0
SEQEND
0
POLYLINE
8
M1_Pos_holes
70
1
0
VERTEX
10
18.0945
20
-8.1533
0
VERTEX
10
17.4514
20
-8.5698
0
VERTEX
10
18.1803
20
-8.3339
0
VERTEX
10
18.8234
20
-7.9175
0
SEQEND
0
POLYLINE
8
M1_Pos_holes
70
1
0
VERTEX
10
17.8084
20
-7.6260
0
VERTEX
10
17.2006
20
-8.0925
0
VERTEX
10
17.9084
20
-7.7992
0
VERTEX
10
18.5161
20
-7.3327
0
SEQEND
0
POLYLINE
8
M1_Pos_holes
70
1
0
VERTEX
10
17.4810
20
-7.1233
0
VERTEX
10
16.9125
20
-7.6369
0
VERTEX
10
17.5946
20
-7.2879
0
VERTEX
10
18.1631
20
-6.7743
0
SEQEND
0
POLYLINE
8
M1_Pos_holes
70
1
0
VERTEX
10
17.1146
20
-6.6483
0
VERTEX
10
16.5890
20
-7.2057
0
VERTEX
10
17.2409
20
-6.8034
0
VERTEX
10
17.7666
20
-6.2460
0
SEQEND
0
POLYLINE
8
M1_Pos_holes
70
1
0
VERTEX
10
16.7114
20
-6.2042
0
VERTEX
10
16.2320
20
-6.8018
0
VERTEX
10
16.8497
20
-6.3486
0
VERTEX
10
17.3291
20
-5.7510
0
SEQEND
0
ENDSEC
0
EOF