0
SECTION
2
HEADER
9
$ACADVER
1
AC1009
0
ENDSEC
0
SECTION
2
ENTITIES
0
POLYLINE
8
M1_Neg
70
1
0
VERTEX
10
-0.4596
20
-51.1500
0
VERTEX
10
-0.4000
20
-47.6500
0
VERTEX
10
-0.4000
20
-44.1500
0
VERTEX
10
-1.2000
20
-40.6500
0
VERTEX
10
-0.4000
20
-37.1500
0
VERTEX
10
-0.1500
20
-27.1500
0
VERTEX
10
0.1500
20
-27.1500
0
VERTEX
10
0.4000
20
-37.1500
0
VERTEX
10
1.2000
20
-40.6500
0
VERTEX
10
0.4000
20
-44.1500
0
VERTEX
10
0.4000
20
-47.6500
0
VERTEX
10
0.4596
20
-51.1500
0
SEQEND
0
POLYLINE
8
M1_Neg
70
1
0
VERTEX
10
-0.4573
20
-61.1868
0
VERTEX
10
-0.4580
20
-61.1754
0
VERTEX
10
-0.4602
20
-61.1640
0
VERTEX
10
-0.4638
20
-61.1527
0
VERTEX
10
-0.4687
20
-61.1413
0
VERTEX
10
-0.4749
20
-61.1299
0
VERTEX
10
-0.4823
20
-61.1185
0
VERTEX
10
-0.4907
20
-61.1071
0
VERTEX
10
-0.5001
20
-61.0958
0
VERTEX
10
-0.5102
20
-61.0844
0
VERTEX
10
-0.5209
20
-61.0730
0
VERTEX
10
-0.5320
20
-61.0616
0
VERTEX
10
-0.5433
20
-61.0502
0
VERTEX
10
-0.5547
20
-61.0389
0
VERTEX
10
-0.5660
20
-61.0275
0
VERTEX
10
-0.5769
20
-61.0161
0
VERTEX
10
-0.5873
20
-61.0047
0
VERTEX
10
-0.5970
20
-60.9933
0
VERTEX
10
-0.6060
20
-60.9820
0
VERTEX
10
-0.6139
20
-60.9706
0
VERTEX
10
-0.6207
20
-60.9592
0
VERTEX
10
-0.6263
20
-60.9478
0
VERTEX
10
-0.6306
20
-60.9364
0
VERTEX
10
-0.6334
20
-60.9251
0
VERTEX
10
-0.6349
20
-60.9137
0
VERTEX
10
-0.6349
20
-60.9023
0
VERTEX
10
-0.6334
20
-60.8909
0
VERTEX
10
-0.6306
20
-60.8796
0
VERTEX
10
-0.6263
20
-60.8682
0
VERTEX
10
-0.6207
20
-60.8568
0
VERTEX
10
-0.6139
20
-60.8454
0
VERTEX
10
-0.6060
20
-60.8340
0
VERTEX
10
-0.5970
20
-60.8227
0
VERTEX
10
-0.5873
20
-60.8113
0
VERTEX
10
-0.5769
20
-60.7999
0
VERTEX
10
-0.5660
20
-60.7885
0
VERTEX
10
-0.5547
20
-60.7771
0
VERTEX
10
-0.5433
20
-60.7658
0
VERTEX
10
-0.5320
20
-60.7544
0
VERTEX
10
-0.5209
20
-60.7430
0
VERTEX
10
-0.5102
20
-60.7316
0
VERTEX
10
-0.5001
20
-60.7202
0
VERTEX
10
-0.4907
20
-60.7089
0
VERTEX
10
-0.4823
20
-60.6975
0
VERTEX
10
-0.4749
20
-60.6861
0
VERTEX
10
-0.4687
20
-60.6747
0
VERTEX
10
-0.4638
20
-60.6633
0
VERTEX
10
-0.4602
20
-60.6520
0
VERTEX
10
-0.4580
20
-60.6406
0
VERTEX
10
-0.4573
20
-60.6292
0
VERTEX
10
0.4573
20
-60.6292
0
VERTEX
10
0.4580
20
-60.6406
0
VERTEX
10
0.4602
20
-60.6520
0
VERTEX
10
0.4638
20
-60.6633
0
VERTEX
10
0.4687
20
-60.6747
0
VERTEX
10
0.4749
20
-60.6861
0
VERTEX
10
0.4823
20
-60.6975
0
VERTEX
10
0.4907
20
-60.7089
0
VERTEX
10
0.5001
20
-60.7202
0
VERTEX
10
0.5102
20
-60.7316
0
VERTEX
10
0.5209
20
-60.7430
0
VERTEX
10
0.5320
20
-60.7544
0
VERTEX
10
0.5433
20
-60.7658
0
VERTEX
10
0.5547
20
-60.7771
0
VERTEX
10
0.5660
20
-60.7885
0
VERTEX
10
0.5769
20
-60.7999
0
VERTEX
10
0.5873
20
-60.8113
0
VERTEX
10
0.5970
20
-60.8227
0
VERTEX
10
0.6060
20
-60.8340
0
VERTEX
10
0.6139
20
-60.8454
0
VERTEX
10
0.6207
20
-60.8568
0
VERTEX
10
0.6263
20
-60.8682
0
VERTEX
10
0.6306
20
-60.8796
0
VERTEX
10
0.6334
20
-60.8909
0
VERTEX
10
0.6349
20
-60.9023
0
VERTEX
10
0.6349
20
-60.9137
0
VERTEX
10
0.6334
20
-60.9251
0
VERTEX
10
0.6306
20
-60.9364
0
VERTEX
10
0.6263
20
-60.9478
0
VERTEX
10
0.6207
20
-60.9592
0
VERTEX
10
0.6139
20
-60.9706
0
VERTEX
10
0.6060
20
-60.9820
0
VERTEX
10
0.5970
20
-60.9933
0
VERTEX
10
0.5873
20
-61.0047
0
VERTEX
10
0.5769
20
-61.0161
0
VERTEX
10
0.5660
20
-61.0275
0
VERTEX
10
0.5547
20
-61.0389
0
VERTEX
10
0.5433
20
-61.0502
0
VERTEX
10
0.5320
20
-61.0616
0
VERTEX
10
0.5209
20
-61.0730
0
VERTEX
10
0.5102
20
-61.0844
0
VERTEX
10
0.5001
20
-61.0958
0
VERTEX
10
0.4907
20
-61.1071
0
VERTEX
10
0.4823
20
-61.1185
0
VERTEX
10
0.4749
20
-61.1299
0
VERTEX
10
0.4687
20
-61.1413
0
VERTEX
10
0.4638
20
-61.1527
0
VERTEX
10
0.4602
20
-61.1640
0
VERTEX
10
0.4580
20
-61.1754
0
VERTEX
10
0.4573
20
-61.1868
0
SEQEND
0
POLYLINE
8
M1_Neg
70
1
0
VERTEX
10
-0.4573
20
-60.6292
0
VERTEX
10
-0.4580
20
-60.6178
0
VERTEX
10
-0.4602
20
-60.6064
0
VERTEX
10
-0.4638
20
-60.5951
0
VERTEX
10
-0.4687
20
-60.5837
0
VERTEX
10
-0.4749
20
-60.5723
0
VERTEX
10
-0.4823
20
-60.5609
0
VERTEX
10
-0.4907
20
-60.5495
0
VERTEX
10
-0.5001
20
-60.5382
0
VERTEX
10
-0.5102
20
-60.5268
0
VERTEX
10
-0.5209
20
-60.5154
0
VERTEX
10
-0.5320
20
-60.5040
0
VERTEX
10
-0.5433
20
-60.4926
0
VERTEX
10
-0.5547
20
-60.4813
0
VERTEX
10
-0.5660
20
-60.4699
0
VERTEX
10
-0.5769
20
-60.4585
0
VERTEX
10
-0.5873
20
-60.4471
0
VERTEX
10
-0.5970
20
-60.4357
0
VERTEX
10
-0.6060
20
-60.4244
0
VERTEX
10
-0.6139
20
-60.4130
0
VERTEX
10
-0.6207
20
-60.4016
0
VERTEX
10
-0.6263
20
-60.3902
0
VERTEX
10
-0.6306
20
-60.3788
0
VERTEX
10
-0.6334
20
-60.3675
0
VERTEX
10
-0.6349
20
-60.3561
0
VERTEX
10
-0.6349
20
-60.3447
0
VERTEX
10
-0.6334
20
-60.3333
0
VERTEX
10
-0.6306
20
-60.3220
0
VERTEX
10
-0.6263
20
-60.3106
0
VERTEX
10
-0.6207
20
-60.2992
0
VERTEX
10
-0.6139
20
-60.2878
0
VERTEX
10
-0.6060
20
-60.2764
0
VERTEX
10
-0.5970
20
-60.2651
0
VERTEX
10
-0.5873
20
-60.2537
0
VERTEX
10
-0.5769
20
-60.2423
0
VERTEX
10
-0.5660
20
-60.2309
0
VERTEX
10
-0.5547
20
-60.2195
0
VERTEX
10
-0.5433
20
-60.2082
0
VERTEX
10
-0.5320
20
-60.1968
0
VERTEX
10
-0.5209
20
-60.1854
0
VERTEX
10
-0.5102
20
-60.1740
0
VERTEX
10
-0.5001
20
-60.1626
0
VERTEX
10
-0.4907
20
-60.1513
0
VERTEX
10
-0.4823
20
-60.1399
0
VERTEX
10
-0.4749
20
-60.1285
0
VERTEX
10
-0.4687
20
-60.1171
0
VERTEX
10
-0.4638
20
-60.1057
0
VERTEX
10
-0.4602
20
-60.0944
0
VERTEX
10
-0.4580
20
-60.0830
0
VERTEX
10
-0.4573
20
-60.0716
0
VERTEX
10
0.4573
20
-60.0716
0
VERTEX
10
0.4580
20
-60.0830
0
VERTEX
10
0.4602
20
-60.0944
0
VERTEX
10
0.4638
20
-60.1057
0
VERTEX
10
0.4687
20
-60.1171
0
VERTEX
10
0.4749
20
-60.1285
0
VERTEX
10
0.4823
20
-60.1399
0
VERTEX
10
0.4907
20
-60.1513
0
VERTEX
10
0.5001
20
-60.1626
0
VERTEX
10
0.5102
20
-60.1740
0
VERTEX
10
0.5209
20
-60.1854
0
VERTEX
10
0.5320
20
-60.1968
0
VERTEX
10
0.5433
20
-60.2082
0
VERTEX
10
0.5547
20
-60.2195
0
VERTEX
10
0.5660
20
-60.2309
0
VERTEX
10
0.5769
20
-60.2423
0
VERTEX
10
0.5873
20
-60.2537
0
VERTEX
10
0.5970
20
-60.2651
0
VERTEX
10
0.6060
20
-60.2764
0
VERTEX
10
0.6139
20
-60.2878
0
VERTEX
10
0.6207
20
-60.2992
0
VERTEX
10
0.6263
20
-60.3106
0
VERTEX
10
0.6306
20
-60.3220
0
VERTEX
10
0.6334
20
-60.3333
0
VERTEX
10
0.6349
20
-60.3447
0
VERTEX
10
0.6349
20
-60.3561
0
VERTEX
10
0.6334
20
-60.3675
0
VERTEX
10
0.6306
20
-60.3788
0
VERTEX
10
0.6263
20
-60.3902
0
VERTEX
10
0.6207
20
-60.4016
0
VERTEX
10
0.6139
20
-60.4130
0
VERTEX
10
0.6060
20
-60.4244
0
VERTEX
10
0.5970
20
-60.4357
0
VERTEX
10
0.5873
20
-60.4471
0
VERTEX
10
0.5769
20
-60.4585
0
VERTEX
10
0.5660
20
-60.4699
0
VERTEX
10
0.5547
20
-60.4813
0
VERTEX
10
0.5433
20
-60.4926
0
VERTEX
10
0.5320
20
-60.5040
0
VERTEX
10
0.5209
20
-60.5154
0
VERTEX
10
0.5102
20
-60.5268
0
VERTEX
10
0.5001
20
-60.5382
0
VERTEX
10
0.4907
20
-60.5495
0
VERTEX
10
0.4823
20
-60.5609
0
VERTEX
10
0.4749
20
-60.5723
0
VERTEX
10
0.4687
20
-60.5837
0
VERTEX
10
0.4638
20
-60.5951
0
VERTEX
10
0.4602
20
-60.6064
0
VERTEX
10
0.4580
20
-60.6178
0
VERTEX
10
0.4573
20
-60.6292
0
SEQEND
0
POLYLINE
8
M1_Neg
70
1
0
VERTEX
10
-0.4573
20
-60.0716
0
VERTEX
10
-0.4580
20
-60.0602
0
VERTEX
10
-0.4602
20
-60.0488
0
VERTEX
10
-0.4638
20
-60.0375
0
VERTEX
10
-0.4687
20
-60.0261
0
VERTEX
10
-0.4749
20
-60.0147
0
VERTEX
10
-0.4823
20
-60.0033
0
VERTEX
10
-0.4907
20
-59.9919
0
VERTEX
10
-0.5001
20
-59.9806
0
VERTEX
10
-0.5102
20
-59.9692
0
VERTEX
10
-0.5209
20
-59.9578
0
VERTEX
10
-0.5320
20
-59.9464
0
VERTEX
10
-0.5433
20
-59.9350
0
VERTEX
10
-0.5547
20
-59.9237
0
VERTEX
10
-0.5660
20
-59.9123
0
VERTEX
10
-0.5769
20
-59.9009
0
VERTEX
10
-0.5873
20
-59.8895
0
VERTEX
10
-0.5970
20
-59.8781
0
VERTEX
10
-0.6060
20
-59.8668
0
VERTEX
10
-0.6139
20
-59.8554
0
VERTEX
10
-0.6207
20
-59.8440
0
VERTEX
10
-0.6263
20
-59.8326
0
VERTEX
10
-0.6306
20
-59.8212
0
VERTEX
10
-0.6334
20
-59.8099
0
VERTEX
10
-0.6349
20
-59.7985
0
VERTEX
10
-0.6349
20
-59.7871
0
VERTEX
10
-0.6334
20
-59.7757
0
VERTEX
10
-0.6306
20
-59.7644
0
VERTEX
10
-0.6263
20
-59.7530
0
VERTEX
10
-0.6207
20
-59.7416
0
VERTEX
10
-0.6139
20
-59.7302
0
VERTEX
10
-0.6060
20
-59.7188
0
VERTEX
10
-0.5970
20
-59.7075
0
VERTEX
10
-0.5873
20
-59.6961
0
VERTEX
10
-0.5769
20
-59.6847
0
VERTEX
10
-0.5660
20
-59.6733
0
VERTEX
10
-0.5547
20
-59.6619
0
VERTEX
10
-0.5433
20
-59.6506
0
VERTEX
10
-0.5320
20
-59.6392
0
VERTEX
10
-0.5209
20
-59.6278
0
VERTEX
10
-0.5102
20
-59.6164
0
VERTEX
10
-0.5001
20
-59.6050
0
VERTEX
10
-0.4907
20
-59.5937
0
VERTEX
10
-0.4823
20
-59.5823
0
VERTEX
10
-0.4749
20
-59.5709
0
VERTEX
10
-0.4687
20
-59.5595
0
VERTEX
10
-0.4638
20
-59.5481
0
VERTEX
10
-0.4602
20
-59.5368
0
VERTEX
10
-0.4580
20
-59.5254
0
VERTEX
10
-0.4573
20
-59.5140
0
VERTEX
10
0.4573
20
-59.5140
0
VERTEX
10
0.4580
20
-59.5254
0
VERTEX
10
0.4602
20
-59.5368
0
VERTEX
10
0.4638
20
-59.5481
0
VERTEX
10
0.4687
20
-59.5595
0
VERTEX
10
0.4749
20
-59.5709
0
VERTEX
10
0.4823
20
-59.5823
0
VERTEX
10
0.4907
20
-59.5937
0
VERTEX
10
0.5001
20
-59.6050
0
VERTEX
10
0.5102
20
-59.6164
0
VERTEX
10
0.5209
20
-59.6278
0
VERTEX
10
0.5320
20
-59.6392
0
VERTEX
10
0.5433
20
-59.6506
0
VERTEX
10
0.5547
20
-59.6619
0
VERTEX
10
0.5660
20
-59.6733
0
VERTEX
10
0.5769
20
-59.6847
0
VERTEX
10
0.5873
20
-59.6961
0
VERTEX
10
0.5970
20
-59.7075
0
VERTEX
10
0.6060
20
-59.7188
0
VERTEX
10
0.6139
20
-59.7302
0
VERTEX
10
0.6207
20
-59.7416
0
VERTEX
10
0.6263
20
-59.7530
0
VERTEX
10
0.6306
20
-59.7644
0
VERTEX
10
0.6334
20
-59.7757
0
VERTEX
10
0.6349
20
-59.7871
0
VERTEX
10
0.6349
20
-59.7985
0
VERTEX
10
0.6334
20
-59.8099
0
VERTEX
10
0.6306
20
-59.8212
0
VERTEX
10
0.6263
20
-59.8326
0
VERTEX
10
0.6207
20
-59.8440
0
VERTEX
10
0.6139
20
-59.8554
0
VERTEX
10
0.6060
20
-59.8668
0
VERTEX
10
0.5970
20
-59.8781
0
VERTEX
10
0.5873
20
-59.8895
0
VERTEX
10
0.5769
20
-59.9009
0
VERTEX
10
0.5660
20
-59.9123
0
VERTEX
10
0.5547
20
-59.9237
0
VERTEX
10
0.5433
20
-59.9350
0
VERTEX
10
0.5320
20
-59.9464
0
VERTEX
10
0.5209
20
-59.9578
0
VERTEX
10
0.5102
20
-59.9692
0
VERTEX
10
0.5001
20
-59.9806
0
VERTEX
10
0.4907
20
-59.9919
0
VERTEX
10
0.4823
20
-60.0033
0
VERTEX
10
0.4749
20
-60.0147
0
VERTEX
10
0.4687
20
-60.0261
0
VERTEX
10
0.4638
20
-60.0375
0
VERTEX
10
0.4602
20
-60.0488
0
VERTEX
10
0.4580
20
-60.0602
0
VERTEX
10
0.4573
20
-60.0716
0
SEQEND
0
POLYLINE
8
M1_Neg
70
1
0
VERTEX
10
-0.4573
20
-59.5140
0
VERTEX
10
-0.4580
20
-59.5026
0
VERTEX
10
-0.4602
20
-59.4912
0
VERTEX
10
-0.4638
20
-59.4799
0
VERTEX
10
-0.4687
20
-59.4685
0
VERTEX
10
-0.4749
20
-59.4571
0
VERTEX
10
-0.4823
20
-59.4457
0
VERTEX
10
-0.4907
20
-59.4343
0
VERTEX
10
-0.5001
20
-59.4230
0
VERTEX
10
-0.5102
20
-59.4116
0
VERTEX
10
-0.5209
20
-59.4002
0
VERTEX
10
-0.5320
20
-59.3888
0
VERTEX
10
-0.5433
20
-59.3774
0
VERTEX
10
-0.5547
20
-59.3661
0
VERTEX
10
-0.5660
20
-59.3547
0
VERTEX
10
-0.5769
20
-59.3433
0
VERTEX
10
-0.5873
20
-59.3319
0
VERTEX
10
-0.5970
20
-59.3205
0
VERTEX
10
-0.6060
20
-59.3092
0
VERTEX
10
-0.6139
20
-59.2978
0
VERTEX
10
-0.6207
20
-59.2864
0
VERTEX
10
-0.6263
20
-59.2750
0
VERTEX
10
-0.6306
20
-59.2636
0
VERTEX
10
-0.6334
20
-59.2523
0
VERTEX
10
-0.6349
20
-59.2409
0
VERTEX
10
-0.6349
20
-59.2295
0
VERTEX
10
-0.6334
20
-59.2181
0
VERTEX
10
-0.6306
20
-59.2068
0
VERTEX
10
-0.6263
20
-59.1954
0
VERTEX
10
-0.6207
20
-59.1840
0
VERTEX
10
-0.6139
20
-59.1726
0
VERTEX
10
-0.6060
20
-59.1612
0
VERTEX
10
-0.5970
20
-59.1499
0
VERTEX
10
-0.5873
20
-59.1385
0
VERTEX
10
-0.5769
20
-59.1271
0
VERTEX
10
-0.5660
20
-59.1157
0
VERTEX
10
-0.5547
20
-59.1043
0
VERTEX
10
-0.5433
20
-59.0930
0
VERTEX
10
-0.5320
20
-59.0816
0
VERTEX
10
-0.5209
20
-59.0702
0
VERTEX
10
-0.5102
20
-59.0588
0
VERTEX
10
-0.5001
20
-59.0474
0
VERTEX
10
-0.4907
20
-59.0361
0
VERTEX
10
-0.4823
20
-59.0247
0
VERTEX
10
-0.4749
20
-59.0133
0
VERTEX
10
-0.4687
20
-59.0019
0
VERTEX
10
-0.4638
20
-58.9905
0
VERTEX
10
-0.4602
20
-58.9792
0
VERTEX
10
-0.4580
20
-58.9678
0
VERTEX
10
-0.4573
20
-58.9564
0
VERTEX
10
0.4573
20
-58.9564
0
VERTEX
10
0.4580
20
-58.9678
0
VERTEX
10
0.4602
20
-58.9792
0
VERTEX
10
0.4638
20
-58.9905
0
VERTEX
10
0.4687
20
-59.0019
0
VERTEX
10
0.4749
20
-59.0133
0
VERTEX
10
0.4823
20
-59.0247
0
VERTEX
10
0.4907
20
-59.0361
0
VERTEX
10
0.5001
20
-59.0474
0
VERTEX
10
0.5102
20
-59.0588
0
VERTEX
10
0.5209
20
-59.0702
0
VERTEX
10
0.5320
20
-59.0816
0
VERTEX
10
0.5433
20
-59.0930
0
VERTEX
10
0.5547
20
-59.1043
0
VERTEX
10
0.5660
20
-59.1157
0
VERTEX
10
0.5769
20
-59.1271
0
VERTEX
10
0.5873
20
-59.1385
0
VERTEX
10
0.5970
20
-59.1499
0
VERTEX
10
0.6060
20
-59.1612
0
VERTEX
10
0.6139
20
-59.1726
0
VERTEX
10
0.6207
20
-59.1840
0
VERTEX
10
0.6263
20
-59.1954
0
VERTEX
10
0.6306
20
-59.2068
0
VERTEX
10
0.6334
20
-59.2181
0
VERTEX
10
0.6349
20
-59.2295
0
VERTEX
10
0.6349
20
-59.2409
0
VERTEX
10
0.6334
20
-59.2523
0
VERTEX
10
0.6306
20
-59.2636
0
VERTEX
10
0.6263
20
-59.2750
0
VERTEX
10
0.6207
20
-59.2864
0
VERTEX
10
0.6139
20
-59.2978
0
VERTEX
10
0.6060
20
-59.3092
0
VERTEX
10
0.5970
20
-59.3205
0
VERTEX
10
0.5873
20
-59.3319
0
VERTEX
10
0.5769
20
-59.3433
0
VERTEX
10
0.5660
20
-59.3547
0
VERTEX
10
0.5547
20
-59.3661
0
VERTEX
10
0.5433
20
-59.3774
0
VERTEX
10
0.5320
20
-59.3888
0
VERTEX
10
0.5209
20
-59.4002
0
VERTEX
10
0.5102
20
-59.4116
0
VERTEX
10
0.5001
20
-59.4230
0
VERTEX
10
0.4907
20
-59.4343
0
VERTEX
10
0.4823
20
-59.4457
0
VERTEX
10
0.4749
20
-59.4571
0
VERTEX
10
0.4687
20
-59.4685
0
VERTEX
10
0.4638
20
-59.4799
0
VERTEX
10
0.4602
20
-59.4912
0
VERTEX
10
0.4580
20
-59.5026
0
VERTEX
10
0.4573
20
-59.5140
0
SEQEND
0
POLYLINE
8
M1_Neg
70
1
0
VERTEX
10
-0.4573
20
-58.9564
0
VERTEX
10
-0.4580
20
-58.9450
0
VERTEX
10
-0.4602
20
-58.9336
0
VERTEX
10
-0.4638
20
-58.9223
0
VERTEX
10
-0.4687
20
-58.9109
0
VERTEX
10
-0.4749
20
-58.8995
0
VERTEX
10
-0.4823
20
-58.8881
0
VERTEX
10
-0.4907
20
-58.8767
0
VERTEX
10
-0.5001
20
-58.8654
0
VERTEX
10
-0.5102
20
-58.8540
0
VERTEX
10
-0.5209
20
-58.8426
0
VERTEX
10
-0.5320
20
-58.8312
0
VERTEX
10
-0.5433
20
-58.8198
0
VERTEX
10
-0.5547
20
-58.8085
0
VERTEX
10
-0.5660
20
-58.7971
0
VERTEX
10
-0.5769
20
-58.7857
0
VERTEX
10
-0.5873
20
-58.7743
0
VERTEX
10
-0.5970
20
-58.7629
0
VERTEX
10
-0.6060
20
-58.7516
0
VERTEX
10
-0.6139
20
-58.7402
0
VERTEX
10
-0.6207
20
-58.7288
0
VERTEX
10
-0.6263
20
-58.7174
0
VERTEX
10
-0.6306
20
-58.7060
0
VERTEX
10
-0.6334
20
-58.6947
0
VERTEX
10
-0.6349
20
-58.6833
0
VERTEX
10
-0.6349
20
-58.6719
0
VERTEX
10
-0.6334
20
-58.6605
0
VERTEX
10
-0.6306
20
-58.6492
0
VERTEX
10
-0.6263
20
-58.6378
0
VERTEX
10
-0.6207
20
-58.6264
0
VERTEX
10
-0.6139
20
-58.6150
0
VERTEX
10
-0.6060
20
-58.6036
0
VERTEX
10
-0.5970
20
-58.5923
0
VERTEX
10
-0.5873
20
-58.5809
0
VERTEX
10
-0.5769
20
-58.5695
0
VERTEX
10
-0.5660
20
-58.5581
0
VERTEX
10
-0.5547
20
-58.5467
0
VERTEX
10
-0.5433
20
-58.5354
0
VERTEX
10
-0.5320
20
-58.5240
0
VERTEX
10
-0.5209
20
-58.5126
0
VERTEX
10
-0.5102
20
-58.5012
0
VERTEX
10
-0.5001
20
-58.4898
0
VERTEX
10
-0.4907
20
-58.4785
0
VERTEX
10
-0.4823
20
-58.4671
0
VERTEX
10
-0.4749
20
-58.4557
0
VERTEX
10
-0.4687
20
-58.4443
0
VERTEX
10
-0.4638
20
-58.4329
0
VERTEX
10
-0.4602
20
-58.4216
0
VERTEX
10
-0.4580
20
-58.4102
0
VERTEX
10
-0.4573
20
-58.3988
0
VERTEX
10
0.4573
20
-58.3988
0
VERTEX
10
0.4580
20
-58.4102
0
VERTEX
10
0.4602
20
-58.4216
0
VERTEX
10
0.4638
20
-58.4329
0
VERTEX
10
0.4687
20
-58.4443
0
VERTEX
10
0.4749
20
-58.4557
0
VERTEX
10
0.4823
20
-58.4671
0
VERTEX
10
0.4907
20
-58.4785
0
VERTEX
10
0.5001
20
-58.4898
0
VERTEX
10
0.5102
20
-58.5012
0
VERTEX
10
0.5209
20
-58.5126
0
VERTEX
10
0.5320
20
-58.5240
0
VERTEX
10
0.5433
20
-58.5354
0
VERTEX
10
0.5547
20
-58.5467
0
VERTEX
10
0.5660
20
-58.5581
0
VERTEX
10
0.5769
20
-58.5695
0
VERTEX
10
0.5873
20
-58.5809
0
VERTEX
10
0.5970
20
-58.5923
0
VERTEX
10
0.6060
20
-58.6036
0
VERTEX
10
0.6139
20
-58.6150
0
VERTEX
10
0.6207
20
-58.6264
0
VERTEX
10
0.6263
20
-58.6378
0
VERTEX
10
0.6306
20
-58.6492
0
VERTEX
10
0.6334
20
-58.6605
0
VERTEX
10
0.6349
20
-58.6719
0
VERTEX
10
0.6349
20
-58.6833
0
VERTEX
10
0.6334
20
-58.6947
0
VERTEX
10
0.6306
20
-58.7060
0
VERTEX
10
0.6263
20
-58.7174
0
VERTEX
10
0.6207
20
-58.7288
0
VERTEX
10
0.6139
20
-58.7402
0
VERTEX
10
0.6060
20
-58.7516
0
VERTEX
10
0.5970
20
-58.7629
0
VERTEX
10
0.5873
20
-58.7743
0
VERTEX
10
0.5769
20
-58.7857
0
VERTEX
10
0.5660
20
-58.7971
0
VERTEX
10
0.5547
20
-58.8085
0
VERTEX
10
0.5433
20
-58.8198
0
VERTEX
10
0.5320
20
-58.8312
0
VERTEX
10
0.5209
20
-58.8426
0
VERTEX
10
0.5102
20
-58.8540
0
VERTEX
10
0.5001
20
-58.8654
0
VERTEX
10
0.4907
20
-58.8767
0
VERTEX
10
0.4823
20
-58.8881
0
VERTEX
10
0.4749
20
-58.8995
0
VERTEX
10
0.4687
20
-58.9109
0
VERTEX
10
0.4638
20
-58.9223
0
VERTEX
10
0.4602
20
-58.9336
0
VERTEX
10
0.4580
20
-58.9450
0
VERTEX
10
0.4573
20
-58.9564
0
SEQEND
0
POLYLINE
8
M1_Neg
70
1
0
VERTEX
10
-0.4573
20
-58.3988
0
VERTEX
10
-0.4580
20
-58.3874
0
VERTEX
10
-0.4602
20
-58.3760
0
VERTEX
10
-0.4638
20
-58.3647
0
VERTEX
10
-0.4687
20
-58.3533
0
VERTEX
10
-0.4749
20
-58.3419
0
VERTEX
10
-0.4823
20
-58.3305
0
VERTEX
10
-0.4907
20
-58.3191
0
VERTEX
10
-0.5001
20
-58.3078
0
VERTEX
10
-0.5102
20
-58.2964
0
VERTEX
10
-0.5209
20
-58.2850
0
VERTEX
10
-0.5320
20
-58.2736
0
VERTEX
10
-0.5433
20
-58.2622
0
VERTEX
10
-0.5547
20
-58.2509
0
VERTEX
10
-0.5660
20
-58.2395
0
VERTEX
10
-0.5769
20
-58.2281
0
VERTEX
10
-0.5873
20
-58.2167
0
VERTEX
10
-0.5970
20
-58.2053
0
VERTEX
10
-0.6060
20
-58.1940
0
VERTEX
10
-0.6139
20
-58.1826
0
VERTEX
10
-0.6207
20
-58.1712
0
VERTEX
10
-0.6263
20
-58.1598
0
VERTEX
10
-0.6306
20
-58.1484
0
VERTEX
10
-0.6334
20
-58.1371
0
VERTEX
10
-0.6349
20
-58.1257
0
VERTEX
10
-0.6349
20
-58.1143
0
VERTEX
10
-0.6334
20
-58.1029
0
VERTEX
10
-0.6306
20
-58.0916
0
VERTEX
10
-0.6263
20
-58.0802
0
VERTEX
10
-0.6207
20
-58.0688
0
VERTEX
10
-0.6139
20
-58.0574
0
VERTEX
10
-0.6060
20
-58.0460
0
VERTEX
10
-0.5970
20
-58.0347
0
VERTEX
10
-0.5873
20
-58.0233
0
VERTEX
10
-0.5769
20
-58.0119
0
VERTEX
10
-0.5660
20
-58.0005
0
VERTEX
10
-0.5547
20
-57.9891
0
VERTEX
10
-0.5433
20
-57.9778
0
VERTEX
10
-0.5320
20
-57.9664
0
VERTEX
10
-0.5209
20
-57.9550
0
VERTEX
10
-0.5102
20
-57.9436
0
VERTEX
10
-0.5001
20
-57.9322
0
VERTEX
10
-0.4907
20
-57.9209
0
VERTEX
10
-0.4823
20
-57.9095
0
VERTEX
10
-0.4749
20
-57.8981
0
VERTEX
10
-0.4687
20
-57.8867
0
VERTEX
10
-0.4638
20
-57.8753
0
VERTEX
10
-0.4602
20
-57.8640
0
VERTEX
10
-0.4580
20
-57.8526
0
VERTEX
10
-0.4573
20
-57.8412
0
VERTEX
10
0.4573
20
-57.8412
0
VERTEX
10
0.4580
20
-57.8526
0
VERTEX
10
0.4602
20
-57.8640
0
VERTEX
10
0.4638
20
-57.8753
0
VERTEX
10
0.4687
20
-57.8867
0
VERTEX
10
0.4749
20
-57.8981
0
VERTEX
10
0.4823
20
-57.9095
0
VERTEX
10
0.4907
20
-57.9209
0
VERTEX
10
0.5001
20
-57.9322
0
VERTEX
10
0.5102
20
-57.9436
0
VERTEX
10
0.5209
20
-57.9550
0
VERTEX
10
0.5320
20
-57.9664
0
VERTEX
10
0.5433
20
-57.9778
0
VERTEX
10
0.5547
20
-57.9891
0
VERTEX
10
0.5660
20
-58.0005
0
VERTEX
10
0.5769
20
-58.0119
0
VERTEX
10
0.5873
20
-58.0233
0
VERTEX
10
0.5970
20
-58.0347
0
VERTEX
10
0.6060
20
-58.0460
0
VERTEX
10
0.6139
20
-58.0574
0
VERTEX
10
0.6207
20
-58.0688
0
VERTEX
10
0.6263
20
-58.0802
0
VERTEX
10
0.6306
20
-58.0916
0
VERTEX
10
0.6334
20
-58.1029
0
VERTEX
10
0.6349
20
-58.1143
0
VERTEX
10
0.6349
20
-58.1257
0
VERTEX
10
0.6334
20
-58.1371
0
VERTEX
10
0.6306
20
-58.1484
0
VERTEX
10
0.6263
20
-58.1598
0
VERTEX
10
0.6207
20
-58.1712
0
VERTEX
10
0.6139
20
-58.1826
0
VERTEX
10
0.6060
20
-58.1940
0
VERTEX
10
0.5970
20
-58.2053
0
VERTEX
10
0.5873
20
-58.2167
0
VERTEX
10
0.5769
20
-58.2281
0
VERTEX
10
0.5660
20
-58.2395
0
VERTEX
10
0.5547
20
-58.2509
0
VERTEX
10
0.5433
20
-58.2622
0
VERTEX
10
0.5320
20
-58.2736
0
VERTEX
10
0.5209
20
-58.2850
0
VERTEX
10
0.5102
20
-58.2964
0
VERTEX
10
0.5001
20
-58.3078
0
VERTEX
10
0.4907
20
-58.3191
0
VERTEX
10
0.4823
20
-58.3305
0
VERTEX
10
0.4749
20
-58.3419
0
VERTEX
10
0.4687
20
-58.3533
0
VERTEX
10
0.4638
20
-58.3647
0
VERTEX
10
0.4602
20
-58.3760
0
VERTEX
10
0.4580
20
-58.3874
0
VERTEX
10
0.4573
20
-58.3988
0
SEQEND
0
POLYLINE
8
M1_Neg
70
1
0
VERTEX
10
-0.4573
20
-57.8412
0
VERTEX
10
-0.4580
20
-57.8298
0
VERTEX
10
-0.4602
20
-57.8184
0
VERTEX
10
-0.4638
20
-57.8071
0
VERTEX
10
-0.4687
20
-57.7957
0
VERTEX
10
-0.4749
20
-57.7843
0
VERTEX
10
-0.4823
20
-57.7729
0
VERTEX
10
-0.4907
20
-57.7615
0
VERTEX
10
-0.5001
20
-57.7502
0
VERTEX
10
-0.5102
20
-57.7388
0
VERTEX
10
-0.5209
20
-57.7274
0
VERTEX
10
-0.5320
20
-57.7160
0
VERTEX
10
-0.5433
20
-57.7046
0
VERTEX
10
-0.5547
20
-57.6933
0
VERTEX
10
-0.5660
20
-57.6819
0
VERTEX
10
-0.5769
20
-57.6705
0
VERTEX
10
-0.5873
20
-57.6591
0
VERTEX
10
-0.5970
20
-57.6477
0
VERTEX
10
-0.6060
20
-57.6364
0
VERTEX
10
-0.6139
20
-57.6250
0
VERTEX
10
-0.6207
20
-57.6136
0
VERTEX
10
-0.6263
20
-57.6022
0
VERTEX
10
-0.6306
20
-57.5908
0
VERTEX
10
-0.6334
20
-57.5795
0
VERTEX
10
-0.6349
20
-57.5681
0
VERTEX
10
-0.6349
20
-57.5567
0
VERTEX
10
-0.6334
20
-57.5453
0
VERTEX
10
-0.6306
20
-57.5340
0
VERTEX
10
-0.6263
20
-57.5226
0
VERTEX
10
-0.6207
20
-57.5112
0
VERTEX
10
-0.6139
20
-57.4998
0
VERTEX
10
-0.6060
20
-57.4884
0
VERTEX
10
-0.5970
20
-57.4771
0
VERTEX
10
-0.5873
20
-57.4657
0
VERTEX
10
-0.5769
20
-57.4543
0
VERTEX
10
-0.5660
20
-57.4429
0
VERTEX
10
-0.5547
20
-57.4315
0
VERTEX
10
-0.5433
20
-57.4202
0
VERTEX
10
-0.5320
20
-57.4088
0
VERTEX
10
-0.5209
20
-57.3974
0
VERTEX
10
-0.5102
20
-57.3860
0
VERTEX
10
-0.5001
20
-57.3746
0
VERTEX
10
-0.4907
20
-57.3633
0
VERTEX
10
-0.4823
20
-57.3519
0
VERTEX
10
-0.4749
20
-57.3405
0
VERTEX
10
-0.4687
20
-57.3291
0
VERTEX
10
-0.4638
20
-57.3177
0
VERTEX
10
-0.4602
20
-57.3064
0
VERTEX
10
-0.4580
20
-57.2950
0
VERTEX
10
-0.4573
20
-57.2836
0
VERTEX
10
0.4573
20
-57.2836
0
VERTEX
10
0.4580
20
-57.2950
0
VERTEX
10
0.4602
20
-57.3064
0
VERTEX
10
0.4638
20
-57.3177
0
VERTEX
10
0.4687
20
-57.3291
0
VERTEX
10
0.4749
20
-57.3405
0
VERTEX
10
0.4823
20
-57.3519
0
VERTEX
10
0.4907
20
-57.3633
0
VERTEX
10
0.5001
20
-57.3746
0
VERTEX
10
0.5102
20
-57.3860
0
VERTEX
10
0.5209
20
-57.3974
0
VERTEX
10
0.5320
20
-57.4088
0
VERTEX
10
0.5433
20
-57.4202
0
VERTEX
10
0.5547
20
-57.4315
0
VERTEX
10
0.5660
20
-57.4429
0
VERTEX
10
0.5769
20
-57.4543
0
VERTEX
10
0.5873
20
-57.4657
0
VERTEX
10
0.5970
20
-57.4771
0
VERTEX
10
0.6060
20
-57.4884
0
VERTEX
10
0.6139
20
-57.4998
0
VERTEX
10
0.6207
20
-57.5112
0
VERTEX
10
0.6263
20
-57.5226
0
VERTEX
10
0.6306
20
-57.5340
0
VERTEX
10
0.6334
20
-57.5453
0
VERTEX
10
0.6349
20
-57.5567
0
VERTEX
10
0.6349
20
-57.5681
0
VERTEX
10
0.6334
20
-57.5795
0
VERTEX
10
0.6306
20
-57.5908
0
VERTEX
10
0.6263
20
-57.6022
0
VERTEX
10
0.6207
20
-57.6136
0
VERTEX
10
0.6139
20
-57.6250
0
VERTEX
10
0.6060
20
-57.6364
0
VERTEX
10
0.5970
20
-57.6477
0
VERTEX
10
0.5873
20
-57.6591
0
VERTEX
10
0.5769
20
-57.6705
0
VERTEX
10
0.5660
20
-57.6819
0
VERTEX
10
0.5547
20
-57.6933
0
VERTEX
10
0.5433
20
-57.7046
0
VERTEX
10
0.5320
20
-57.7160
0
VERTEX
10
0.5209
20
-57.7274
0
VERTEX
10
0.5102
20
-57.7388
0
VERTEX
10
0.5001
20
-57.7502
0
VERTEX
10
0.4907
20
-57.7615
0
VERTEX
10
0.4823
20
-57.7729
0
VERTEX
10
0.4749
20
-57.7843
0
VERTEX
10
0.4687
20
-57.7957
0
VERTEX
10
0.4638
20
-57.8071
0
VERTEX
10
0.4602
20
-57.8184
0
VERTEX
10
0.4580
20
-57.8298
0
VERTEX
10
0.4573
20
-57.8412
0
SEQEND
0
POLYLINE
8
M1_Neg
70
1
0
VERTEX
10
-0.4573
20
-57.2836
0
VERTEX
10
-0.4580
20
-57.2722
0
VERTEX
10
-0.4602
20
-57.2608
0
VERTEX
10
-0.4638
20
-57.2495
0
VERTEX
10
-0.4687
20
-57.2381
0
VERTEX
10
-0.4749
20
-57.2267
0
VERTEX
10
-0.4823
20
-57.2153
0
VERTEX
10
-0.4907
20
-57.2039
0
VERTEX
10
-0.5001
20
-57.1926
0
VERTEX
10
-0.5102
20
-57.1812
0
VERTEX
10
-0.5209
20
-57.1698
0
VERTEX
10
-0.5320
20
-57.1584
0
VERTEX
10
-0.5433
20
-57.1470
0
VERTEX
10
-0.5547
20
-57.1357
0
VERTEX
10
-0.5660
20
-57.1243
0
VERTEX
10
-0.5769
20
-57.1129
0
VERTEX
10
-0.5873
20
-57.1015
0
VERTEX
10
-0.5970
20
-57.0901
0
VERTEX
10
-0.6060
20
-57.0788
0
VERTEX
10
-0.6139
20
-57.0674
0
VERTEX
10
-0.6207
20
-57.0560
0
VERTEX
10
-0.6263
20
-57.0446
0
VERTEX
10
-0.6306
20
-57.0332
0
VERTEX
10
-0.6334
20
-57.0219
0
VERTEX
10
-0.6349
20
-57.0105
0
VERTEX
10
-0.6349
20
-56.9991
0
VERTEX
10
-0.6334
20
-56.9877
0
VERTEX
10
-0.6306
20
-56.9764
0
VERTEX
10
-0.6263
20
-56.9650
0
VERTEX
10
-0.6207
20
-56.9536
0
VERTEX
10
-0.6139
20
-56.9422
0
VERTEX
10
-0.6060
20
-56.9308
0
VERTEX
10
-0.5970
20
-56.9195
0
VERTEX
10
-0.5873
20
-56.9081
0
VERTEX
10
-0.5769
20
-56.8967
0
VERTEX
10
-0.5660
20
-56.8853
0
VERTEX
10
-0.5547
20
-56.8739
0
VERTEX
10
-0.5433
20
-56.8626
0
VERTEX
10
-0.5320
20
-56.8512
0
VERTEX
10
-0.5209
20
-56.8398
0
VERTEX
10
-0.5102
20
-56.8284
0
VERTEX
10
-0.5001
20
-56.8170
0
VERTEX
10
-0.4907
20
-56.8057
0
VERTEX
10
-0.4823
20
-56.7943
0
VERTEX
10
-0.4749
20
-56.7829
0
VERTEX
10
-0.4687
20
-56.7715
0
VERTEX
10
-0.4638
20
-56.7601
0
VERTEX
10
-0.4602
20
-56.7488
0
VERTEX
10
-0.4580
20
-56.7374
0
VERTEX
10
-0.4573
20
-56.7260
0
VERTEX
10
0.4573
20
-56.7260
0
VERTEX
10
0.4580
20
-56.7374
0
VERTEX
10
0.4602
20
-56.7488
0
VERTEX
10
0.4638
20
-56.7601
0
VERTEX
10
0.4687
20
-56.7715
0
VERTEX
10
0.4749
20
-56.7829
0
VERTEX
10
0.4823
20
-56.7943
0
VERTEX
10
0.4907
20
-56.8057
0
VERTEX
10
0.5001
20
-56.8170
0
VERTEX
10
0.5102
20
-56.8284
0
VERTEX
10
0.5209
20
-56.8398
0
VERTEX
10
0.5320
20
-56.8512
0
VERTEX
10
0.5433
20
-56.8626
0
VERTEX
10
0.5547
20
-56.8739
0
VERTEX
10
0.5660
20
-56.8853
0
VERTEX
10
0.5769
20
-56.8967
0
VERTEX
10
0.5873
20
-56.9081
0
VERTEX
10
0.5970
20
-56.9195
0
VERTEX
10
0.6060
20
-56.9308
0
VERTEX
10
0.6139
20
-56.9422
0
VERTEX
10
0.6207
20
-56.9536
0
VERTEX
10
0.6263
20
-56.9650
0
VERTEX
10
0.6306
20
-56.9764
0
VERTEX
10
0.6334
20
-56.9877
0
VERTEX
10
0.6349
20
-56.9991
0
VERTEX
10
0.6349
20
-57.0105
0
VERTEX
10
0.6334
20
-57.0219
0
VERTEX
10
0.6306
20
-57.0332
0
VERTEX
10
0.6263
20
-57.0446
0
VERTEX
10
0.6207
20
-57.0560
0
VERTEX
10
0.6139
20
-57.0674
0
VERTEX
10
0.6060
20
-57.0788
0
VERTEX
10
0.5970
20
-57.0901
0
VERTEX
10
0.5873
20
-57.1015
0
VERTEX
10
0.5769
20
-57.1129
0
VERTEX
10
0.5660
20
-57.1243
0
VERTEX
10
0.5547
20
-57.1357
0
VERTEX
10
0.5433
20
-57.1470
0
VERTEX
10
0.5320
20
-57.1584
0
VERTEX
10
0.5209
20
-57.1698
0
VERTEX
10
0.5102
20
-57.1812
0
VERTEX
10
0.5001
20
-57.1926
0
VERTEX
10
0.4907
20
-57.2039
0
VERTEX
10
0.4823
20
-57.2153
0
VERTEX
10
0.4749
20
-57.2267
0
VERTEX
10
0.4687
20
-57.2381
0
VERTEX
10
0.4638
20
-57.2495
0
VERTEX
10
0.4602
20
-57.2608
0
VERTEX
10
0.4580
20
-57.2722
0
VERTEX
10
0.4573
20
-57.2836
0
SEQEND
0
POLYLINE
8
M1_Neg
70
1
0
VERTEX
10
-0.4573
20
-56.7260
0
VERTEX
10
-0.4580
20
-56.7146
0
VERTEX
10
-0.4602
20
-56.7032
0
VERTEX
10
-0.4638
20
-56.6919
0
VERTEX
10
-0.4687
20
-56.6805
0
VERTEX
10
-0.4749
20
-56.6691
0
VERTEX
10
-0.4823
20
-56.6577
0
VERTEX
10
-0.4907
20
-56.6463
0
VERTEX
10
-0.5001
20
-56.6350
0
VERTEX
10
-0.5102
20
-56.6236
0
VERTEX
10
-0.5209
20
-56.6122
0
VERTEX
10
-0.5320
20
-56.6008
0
VERTEX
10
-0.5433
20
-56.5894
0
VERTEX
10
-0.5547
20
-56.5781
0
VERTEX
10
-0.5660
20
-56.5667
0
VERTEX
10
-0.5769
20
-56.5553
0
VERTEX
10
-0.5873
20
-56.5439
0
VERTEX
10
-0.5970
20
-56.5325
0
VERTEX
10
-0.6060
20
-56.5212
0
VERTEX
10
-0.6139
20
-56.5098
0
VERTEX
10
-0.6207
20
-56.4984
0
VERTEX
10
-0.6263
20
-56.4870
0
VERTEX
10
-0.6306
20
-56.4756
0
VERTEX
10
-0.6334
20
-56.4643
0
VERTEX
10
-0.6349
20
-56.4529
0
VERTEX
10
-0.6349
20
-56.4415
0
VERTEX
10
-0.6334
20
-56.4301
0
VERTEX
10
-0.6306
20
-56.4188
0
VERTEX
10
-0.6263
20
-56.4074
0
VERTEX
10
-0.6207
20
-56.3960
0
VERTEX
10
-0.6139
20
-56.3846
0
VERTEX
10
-0.6060
20
-56.3732
0
VERTEX
10
-0.5970
20
-56.3619
0
VERTEX
10
-0.5873
20
-56.3505
0
VERTEX
10
-0.5769
20
-56.3391
0
VERTEX
10
-0.5660
20
-56.3277
0
VERTEX
10
-0.5547
20
-56.3163
0
VERTEX
10
-0.5433
20
-56.3050
0
VERTEX
10
-0.5320
20
-56.2936
0
VERTEX
10
-0.5209
20
-56.2822
0
VERTEX
10
-0.5102
20
-56.2708
0
VERTEX
10
-0.5001
20
-56.2594
0
VERTEX
10
-0.4907
20
-56.2481
0
VERTEX
10
-0.4823
20
-56.2367
0
VERTEX
10
-0.4749
20
-56.2253
0
VERTEX
10
-0.4687
20
-56.2139
0
VERTEX
10
-0.4638
20
-56.2025
0
VERTEX
10
-0.4602
20
-56.1912
0
VERTEX
10
-0.4580
20
-56.1798
0
VERTEX
10
-0.4573
20
-56.1684
0
VERTEX
10
0.4573
20
-56.1684
0
VERTEX
10
0.4580
20
-56.1798
0
VERTEX
10
0.4602
20
-56.1912
0
VERTEX
10
0.4638
20
-56.2025
0
VERTEX
10
0.4687
20
-56.2139
0
VERTEX
10
0.4749
20
-56.2253
0
VERTEX
10
0.4823
20
-56.2367
0
VERTEX
10
0.4907
20
-56.2481
0
VERTEX
10
0.5001
20
-56.2594
0
VERTEX
10
0.5102
20
-56.2708
0
VERTEX
10
0.5209
20
-56.2822
0
VERTEX
10
0.5320
20
-56.2936
0
VERTEX
10
0.5433
20
-56.3050
0
VERTEX
10
0.5547
20
-56.3163
0
VERTEX
10
0.5660
20
-56.3277
0
VERTEX
10
0.5769
20
-56.3391
0
VERTEX
10
0.5873
20
-56.3505
0
VERTEX
10
0.5970
20
-56.3619
0
VERTEX
10
0.6060
20
-56.3732
0
VERTEX
10
0.6139
20
-56.3846
0
VERTEX
10
0.6207
20
-56.3960
0
VERTEX
10
0.6263
20
-56.4074
0
VERTEX
10
0.6306
20
-56.4188
0
VERTEX
10
0.6334
20
-56.4301
0
VERTEX
10
0.6349
20
-56.4415
0
VERTEX
10
0.6349
20
-56.4529
0
VERTEX
10
0.6334
20
-56.4643
0
VERTEX
10
0.6306
20
-56.4756
0
VERTEX
10
0.6263
20
-56.4870
0
VERTEX
10
0.6207
20
-56.4984
0
VERTEX
10
0.6139
20
-56.5098
0
VERTEX
10
0.6060
20
-56.5212
0
VERTEX
10
0.5970
20
-56.5325
0
VERTEX
10
0.5873
20
-56.5439
0
VERTEX
10
0.5769
20
-56.5553
0
VERTEX
10
0.5660
20
-56.5667
0
VERTEX
10
0.5547
20
-56.5781
0
VERTEX
10
0.5433
20
-56.5894
0
VERTEX
10
0.5320
20
-56.6008
0
VERTEX
10
0.5209
20
-56.6122
0
VERTEX
10
0.5102
20
-56.6236
0
VERTEX
10
0.5001
20
-56.6350
0
VERTEX
10
0.4907
20
-56.6463
0
VERTEX
10
0.4823
20
-56.6577
0
VERTEX
10
0.4749
20
-56.6691
0
VERTEX
10
0.4687
20
-56.6805
0
VERTEX
10
0.4638
20
-56.6919
0
VERTEX
10
0.4602
20
-56.7032
0
VERTEX
10
0.4580
20
-56.7146
0
VERTEX
10
0.4573
20
-56.7260
0
SEQEND
0
POLYLINE
8
M1_Neg
70
1
0
VERTEX
10
-0.4573
20
-56.1684
0
VERTEX
10
-0.4580
20
-56.1570
0
VERTEX
10
-0.4602
20
-56.1456
0
VERTEX
10
-0.4638
20
-56.1343
0
VERTEX
10
-0.4687
20
-56.1229
0
VERTEX
10
-0.4749
20
-56.1115
0
VERTEX
10
-0.4823
20
-56.1001
0
VERTEX
10
-0.4907
20
-56.0887
0
VERTEX
10
-0.5001
20
-56.0774
0
VERTEX
10
-0.5102
20
-56.0660
0
VERTEX
10
-0.5209
20
-56.0546
0
VERTEX
10
-0.5320
20
-56.0432
0
VERTEX
10
-0.5433
20
-56.0318
0
VERTEX
10
-0.5547
20
-56.0205
0
VERTEX
10
-0.5660
20
-56.0091
0
VERTEX
10
-0.5769
20
-55.9977
0
VERTEX
10
-0.5873
20
-55.9863
0
VERTEX
10
-0.5970
20
-55.9749
0
VERTEX
10
-0.6060
20
-55.9636
0
VERTEX
10
-0.6139
20
-55.9522
0
VERTEX
10
-0.6207
20
-55.9408
0
VERTEX
10
-0.6263
20
-55.9294
0
VERTEX
10
-0.6306
20
-55.9180
0
VERTEX
10
-0.6334
20
-55.9067
0
VERTEX
10
-0.6349
20
-55.8953
0
VERTEX
10
-0.6349
20
-55.8839
0
VERTEX
10
-0.6334
20
-55.8725
0
VERTEX
10
-0.6306
20
-55.8612
0
VERTEX
10
-0.6263
20
-55.8498
0
VERTEX
10
-0.6207
20
-55.8384
0
VERTEX
10
-0.6139
20
-55.8270
0
VERTEX
10
-0.6060
20
-55.8156
0
VERTEX
10
-0.5970
20
-55.8043
0
VERTEX
10
-0.5873
20
-55.7929
0
VERTEX
10
-0.5769
20
-55.7815
0
VERTEX
10
-0.5660
20
-55.7701
0
VERTEX
10
-0.5547
20
-55.7587
0
VERTEX
10
-0.5433
20
-55.7474
0
VERTEX
10
-0.5320
20
-55.7360
0
VERTEX
10
-0.5209
20
-55.7246
0
VERTEX
10
-0.5102
20
-55.7132
0
VERTEX
10
-0.5001
20
-55.7018
0
VERTEX
10
-0.4907
20
-55.6905
0
VERTEX
10
-0.4823
20
-55.6791
0
VERTEX
10
-0.4749
20
-55.6677
0
VERTEX
10
-0.4687
20
-55.6563
0
VERTEX
10
-0.4638
20
-55.6449
0
VERTEX
10
-0.4602
20
-55.6336
0
VERTEX
10
-0.4580
20
-55.6222
0
VERTEX
10
-0.4573
20
-55.6108
0
VERTEX
10
0.4573
20
-55.6108
0
VERTEX
10
0.4580
20
-55.6222
0
VERTEX
10
0.4602
20
-55.6336
0
VERTEX
10
0.4638
20
-55.6449
0
VERTEX
10
0.4687
20
-55.6563
0
VERTEX
10
0.4749
20
-55.6677
0
VERTEX
10
0.4823
20
-55.6791
0
VERTEX
10
0.4907
20
-55.6905
0
VERTEX
10
0.5001
20
-55.7018
0
VERTEX
10
0.5102
20
-55.7132
0
VERTEX
10
0.5209
20
-55.7246
0
VERTEX
10
0.5320
20
-55.7360
0
VERTEX
10
0.5433
20
-55.7474
0
VERTEX
10
0.5547
20
-55.7587
0
VERTEX
10
0.5660
20
-55.7701
0
VERTEX
10
0.5769
20
-55.7815
0
VERTEX
10
0.5873
20
-55.7929
0
VERTEX
10
0.5970
20
-55.8043
0
VERTEX
10
0.6060
20
-55.8156
0
VERTEX
10
0.6139
20
-55.8270
0
VERTEX
10
0.6207
20
-55.8384
0
VERTEX
10
0.6263
20
-55.8498
0
VERTEX
10
0.6306
20
-55.8612
0
VERTEX
10
0.6334
20
-55.8725
0
VERTEX
10
0.6349
20
-55.8839
0
VERTEX
10
0.6349
20
-55.8953
0
VERTEX
10
0.6334
20
-55.9067
0
VERTEX
10
0.6306
20
-55.9180
0
VERTEX
10
0.6263
20
-55.9294
0
VERTEX
10
0.6207
20
-55.9408
0
VERTEX
10
0.6139
20
-55.9522
0
VERTEX
10
0.6060
20
-55.9636
0
VERTEX
10
0.5970
20
-55.9749
0
VERTEX
10
0.5873
20
-55.9863
0
VERTEX
10
0.5769
20
-55.9977
0
VERTEX
10
0.5660
20
-56.0091
0
VERTEX
10
0.5547
20
-56.0205
0
VERTEX
10
0.5433
20
-56.0318
0
VERTEX
10
0.5320
20
-56.0432
0
VERTEX
10
0.5209
20
-56.0546
0
VERTEX
10
0.5102
20
-56.0660
0
VERTEX
10
0.5001
20
-56.0774
0
VERTEX
10
0.4907
20
-56.0887
0
VERTEX
10
0.4823
20
-56.1001
0
VERTEX
10
0.4749
20
-56.1115
0
VERTEX
10
0.4687
20
-56.1229
0
VERTEX
10
0.4638
20
-56.1343
0
VERTEX
10
0.4602
20
-56.1456
0
VERTEX
10
0.4580
20
-56.1570
0
VERTEX
10
0.4573
20
-56.1684
0
SEQEND
0
POLYLINE
8
M1_Neg
70
1
0
VERTEX
10
-0.4573
20
-55.6108
0
VERTEX
10
-0.4580
20
-55.5994
0
VERTEX
10
-0.4602
20
-55.5880
0
VERTEX
10
-0.4638
20
-55.5767
0
VERTEX
10
-0.4687
20
-55.5653
0
VERTEX
10
-0.4749
20
-55.5539
0
VERTEX
10
-0.4823
20
-55.5425
0
VERTEX
10
-0.4907
20
-55.5311
0
VERTEX
10
-0.5001
20
-55.5198
0
VERTEX
10
-0.5102
20
-55.5084
0
VERTEX
10
-0.5209
20
-55.4970
0
VERTEX
10
-0.5320
20
-55.4856
0
VERTEX
10
-0.5433
20
-55.4742
0
VERTEX
10
-0.5547
20
-55.4629
0
VERTEX
10
-0.5660
20
-55.4515
0
VERTEX
10
-0.5769
20
-55.4401
0
VERTEX
10
-0.5873
20
-55.4287
0
VERTEX
10
-0.5970
20
-55.4173
0
VERTEX
10
-0.6060
20
-55.4060
0
VERTEX
10
-0.6139
20
-55.3946
0
VERTEX
10
-0.6207
20
-55.3832
0
VERTEX
10
-0.6263
20
-55.3718
0
VERTEX
10
-0.6306
20
-55.3604
0
VERTEX
10
-0.6334
20
-55.3491
0
VERTEX
10
-0.6349
20
-55.3377
0
VERTEX
10
-0.6349
20
-55.3263
0
VERTEX
10
-0.6334
20
-55.3149
0
VERTEX
10
-0.6306
20
-55.3036
0
VERTEX
10
-0.6263
20
-55.2922
0
VERTEX
10
-0.6207
20
-55.2808
0
VERTEX
10
-0.6139
20
-55.2694
0
VERTEX
10
-0.6060
20
-55.2580
0
VERTEX
10
-0.5970
20
-55.2467
0
VERTEX
10
-0.5873
20
-55.2353
0
VERTEX
10
-0.5769
20
-55.2239
0
VERTEX
10
-0.5660
20
-55.2125
0
VERTEX
10
-0.5547
20
-55.2011
0
VERTEX
10
-0.5433
20
-55.1898
0
VERTEX
10
-0.5320
20
-55.1784
0
VERTEX
10
-0.5209
20
-55.1670
0
VERTEX
10
-0.5102
20
-55.1556
0
VERTEX
10
-0.5001
20
-55.1442
0
VERTEX
10
-0.4907
20
-55.1329
0
VERTEX
10
-0.4823
20
-55.1215
0
VERTEX
10
-0.4749
20
-55.1101
0
VERTEX
10
-0.4687
20
-55.0987
0
VERTEX
10
-0.4638
20
-55.0873
0
VERTEX
10
-0.4602
20
-55.0760
0
VERTEX
10
-0.4580
20
-55.0646
0
VERTEX
10
-0.4573
20
-55.0532
0
VERTEX
10
0.4573
20
-55.0532
0
VERTEX
10
0.4580
20
-55.0646
0
VERTEX
10
0.4602
20
-55.0760
0
VERTEX
10
0.4638
20
-55.0873
0
VERTEX
10
0.4687
20
-55.0987
0
VERTEX
10
0.4749
20
-55.1101
0
VERTEX
10
0.4823
20
-55.1215
0
VERTEX
10
0.4907
20
-55.1329
0
VERTEX
10
0.5001
20
-55.1442
0
VERTEX
10
0.5102
20
-55.1556
0
VERTEX
10
0.5209
20
-55.1670
0
VERTEX
10
0.5320
20
-55.1784
0
VERTEX
10
0.5433
20
-55.1898
0
VERTEX
10
0.5547
20
-55.2011
0
VERTEX
10
0.5660
20
-55.2125
0
VERTEX
10
0.5769
20
-55.2239
0
VERTEX
10
0.5873
20
-55.2353
0
VERTEX
10
0.5970
20
-55.2467
0
VERTEX
10
0.6060
20
-55.2580
0
VERTEX
10
0.6139
20
-55.2694
0
VERTEX
10
0.6207
20
-55.2808
0
VERTEX
10
0.6263
20
-55.2922
0
VERTEX
10
0.6306
20
-55.3036
0
VERTEX
10
0.6334
20
-55.3149
0
VERTEX
10
0.6349
20
-55.3263
0
VERTEX
10
0.6349
20
-55.3377
0
VERTEX
10
0.6334
20
-55.3491
0
VERTEX
10
0.6306
20
-55.3604
0
VERTEX
10
0.6263
20
-55.3718
0
VERTEX
10
0.6207
20
-55.3832
0
VERTEX
10
0.6139
20
-55.3946
0
VERTEX
10
0.6060
20
-55.4060
0
VERTEX
10
0.5970
20
-55.4173
0
VERTEX
10
0.5873
20
-55.4287
0
VERTEX
10
0.5769
20
-55.4401
0
VERTEX
10
0.5660
20
-55.4515
0
VERTEX
10
0.5547
20
-55.4629
0
VERTEX
10
0.5433
20
-55.4742
0
VERTEX
10
0.5320
20
-55.4856
0
VERTEX
10
0.5209
20
-55.4970
0
VERTEX
10
0.5102
20
-55.5084
0
VERTEX
10
0.5001
20
-55.5198
0
VERTEX
10
0.4907
20
-55.5311
0
VERTEX
10
0.4823
20
-55.5425
0
VERTEX
10
0.4749
20
-55.5539
0
VERTEX
10
0.4687
20
-55.5653
0
VERTEX
10
0.4638
20
-55.5767
0
VERTEX
10
0.4602
20
-55.5880
0
VERTEX
10
0.4580
20
-55.5994
0
VERTEX
10
0.4573
20
-55.6108
0
SEQEND
0
POLYLINE
8
M1_Neg
70
1
0
VERTEX
10
-0.4573
20
-55.0532
0
VERTEX
10
-0.4580
20
-55.0418
0
VERTEX
10
-0.4602
20
-55.0304
0
VERTEX
10
-0.4638
20
-55.0191
0
VERTEX
10
-0.4687
20
-55.0077
0
VERTEX
10
-0.4749
20
-54.9963
0
VERTEX
10
-0.4823
20
-54.9849
0
VERTEX
10
-0.4907
20
-54.9735
0
VERTEX
10
-0.5001
20
-54.9622
0
VERTEX
10
-0.5102
20
-54.9508
0
VERTEX
10
-0.5209
20
-54.9394
0
VERTEX
10
-0.5320
20
-54.9280
0
VERTEX
10
-0.5433
20
-54.9166
0
VERTEX
10
-0.5547
20
-54.9053
0
VERTEX
10
-0.5660
20
-54.8939
0
VERTEX
10
-0.5769
20
-54.8825
0
VERTEX
10
-0.5873
20
-54.8711
0
VERTEX
10
-0.5970
20
-54.8597
0
VERTEX
10
-0.6060
20
-54.8484
0
VERTEX
10
-0.6139
20
-54.8370
0
VERTEX
10
-0.6207
20
-54.8256
0
VERTEX
10
-0.6263
20
-54.8142
0
VERTEX
10
-0.6306
20
-54.8028
0
VERTEX
10
-0.6334
20
-54.7915
0
VERTEX
10
-0.6349
20
-54.7801
0
VERTEX
10
-0.6349
20
-54.7687
0
VERTEX
10
-0.6334
20
-54.7573
0
VERTEX
10
-0.6306
20
-54.7460
0
VERTEX
10
-0.6263
20
-54.7346
0
VERTEX
10
-0.6207
20
-54.7232
0
VERTEX
10
-0.6139
20
-54.7118
0
VERTEX
10
-0.6060
20
-54.7004
0
VERTEX
10
-0.5970
20
-54.6891
0
VERTEX
10
-0.5873
20
-54.6777
0
VERTEX
10
-0.5769
20
-54.6663
0
VERTEX
10
-0.5660
20
-54.6549
0
VERTEX
10
-0.5547
20
-54.6435
0
VERTEX
10
-0.5433
20
-54.6322
0
VERTEX
10
-0.5320
20
-54.6208
0
VERTEX
10
-0.5209
20
-54.6094
0
VERTEX
10
-0.5102
20
-54.5980
0
VERTEX
10
-0.5001
20
-54.5866
0
VERTEX
10
-0.4907
20
-54.5753
0
VERTEX
10
-0.4823
20
-54.5639
0
VERTEX
10
-0.4749
20
-54.5525
0
VERTEX
10
-0.4687
20
-54.5411
0
VERTEX
10
-0.4638
20
-54.5297
0
VERTEX
10
-0.4602
20
-54.5184
0
VERTEX
10
-0.4580
20
-54.5070
0
VERTEX
10
-0.4573
20
-54.4956
0
VERTEX
10
0.4573
20
-54.4956
0
VERTEX
10
0.4580
20
-54.5070
0
VERTEX
10
0.4602
20
-54.5184
0
VERTEX
10
0.4638
20
-54.5297
0
VERTEX
10
0.4687
20
-54.5411
0
VERTEX
10
0.4749
20
-54.5525
0
VERTEX
10
0.4823
20
-54.5639
0
VERTEX
10
0.4907
20
-54.5753
0
VERTEX
10
0.5001
20
-54.5866
0
VERTEX
10
0.5102
20
-54.5980
0
VERTEX
10
0.5209
20
-54.6094
0
VERTEX
10
0.5320
20
-54.6208
0
VERTEX
10
0.5433
20
-54.6322
0
VERTEX
10
0.5547
20
-54.6435
0
VERTEX
10
0.5660
20
-54.6549
0
VERTEX
10
0.5769
20
-54.6663
0
VERTEX
10
0.5873
20
-54.6777
0
VERTEX
10
0.5970
20
-54.6891
0
VERTEX
10
0.6060
20
-54.7004
0
VERTEX
10
0.6139
20
-54.7118
0
VERTEX
10
0.6207
20
-54.7232
0
VERTEX
10
0.6263
20
-54.7346
0
VERTEX
10
0.6306
20
-54.7460
0
VERTEX
10
0.6334
20
-54.7573
0
VERTEX
10
0.6349
20
-54.7687
0
VERTEX
10
0.6349
20
-54.7801
0
VERTEX
10
0.6334
20
-54.7915
0
VERTEX
10
0.6306
20
-54.8028
0
VERTEX
10
0.6263
20
-54.8142
0
VERTEX
10
0.6207
20
-54.8256
0
VERTEX
10
0.6139
20
-54.8370
0
VERTEX
10
0.6060
20
-54.8484
0
VERTEX
10
0.5970
20
-54.8597
0
VERTEX
10
0.5873
20
-54.8711
0
VERTEX
10
0.5769
20
-54.8825
0
VERTEX
10
0.5660
20
-54.8939
0
VERTEX
10
0.5547
20
-54.9053
0
VERTEX
10
0.5433
20
-54.9166
0
VERTEX
10
0.5320
20
-54.9280
0
VERTEX
10
0.5209
20
-54.9394
0
VERTEX
10
0.5102
20
-54.9508
0
VERTEX
10
0.5001
20
-54.9622
0
VERTEX
10
0.4907
20
-54.9735
0
VERTEX
10
0.4823
20
-54.9849
0
VERTEX
10
0.4749
20
-54.9963
0
VERTEX
10
0.4687
20
-55.0077
0
VERTEX
10
0.4638
20
-55.0191
0
VERTEX
10
0.4602
20
-55.0304
0
VERTEX
10
0.4580
20
-55.0418
0
VERTEX
10
0.4573
20
-55.0532
0
SEQEND
0
POLYLINE
8
M1_Neg
70
1
0
VERTEX
10
-0.4573
20
-54.4956
0
VERTEX
10
-0.4580
20
-54.4842
0
VERTEX
10
-0.4602
20
-54.4728
0
VERTEX
10
-0.4638
20
-54.4615
0
VERTEX
10
-0.4687
20
-54.4501
0
VERTEX
10
-0.4749
20
-54.4387
0
VERTEX
10
-0.4823
20
-54.4273
0
VERTEX
10
-0.4907
20
-54.4159
0
VERTEX
10
-0.5001
20
-54.4046
0
VERTEX
10
-0.5102
20
-54.3932
0
VERTEX
10
-0.5209
20
-54.3818
0
VERTEX
10
-0.5320
20
-54.3704
0
VERTEX
10
-0.5433
20
-54.3590
0
VERTEX
10
-0.5547
20
-54.3477
0
VERTEX
10
-0.5660
20
-54.3363
0
VERTEX
10
-0.5769
20
-54.3249
0
VERTEX
10
-0.5873
20
-54.3135
0
VERTEX
10
-0.5970
20
-54.3021
0
VERTEX
10
-0.6060
20
-54.2908
0
VERTEX
10
-0.6139
20
-54.2794
0
VERTEX
10
-0.6207
20
-54.2680
0
VERTEX
10
-0.6263
20
-54.2566
0
VERTEX
10
-0.6306
20
-54.2452
0
VERTEX
10
-0.6334
20
-54.2339
0
VERTEX
10
-0.6349
20
-54.2225
0
VERTEX
10
-0.6349
20
-54.2111
0
VERTEX
10
-0.6334
20
-54.1997
0
VERTEX
10
-0.6306
20
-54.1884
0
VERTEX
10
-0.6263
20
-54.1770
0
VERTEX
10
-0.6207
20
-54.1656
0
VERTEX
10
-0.6139
20
-54.1542
0
VERTEX
10
-0.6060
20
-54.1428
0
VERTEX
10
-0.5970
20
-54.1315
0
VERTEX
10
-0.5873
20
-54.1201
0
VERTEX
10
-0.5769
20
-54.1087
0
VERTEX
10
-0.5660
20
-54.0973
0
VERTEX
10
-0.5547
20
-54.0859
0
VERTEX
10
-0.5433
20
-54.0746
0
VERTEX
10
-0.5320
20
-54.0632
0
VERTEX
10
-0.5209
20
-54.0518
0
VERTEX
10
-0.5102
20
-54.0404
0
VERTEX
10
-0.5001
20
-54.0290
0
VERTEX
10
-0.4907
20
-54.0177
0
VERTEX
10
-0.4823
20
-54.0063
0
VERTEX
10
-0.4749
20
-53.9949
0
VERTEX
10
-0.4687
20
-53.9835
0
VERTEX
10
-0.4638
20
-53.9721
0
VERTEX
10
-0.4602
20
-53.9608
0
VERTEX
10
-0.4580
20
-53.9494
0
VERTEX
10
-0.4573
20
-53.9380
0
VERTEX
10
0.4573
20
-53.9380
0
VERTEX
10
0.4580
20
-53.9494
0
VERTEX
10
0.4602
20
-53.9608
0
VERTEX
10
0.4638
20
-53.9721
0
VERTEX
10
0.4687
20
-53.9835
0
VERTEX
10
0.4749
20
-53.9949
0
VERTEX
10
0.4823
20
-54.0063
0
VERTEX
10
0.4907
20
-54.0177
0
VERTEX
10
0.5001
20
-54.0290
0
VERTEX
10
0.5102
20
-54.0404
0
VERTEX
10
0.5209
20
-54.0518
0
VERTEX
10
0.5320
20
-54.0632
0
VERTEX
10
0.5433
20
-54.0746
0
VERTEX
10
0.5547
20
-54.0859
0
VERTEX
10
0.5660
20
-54.0973
0
VERTEX
10
0.5769
20
-54.1087
0
VERTEX
10
0.5873
20
-54.1201
0
VERTEX
10
0.5970
20
-54.1315
0
VERTEX
10
0.6060
20
-54.1428
0
VERTEX
10
0.6139
20
-54.1542
0
VERTEX
10
0.6207
20
-54.1656
0
VERTEX
10
0.6263
20
-54.1770
0
VERTEX
10
0.6306
20
-54.1884
0
VERTEX
10
0.6334
20
-54.1997
0
VERTEX
10
0.6349
20
-54.2111
0
VERTEX
10
0.6349
20
-54.2225
0
VERTEX
10
0.6334
20
-54.2339
0
VERTEX
10
0.6306
20
-54.2452
0
VERTEX
10
0.6263
20
-54.2566
0
VERTEX
10
0.6207
20
-54.2680
0
VERTEX
10
0.6139
20
-54.2794
0
VERTEX
10
0.6060
20
-54.2908
0
VERTEX
10
0.5970
20
-54.3021
0
VERTEX
10
0.5873
20
-54.3135
0
VERTEX
10
0.5769
20
-54.3249
0
VERTEX
10
0.5660
20
-54.3363
0
VERTEX
10
0.5547
20
-54.3477
0
VERTEX
10
0.5433
20
-54.3590
0
VERTEX
10
0.5320
20
-54.3704
0
VERTEX
10
0.5209
20
-54.3818
0
VERTEX
10
0.5102
20
-54.3932
0
VERTEX
10
0.5001
20
-54.4046
0
VERTEX
10
0.4907
20
-54.4159
0
VERTEX
10
0.4823
20
-54.4273
0
VERTEX
10
0.4749
20
-54.4387
0
VERTEX
10
0.4687
20
-54.4501
0
VERTEX
10
0.4638
20
-54.4615
0
VERTEX
10
0.4602
20
-54.4728
0
VERTEX
10
0.4580
20
-54.4842
0
VERTEX
10
0.4573
20
-54.4956
0
SEQEND
0
POLYLINE
8
M1_Neg
70
1
0
VERTEX
10
-0.4573
20
-53.9380
0
VERTEX
10
-0.4580
20
-53.9266
0
VERTEX
10
-0.4602
20
-53.9152
0
VERTEX
10
-0.4638
20
-53.9039
0
VERTEX
10
-0.4687
20
-53.8925
0
VERTEX
10
-0.4749
20
-53.8811
0
VERTEX
10
-0.4823
20
-53.8697
0
VERTEX
10
-0.4907
20
-53.8583
0
VERTEX
10
-0.5001
20
-53.8470
0
VERTEX
10
-0.5102
20
-53.8356
0
VERTEX
10
-0.5209
20
-53.8242
0
VERTEX
10
-0.5320
20
-53.8128
0
VERTEX
10
-0.5433
20
-53.8014
0
VERTEX
10
-0.5547
20
-53.7901
0
VERTEX
10
-0.5660
20
-53.7787
0
VERTEX
10
-0.5769
20
-53.7673
0
VERTEX
10
-0.5873
20
-53.7559
0
VERTEX
10
-0.5970
20
-53.7445
0
VERTEX
10
-0.6060
20
-53.7332
0
VERTEX
10
-0.6139
20
-53.7218
0
VERTEX
10
-0.6207
20
-53.7104
0
VERTEX
10
-0.6263
20
-53.6990
0
VERTEX
10
-0.6306
20
-53.6876
0
VERTEX
10
-0.6334
20
-53.6763
0
VERTEX
10
-0.6349
20
-53.6649
0
VERTEX
10
-0.6349
20
-53.6535
0
VERTEX
10
-0.6334
20
-53.6421
0
VERTEX
10
-0.6306
20
-53.6308
0
VERTEX
10
-0.6263
20
-53.6194
0
VERTEX
10
-0.6207
20
-53.6080
0
VERTEX
10
-0.6139
20
-53.5966
0
VERTEX
10
-0.6060
20
-53.5852
0
VERTEX
10
-0.5970
20
-53.5739
0
VERTEX
10
-0.5873
20
-53.5625
0
VERTEX
10
-0.5769
20
-53.5511
0
VERTEX
10
-0.5660
20
-53.5397
0
VERTEX
10
-0.5547
20
-53.5283
0
VERTEX
10
-0.5433
20
-53.5170
0
VERTEX
10
-0.5320
20
-53.5056
0
VERTEX
10
-0.5209
20
-53.4942
0
VERTEX
10
-0.5102
20
-53.4828
0
VERTEX
10
-0.5001
20
-53.4714
0
VERTEX
10
-0.4907
20
-53.4601
0
VERTEX
10
-0.4823
20
-53.4487
0
VERTEX
10
-0.4749
20
-53.4373
0
VERTEX
10
-0.4687
20
-53.4259
0
VERTEX
10
-0.4638
20
-53.4145
0
VERTEX
10
-0.4602
20
-53.4032
0
VERTEX
10
-0.4580
20
-53.3918
0
VERTEX
10
-0.4573
20
-53.3804
0
VERTEX
10
0.4573
20
-53.3804
0
VERTEX
10
0.4580
20
-53.3918
0
VERTEX
10
0.4602
20
-53.4032
0
VERTEX
10
0.4638
20
-53.4145
0
VERTEX
10
0.4687
20
-53.4259
0
VERTEX
10
0.4749
20
-53.4373
0
VERTEX
10
0.4823
20
-53.4487
0
VERTEX
10
0.4907
20
-53.4601
0
VERTEX
10
0.5001
20
-53.4714
0
VERTEX
10
0.5102
20
-53.4828
0
VERTEX
10
0.5209
20
-53.4942
0
VERTEX
10
0.5320
20
-53.5056
0
VERTEX
10
0.5433
20
-53.5170
0
VERTEX
10
0.5547
20
-53.5283
0
VERTEX
10
0.5660
20
-53.5397
0
VERTEX
10
0.5769
20
-53.5511
0
VERTEX
10
0.5873
20
-53.5625
0
VERTEX
10
0.5970
20
-53.5739
0
VERTEX
10
0.6060
20
-53.5852
0
VERTEX
10
0.6139
20
-53.5966
0
VERTEX
10
0.6207
20
-53.6080
0
VERTEX
10
0.6263
20
-53.6194
0
VERTEX
10
0.6306
20
-53.6308
0
VERTEX
10
0.6334
20
-53.6421
0
VERTEX
10
0.6349
20
-53.6535
0
VERTEX
10
0.6349
20
-53.6649
0
VERTEX
10
0.6334
20
-53.6763
0
VERTEX
10
0.6306
20
-53.6876
0
VERTEX
10
0.6263
20
-53.6990
0
VERTEX
10
0.6207
20
-53.7104
0
VERTEX
10
0.6139
20
-53.7218
0
VERTEX
10
0.6060
20
-53.7332
0
VERTEX
10
0.5970
20
-53.7445
0
VERTEX
10
0.5873
20
-53.7559
0
VERTEX
10
0.5769
20
-53.7673
0
VERTEX
10
0.5660
20
-53.7787
0
VERTEX
10
0.5547
20
-53.7901
0
VERTEX
10
0.5433
20
-53.8014
0
VERTEX
10
0.5320
20
-53.8128
0
VERTEX
10
0.5209
20
-53.8242
0
VERTEX
10
0.5102
20
-53.8356
0
VERTEX
10
0.5001
20
-53.8470
0
VERTEX
10
0.4907
20
-53.8583
0
VERTEX
10
0.4823
20
-53.8697
0
VERTEX
10
0.4749
20
-53.8811
0
VERTEX
10
0.4687
20
-53.8925
0
VERTEX
10
0.4638
20
-53.9039
0
VERTEX
10
0.4602
20
-53.9152
0
VERTEX
10
0.4580
20
-53.9266
0
VERTEX
10
0.4573
20
-53.9380
0
SEQEND
0
POLYLINE
8
M1_Neg
70
1
0
VERTEX
10
-0.4573
20
-53.3804
0
VERTEX
10
-0.4580
20
-53.3690
0
VERTEX
10
-0.4602
20
-53.3576
0
VERTEX
10
-0.4638
20
-53.3463
0
VERTEX
10
-0.4687
20
-53.3349
0
VERTEX
10
-0.4749
20
-53.3235
0
VERTEX
10
-0.4823
20
-53.3121
0
VERTEX
10
-0.4907
20
-53.3007
0
VERTEX
10
-0.5001
20
-53.2894
0
VERTEX
10
-0.5102
20
-53.2780
0
VERTEX
10
-0.5209
20
-53.2666
0
VERTEX
10
-0.5320
20
-53.2552
0
VERTEX
10
-0.5433
20
-53.2438
0
VERTEX
10
-0.5547
20
-53.2325
0
VERTEX
10
-0.5660
20
-53.2211
0
VERTEX
10
-0.5769
20
-53.2097
0
VERTEX
10
-0.5873
20
-53.1983
0
VERTEX
10
-0.5970
20
-53.1869
0
VERTEX
10
-0.6060
20
-53.1756
0
VERTEX
10
-0.6139
20
-53.1642
0
VERTEX
10
-0.6207
20
-53.1528
0
VERTEX
10
-0.6263
20
-53.1414
0
VERTEX
10
-0.6306
20
-53.1300
0
VERTEX
10
-0.6334
20
-53.1187
0
VERTEX
10
-0.6349
20
-53.1073
0
VERTEX
10
-0.6349
20
-53.0959
0
VERTEX
10
-0.6334
20
-53.0845
0
VERTEX
10
-0.6306
20
-53.0732
0
VERTEX
10
-0.6263
20
-53.0618
0
VERTEX
10
-0.6207
20
-53.0504
0
VERTEX
10
-0.6139
20
-53.0390
0
VERTEX
10
-0.6060
20
-53.0276
0
VERTEX
10
-0.5970
20
-53.0163
0
VERTEX
10
-0.5873
20
-53.0049
0
VERTEX
10
-0.5769
20
-52.9935
0
VERTEX
10
-0.5660
20
-52.9821
0
VERTEX
10
-0.5547
20
-52.9707
0
VERTEX
10
-0.5433
20
-52.9594
0
VERTEX
10
-0.5320
20
-52.9480
0
VERTEX
10
-0.5209
20
-52.9366
0
VERTEX
10
-0.5102
20
-52.9252
0
VERTEX
10
-0.5001
20
-52.9138
0
VERTEX
10
-0.4907
20
-52.9025
0
VERTEX
10
-0.4823
20
-52.8911
0
VERTEX
10
-0.4749
20
-52.8797
0
VERTEX
10
-0.4687
20
-52.8683
0
VERTEX
10
-0.4638
20
-52.8569
0
VERTEX
10
-0.4602
20
-52.8456
0
VERTEX
10
-0.4580
20
-52.8342
0
VERTEX
10
-0.4573
20
-52.8228
0
VERTEX
10
0.4573
20
-52.8228
0
VERTEX
10
0.4580
20
-52.8342
0
VERTEX
10
0.4602
20
-52.8456
0
VERTEX
10
0.4638
20
-52.8569
0
VERTEX
10
0.4687
20
-52.8683
0
VERTEX
10
0.4749
20
-52.8797
0
VERTEX
10
0.4823
20
-52.8911
0
VERTEX
10
0.4907
20
-52.9025
0
VERTEX
10
0.5001
20
-52.9138
0
VERTEX
10
0.5102
20
-52.9252
0
VERTEX
10
0.5209
20
-52.9366
0
VERTEX
10
0.5320
20
-52.9480
0
VERTEX
10
0.5433
20
-52.9594
0
VERTEX
10
0.5547
20
-52.9707
0
VERTEX
10
0.5660
20
-52.9821
0
VERTEX
10
0.5769
20
-52.9935
0
VERTEX
10
0.5873
20
-53.0049
0
VERTEX
10
0.5970
20
-53.0163
0
VERTEX
10
0.6060
20
-53.0276
0
VERTEX
10
0.6139
20
-53.0390
0
VERTEX
10
0.6207
20
-53.0504
0
VERTEX
10
0.6263
20
-53.0618
0
VERTEX
10
0.6306
20
-53.0732
0
VERTEX
10
0.6334
20
-53.0845
0
VERTEX
10
0.6349
20
-53.0959
0
VERTEX
10
0.6349
20
-53.1073
0
VERTEX
10
0.6334
20
-53.1187
0
VERTEX
10
0.6306
20
-53.1300
0
VERTEX
10
0.6263
20
-53.1414
0
VERTEX
10
0.6207
20
-53.1528
0
VERTEX
10
0.6139
20
-53.1642
0
VERTEX
10
0.6060
20
-53.1756
0
VERTEX
10
0.5970
20
-53.1869
0
VERTEX
10
0.5873
20
-53.1983
0
VERTEX
10
0.5769
20
-53.2097
0
VERTEX
10
0.5660
20
-53.2211
0
VERTEX
10
0.5547
20
-53.2325
0
VERTEX
10
0.5433
20
-53.2438
0
VERTEX
10
0.5320
20
-53.2552
0
VERTEX
10
0.5209
20
-53.2666
0
VERTEX
10
0.5102
20
-53.2780
0
VERTEX
10
0.5001
20
-53.2894
0
VERTEX
10
0.4907
20
-53.3007
0
VERTEX
10
0.4823
20
-53.3121
0
VERTEX
10
0.4749
20
-53.3235
0
VERTEX
10
0.4687
20
-53.3349
0
VERTEX
10
0.4638
20
-53.3463
0
VERTEX
10
0.4602
20
-53.3576
0
VERTEX
10
0.4580
20
-53.3690
0
VERTEX
10
0.4573
20
-53.3804
0
SEQEND
0
POLYLINE
8
M1_Neg
70
1
0
VERTEX
10
-0.4573
20
-52.8228
0
VERTEX
10
-0.4580
20
-52.8114
0
VERTEX
10
-0.4602
20
-52.8000
0
VERTEX
10
-0.4638
20
-52.7887
0
VERTEX
10
-0.4687
20
-52.7773
0
VERTEX
10
-0.4749
20
-52.7659
0
VERTEX
10
-0.4823
20
-52.7545
0
VERTEX
10
-0.4907
20
-52.7431
0
VERTEX
10
-0.5001
20
-52.7318
0
VERTEX
10
-0.5102
20
-52.7204
0
VERTEX
10
-0.5209
20
-52.7090
0
VERTEX
10
-0.5320
20
-52.6976
0
VERTEX
10
-0.5433
20
-52.6862
0
VERTEX
10
-0.5547
20
-52.6749
0
VERTEX
10
-0.5660
20
-52.6635
0
VERTEX
10
-0.5769
20
-52.6521
0
VERTEX
10
-0.5873
20
-52.6407
0
VERTEX
10
-0.5970
20
-52.6293
0
VERTEX
10
-0.6060
20
-52.6180
0
VERTEX
10
-0.6139
20
-52.6066
0
VERTEX
10
-0.6207
20
-52.5952
0
VERTEX
10
-0.6263
20
-52.5838
0
VERTEX
10
-0.6306
20
-52.5724
0
VERTEX
10
-0.6334
20
-52.5611
0
VERTEX
10
-0.6349
20
-52.5497
0
VERTEX
10
-0.6349
20
-52.5383
0
VERTEX
10
-0.6334
20
-52.5269
0
VERTEX
10
-0.6306
20
-52.5156
0
VERTEX
10
-0.6263
20
-52.5042
0
VERTEX
10
-0.6207
20
-52.4928
0
VERTEX
10
-0.6139
20
-52.4814
0
VERTEX
10
-0.6060
20
-52.4700
0
VERTEX
10
-0.5970
20
-52.4587
0
VERTEX
10
-0.5873
20
-52.4473
0
VERTEX
10
-0.5769
20
-52.4359
0
VERTEX
10
-0.5660
20
-52.4245
0
VERTEX
10
-0.5547
20
-52.4131
0
VERTEX
10
-0.5433
20
-52.4018
0
VERTEX
10
-0.5320
20
-52.3904
0
VERTEX
10
-0.5209
20
-52.3790
0
VERTEX
10
-0.5102
20
-52.3676
0
VERTEX
10
-0.5001
20
-52.3562
0
VERTEX
10
-0.4907
20
-52.3449
0
VERTEX
10
-0.4823
20
-52.3335
0
VERTEX
10
-0.4749
20
-52.3221
0
VERTEX
10
-0.4687
20
-52.3107
0
VERTEX
10
-0.4638
20
-52.2993
0
VERTEX
10
-0.4602
20
-52.2880
0
VERTEX
10
-0.4580
20
-52.2766
0
VERTEX
10
-0.4573
20
-52.2652
0
VERTEX
10
0.4573
20
-52.2652
0
VERTEX
10
0.4580
20
-52.2766
0
VERTEX
10
0.4602
20
-52.2880
0
VERTEX
10
0.4638
20
-52.2993
0
VERTEX
10
0.4687
20
-52.3107
0
VERTEX
10
0.4749
20
-52.3221
0
VERTEX
10
0.4823
20
-52.3335
0
VERTEX
10
0.4907
20
-52.3449
0
VERTEX
10
0.5001
20
-52.3562
0
VERTEX
10
0.5102
20
-52.3676
0
VERTEX
10
0.5209
20
-52.3790
0
VERTEX
10
0.5320
20
-52.3904
0
VERTEX
10
0.5433
20
-52.4018
0
VERTEX
10
0.5547
20
-52.4131
0
VERTEX
10
0.5660
20
-52.4245
0
VERTEX
10
0.5769
20
-52.4359
0
VERTEX
10
0.5873
20
-52.4473
0
VERTEX
10
0.5970
20
-52.4587
0
VERTEX
10
0.6060
20
-52.4700
0
VERTEX
10
0.6139
20
-52.4814
0
VERTEX
10
0.6207
20
-52.4928
0
VERTEX
10
0.6263
20
-52.5042
0
VERTEX
10
0.6306
20
-52.5156
0
VERTEX
10
0.6334
20
-52.5269
0
VERTEX
10
0.6349
20
-52.5383
0
VERTEX
10
0.6349
20
-52.5497
0
VERTEX
10
0.6334
20
-52.5611
0
VERTEX
10
0.6306
20
-52.5724
0
VERTEX
10
0.6263
20
-52.5838
0
VERTEX
10
0.6207
20
-52.5952
0
VERTEX
10
0.6139
20
-52.6066
0
VERTEX
10
0.6060
20
-52.6180
0
VERTEX
10
0.5970
20
-52.6293
0
VERTEX
10
0.5873
20
-52.6407
0
VERTEX
10
0.5769
20
-52.6521
0
VERTEX
10
0.5660
20
-52.6635
0
VERTEX
10
0.5547
20
-52.6749
0
VERTEX
10
0.5433
20
-52.6862
0
VERTEX
10
0.5320
20
-52.6976
0
VERTEX
10
0.5209
20
-52.7090
0
VERTEX
10
0.5102
20
-52.7204
0
VERTEX
10
0.5001
20
-52.7318
0
VERTEX
10
0.4907
20
-52.7431
0
VERTEX
10
0.4823
20
-52.7545
0
VERTEX
10
0.4749
20
-52.7659
0
VERTEX
10
0.4687
20
-52.7773
0
VERTEX
10
0.4638
20
-52.7887
0
VERTEX
10
0.4602
20
-52.8000
0
VERTEX
10
0.4580
20
-52.8114
0
VERTEX
10
0.4573
20
-52.8228
0
SEQEND
0
POLYLINE
8
M1_Neg
70
1
0
VERTEX
10
-0.4573
20
-52.2652
0
VERTEX
10
-0.4580
20
-52.2538
0
VERTEX
10
-0.4602
20
-52.2424
0
VERTEX
10
-0.4638
20
-52.2311
0
VERTEX
10
-0.4687
20
-52.2197
0
VERTEX
10
-0.4749
20
-52.2083
0
VERTEX
10
-0.4823
20
-52.1969
0
VERTEX
10
-0.4907
20
-52.1855
0
VERTEX
10
-0.5001
20
-52.1742
0
VERTEX
10
-0.5102
20
-52.1628
0
VERTEX
10
-0.5209
20
-52.1514
0
VERTEX
10
-0.5320
20
-52.1400
0
VERTEX
10
-0.5433
20
-52.1286
0
VERTEX
10
-0.5547
20
-52.1173
0
VERTEX
10
-0.5660
20
-52.1059
0
VERTEX
10
-0.5769
20
-52.0945
0
VERTEX
10
-0.5873
20
-52.0831
0
VERTEX
10
-0.5970
20
-52.0717
0
VERTEX
10
-0.6060
20
-52.0604
0
VERTEX
10
-0.6139
20
-52.0490
0
VERTEX
10
-0.6207
20
-52.0376
0
VERTEX
10
-0.6263
20
-52.0262
0
VERTEX
10
-0.6306
20
-52.0148
0
VERTEX
10
-0.6334
20
-52.0035
0
VERTEX
10
-0.6349
20
-51.9921
0
VERTEX
10
-0.6349
20
-51.9807
0
VERTEX
10
-0.6334
20
-51.9693
0
VERTEX
10
-0.6306
20
-51.9580
0
VERTEX
10
-0.6263
20
-51.9466
0
VERTEX
10
-0.6207
20
-51.9352
0
VERTEX
10
-0.6139
20
-51.9238
0
VERTEX
10
-0.6060
20
-51.9124
0
VERTEX
10
-0.5970
20
-51.9011
0
VERTEX
10
-0.5873
20
-51.8897
0
VERTEX
10
-0.5769
20
-51.8783
0
VERTEX
10
-0.5660
20
-51.8669
0
VERTEX
10
-0.5547
20
-51.8555
0
VERTEX
10
-0.5433
20
-51.8442
0
VERTEX
10
-0.5320
20
-51.8328
0
VERTEX
10
-0.5209
20
-51.8214
0
VERTEX
10
-0.5102
20
-51.8100
0
VERTEX
10
-0.5001
20
-51.7986
0
VERTEX
10
-0.4907
20
-51.7873
0
VERTEX
10
-0.4823
20
-51.7759
0
VERTEX
10
-0.4749
20
-51.7645
0
VERTEX
10
-0.4687
20
-51.7531
0
VERTEX
10
-0.4638
20
-51.7417
0
VERTEX
10
-0.4602
20
-51.7304
0
VERTEX
10
-0.4580
20
-51.7190
0
VERTEX
10
-0.4573
20
-51.7076
0
VERTEX
10
0.4573
20
-51.7076
0
VERTEX
10
0.4580
20
-51.7190
0
VERTEX
10
0.4602
20
-51.7304
0
VERTEX
10
0.4638
20
-51.7417
0
VERTEX
10
0.4687
20
-51.7531
0
VERTEX
10
0.4749
20
-51.7645
0
VERTEX
10
0.4823
20
-51.7759
0
VERTEX
10
0.4907
20
-51.7873
0
VERTEX
10
0.5001
20
-51.7986
0
VERTEX
10
0.5102
20
-51.8100
0
VERTEX
10
0.5209
20
-51.8214
0
VERTEX
10
0.5320
20
-51.8328
0
VERTEX
10
0.5433
20
-51.8442
0
VERTEX
10
0.5547
20
-51.8555
0
VERTEX
10
0.5660
20
-51.8669
0
VERTEX
10
0.5769
20
-51.8783
0
VERTEX
10
0.5873
20
-51.8897
0
VERTEX
10
0.5970
20
-51.9011
0
VERTEX
10
0.6060
20
-51.9124
0
VERTEX
10
0.6139
20
-51.9238
0
VERTEX
10
0.6207
20
-51.9352
0
VERTEX
10
0.6263
20
-51.9466
0
VERTEX
10
0.6306
20
-51.9580
0
VERTEX
10
0.6334
20
-51.9693
0
VERTEX
10
0.6349
20
-51.9807
0
VERTEX
10
0.6349
20
-51.9921
0
VERTEX
10
0.6334
20
-52.0035
0
VERTEX
10
0.6306
20
-52.0148
0
VERTEX
10
0.6263
20
-52.0262
0
VERTEX
10
0.6207
20
-52.0376
0
VERTEX
10
0.6139
20
-52.0490
0
VERTEX
10
0.6060
20
-52.0604
0
VERTEX
10
0.5970
20
-52.0717
0
VERTEX
10
0.5873
20
-52.0831
0
VERTEX
10
0.5769
20
-52.0945
0
VERTEX
10
0.5660
20
-52.1059
0
VERTEX
10
0.5547
20
-52.1173
0
VERTEX
10
0.5433
20
-52.1286
0
VERTEX
10
0.5320
20
-52.1400
0
VERTEX
10
0.5209
20
-52.1514
0
VERTEX
10
0.5102
20
-52.1628
0
VERTEX
10
0.5001
20
-52.1742
0
VERTEX
10
0.4907
20
-52.1855
0
VERTEX
10
0.4823
20
-52.1969
0
VERTEX
10
0.4749
20
-52.2083
0
VERTEX
10
0.4687
20
-52.2197
0
VERTEX
10
0.4638
20
-52.2311
0
VERTEX
10
0.4602
20
-52.2424
0
VERTEX
10
0.4580
20
-52.2538
0
VERTEX
10
0.4573
20
-52.2652
0
SEQEND
0
POLYLINE
8
M1_Neg
70
1
0
VERTEX
10
-0.4573
20
-51.7076
0
VERTEX
10
-0.4580
20
-51.6962
0
VERTEX
10
-0.4602
20
-51.6848
0
VERTEX
10
-0.4638
20
-51.6735
0
VERTEX
10
-0.4687
20
-51.6621
0
VERTEX
10
-0.4749
20
-51.6507
0
VERTEX
10
-0.4823
20
-51.6393
0
VERTEX
10
-0.4907
20
-51.6279
0
VERTEX
10
-0.5001
20
-51.6166
0
VERTEX
10
-0.5102
20
-51.6052
0
VERTEX
10
-0.5209
20
-51.5938
0
VERTEX
10
-0.5320
20
-51.5824
0
VERTEX
10
-0.5433
20
-51.5710
0
VERTEX
10
-0.5547
20
-51.5597
0
VERTEX
10
-0.5660
20
-51.5483
0
VERTEX
10
-0.5769
20
-51.5369
0
VERTEX
10
-0.5873
20
-51.5255
0
VERTEX
10
-0.5970
20
-51.5141
0
VERTEX
10
-0.6060
20
-51.5028
0
VERTEX
10
-0.6139
20
-51.4914
0
VERTEX
10
-0.6207
20
-51.4800
0
VERTEX
10
-0.6263
20
-51.4686
0
VERTEX
10
-0.6306
20
-51.4572
0
VERTEX
10
-0.6334
20
-51.4459
0
VERTEX
10
-0.6349
20
-51.4345
0
VERTEX
10
-0.6349
20
-51.4231
0
VERTEX
10
-0.6334
20
-51.4117
0
VERTEX
10
-0.6306
20
-51.4004
0
VERTEX
10
-0.6263
20
-51.3890
0
VERTEX
10
-0.6207
20
-51.3776
0
VERTEX
10
-0.6139
20
-51.3662
0
VERTEX
10
-0.6060
20
-51.3548
0
VERTEX
10
-0.5970
20
-51.3435
0
VERTEX
10
-0.5873
20
-51.3321
0
VERTEX
10
-0.5769
20
-51.3207
0
VERTEX
10
-0.5660
20
-51.3093
0
VERTEX
10
-0.5547
20
-51.2979
0
VERTEX
10
-0.5433
20
-51.2866
0
VERTEX
10
-0.5320
20
-51.2752
0
VERTEX
10
-0.5209
20
-51.2638
0
VERTEX
10
-0.5102
20
-51.2524
0
VERTEX
10
-0.5001
20
-51.2410
0
VERTEX
10
-0.4907
20
-51.2297
0
VERTEX
10
-0.4823
20
-51.2183
0
VERTEX
10
-0.4749
20
-51.2069
0
VERTEX
10
-0.4687
20
-51.1955
0
VERTEX
10
-0.4638
20
-51.1841
0
VERTEX
10
-0.4602
20
-51.1728
0
VERTEX
10
-0.4580
20
-51.1614
0
VERTEX
10
-0.4573
20
-51.1500
0
VERTEX
10
0.4573
20
-51.1500
0
VERTEX
10
0.4580
20
-51.1614
0
VERTEX
10
0.4602
20
-51.1728
0
VERTEX
10
0.4638
20
-51.1841
0
VERTEX
10
0.4687
20
-51.1955
0
VERTEX
10
0.4749
20
-51.2069
0
VERTEX
10
0.4823
20
-51.2183
0
VERTEX
10
0.4907
20
-51.2297
0
VERTEX
10
0.5001
20
-51.2410
0
VERTEX
10
0.5102
20
-51.2524
0
VERTEX
10
0.5209
20
-51.2638
0
VERTEX
10
0.5320
20
-51.2752
0
VERTEX
10
0.5433
20
-51.2866
0
VERTEX
10
0.5547
20
-51.2979
0
VERTEX
10
0.5660
20
-51.3093
0
VERTEX
10
0.5769
20
-51.3207
0
VERTEX
10
0.5873
20
-51.3321
0
VERTEX
10
0.5970
20
-51.3435
0
VERTEX
10
0.6060
20
-51.3548
0
VERTEX
10
0.6139
20
-51.3662
0
VERTEX
10
0.6207
20
-51.3776
0
VERTEX
10
0.6263
20
-51.3890
0
VERTEX
10
0.6306
20
-51.4004
0
VERTEX
10
0.6334
20
-51.4117
0
VERTEX
10
0.6349
20
-51.4231
0
VERTEX
10
0.6349
20
-51.4345
0
VERTEX
10
0.6334
20
-51.4459
0
VERTEX
10
0.6306
20
-51.4572
0
VERTEX
10
0.6263
20
-51.4686
0
VERTEX
10
0.6207
20
-51.4800
0
VERTEX
10
0.6139
20
-51.4914
0
VERTEX
10
0.6060
20
-51.5028
0
VERTEX
10
0.5970
20
-51.5141
0
VERTEX
10
0.5873
20
-51.5255
0
VERTEX
10
0.5769
20
-51.5369
0
VERTEX
10
0.5660
20
-51.5483
0
VERTEX
10
0.5547
20
-51.5597
0
VERTEX
10
0.5433
20
-51.5710
0
VERTEX
10
0.5320
20
-51.5824
0
VERTEX
10
0.5209
20
-51.5938
0
VERTEX
10
0.5102
20
-51.6052
0
VERTEX
10
0.5001
20
-51.6166
0
VERTEX
10
0.4907
20
-51.6279
0
VERTEX
10
0.4823
20
-51.6393
0
VERTEX
10
0.4749
20
-51.6507
0
VERTEX
10
0.4687
20
-51.6621
0
VERTEX
10
0.4638
20
-51.6735
0
VERTEX
10
0.4602
20
-51.6848
0
VERTEX
10
0.4580
20
-51.6962
0
VERTEX
10
0.4573
20
-51.7076
0
SEQEND
0
POLYLINE
8
M1_Neg
70
1
0
VERTEX
10
-0.4573
20
-51.1500
0
VERTEX
10
-0.4579
20
-51.1386
0
VERTEX
10
-0.4600
20
-51.1272
0
VERTEX
10
-0.4635
20
-51.1159
0
VERTEX
10
-0.4684
20
-51.1045
0
VERTEX
10
-0.4746
20
-51.0931
0
VERTEX
10
-0.4819
20
-51.0817
0
VERTEX
10
-0.4902
20
-51.0703
0
VERTEX
10
-0.4995
20
-51.0590
0
VERTEX
10
-0.5095
20
-51.0476
0
VERTEX
10
-0.5201
20
-51.0362
0
VERTEX
10
-0.5312
20
-51.0248
0
VERTEX
10
-0.5425
20
-51.0134
0
VERTEX
10
-0.5538
20
-51.0021
0
VERTEX
10
-0.5649
20
-50.9907
0
VERTEX
10
-0.5758
20
-50.9793
0
VERTEX
10
-0.5861
20
-50.9679
0
VERTEX
10
-0.5958
20
-50.9565
0
VERTEX
10
-0.6046
20
-50.9452
0
VERTEX
10
-0.6125
20
-50.9338
0
VERTEX
10
-0.6192
20
-50.9224
0
VERTEX
10
-0.6247
20
-50.9110
0
VERTEX
10
-0.6289
20
-50.8996
0
VERTEX
10
-0.6318
20
-50.8883
0
VERTEX
10
-0.6331
20
-50.8769
0
VERTEX
10
-0.6331
20
-50.8655
0
VERTEX
10
-0.6315
20
-50.8541
0
VERTEX
10
-0.6286
20
-50.8428
0
VERTEX
10
-0.6242
20
-50.8314
0
VERTEX
10
-0.6186
20
-50.8200
0
VERTEX
10
-0.6117
20
-50.8086
0
VERTEX
10
-0.6037
20
-50.7972
0
VERTEX
10
-0.5947
20
-50.7859
0
VERTEX
10
-0.5849
20
-50.7745
0
VERTEX
10
-0.5744
20
-50.7631
0
VERTEX
10
-0.5634
20
-50.7517
0
VERTEX
10
-0.5521
20
-50.7403
0
VERTEX
10
-0.5406
20
-50.7290
0
VERTEX
10
-0.5292
20
-50.7176
0
VERTEX
10
-0.5180
20
-50.7062
0
VERTEX
10
-0.5073
20
-50.6948
0
VERTEX
10
-0.4971
20
-50.6834
0
VERTEX
10
-0.4877
20
-50.6721
0
VERTEX
10
-0.4792
20
-50.6607
0
VERTEX
10
-0.4717
20
-50.6493
0
VERTEX
10
-0.4654
20
-50.6379
0
VERTEX
10
-0.4604
20
-50.6265
0
VERTEX
10
-0.4567
20
-50.6152
0
VERTEX
10
-0.4545
20
-50.6038
0
VERTEX
10
-0.4537
20
-50.5924
0
VERTEX
10
0.4537
20
-50.5924
0
VERTEX
10
0.4545
20
-50.6038
0
VERTEX
10
0.4567
20
-50.6152
0
VERTEX
10
0.4604
20
-50.6265
0
VERTEX
10
0.4654
20
-50.6379
0
VERTEX
10
0.4717
20
-50.6493
0
VERTEX
10
0.4792
20
-50.6607
0
VERTEX
10
0.4877
20
-50.6721
0
VERTEX
10
0.4971
20
-50.6834
0
VERTEX
10
0.5073
20
-50.6948
0
VERTEX
10
0.5180
20
-50.7062
0
VERTEX
10
0.5292
20
-50.7176
0
VERTEX
10
0.5406
20
-50.7290
0
VERTEX
10
0.5521
20
-50.7403
0
VERTEX
10
0.5634
20
-50.7517
0
VERTEX
10
0.5744
20
-50.7631
0
VERTEX
10
0.5849
20
-50.7745
0
VERTEX
10
0.5947
20
-50.7859
0
VERTEX
10
0.6037
20
-50.7972
0
VERTEX
10
0.6117
20
-50.8086
0
VERTEX
10
0.6186
20
-50.8200
0
VERTEX
10
0.6242
20
-50.8314
0
VERTEX
10
0.6286
20
-50.8428
0
VERTEX
10
0.6315
20
-50.8541
0
VERTEX
10
0.6331
20
-50.8655
0
VERTEX
10
0.6331
20
-50.8769
0
VERTEX
10
0.6318
20
-50.8883
0
VERTEX
10
0.6289
20
-50.8996
0
VERTEX
10
0.6247
20
-50.9110
0
VERTEX
10
0.6192
20
-50.9224
0
VERTEX
10
0.6125
20
-50.9338
0
VERTEX
10
0.6046
20
-50.9452
0
VERTEX
10
0.5958
20
-50.9565
0
VERTEX
10
0.5861
20
-50.9679
0
VERTEX
10
0.5758
20
-50.9793
0
VERTEX
10
0.5649
20
-50.9907
0
VERTEX
10
0.5538
20
-51.0021
0
VERTEX
10
0.5425
20
-51.0134
0
VERTEX
10
0.5312
20
-51.0248
0
VERTEX
10
0.5201
20
-51.0362
0
VERTEX
10
0.5095
20
-51.0476
0
VERTEX
10
0.4995
20
-51.0590
0
VERTEX
10
0.4902
20
-51.0703
0
VERTEX
10
0.4819
20
-51.0817
0
VERTEX
10
0.4746
20
-51.0931
0
VERTEX
10
0.4684
20
-51.1045
0
VERTEX
10
0.4635
20
-51.1159
0
VERTEX
10
0.4600
20
-51.1272
0
VERTEX
10
0.4579
20
-51.1386
0
VERTEX
10
0.4573
20
-51.1500
0
SEQEND
0
POLYLINE
8
M1_Neg
70
1
0
VERTEX
10
-0.4537
20
-50.5924
0
VERTEX
10
-0.4542
20
-50.5810
0
VERTEX
10
-0.4559
20
-50.5696
0
VERTEX
10
-0.4589
20
-50.5583
0
VERTEX
10
-0.4631
20
-50.5469
0
VERTEX
10
-0.4684
20
-50.5355
0
VERTEX
10
-0.4747
20
-50.5241
0
VERTEX
10
-0.4820
20
-50.5127
0
VERTEX
10
-0.4900
20
-50.5014
0
VERTEX
10
-0.4987
20
-50.4900
0
VERTEX
10
-0.5079
20
-50.4786
0
VERTEX
10
-0.5175
20
-50.4672
0
VERTEX
10
-0.5272
20
-50.4558
0
VERTEX
10
-0.5371
20
-50.4445
0
VERTEX
10
-0.5467
20
-50.4331
0
VERTEX
10
-0.5562
20
-50.4217
0
VERTEX
10
-0.5651
20
-50.4103
0
VERTEX
10
-0.5735
20
-50.3989
0
VERTEX
10
-0.5812
20
-50.3876
0
VERTEX
10
-0.5879
20
-50.3762
0
VERTEX
10
-0.5938
20
-50.3648
0
VERTEX
10
-0.5985
20
-50.3534
0
VERTEX
10
-0.6021
20
-50.3420
0
VERTEX
10
-0.6045
20
-50.3307
0
VERTEX
10
-0.6056
20
-50.3193
0
VERTEX
10
-0.6055
20
-50.3079
0
VERTEX
10
-0.6040
20
-50.2965
0
VERTEX
10
-0.6014
20
-50.2852
0
VERTEX
10
-0.5975
20
-50.2738
0
VERTEX
10
-0.5924
20
-50.2624
0
VERTEX
10
-0.5863
20
-50.2510
0
VERTEX
10
-0.5793
20
-50.2396
0
VERTEX
10
-0.5713
20
-50.2283
0
VERTEX
10
-0.5626
20
-50.2169
0
VERTEX
10
-0.5534
20
-50.2055
0
VERTEX
10
-0.5437
20
-50.1941
0
VERTEX
10
-0.5337
20
-50.1827
0
VERTEX
10
-0.5236
20
-50.1714
0
VERTEX
10
-0.5135
20
-50.1600
0
VERTEX
10
-0.5037
20
-50.1486
0
VERTEX
10
-0.4942
20
-50.1372
0
VERTEX
10
-0.4852
20
-50.1258
0
VERTEX
10
-0.4768
20
-50.1145
0
VERTEX
10
-0.4693
20
-50.1031
0
VERTEX
10
-0.4627
20
-50.0917
0
VERTEX
10
-0.4571
20
-50.0803
0
VERTEX
10
-0.4527
20
-50.0689
0
VERTEX
10
-0.4494
20
-50.0576
0
VERTEX
10
-0.4473
20
-50.0462
0
VERTEX
10
-0.4465
20
-50.0348
0
VERTEX
10
0.4465
20
-50.0348
0
VERTEX
10
0.4473
20
-50.0462
0
VERTEX
10
0.4494
20
-50.0576
0
VERTEX
10
0.4527
20
-50.0689
0
VERTEX
10
0.4571
20
-50.0803
0
VERTEX
10
0.4627
20
-50.0917
0
VERTEX
10
0.4693
20
-50.1031
0
VERTEX
10
0.4768
20
-50.1145
0
VERTEX
10
0.4852
20
-50.1258
0
VERTEX
10
0.4942
20
-50.1372
0
VERTEX
10
0.5037
20
-50.1486
0
VERTEX
10
0.5135
20
-50.1600
0
VERTEX
10
0.5236
20
-50.1714
0
VERTEX
10
0.5337
20
-50.1827
0
VERTEX
10
0.5437
20
-50.1941
0
VERTEX
10
0.5534
20
-50.2055
0
VERTEX
10
0.5626
20
-50.2169
0
VERTEX
10
0.5713
20
-50.2283
0
VERTEX
10
0.5793
20
-50.2396
0
VERTEX
10
0.5863
20
-50.2510
0
VERTEX
10
0.5924
20
-50.2624
0
VERTEX
10
0.5975
20
-50.2738
0
VERTEX
10
0.6014
20
-50.2852
0
VERTEX
10
0.6040
20
-50.2965
0
VERTEX
10
0.6055
20
-50.3079
0
VERTEX
10
0.6056
20
-50.3193
0
VERTEX
10
0.6045
20
-50.3307
0
VERTEX
10
0.6021
20
-50.3420
0
VERTEX
10
0.5985
20
-50.3534
0
VERTEX
10
0.5938
20
-50.3648
0
VERTEX
10
0.5879
20
-50.3762
0
VERTEX
10
0.5812
20
-50.3876
0
VERTEX
10
0.5735
20
-50.3989
0
VERTEX
10
0.5651
20
-50.4103
0
VERTEX
10
0.5562
20
-50.4217
0
VERTEX
10
0.5467
20
-50.4331
0
VERTEX
10
0.5371
20
-50.4445
0
VERTEX
10
0.5272
20
-50.4558
0
VERTEX
10
0.5175
20
-50.4672
0
VERTEX
10
0.5079
20
-50.4786
0
VERTEX
10
0.4987
20
-50.4900
0
VERTEX
10
0.4900
20
-50.5014
0
VERTEX
10
0.4820
20
-50.5127
0
VERTEX
10
0.4747
20
-50.5241
0
VERTEX
10
0.4684
20
-50.5355
0
VERTEX
10
0.4631
20
-50.5469
0
VERTEX
10
0.4589
20
-50.5583
0
VERTEX
10
0.4559
20
-50.5696
0
VERTEX
10
0.4542
20
-50.5810
0
VERTEX
10
0.4537
20
-50.5924
0
SEQEND
0
POLYLINE
8
M1_Neg
70
1
0
VERTEX
10
-0.4465
20
-50.0348
0
VERTEX
10
-0.4469
20
-50.0234
0
VERTEX
10
-0.4484
20
-50.0120
0
VERTEX
10
-0.4510
20
-50.0007
0
VERTEX
10
-0.4545
20
-49.9893
0
VERTEX
10
-0.4590
20
-49.9779
0
VERTEX
10
-0.4644
20
-49.9665
0
VERTEX
10
-0.4706
20
-49.9551
0
VERTEX
10
-0.4775
20
-49.9438
0
VERTEX
10
-0.4849
20
-49.9324
0
VERTEX
10
-0.4928
20
-49.9210
0
VERTEX
10
-0.5010
20
-49.9096
0
VERTEX
10
-0.5093
20
-49.8982
0
VERTEX
10
-0.5177
20
-49.8869
0
VERTEX
10
-0.5260
20
-49.8755
0
VERTEX
10
-0.5340
20
-49.8641
0
VERTEX
10
-0.5417
20
-49.8527
0
VERTEX
10
-0.5489
20
-49.8413
0
VERTEX
10
-0.5554
20
-49.8300
0
VERTEX
10
-0.5612
20
-49.8186
0
VERTEX
10
-0.5662
20
-49.8072
0
VERTEX
10
-0.5702
20
-49.7958
0
VERTEX
10
-0.5733
20
-49.7844
0
VERTEX
10
-0.5753
20
-49.7731
0
VERTEX
10
-0.5763
20
-49.7617
0
VERTEX
10
-0.5761
20
-49.7503
0
VERTEX
10
-0.5749
20
-49.7389
0
VERTEX
10
-0.5726
20
-49.7276
0
VERTEX
10
-0.5692
20
-49.7162
0
VERTEX
10
-0.5649
20
-49.7048
0
VERTEX
10
-0.5596
20
-49.6934
0
VERTEX
10
-0.5535
20
-49.6820
0
VERTEX
10
-0.5467
20
-49.6707
0
VERTEX
10
-0.5392
20
-49.6593
0
VERTEX
10
-0.5313
20
-49.6479
0
VERTEX
10
-0.5229
20
-49.6365
0
VERTEX
10
-0.5144
20
-49.6251
0
VERTEX
10
-0.5057
20
-49.6138
0
VERTEX
10
-0.4970
20
-49.6024
0
VERTEX
10
-0.4885
20
-49.5910
0
VERTEX
10
-0.4804
20
-49.5796
0
VERTEX
10
-0.4727
20
-49.5682
0
VERTEX
10
-0.4655
20
-49.5569
0
VERTEX
10
-0.4590
20
-49.5455
0
VERTEX
10
-0.4533
20
-49.5341
0
VERTEX
10
-0.4485
20
-49.5227
0
VERTEX
10
-0.4447
20
-49.5113
0
VERTEX
10
-0.4418
20
-49.5000
0
VERTEX
10
-0.4401
20
-49.4886
0
VERTEX
10
-0.4394
20
-49.4772
0
VERTEX
10
0.4394
20
-49.4772
0
VERTEX
10
0.4401
20
-49.4886
0
VERTEX
10
0.4418
20
-49.5000
0
VERTEX
10
0.4447
20
-49.5113
0
VERTEX
10
0.4485
20
-49.5227
0
VERTEX
10
0.4533
20
-49.5341
0
VERTEX
10
0.4590
20
-49.5455
0
VERTEX
10
0.4655
20
-49.5569
0
VERTEX
10
0.4727
20
-49.5682
0
VERTEX
10
0.4804
20
-49.5796
0
VERTEX
10
0.4885
20
-49.5910
0
VERTEX
10
0.4970
20
-49.6024
0
VERTEX
10
0.5057
20
-49.6138
0
VERTEX
10
0.5144
20
-49.6251
0
VERTEX
10
0.5229
20
-49.6365
0
VERTEX
10
0.5313
20
-49.6479
0
VERTEX
10
0.5392
20
-49.6593
0
VERTEX
10
0.5467
20
-49.6707
0
VERTEX
10
0.5535
20
-49.6820
0
VERTEX
10
0.5596
20
-49.6934
0
VERTEX
10
0.5649
20
-49.7048
0
VERTEX
10
0.5692
20
-49.7162
0
VERTEX
10
0.5726
20
-49.7276
0
VERTEX
10
0.5749
20
-49.7389
0
VERTEX
10
0.5761
20
-49.7503
0
VERTEX
10
0.5763
20
-49.7617
0
VERTEX
10
0.5753
20
-49.7731
0
VERTEX
10
0.5733
20
-49.7844
0
VERTEX
10
0.5702
20
-49.7958
0
VERTEX
10
0.5662
20
-49.8072
0
VERTEX
10
0.5612
20
-49.8186
0
VERTEX
10
0.5554
20
-49.8300
0
VERTEX
10
0.5489
20
-49.8413
0
VERTEX
10
0.5417
20
-49.8527
0
VERTEX
10
0.5340
20
-49.8641
0
VERTEX
10
0.5260
20
-49.8755
0
VERTEX
10
0.5177
20
-49.8869
0
VERTEX
10
0.5093
20
-49.8982
0
VERTEX
10
0.5010
20
-49.9096
0
VERTEX
10
0.4928
20
-49.9210
0
VERTEX
10
0.4849
20
-49.9324
0
VERTEX
10
0.4775
20
-49.9438
0
VERTEX
10
0.4706
20
-49.9551
0
VERTEX
10
0.4644
20
-49.9665
0
VERTEX
10
0.4590
20
-49.9779
0
VERTEX
10
0.4545
20
-49.9893
0
VERTEX
10
0.4510
20
-50.0007
0
VERTEX
10
0.4484
20
-50.0120
0
VERTEX
10
0.4469
20
-50.0234
0
VERTEX
10
0.4465
20
-50.0348
0
SEQEND
0
POLYLINE
8
M1_Neg
70
1
0
VERTEX
10
-0.4394
20
-49.4772
0
VERTEX
10
-0.4397
20
-49.4658
0
VERTEX
10
-0.4409
20
-49.4544
0
VERTEX
10
-0.4430
20
-49.4431
0
VERTEX
10
-0.4459
20
-49.4317
0
VERTEX
10
-0.4497
20
-49.4203
0
VERTEX
10
-0.4541
20
-49.4089
0
VERTEX
10
-0.4593
20
-49.3975
0
VERTEX
10
-0.4650
20
-49.3862
0
VERTEX
10
-0.4711
20
-49.3748
0
VERTEX
10
-0.4777
20
-49.3634
0
VERTEX
10
-0.4845
20
-49.3520
0
VERTEX
10
-0.4914
20
-49.3406
0
VERTEX
10
-0.4984
20
-49.3293
0
VERTEX
10
-0.5053
20
-49.3179
0
VERTEX
10
-0.5119
20
-49.3065
0
VERTEX
10
-0.5183
20
-49.2951
0
VERTEX
10
-0.5242
20
-49.2837
0
VERTEX
10
-0.5297
20
-49.2724
0
VERTEX
10
-0.5345
20
-49.2610
0
VERTEX
10
-0.5386
20
-49.2496
0
VERTEX
10
-0.5419
20
-49.2382
0
VERTEX
10
-0.5445
20
-49.2268
0
VERTEX
10
-0.5461
20
-49.2155
0
VERTEX
10
-0.5469
20
-49.2041
0
VERTEX
10
-0.5467
20
-49.1927
0
VERTEX
10
-0.5457
20
-49.1813
0
VERTEX
10
-0.5437
20
-49.1700
0
VERTEX
10
-0.5409
20
-49.1586
0
VERTEX
10
-0.5373
20
-49.1472
0
VERTEX
10
-0.5329
20
-49.1358
0
VERTEX
10
-0.5278
20
-49.1244
0
VERTEX
10
-0.5221
20
-49.1131
0
VERTEX
10
-0.5158
20
-49.1017
0
VERTEX
10
-0.5092
20
-49.0903
0
VERTEX
10
-0.5022
20
-49.0789
0
VERTEX
10
-0.4950
20
-49.0675
0
VERTEX
10
-0.4878
20
-49.0562
0
VERTEX
10
-0.4805
20
-49.0448
0
VERTEX
10
-0.4734
20
-49.0334
0
VERTEX
10
-0.4666
20
-49.0220
0
VERTEX
10
-0.4601
20
-49.0106
0
VERTEX
10
-0.4542
20
-48.9993
0
VERTEX
10
-0.4487
20
-48.9879
0
VERTEX
10
-0.4440
20
-48.9765
0
VERTEX
10
-0.4399
20
-48.9651
0
VERTEX
10
-0.4367
20
-48.9537
0
VERTEX
10
-0.4343
20
-48.9424
0
VERTEX
10
-0.4328
20
-48.9310
0
VERTEX
10
-0.4322
20
-48.9196
0
VERTEX
10
0.4322
20
-48.9196
0
VERTEX
10
0.4328
20
-48.9310
0
VERTEX
10
0.4343
20
-48.9424
0
VERTEX
10
0.4367
20
-48.9537
0
VERTEX
10
0.4399
20
-48.9651
0
VERTEX
10
0.4440
20
-48.9765
0
VERTEX
10
0.4487
20
-48.9879
0
VERTEX
10
0.4542
20
-48.9993
0
VERTEX
10
0.4601
20
-49.0106
0
VERTEX
10
0.4666
20
-49.0220
0
VERTEX
10
0.4734
20
-49.0334
0
VERTEX
10
0.4805
20
-49.0448
0
VERTEX
10
0.4878
20
-49.0562
0
VERTEX
10
0.4950
20
-49.0675
0
VERTEX
10
0.5022
20
-49.0789
0
VERTEX
10
0.5092
20
-49.0903
0
VERTEX
10
0.5158
20
-49.1017
0
VERTEX
10
0.5221
20
-49.1131
0
VERTEX
10
0.5278
20
-49.1244
0
VERTEX
10
0.5329
20
-49.1358
0
VERTEX
10
0.5373
20
-49.1472
0
VERTEX
10
0.5409
20
-49.1586
0
VERTEX
10
0.5437
20
-49.1700
0
VERTEX
10
0.5457
20
-49.1813
0
VERTEX
10
0.5467
20
-49.1927
0
VERTEX
10
0.5469
20
-49.2041
0
VERTEX
10
0.5461
20
-49.2155
0
VERTEX
10
0.5445
20
-49.2268
0
VERTEX
10
0.5419
20
-49.2382
0
VERTEX
10
0.5386
20
-49.2496
0
VERTEX
10
0.5345
20
-49.2610
0
VERTEX
10
0.5297
20
-49.2724
0
VERTEX
10
0.5242
20
-49.2837
0
VERTEX
10
0.5183
20
-49.2951
0
VERTEX
10
0.5119
20
-49.3065
0
VERTEX
10
0.5053
20
-49.3179
0
VERTEX
10
0.4984
20
-49.3293
0
VERTEX
10
0.4914
20
-49.3406
0
VERTEX
10
0.4845
20
-49.3520
0
VERTEX
10
0.4777
20
-49.3634
0
VERTEX
10
0.4711
20
-49.3748
0
VERTEX
10
0.4650
20
-49.3862
0
VERTEX
10
0.4593
20
-49.3975
0
VERTEX
10
0.4541
20
-49.4089
0
VERTEX
10
0.4497
20
-49.4203
0
VERTEX
10
0.4459
20
-49.4317
0
VERTEX
10
0.4430
20
-49.4431
0
VERTEX
10
0.4409
20
-49.4544
0
VERTEX
10
0.4397
20
-49.4658
0
VERTEX
10
0.4394
20
-49.4772
0
SEQEND
0
POLYLINE
8
M1_Neg
70
1
0
VERTEX
10
-0.4322
20
-48.9196
0
VERTEX
10
-0.4324
20
-48.9082
0
VERTEX
10
-0.4334
20
-48.8968
0
VERTEX
10
-0.4350
20
-48.8855
0
VERTEX
10
-0.4373
20
-48.8741
0
VERTEX
10
-0.4403
20
-48.8627
0
VERTEX
10
-0.4439
20
-48.8513
0
VERTEX
10
-0.4479
20
-48.8399
0
VERTEX
10
-0.4525
20
-48.8286
0
VERTEX
10
-0.4574
20
-48.8172
0
VERTEX
10
-0.4626
20
-48.8058
0
VERTEX
10
-0.4680
20
-48.7944
0
VERTEX
10
-0.4735
20
-48.7830
0
VERTEX
10
-0.4790
20
-48.7717
0
VERTEX
10
-0.4845
20
-48.7603
0
VERTEX
10
-0.4898
20
-48.7489
0
VERTEX
10
-0.4949
20
-48.7375
0
VERTEX
10
-0.4996
20
-48.7261
0
VERTEX
10
-0.5039
20
-48.7148
0
VERTEX
10
-0.5077
20
-48.7034
0
VERTEX
10
-0.5110
20
-48.6920
0
VERTEX
10
-0.5137
20
-48.6806
0
VERTEX
10
-0.5156
20
-48.6692
0
VERTEX
10
-0.5169
20
-48.6579
0
VERTEX
10
-0.5175
20
-48.6465
0
VERTEX
10
-0.5174
20
-48.6351
0
VERTEX
10
-0.5165
20
-48.6237
0
VERTEX
10
-0.5149
20
-48.6124
0
VERTEX
10
-0.5126
20
-48.6010
0
VERTEX
10
-0.5097
20
-48.5896
0
VERTEX
10
-0.5061
20
-48.5782
0
VERTEX
10
-0.5020
20
-48.5668
0
VERTEX
10
-0.4974
20
-48.5555
0
VERTEX
10
-0.4924
20
-48.5441
0
VERTEX
10
-0.4871
20
-48.5327
0
VERTEX
10
-0.4814
20
-48.5213
0
VERTEX
10
-0.4757
20
-48.5099
0
VERTEX
10
-0.4698
20
-48.4986
0
VERTEX
10
-0.4640
20
-48.4872
0
VERTEX
10
-0.4583
20
-48.4758
0
VERTEX
10
-0.4528
20
-48.4644
0
VERTEX
10
-0.4476
20
-48.4530
0
VERTEX
10
-0.4428
20
-48.4417
0
VERTEX
10
-0.4385
20
-48.4303
0
VERTEX
10
-0.4346
20
-48.4189
0
VERTEX
10
-0.4314
20
-48.4075
0
VERTEX
10
-0.4287
20
-48.3961
0
VERTEX
10
-0.4268
20
-48.3848
0
VERTEX
10
-0.4256
20
-48.3734
0
VERTEX
10
-0.4251
20
-48.3620
0
VERTEX
10
0.4251
20
-48.3620
0
VERTEX
10
0.4256
20
-48.3734
0
VERTEX
10
0.4268
20
-48.3848
0
VERTEX
10
0.4287
20
-48.3961
0
VERTEX
10
0.4314
20
-48.4075
0
VERTEX
10
0.4346
20
-48.4189
0
VERTEX
10
0.4385
20
-48.4303
0
VERTEX
10
0.4428
20
-48.4417
0
VERTEX
10
0.4476
20
-48.4530
0
VERTEX
10
0.4528
20
-48.4644
0
VERTEX
10
0.4583
20
-48.4758
0
VERTEX
10
0.4640
20
-48.4872
0
VERTEX
10
0.4698
20
-48.4986
0
VERTEX
10
0.4757
20
-48.5099
0
VERTEX
10
0.4814
20
-48.5213
0
VERTEX
10
0.4871
20
-48.5327
0
VERTEX
10
0.4924
20
-48.5441
0
VERTEX
10
0.4974
20
-48.5555
0
VERTEX
10
0.5020
20
-48.5668
0
VERTEX
10
0.5061
20
-48.5782
0
VERTEX
10
0.5097
20
-48.5896
0
VERTEX
10
0.5126
20
-48.6010
0
VERTEX
10
0.5149
20
-48.6124
0
VERTEX
10
0.5165
20
-48.6237
0
VERTEX
10
0.5174
20
-48.6351
0
VERTEX
10
0.5175
20
-48.6465
0
VERTEX
10
0.5169
20
-48.6579
0
VERTEX
10
0.5156
20
-48.6692
0
VERTEX
10
0.5137
20
-48.6806
0
VERTEX
10
0.5110
20
-48.6920
0
VERTEX
10
0.5077
20
-48.7034
0
VERTEX
10
0.5039
20
-48.7148
0
VERTEX
10
0.4996
20
-48.7261
0
VERTEX
10
0.4949
20
-48.7375
0
VERTEX
10
0.4898
20
-48.7489
0
VERTEX
10
0.4845
20
-48.7603
0
VERTEX
10
0.4790
20
-48.7717
0
VERTEX
10
0.4735
20
-48.7830
0
VERTEX
10
0.4680
20
-48.7944
0
VERTEX
10
0.4626
20
-48.8058
0
VERTEX
10
0.4574
20
-48.8172
0
VERTEX
10
0.4525
20
-48.8286
0
VERTEX
10
0.4479
20
-48.8399
0
VERTEX
10
0.4439
20
-48.8513
0
VERTEX
10
0.4403
20
-48.8627
0
VERTEX
10
0.4373
20
-48.8741
0
VERTEX
10
0.4350
20
-48.8855
0
VERTEX
10
0.4334
20
-48.8968
0
VERTEX
10
0.4324
20
-48.9082
0
VERTEX
10
0.4322
20
-48.9196
0
SEQEND
0
POLYLINE
8
M1_Neg
70
1
0
VERTEX
10
-0.4251
20
-48.3620
0
VERTEX
10
-0.4252
20
-48.3506
0
VERTEX
10
-0.4259
20
-48.3392
0
VERTEX
10
-0.4271
20
-48.3279
0
VERTEX
10
-0.4288
20
-48.3165
0
VERTEX
10
-0.4309
20
-48.3051
0
VERTEX
10
-0.4336
20
-48.2937
0
VERTEX
10
-0.4366
20
-48.2823
0
VERTEX
10
-0.4399
20
-48.2710
0
VERTEX
10
-0.4436
20
-48.2596
0
VERTEX
10
-0.4474
20
-48.2482
0
VERTEX
10
-0.4515
20
-48.2368
0
VERTEX
10
-0.4556
20
-48.2254
0
VERTEX
10
-0.4597
20
-48.2141
0
VERTEX
10
-0.4638
20
-48.2027
0
VERTEX
10
-0.4677
20
-48.1913
0
VERTEX
10
-0.4715
20
-48.1799
0
VERTEX
10
-0.4750
20
-48.1685
0
VERTEX
10
-0.4782
20
-48.1572
0
VERTEX
10
-0.4810
20
-48.1458
0
VERTEX
10
-0.4834
20
-48.1344
0
VERTEX
10
-0.4854
20
-48.1230
0
VERTEX
10
-0.4868
20
-48.1116
0
VERTEX
10
-0.4878
20
-48.1003
0
VERTEX
10
-0.4882
20
-48.0889
0
VERTEX
10
-0.4880
20
-48.0775
0
VERTEX
10
-0.4873
20
-48.0661
0
VERTEX
10
-0.4861
20
-48.0548
0
VERTEX
10
-0.4843
20
-48.0434
0
VERTEX
10
-0.4821
20
-48.0320
0
VERTEX
10
-0.4794
20
-48.0206
0
VERTEX
10
-0.4763
20
-48.0092
0
VERTEX
10
-0.4728
20
-47.9979
0
VERTEX
10
-0.4690
20
-47.9865
0
VERTEX
10
-0.4649
20
-47.9751
0
VERTEX
10
-0.4607
20
-47.9637
0
VERTEX
10
-0.4563
20
-47.9523
0
VERTEX
10
-0.4519
20
-47.9410
0
VERTEX
10
-0.4475
20
-47.9296
0
VERTEX
10
-0.4432
20
-47.9182
0
VERTEX
10
-0.4391
20
-47.9068
0
VERTEX
10
-0.4351
20
-47.8954
0
VERTEX
10
-0.4315
20
-47.8841
0
VERTEX
10
-0.4282
20
-47.8727
0
VERTEX
10
-0.4252
20
-47.8613
0
VERTEX
10
-0.4228
20
-47.8499
0
VERTEX
10
-0.4208
20
-47.8385
0
VERTEX
10
-0.4193
20
-47.8272
0
VERTEX
10
-0.4183
20
-47.8158
0
VERTEX
10
-0.4179
20
-47.8044
0
VERTEX
10
0.4179
20
-47.8044
0
VERTEX
10
0.4183
20
-47.8158
0
VERTEX
10
0.4193
20
-47.8272
0
VERTEX
10
0.4208
20
-47.8385
0
VERTEX
10
0.4228
20
-47.8499
0
VERTEX
10
0.4252
20
-47.8613
0
VERTEX
10
0.4282
20
-47.8727
0
VERTEX
10
0.4315
20
-47.8841
0
VERTEX
10
0.4351
20
-47.8954
0
VERTEX
10
0.4391
20
-47.9068
0
VERTEX
10
0.4432
20
-47.9182
0
VERTEX
10
0.4475
20
-47.9296
0
VERTEX
10
0.4519
20
-47.9410
0
VERTEX
10
0.4563
20
-47.9523
0
VERTEX
10
0.4607
20
-47.9637
0
VERTEX
10
0.4649
20
-47.9751
0
VERTEX
10
0.4690
20
-47.9865
0
VERTEX
10
0.4728
20
-47.9979
0
VERTEX
10
0.4763
20
-48.0092
0
VERTEX
10
0.4794
20
-48.0206
0
VERTEX
10
0.4821
20
-48.0320
0
VERTEX
10
0.4843
20
-48.0434
0
VERTEX
10
0.4861
20
-48.0548
0
VERTEX
10
0.4873
20
-48.0661
0
VERTEX
10
0.4880
20
-48.0775
0
VERTEX
10
0.4882
20
-48.0889
0
VERTEX
10
0.4878
20
-48.1003
0
VERTEX
10
0.4868
20
-48.1116
0
VERTEX
10
0.4854
20
-48.1230
0
VERTEX
10
0.4834
20
-48.1344
0
VERTEX
10
0.4810
20
-48.1458
0
VERTEX
10
0.4782
20
-48.1572
0
VERTEX
10
0.4750
20
-48.1685
0
VERTEX
10
0.4715
20
-48.1799
0
VERTEX
10
0.4677
20
-48.1913
0
VERTEX
10
0.4638
20
-48.2027
0
VERTEX
10
0.4597
20
-48.2141
0
VERTEX
10
0.4556
20
-48.2254
0
VERTEX
10
0.4515
20
-48.2368
0
VERTEX
10
0.4474
20
-48.2482
0
VERTEX
10
0.4436
20
-48.2596
0
VERTEX
10
0.4399
20
-48.2710
0
VERTEX
10
0.4366
20
-48.2823
0
VERTEX
10
0.4336
20
-48.2937
0
VERTEX
10
0.4309
20
-48.3051
0
VERTEX
10
0.4288
20
-48.3165
0
VERTEX
10
0.4271
20
-48.3279
0
VERTEX
10
0.4259
20
-48.3392
0
VERTEX
10
0.4252
20
-48.3506
0
VERTEX
10
0.4251
20
-48.3620
0
SEQEND
0
POLYLINE
8
M1_Neg
70
1
0
VERTEX
10
-0.4179
20
-47.8044
0
VERTEX
10
-0.4179
20
-47.7930
0
VERTEX
10
-0.4183
20
-47.7816
0
VERTEX
10
-0.4191
20
-47.7703
0
VERTEX
10
-0.4202
20
-47.7589
0
VERTEX
10
-0.4216
20
-47.7475
0
VERTEX
10
-0.4233
20
-47.7361
0
VERTEX
10
-0.4252
20
-47.7247
0
VERTEX
10
-0.4274
20
-47.7134
0
VERTEX
10
-0.4298
20
-47.7020
0
VERTEX
10
-0.4323
20
-47.6906
0
VERTEX
10
-0.4350
20
-47.6792
0
VERTEX
10
-0.4377
20
-47.6678
0
VERTEX
10
-0.4404
20
-47.6565
0
VERTEX
10
-0.4430
20
-47.6451
0
VERTEX
10
-0.4456
20
-47.6337
0
VERTEX
10
-0.4481
20
-47.6223
0
VERTEX
10
-0.4504
20
-47.6109
0
VERTEX
10
-0.4524
20
-47.5996
0
VERTEX
10
-0.4543
20
-47.5882
0
VERTEX
10
-0.4558
20
-47.5768
0
VERTEX
10
-0.4571
20
-47.5654
0
VERTEX
10
-0.4580
20
-47.5540
0
VERTEX
10
-0.4586
20
-47.5427
0
VERTEX
10
-0.4588
20
-47.5313
0
VERTEX
10
-0.4587
20
-47.5199
0
VERTEX
10
-0.4581
20
-47.5085
0
VERTEX
10
-0.4573
20
-47.4972
0
VERTEX
10
-0.4561
20
-47.4858
0
VERTEX
10
-0.4545
20
-47.4744
0
VERTEX
10
-0.4527
20
-47.4630
0
VERTEX
10
-0.4505
20
-47.4516
0
VERTEX
10
-0.4482
20
-47.4403
0
VERTEX
10
-0.4456
20
-47.4289
0
VERTEX
10
-0.4428
20
-47.4175
0
VERTEX
10
-0.4400
20
-47.4061
0
VERTEX
10
-0.4370
20
-47.3947
0
VERTEX
10
-0.4340
20
-47.3834
0
VERTEX
10
-0.4310
20
-47.3720
0
VERTEX
10
-0.4281
20
-47.3606
0
VERTEX
10
-0.4253
20
-47.3492
0
VERTEX
10
-0.4226
20
-47.3378
0
VERTEX
10
-0.4201
20
-47.3265
0
VERTEX
10
-0.4179
20
-47.3151
0
VERTEX
10
-0.4159
20
-47.3037
0
VERTEX
10
-0.4142
20
-47.2923
0
VERTEX
10
-0.4128
20
-47.2809
0
VERTEX
10
-0.4118
20
-47.2696
0
VERTEX
10
-0.4111
20
-47.2582
0
VERTEX
10
-0.4107
20
-47.2468
0
VERTEX
10
0.4107
20
-47.2468
0
VERTEX
10
0.4111
20
-47.2582
0
VERTEX
10
0.4118
20
-47.2696
0
VERTEX
10
0.4128
20
-47.2809
0
VERTEX
10
0.4142
20
-47.2923
0
VERTEX
10
0.4159
20
-47.3037
0
VERTEX
10
0.4179
20
-47.3151
0
VERTEX
10
0.4201
20
-47.3265
0
VERTEX
10
0.4226
20
-47.3378
0
VERTEX
10
0.4253
20
-47.3492
0
VERTEX
10
0.4281
20
-47.3606
0
VERTEX
10
0.4310
20
-47.3720
0
VERTEX
10
0.4340
20
-47.3834
0
VERTEX
10
0.4370
20
-47.3947
0
VERTEX
10
0.4400
20
-47.4061
0
VERTEX
10
0.4428
20
-47.4175
0
VERTEX
10
0.4456
20
-47.4289
0
VERTEX
10
0.4482
20
-47.4403
0
VERTEX
10
0.4505
20
-47.4516
0
VERTEX
10
0.4527
20
-47.4630
0
VERTEX
10
0.4545
20
-47.4744
0
VERTEX
10
0.4561
20
-47.4858
0
VERTEX
10
0.4573
20
-47.4972
0
VERTEX
10
0.4581
20
-47.5085
0
VERTEX
10
0.4587
20
-47.5199
0
VERTEX
10
0.4588
20
-47.5313
0
VERTEX
10
0.4586
20
-47.5427
0
VERTEX
10
0.4580
20
-47.5540
0
VERTEX
10
0.4571
20
-47.5654
0
VERTEX
10
0.4558
20
-47.5768
0
VERTEX
10
0.4543
20
-47.5882
0
VERTEX
10
0.4524
20
-47.5996
0
VERTEX
10
0.4504
20
-47.6109
0
VERTEX
10
0.4481
20
-47.6223
0
VERTEX
10
0.4456
20
-47.6337
0
VERTEX
10
0.4430
20
-47.6451
0
VERTEX
10
0.4404
20
-47.6565
0
VERTEX
10
0.4377
20
-47.6678
0
VERTEX
10
0.4350
20
-47.6792
0
VERTEX
10
0.4323
20
-47.6906
0
VERTEX
10
0.4298
20
-47.7020
0
VERTEX
10
0.4274
20
-47.7134
0
VERTEX
10
0.4252
20
-47.7247
0
VERTEX
10
0.4233
20
-47.7361
0
VERTEX
10
0.4216
20
-47.7475
0
VERTEX
10
0.4202
20
-47.7589
0
VERTEX
10
0.4191
20
-47.7703
0
VERTEX
10
0.4183
20
-47.7816
0
VERTEX
10
0.4179
20
-47.7930
0
VERTEX
10
0.4179
20
-47.8044
0
SEQEND
0
POLYLINE
8
M1_Neg
70
1
0
VERTEX
10
-0.4107
20
-47.2468
0
VERTEX
10
-0.4108
20
-47.2354
0
VERTEX
10
-0.4110
20
-47.2240
0
VERTEX
10
-0.4113
20
-47.2127
0
VERTEX
10
-0.4119
20
-47.2013
0
VERTEX
10
-0.4126
20
-47.1899
0
VERTEX
10
-0.4134
20
-47.1785
0
VERTEX
10
-0.4144
20
-47.1671
0
VERTEX
10
-0.4155
20
-47.1558
0
VERTEX
10
-0.4167
20
-47.1444
0
VERTEX
10
-0.4180
20
-47.1330
0
VERTEX
10
-0.4193
20
-47.1216
0
VERTEX
10
-0.4206
20
-47.1102
0
VERTEX
10
-0.4220
20
-47.0989
0
VERTEX
10
-0.4233
20
-47.0875
0
VERTEX
10
-0.4246
20
-47.0761
0
VERTEX
10
-0.4258
20
-47.0647
0
VERTEX
10
-0.4270
20
-47.0533
0
VERTEX
10
-0.4280
20
-47.0420
0
VERTEX
10
-0.4289
20
-47.0306
0
VERTEX
10
-0.4297
20
-47.0192
0
VERTEX
10
-0.4303
20
-47.0078
0
VERTEX
10
-0.4308
20
-46.9964
0
VERTEX
10
-0.4311
20
-46.9851
0
VERTEX
10
-0.4312
20
-46.9737
0
VERTEX
10
-0.4311
20
-46.9623
0
VERTEX
10
-0.4309
20
-46.9509
0
VERTEX
10
-0.4304
20
-46.9396
0
VERTEX
10
-0.4298
20
-46.9282
0
VERTEX
10
-0.4290
20
-46.9168
0
VERTEX
10
-0.4281
20
-46.9054
0
VERTEX
10
-0.4271
20
-46.8940
0
VERTEX
10
-0.4259
20
-46.8827
0
VERTEX
10
-0.4246
20
-46.8713
0
VERTEX
10
-0.4232
20
-46.8599
0
VERTEX
10
-0.4218
20
-46.8485
0
VERTEX
10
-0.4203
20
-46.8371
0
VERTEX
10
-0.4188
20
-46.8258
0
VERTEX
10
-0.4173
20
-46.8144
0
VERTEX
10
-0.4158
20
-46.8030
0
VERTEX
10
-0.4144
20
-46.7916
0
VERTEX
10
-0.4131
20
-46.7802
0
VERTEX
10
-0.4119
20
-46.7689
0
VERTEX
10
-0.4107
20
-46.7575
0
VERTEX
10
-0.4097
20
-46.7461
0
VERTEX
10
-0.4089
20
-46.7347
0
VERTEX
10
-0.4082
20
-46.7233
0
VERTEX
10
-0.4077
20
-46.7120
0
VERTEX
10
-0.4073
20
-46.7006
0
VERTEX
10
-0.4072
20
-46.6892
0
VERTEX
10
0.4072
20
-46.6892
0
VERTEX
10
0.4073
20
-46.7006
0
VERTEX
10
0.4077
20
-46.7120
0
VERTEX
10
0.4082
20
-46.7233
0
VERTEX
10
0.4089
20
-46.7347
0
VERTEX
10
0.4097
20
-46.7461
0
VERTEX
10
0.4107
20
-46.7575
0
VERTEX
10
0.4119
20
-46.7689
0
VERTEX
10
0.4131
20
-46.7802
0
VERTEX
10
0.4144
20
-46.7916
0
VERTEX
10
0.4158
20
-46.8030
0
VERTEX
10
0.4173
20
-46.8144
0
VERTEX
10
0.4188
20
-46.8258
0
VERTEX
10
0.4203
20
-46.8371
0
VERTEX
10
0.4218
20
-46.8485
0
VERTEX
10
0.4232
20
-46.8599
0
VERTEX
10
0.4246
20
-46.8713
0
VERTEX
10
0.4259
20
-46.8827
0
VERTEX
10
0.4271
20
-46.8940
0
VERTEX
10
0.4281
20
-46.9054
0
VERTEX
10
0.4290
20
-46.9168
0
VERTEX
10
0.4298
20
-46.9282
0
VERTEX
10
0.4304
20
-46.9396
0
VERTEX
10
0.4309
20
-46.9509
0
VERTEX
10
0.4311
20
-46.9623
0
VERTEX
10
0.4312
20
-46.9737
0
VERTEX
10
0.4311
20
-46.9851
0
VERTEX
10
0.4308
20
-46.9964
0
VERTEX
10
0.4303
20
-47.0078
0
VERTEX
10
0.4297
20
-47.0192
0
VERTEX
10
0.4289
20
-47.0306
0
VERTEX
10
0.4280
20
-47.0420
0
VERTEX
10
0.4270
20
-47.0533
0
VERTEX
10
0.4258
20
-47.0647
0
VERTEX
10
0.4246
20
-47.0761
0
VERTEX
10
0.4233
20
-47.0875
0
VERTEX
10
0.4220
20
-47.0989
0
VERTEX
10
0.4206
20
-47.1102
0
VERTEX
10
0.4193
20
-47.1216
0
VERTEX
10
0.4180
20
-47.1330
0
VERTEX
10
0.4167
20
-47.1444
0
VERTEX
10
0.4155
20
-47.1558
0
VERTEX
10
0.4144
20
-47.1671
0
VERTEX
10
0.4134
20
-47.1785
0
VERTEX
10
0.4126
20
-47.1899
0
VERTEX
10
0.4119
20
-47.2013
0
VERTEX
10
0.4113
20
-47.2127
0
VERTEX
10
0.4110
20
-47.2240
0
VERTEX
10
0.4108
20
-47.2354
0
VERTEX
10
0.4107
20
-47.2468
0
SEQEND
0
ELLIPSE
100
AcDbEntity
8
M1_Pos_holes
100
AcDbEllipse
10
0.0000
20
-60.9080
30
0.0000
11
-0.4609
21
0.0000
31
0.0000
40
0.3807
41
0.0000
42
6.283185307179586
0
ELLIPSE
100
AcDbEntity
8
M1_Pos_holes
100
AcDbEllipse
10
0.0000
20
-60.3504
30
0.0000
11
-0.4609
21
0.0000
31
0.0000
40
0.3807
41
0.0000
42
6.283185307179586
0
ELLIPSE
100
AcDbEntity
8
M1_Pos_holes
100
AcDbEllipse
10
0.0000
20
-59.7928
30
0.0000
11
-0.4609
21
0.0000
31
0.0000
40
0.3807
41
0.0000
42
6.283185307179586
0
ELLIPSE
100
AcDbEntity
8
M1_Pos_holes
100
AcDbEllipse
10
0.0000
20
-59.2352
30
0.0000
11
-0.4609
21
0.0000
31
0.0000
40
0.3807
41
0.0000
42
6.283185307179586
0
ELLIPSE
100
AcDbEntity
8
M1_Pos_holes
100
AcDbEllipse
10
0.0000
20
-58.6776
30
0.0000
11
-0.4609
21
0.0000
31
0.0000
40
0.3807
41
0.0000
42
6.283185307179586
0
ELLIPSE
100
AcDbEntity
8
M1_Pos_holes
100
AcDbEllipse
10
0.0000
20
-58.1200
30
0.0000
11
-0.4609
21
0.0000
31
0.0000
40
0.3807
41
0.0000
42
6.283185307179586
0
ELLIPSE
100
AcDbEntity
8
M1_Pos_holes
100
AcDbEllipse
10
0.0000
20
-57.5624
30
0.0000
11
-0.4609
21
0.0000
31
0.0000
40
0.3807
41
0.0000
42
6.283185307179586
0
ELLIPSE
100
AcDbEntity
8
M1_Pos_holes
100
AcDbEllipse
10
0.0000
20
-57.0048
30
0.0000
11
-0.4609
21
0.0000
31
0.0000
40
0.3807
41
0.0000
42
6.283185307179586
0
ELLIPSE
100
AcDbEntity
8
M1_Pos_holes
100
AcDbEllipse
10
0.0000
20
-56.4472
30
0.0000
11
-0.4609
21
0.0000
31
0.0000
40
0.3807
41
0.0000
42
6.283185307179586
0
ELLIPSE
100
AcDbEntity
8
M1_Pos_holes
100
AcDbEllipse
10
0.0000
20
-55.8896
30
0.0000
11
-0.4609
21
0.0000
31
0.0000
40
0.3807
41
0.0000
42
6.283185307179586
0
ELLIPSE
100
AcDbEntity
8
M1_Pos_holes
100
AcDbEllipse
10
0.0000
20
-55.3320
30
0.0000
11
-0.4609
21
0.0000
31
0.0000
40
0.3807
41
0.0000
42
6.283185307179586
0
ELLIPSE
100
AcDbEntity
8
M1_Pos_holes
100
AcDbEllipse
10
0.0000
20
-54.7744
30
0.0000
11
-0.4609
21
0.0000
31
0.0000
40
0.3807
41
0.0000
42
6.283185307179586
0
ELLIPSE
100
AcDbEntity
8
M1_Pos_holes
100
AcDbEllipse
10
0.0000
20
-54.2168
30
0.0000
11
-0.4609
21
0.0000
31
0.0000
40
0.3807
41
0.0000
42
6.283185307179586
0
ELLIPSE
100
AcDbEntity
8
M1_Pos_holes
100
AcDbEllipse
10
0.0000
20
-53.6592
30
0.0000
11
-0.4609
21
0.0000
31
0.0000
40
0.3807
41
0.0000
42
6.283185307179586
0
ELLIPSE
100
AcDbEntity
8
M1_Pos_holes
100
AcDbEllipse
10
0.0000
20
-53.1016
30
0.0000
11
-0.4609
21
0.0000
31
0.0000
40
0.3807
41
0.0000
42
6.283185307179586
0
ELLIPSE
100
AcDbEntity
8
M1_Pos_holes
100
AcDbEllipse
10
0.0000
20
-52.5440
30
0.0000
11
-0.4609
21
0.0000
31
0.0000
40
0.3807
41
0.0000
42
6.283185307179586
0
ELLIPSE
100
AcDbEntity
8
M1_Pos_holes
100
AcDbEllipse
10
0.0000
20
-51.9864
30
0.0000
11
-0.4609
21
0.0000
31
0.0000
40
0.3807
41
0.0000
42
6.283185307179586
0
ELLIPSE
100
AcDbEntity
8
M1_Pos_holes
100
AcDbEllipse
10
0.0000
20
-51.4288
30
0.0000
11
-0.4609
21
0.0000
31
0.0000
40
0.3807
41
0.0000
42
6.283185307179586
0
ELLIPSE
100
AcDbEntity
8
M1_Pos_holes
100
AcDbEllipse
10
0.0000
20
-50.8712
30
0.0000
11
-0.4609
21
0.0000
31
0.0000
40
0.3807
41
0.0000
42
6.283185307179586
0
ELLIPSE
100
AcDbEntity
8
M1_Pos_holes
100
AcDbEllipse
10
0.0000
20
-50.3136
30
0.0000
11
-0.4033
21
0.0000
31
0.0000
40
0.3807
41
0.0000
42
6.283185307179586
0
ELLIPSE
100
AcDbEntity
8
M1_Pos_holes
100
AcDbEllipse
10
0.0000
20
-49.7560
30
0.0000
11
-0.3457
21
0.0000
31
0.0000
40
0.3807
41
0.0000
42
6.283185307179586
0
ELLIPSE
100
AcDbEntity
8
M1_Pos_holes
100
AcDbEllipse
10
0.0000
20
-49.1984
30
0.0000
11
-0.2881
21
0.0000
31
0.0000
40
0.3807
41
0.0000
42
6.283185307179586
0
ELLIPSE
100
AcDbEntity
8
M1_Pos_holes
100
AcDbEllipse
10
0.0000
20
-48.6408
30
0.0000
11
-0.2305
21
0.0000
31
0.0000
40
0.3807
41
0.0000
42
6.283185307179586
0
ELLIPSE
100
AcDbEntity
8
M1_Pos_holes
100
AcDbEllipse
10
0.0000
20
-48.0832
30
0.0000
11
-0.1729
21
0.0000
31
0.0000
40
0.3807
41
0.0000
42
6.283185307179586
0
ELLIPSE
100
AcDbEntity
8
M1_Pos_holes
100
AcDbEllipse
10
0.0000
20
-47.5256
30
0.0000
11
-0.1152
21
0.0000
31
0.0000
40
0.3807
41
0.0000
42
6.283185307179586
0
ELLIPSE
100
AcDbEntity
8
M1_Pos_holes
100
AcDbEllipse
10
0.0000
20
-46.9680
30
0.0000
11
-0.0576
21
0.0000
31
0.0000
40
0.3807
41
0.0000
42
6.283185307179586
0
POLYLINE
8
M1_Field
70
1
0
VERTEX
10
-31.0000
20
-61.1868
0
VERTEX
10
31.0000
20
-61.1868
0
VERTEX
10
31.0000
20
0.8132
0
VERTEX
10
-31.0000
20
0.8132
0
SEQEND
0
POLYLINE
8
cure
70
1
0
VERTEX
10
-3.0000
20
-61.1868
0
VERTEX
10
3.0000
20
-61.1868
0
VERTEX
10
3.0000
20
0.8132
0
VERTEX
10
-3.0000
20
0.8132
0
SEQEND
0
POLYLINE
8
M2_undercutMsk
70
1
0
VERTEX
10
-3.0000
20
-61.1868
0
VERTEX
10
3.0000
20
-61.1868
0
VERTEX
10
3.0000
20
0.8132
0
VERTEX
10
-3.0000
20
0.8132
0
SEQEND
0
POLYLINE
8
M1_Neg
70
1
0
VERTEX
10
-3.5000
20
-41.1500
0
VERTEX
10
3.5000
20
-41.1500
0
VERTEX
10
3.5000
20
-40.1500
0
VERTEX
10
-3.5000
20
-40.1500
0
SEQEND
0
POLYLINE
8
M1_Neg
70
1
0
VERTEX
10
13.7500
20
-49.3500
0
VERTEX
10
13.7500
20
-49.5000
0
VERTEX
10
3.7500
20
-49.5000
0
VERTEX
10
3.7500
20
-50.4000
0
VERTEX
10
13.7500
20
-50.4000
0
VERTEX
10
13.7500
20
-50.5500
0
VERTEX
10
14.0500
20
-50.5500
0
VERTEX
10
14.0500
20
-50.1000
0
VERTEX
10
4.0500
20
-50.1000
0
VERTEX
10
4.0500
20
-49.8000
0
VERTEX
10
14.0500
20
-49.8000
0
VERTEX
10
14.0500
20
-49.3500
0
SEQEND
0
POLYLINE
8
M1_Neg
70
1
0
VERTEX
10
13.7500
20
-48.1500
0
VERTEX
10
13.7500
20
-48.3000
0
VERTEX
10
3.7500
20
-48.3000
0
VERTEX
10
3.7500
20
-49.2000
0
VERTEX
10
13.7500
20
-49.2000
0
VERTEX
10
13.7500
20
-49.3500
0
VERTEX
10
14.0500
20
-49.3500
0
VERTEX
10
14.0500
20
-48.9000
0
VERTEX
10
4.0500
20
-48.9000
0
VERTEX
10
4.0500
20
-48.6000
0
VERTEX
10
14.0500
20
-48.6000
0
VERTEX
10
14.0500
20
-48.1500
0
SEQEND
0
POLYLINE
8
M1_Neg
70
1
0
VERTEX
10
13.7500
20
-46.9500
0
VERTEX
10
13.7500
20
-47.1000
0
VERTEX
10
3.7500
20
-47.1000
0
VERTEX
10
3.7500
20
-48.0000
0
VERTEX
10
13.7500
20
-48.0000
0
VERTEX
10
13.7500
20
-48.1500
0
VERTEX
10
14.0500
20
-48.1500
0
VERTEX
10
14.0500
20
-47.7000
0
VERTEX
10
4.0500
20
-47.7000
0
VERTEX
10
4.0500
20
-47.4000
0
VERTEX
10
14.0500
20
-47.4000
0
VERTEX
10
14.0500
20
-46.9500
0
SEQEND
0
POLYLINE
8
M1_Neg
70
1
0
VERTEX
10
13.7500
20
-45.7500
0
VERTEX
10
13.7500
20
-45.9000
0
VERTEX
10
3.7500
20
-45.9000
0
VERTEX
10
3.7500
20
-46.8000
0
VERTEX
10
13.7500
20
-46.8000
0
VERTEX
10
13.7500
20
-46.9500
0
VERTEX
10
14.0500
20
-46.9500
0
VERTEX
10
14.0500
20
-46.5000
0
VERTEX
10
4.0500
20
-46.5000
0
VERTEX
10
4.0500
20
-46.2000
0
VERTEX
10
14.0500
20
-46.2000
0
VERTEX
10
14.0500
20
-45.7500
0
SEQEND
0
POLYLINE
8
M1_Neg
70
1
0
VERTEX
10
13.7500
20
-44.5500
0
VERTEX
10
13.7500
20
-44.7000
0
VERTEX
10
3.7500
20
-44.7000
0
VERTEX
10
3.7500
20
-45.6000
0
VERTEX
10
13.7500
20
-45.6000
0
VERTEX
10
13.7500
20
-45.7500
0
VERTEX
10
14.0500
20
-45.7500
0
VERTEX
10
14.0500
20
-45.3000
0
VERTEX
10
4.0500
20
-45.3000
0
VERTEX
10
4.0500
20
-45.0000
0
VERTEX
10
14.0500
20
-45.0000
0
VERTEX
10
14.0500
20
-44.5500
0
SEQEND
0
POLYLINE
8
M1_Neg
70
1
0
VERTEX
10
13.7500
20
-43.3500
0
VERTEX
10
13.7500
20
-43.5000
0
VERTEX
10
3.7500
20
-43.5000
0
VERTEX
10
3.7500
20
-44.4000
0
VERTEX
10
13.7500
20
-44.4000
0
VERTEX
10
13.7500
20
-44.5500
0
VERTEX
10
14.0500
20
-44.5500
0
VERTEX
10
14.0500
20
-44.1000
0
VERTEX
10
4.0500
20
-44.1000
0
VERTEX
10
4.0500
20
-43.8000
0
VERTEX
10
14.0500
20
-43.8000
0
VERTEX
10
14.0500
20
-43.3500
0
SEQEND
0
POLYLINE
8
M1_Neg
70
1
0
VERTEX
10
13.7500
20
-42.1500
0
VERTEX
10
13.7500
20
-42.3000
0
VERTEX
10
3.7500
20
-42.3000
0
VERTEX
10
3.7500
20
-43.2000
0
VERTEX
10
13.7500
20
-43.2000
0
VERTEX
10
13.7500
20
-43.3500
0
VERTEX
10
14.0500
20
-43.3500
0
VERTEX
10
14.0500
20
-42.9000
0
VERTEX
10
4.0500
20
-42.9000
0
VERTEX
10
4.0500
20
-42.6000
0
VERTEX
10
14.0500
20
-42.6000
0
VERTEX
10
14.0500
20
-42.1500
0
SEQEND
0
POLYLINE
8
M1_Neg
70
1
0
VERTEX
10
13.7500
20
-40.9500
0
VERTEX
10
13.7500
20
-41.1000
0
VERTEX
10
3.7500
20
-41.1000
0
VERTEX
10
3.7500
20
-42.0000
0
VERTEX
10
13.7500
20
-42.0000
0
VERTEX
10
13.7500
20
-42.1500
0
VERTEX
10
14.0500
20
-42.1500
0
VERTEX
10
14.0500
20
-41.7000
0
VERTEX
10
4.0500
20
-41.7000
0
VERTEX
10
4.0500
20
-41.4000
0
VERTEX
10
14.0500
20
-41.4000
0
VERTEX
10
14.0500
20
-40.9500
0
SEQEND
0
POLYLINE
8
M1_Neg
70
1
0
VERTEX
10
3.7500
20
-40.3500
0
VERTEX
10
3.7500
20
-40.8000
0
VERTEX
10
13.7500
20
-40.8000
0
VERTEX
10
13.7500
20
-40.9500
0
VERTEX
10
14.0500
20
-40.9500
0
VERTEX
10
14.0500
20
-40.5000
0
VERTEX
10
4.0500
20
-40.5000
0
VERTEX
10
4.0500
20
-40.3500
0
SEQEND
0
POLYLINE
8
metal
70
1
0
VERTEX
10
13.7500
20
-49.3500
0
VERTEX
10
13.7500
20
-49.5000
0
VERTEX
10
3.7500
20
-49.5000
0
VERTEX
10
3.7500
20
-50.4000
0
VERTEX
10
13.7500
20
-50.4000
0
VERTEX
10
13.7500
20
-50.5500
0
VERTEX
10
13.8500
20
-50.5500
0
VERTEX
10
13.8500
20
-50.3000
0
VERTEX
10
3.8500
20
-50.3000
0
VERTEX
10
3.8500
20
-49.6000
0
VERTEX
10
13.8500
20
-49.6000
0
VERTEX
10
13.8500
20
-49.3500
0
SEQEND
0
POLYLINE
8
metal
70
1
0
VERTEX
10
13.7500
20
-48.1500
0
VERTEX
10
13.7500
20
-48.3000
0
VERTEX
10
3.7500
20
-48.3000
0
VERTEX
10
3.7500
20
-49.2000
0
VERTEX
10
13.7500
20
-49.2000
0
VERTEX
10
13.7500
20
-49.3500
0
VERTEX
10
13.8500
20
-49.3500
0
VERTEX
10
13.8500
20
-49.1000
0
VERTEX
10
3.8500
20
-49.1000
0
VERTEX
10
3.8500
20
-48.4000
0
VERTEX
10
13.8500
20
-48.4000
0
VERTEX
10
13.8500
20
-48.1500
0
SEQEND
0
POLYLINE
8
metal
70
1
0
VERTEX
10
13.7500
20
-46.9500
0
VERTEX
10
13.7500
20
-47.1000
0
VERTEX
10
3.7500
20
-47.1000
0
VERTEX
10
3.7500
20
-48.0000
0
VERTEX
10
13.7500
20
-48.0000
0
VERTEX
10
13.7500
20
-48.1500
0
VERTEX
10
13.8500
20
-48.1500
0
VERTEX
10
13.8500
20
-47.9000
0
VERTEX
10
3.8500
20
-47.9000
0
VERTEX
10
3.8500
20
-47.2000
0
VERTEX
10
13.8500
20
-47.2000
0
VERTEX
10
13.8500
20
-46.9500
0
SEQEND
0
POLYLINE
8
metal
70
1
0
VERTEX
10
13.7500
20
-45.7500
0
VERTEX
10
13.7500
20
-45.9000
0
VERTEX
10
3.7500
20
-45.9000
0
VERTEX
10
3.7500
20
-46.8000
0
VERTEX
10
13.7500
20
-46.8000
0
VERTEX
10
13.7500
20
-46.9500
0
VERTEX
10
13.8500
20
-46.9500
0
VERTEX
10
13.8500
20
-46.7000
0
VERTEX
10
3.8500
20
-46.7000
0
VERTEX
10
3.8500
20
-46.0000
0
VERTEX
10
13.8500
20
-46.0000
0
VERTEX
10
13.8500
20
-45.7500
0
SEQEND
0
POLYLINE
8
metal
70
1
0
VERTEX
10
13.7500
20
-44.5500
0
VERTEX
10
13.7500
20
-44.7000
0
VERTEX
10
3.7500
20
-44.7000
0
VERTEX
10
3.7500
20
-45.6000
0
VERTEX
10
13.7500
20
-45.6000
0
VERTEX
10
13.7500
20
-45.7500
0
VERTEX
10
13.8500
20
-45.7500
0
VERTEX
10
13.8500
20
-45.5000
0
VERTEX
10
3.8500
20
-45.5000
0
VERTEX
10
3.8500
20
-44.8000
0
VERTEX
10
13.8500
20
-44.8000
0
VERTEX
10
13.8500
20
-44.5500
0
SEQEND
0
POLYLINE
8
metal
70
1
0
VERTEX
10
13.7500
20
-43.3500
0
VERTEX
10
13.7500
20
-43.5000
0
VERTEX
10
3.7500
20
-43.5000
0
VERTEX
10
3.7500
20
-44.4000
0
VERTEX
10
13.7500
20
-44.4000
0
VERTEX
10
13.7500
20
-44.5500
0
VERTEX
10
13.8500
20
-44.5500
0
VERTEX
10
13.8500
20
-44.3000
0
VERTEX
10
3.8500
20
-44.3000
0
VERTEX
10
3.8500
20
-43.6000
0
VERTEX
10
13.8500
20
-43.6000
0
VERTEX
10
13.8500
20
-43.3500
0
SEQEND
0
POLYLINE
8
metal
70
1
0
VERTEX
10
13.7500
20
-42.1500
0
VERTEX
10
13.7500
20
-42.3000
0
VERTEX
10
3.7500
20
-42.3000
0
VERTEX
10
3.7500
20
-43.2000
0
VERTEX
10
13.7500
20
-43.2000
0
VERTEX
10
13.7500
20
-43.3500
0
VERTEX
10
13.8500
20
-43.3500
0
VERTEX
10
13.8500
20
-43.1000
0
VERTEX
10
3.8500
20
-43.1000
0
VERTEX
10
3.8500
20
-42.4000
0
VERTEX
10
13.8500
20
-42.4000
0
VERTEX
10
13.8500
20
-42.1500
0
SEQEND
0
POLYLINE
8
metal
70
1
0
VERTEX
10
13.7500
20
-40.9500
0
VERTEX
10
13.7500
20
-41.1000
0
VERTEX
10
3.7500
20
-41.1000
0
VERTEX
10
3.7500
20
-42.0000
0
VERTEX
10
13.7500
20
-42.0000
0
VERTEX
10
13.7500
20
-42.1500
0
VERTEX
10
13.8500
20
-42.1500
0
VERTEX
10
13.8500
20
-41.9000
0
VERTEX
10
3.8500
20
-41.9000
0
VERTEX
10
3.8500
20
-41.2000
0
VERTEX
10
13.8500
20
-41.2000
0
VERTEX
10
13.8500
20
-40.9500
0
SEQEND
0
POLYLINE
8
metal
70
1
0
VERTEX
10
3.7500
20
-40.3500
0
VERTEX
10
3.7500
20
-40.8000
0
VERTEX
10
13.7500
20
-40.8000
0
VERTEX
10
13.7500
20
-40.9500
0
VERTEX
10
13.8500
20
-40.9500
0
VERTEX
10
13.8500
20
-40.7000
0
VERTEX
10
3.8500
20
-40.7000
0
VERTEX
10
3.8500
20
-40.3500
0
SEQEND
0
POLYLINE
8
metal
70
1
0
VERTEX
10
13.9500
20
-49.3500
0
VERTEX
10
13.9500
20
-49.7000
0
VERTEX
10
3.9500
20
-49.7000
0
VERTEX
10
3.9500
20
-50.2000
0
VERTEX
10
13.9500
20
-50.2000
0
VERTEX
10
13.9500
20
-50.5500
0
VERTEX
10
14.0500
20
-50.5500
0
VERTEX
10
14.0500
20
-50.1000
0
VERTEX
10
4.0500
20
-50.1000
0
VERTEX
10
4.0500
20
-49.8000
0
VERTEX
10
14.0500
20
-49.8000
0
VERTEX
10
14.0500
20
-49.3500
0
SEQEND
0
POLYLINE
8
metal
70
1
0
VERTEX
10
13.9500
20
-48.1500
0
VERTEX
10
13.9500
20
-48.5000
0
VERTEX
10
3.9500
20
-48.5000
0
VERTEX
10
3.9500
20
-49.0000
0
VERTEX
10
13.9500
20
-49.0000
0
VERTEX
10
13.9500
20
-49.3500
0
VERTEX
10
14.0500
20
-49.3500
0
VERTEX
10
14.0500
20
-48.9000
0
VERTEX
10
4.0500
20
-48.9000
0
VERTEX
10
4.0500
20
-48.6000
0
VERTEX
10
14.0500
20
-48.6000
0
VERTEX
10
14.0500
20
-48.1500
0
SEQEND
0
POLYLINE
8
metal
70
1
0
VERTEX
10
13.9500
20
-46.9500
0
VERTEX
10
13.9500
20
-47.3000
0
VERTEX
10
3.9500
20
-47.3000
0
VERTEX
10
3.9500
20
-47.8000
0
VERTEX
10
13.9500
20
-47.8000
0
VERTEX
10
13.9500
20
-48.1500
0
VERTEX
10
14.0500
20
-48.1500
0
VERTEX
10
14.0500
20
-47.7000
0
VERTEX
10
4.0500
20
-47.7000
0
VERTEX
10
4.0500
20
-47.4000
0
VERTEX
10
14.0500
20
-47.4000
0
VERTEX
10
14.0500
20
-46.9500
0
SEQEND
0
POLYLINE
8
metal
70
1
0
VERTEX
10
13.9500
20
-45.7500
0
VERTEX
10
13.9500
20
-46.1000
0
VERTEX
10
3.9500
20
-46.1000
0
VERTEX
10
3.9500
20
-46.6000
0
VERTEX
10
13.9500
20
-46.6000
0
VERTEX
10
13.9500
20
-46.9500
0
VERTEX
10
14.0500
20
-46.9500
0
VERTEX
10
14.0500
20
-46.5000
0
VERTEX
10
4.0500
20
-46.5000
0
VERTEX
10
4.0500
20
-46.2000
0
VERTEX
10
14.0500
20
-46.2000
0
VERTEX
10
14.0500
20
-45.7500
0
SEQEND
0
POLYLINE
8
metal
70
1
0
VERTEX
10
13.9500
20
-44.5500
0
VERTEX
10
13.9500
20
-44.9000
0
VERTEX
10
3.9500
20
-44.9000
0
VERTEX
10
3.9500
20
-45.4000
0
VERTEX
10
13.9500
20
-45.4000
0
VERTEX
10
13.9500
20
-45.7500
0
VERTEX
10
14.0500
20
-45.7500
0
VERTEX
10
14.0500
20
-45.3000
0
VERTEX
10
4.0500
20
-45.3000
0
VERTEX
10
4.0500
20
-45.0000
0
VERTEX
10
14.0500
20
-45.0000
0
VERTEX
10
14.0500
20
-44.5500
0
SEQEND
0
POLYLINE
8
metal
70
1
0
VERTEX
10
13.9500
20
-43.3500
0
VERTEX
10
13.9500
20
-43.7000
0
VERTEX
10
3.9500
20
-43.7000
0
VERTEX
10
3.9500
20
-44.2000
0
VERTEX
10
13.9500
20
-44.2000
0
VERTEX
10
13.9500
20
-44.5500
0
VERTEX
10
14.0500
20
-44.5500
0
VERTEX
10
14.0500
20
-44.1000
0
VERTEX
10
4.0500
20
-44.1000
0
VERTEX
10
4.0500
20
-43.8000
0
VERTEX
10
14.0500
20
-43.8000
0
VERTEX
10
14.0500
20
-43.3500
0
SEQEND
0
POLYLINE
8
metal
70
1
0
VERTEX
10
13.9500
20
-42.1500
0
VERTEX
10
13.9500
20
-42.5000
0
VERTEX
10
3.9500
20
-42.5000
0
VERTEX
10
3.9500
20
-43.0000
0
VERTEX
10
13.9500
20
-43.0000
0
VERTEX
10
13.9500
20
-43.3500
0
VERTEX
10
14.0500
20
-43.3500
0
VERTEX
10
14.0500
20
-42.9000
0
VERTEX
10
4.0500
20
-42.9000
0
VERTEX
10
4.0500
20
-42.6000
0
VERTEX
10
14.0500
20
-42.6000
0
VERTEX
10
14.0500
20
-42.1500
0
SEQEND
0
POLYLINE
8
metal
70
1
0
VERTEX
10
13.9500
20
-40.9500
0
VERTEX
10
13.9500
20
-41.3000
0
VERTEX
10
3.9500
20
-41.3000
0
VERTEX
10
3.9500
20
-41.8000
0
VERTEX
10
13.9500
20
-41.8000
0
VERTEX
10
13.9500
20
-42.1500
0
VERTEX
10
14.0500
20
-42.1500
0
VERTEX
10
14.0500
20
-41.7000
0
VERTEX
10
4.0500
20
-41.7000
0
VERTEX
10
4.0500
20
-41.4000
0
VERTEX
10
14.0500
20
-41.4000
0
VERTEX
10
14.0500
20
-40.9500
0
SEQEND
0
POLYLINE
8
metal
70
1
0
VERTEX
10
3.9500
20
-40.3500
0
VERTEX
10
3.9500
20
-40.6000
0
VERTEX
10
13.9500
20
-40.6000
0
VERTEX
10
13.9500
20
-40.9500
0
VERTEX
10
14.0500
20
-40.9500
0
VERTEX
10
14.0500
20
-40.5000
0
VERTEX
10
4.0500
20
-40.5000
0
VERTEX
10
4.0500
20
-40.3500
0
SEQEND
0
POLYLINE
8
M1_Neg
70
1
0
VERTEX
10
13.9311
20
-50.3689
0
VERTEX
10
22.4163
20
-50.3689
0
VERTEX
10
26.6590
20
-54.6116
0
VERTEX
10
17.9616
20
-63.3090
0
VERTEX
10
13.7189
20
-59.0663
0
VERTEX
10
13.7189
20
-50.5811
0
SEQEND
0
POLYLINE
8
cure
70
1
0
VERTEX
10
3.1000
20
-52.4500
0
VERTEX
10
14.7000
20
-52.4500
0
VERTEX
10
14.7000
20
-38.4500
0
VERTEX
10
3.1000
20
-38.4500
0
SEQEND
0
POLYLINE
8
M2_undercutMsk
70
1
0
VERTEX
10
0.1000
20
-52.4500
0
VERTEX
10
17.7000
20
-52.4500
0
VERTEX
10
17.7000
20
-38.4500
0
VERTEX
10
0.1000
20
-38.4500
0
SEQEND
0
CIRCLE
8
M1_LD
10
20.2640
20
-56.9140
40
7.5000
0
SEQEND
0
POLYLINE
8
metal
70
1
0
VERTEX
10
13.7500
20
-50.8500
0
VERTEX
10
13.7500
20
-50.5500
0
VERTEX
10
13.8500
20
-50.5500
0
VERTEX
10
13.8500
20
-50.7000
0
VERTEX
10
18.2500
20
-63.9000
0
VERTEX
10
18.2500
20
-64.2000
0
SEQEND
0
POLYLINE
8
metal
70
1
0
VERTEX
10
16.2500
20
-66.0500
0
VERTEX
10
20.2500
20
-66.0500
0
VERTEX
10
20.2500
20
-62.0500
0
VERTEX
10
16.2500
20
-62.0500
0
SEQEND
0
POLYLINE
8
metal_BB
70
1
0
VERTEX
10
16.2500
20
-66.0500
0
VERTEX
10
20.2500
20
-66.0500
0
VERTEX
10
20.2500
20
-62.0500
0
VERTEX
10
16.2500
20
-62.0500
0
SEQEND
0
POLYLINE
8
metal
70
1
0
VERTEX
10
13.9500
20
-50.4000
0
VERTEX
10
13.9500
20
-50.5500
0
VERTEX
10
14.0500
20
-50.5500
0
VERTEX
10
27.4500
20
-55.2000
0
VERTEX
10
27.4500
20
-54.9000
0
SEQEND
0
POLYLINE
8
metal
70
1
0
VERTEX
10
25.4500
20
-57.0500
0
VERTEX
10
29.4500
20
-57.0500
0
VERTEX
10
29.4500
20
-53.0500
0
VERTEX
10
25.4500
20
-53.0500
0
SEQEND
0
POLYLINE
8
metal_BB
70
1
0
VERTEX
10
25.4500
20
-57.0500
0
VERTEX
10
29.4500
20
-57.0500
0
VERTEX
10
29.4500
20
-53.0500
0
VERTEX
10
25.4500
20
-53.0500
0
SEQEND
0
POLYLINE
8
M1_Pos_holes
70
1
0
VERTEX
10
15.0314
20
-62.2880
0
VERTEX
10
15.4978
20
-61.6802
0
VERTEX
10
14.8899
20
-62.1466
0
VERTEX
10
14.4236
20
-62.7544
0
SEQEND
0
POLYLINE
8
M1_Pos_holes
70
1
0
VERTEX
10
15.4776
20
-62.6889
0
VERTEX
10
15.8939
20
-62.0458
0
VERTEX
10
15.3253
20
-62.5593
0
VERTEX
10
14.9090
20
-63.2024
0
SEQEND
0
POLYLINE
8
M1_Pos_holes
70
1
0
VERTEX
10
15.9544
20
-63.0530
0
VERTEX
10
16.3180
20
-62.3786
0
VERTEX
10
15.7922
20
-62.9359
0
VERTEX
10
15.4286
20
-63.6102
0
SEQEND
0
POLYLINE
8
M1_Pos_holes
70
1
0
VERTEX
10
16.4588
20
-63.3777
0
VERTEX
10
16.7673
20
-62.6765
0
VERTEX
10
16.2878
20
-63.2740
0
VERTEX
10
15.9792
20
-63.9752
0
SEQEND
0
POLYLINE
8
M1_Pos_holes
70
1
0
VERTEX
10
16.9875
20
-63.6612
0
VERTEX
10
17.2390
20
-62.9375
0
VERTEX
10
16.8088
20
-63.5714
0
VERTEX
10
16.5572
20
-64.2951
0
SEQEND
0
POLYLINE
8
M1_Pos_holes
70
1
0
VERTEX
10
17.5372
20
-63.9014
0
VERTEX
10
17.7300
20
-63.1600
0
VERTEX
10
17.3518
20
-63.8262
0
VERTEX
10
17.1590
20
-64.5677
0
SEQEND
0
POLYLINE
8
M1_Pos_holes
70
1
0
VERTEX
10
18.1043
20
-64.0970
0
VERTEX
10
18.2373
20
-63.3425
0
VERTEX
10
17.9135
20
-64.0368
0
VERTEX
10
17.7805
20
-64.7913
0
SEQEND
0
POLYLINE
8
M1_Pos_holes
70
1
0
VERTEX
10
18.6852
20
-64.2466
0
VERTEX
10
18.7575
20
-63.4839
0
VERTEX
10
18.4903
20
-64.2019
0
VERTEX
10
18.4180
20
-64.9646
0
SEQEND
0
POLYLINE
8
M1_Pos_holes
70
1
0
VERTEX
10
19.2763
20
-64.3493
0
VERTEX
10
19.2874
20
-63.5833
0
VERTEX
10
19.0784
20
-64.3203
0
VERTEX
10
19.0673
20
-65.0864
0
SEQEND
0
POLYLINE
8
M1_Pos_holes
70
1
0
VERTEX
10
19.8736
20
-64.4045
0
VERTEX
10
19.8235
20
-63.6400
0
VERTEX
10
19.6740
20
-64.3914
0
VERTEX
10
19.7242
20
-65.1559
0
SEQEND
0
POLYLINE
8
M1_Pos_holes
70
1
0
VERTEX
10
20.4735
20
-64.4117
0
VERTEX
10
20.3624
20
-63.6537
0
VERTEX
10
20.2735
20
-64.4146
0
VERTEX
10
20.3846
20
-65.1727
0
SEQEND
0
POLYLINE
8
M1_Pos_holes
70
1
0
VERTEX
10
21.0720
20
-64.3710
0
VERTEX
10
20.9007
20
-63.6242
0
VERTEX
10
20.8729
20
-64.3899
0
VERTEX
10
21.0442
20
-65.1366
0
SEQEND
0
POLYLINE
8
M1_Pos_holes
70
1
0
VERTEX
10
21.6653
20
-64.2826
0
VERTEX
10
21.4349
20
-63.5519
0
VERTEX
10
21.4684
20
-64.3173
0
VERTEX
10
21.6988
20
-65.0480
0
SEQEND
0
POLYLINE
8
M1_Pos_holes
70
1
0
VERTEX
10
22.2497
20
-64.1470
0
VERTEX
10
21.9616
20
-63.4371
0
VERTEX
10
22.0561
20
-64.1974
0
VERTEX
10
22.3442
20
-64.9073
0
SEQEND
0
POLYLINE
8
M1_Pos_holes
70
1
0
VERTEX
10
22.8214
20
-63.9652
0
VERTEX
10
22.4775
20
-63.2806
0
VERTEX
10
22.6325
20
-64.0309
0
VERTEX
10
22.9763
20
-64.7155
0
SEQEND
0
POLYLINE
8
M1_Pos_holes
70
1
0
VERTEX
10
23.3767
20
-63.7383
0
VERTEX
10
22.9792
20
-63.0833
0
VERTEX
10
23.1936
20
-63.8188
0
VERTEX
10
23.5911
20
-64.4738
0
SEQEND
0
POLYLINE
8
M1_Pos_holes
70
1
0
VERTEX
10
23.9121
20
-63.4677
0
VERTEX
10
23.4635
20
-62.8466
0
VERTEX
10
23.7361
20
-63.5626
0
VERTEX
10
24.1846
20
-64.1837
0
SEQEND
0
POLYLINE
8
M1_Pos_holes
70
1
0
VERTEX
10
24.4242
20
-63.1552
0
VERTEX
10
23.9274
20
-62.5719
0
VERTEX
10
24.2563
20
-63.2639
0
VERTEX
10
24.7530
20
-63.8471
0
SEQEND
0
POLYLINE
8
M1_Pos_holes
70
1
0
VERTEX
10
24.9096
20
-62.8028
0
VERTEX
10
24.3678
20
-62.2611
0
VERTEX
10
24.7510
20
-62.9245
0
VERTEX
10
25.2927
20
-63.4662
0
SEQEND
0
POLYLINE
8
M1_Pos_holes
70
1
0
VERTEX
10
25.3654
20
-62.4127
0
VERTEX
10
24.7820
20
-61.9160
0
VERTEX
10
25.2169
20
-62.5467
0
VERTEX
10
25.8003
20
-63.0434
0
SEQEND
0
POLYLINE
8
M1_Pos_holes
70
1
0
VERTEX
10
25.7885
20
-61.9874
0
VERTEX
10
25.1673
20
-61.5390
0
VERTEX
10
25.6512
20
-62.1329
0
VERTEX
10
26.2724
20
-62.5813
0
SEQEND
0
POLYLINE
8
M1_Pos_holes
70
1
0
VERTEX
10
26.1762
20
-61.5297
0
VERTEX
10
25.5212
20
-61.1323
0
VERTEX
10
26.0511
20
-61.6857
0
VERTEX
10
26.7061
20
-62.0830
0
SEQEND
0
POLYLINE
8
M1_Pos_holes
70
1
0
VERTEX
10
26.5262
20
-61.0424
0
VERTEX
10
25.8415
20
-60.6987
0
VERTEX
10
26.4139
20
-61.2079
0
VERTEX
10
27.0986
20
-61.5517
0
SEQEND
0
POLYLINE
8
M1_Pos_holes
70
1
0
VERTEX
10
26.8361
20
-60.5288
0
VERTEX
10
26.1261
20
-60.2409
0
VERTEX
10
26.7374
20
-60.7027
0
VERTEX
10
27.4473
20
-60.9907
0
SEQEND
0
POLYLINE
8
M1_Pos_holes
70
1
0
VERTEX
10
27.1040
20
-59.9920
0
VERTEX
10
26.3733
20
-59.7617
0
VERTEX
10
27.0195
20
-60.1733
0
VERTEX
10
27.7502
20
-60.4036
0
SEQEND
0
POLYLINE
8
M1_Pos_holes
70
1
0
VERTEX
10
27.3281
20
-59.4356
0
VERTEX
10
26.5813
20
-59.2644
0
VERTEX
10
27.2583
20
-59.6230
0
VERTEX
10
28.0051
20
-59.7942
0
SEQEND
0
POLYLINE
8
M1_Pos_holes
70
1
0
VERTEX
10
27.5070
20
-58.8630
0
VERTEX
10
26.7489
20
-58.7521
0
VERTEX
10
27.4524
20
-59.0554
0
VERTEX
10
28.2105
20
-59.1663
0
SEQEND
0
POLYLINE
8
M1_Pos_holes
70
1
0
VERTEX
10
27.6396
20
-58.2779
0
VERTEX
10
26.8751
20
-58.2279
0
VERTEX
10
27.6006
20
-58.4741
0
VERTEX
10
28.3651
20
-58.5241
0
SEQEND
0
POLYLINE
8
M1_Pos_holes
70
1
0
VERTEX
10
27.7250
20
-57.6841
0
VERTEX
10
26.9589
20
-57.6954
0
VERTEX
10
27.7018
20
-57.8828
0
VERTEX
10
28.4678
20
-57.8715
0
SEQEND
0
POLYLINE
8
M1_Pos_holes
70
1
0
VERTEX
10
27.7627
20
-57.0854
0
VERTEX
10
27.0000
20
-57.1579
0
VERTEX
10
27.7554
20
-57.2853
0
VERTEX
10
28.5181
20
-57.2128
0
SEQEND
0
POLYLINE
8
M1_Pos_holes
70
1
0
VERTEX
10
27.7524
20
-56.4856
0
VERTEX
10
26.9979
20
-56.6188
0
VERTEX
10
27.7611
20
-56.6854
0
VERTEX
10
28.5156
20
-56.5523
0
SEQEND
0
POLYLINE
8
M1_Pos_holes
70
1
0
VERTEX
10
27.6942
20
-55.8886
0
VERTEX
10
26.9528
20
-56.0816
0
VERTEX
10
27.7189
20
-56.0870
0
VERTEX
10
28.4603
20
-55.8940
0
SEQEND
0
POLYLINE
8
M1_Pos_holes
70
1
0
VERTEX
10
27.5885
20
-55.2980
0
VERTEX
10
26.8649
20
-55.5497
0
VERTEX
10
27.6290
20
-55.4939
0
VERTEX
10
28.3526
20
-55.2422
0
SEQEND
0
POLYLINE
8
M1_Pos_holes
70
1
0
VERTEX
10
27.4359
20
-54.7179
0
VERTEX
10
26.7347
20
-55.0266
0
VERTEX
10
27.4919
20
-54.9099
0
VERTEX
10
28.1931
20
-54.6012
0
SEQEND
0
POLYLINE
8
M1_Pos_holes
70
1
0
VERTEX
10
27.2375
20
-54.1518
0
VERTEX
10
26.5632
20
-54.5155
0
VERTEX
10
27.3087
20
-54.3387
0
VERTEX
10
27.9829
20
-53.9749
0
SEQEND
0
POLYLINE
8
M1_Pos_holes
70
1
0
VERTEX
10
26.9945
20
-53.6033
0
VERTEX
10
26.3514
20
-54.0198
0
VERTEX
10
27.0803
20
-53.7839
0
VERTEX
10
27.7234
20
-53.3675
0
SEQEND
0
POLYLINE
8
M1_Pos_holes
70
1
0
VERTEX
10
26.7084
20
-53.0760
0
VERTEX
10
26.1006
20
-53.5425
0
VERTEX
10
26.8084
20
-53.2492
0
VERTEX
10
27.4161
20
-52.7827
0
SEQEND
0
POLYLINE
8
M1_Pos_holes
70
1
0
VERTEX
10
26.3810
20
-52.5733
0
VERTEX
10
25.8125
20
-53.0869
0
VERTEX
10
26.4946
20
-52.7379
0
VERTEX
10
27.0631
20
-52.2243
0
SEQEND
0
POLYLINE
8
M1_Pos_holes
70
1
0
VERTEX
10
26.0146
20
-52.0983
0
VERTEX
10
25.4890
20
-52.6557
0
VERTEX
10
26.1409
20
-52.2534
0
VERTEX
10
26.6666
20
-51.6960
0
SEQEND
0
POLYLINE
8
M1_Pos_holes
70
1
0
VERTEX
10
25.6114
20
-51.6542
0
VERTEX
10
25.1320
20
-52.2518
0
VERTEX
10
25.7497
20
-51.7986
0
VERTEX
10
26.2291
20
-51.2010
0
SEQEND
0
POLYLINE
8
M1_Neg
70
1
0
VERTEX
10
-13.7500
20
-49.3500
0
VERTEX
10
-13.7500
20
-49.5000
0
VERTEX
10
-3.7500
20
-49.5000
0
VERTEX
10
-3.7500
20
-50.4000
0
VERTEX
10
-13.7500
20
-50.4000
0
VERTEX
10
-13.7500
20
-50.5500
0
VERTEX
10
-14.0500
20
-50.5500
0
VERTEX
10
-14.0500
20
-50.1000
0
VERTEX
10
-4.0500
20
-50.1000
0
VERTEX
10
-4.0500
20
-49.8000
0
VERTEX
10
-14.0500
20
-49.8000
0
VERTEX
10
-14.0500
20
-49.3500
0
SEQEND
0
POLYLINE
8
M1_Neg
70
1
0
VERTEX
10
-13.7500
20
-48.1500
0
VERTEX
10
-13.7500
20
-48.3000
0
VERTEX
10
-3.7500
20
-48.3000
0
VERTEX
10
-3.7500
20
-49.2000
0
VERTEX
10
-13.7500
20
-49.2000
0
VERTEX
10
-13.7500
20
-49.3500
0
VERTEX
10
-14.0500
20
-49.3500
0
VERTEX
10
-14.0500
20
-48.9000
0
VERTEX
10
-4.0500
20
-48.9000
0
VERTEX
10
-4.0500
20
-48.6000
0
VERTEX
10
-14.0500
20
-48.6000
0
VERTEX
10
-14.0500
20
-48.1500
0
SEQEND
0
POLYLINE
8
M1_Neg
70
1
0
VERTEX
10
-13.7500
20
-46.9500
0
VERTEX
10
-13.7500
20
-47.1000
0
VERTEX
10
-3.7500
20
-47.1000
0
VERTEX
10
-3.7500
20
-48.0000
0
VERTEX
10
-13.7500
20
-48.0000
0
VERTEX
10
-13.7500
20
-48.1500
0
VERTEX
10
-14.0500
20
-48.1500
0
VERTEX
10
-14.0500
20
-47.7000
0
VERTEX
10
-4.0500
20
-47.7000
0
VERTEX
10
-4.0500
20
-47.4000
0
VERTEX
10
-14.0500
20
-47.4000
0
VERTEX
10
-14.0500
20
-46.9500
0
SEQEND
0
POLYLINE
8
M1_Neg
70
1
0
VERTEX
10
-13.7500
20
-45.7500
0
VERTEX
10
-13.7500
20
-45.9000
0
VERTEX
10
-3.7500
20
-45.9000
0
VERTEX
10
-3.7500
20
-46.8000
0
VERTEX
10
-13.7500
20
-46.8000
0
VERTEX
10
-13.7500
20
-46.9500
0
VERTEX
10
-14.0500
20
-46.9500
0
VERTEX
10
-14.0500
20
-46.5000
0
VERTEX
10
-4.0500
20
-46.5000
0
VERTEX
10
-4.0500
20
-46.2000
0
VERTEX
10
-14.0500
20
-46.2000
0
VERTEX
10
-14.0500
20
-45.7500
0
SEQEND
0
POLYLINE
8
M1_Neg
70
1
0
VERTEX
10
-13.7500
20
-44.5500
0
VERTEX
10
-13.7500
20
-44.7000
0
VERTEX
10
-3.7500
20
-44.7000
0
VERTEX
10
-3.7500
20
-45.6000
0
VERTEX
10
-13.7500
20
-45.6000
0
VERTEX
10
-13.7500
20
-45.7500
0
VERTEX
10
-14.0500
20
-45.7500
0
VERTEX
10
-14.0500
20
-45.3000
0
VERTEX
10
-4.0500
20
-45.3000
0
VERTEX
10
-4.0500
20
-45.0000
0
VERTEX
10
-14.0500
20
-45.0000
0
VERTEX
10
-14.0500
20
-44.5500
0
SEQEND
0
POLYLINE
8
M1_Neg
70
1
0
VERTEX
10
-13.7500
20
-43.3500
0
VERTEX
10
-13.7500
20
-43.5000
0
VERTEX
10
-3.7500
20
-43.5000
0
VERTEX
10
-3.7500
20
-44.4000
0
VERTEX
10
-13.7500
20
-44.4000
0
VERTEX
10
-13.7500
20
-44.5500
0
VERTEX
10
-14.0500
20
-44.5500
0
VERTEX
10
-14.0500
20
-44.1000
0
VERTEX
10
-4.0500
20
-44.1000
0
VERTEX
10
-4.0500
20
-43.8000
0
VERTEX
10
-14.0500
20
-43.8000
0
VERTEX
10
-14.0500
20
-43.3500
0
SEQEND
0
POLYLINE
8
M1_Neg
70
1
0
VERTEX
10
-13.7500
20
-42.1500
0
VERTEX
10
-13.7500
20
-42.3000
0
VERTEX
10
-3.7500
20
-42.3000
0
VERTEX
10
-3.7500
20
-43.2000
0
VERTEX
10
-13.7500
20
-43.2000
0
VERTEX
10
-13.7500
20
-43.3500
0
VERTEX
10
-14.0500
20
-43.3500
0
VERTEX
10
-14.0500
20
-42.9000
0
VERTEX
10
-4.0500
20
-42.9000
0
VERTEX
10
-4.0500
20
-42.6000
0
VERTEX
10
-14.0500
20
-42.6000
0
VERTEX
10
-14.0500
20
-42.1500
0
SEQEND
0
POLYLINE
8
M1_Neg
70
1
0
VERTEX
10
-13.7500
20
-40.9500
0
VERTEX
10
-13.7500
20
-41.1000
0
VERTEX
10
-3.7500
20
-41.1000
0
VERTEX
10
-3.7500
20
-42.0000
0
VERTEX
10
-13.7500
20
-42.0000
0
VERTEX
10
-13.7500
20
-42.1500
0
VERTEX
10
-14.0500
20
-42.1500
0
VERTEX
10
-14.0500
20
-41.7000
0
VERTEX
10
-4.0500
20
-41.7000
0
VERTEX
10
-4.0500
20
-41.4000
0
VERTEX
10
-14.0500
20
-41.4000
0
VERTEX
10
-14.0500
20
-40.9500
0
SEQEND
0
POLYLINE
8
M1_Neg
70
1
0
VERTEX
10
-3.7500
20
-40.3500
0
VERTEX
10
-3.7500
20
-40.8000
0
VERTEX
10
-13.7500
20
-40.8000
0
VERTEX
10
-13.7500
20
-40.9500
0
VERTEX
10
-14.0500
20
-40.9500
0
VERTEX
10
-14.0500
20
-40.5000
0
VERTEX
10
-4.0500
20
-40.5000
0
VERTEX
10
-4.0500
20
-40.3500
0
SEQEND
0
POLYLINE
8
metal
70
1
0
VERTEX
10
-13.7500
20
-49.3500
0
VERTEX
10
-13.7500
20
-49.5000
0
VERTEX
10
-3.7500
20
-49.5000
0
VERTEX
10
-3.7500
20
-50.4000
0
VERTEX
10
-13.7500
20
-50.4000
0
VERTEX
10
-13.7500
20
-50.5500
0
VERTEX
10
-13.8500
20
-50.5500
0
VERTEX
10
-13.8500
20
-50.3000
0
VERTEX
10
-3.8500
20
-50.3000
0
VERTEX
10
-3.8500
20
-49.6000
0
VERTEX
10
-13.8500
20
-49.6000
0
VERTEX
10
-13.8500
20
-49.3500
0
SEQEND
0
POLYLINE
8
metal
70
1
0
VERTEX
10
-13.7500
20
-48.1500
0
VERTEX
10
-13.7500
20
-48.3000
0
VERTEX
10
-3.7500
20
-48.3000
0
VERTEX
10
-3.7500
20
-49.2000
0
VERTEX
10
-13.7500
20
-49.2000
0
VERTEX
10
-13.7500
20
-49.3500
0
VERTEX
10
-13.8500
20
-49.3500
0
VERTEX
10
-13.8500
20
-49.1000
0
VERTEX
10
-3.8500
20
-49.1000
0
VERTEX
10
-3.8500
20
-48.4000
0
VERTEX
10
-13.8500
20
-48.4000
0
VERTEX
10
-13.8500
20
-48.1500
0
SEQEND
0
POLYLINE
8
metal
70
1
0
VERTEX
10
-13.7500
20
-46.9500
0
VERTEX
10
-13.7500
20
-47.1000
0
VERTEX
10
-3.7500
20
-47.1000
0
VERTEX
10
-3.7500
20
-48.0000
0
VERTEX
10
-13.7500
20
-48.0000
0
VERTEX
10
-13.7500
20
-48.1500
0
VERTEX
10
-13.8500
20
-48.1500
0
VERTEX
10
-13.8500
20
-47.9000
0
VERTEX
10
-3.8500
20
-47.9000
0
VERTEX
10
-3.8500
20
-47.2000
0
VERTEX
10
-13.8500
20
-47.2000
0
VERTEX
10
-13.8500
20
-46.9500
0
SEQEND
0
POLYLINE
8
metal
70
1
0
VERTEX
10
-13.7500
20
-45.7500
0
VERTEX
10
-13.7500
20
-45.9000
0
VERTEX
10
-3.7500
20
-45.9000
0
VERTEX
10
-3.7500
20
-46.8000
0
VERTEX
10
-13.7500
20
-46.8000
0
VERTEX
10
-13.7500
20
-46.9500
0
VERTEX
10
-13.8500
20
-46.9500
0
VERTEX
10
-13.8500
20
-46.7000
0
VERTEX
10
-3.8500
20
-46.7000
0
VERTEX
10
-3.8500
20
-46.0000
0
VERTEX
10
-13.8500
20
-46.0000
0
VERTEX
10
-13.8500
20
-45.7500
0
SEQEND
0
POLYLINE
8
metal
70
1
0
VERTEX
10
-13.7500
20
-44.5500
0
VERTEX
10
-13.7500
20
-44.7000
0
VERTEX
10
-3.7500
20
-44.7000
0
VERTEX
10
-3.7500
20
-45.6000
0
VERTEX
10
-13.7500
20
-45.6000
0
VERTEX
10
-13.7500
20
-45.7500
0
VERTEX
10
-13.8500
20
-45.7500
0
VERTEX
10
-13.8500
20
-45.5000
0
VERTEX
10
-3.8500
20
-45.5000
0
VERTEX
10
-3.8500
20
-44.8000
0
VERTEX
10
-13.8500
20
-44.8000
0
VERTEX
10
-13.8500
20
-44.5500
0
SEQEND
0
POLYLINE
8
metal
70
1
0
VERTEX
10
-13.7500
20
-43.3500
0
VERTEX
10
-13.7500
20
-43.5000
0
VERTEX
10
-3.7500
20
-43.5000
0
VERTEX
10
-3.7500
20
-44.4000
0
VERTEX
10
-13.7500
20
-44.4000
0
VERTEX
10
-13.7500
20
-44.5500
0
VERTEX
10
-13.8500
20
-44.5500
0
VERTEX
10
-13.8500
20
-44.3000
0
VERTEX
10
-3.8500
20
-44.3000
0
VERTEX
10
-3.8500
20
-43.6000
0
VERTEX
10
-13.8500
20
-43.6000
0
VERTEX
10
-13.8500
20
-43.3500
0
SEQEND
0
POLYLINE
8
metal
70
1
0
VERTEX
10
-13.7500
20
-42.1500
0
VERTEX
10
-13.7500
20
-42.3000
0
VERTEX
10
-3.7500
20
-42.3000
0
VERTEX
10
-3.7500
20
-43.2000
0
VERTEX
10
-13.7500
20
-43.2000
0
VERTEX
10
-13.7500
20
-43.3500
0
VERTEX
10
-13.8500
20
-43.3500
0
VERTEX
10
-13.8500
20
-43.1000
0
VERTEX
10
-3.8500
20
-43.1000
0
VERTEX
10
-3.8500
20
-42.4000
0
VERTEX
10
-13.8500
20
-42.4000
0
VERTEX
10
-13.8500
20
-42.1500
0
SEQEND
0
POLYLINE
8
metal
70
1
0
VERTEX
10
-13.7500
20
-40.9500
0
VERTEX
10
-13.7500
20
-41.1000
0
VERTEX
10
-3.7500
20
-41.1000
0
VERTEX
10
-3.7500
20
-42.0000
0
VERTEX
10
-13.7500
20
-42.0000
0
VERTEX
10
-13.7500
20
-42.1500
0
VERTEX
10
-13.8500
20
-42.1500
0
VERTEX
10
-13.8500
20
-41.9000
0
VERTEX
10
-3.8500
20
-41.9000
0
VERTEX
10
-3.8500
20
-41.2000
0
VERTEX
10
-13.8500
20
-41.2000
0
VERTEX
10
-13.8500
20
-40.9500
0
SEQEND
0
POLYLINE
8
metal
70
1
0
VERTEX
10
-3.7500
20
-40.3500
0
VERTEX
10
-3.7500
20
-40.8000
0
VERTEX
10
-13.7500
20
-40.8000
0
VERTEX
10
-13.7500
20
-40.9500
0
VERTEX
10
-13.8500
20
-40.9500
0
VERTEX
10
-13.8500
20
-40.7000
0
VERTEX
10
-3.8500
20
-40.7000
0
VERTEX
10
-3.8500
20
-40.3500
0
SEQEND
0
POLYLINE
8
metal
70
1
0
VERTEX
10
-13.9500
20
-49.3500
0
VERTEX
10
-13.9500
20
-49.7000
0
VERTEX
10
-3.9500
20
-49.7000
0
VERTEX
10
-3.9500
20
-50.2000
0
VERTEX
10
-13.9500
20
-50.2000
0
VERTEX
10
-13.9500
20
-50.5500
0
VERTEX
10
-14.0500
20
-50.5500
0
VERTEX
10
-14.0500
20
-50.1000
0
VERTEX
10
-4.0500
20
-50.1000
0
VERTEX
10
-4.0500
20
-49.8000
0
VERTEX
10
-14.0500
20
-49.8000
0
VERTEX
10
-14.0500
20
-49.3500
0
SEQEND
0
POLYLINE
8
metal
70
1
0
VERTEX
10
-13.9500
20
-48.1500
0
VERTEX
10
-13.9500
20
-48.5000
0
VERTEX
10
-3.9500
20
-48.5000
0
VERTEX
10
-3.9500
20
-49.0000
0
VERTEX
10
-13.9500
20
-49.0000
0
VERTEX
10
-13.9500
20
-49.3500
0
VERTEX
10
-14.0500
20
-49.3500
0
VERTEX
10
-14.0500
20
-48.9000
0
VERTEX
10
-4.0500
20
-48.9000
0
VERTEX
10
-4.0500
20
-48.6000
0
VERTEX
10
-14.0500
20
-48.6000
0
VERTEX
10
-14.0500
20
-48.1500
0
SEQEND
0
POLYLINE
8
metal
70
1
0
VERTEX
10
-13.9500
20
-46.9500
0
VERTEX
10
-13.9500
20
-47.3000
0
VERTEX
10
-3.9500
20
-47.3000
0
VERTEX
10
-3.9500
20
-47.8000
0
VERTEX
10
-13.9500
20
-47.8000
0
VERTEX
10
-13.9500
20
-48.1500
0
VERTEX
10
-14.0500
20
-48.1500
0
VERTEX
10
-14.0500
20
-47.7000
0
VERTEX
10
-4.0500
20
-47.7000
0
VERTEX
10
-4.0500
20
-47.4000
0
VERTEX
10
-14.0500
20
-47.4000
0
VERTEX
10
-14.0500
20
-46.9500
0
SEQEND
0
POLYLINE
8
metal
70
1
0
VERTEX
10
-13.9500
20
-45.7500
0
VERTEX
10
-13.9500
20
-46.1000
0
VERTEX
10
-3.9500
20
-46.1000
0
VERTEX
10
-3.9500
20
-46.6000
0
VERTEX
10
-13.9500
20
-46.6000
0
VERTEX
10
-13.9500
20
-46.9500
0
VERTEX
10
-14.0500
20
-46.9500
0
VERTEX
10
-14.0500
20
-46.5000
0
VERTEX
10
-4.0500
20
-46.5000
0
VERTEX
10
-4.0500
20
-46.2000
0
VERTEX
10
-14.0500
20
-46.2000
0
VERTEX
10
-14.0500
20
-45.7500
0
SEQEND
0
POLYLINE
8
metal
70
1
0
VERTEX
10
-13.9500
20
-44.5500
0
VERTEX
10
-13.9500
20
-44.9000
0
VERTEX
10
-3.9500
20
-44.9000
0
VERTEX
10
-3.9500
20
-45.4000
0
VERTEX
10
-13.9500
20
-45.4000
0
VERTEX
10
-13.9500
20
-45.7500
0
VERTEX
10
-14.0500
20
-45.7500
0
VERTEX
10
-14.0500
20
-45.3000
0
VERTEX
10
-4.0500
20
-45.3000
0
VERTEX
10
-4.0500
20
-45.0000
0
VERTEX
10
-14.0500
20
-45.0000
0
VERTEX
10
-14.0500
20
-44.5500
0
SEQEND
0
POLYLINE
8
metal
70
1
0
VERTEX
10
-13.9500
20
-43.3500
0
VERTEX
10
-13.9500
20
-43.7000
0
VERTEX
10
-3.9500
20
-43.7000
0
VERTEX
10
-3.9500
20
-44.2000
0
VERTEX
10
-13.9500
20
-44.2000
0
VERTEX
10
-13.9500
20
-44.5500
0
VERTEX
10
-14.0500
20
-44.5500
0
VERTEX
10
-14.0500
20
-44.1000
0
VERTEX
10
-4.0500
20
-44.1000
0
VERTEX
10
-4.0500
20
-43.8000
0
VERTEX
10
-14.0500
20
-43.8000
0
VERTEX
10
-14.0500
20
-43.3500
0
SEQEND
0
POLYLINE
8
metal
70
1
0
VERTEX
10
-13.9500
20
-42.1500
0
VERTEX
10
-13.9500
20
-42.5000
0
VERTEX
10
-3.9500
20
-42.5000
0
VERTEX
10
-3.9500
20
-43.0000
0
VERTEX
10
-13.9500
20
-43.0000
0
VERTEX
10
-13.9500
20
-43.3500
0
VERTEX
10
-14.0500
20
-43.3500
0
VERTEX
10
-14.0500
20
-42.9000
0
VERTEX
10
-4.0500
20
-42.9000
0
VERTEX
10
-4.0500
20
-42.6000
0
VERTEX
10
-14.0500
20
-42.6000
0
VERTEX
10
-14.0500
20
-42.1500
0
SEQEND
0
POLYLINE
8
metal
70
1
0
VERTEX
10
-13.9500
20
-40.9500
0
VERTEX
10
-13.9500
20
-41.3000
0
VERTEX
10
-3.9500
20
-41.3000
0
VERTEX
10
-3.9500
20
-41.8000
0
VERTEX
10
-13.9500
20
-41.8000
0
VERTEX
10
-13.9500
20
-42.1500
0
VERTEX
10
-14.0500
20
-42.1500
0
VERTEX
10
-14.0500
20
-41.7000
0
VERTEX
10
-4.0500
20
-41.7000
0
VERTEX
10
-4.0500
20
-41.4000
0
VERTEX
10
-14.0500
20
-41.4000
0
VERTEX
10
-14.0500
20
-40.9500
0
SEQEND
0
POLYLINE
8
metal
70
1
0
VERTEX
10
-3.9500
20
-40.3500
0
VERTEX
10
-3.9500
20
-40.6000
0
VERTEX
10
-13.9500
20
-40.6000
0
VERTEX
10
-13.9500
20
-40.9500
0
VERTEX
10
-14.0500
20
-40.9500
0
VERTEX
10
-14.0500
20
-40.5000
0
VERTEX
10
-4.0500
20
-40.5000
0
VERTEX
10
-4.0500
20
-40.3500
0
SEQEND
0
POLYLINE
8
M1_Neg
70
1
0
VERTEX
10
-13.9311
20
-50.3689
0
VERTEX
10
-22.4163
20
-50.3689
0
VERTEX
10
-26.6590
20
-54.6116
0
VERTEX
10
-17.9616
20
-63.3090
0
VERTEX
10
-13.7189
20
-59.0663
0
VERTEX
10
-13.7189
20
-50.5811
0
SEQEND
0
POLYLINE
8
cure
70
1
0
VERTEX
10
-3.1000
20
-38.4500
0
VERTEX
10
-14.7000
20
-38.4500
0
VERTEX
10
-14.7000
20
-52.4500
0
VERTEX
10
-3.1000
20
-52.4500
0
SEQEND
0
POLYLINE
8
M2_undercutMsk
70
1
0
VERTEX
10
-0.1000
20
-38.4500
0
VERTEX
10
-17.7000
20
-38.4500
0
VERTEX
10
-17.7000
20
-52.4500
0
VERTEX
10
-0.1000
20
-52.4500
0
SEQEND
0
CIRCLE
8
M1_LD
10
-20.2640
20
-56.9140
40
7.5000
0
SEQEND
0
POLYLINE
8
metal
70
1
0
VERTEX
10
-13.7500
20
-50.8500
0
VERTEX
10
-13.7500
20
-50.5500
0
VERTEX
10
-13.8500
20
-50.5500
0
VERTEX
10
-13.8500
20
-50.7000
0
VERTEX
10
-18.2500
20
-63.9000
0
VERTEX
10
-18.2500
20
-64.2000
0
SEQEND
0
POLYLINE
8
metal
70
1
0
VERTEX
10
-16.2500
20
-62.0500
0
VERTEX
10
-20.2500
20
-62.0500
0
VERTEX
10
-20.2500
20
-66.0500
0
VERTEX
10
-16.2500
20
-66.0500
0
SEQEND
0
POLYLINE
8
metal_BB
70
1
0
VERTEX
10
-16.2500
20
-62.0500
0
VERTEX
10
-20.2500
20
-62.0500
0
VERTEX
10
-20.2500
20
-66.0500
0
VERTEX
10
-16.2500
20
-66.0500
0
SEQEND
0
POLYLINE
8
metal
70
1
0
VERTEX
10
-13.9500
20
-50.4000
0
VERTEX
10
-13.9500
20
-50.5500
0
VERTEX
10
-14.0500
20
-50.5500
0
VERTEX
10
-27.4500
20
-55.2000
0
VERTEX
10
-27.4500
20
-54.9000
0
SEQEND
0
POLYLINE
8
metal
70
1
0
VERTEX
10
-25.4500
20
-53.0500
0
VERTEX
10
-29.4500
20
-53.0500
0
VERTEX
10
-29.4500
20
-57.0500
0
VERTEX
10
-25.4500
20
-57.0500
0
SEQEND
0
POLYLINE
8
metal_BB
70
1
0
VERTEX
10
-25.4500
20
-53.0500
0
VERTEX
10
-29.4500
20
-53.0500
0
VERTEX
10
-29.4500
20
-57.0500
0
VERTEX
10
-25.4500
20
-57.0500
0
SEQEND
0
POLYLINE
8
M1_Pos_holes
70
1
0
VERTEX
10
-14.9524
20
-62.2205
0
VERTEX
10
-15.4188
20
-61.6127
0
VERTEX
10
-14.8110
20
-62.0790
0
VERTEX
10
-14.3446
20
-62.6869
0
SEQEND
0
POLYLINE
8
M1_Pos_holes
70
1
0
VERTEX
10
-15.3986
20
-62.6214
0
VERTEX
10
-15.8150
20
-61.9783
0
VERTEX
10
-15.2464
20
-62.4918
0
VERTEX
10
-14.8300
20
-63.1349
0
SEQEND
0
POLYLINE
8
M1_Pos_holes
70
1
0
VERTEX
10
-15.8755
20
-62.9855
0
VERTEX
10
-16.2390
20
-62.3111
0
VERTEX
10
-15.7133
20
-62.8684
0
VERTEX
10
-15.3497
20
-63.5427
0
SEQEND
0
POLYLINE
8
M1_Pos_holes
70
1
0
VERTEX
10
-16.3798
20
-63.3102
0
VERTEX
10
-16.6884
20
-62.6090
0
VERTEX
10
-16.2088
20
-63.2065
0
VERTEX
10
-15.9003
20
-63.9077
0
SEQEND
0
POLYLINE
8
M1_Pos_holes
70
1
0
VERTEX
10
-16.9086
20
-63.5937
0
VERTEX
10
-17.1601
20
-62.8700
0
VERTEX
10
-16.7298
20
-63.5039
0
VERTEX
10
-16.4783
20
-64.2276
0
SEQEND
0
POLYLINE
8
M1_Pos_holes
70
1
0
VERTEX
10
-17.4582
20
-63.8339
0
VERTEX
10
-17.6511
20
-63.0925
0
VERTEX
10
-17.2729
20
-63.7587
0
VERTEX
10
-17.0800
20
-64.5002
0
SEQEND
0
POLYLINE
8
M1_Pos_holes
70
1
0
VERTEX
10
-18.0254
20
-64.0295
0
VERTEX
10
-18.1584
20
-63.2750
0
VERTEX
10
-17.8346
20
-63.9693
0
VERTEX
10
-17.7016
20
-64.7238
0
SEQEND
0
POLYLINE
8
M1_Pos_holes
70
1
0
VERTEX
10
-18.6063
20
-64.1791
0
VERTEX
10
-18.6786
20
-63.4164
0
VERTEX
10
-18.4113
20
-64.1344
0
VERTEX
10
-18.3391
20
-64.8971
0
SEQEND
0
POLYLINE
8
M1_Pos_holes
70
1
0
VERTEX
10
-19.1973
20
-64.2818
0
VERTEX
10
-19.2084
20
-63.5158
0
VERTEX
10
-18.9994
20
-64.2528
0
VERTEX
10
-18.9883
20
-65.0189
0
SEQEND
0
POLYLINE
8
M1_Pos_holes
70
1
0
VERTEX
10
-19.7947
20
-64.3370
0
VERTEX
10
-19.7445
20
-63.5725
0
VERTEX
10
-19.5951
20
-64.3239
0
VERTEX
10
-19.6453
20
-65.0884
0
SEQEND
0
POLYLINE
8
M1_Pos_holes
70
1
0
VERTEX
10
-20.3945
20
-64.3442
0
VERTEX
10
-20.2834
20
-63.5862
0
VERTEX
10
-20.1945
20
-64.3471
0
VERTEX
10
-20.3056
20
-65.1051
0
SEQEND
0
POLYLINE
8
M1_Pos_holes
70
1
0
VERTEX
10
-20.9930
20
-64.3035
0
VERTEX
10
-20.8217
20
-63.5567
0
VERTEX
10
-20.7939
20
-64.3224
0
VERTEX
10
-20.9652
20
-65.0691
0
SEQEND
0
POLYLINE
8
M1_Pos_holes
70
1
0
VERTEX
10
-21.5864
20
-64.2150
0
VERTEX
10
-21.3559
20
-63.4844
0
VERTEX
10
-21.3894
20
-64.2498
0
VERTEX
10
-21.6198
20
-64.9804
0
SEQEND
0
POLYLINE
8
M1_Pos_holes
70
1
0
VERTEX
10
-22.1708
20
-64.0795
0
VERTEX
10
-21.8827
20
-63.3696
0
VERTEX
10
-21.9772
20
-64.1299
0
VERTEX
10
-22.2653
20
-64.8398
0
SEQEND
0
POLYLINE
8
M1_Pos_holes
70
1
0
VERTEX
10
-22.7424
20
-63.8977
0
VERTEX
10
-22.3985
20
-63.2131
0
VERTEX
10
-22.5535
20
-63.9633
0
VERTEX
10
-22.8974
20
-64.6480
0
SEQEND
0
POLYLINE
8
M1_Pos_holes
70
1
0
VERTEX
10
-23.2977
20
-63.6707
0
VERTEX
10
-22.9002
20
-63.0158
0
VERTEX
10
-23.1147
20
-63.7513
0
VERTEX
10
-23.5122
20
-64.4062
0
SEQEND
0
POLYLINE
8
M1_Pos_holes
70
1
0
VERTEX
10
-23.8332
20
-63.4002
0
VERTEX
10
-23.3846
20
-62.7791
0
VERTEX
10
-23.6571
20
-63.4951
0
VERTEX
10
-24.1057
20
-64.1162
0
SEQEND
0
POLYLINE
8
M1_Pos_holes
70
1
0
VERTEX
10
-24.3452
20
-63.0877
0
VERTEX
10
-23.8485
20
-62.5044
0
VERTEX
10
-24.1773
20
-63.1964
0
VERTEX
10
-24.6741
20
-63.7796
0
SEQEND
0
POLYLINE
8
M1_Pos_holes
70
1
0
VERTEX
10
-24.8307
20
-62.7352
0
VERTEX
10
-24.2889
20
-62.1936
0
VERTEX
10
-24.6720
20
-62.8570
0
VERTEX
10
-25.2138
20
-63.3987
0
SEQEND
0
POLYLINE
8
M1_Pos_holes
70
1
0
VERTEX
10
-25.2864
20
-62.3452
0
VERTEX
10
-24.7031
20
-61.8485
0
VERTEX
10
-25.1380
20
-62.4792
0
VERTEX
10
-25.7214
20
-62.9759
0
SEQEND
0
POLYLINE
8
M1_Pos_holes
70
1
0
VERTEX
10
-25.7095
20
-61.9199
0
VERTEX
10
-25.0884
20
-61.4714
0
VERTEX
10
-25.5723
20
-62.0654
0
VERTEX
10
-26.1935
20
-62.5138
0
SEQEND
0
POLYLINE
8
M1_Pos_holes
70
1
0
VERTEX
10
-26.0973
20
-61.4622
0
VERTEX
10
-25.4423
20
-61.0648
0
VERTEX
10
-25.9721
20
-61.6182
0
VERTEX
10
-26.6272
20
-62.0155
0
SEQEND
0
POLYLINE
8
M1_Pos_holes
70
1
0
VERTEX
10
-26.4473
20
-60.9749
0
VERTEX
10
-25.7626
20
-60.6312
0
VERTEX
10
-26.3350
20
-61.1404
0
VERTEX
10
-27.0196
20
-61.4842
0
SEQEND
0
POLYLINE
8
M1_Pos_holes
70
1
0
VERTEX
10
-26.7572
20
-60.4613
0
VERTEX
10
-26.0472
20
-60.1733
0
VERTEX
10
-26.6584
20
-60.6352
0
VERTEX
10
-27.3684
20
-60.9232
0
SEQEND
0
POLYLINE
8
M1_Pos_holes
70
1
0
VERTEX
10
-27.0250
20
-59.9245
0
VERTEX
10
-26.2943
20
-59.6942
0
VERTEX
10
-26.9405
20
-60.1058
0
VERTEX
10
-27.6712
20
-60.3361
0
SEQEND
0
POLYLINE
8
M1_Pos_holes
70
1
0
VERTEX
10
-27.2491
20
-59.3681
0
VERTEX
10
-26.5024
20
-59.1969
0
VERTEX
10
-27.1794
20
-59.5555
0
VERTEX
10
-27.9262
20
-59.7266
0
SEQEND
0
POLYLINE
8
M1_Pos_holes
70
1
0
VERTEX
10
-27.4280
20
-58.7955
0
VERTEX
10
-26.6700
20
-58.6845
0
VERTEX
10
-27.3735
20
-58.9879
0
VERTEX
10
-28.1316
20
-59.0988
0
SEQEND
0
POLYLINE
8
M1_Pos_holes
70
1
0
VERTEX
10
-27.5606
20
-58.2104
0
VERTEX
10
-26.7961
20
-58.1604
0
VERTEX
10
-27.5217
20
-58.4066
0
VERTEX
10
-28.2861
20
-58.4566
0
SEQEND
0
POLYLINE
8
M1_Pos_holes
70
1
0
VERTEX
10
-27.6460
20
-57.6166
0
VERTEX
10
-26.8800
20
-57.6279
0
VERTEX
10
-27.6229
20
-57.8153
0
VERTEX
10
-28.3889
20
-57.8040
0
SEQEND
0
POLYLINE
8
M1_Pos_holes
70
1
0
VERTEX
10
-27.6837
20
-57.0179
0
VERTEX
10
-26.9210
20
-57.0904
0
VERTEX
10
-27.6765
20
-57.2178
0
VERTEX
10
-28.4392
20
-57.1453
0
SEQEND
0
POLYLINE
8
M1_Pos_holes
70
1
0
VERTEX
10
-27.6735
20
-56.4181
0
VERTEX
10
-26.9190
20
-56.5513
0
VERTEX
10
-27.6822
20
-56.6179
0
VERTEX
10
-28.4367
20
-56.4848
0
SEQEND
0
POLYLINE
8
M1_Pos_holes
70
1
0
VERTEX
10
-27.6153
20
-55.8210
0
VERTEX
10
-26.8739
20
-56.0141
0
VERTEX
10
-27.6400
20
-56.0195
0
VERTEX
10
-28.3814
20
-55.8265
0
SEQEND
0
POLYLINE
8
M1_Pos_holes
70
1
0
VERTEX
10
-27.5096
20
-55.2305
0
VERTEX
10
-26.7859
20
-55.4822
0
VERTEX
10
-27.5500
20
-55.4264
0
VERTEX
10
-28.2737
20
-55.1747
0
SEQEND
0
POLYLINE
8
M1_Pos_holes
70
1
0
VERTEX
10
-27.3570
20
-54.6504
0
VERTEX
10
-26.6558
20
-54.9591
0
VERTEX
10
-27.4130
20
-54.8424
0
VERTEX
10
-28.1142
20
-54.5337
0
SEQEND
0
POLYLINE
8
M1_Pos_holes
70
1
0
VERTEX
10
-27.1586
20
-54.0842
0
VERTEX
10
-26.4843
20
-54.4480
0
VERTEX
10
-27.2297
20
-54.2712
0
VERTEX
10
-27.9040
20
-53.9074
0
SEQEND
0
POLYLINE
8
M1_Pos_holes
70
1
0
VERTEX
10
-26.9155
20
-53.5358
0
VERTEX
10
-26.2725
20
-53.9523
0
VERTEX
10
-27.0014
20
-53.7164
0
VERTEX
10
-27.6445
20
-53.3000
0
SEQEND
0
POLYLINE
8
M1_Pos_holes
70
1
0
VERTEX
10
-26.6294
20
-53.0085
0
VERTEX
10
-26.0217
20
-53.4750
0
VERTEX
10
-26.7295
20
-53.1817
0
VERTEX
10
-27.3372
20
-52.7152
0
SEQEND
0
POLYLINE
8
M1_Pos_holes
70
1
0
VERTEX
10
-26.3021
20
-52.5058
0
VERTEX
10
-25.7336
20
-53.0194
0
VERTEX
10
-26.4157
20
-52.6704
0
VERTEX
10
-26.9842
20
-52.1568
0
SEQEND
0
POLYLINE
8
M1_Pos_holes
70
1
0
VERTEX
10
-25.9357
20
-52.0308
0
VERTEX
10
-25.4100
20
-52.5882
0
VERTEX
10
-26.0620
20
-52.1859
0
VERTEX
10
-26.5876
20
-51.6285
0
SEQEND
0
POLYLINE
8
M1_Pos_holes
70
1
0
VERTEX
10
-25.5324
20
-51.5867
0
VERTEX
10
-25.0530
20
-52.1843
0
VERTEX
10
-25.6708
20
-51.7311
0
VERTEX
10
-26.1502
20
-51.1335
0
SEQEND
0
POLYLINE
8
M1_Neg
70
1
0
VERTEX
10
3.4625
20
-40.7000
0
VERTEX
10
3.8375
20
-40.7000
0
VERTEX
10
3.8375
20
-40.6000
0
VERTEX
10
3.4625
20
-40.6000
0
SEQEND
0
POLYLINE
8
M1_Neg
70
1
0
VERTEX
10
-3.8375
20
-40.7000
0
VERTEX
10
-3.4625
20
-40.7000
0
VERTEX
10
-3.4625
20
-40.6000
0
VERTEX
10
-3.8375
20
-40.6000
0
SEQEND
0
POLYLINE
8
M2_undercutMsk
70
1
0
VERTEX
10
-6.5000
20
-47.1500
0
VERTEX
10
6.5000
20
-47.1500
0
VERTEX
10
6.5000
20
-34.1500
0
VERTEX
10
-6.5000
20
-34.1500
0
SEQEND
0
POLYLINE
8
M1_Neg
70
1
0
VERTEX
10
0.1500
20
-27.0000
0
VERTEX
10
0.4000
20
-17.0000
0
VERTEX
10
1.2000
20
-13.5000
0
VERTEX
10
0.4000
20
-10.0000
0
VERTEX
10
0.1410
20
0.0000
0
VERTEX
10
-0.1410
20
0.0000
0
VERTEX
10
-0.4000
20
-10.0000
0
VERTEX
10
-1.2000
20
-13.5000
0
VERTEX
10
-0.4000
20
-17.0000
0
VERTEX
10
-0.1500
20
-27.0000
0
SEQEND
0
POLYLINE
8
M1_Neg
70
1
0
VERTEX
10
13.7500
20
-22.2000
0
VERTEX
10
13.7500
20
-22.3500
0
VERTEX
10
3.7500
20
-22.3500
0
VERTEX
10
3.7500
20
-23.2500
0
VERTEX
10
13.7500
20
-23.2500
0
VERTEX
10
13.7500
20
-23.4000
0
VERTEX
10
14.0500
20
-23.4000
0
VERTEX
10
14.0500
20
-22.9500
0
VERTEX
10
4.0500
20
-22.9500
0
VERTEX
10
4.0500
20
-22.6500
0
VERTEX
10
14.0500
20
-22.6500
0
VERTEX
10
14.0500
20
-22.2000
0
SEQEND
0
POLYLINE
8
M1_Neg
70
1
0
VERTEX
10
13.7500
20
-21.0000
0
VERTEX
10
13.7500
20
-21.1500
0
VERTEX
10
3.7500
20
-21.1500
0
VERTEX
10
3.7500
20
-22.0500
0
VERTEX
10
13.7500
20
-22.0500
0
VERTEX
10
13.7500
20
-22.2000
0
VERTEX
10
14.0500
20
-22.2000
0
VERTEX
10
14.0500
20
-21.7500
0
VERTEX
10
4.0500
20
-21.7500
0
VERTEX
10
4.0500
20
-21.4500
0
VERTEX
10
14.0500
20
-21.4500
0
VERTEX
10
14.0500
20
-21.0000
0
SEQEND
0
POLYLINE
8
M1_Neg
70
1
0
VERTEX
10
13.7500
20
-19.8000
0
VERTEX
10
13.7500
20
-19.9500
0
VERTEX
10
3.7500
20
-19.9500
0
VERTEX
10
3.7500
20
-20.8500
0
VERTEX
10
13.7500
20
-20.8500
0
VERTEX
10
13.7500
20
-21.0000
0
VERTEX
10
14.0500
20
-21.0000
0
VERTEX
10
14.0500
20
-20.5500
0
VERTEX
10
4.0500
20
-20.5500
0
VERTEX
10
4.0500
20
-20.2500
0
VERTEX
10
14.0500
20
-20.2500
0
VERTEX
10
14.0500
20
-19.8000
0
SEQEND
0
POLYLINE
8
M1_Neg
70
1
0
VERTEX
10
13.7500
20
-18.6000
0
VERTEX
10
13.7500
20
-18.7500
0
VERTEX
10
3.7500
20
-18.7500
0
VERTEX
10
3.7500
20
-19.6500
0
VERTEX
10
13.7500
20
-19.6500
0
VERTEX
10
13.7500
20
-19.8000
0
VERTEX
10
14.0500
20
-19.8000
0
VERTEX
10
14.0500
20
-19.3500
0
VERTEX
10
4.0500
20
-19.3500
0
VERTEX
10
4.0500
20
-19.0500
0
VERTEX
10
14.0500
20
-19.0500
0
VERTEX
10
14.0500
20
-18.6000
0
SEQEND
0
POLYLINE
8
M1_Neg
70
1
0
VERTEX
10
13.7500
20
-17.4000
0
VERTEX
10
13.7500
20
-17.5500
0
VERTEX
10
3.7500
20
-17.5500
0
VERTEX
10
3.7500
20
-18.4500
0
VERTEX
10
13.7500
20
-18.4500
0
VERTEX
10
13.7500
20
-18.6000
0
VERTEX
10
14.0500
20
-18.6000
0
VERTEX
10
14.0500
20
-18.1500
0
VERTEX
10
4.0500
20
-18.1500
0
VERTEX
10
4.0500
20
-17.8500
0
VERTEX
10
14.0500
20
-17.8500
0
VERTEX
10
14.0500
20
-17.4000
0
SEQEND
0
POLYLINE
8
M1_Neg
70
1
0
VERTEX
10
13.7500
20
-16.2000
0
VERTEX
10
13.7500
20
-16.3500
0
VERTEX
10
3.7500
20
-16.3500
0
VERTEX
10
3.7500
20
-17.2500
0
VERTEX
10
13.7500
20
-17.2500
0
VERTEX
10
13.7500
20
-17.4000
0
VERTEX
10
14.0500
20
-17.4000
0
VERTEX
10
14.0500
20
-16.9500
0
VERTEX
10
4.0500
20
-16.9500
0
VERTEX
10
4.0500
20
-16.6500
0
VERTEX
10
14.0500
20
-16.6500
0
VERTEX
10
14.0500
20
-16.2000
0
SEQEND
0
POLYLINE
8
M1_Neg
70
1
0
VERTEX
10
13.7500
20
-15.0000
0
VERTEX
10
13.7500
20
-15.1500
0
VERTEX
10
3.7500
20
-15.1500
0
VERTEX
10
3.7500
20
-16.0500
0
VERTEX
10
13.7500
20
-16.0500
0
VERTEX
10
13.7500
20
-16.2000
0
VERTEX
10
14.0500
20
-16.2000
0
VERTEX
10
14.0500
20
-15.7500
0
VERTEX
10
4.0500
20
-15.7500
0
VERTEX
10
4.0500
20
-15.4500
0
VERTEX
10
14.0500
20
-15.4500
0
VERTEX
10
14.0500
20
-15.0000
0
SEQEND
0
POLYLINE
8
M1_Neg
70
1
0
VERTEX
10
13.7500
20
-13.8000
0
VERTEX
10
13.7500
20
-13.9500
0
VERTEX
10
3.7500
20
-13.9500
0
VERTEX
10
3.7500
20
-14.8500
0
VERTEX
10
13.7500
20
-14.8500
0
VERTEX
10
13.7500
20
-15.0000
0
VERTEX
10
14.0500
20
-15.0000
0
VERTEX
10
14.0500
20
-14.5500
0
VERTEX
10
4.0500
20
-14.5500
0
VERTEX
10
4.0500
20
-14.2500
0
VERTEX
10
14.0500
20
-14.2500
0
VERTEX
10
14.0500
20
-13.8000
0
SEQEND
0
POLYLINE
8
M1_Neg
70
1
0
VERTEX
10
3.7500
20
-13.2000
0
VERTEX
10
3.7500
20
-13.6500
0
VERTEX
10
13.7500
20
-13.6500
0
VERTEX
10
13.7500
20
-13.8000
0
VERTEX
10
14.0500
20
-13.8000
0
VERTEX
10
14.0500
20
-13.3500
0
VERTEX
10
4.0500
20
-13.3500
0
VERTEX
10
4.0500
20
-13.2000
0
SEQEND
0
POLYLINE
8
metal
70
1
0
VERTEX
10
13.7500
20
-22.2000
0
VERTEX
10
13.7500
20
-22.3500
0
VERTEX
10
3.7500
20
-22.3500
0
VERTEX
10
3.7500
20
-23.2500
0
VERTEX
10
13.7500
20
-23.2500
0
VERTEX
10
13.7500
20
-23.4000
0
VERTEX
10
13.8500
20
-23.4000
0
VERTEX
10
13.8500
20
-23.1500
0
VERTEX
10
3.8500
20
-23.1500
0
VERTEX
10
3.8500
20
-22.4500
0
VERTEX
10
13.8500
20
-22.4500
0
VERTEX
10
13.8500
20
-22.2000
0
SEQEND
0
POLYLINE
8
metal
70
1
0
VERTEX
10
13.7500
20
-21.0000
0
VERTEX
10
13.7500
20
-21.1500
0
VERTEX
10
3.7500
20
-21.1500
0
VERTEX
10
3.7500
20
-22.0500
0
VERTEX
10
13.7500
20
-22.0500
0
VERTEX
10
13.7500
20
-22.2000
0
VERTEX
10
13.8500
20
-22.2000
0
VERTEX
10
13.8500
20
-21.9500
0
VERTEX
10
3.8500
20
-21.9500
0
VERTEX
10
3.8500
20
-21.2500
0
VERTEX
10
13.8500
20
-21.2500
0
VERTEX
10
13.8500
20
-21.0000
0
SEQEND
0
POLYLINE
8
metal
70
1
0
VERTEX
10
13.7500
20
-19.8000
0
VERTEX
10
13.7500
20
-19.9500
0
VERTEX
10
3.7500
20
-19.9500
0
VERTEX
10
3.7500
20
-20.8500
0
VERTEX
10
13.7500
20
-20.8500
0
VERTEX
10
13.7500
20
-21.0000
0
VERTEX
10
13.8500
20
-21.0000
0
VERTEX
10
13.8500
20
-20.7500
0
VERTEX
10
3.8500
20
-20.7500
0
VERTEX
10
3.8500
20
-20.0500
0
VERTEX
10
13.8500
20
-20.0500
0
VERTEX
10
13.8500
20
-19.8000
0
SEQEND
0
POLYLINE
8
metal
70
1
0
VERTEX
10
13.7500
20
-18.6000
0
VERTEX
10
13.7500
20
-18.7500
0
VERTEX
10
3.7500
20
-18.7500
0
VERTEX
10
3.7500
20
-19.6500
0
VERTEX
10
13.7500
20
-19.6500
0
VERTEX
10
13.7500
20
-19.8000
0
VERTEX
10
13.8500
20
-19.8000
0
VERTEX
10
13.8500
20
-19.5500
0
VERTEX
10
3.8500
20
-19.5500
0
VERTEX
10
3.8500
20
-18.8500
0
VERTEX
10
13.8500
20
-18.8500
0
VERTEX
10
13.8500
20
-18.6000
0
SEQEND
0
POLYLINE
8
metal
70
1
0
VERTEX
10
13.7500
20
-17.4000
0
VERTEX
10
13.7500
20
-17.5500
0
VERTEX
10
3.7500
20
-17.5500
0
VERTEX
10
3.7500
20
-18.4500
0
VERTEX
10
13.7500
20
-18.4500
0
VERTEX
10
13.7500
20
-18.6000
0
VERTEX
10
13.8500
20
-18.6000
0
VERTEX
10
13.8500
20
-18.3500
0
VERTEX
10
3.8500
20
-18.3500
0
VERTEX
10
3.8500
20
-17.6500
0
VERTEX
10
13.8500
20
-17.6500
0
VERTEX
10
13.8500
20
-17.4000
0
SEQEND
0
POLYLINE
8
metal
70
1
0
VERTEX
10
13.7500
20
-16.2000
0
VERTEX
10
13.7500
20
-16.3500
0
VERTEX
10
3.7500
20
-16.3500
0
VERTEX
10
3.7500
20
-17.2500
0
VERTEX
10
13.7500
20
-17.2500
0
VERTEX
10
13.7500
20
-17.4000
0
VERTEX
10
13.8500
20
-17.4000
0
VERTEX
10
13.8500
20
-17.1500
0
VERTEX
10
3.8500
20
-17.1500
0
VERTEX
10
3.8500
20
-16.4500
0
VERTEX
10
13.8500
20
-16.4500
0
VERTEX
10
13.8500
20
-16.2000
0
SEQEND
0
POLYLINE
8
metal
70
1
0
VERTEX
10
13.7500
20
-15.0000
0
VERTEX
10
13.7500
20
-15.1500
0
VERTEX
10
3.7500
20
-15.1500
0
VERTEX
10
3.7500
20
-16.0500
0
VERTEX
10
13.7500
20
-16.0500
0
VERTEX
10
13.7500
20
-16.2000
0
VERTEX
10
13.8500
20
-16.2000
0
VERTEX
10
13.8500
20
-15.9500
0
VERTEX
10
3.8500
20
-15.9500
0
VERTEX
10
3.8500
20
-15.2500
0
VERTEX
10
13.8500
20
-15.2500
0
VERTEX
10
13.8500
20
-15.0000
0
SEQEND
0
POLYLINE
8
metal
70
1
0
VERTEX
10
13.7500
20
-13.8000
0
VERTEX
10
13.7500
20
-13.9500
0
VERTEX
10
3.7500
20
-13.9500
0
VERTEX
10
3.7500
20
-14.8500
0
VERTEX
10
13.7500
20
-14.8500
0
VERTEX
10
13.7500
20
-15.0000
0
VERTEX
10
13.8500
20
-15.0000
0
VERTEX
10
13.8500
20
-14.7500
0
VERTEX
10
3.8500
20
-14.7500
0
VERTEX
10
3.8500
20
-14.0500
0
VERTEX
10
13.8500
20
-14.0500
0
VERTEX
10
13.8500
20
-13.8000
0
SEQEND
0
POLYLINE
8
metal
70
1
0
VERTEX
10
3.7500
20
-13.2000
0
VERTEX
10
3.7500
20
-13.6500
0
VERTEX
10
13.7500
20
-13.6500
0
VERTEX
10
13.7500
20
-13.8000
0
VERTEX
10
13.8500
20
-13.8000
0
VERTEX
10
13.8500
20
-13.5500
0
VERTEX
10
3.8500
20
-13.5500
0
VERTEX
10
3.8500
20
-13.2000
0
SEQEND
0
POLYLINE
8
metal
70
1
0
VERTEX
10
13.9500
20
-22.2000
0
VERTEX
10
13.9500
20
-22.5500
0
VERTEX
10
3.9500
20
-22.5500
0
VERTEX
10
3.9500
20
-23.0500
0
VERTEX
10
13.9500
20
-23.0500
0
VERTEX
10
13.9500
20
-23.4000
0
VERTEX
10
14.0500
20
-23.4000
0
VERTEX
10
14.0500
20
-22.9500
0
VERTEX
10
4.0500
20
-22.9500
0
VERTEX
10
4.0500
20
-22.6500
0
VERTEX
10
14.0500
20
-22.6500
0
VERTEX
10
14.0500
20
-22.2000
0
SEQEND
0
POLYLINE
8
metal
70
1
0
VERTEX
10
13.9500
20
-21.0000
0
VERTEX
10
13.9500
20
-21.3500
0
VERTEX
10
3.9500
20
-21.3500
0
VERTEX
10
3.9500
20
-21.8500
0
VERTEX
10
13.9500
20
-21.8500
0
VERTEX
10
13.9500
20
-22.2000
0
VERTEX
10
14.0500
20
-22.2000
0
VERTEX
10
14.0500
20
-21.7500
0
VERTEX
10
4.0500
20
-21.7500
0
VERTEX
10
4.0500
20
-21.4500
0
VERTEX
10
14.0500
20
-21.4500
0
VERTEX
10
14.0500
20
-21.0000
0
SEQEND
0
POLYLINE
8
metal
70
1
0
VERTEX
10
13.9500
20
-19.8000
0
VERTEX
10
13.9500
20
-20.1500
0
VERTEX
10
3.9500
20
-20.1500
0
VERTEX
10
3.9500
20
-20.6500
0
VERTEX
10
13.9500
20
-20.6500
0
VERTEX
10
13.9500
20
-21.0000
0
VERTEX
10
14.0500
20
-21.0000
0
VERTEX
10
14.0500
20
-20.5500
0
VERTEX
10
4.0500
20
-20.5500
0
VERTEX
10
4.0500
20
-20.2500
0
VERTEX
10
14.0500
20
-20.2500
0
VERTEX
10
14.0500
20
-19.8000
0
SEQEND
0
POLYLINE
8
metal
70
1
0
VERTEX
10
13.9500
20
-18.6000
0
VERTEX
10
13.9500
20
-18.9500
0
VERTEX
10
3.9500
20
-18.9500
0
VERTEX
10
3.9500
20
-19.4500
0
VERTEX
10
13.9500
20
-19.4500
0
VERTEX
10
13.9500
20
-19.8000
0
VERTEX
10
14.0500
20
-19.8000
0
VERTEX
10
14.0500
20
-19.3500
0
VERTEX
10
4.0500
20
-19.3500
0
VERTEX
10
4.0500
20
-19.0500
0
VERTEX
10
14.0500
20
-19.0500
0
VERTEX
10
14.0500
20
-18.6000
0
SEQEND
0
POLYLINE
8
metal
70
1
0
VERTEX
10
13.9500
20
-17.4000
0
VERTEX
10
13.9500
20
-17.7500
0
VERTEX
10
3.9500
20
-17.7500
0
VERTEX
10
3.9500
20
-18.2500
0
VERTEX
10
13.9500
20
-18.2500
0
VERTEX
10
13.9500
20
-18.6000
0
VERTEX
10
14.0500
20
-18.6000
0
VERTEX
10
14.0500
20
-18.1500
0
VERTEX
10
4.0500
20
-18.1500
0
VERTEX
10
4.0500
20
-17.8500
0
VERTEX
10
14.0500
20
-17.8500
0
VERTEX
10
14.0500
20
-17.4000
0
SEQEND
0
POLYLINE
8
metal
70
1
0
VERTEX
10
13.9500
20
-16.2000
0
VERTEX
10
13.9500
20
-16.5500
0
VERTEX
10
3.9500
20
-16.5500
0
VERTEX
10
3.9500
20
-17.0500
0
VERTEX
10
13.9500
20
-17.0500
0
VERTEX
10
13.9500
20
-17.4000
0
VERTEX
10
14.0500
20
-17.4000
0
VERTEX
10
14.0500
20
-16.9500
0
VERTEX
10
4.0500
20
-16.9500
0
VERTEX
10
4.0500
20
-16.6500
0
VERTEX
10
14.0500
20
-16.6500
0
VERTEX
10
14.0500
20
-16.2000
0
SEQEND
0
POLYLINE
8
metal
70
1
0
VERTEX
10
13.9500
20
-15.0000
0
VERTEX
10
13.9500
20
-15.3500
0
VERTEX
10
3.9500
20
-15.3500
0
VERTEX
10
3.9500
20
-15.8500
0
VERTEX
10
13.9500
20
-15.8500
0
VERTEX
10
13.9500
20
-16.2000
0
VERTEX
10
14.0500
20
-16.2000
0
VERTEX
10
14.0500
20
-15.7500
0
VERTEX
10
4.0500
20
-15.7500
0
VERTEX
10
4.0500
20
-15.4500
0
VERTEX
10
14.0500
20
-15.4500
0
VERTEX
10
14.0500
20
-15.0000
0
SEQEND
0
POLYLINE
8
metal
70
1
0
VERTEX
10
13.9500
20
-13.8000
0
VERTEX
10
13.9500
20
-14.1500
0
VERTEX
10
3.9500
20
-14.1500
0
VERTEX
10
3.9500
20
-14.6500
0
VERTEX
10
13.9500
20
-14.6500
0
VERTEX
10
13.9500
20
-15.0000
0
VERTEX
10
14.0500
20
-15.0000
0
VERTEX
10
14.0500
20
-14.5500
0
VERTEX
10
4.0500
20
-14.5500
0
VERTEX
10
4.0500
20
-14.2500
0
VERTEX
10
14.0500
20
-14.2500
0
VERTEX
10
14.0500
20
-13.8000
0
SEQEND
0
POLYLINE
8
metal
70
1
0
VERTEX
10
3.9500
20
-13.2000
0
VERTEX
10
3.9500
20
-13.4500
0
VERTEX
10
13.9500
20
-13.4500
0
VERTEX
10
13.9500
20
-13.8000
0
VERTEX
10
14.0500
20
-13.8000
0
VERTEX
10
14.0500
20
-13.3500
0
VERTEX
10
4.0500
20
-13.3500
0
VERTEX
10
4.0500
20
-13.2000
0
SEQEND
0
POLYLINE
8
M1_Neg
70
1
0
VERTEX
10
13.9311
20
-23.2189
0
VERTEX
10
22.4163
20
-23.2189
0
VERTEX
10
26.6590
20
-27.4616
0
VERTEX
10
17.9616
20
-36.1590
0
VERTEX
10
13.7189
20
-31.9163
0
VERTEX
10
13.7189
20
-23.4311
0
SEQEND
0
POLYLINE
8
cure
70
1
0
VERTEX
10
3.1000
20
-25.3000
0
VERTEX
10
14.7000
20
-25.3000
0
VERTEX
10
14.7000
20
-11.3000
0
VERTEX
10
3.1000
20
-11.3000
0
SEQEND
0
POLYLINE
8
M2_undercutMsk
70
1
0
VERTEX
10
0.1000
20
-25.3000
0
VERTEX
10
17.7000
20
-25.3000
0
VERTEX
10
17.7000
20
-11.3000
0
VERTEX
10
0.1000
20
-11.3000
0
SEQEND
0
CIRCLE
8
M1_LD
10
20.2640
20
-29.7640
40
7.5000
0
SEQEND
0
POLYLINE
8
trash
70
1
0
VERTEX
10
13.7500
20
-23.7000
0
VERTEX
10
13.7500
20
-23.4000
0
VERTEX
10
13.8500
20
-23.4000
0
VERTEX
10
13.8500
20
-23.5500
0
VERTEX
10
18.2500
20
-36.7500
0
VERTEX
10
18.2500
20
-37.0500
0
SEQEND
0
POLYLINE
8
trash
70
1
0
VERTEX
10
16.2500
20
-38.9000
0
VERTEX
10
20.2500
20
-38.9000
0
VERTEX
10
20.2500
20
-34.9000
0
VERTEX
10
16.2500
20
-34.9000
0
SEQEND
0
POLYLINE
8
trash
70
1
0
VERTEX
10
16.2500
20
-38.9000
0
VERTEX
10
20.2500
20
-38.9000
0
VERTEX
10
20.2500
20
-34.9000
0
VERTEX
10
16.2500
20
-34.9000
0
SEQEND
0
POLYLINE
8
trash
70
1
0
VERTEX
10
13.9500
20
-23.2500
0
VERTEX
10
13.9500
20
-23.4000
0
VERTEX
10
14.0500
20
-23.4000
0
VERTEX
10
27.4500
20
-28.0500
0
VERTEX
10
27.4500
20
-27.7500
0
SEQEND
0
POLYLINE
8
trash
70
1
0
VERTEX
10
25.4500
20
-29.9000
0
VERTEX
10
29.4500
20
-29.9000
0
VERTEX
10
29.4500
20
-25.9000
0
VERTEX
10
25.4500
20
-25.9000
0
SEQEND
0
POLYLINE
8
trash
70
1
0
VERTEX
10
25.4500
20
-29.9000
0
VERTEX
10
29.4500
20
-29.9000
0
VERTEX
10
29.4500
20
-25.9000
0
VERTEX
10
25.4500
20
-25.9000
0
SEQEND
0
POLYLINE
8
trash
70
1
0
VERTEX
10
15.0314
20
-35.1380
0
VERTEX
10
15.4978
20
-34.5302
0
VERTEX
10
14.8899
20
-34.9966
0
VERTEX
10
14.4236
20
-35.6044
0
SEQEND
0
POLYLINE
8
trash
70
1
0
VERTEX
10
15.4776
20
-35.5389
0
VERTEX
10
15.8939
20
-34.8958
0
VERTEX
10
15.3253
20
-35.4093
0
VERTEX
10
14.9090
20
-36.0524
0
SEQEND
0
POLYLINE
8
trash
70
1
0
VERTEX
10
15.9544
20
-35.9030
0
VERTEX
10
16.3180
20
-35.2286
0
VERTEX
10
15.7922
20
-35.7859
0
VERTEX
10
15.4286
20
-36.4602
0
SEQEND
0
POLYLINE
8
trash
70
1
0
VERTEX
10
16.4588
20
-36.2277
0
VERTEX
10
16.7673
20
-35.5265
0
VERTEX
10
16.2878
20
-36.1240
0
VERTEX
10
15.9792
20
-36.8252
0
SEQEND
0
POLYLINE
8
trash
70
1
0
VERTEX
10
16.9875
20
-36.5112
0
VERTEX
10
17.2390
20
-35.7875
0
VERTEX
10
16.8088
20
-36.4214
0
VERTEX
10
16.5572
20
-37.1451
0
SEQEND
0
POLYLINE
8
trash
70
1
0
VERTEX
10
17.5372
20
-36.7514
0
VERTEX
10
17.7300
20
-36.0100
0
VERTEX
10
17.3518
20
-36.6762
0
VERTEX
10
17.1590
20
-37.4177
0
SEQEND
0
POLYLINE
8
trash
70
1
0
VERTEX
10
18.1043
20
-36.9470
0
VERTEX
10
18.2373
20
-36.1925
0
VERTEX
10
17.9135
20
-36.8868
0
VERTEX
10
17.7805
20
-37.6413
0
SEQEND
0
POLYLINE
8
trash
70
1
0
VERTEX
10
18.6852
20
-37.0966
0
VERTEX
10
18.7575
20
-36.3339
0
VERTEX
10
18.4903
20
-37.0519
0
VERTEX
10
18.4180
20
-37.8146
0
SEQEND
0
POLYLINE
8
trash
70
1
0
VERTEX
10
19.2763
20
-37.1993
0
VERTEX
10
19.2874
20
-36.4333
0
VERTEX
10
19.0784
20
-37.1703
0
VERTEX
10
19.0673
20
-37.9364
0
SEQEND
0
POLYLINE
8
trash
70
1
0
VERTEX
10
19.8736
20
-37.2545
0
VERTEX
10
19.8235
20
-36.4900
0
VERTEX
10
19.6740
20
-37.2414
0
VERTEX
10
19.7242
20
-38.0059
0
SEQEND
0
POLYLINE
8
trash
70
1
0
VERTEX
10
20.4735
20
-37.2617
0
VERTEX
10
20.3624
20
-36.5037
0
VERTEX
10
20.2735
20
-37.2646
0
VERTEX
10
20.3846
20
-38.0227
0
SEQEND
0
POLYLINE
8
trash
70
1
0
VERTEX
10
21.0720
20
-37.2210
0
VERTEX
10
20.9007
20
-36.4742
0
VERTEX
10
20.8729
20
-37.2399
0
VERTEX
10
21.0442
20
-37.9866
0
SEQEND
0
POLYLINE
8
trash
70
1
0
VERTEX
10
21.6653
20
-37.1326
0
VERTEX
10
21.4349
20
-36.4019
0
VERTEX
10
21.4684
20
-37.1673
0
VERTEX
10
21.6988
20
-37.8980
0
SEQEND
0
POLYLINE
8
trash
70
1
0
VERTEX
10
22.2497
20
-36.9970
0
VERTEX
10
21.9616
20
-36.2871
0
VERTEX
10
22.0561
20
-37.0474
0
VERTEX
10
22.3442
20
-37.7573
0
SEQEND
0
POLYLINE
8
trash
70
1
0
VERTEX
10
22.8214
20
-36.8152
0
VERTEX
10
22.4775
20
-36.1306
0
VERTEX
10
22.6325
20
-36.8809
0
VERTEX
10
22.9763
20
-37.5655
0
SEQEND
0
POLYLINE
8
trash
70
1
0
VERTEX
10
23.3767
20
-36.5883
0
VERTEX
10
22.9792
20
-35.9333
0
VERTEX
10
23.1936
20
-36.6688
0
VERTEX
10
23.5911
20
-37.3238
0
SEQEND
0
POLYLINE
8
trash
70
1
0
VERTEX
10
23.9121
20
-36.3177
0
VERTEX
10
23.4635
20
-35.6966
0
VERTEX
10
23.7361
20
-36.4126
0
VERTEX
10
24.1846
20
-37.0337
0
SEQEND
0
POLYLINE
8
trash
70
1
0
VERTEX
10
24.4242
20
-36.0052
0
VERTEX
10
23.9274
20
-35.4219
0
VERTEX
10
24.2563
20
-36.1139
0
VERTEX
10
24.7530
20
-36.6971
0
SEQEND
0
POLYLINE
8
trash
70
1
0
VERTEX
10
24.9096
20
-35.6528
0
VERTEX
10
24.3678
20
-35.1111
0
VERTEX
10
24.7510
20
-35.7745
0
VERTEX
10
25.2927
20
-36.3162
0
SEQEND
0
POLYLINE
8
trash
70
1
0
VERTEX
10
25.3654
20
-35.2627
0
VERTEX
10
24.7820
20
-34.7660
0
VERTEX
10
25.2169
20
-35.3967
0
VERTEX
10
25.8003
20
-35.8934
0
SEQEND
0
POLYLINE
8
trash
70
1
0
VERTEX
10
25.7885
20
-34.8374
0
VERTEX
10
25.1673
20
-34.3890
0
VERTEX
10
25.6512
20
-34.9829
0
VERTEX
10
26.2724
20
-35.4313
0
SEQEND
0
POLYLINE
8
trash
70
1
0
VERTEX
10
26.1762
20
-34.3797
0
VERTEX
10
25.5212
20
-33.9823
0
VERTEX
10
26.0511
20
-34.5357
0
VERTEX
10
26.7061
20
-34.9330
0
SEQEND
0
POLYLINE
8
trash
70
1
0
VERTEX
10
26.5262
20
-33.8924
0
VERTEX
10
25.8415
20
-33.5487
0
VERTEX
10
26.4139
20
-34.0579
0
VERTEX
10
27.0986
20
-34.4017
0
SEQEND
0
POLYLINE
8
trash
70
1
0
VERTEX
10
26.8361
20
-33.3788
0
VERTEX
10
26.1261
20
-33.0909
0
VERTEX
10
26.7374
20
-33.5527
0
VERTEX
10
27.4473
20
-33.8407
0
SEQEND
0
POLYLINE
8
trash
70
1
0
VERTEX
10
27.1040
20
-32.8420
0
VERTEX
10
26.3733
20
-32.6117
0
VERTEX
10
27.0195
20
-33.0233
0
VERTEX
10
27.7502
20
-33.2536
0
SEQEND
0
POLYLINE
8
trash
70
1
0
VERTEX
10
27.3281
20
-32.2856
0
VERTEX
10
26.5813
20
-32.1144
0
VERTEX
10
27.2583
20
-32.4730
0
VERTEX
10
28.0051
20
-32.6442
0
SEQEND
0
POLYLINE
8
trash
70
1
0
VERTEX
10
27.5070
20
-31.7130
0
VERTEX
10
26.7489
20
-31.6021
0
VERTEX
10
27.4524
20
-31.9054
0
VERTEX
10
28.2105
20
-32.0163
0
SEQEND
0
POLYLINE
8
trash
70
1
0
VERTEX
10
27.6396
20
-31.1279
0
VERTEX
10
26.8751
20
-31.0779
0
VERTEX
10
27.6006
20
-31.3241
0
VERTEX
10
28.3651
20
-31.3741
0
SEQEND
0
POLYLINE
8
trash
70
1
0
VERTEX
10
27.7250
20
-30.5341
0
VERTEX
10
26.9589
20
-30.5454
0
VERTEX
10
27.7018
20
-30.7328
0
VERTEX
10
28.4678
20
-30.7215
0
SEQEND
0
POLYLINE
8
trash
70
1
0
VERTEX
10
27.7627
20
-29.9354
0
VERTEX
10
27.0000
20
-30.0079
0
VERTEX
10
27.7554
20
-30.1353
0
VERTEX
10
28.5181
20
-30.0628
0
SEQEND
0
POLYLINE
8
trash
70
1
0
VERTEX
10
27.7524
20
-29.3356
0
VERTEX
10
26.9979
20
-29.4688
0
VERTEX
10
27.7611
20
-29.5354
0
VERTEX
10
28.5156
20
-29.4023
0
SEQEND
0
POLYLINE
8
trash
70
1
0
VERTEX
10
27.6942
20
-28.7386
0
VERTEX
10
26.9528
20
-28.9316
0
VERTEX
10
27.7189
20
-28.9370
0
VERTEX
10
28.4603
20
-28.7440
0
SEQEND
0
POLYLINE
8
trash
70
1
0
VERTEX
10
27.5885
20
-28.1480
0
VERTEX
10
26.8649
20
-28.3997
0
VERTEX
10
27.6290
20
-28.3439
0
VERTEX
10
28.3526
20
-28.0922
0
SEQEND
0
POLYLINE
8
trash
70
1
0
VERTEX
10
27.4359
20
-27.5679
0
VERTEX
10
26.7347
20
-27.8766
0
VERTEX
10
27.4919
20
-27.7599
0
VERTEX
10
28.1931
20
-27.4512
0
SEQEND
0
POLYLINE
8
trash
70
1
0
VERTEX
10
27.2375
20
-27.0018
0
VERTEX
10
26.5632
20
-27.3655
0
VERTEX
10
27.3087
20
-27.1887
0
VERTEX
10
27.9829
20
-26.8249
0
SEQEND
0
POLYLINE
8
trash
70
1
0
VERTEX
10
26.9945
20
-26.4533
0
VERTEX
10
26.3514
20
-26.8698
0
VERTEX
10
27.0803
20
-26.6339
0
VERTEX
10
27.7234
20
-26.2175
0
SEQEND
0
POLYLINE
8
trash
70
1
0
VERTEX
10
26.7084
20
-25.9260
0
VERTEX
10
26.1006
20
-26.3925
0
VERTEX
10
26.8084
20
-26.0992
0
VERTEX
10
27.4161
20
-25.6327
0
SEQEND
0
POLYLINE
8
trash
70
1
0
VERTEX
10
26.3810
20
-25.4233
0
VERTEX
10
25.8125
20
-25.9369
0
VERTEX
10
26.4946
20
-25.5879
0
VERTEX
10
27.0631
20
-25.0743
0
SEQEND
0
POLYLINE
8
trash
70
1
0
VERTEX
10
26.0146
20
-24.9483
0
VERTEX
10
25.4890
20
-25.5057
0
VERTEX
10
26.1409
20
-25.1034
0
VERTEX
10
26.6666
20
-24.5460
0
SEQEND
0
POLYLINE
8
trash
70
1
0
VERTEX
10
25.6114
20
-24.5042
0
VERTEX
10
25.1320
20
-25.1018
0
VERTEX
10
25.7497
20
-24.6486
0
VERTEX
10
26.2291
20
-24.0510
0
SEQEND
0
POLYLINE
8
M1_Neg
70
1
0
VERTEX
10
-13.7500
20
-22.2000
0
VERTEX
10
-13.7500
20
-22.3500
0
VERTEX
10
-3.7500
20
-22.3500
0
VERTEX
10
-3.7500
20
-23.2500
0
VERTEX
10
-13.7500
20
-23.2500
0
VERTEX
10
-13.7500
20
-23.4000
0
VERTEX
10
-14.0500
20
-23.4000
0
VERTEX
10
-14.0500
20
-22.9500
0
VERTEX
10
-4.0500
20
-22.9500
0
VERTEX
10
-4.0500
20
-22.6500
0
VERTEX
10
-14.0500
20
-22.6500
0
VERTEX
10
-14.0500
20
-22.2000
0
SEQEND
0
POLYLINE
8
M1_Neg
70
1
0
VERTEX
10
-13.7500
20
-21.0000
0
VERTEX
10
-13.7500
20
-21.1500
0
VERTEX
10
-3.7500
20
-21.1500
0
VERTEX
10
-3.7500
20
-22.0500
0
VERTEX
10
-13.7500
20
-22.0500
0
VERTEX
10
-13.7500
20
-22.2000
0
VERTEX
10
-14.0500
20
-22.2000
0
VERTEX
10
-14.0500
20
-21.7500
0
VERTEX
10
-4.0500
20
-21.7500
0
VERTEX
10
-4.0500
20
-21.4500
0
VERTEX
10
-14.0500
20
-21.4500
0
VERTEX
10
-14.0500
20
-21.0000
0
SEQEND
0
POLYLINE
8
M1_Neg
70
1
0
VERTEX
10
-13.7500
20
-19.8000
0
VERTEX
10
-13.7500
20
-19.9500
0
VERTEX
10
-3.7500
20
-19.9500
0
VERTEX
10
-3.7500
20
-20.8500
0
VERTEX
10
-13.7500
20
-20.8500
0
VERTEX
10
-13.7500
20
-21.0000
0
VERTEX
10
-14.0500
20
-21.0000
0
VERTEX
10
-14.0500
20
-20.5500
0
VERTEX
10
-4.0500
20
-20.5500
0
VERTEX
10
-4.0500
20
-20.2500
0
VERTEX
10
-14.0500
20
-20.2500
0
VERTEX
10
-14.0500
20
-19.8000
0
SEQEND
0
POLYLINE
8
M1_Neg
70
1
0
VERTEX
10
-13.7500
20
-18.6000
0
VERTEX
10
-13.7500
20
-18.7500
0
VERTEX
10
-3.7500
20
-18.7500
0
VERTEX
10
-3.7500
20
-19.6500
0
VERTEX
10
-13.7500
20
-19.6500
0
VERTEX
10
-13.7500
20
-19.8000
0
VERTEX
10
-14.0500
20
-19.8000
0
VERTEX
10
-14.0500
20
-19.3500
0
VERTEX
10
-4.0500
20
-19.3500
0
VERTEX
10
-4.0500
20
-19.0500
0
VERTEX
10
-14.0500
20
-19.0500
0
VERTEX
10
-14.0500
20
-18.6000
0
SEQEND
0
POLYLINE
8
M1_Neg
70
1
0
VERTEX
10
-13.7500
20
-17.4000
0
VERTEX
10
-13.7500
20
-17.5500
0
VERTEX
10
-3.7500
20
-17.5500
0
VERTEX
10
-3.7500
20
-18.4500
0
VERTEX
10
-13.7500
20
-18.4500
0
VERTEX
10
-13.7500
20
-18.6000
0
VERTEX
10
-14.0500
20
-18.6000
0
VERTEX
10
-14.0500
20
-18.1500
0
VERTEX
10
-4.0500
20
-18.1500
0
VERTEX
10
-4.0500
20
-17.8500
0
VERTEX
10
-14.0500
20
-17.8500
0
VERTEX
10
-14.0500
20
-17.4000
0
SEQEND
0
POLYLINE
8
M1_Neg
70
1
0
VERTEX
10
-13.7500
20
-16.2000
0
VERTEX
10
-13.7500
20
-16.3500
0
VERTEX
10
-3.7500
20
-16.3500
0
VERTEX
10
-3.7500
20
-17.2500
0
VERTEX
10
-13.7500
20
-17.2500
0
VERTEX
10
-13.7500
20
-17.4000
0
VERTEX
10
-14.0500
20
-17.4000
0
VERTEX
10
-14.0500
20
-16.9500
0
VERTEX
10
-4.0500
20
-16.9500
0
VERTEX
10
-4.0500
20
-16.6500
0
VERTEX
10
-14.0500
20
-16.6500
0
VERTEX
10
-14.0500
20
-16.2000
0
SEQEND
0
POLYLINE
8
M1_Neg
70
1
0
VERTEX
10
-13.7500
20
-15.0000
0
VERTEX
10
-13.7500
20
-15.1500
0
VERTEX
10
-3.7500
20
-15.1500
0
VERTEX
10
-3.7500
20
-16.0500
0
VERTEX
10
-13.7500
20
-16.0500
0
VERTEX
10
-13.7500
20
-16.2000
0
VERTEX
10
-14.0500
20
-16.2000
0
VERTEX
10
-14.0500
20
-15.7500
0
VERTEX
10
-4.0500
20
-15.7500
0
VERTEX
10
-4.0500
20
-15.4500
0
VERTEX
10
-14.0500
20
-15.4500
0
VERTEX
10
-14.0500
20
-15.0000
0
SEQEND
0
POLYLINE
8
M1_Neg
70
1
0
VERTEX
10
-13.7500
20
-13.8000
0
VERTEX
10
-13.7500
20
-13.9500
0
VERTEX
10
-3.7500
20
-13.9500
0
VERTEX
10
-3.7500
20
-14.8500
0
VERTEX
10
-13.7500
20
-14.8500
0
VERTEX
10
-13.7500
20
-15.0000
0
VERTEX
10
-14.0500
20
-15.0000
0
VERTEX
10
-14.0500
20
-14.5500
0
VERTEX
10
-4.0500
20
-14.5500
0
VERTEX
10
-4.0500
20
-14.2500
0
VERTEX
10
-14.0500
20
-14.2500
0
VERTEX
10
-14.0500
20
-13.8000
0
SEQEND
0
POLYLINE
8
M1_Neg
70
1
0
VERTEX
10
-3.7500
20
-13.2000
0
VERTEX
10
-3.7500
20
-13.6500
0
VERTEX
10
-13.7500
20
-13.6500
0
VERTEX
10
-13.7500
20
-13.8000
0
VERTEX
10
-14.0500
20
-13.8000
0
VERTEX
10
-14.0500
20
-13.3500
0
VERTEX
10
-4.0500
20
-13.3500
0
VERTEX
10
-4.0500
20
-13.2000
0
SEQEND
0
POLYLINE
8
metal
70
1
0
VERTEX
10
-13.7500
20
-22.2000
0
VERTEX
10
-13.7500
20
-22.3500
0
VERTEX
10
-3.7500
20
-22.3500
0
VERTEX
10
-3.7500
20
-23.2500
0
VERTEX
10
-13.7500
20
-23.2500
0
VERTEX
10
-13.7500
20
-23.4000
0
VERTEX
10
-13.8500
20
-23.4000
0
VERTEX
10
-13.8500
20
-23.1500
0
VERTEX
10
-3.8500
20
-23.1500
0
VERTEX
10
-3.8500
20
-22.4500
0
VERTEX
10
-13.8500
20
-22.4500
0
VERTEX
10
-13.8500
20
-22.2000
0
SEQEND
0
POLYLINE
8
metal
70
1
0
VERTEX
10
-13.7500
20
-21.0000
0
VERTEX
10
-13.7500
20
-21.1500
0
VERTEX
10
-3.7500
20
-21.1500
0
VERTEX
10
-3.7500
20
-22.0500
0
VERTEX
10
-13.7500
20
-22.0500
0
VERTEX
10
-13.7500
20
-22.2000
0
VERTEX
10
-13.8500
20
-22.2000
0
VERTEX
10
-13.8500
20
-21.9500
0
VERTEX
10
-3.8500
20
-21.9500
0
VERTEX
10
-3.8500
20
-21.2500
0
VERTEX
10
-13.8500
20
-21.2500
0
VERTEX
10
-13.8500
20
-21.0000
0
SEQEND
0
POLYLINE
8
metal
70
1
0
VERTEX
10
-13.7500
20
-19.8000
0
VERTEX
10
-13.7500
20
-19.9500
0
VERTEX
10
-3.7500
20
-19.9500
0
VERTEX
10
-3.7500
20
-20.8500
0
VERTEX
10
-13.7500
20
-20.8500
0
VERTEX
10
-13.7500
20
-21.0000
0
VERTEX
10
-13.8500
20
-21.0000
0
VERTEX
10
-13.8500
20
-20.7500
0
VERTEX
10
-3.8500
20
-20.7500
0
VERTEX
10
-3.8500
20
-20.0500
0
VERTEX
10
-13.8500
20
-20.0500
0
VERTEX
10
-13.8500
20
-19.8000
0
SEQEND
0
POLYLINE
8
metal
70
1
0
VERTEX
10
-13.7500
20
-18.6000
0
VERTEX
10
-13.7500
20
-18.7500
0
VERTEX
10
-3.7500
20
-18.7500
0
VERTEX
10
-3.7500
20
-19.6500
0
VERTEX
10
-13.7500
20
-19.6500
0
VERTEX
10
-13.7500
20
-19.8000
0
VERTEX
10
-13.8500
20
-19.8000
0
VERTEX
10
-13.8500
20
-19.5500
0
VERTEX
10
-3.8500
20
-19.5500
0
VERTEX
10
-3.8500
20
-18.8500
0
VERTEX
10
-13.8500
20
-18.8500
0
VERTEX
10
-13.8500
20
-18.6000
0
SEQEND
0
POLYLINE
8
metal
70
1
0
VERTEX
10
-13.7500
20
-17.4000
0
VERTEX
10
-13.7500
20
-17.5500
0
VERTEX
10
-3.7500
20
-17.5500
0
VERTEX
10
-3.7500
20
-18.4500
0
VERTEX
10
-13.7500
20
-18.4500
0
VERTEX
10
-13.7500
20
-18.6000
0
VERTEX
10
-13.8500
20
-18.6000
0
VERTEX
10
-13.8500
20
-18.3500
0
VERTEX
10
-3.8500
20
-18.3500
0
VERTEX
10
-3.8500
20
-17.6500
0
VERTEX
10
-13.8500
20
-17.6500
0
VERTEX
10
-13.8500
20
-17.4000
0
SEQEND
0
POLYLINE
8
metal
70
1
0
VERTEX
10
-13.7500
20
-16.2000
0
VERTEX
10
-13.7500
20
-16.3500
0
VERTEX
10
-3.7500
20
-16.3500
0
VERTEX
10
-3.7500
20
-17.2500
0
VERTEX
10
-13.7500
20
-17.2500
0
VERTEX
10
-13.7500
20
-17.4000
0
VERTEX
10
-13.8500
20
-17.4000
0
VERTEX
10
-13.8500
20
-17.1500
0
VERTEX
10
-3.8500
20
-17.1500
0
VERTEX
10
-3.8500
20
-16.4500
0
VERTEX
10
-13.8500
20
-16.4500
0
VERTEX
10
-13.8500
20
-16.2000
0
SEQEND
0
POLYLINE
8
metal
70
1
0
VERTEX
10
-13.7500
20
-15.0000
0
VERTEX
10
-13.7500
20
-15.1500
0
VERTEX
10
-3.7500
20
-15.1500
0
VERTEX
10
-3.7500
20
-16.0500
0
VERTEX
10
-13.7500
20
-16.0500
0
VERTEX
10
-13.7500
20
-16.2000
0
VERTEX
10
-13.8500
20
-16.2000
0
VERTEX
10
-13.8500
20
-15.9500
0
VERTEX
10
-3.8500
20
-15.9500
0
VERTEX
10
-3.8500
20
-15.2500
0
VERTEX
10
-13.8500
20
-15.2500
0
VERTEX
10
-13.8500
20
-15.0000
0
SEQEND
0
POLYLINE
8
metal
70
1
0
VERTEX
10
-13.7500
20
-13.8000
0
VERTEX
10
-13.7500
20
-13.9500
0
VERTEX
10
-3.7500
20
-13.9500
0
VERTEX
10
-3.7500
20
-14.8500
0
VERTEX
10
-13.7500
20
-14.8500
0
VERTEX
10
-13.7500
20
-15.0000
0
VERTEX
10
-13.8500
20
-15.0000
0
VERTEX
10
-13.8500
20
-14.7500
0
VERTEX
10
-3.8500
20
-14.7500
0
VERTEX
10
-3.8500
20
-14.0500
0
VERTEX
10
-13.8500
20
-14.0500
0
VERTEX
10
-13.8500
20
-13.8000
0
SEQEND
0
POLYLINE
8
metal
70
1
0
VERTEX
10
-3.7500
20
-13.2000
0
VERTEX
10
-3.7500
20
-13.6500
0
VERTEX
10
-13.7500
20
-13.6500
0
VERTEX
10
-13.7500
20
-13.8000
0
VERTEX
10
-13.8500
20
-13.8000
0
VERTEX
10
-13.8500
20
-13.5500
0
VERTEX
10
-3.8500
20
-13.5500
0
VERTEX
10
-3.8500
20
-13.2000
0
SEQEND
0
POLYLINE
8
metal
70
1
0
VERTEX
10
-13.9500
20
-22.2000
0
VERTEX
10
-13.9500
20
-22.5500
0
VERTEX
10
-3.9500
20
-22.5500
0
VERTEX
10
-3.9500
20
-23.0500
0
VERTEX
10
-13.9500
20
-23.0500
0
VERTEX
10
-13.9500
20
-23.4000
0
VERTEX
10
-14.0500
20
-23.4000
0
VERTEX
10
-14.0500
20
-22.9500
0
VERTEX
10
-4.0500
20
-22.9500
0
VERTEX
10
-4.0500
20
-22.6500
0
VERTEX
10
-14.0500
20
-22.6500
0
VERTEX
10
-14.0500
20
-22.2000
0
SEQEND
0
POLYLINE
8
metal
70
1
0
VERTEX
10
-13.9500
20
-21.0000
0
VERTEX
10
-13.9500
20
-21.3500
0
VERTEX
10
-3.9500
20
-21.3500
0
VERTEX
10
-3.9500
20
-21.8500
0
VERTEX
10
-13.9500
20
-21.8500
0
VERTEX
10
-13.9500
20
-22.2000
0
VERTEX
10
-14.0500
20
-22.2000
0
VERTEX
10
-14.0500
20
-21.7500
0
VERTEX
10
-4.0500
20
-21.7500
0
VERTEX
10
-4.0500
20
-21.4500
0
VERTEX
10
-14.0500
20
-21.4500
0
VERTEX
10
-14.0500
20
-21.0000
0
SEQEND
0
POLYLINE
8
metal
70
1
0
VERTEX
10
-13.9500
20
-19.8000
0
VERTEX
10
-13.9500
20
-20.1500
0
VERTEX
10
-3.9500
20
-20.1500
0
VERTEX
10
-3.9500
20
-20.6500
0
VERTEX
10
-13.9500
20
-20.6500
0
VERTEX
10
-13.9500
20
-21.0000
0
VERTEX
10
-14.0500
20
-21.0000
0
VERTEX
10
-14.0500
20
-20.5500
0
VERTEX
10
-4.0500
20
-20.5500
0
VERTEX
10
-4.0500
20
-20.2500
0
VERTEX
10
-14.0500
20
-20.2500
0
VERTEX
10
-14.0500
20
-19.8000
0
SEQEND
0
POLYLINE
8
metal
70
1
0
VERTEX
10
-13.9500
20
-18.6000
0
VERTEX
10
-13.9500
20
-18.9500
0
VERTEX
10
-3.9500
20
-18.9500
0
VERTEX
10
-3.9500
20
-19.4500
0
VERTEX
10
-13.9500
20
-19.4500
0
VERTEX
10
-13.9500
20
-19.8000
0
VERTEX
10
-14.0500
20
-19.8000
0
VERTEX
10
-14.0500
20
-19.3500
0
VERTEX
10
-4.0500
20
-19.3500
0
VERTEX
10
-4.0500
20
-19.0500
0
VERTEX
10
-14.0500
20
-19.0500
0
VERTEX
10
-14.0500
20
-18.6000
0
SEQEND
0
POLYLINE
8
metal
70
1
0
VERTEX
10
-13.9500
20
-17.4000
0
VERTEX
10
-13.9500
20
-17.7500
0
VERTEX
10
-3.9500
20
-17.7500
0
VERTEX
10
-3.9500
20
-18.2500
0
VERTEX
10
-13.9500
20
-18.2500
0
VERTEX
10
-13.9500
20
-18.6000
0
VERTEX
10
-14.0500
20
-18.6000
0
VERTEX
10
-14.0500
20
-18.1500
0
VERTEX
10
-4.0500
20
-18.1500
0
VERTEX
10
-4.0500
20
-17.8500
0
VERTEX
10
-14.0500
20
-17.8500
0
VERTEX
10
-14.0500
20
-17.4000
0
SEQEND
0
POLYLINE
8
metal
70
1
0
VERTEX
10
-13.9500
20
-16.2000
0
VERTEX
10
-13.9500
20
-16.5500
0
VERTEX
10
-3.9500
20
-16.5500
0
VERTEX
10
-3.9500
20
-17.0500
0
VERTEX
10
-13.9500
20
-17.0500
0
VERTEX
10
-13.9500
20
-17.4000
0
VERTEX
10
-14.0500
20
-17.4000
0
VERTEX
10
-14.0500
20
-16.9500
0
VERTEX
10
-4.0500
20
-16.9500
0
VERTEX
10
-4.0500
20
-16.6500
0
VERTEX
10
-14.0500
20
-16.6500
0
VERTEX
10
-14.0500
20
-16.2000
0
SEQEND
0
POLYLINE
8
metal
70
1
0
VERTEX
10
-13.9500
20
-15.0000
0
VERTEX
10
-13.9500
20
-15.3500
0
VERTEX
10
-3.9500
20
-15.3500
0
VERTEX
10
-3.9500
20
-15.8500
0
VERTEX
10
-13.9500
20
-15.8500
0
VERTEX
10
-13.9500
20
-16.2000
0
VERTEX
10
-14.0500
20
-16.2000
0
VERTEX
10
-14.0500
20
-15.7500
0
VERTEX
10
-4.0500
20
-15.7500
0
VERTEX
10
-4.0500
20
-15.4500
0
VERTEX
10
-14.0500
20
-15.4500
0
VERTEX
10
-14.0500
20
-15.0000
0
SEQEND
0
POLYLINE
8
metal
70
1
0
VERTEX
10
-13.9500
20
-13.8000
0
VERTEX
10
-13.9500
20
-14.1500
0
VERTEX
10
-3.9500
20
-14.1500
0
VERTEX
10
-3.9500
20
-14.6500
0
VERTEX
10
-13.9500
20
-14.6500
0
VERTEX
10
-13.9500
20
-15.0000
0
VERTEX
10
-14.0500
20
-15.0000
0
VERTEX
10
-14.0500
20
-14.5500
0
VERTEX
10
-4.0500
20
-14.5500
0
VERTEX
10
-4.0500
20
-14.2500
0
VERTEX
10
-14.0500
20
-14.2500
0
VERTEX
10
-14.0500
20
-13.8000
0
SEQEND
0
POLYLINE
8
metal
70
1
0
VERTEX
10
-3.9500
20
-13.2000
0
VERTEX
10
-3.9500
20
-13.4500
0
VERTEX
10
-13.9500
20
-13.4500
0
VERTEX
10
-13.9500
20
-13.8000
0
VERTEX
10
-14.0500
20
-13.8000
0
VERTEX
10
-14.0500
20
-13.3500
0
VERTEX
10
-4.0500
20
-13.3500
0
VERTEX
10
-4.0500
20
-13.2000
0
SEQEND
0
POLYLINE
8
M1_Neg
70
1
0
VERTEX
10
-13.9311
20
-23.2189
0
VERTEX
10
-22.4163
20
-23.2189
0
VERTEX
10
-26.6590
20
-27.4616
0
VERTEX
10
-17.9616
20
-36.1590
0
VERTEX
10
-13.7189
20
-31.9163
0
VERTEX
10
-13.7189
20
-23.4311
0
SEQEND
0
POLYLINE
8
cure
70
1
0
VERTEX
10
-3.1000
20
-11.3000
0
VERTEX
10
-14.7000
20
-11.3000
0
VERTEX
10
-14.7000
20
-25.3000
0
VERTEX
10
-3.1000
20
-25.3000
0
SEQEND
0
POLYLINE
8
M2_undercutMsk
70
1
0
VERTEX
10
-0.1000
20
-11.3000
0
VERTEX
10
-17.7000
20
-11.3000
0
VERTEX
10
-17.7000
20
-25.3000
0
VERTEX
10
-0.1000
20
-25.3000
0
SEQEND
0
CIRCLE
8
M1_LD
10
-20.2640
20
-29.7640
40
7.5000
0
SEQEND
0
POLYLINE
8
trash
70
1
0
VERTEX
10
-13.7500
20
-23.7000
0
VERTEX
10
-13.7500
20
-23.4000
0
VERTEX
10
-13.8500
20
-23.4000
0
VERTEX
10
-13.8500
20
-23.5500
0
VERTEX
10
-18.2500
20
-36.7500
0
VERTEX
10
-18.2500
20
-37.0500
0
SEQEND
0
POLYLINE
8
trash
70
1
0
VERTEX
10
-16.2500
20
-34.9000
0
VERTEX
10
-20.2500
20
-34.9000
0
VERTEX
10
-20.2500
20
-38.9000
0
VERTEX
10
-16.2500
20
-38.9000
0
SEQEND
0
POLYLINE
8
trash
70
1
0
VERTEX
10
-16.2500
20
-34.9000
0
VERTEX
10
-20.2500
20
-34.9000
0
VERTEX
10
-20.2500
20
-38.9000
0
VERTEX
10
-16.2500
20
-38.9000
0
SEQEND
0
POLYLINE
8
trash
70
1
0
VERTEX
10
-13.9500
20
-23.2500
0
VERTEX
10
-13.9500
20
-23.4000
0
VERTEX
10
-14.0500
20
-23.4000
0
VERTEX
10
-27.4500
20
-28.0500
0
VERTEX
10
-27.4500
20
-27.7500
0
SEQEND
0
POLYLINE
8
trash
70
1
0
VERTEX
10
-25.4500
20
-25.9000
0
VERTEX
10
-29.4500
20
-25.9000
0
VERTEX
10
-29.4500
20
-29.9000
0
VERTEX
10
-25.4500
20
-29.9000
0
SEQEND
0
POLYLINE
8
trash
70
1
0
VERTEX
10
-25.4500
20
-25.9000
0
VERTEX
10
-29.4500
20
-25.9000
0
VERTEX
10
-29.4500
20
-29.9000
0
VERTEX
10
-25.4500
20
-29.9000
0
SEQEND
0
POLYLINE
8
trash
70
1
0
VERTEX
10
-14.9524
20
-35.0705
0
VERTEX
10
-15.4188
20
-34.4627
0
VERTEX
10
-14.8110
20
-34.9290
0
VERTEX
10
-14.3446
20
-35.5369
0
SEQEND
0
POLYLINE
8
trash
70
1
0
VERTEX
10
-15.3986
20
-35.4714
0
VERTEX
10
-15.8150
20
-34.8283
0
VERTEX
10
-15.2464
20
-35.3418
0
VERTEX
10
-14.8300
20
-35.9849
0
SEQEND
0
POLYLINE
8
trash
70
1
0
VERTEX
10
-15.8755
20
-35.8355
0
VERTEX
10
-16.2390
20
-35.1611
0
VERTEX
10
-15.7133
20
-35.7184
0
VERTEX
10
-15.3497
20
-36.3927
0
SEQEND
0
POLYLINE
8
trash
70
1
0
VERTEX
10
-16.3798
20
-36.1602
0
VERTEX
10
-16.6884
20
-35.4590
0
VERTEX
10
-16.2088
20
-36.0565
0
VERTEX
10
-15.9003
20
-36.7577
0
SEQEND
0
POLYLINE
8
trash
70
1
0
VERTEX
10
-16.9086
20
-36.4437
0
VERTEX
10
-17.1601
20
-35.7200
0
VERTEX
10
-16.7298
20
-36.3539
0
VERTEX
10
-16.4783
20
-37.0776
0
SEQEND
0
POLYLINE
8
trash
70
1
0
VERTEX
10
-17.4582
20
-36.6839
0
VERTEX
10
-17.6511
20
-35.9425
0
VERTEX
10
-17.2729
20
-36.6087
0
VERTEX
10
-17.0800
20
-37.3502
0
SEQEND
0
POLYLINE
8
trash
70
1
0
VERTEX
10
-18.0254
20
-36.8795
0
VERTEX
10
-18.1584
20
-36.1250
0
VERTEX
10
-17.8346
20
-36.8193
0
VERTEX
10
-17.7016
20
-37.5738
0
SEQEND
0
POLYLINE
8
trash
70
1
0
VERTEX
10
-18.6063
20
-37.0291
0
VERTEX
10
-18.6786
20
-36.2664
0
VERTEX
10
-18.4113
20
-36.9844
0
VERTEX
10
-18.3391
20
-37.7471
0
SEQEND
0
POLYLINE
8
trash
70
1
0
VERTEX
10
-19.1973
20
-37.1318
0
VERTEX
10
-19.2084
20
-36.3658
0
VERTEX
10
-18.9994
20
-37.1028
0
VERTEX
10
-18.9883
20
-37.8689
0
SEQEND
0
POLYLINE
8
trash
70
1
0
VERTEX
10
-19.7947
20
-37.1870
0
VERTEX
10
-19.7445
20
-36.4225
0
VERTEX
10
-19.5951
20
-37.1739
0
VERTEX
10
-19.6453
20
-37.9384
0
SEQEND
0
POLYLINE
8
trash
70
1
0
VERTEX
10
-20.3945
20
-37.1942
0
VERTEX
10
-20.2834
20
-36.4362
0
VERTEX
10
-20.1945
20
-37.1971
0
VERTEX
10
-20.3056
20
-37.9551
0
SEQEND
0
POLYLINE
8
trash
70
1
0
VERTEX
10
-20.9930
20
-37.1535
0
VERTEX
10
-20.8217
20
-36.4067
0
VERTEX
10
-20.7939
20
-37.1724
0
VERTEX
10
-20.9652
20
-37.9191
0
SEQEND
0
POLYLINE
8
trash
70
1
0
VERTEX
10
-21.5864
20
-37.0650
0
VERTEX
10
-21.3559
20
-36.3344
0
VERTEX
10
-21.3894
20
-37.0998
0
VERTEX
10
-21.6198
20
-37.8304
0
SEQEND
0
POLYLINE
8
trash
70
1
0
VERTEX
10
-22.1708
20
-36.9295
0
VERTEX
10
-21.8827
20
-36.2196
0
VERTEX
10
-21.9772
20
-36.9799
0
VERTEX
10
-22.2653
20
-37.6898
0
SEQEND
0
POLYLINE
8
trash
70
1
0
VERTEX
10
-22.7424
20
-36.7477
0
VERTEX
10
-22.3985
20
-36.0631
0
VERTEX
10
-22.5535
20
-36.8133
0
VERTEX
10
-22.8974
20
-37.4980
0
SEQEND
0
POLYLINE
8
trash
70
1
0
VERTEX
10
-23.2977
20
-36.5207
0
VERTEX
10
-22.9002
20
-35.8658
0
VERTEX
10
-23.1147
20
-36.6013
0
VERTEX
10
-23.5122
20
-37.2562
0
SEQEND
0
POLYLINE
8
trash
70
1
0
VERTEX
10
-23.8332
20
-36.2502
0
VERTEX
10
-23.3846
20
-35.6291
0
VERTEX
10
-23.6571
20
-36.3451
0
VERTEX
10
-24.1057
20
-36.9662
0
SEQEND
0
POLYLINE
8
trash
70
1
0
VERTEX
10
-24.3452
20
-35.9377
0
VERTEX
10
-23.8485
20
-35.3544
0
VERTEX
10
-24.1773
20
-36.0464
0
VERTEX
10
-24.6741
20
-36.6296
0
SEQEND
0
POLYLINE
8
trash
70
1
0
VERTEX
10
-24.8307
20
-35.5852
0
VERTEX
10
-24.2889
20
-35.0436
0
VERTEX
10
-24.6720
20
-35.7070
0
VERTEX
10
-25.2138
20
-36.2487
0
SEQEND
0
POLYLINE
8
trash
70
1
0
VERTEX
10
-25.2864
20
-35.1952
0
VERTEX
10
-24.7031
20
-34.6985
0
VERTEX
10
-25.1380
20
-35.3292
0
VERTEX
10
-25.7214
20
-35.8259
0
SEQEND
0
POLYLINE
8
trash
70
1
0
VERTEX
10
-25.7095
20
-34.7699
0
VERTEX
10
-25.0884
20
-34.3214
0
VERTEX
10
-25.5723
20
-34.9154
0
VERTEX
10
-26.1935
20
-35.3638
0
SEQEND
0
POLYLINE
8
trash
70
1
0
VERTEX
10
-26.0973
20
-34.3122
0
VERTEX
10
-25.4423
20
-33.9148
0
VERTEX
10
-25.9721
20
-34.4682
0
VERTEX
10
-26.6272
20
-34.8655
0
SEQEND
0
POLYLINE
8
trash
70
1
0
VERTEX
10
-26.4473
20
-33.8249
0
VERTEX
10
-25.7626
20
-33.4812
0
VERTEX
10
-26.3350
20
-33.9904
0
VERTEX
10
-27.0196
20
-34.3342
0
SEQEND
0
POLYLINE
8
trash
70
1
0
VERTEX
10
-26.7572
20
-33.3113
0
VERTEX
10
-26.0472
20
-33.0233
0
VERTEX
10
-26.6584
20
-33.4852
0
VERTEX
10
-27.3684
20
-33.7732
0
SEQEND
0
POLYLINE
8
trash
70
1
0
VERTEX
10
-27.0250
20
-32.7745
0
VERTEX
10
-26.2943
20
-32.5442
0
VERTEX
10
-26.9405
20
-32.9558
0
VERTEX
10
-27.6712
20
-33.1861
0
SEQEND
0
POLYLINE
8
trash
70
1
0
VERTEX
10
-27.2491
20
-32.2181
0
VERTEX
10
-26.5024
20
-32.0469
0
VERTEX
10
-27.1794
20
-32.4055
0
VERTEX
10
-27.9262
20
-32.5766
0
SEQEND
0
POLYLINE
8
trash
70
1
0
VERTEX
10
-27.4280
20
-31.6455
0
VERTEX
10
-26.6700
20
-31.5345
0
VERTEX
10
-27.3735
20
-31.8379
0
VERTEX
10
-28.1316
20
-31.9488
0
SEQEND
0
POLYLINE
8
trash
70
1
0
VERTEX
10
-27.5606
20
-31.0604
0
VERTEX
10
-26.7961
20
-31.0104
0
VERTEX
10
-27.5217
20
-31.2566
0
VERTEX
10
-28.2861
20
-31.3066
0
SEQEND
0
POLYLINE
8
trash
70
1
0
VERTEX
10
-27.6460
20
-30.4666
0
VERTEX
10
-26.8800
20
-30.4779
0
VERTEX
10
-27.6229
20
-30.6653
0
VERTEX
10
-28.3889
20
-30.6540
0
SEQEND
0
POLYLINE
8
trash
70
1
0
VERTEX
10
-27.6837
20
-29.8679
0
VERTEX
10
-26.9210
20
-29.9404
0
VERTEX
10
-27.6765
20
-30.0678
0
VERTEX
10
-28.4392
20
-29.9953
0
SEQEND
0
POLYLINE
8
trash
70
1
0
VERTEX
10
-27.6735
20
-29.2681
0
VERTEX
10
-26.9190
20
-29.4013
0
VERTEX
10
-27.6822
20
-29.4679
0
VERTEX
10
-28.4367
20
-29.3348
0
SEQEND
0
POLYLINE
8
trash
70
1
0
VERTEX
10
-27.6153
20
-28.6710
0
VERTEX
10
-26.8739
20
-28.8641
0
VERTEX
10
-27.6400
20
-28.8695
0
VERTEX
10
-28.3814
20
-28.6765
0
SEQEND
0
POLYLINE
8
trash
70
1
0
VERTEX
10
-27.5096
20
-28.0805
0
VERTEX
10
-26.7859
20
-28.3322
0
VERTEX
10
-27.5500
20
-28.2764
0
VERTEX
10
-28.2737
20
-28.0247
0
SEQEND
0
POLYLINE
8
trash
70
1
0
VERTEX
10
-27.3570
20
-27.5004
0
VERTEX
10
-26.6558
20
-27.8091
0
VERTEX
10
-27.4130
20
-27.6924
0
VERTEX
10
-28.1142
20
-27.3837
0
SEQEND
0
POLYLINE
8
trash
70
1
0
VERTEX
10
-27.1586
20
-26.9342
0
VERTEX
10
-26.4843
20
-27.2980
0
VERTEX
10
-27.2297
20
-27.1212
0
VERTEX
10
-27.9040
20
-26.7574
0
SEQEND
0
POLYLINE
8
trash
70
1
0
VERTEX
10
-26.9155
20
-26.3858
0
VERTEX
10
-26.2725
20
-26.8023
0
VERTEX
10
-27.0014
20
-26.5664
0
VERTEX
10
-27.6445
20
-26.1500
0
SEQEND
0
POLYLINE
8
trash
70
1
0
VERTEX
10
-26.6294
20
-25.8585
0
VERTEX
10
-26.0217
20
-26.3250
0
VERTEX
10
-26.7295
20
-26.0317
0
VERTEX
10
-27.3372
20
-25.5652
0
SEQEND
0
POLYLINE
8
trash
70
1
0
VERTEX
10
-26.3021
20
-25.3558
0
VERTEX
10
-25.7336
20
-25.8694
0
VERTEX
10
-26.4157
20
-25.5204
0
VERTEX
10
-26.9842
20
-25.0068
0
SEQEND
0
POLYLINE
8
trash
70
1
0
VERTEX
10
-25.9357
20
-24.8808
0
VERTEX
10
-25.4100
20
-25.4382
0
VERTEX
10
-26.0620
20
-25.0359
0
VERTEX
10
-26.5876
20
-24.4785
0
SEQEND
0
POLYLINE
8
trash
70
1
0
VERTEX
10
-25.5324
20
-24.4367
0
VERTEX
10
-25.0530
20
-25.0343
0
VERTEX
10
-25.6708
20
-24.5811
0
VERTEX
10
-26.1502
20
-23.9835
0
SEQEND
0
POLYLINE
8
M1_Neg
70
1
0
VERTEX
10
3.4625
20
-13.5500
0
VERTEX
10
3.8375
20
-13.5500
0
VERTEX
10
3.8375
20
-13.4500
0
VERTEX
10
3.4625
20
-13.4500
0
SEQEND
0
POLYLINE
8
M1_Neg
70
1
0
VERTEX
10
-3.8375
20
-13.5500
0
VERTEX
10
-3.4625
20
-13.5500
0
VERTEX
10
-3.4625
20
-13.4500
0
VERTEX
10
-3.8375
20
-13.4500
0
SEQEND
0
POLYLINE
8
M2_undercutMsk
70
1
0
VERTEX
10
-6.5000
20
-20.0000
0
VERTEX
10
6.5000
20
-20.0000
0
VERTEX
10
6.5000
20
-7.0000
0
VERTEX
10
-6.5000
20
-7.0000
0
SEQEND
0
POLYLINE
8
M1_Neg
70
1
0
VERTEX
10
-3.5000
20
-14.0000
0
VERTEX
10
3.5000
20
-14.0000
0
VERTEX
10
3.5000
20
-13.0000
0
VERTEX
10
-3.5000
20
-13.0000
0
SEQEND
0
POLYLINE
8
M1_Neg
70
1
0
VERTEX
10
0.8000
20
-79.9500
0
VERTEX
10
1.2000
20
-79.5500
0
VERTEX
10
1.2000
20
-79.1500
0
VERTEX
10
1.6000
20
-78.7500
0
VERTEX
10
2.0000
20
-78.3500
0
VERTEX
10
2.4000
20
-78.3500
0
VERTEX
10
2.8000
20
-78.3500
0
VERTEX
10
3.2000
20
-78.3500
0
VERTEX
10
3.6000
20
-78.3500
0
VERTEX
10
4.0000
20
-78.3500
0
VERTEX
10
4.4000
20
-78.3500
0
VERTEX
10
4.8000
20
-78.3500
0
VERTEX
10
5.2000
20
-78.7500
0
VERTEX
10
5.6000
20
-79.1500
0
VERTEX
10
5.6000
20
-79.5500
0
VERTEX
10
6.0000
20
-79.9500
0
VERTEX
10
6.0000
20
-80.3500
0
VERTEX
10
6.0000
20
-80.7500
0
VERTEX
10
6.0000
20
-81.1500
0
VERTEX
10
6.0000
20
-81.5500
0
VERTEX
10
6.0000
20
-81.9500
0
VERTEX
10
6.0000
20
-82.3500
0
VERTEX
10
6.0000
20
-82.7500
0
VERTEX
10
6.0000
20
-83.1500
0
VERTEX
10
6.0000
20
-83.5500
0
VERTEX
10
5.6000
20
-83.9500
0
VERTEX
10
5.6000
20
-84.3500
0
VERTEX
10
5.2000
20
-84.7500
0
VERTEX
10
4.8000
20
-85.1500
0
VERTEX
10
4.4000
20
-85.1500
0
VERTEX
10
4.0000
20
-85.1500
0
VERTEX
10
3.6000
20
-85.1500
0
VERTEX
10
3.2000
20
-85.1500
0
VERTEX
10
2.8000
20
-85.1500
0
VERTEX
10
2.4000
20
-85.1500
0
VERTEX
10
2.0000
20
-85.1500
0
VERTEX
10
1.6000
20
-84.7500
0
VERTEX
10
1.2000
20
-84.3500
0
VERTEX
10
1.2000
20
-83.9500
0
VERTEX
10
0.8000
20
-83.5500
0
VERTEX
10
0.8000
20
-83.1500
0
VERTEX
10
0.8000
20
-82.7500
0
VERTEX
10
0.8000
20
-82.3500
0
VERTEX
10
0.8000
20
-81.9500
0
VERTEX
10
0.8000
20
-81.5500
0
VERTEX
10
0.8000
20
-81.1500
0
VERTEX
10
0.8000
20
-80.7500
0
VERTEX
10
0.8000
20
-80.3500
0
VERTEX
10
0.8000
20
-79.9500
0
SEQEND
0
POLYLINE
8
M1_Pos_ind
70
1
0
VERTEX
10
2.0000
20
-79.9500
0
VERTEX
10
2.4000
20
-79.9500
0
VERTEX
10
2.4000
20
-79.5500
0
VERTEX
10
2.4000
20
-79.1500
0
VERTEX
10
2.8000
20
-79.1500
0
VERTEX
10
3.2000
20
-79.1500
0
VERTEX
10
3.6000
20
-79.1500
0
VERTEX
10
4.0000
20
-79.1500
0
VERTEX
10
4.4000
20
-79.1500
0
VERTEX
10
4.0000
20
-79.1500
0
VERTEX
10
4.0000
20
-79.5500
0
VERTEX
10
4.0000
20
-79.9500
0
VERTEX
10
3.6000
20
-79.9500
0
VERTEX
10
3.6000
20
-80.3500
0
VERTEX
10
3.2000
20
-80.3500
0
VERTEX
10
3.2000
20
-80.7500
0
VERTEX
10
3.2000
20
-81.1500
0
VERTEX
10
2.8000
20
-81.1500
0
VERTEX
10
2.8000
20
-81.5500
0
VERTEX
10
2.8000
20
-81.9500
0
VERTEX
10
2.4000
20
-81.9500
0
VERTEX
10
2.4000
20
-82.3500
0
VERTEX
10
2.0000
20
-82.3500
0
VERTEX
10
2.0000
20
-82.7500
0
VERTEX
10
2.0000
20
-83.1500
0
VERTEX
10
2.0000
20
-82.7500
0
VERTEX
10
2.0000
20
-82.3500
0
VERTEX
10
2.0000
20
-81.9500
0
VERTEX
10
2.0000
20
-81.5500
0
VERTEX
10
2.0000
20
-81.1500
0
VERTEX
10
2.0000
20
-80.7500
0
VERTEX
10
2.0000
20
-80.3500
0
VERTEX
10
2.0000
20
-79.9500
0
SEQEND
0
POLYLINE
8
M1_Pos_ind
70
1
0
VERTEX
10
2.4000
20
-84.3500
0
VERTEX
10
2.8000
20
-84.3500
0
VERTEX
10
2.8000
20
-83.9500
0
VERTEX
10
2.8000
20
-83.5500
0
VERTEX
10
3.2000
20
-83.5500
0
VERTEX
10
3.2000
20
-83.1500
0
VERTEX
10
3.6000
20
-83.1500
0
VERTEX
10
3.6000
20
-82.7500
0
VERTEX
10
3.6000
20
-82.3500
0
VERTEX
10
4.0000
20
-82.3500
0
VERTEX
10
4.0000
20
-81.9500
0
VERTEX
10
4.4000
20
-81.9500
0
VERTEX
10
4.4000
20
-81.5500
0
VERTEX
10
4.4000
20
-81.1500
0
VERTEX
10
4.8000
20
-81.1500
0
VERTEX
10
4.8000
20
-80.7500
0
VERTEX
10
4.8000
20
-80.3500
0
VERTEX
10
4.8000
20
-80.7500
0
VERTEX
10
4.8000
20
-81.1500
0
VERTEX
10
4.8000
20
-81.5500
0
VERTEX
10
4.8000
20
-81.9500
0
VERTEX
10
4.8000
20
-82.3500
0
VERTEX
10
4.8000
20
-82.7500
0
VERTEX
10
4.8000
20
-83.1500
0
VERTEX
10
4.8000
20
-83.5500
0
VERTEX
10
4.4000
20
-83.5500
0
VERTEX
10
4.4000
20
-83.9500
0
VERTEX
10
4.4000
20
-84.3500
0
VERTEX
10
4.0000
20
-84.3500
0
VERTEX
10
3.6000
20
-84.3500
0
VERTEX
10
3.2000
20
-84.3500
0
VERTEX
10
2.8000
20
-84.3500
0
VERTEX
10
2.4000
20
-84.3500
0
SEQEND
0
ENDSEC
0
EOF