0
SECTION
2
HEADER
9
$ACADVER
1
AC1009
0
ENDSEC
0
SECTION
2
ENTITIES
0
POLYLINE
8
M1_Neg
70
1
0
VERTEX
10
-0.4596
20
-51.2000
0
VERTEX
10
-0.4000
20
-47.7000
0
VERTEX
10
-0.4000
20
-44.2000
0
VERTEX
10
-1.2000
20
-40.7000
0
VERTEX
10
-0.4000
20
-37.2000
0
VERTEX
10
-0.1500
20
-27.2000
0
VERTEX
10
0.1500
20
-27.2000
0
VERTEX
10
0.4000
20
-37.2000
0
VERTEX
10
1.2000
20
-40.7000
0
VERTEX
10
0.4000
20
-44.2000
0
VERTEX
10
0.4000
20
-47.7000
0
VERTEX
10
0.4596
20
-51.2000
0
SEQEND
0
POLYLINE
8
M1_Neg
70
1
0
VERTEX
10
-0.4573
20
-61.2368
0
VERTEX
10
-0.4580
20
-61.2254
0
VERTEX
10
-0.4602
20
-61.2140
0
VERTEX
10
-0.4638
20
-61.2027
0
VERTEX
10
-0.4687
20
-61.1913
0
VERTEX
10
-0.4749
20
-61.1799
0
VERTEX
10
-0.4823
20
-61.1685
0
VERTEX
10
-0.4907
20
-61.1571
0
VERTEX
10
-0.5001
20
-61.1458
0
VERTEX
10
-0.5102
20
-61.1344
0
VERTEX
10
-0.5209
20
-61.1230
0
VERTEX
10
-0.5320
20
-61.1116
0
VERTEX
10
-0.5433
20
-61.1002
0
VERTEX
10
-0.5547
20
-61.0889
0
VERTEX
10
-0.5660
20
-61.0775
0
VERTEX
10
-0.5769
20
-61.0661
0
VERTEX
10
-0.5873
20
-61.0547
0
VERTEX
10
-0.5970
20
-61.0433
0
VERTEX
10
-0.6060
20
-61.0320
0
VERTEX
10
-0.6139
20
-61.0206
0
VERTEX
10
-0.6207
20
-61.0092
0
VERTEX
10
-0.6263
20
-60.9978
0
VERTEX
10
-0.6306
20
-60.9864
0
VERTEX
10
-0.6334
20
-60.9751
0
VERTEX
10
-0.6349
20
-60.9637
0
VERTEX
10
-0.6349
20
-60.9523
0
VERTEX
10
-0.6334
20
-60.9409
0
VERTEX
10
-0.6306
20
-60.9296
0
VERTEX
10
-0.6263
20
-60.9182
0
VERTEX
10
-0.6207
20
-60.9068
0
VERTEX
10
-0.6139
20
-60.8954
0
VERTEX
10
-0.6060
20
-60.8840
0
VERTEX
10
-0.5970
20
-60.8727
0
VERTEX
10
-0.5873
20
-60.8613
0
VERTEX
10
-0.5769
20
-60.8499
0
VERTEX
10
-0.5660
20
-60.8385
0
VERTEX
10
-0.5547
20
-60.8271
0
VERTEX
10
-0.5433
20
-60.8158
0
VERTEX
10
-0.5320
20
-60.8044
0
VERTEX
10
-0.5209
20
-60.7930
0
VERTEX
10
-0.5102
20
-60.7816
0
VERTEX
10
-0.5001
20
-60.7702
0
VERTEX
10
-0.4907
20
-60.7589
0
VERTEX
10
-0.4823
20
-60.7475
0
VERTEX
10
-0.4749
20
-60.7361
0
VERTEX
10
-0.4687
20
-60.7247
0
VERTEX
10
-0.4638
20
-60.7133
0
VERTEX
10
-0.4602
20
-60.7020
0
VERTEX
10
-0.4580
20
-60.6906
0
VERTEX
10
-0.4573
20
-60.6792
0
VERTEX
10
0.4573
20
-60.6792
0
VERTEX
10
0.4580
20
-60.6906
0
VERTEX
10
0.4602
20
-60.7020
0
VERTEX
10
0.4638
20
-60.7133
0
VERTEX
10
0.4687
20
-60.7247
0
VERTEX
10
0.4749
20
-60.7361
0
VERTEX
10
0.4823
20
-60.7475
0
VERTEX
10
0.4907
20
-60.7589
0
VERTEX
10
0.5001
20
-60.7702
0
VERTEX
10
0.5102
20
-60.7816
0
VERTEX
10
0.5209
20
-60.7930
0
VERTEX
10
0.5320
20
-60.8044
0
VERTEX
10
0.5433
20
-60.8158
0
VERTEX
10
0.5547
20
-60.8271
0
VERTEX
10
0.5660
20
-60.8385
0
VERTEX
10
0.5769
20
-60.8499
0
VERTEX
10
0.5873
20
-60.8613
0
VERTEX
10
0.5970
20
-60.8727
0
VERTEX
10
0.6060
20
-60.8840
0
VERTEX
10
0.6139
20
-60.8954
0
VERTEX
10
0.6207
20
-60.9068
0
VERTEX
10
0.6263
20
-60.9182
0
VERTEX
10
0.6306
20
-60.9296
0
VERTEX
10
0.6334
20
-60.9409
0
VERTEX
10
0.6349
20
-60.9523
0
VERTEX
10
0.6349
20
-60.9637
0
VERTEX
10
0.6334
20
-60.9751
0
VERTEX
10
0.6306
20
-60.9864
0
VERTEX
10
0.6263
20
-60.9978
0
VERTEX
10
0.6207
20
-61.0092
0
VERTEX
10
0.6139
20
-61.0206
0
VERTEX
10
0.6060
20
-61.0320
0
VERTEX
10
0.5970
20
-61.0433
0
VERTEX
10
0.5873
20
-61.0547
0
VERTEX
10
0.5769
20
-61.0661
0
VERTEX
10
0.5660
20
-61.0775
0
VERTEX
10
0.5547
20
-61.0889
0
VERTEX
10
0.5433
20
-61.1002
0
VERTEX
10
0.5320
20
-61.1116
0
VERTEX
10
0.5209
20
-61.1230
0
VERTEX
10
0.5102
20
-61.1344
0
VERTEX
10
0.5001
20
-61.1458
0
VERTEX
10
0.4907
20
-61.1571
0
VERTEX
10
0.4823
20
-61.1685
0
VERTEX
10
0.4749
20
-61.1799
0
VERTEX
10
0.4687
20
-61.1913
0
VERTEX
10
0.4638
20
-61.2027
0
VERTEX
10
0.4602
20
-61.2140
0
VERTEX
10
0.4580
20
-61.2254
0
VERTEX
10
0.4573
20
-61.2368
0
SEQEND
0
POLYLINE
8
M1_Neg
70
1
0
VERTEX
10
-0.4573
20
-60.6792
0
VERTEX
10
-0.4580
20
-60.6678
0
VERTEX
10
-0.4602
20
-60.6564
0
VERTEX
10
-0.4638
20
-60.6451
0
VERTEX
10
-0.4687
20
-60.6337
0
VERTEX
10
-0.4749
20
-60.6223
0
VERTEX
10
-0.4823
20
-60.6109
0
VERTEX
10
-0.4907
20
-60.5995
0
VERTEX
10
-0.5001
20
-60.5882
0
VERTEX
10
-0.5102
20
-60.5768
0
VERTEX
10
-0.5209
20
-60.5654
0
VERTEX
10
-0.5320
20
-60.5540
0
VERTEX
10
-0.5433
20
-60.5426
0
VERTEX
10
-0.5547
20
-60.5313
0
VERTEX
10
-0.5660
20
-60.5199
0
VERTEX
10
-0.5769
20
-60.5085
0
VERTEX
10
-0.5873
20
-60.4971
0
VERTEX
10
-0.5970
20
-60.4857
0
VERTEX
10
-0.6060
20
-60.4744
0
VERTEX
10
-0.6139
20
-60.4630
0
VERTEX
10
-0.6207
20
-60.4516
0
VERTEX
10
-0.6263
20
-60.4402
0
VERTEX
10
-0.6306
20
-60.4288
0
VERTEX
10
-0.6334
20
-60.4175
0
VERTEX
10
-0.6349
20
-60.4061
0
VERTEX
10
-0.6349
20
-60.3947
0
VERTEX
10
-0.6334
20
-60.3833
0
VERTEX
10
-0.6306
20
-60.3720
0
VERTEX
10
-0.6263
20
-60.3606
0
VERTEX
10
-0.6207
20
-60.3492
0
VERTEX
10
-0.6139
20
-60.3378
0
VERTEX
10
-0.6060
20
-60.3264
0
VERTEX
10
-0.5970
20
-60.3151
0
VERTEX
10
-0.5873
20
-60.3037
0
VERTEX
10
-0.5769
20
-60.2923
0
VERTEX
10
-0.5660
20
-60.2809
0
VERTEX
10
-0.5547
20
-60.2695
0
VERTEX
10
-0.5433
20
-60.2582
0
VERTEX
10
-0.5320
20
-60.2468
0
VERTEX
10
-0.5209
20
-60.2354
0
VERTEX
10
-0.5102
20
-60.2240
0
VERTEX
10
-0.5001
20
-60.2126
0
VERTEX
10
-0.4907
20
-60.2013
0
VERTEX
10
-0.4823
20
-60.1899
0
VERTEX
10
-0.4749
20
-60.1785
0
VERTEX
10
-0.4687
20
-60.1671
0
VERTEX
10
-0.4638
20
-60.1557
0
VERTEX
10
-0.4602
20
-60.1444
0
VERTEX
10
-0.4580
20
-60.1330
0
VERTEX
10
-0.4573
20
-60.1216
0
VERTEX
10
0.4573
20
-60.1216
0
VERTEX
10
0.4580
20
-60.1330
0
VERTEX
10
0.4602
20
-60.1444
0
VERTEX
10
0.4638
20
-60.1557
0
VERTEX
10
0.4687
20
-60.1671
0
VERTEX
10
0.4749
20
-60.1785
0
VERTEX
10
0.4823
20
-60.1899
0
VERTEX
10
0.4907
20
-60.2013
0
VERTEX
10
0.5001
20
-60.2126
0
VERTEX
10
0.5102
20
-60.2240
0
VERTEX
10
0.5209
20
-60.2354
0
VERTEX
10
0.5320
20
-60.2468
0
VERTEX
10
0.5433
20
-60.2582
0
VERTEX
10
0.5547
20
-60.2695
0
VERTEX
10
0.5660
20
-60.2809
0
VERTEX
10
0.5769
20
-60.2923
0
VERTEX
10
0.5873
20
-60.3037
0
VERTEX
10
0.5970
20
-60.3151
0
VERTEX
10
0.6060
20
-60.3264
0
VERTEX
10
0.6139
20
-60.3378
0
VERTEX
10
0.6207
20
-60.3492
0
VERTEX
10
0.6263
20
-60.3606
0
VERTEX
10
0.6306
20
-60.3720
0
VERTEX
10
0.6334
20
-60.3833
0
VERTEX
10
0.6349
20
-60.3947
0
VERTEX
10
0.6349
20
-60.4061
0
VERTEX
10
0.6334
20
-60.4175
0
VERTEX
10
0.6306
20
-60.4288
0
VERTEX
10
0.6263
20
-60.4402
0
VERTEX
10
0.6207
20
-60.4516
0
VERTEX
10
0.6139
20
-60.4630
0
VERTEX
10
0.6060
20
-60.4744
0
VERTEX
10
0.5970
20
-60.4857
0
VERTEX
10
0.5873
20
-60.4971
0
VERTEX
10
0.5769
20
-60.5085
0
VERTEX
10
0.5660
20
-60.5199
0
VERTEX
10
0.5547
20
-60.5313
0
VERTEX
10
0.5433
20
-60.5426
0
VERTEX
10
0.5320
20
-60.5540
0
VERTEX
10
0.5209
20
-60.5654
0
VERTEX
10
0.5102
20
-60.5768
0
VERTEX
10
0.5001
20
-60.5882
0
VERTEX
10
0.4907
20
-60.5995
0
VERTEX
10
0.4823
20
-60.6109
0
VERTEX
10
0.4749
20
-60.6223
0
VERTEX
10
0.4687
20
-60.6337
0
VERTEX
10
0.4638
20
-60.6451
0
VERTEX
10
0.4602
20
-60.6564
0
VERTEX
10
0.4580
20
-60.6678
0
VERTEX
10
0.4573
20
-60.6792
0
SEQEND
0
POLYLINE
8
M1_Neg
70
1
0
VERTEX
10
-0.4573
20
-60.1216
0
VERTEX
10
-0.4580
20
-60.1102
0
VERTEX
10
-0.4602
20
-60.0988
0
VERTEX
10
-0.4638
20
-60.0875
0
VERTEX
10
-0.4687
20
-60.0761
0
VERTEX
10
-0.4749
20
-60.0647
0
VERTEX
10
-0.4823
20
-60.0533
0
VERTEX
10
-0.4907
20
-60.0419
0
VERTEX
10
-0.5001
20
-60.0306
0
VERTEX
10
-0.5102
20
-60.0192
0
VERTEX
10
-0.5209
20
-60.0078
0
VERTEX
10
-0.5320
20
-59.9964
0
VERTEX
10
-0.5433
20
-59.9850
0
VERTEX
10
-0.5547
20
-59.9737
0
VERTEX
10
-0.5660
20
-59.9623
0
VERTEX
10
-0.5769
20
-59.9509
0
VERTEX
10
-0.5873
20
-59.9395
0
VERTEX
10
-0.5970
20
-59.9281
0
VERTEX
10
-0.6060
20
-59.9168
0
VERTEX
10
-0.6139
20
-59.9054
0
VERTEX
10
-0.6207
20
-59.8940
0
VERTEX
10
-0.6263
20
-59.8826
0
VERTEX
10
-0.6306
20
-59.8712
0
VERTEX
10
-0.6334
20
-59.8599
0
VERTEX
10
-0.6349
20
-59.8485
0
VERTEX
10
-0.6349
20
-59.8371
0
VERTEX
10
-0.6334
20
-59.8257
0
VERTEX
10
-0.6306
20
-59.8144
0
VERTEX
10
-0.6263
20
-59.8030
0
VERTEX
10
-0.6207
20
-59.7916
0
VERTEX
10
-0.6139
20
-59.7802
0
VERTEX
10
-0.6060
20
-59.7688
0
VERTEX
10
-0.5970
20
-59.7575
0
VERTEX
10
-0.5873
20
-59.7461
0
VERTEX
10
-0.5769
20
-59.7347
0
VERTEX
10
-0.5660
20
-59.7233
0
VERTEX
10
-0.5547
20
-59.7119
0
VERTEX
10
-0.5433
20
-59.7006
0
VERTEX
10
-0.5320
20
-59.6892
0
VERTEX
10
-0.5209
20
-59.6778
0
VERTEX
10
-0.5102
20
-59.6664
0
VERTEX
10
-0.5001
20
-59.6550
0
VERTEX
10
-0.4907
20
-59.6437
0
VERTEX
10
-0.4823
20
-59.6323
0
VERTEX
10
-0.4749
20
-59.6209
0
VERTEX
10
-0.4687
20
-59.6095
0
VERTEX
10
-0.4638
20
-59.5981
0
VERTEX
10
-0.4602
20
-59.5868
0
VERTEX
10
-0.4580
20
-59.5754
0
VERTEX
10
-0.4573
20
-59.5640
0
VERTEX
10
0.4573
20
-59.5640
0
VERTEX
10
0.4580
20
-59.5754
0
VERTEX
10
0.4602
20
-59.5868
0
VERTEX
10
0.4638
20
-59.5981
0
VERTEX
10
0.4687
20
-59.6095
0
VERTEX
10
0.4749
20
-59.6209
0
VERTEX
10
0.4823
20
-59.6323
0
VERTEX
10
0.4907
20
-59.6437
0
VERTEX
10
0.5001
20
-59.6550
0
VERTEX
10
0.5102
20
-59.6664
0
VERTEX
10
0.5209
20
-59.6778
0
VERTEX
10
0.5320
20
-59.6892
0
VERTEX
10
0.5433
20
-59.7006
0
VERTEX
10
0.5547
20
-59.7119
0
VERTEX
10
0.5660
20
-59.7233
0
VERTEX
10
0.5769
20
-59.7347
0
VERTEX
10
0.5873
20
-59.7461
0
VERTEX
10
0.5970
20
-59.7575
0
VERTEX
10
0.6060
20
-59.7688
0
VERTEX
10
0.6139
20
-59.7802
0
VERTEX
10
0.6207
20
-59.7916
0
VERTEX
10
0.6263
20
-59.8030
0
VERTEX
10
0.6306
20
-59.8144
0
VERTEX
10
0.6334
20
-59.8257
0
VERTEX
10
0.6349
20
-59.8371
0
VERTEX
10
0.6349
20
-59.8485
0
VERTEX
10
0.6334
20
-59.8599
0
VERTEX
10
0.6306
20
-59.8712
0
VERTEX
10
0.6263
20
-59.8826
0
VERTEX
10
0.6207
20
-59.8940
0
VERTEX
10
0.6139
20
-59.9054
0
VERTEX
10
0.6060
20
-59.9168
0
VERTEX
10
0.5970
20
-59.9281
0
VERTEX
10
0.5873
20
-59.9395
0
VERTEX
10
0.5769
20
-59.9509
0
VERTEX
10
0.5660
20
-59.9623
0
VERTEX
10
0.5547
20
-59.9737
0
VERTEX
10
0.5433
20
-59.9850
0
VERTEX
10
0.5320
20
-59.9964
0
VERTEX
10
0.5209
20
-60.0078
0
VERTEX
10
0.5102
20
-60.0192
0
VERTEX
10
0.5001
20
-60.0306
0
VERTEX
10
0.4907
20
-60.0419
0
VERTEX
10
0.4823
20
-60.0533
0
VERTEX
10
0.4749
20
-60.0647
0
VERTEX
10
0.4687
20
-60.0761
0
VERTEX
10
0.4638
20
-60.0875
0
VERTEX
10
0.4602
20
-60.0988
0
VERTEX
10
0.4580
20
-60.1102
0
VERTEX
10
0.4573
20
-60.1216
0
SEQEND
0
POLYLINE
8
M1_Neg
70
1
0
VERTEX
10
-0.4573
20
-59.5640
0
VERTEX
10
-0.4580
20
-59.5526
0
VERTEX
10
-0.4602
20
-59.5412
0
VERTEX
10
-0.4638
20
-59.5299
0
VERTEX
10
-0.4687
20
-59.5185
0
VERTEX
10
-0.4749
20
-59.5071
0
VERTEX
10
-0.4823
20
-59.4957
0
VERTEX
10
-0.4907
20
-59.4843
0
VERTEX
10
-0.5001
20
-59.4730
0
VERTEX
10
-0.5102
20
-59.4616
0
VERTEX
10
-0.5209
20
-59.4502
0
VERTEX
10
-0.5320
20
-59.4388
0
VERTEX
10
-0.5433
20
-59.4274
0
VERTEX
10
-0.5547
20
-59.4161
0
VERTEX
10
-0.5660
20
-59.4047
0
VERTEX
10
-0.5769
20
-59.3933
0
VERTEX
10
-0.5873
20
-59.3819
0
VERTEX
10
-0.5970
20
-59.3705
0
VERTEX
10
-0.6060
20
-59.3592
0
VERTEX
10
-0.6139
20
-59.3478
0
VERTEX
10
-0.6207
20
-59.3364
0
VERTEX
10
-0.6263
20
-59.3250
0
VERTEX
10
-0.6306
20
-59.3136
0
VERTEX
10
-0.6334
20
-59.3023
0
VERTEX
10
-0.6349
20
-59.2909
0
VERTEX
10
-0.6349
20
-59.2795
0
VERTEX
10
-0.6334
20
-59.2681
0
VERTEX
10
-0.6306
20
-59.2568
0
VERTEX
10
-0.6263
20
-59.2454
0
VERTEX
10
-0.6207
20
-59.2340
0
VERTEX
10
-0.6139
20
-59.2226
0
VERTEX
10
-0.6060
20
-59.2112
0
VERTEX
10
-0.5970
20
-59.1999
0
VERTEX
10
-0.5873
20
-59.1885
0
VERTEX
10
-0.5769
20
-59.1771
0
VERTEX
10
-0.5660
20
-59.1657
0
VERTEX
10
-0.5547
20
-59.1543
0
VERTEX
10
-0.5433
20
-59.1430
0
VERTEX
10
-0.5320
20
-59.1316
0
VERTEX
10
-0.5209
20
-59.1202
0
VERTEX
10
-0.5102
20
-59.1088
0
VERTEX
10
-0.5001
20
-59.0974
0
VERTEX
10
-0.4907
20
-59.0861
0
VERTEX
10
-0.4823
20
-59.0747
0
VERTEX
10
-0.4749
20
-59.0633
0
VERTEX
10
-0.4687
20
-59.0519
0
VERTEX
10
-0.4638
20
-59.0405
0
VERTEX
10
-0.4602
20
-59.0292
0
VERTEX
10
-0.4580
20
-59.0178
0
VERTEX
10
-0.4573
20
-59.0064
0
VERTEX
10
0.4573
20
-59.0064
0
VERTEX
10
0.4580
20
-59.0178
0
VERTEX
10
0.4602
20
-59.0292
0
VERTEX
10
0.4638
20
-59.0405
0
VERTEX
10
0.4687
20
-59.0519
0
VERTEX
10
0.4749
20
-59.0633
0
VERTEX
10
0.4823
20
-59.0747
0
VERTEX
10
0.4907
20
-59.0861
0
VERTEX
10
0.5001
20
-59.0974
0
VERTEX
10
0.5102
20
-59.1088
0
VERTEX
10
0.5209
20
-59.1202
0
VERTEX
10
0.5320
20
-59.1316
0
VERTEX
10
0.5433
20
-59.1430
0
VERTEX
10
0.5547
20
-59.1543
0
VERTEX
10
0.5660
20
-59.1657
0
VERTEX
10
0.5769
20
-59.1771
0
VERTEX
10
0.5873
20
-59.1885
0
VERTEX
10
0.5970
20
-59.1999
0
VERTEX
10
0.6060
20
-59.2112
0
VERTEX
10
0.6139
20
-59.2226
0
VERTEX
10
0.6207
20
-59.2340
0
VERTEX
10
0.6263
20
-59.2454
0
VERTEX
10
0.6306
20
-59.2568
0
VERTEX
10
0.6334
20
-59.2681
0
VERTEX
10
0.6349
20
-59.2795
0
VERTEX
10
0.6349
20
-59.2909
0
VERTEX
10
0.6334
20
-59.3023
0
VERTEX
10
0.6306
20
-59.3136
0
VERTEX
10
0.6263
20
-59.3250
0
VERTEX
10
0.6207
20
-59.3364
0
VERTEX
10
0.6139
20
-59.3478
0
VERTEX
10
0.6060
20
-59.3592
0
VERTEX
10
0.5970
20
-59.3705
0
VERTEX
10
0.5873
20
-59.3819
0
VERTEX
10
0.5769
20
-59.3933
0
VERTEX
10
0.5660
20
-59.4047
0
VERTEX
10
0.5547
20
-59.4161
0
VERTEX
10
0.5433
20
-59.4274
0
VERTEX
10
0.5320
20
-59.4388
0
VERTEX
10
0.5209
20
-59.4502
0
VERTEX
10
0.5102
20
-59.4616
0
VERTEX
10
0.5001
20
-59.4730
0
VERTEX
10
0.4907
20
-59.4843
0
VERTEX
10
0.4823
20
-59.4957
0
VERTEX
10
0.4749
20
-59.5071
0
VERTEX
10
0.4687
20
-59.5185
0
VERTEX
10
0.4638
20
-59.5299
0
VERTEX
10
0.4602
20
-59.5412
0
VERTEX
10
0.4580
20
-59.5526
0
VERTEX
10
0.4573
20
-59.5640
0
SEQEND
0
POLYLINE
8
M1_Neg
70
1
0
VERTEX
10
-0.4573
20
-59.0064
0
VERTEX
10
-0.4580
20
-58.9950
0
VERTEX
10
-0.4602
20
-58.9836
0
VERTEX
10
-0.4638
20
-58.9723
0
VERTEX
10
-0.4687
20
-58.9609
0
VERTEX
10
-0.4749
20
-58.9495
0
VERTEX
10
-0.4823
20
-58.9381
0
VERTEX
10
-0.4907
20
-58.9267
0
VERTEX
10
-0.5001
20
-58.9154
0
VERTEX
10
-0.5102
20
-58.9040
0
VERTEX
10
-0.5209
20
-58.8926
0
VERTEX
10
-0.5320
20
-58.8812
0
VERTEX
10
-0.5433
20
-58.8698
0
VERTEX
10
-0.5547
20
-58.8585
0
VERTEX
10
-0.5660
20
-58.8471
0
VERTEX
10
-0.5769
20
-58.8357
0
VERTEX
10
-0.5873
20
-58.8243
0
VERTEX
10
-0.5970
20
-58.8129
0
VERTEX
10
-0.6060
20
-58.8016
0
VERTEX
10
-0.6139
20
-58.7902
0
VERTEX
10
-0.6207
20
-58.7788
0
VERTEX
10
-0.6263
20
-58.7674
0
VERTEX
10
-0.6306
20
-58.7560
0
VERTEX
10
-0.6334
20
-58.7447
0
VERTEX
10
-0.6349
20
-58.7333
0
VERTEX
10
-0.6349
20
-58.7219
0
VERTEX
10
-0.6334
20
-58.7105
0
VERTEX
10
-0.6306
20
-58.6992
0
VERTEX
10
-0.6263
20
-58.6878
0
VERTEX
10
-0.6207
20
-58.6764
0
VERTEX
10
-0.6139
20
-58.6650
0
VERTEX
10
-0.6060
20
-58.6536
0
VERTEX
10
-0.5970
20
-58.6423
0
VERTEX
10
-0.5873
20
-58.6309
0
VERTEX
10
-0.5769
20
-58.6195
0
VERTEX
10
-0.5660
20
-58.6081
0
VERTEX
10
-0.5547
20
-58.5967
0
VERTEX
10
-0.5433
20
-58.5854
0
VERTEX
10
-0.5320
20
-58.5740
0
VERTEX
10
-0.5209
20
-58.5626
0
VERTEX
10
-0.5102
20
-58.5512
0
VERTEX
10
-0.5001
20
-58.5398
0
VERTEX
10
-0.4907
20
-58.5285
0
VERTEX
10
-0.4823
20
-58.5171
0
VERTEX
10
-0.4749
20
-58.5057
0
VERTEX
10
-0.4687
20
-58.4943
0
VERTEX
10
-0.4638
20
-58.4829
0
VERTEX
10
-0.4602
20
-58.4716
0
VERTEX
10
-0.4580
20
-58.4602
0
VERTEX
10
-0.4573
20
-58.4488
0
VERTEX
10
0.4573
20
-58.4488
0
VERTEX
10
0.4580
20
-58.4602
0
VERTEX
10
0.4602
20
-58.4716
0
VERTEX
10
0.4638
20
-58.4829
0
VERTEX
10
0.4687
20
-58.4943
0
VERTEX
10
0.4749
20
-58.5057
0
VERTEX
10
0.4823
20
-58.5171
0
VERTEX
10
0.4907
20
-58.5285
0
VERTEX
10
0.5001
20
-58.5398
0
VERTEX
10
0.5102
20
-58.5512
0
VERTEX
10
0.5209
20
-58.5626
0
VERTEX
10
0.5320
20
-58.5740
0
VERTEX
10
0.5433
20
-58.5854
0
VERTEX
10
0.5547
20
-58.5967
0
VERTEX
10
0.5660
20
-58.6081
0
VERTEX
10
0.5769
20
-58.6195
0
VERTEX
10
0.5873
20
-58.6309
0
VERTEX
10
0.5970
20
-58.6423
0
VERTEX
10
0.6060
20
-58.6536
0
VERTEX
10
0.6139
20
-58.6650
0
VERTEX
10
0.6207
20
-58.6764
0
VERTEX
10
0.6263
20
-58.6878
0
VERTEX
10
0.6306
20
-58.6992
0
VERTEX
10
0.6334
20
-58.7105
0
VERTEX
10
0.6349
20
-58.7219
0
VERTEX
10
0.6349
20
-58.7333
0
VERTEX
10
0.6334
20
-58.7447
0
VERTEX
10
0.6306
20
-58.7560
0
VERTEX
10
0.6263
20
-58.7674
0
VERTEX
10
0.6207
20
-58.7788
0
VERTEX
10
0.6139
20
-58.7902
0
VERTEX
10
0.6060
20
-58.8016
0
VERTEX
10
0.5970
20
-58.8129
0
VERTEX
10
0.5873
20
-58.8243
0
VERTEX
10
0.5769
20
-58.8357
0
VERTEX
10
0.5660
20
-58.8471
0
VERTEX
10
0.5547
20
-58.8585
0
VERTEX
10
0.5433
20
-58.8698
0
VERTEX
10
0.5320
20
-58.8812
0
VERTEX
10
0.5209
20
-58.8926
0
VERTEX
10
0.5102
20
-58.9040
0
VERTEX
10
0.5001
20
-58.9154
0
VERTEX
10
0.4907
20
-58.9267
0
VERTEX
10
0.4823
20
-58.9381
0
VERTEX
10
0.4749
20
-58.9495
0
VERTEX
10
0.4687
20
-58.9609
0
VERTEX
10
0.4638
20
-58.9723
0
VERTEX
10
0.4602
20
-58.9836
0
VERTEX
10
0.4580
20
-58.9950
0
VERTEX
10
0.4573
20
-59.0064
0
SEQEND
0
POLYLINE
8
M1_Neg
70
1
0
VERTEX
10
-0.4573
20
-58.4488
0
VERTEX
10
-0.4580
20
-58.4374
0
VERTEX
10
-0.4602
20
-58.4260
0
VERTEX
10
-0.4638
20
-58.4147
0
VERTEX
10
-0.4687
20
-58.4033
0
VERTEX
10
-0.4749
20
-58.3919
0
VERTEX
10
-0.4823
20
-58.3805
0
VERTEX
10
-0.4907
20
-58.3691
0
VERTEX
10
-0.5001
20
-58.3578
0
VERTEX
10
-0.5102
20
-58.3464
0
VERTEX
10
-0.5209
20
-58.3350
0
VERTEX
10
-0.5320
20
-58.3236
0
VERTEX
10
-0.5433
20
-58.3122
0
VERTEX
10
-0.5547
20
-58.3009
0
VERTEX
10
-0.5660
20
-58.2895
0
VERTEX
10
-0.5769
20
-58.2781
0
VERTEX
10
-0.5873
20
-58.2667
0
VERTEX
10
-0.5970
20
-58.2553
0
VERTEX
10
-0.6060
20
-58.2440
0
VERTEX
10
-0.6139
20
-58.2326
0
VERTEX
10
-0.6207
20
-58.2212
0
VERTEX
10
-0.6263
20
-58.2098
0
VERTEX
10
-0.6306
20
-58.1984
0
VERTEX
10
-0.6334
20
-58.1871
0
VERTEX
10
-0.6349
20
-58.1757
0
VERTEX
10
-0.6349
20
-58.1643
0
VERTEX
10
-0.6334
20
-58.1529
0
VERTEX
10
-0.6306
20
-58.1416
0
VERTEX
10
-0.6263
20
-58.1302
0
VERTEX
10
-0.6207
20
-58.1188
0
VERTEX
10
-0.6139
20
-58.1074
0
VERTEX
10
-0.6060
20
-58.0960
0
VERTEX
10
-0.5970
20
-58.0847
0
VERTEX
10
-0.5873
20
-58.0733
0
VERTEX
10
-0.5769
20
-58.0619
0
VERTEX
10
-0.5660
20
-58.0505
0
VERTEX
10
-0.5547
20
-58.0391
0
VERTEX
10
-0.5433
20
-58.0278
0
VERTEX
10
-0.5320
20
-58.0164
0
VERTEX
10
-0.5209
20
-58.0050
0
VERTEX
10
-0.5102
20
-57.9936
0
VERTEX
10
-0.5001
20
-57.9822
0
VERTEX
10
-0.4907
20
-57.9709
0
VERTEX
10
-0.4823
20
-57.9595
0
VERTEX
10
-0.4749
20
-57.9481
0
VERTEX
10
-0.4687
20
-57.9367
0
VERTEX
10
-0.4638
20
-57.9253
0
VERTEX
10
-0.4602
20
-57.9140
0
VERTEX
10
-0.4580
20
-57.9026
0
VERTEX
10
-0.4573
20
-57.8912
0
VERTEX
10
0.4573
20
-57.8912
0
VERTEX
10
0.4580
20
-57.9026
0
VERTEX
10
0.4602
20
-57.9140
0
VERTEX
10
0.4638
20
-57.9253
0
VERTEX
10
0.4687
20
-57.9367
0
VERTEX
10
0.4749
20
-57.9481
0
VERTEX
10
0.4823
20
-57.9595
0
VERTEX
10
0.4907
20
-57.9709
0
VERTEX
10
0.5001
20
-57.9822
0
VERTEX
10
0.5102
20
-57.9936
0
VERTEX
10
0.5209
20
-58.0050
0
VERTEX
10
0.5320
20
-58.0164
0
VERTEX
10
0.5433
20
-58.0278
0
VERTEX
10
0.5547
20
-58.0391
0
VERTEX
10
0.5660
20
-58.0505
0
VERTEX
10
0.5769
20
-58.0619
0
VERTEX
10
0.5873
20
-58.0733
0
VERTEX
10
0.5970
20
-58.0847
0
VERTEX
10
0.6060
20
-58.0960
0
VERTEX
10
0.6139
20
-58.1074
0
VERTEX
10
0.6207
20
-58.1188
0
VERTEX
10
0.6263
20
-58.1302
0
VERTEX
10
0.6306
20
-58.1416
0
VERTEX
10
0.6334
20
-58.1529
0
VERTEX
10
0.6349
20
-58.1643
0
VERTEX
10
0.6349
20
-58.1757
0
VERTEX
10
0.6334
20
-58.1871
0
VERTEX
10
0.6306
20
-58.1984
0
VERTEX
10
0.6263
20
-58.2098
0
VERTEX
10
0.6207
20
-58.2212
0
VERTEX
10
0.6139
20
-58.2326
0
VERTEX
10
0.6060
20
-58.2440
0
VERTEX
10
0.5970
20
-58.2553
0
VERTEX
10
0.5873
20
-58.2667
0
VERTEX
10
0.5769
20
-58.2781
0
VERTEX
10
0.5660
20
-58.2895
0
VERTEX
10
0.5547
20
-58.3009
0
VERTEX
10
0.5433
20
-58.3122
0
VERTEX
10
0.5320
20
-58.3236
0
VERTEX
10
0.5209
20
-58.3350
0
VERTEX
10
0.5102
20
-58.3464
0
VERTEX
10
0.5001
20
-58.3578
0
VERTEX
10
0.4907
20
-58.3691
0
VERTEX
10
0.4823
20
-58.3805
0
VERTEX
10
0.4749
20
-58.3919
0
VERTEX
10
0.4687
20
-58.4033
0
VERTEX
10
0.4638
20
-58.4147
0
VERTEX
10
0.4602
20
-58.4260
0
VERTEX
10
0.4580
20
-58.4374
0
VERTEX
10
0.4573
20
-58.4488
0
SEQEND
0
POLYLINE
8
M1_Neg
70
1
0
VERTEX
10
-0.4573
20
-57.8912
0
VERTEX
10
-0.4580
20
-57.8798
0
VERTEX
10
-0.4602
20
-57.8684
0
VERTEX
10
-0.4638
20
-57.8571
0
VERTEX
10
-0.4687
20
-57.8457
0
VERTEX
10
-0.4749
20
-57.8343
0
VERTEX
10
-0.4823
20
-57.8229
0
VERTEX
10
-0.4907
20
-57.8115
0
VERTEX
10
-0.5001
20
-57.8002
0
VERTEX
10
-0.5102
20
-57.7888
0
VERTEX
10
-0.5209
20
-57.7774
0
VERTEX
10
-0.5320
20
-57.7660
0
VERTEX
10
-0.5433
20
-57.7546
0
VERTEX
10
-0.5547
20
-57.7433
0
VERTEX
10
-0.5660
20
-57.7319
0
VERTEX
10
-0.5769
20
-57.7205
0
VERTEX
10
-0.5873
20
-57.7091
0
VERTEX
10
-0.5970
20
-57.6977
0
VERTEX
10
-0.6060
20
-57.6864
0
VERTEX
10
-0.6139
20
-57.6750
0
VERTEX
10
-0.6207
20
-57.6636
0
VERTEX
10
-0.6263
20
-57.6522
0
VERTEX
10
-0.6306
20
-57.6408
0
VERTEX
10
-0.6334
20
-57.6295
0
VERTEX
10
-0.6349
20
-57.6181
0
VERTEX
10
-0.6349
20
-57.6067
0
VERTEX
10
-0.6334
20
-57.5953
0
VERTEX
10
-0.6306
20
-57.5840
0
VERTEX
10
-0.6263
20
-57.5726
0
VERTEX
10
-0.6207
20
-57.5612
0
VERTEX
10
-0.6139
20
-57.5498
0
VERTEX
10
-0.6060
20
-57.5384
0
VERTEX
10
-0.5970
20
-57.5271
0
VERTEX
10
-0.5873
20
-57.5157
0
VERTEX
10
-0.5769
20
-57.5043
0
VERTEX
10
-0.5660
20
-57.4929
0
VERTEX
10
-0.5547
20
-57.4815
0
VERTEX
10
-0.5433
20
-57.4702
0
VERTEX
10
-0.5320
20
-57.4588
0
VERTEX
10
-0.5209
20
-57.4474
0
VERTEX
10
-0.5102
20
-57.4360
0
VERTEX
10
-0.5001
20
-57.4246
0
VERTEX
10
-0.4907
20
-57.4133
0
VERTEX
10
-0.4823
20
-57.4019
0
VERTEX
10
-0.4749
20
-57.3905
0
VERTEX
10
-0.4687
20
-57.3791
0
VERTEX
10
-0.4638
20
-57.3677
0
VERTEX
10
-0.4602
20
-57.3564
0
VERTEX
10
-0.4580
20
-57.3450
0
VERTEX
10
-0.4573
20
-57.3336
0
VERTEX
10
0.4573
20
-57.3336
0
VERTEX
10
0.4580
20
-57.3450
0
VERTEX
10
0.4602
20
-57.3564
0
VERTEX
10
0.4638
20
-57.3677
0
VERTEX
10
0.4687
20
-57.3791
0
VERTEX
10
0.4749
20
-57.3905
0
VERTEX
10
0.4823
20
-57.4019
0
VERTEX
10
0.4907
20
-57.4133
0
VERTEX
10
0.5001
20
-57.4246
0
VERTEX
10
0.5102
20
-57.4360
0
VERTEX
10
0.5209
20
-57.4474
0
VERTEX
10
0.5320
20
-57.4588
0
VERTEX
10
0.5433
20
-57.4702
0
VERTEX
10
0.5547
20
-57.4815
0
VERTEX
10
0.5660
20
-57.4929
0
VERTEX
10
0.5769
20
-57.5043
0
VERTEX
10
0.5873
20
-57.5157
0
VERTEX
10
0.5970
20
-57.5271
0
VERTEX
10
0.6060
20
-57.5384
0
VERTEX
10
0.6139
20
-57.5498
0
VERTEX
10
0.6207
20
-57.5612
0
VERTEX
10
0.6263
20
-57.5726
0
VERTEX
10
0.6306
20
-57.5840
0
VERTEX
10
0.6334
20
-57.5953
0
VERTEX
10
0.6349
20
-57.6067
0
VERTEX
10
0.6349
20
-57.6181
0
VERTEX
10
0.6334
20
-57.6295
0
VERTEX
10
0.6306
20
-57.6408
0
VERTEX
10
0.6263
20
-57.6522
0
VERTEX
10
0.6207
20
-57.6636
0
VERTEX
10
0.6139
20
-57.6750
0
VERTEX
10
0.6060
20
-57.6864
0
VERTEX
10
0.5970
20
-57.6977
0
VERTEX
10
0.5873
20
-57.7091
0
VERTEX
10
0.5769
20
-57.7205
0
VERTEX
10
0.5660
20
-57.7319
0
VERTEX
10
0.5547
20
-57.7433
0
VERTEX
10
0.5433
20
-57.7546
0
VERTEX
10
0.5320
20
-57.7660
0
VERTEX
10
0.5209
20
-57.7774
0
VERTEX
10
0.5102
20
-57.7888
0
VERTEX
10
0.5001
20
-57.8002
0
VERTEX
10
0.4907
20
-57.8115
0
VERTEX
10
0.4823
20
-57.8229
0
VERTEX
10
0.4749
20
-57.8343
0
VERTEX
10
0.4687
20
-57.8457
0
VERTEX
10
0.4638
20
-57.8571
0
VERTEX
10
0.4602
20
-57.8684
0
VERTEX
10
0.4580
20
-57.8798
0
VERTEX
10
0.4573
20
-57.8912
0
SEQEND
0
POLYLINE
8
M1_Neg
70
1
0
VERTEX
10
-0.4573
20
-57.3336
0
VERTEX
10
-0.4580
20
-57.3222
0
VERTEX
10
-0.4602
20
-57.3108
0
VERTEX
10
-0.4638
20
-57.2995
0
VERTEX
10
-0.4687
20
-57.2881
0
VERTEX
10
-0.4749
20
-57.2767
0
VERTEX
10
-0.4823
20
-57.2653
0
VERTEX
10
-0.4907
20
-57.2539
0
VERTEX
10
-0.5001
20
-57.2426
0
VERTEX
10
-0.5102
20
-57.2312
0
VERTEX
10
-0.5209
20
-57.2198
0
VERTEX
10
-0.5320
20
-57.2084
0
VERTEX
10
-0.5433
20
-57.1970
0
VERTEX
10
-0.5547
20
-57.1857
0
VERTEX
10
-0.5660
20
-57.1743
0
VERTEX
10
-0.5769
20
-57.1629
0
VERTEX
10
-0.5873
20
-57.1515
0
VERTEX
10
-0.5970
20
-57.1401
0
VERTEX
10
-0.6060
20
-57.1288
0
VERTEX
10
-0.6139
20
-57.1174
0
VERTEX
10
-0.6207
20
-57.1060
0
VERTEX
10
-0.6263
20
-57.0946
0
VERTEX
10
-0.6306
20
-57.0832
0
VERTEX
10
-0.6334
20
-57.0719
0
VERTEX
10
-0.6349
20
-57.0605
0
VERTEX
10
-0.6349
20
-57.0491
0
VERTEX
10
-0.6334
20
-57.0377
0
VERTEX
10
-0.6306
20
-57.0264
0
VERTEX
10
-0.6263
20
-57.0150
0
VERTEX
10
-0.6207
20
-57.0036
0
VERTEX
10
-0.6139
20
-56.9922
0
VERTEX
10
-0.6060
20
-56.9808
0
VERTEX
10
-0.5970
20
-56.9695
0
VERTEX
10
-0.5873
20
-56.9581
0
VERTEX
10
-0.5769
20
-56.9467
0
VERTEX
10
-0.5660
20
-56.9353
0
VERTEX
10
-0.5547
20
-56.9239
0
VERTEX
10
-0.5433
20
-56.9126
0
VERTEX
10
-0.5320
20
-56.9012
0
VERTEX
10
-0.5209
20
-56.8898
0
VERTEX
10
-0.5102
20
-56.8784
0
VERTEX
10
-0.5001
20
-56.8670
0
VERTEX
10
-0.4907
20
-56.8557
0
VERTEX
10
-0.4823
20
-56.8443
0
VERTEX
10
-0.4749
20
-56.8329
0
VERTEX
10
-0.4687
20
-56.8215
0
VERTEX
10
-0.4638
20
-56.8101
0
VERTEX
10
-0.4602
20
-56.7988
0
VERTEX
10
-0.4580
20
-56.7874
0
VERTEX
10
-0.4573
20
-56.7760
0
VERTEX
10
0.4573
20
-56.7760
0
VERTEX
10
0.4580
20
-56.7874
0
VERTEX
10
0.4602
20
-56.7988
0
VERTEX
10
0.4638
20
-56.8101
0
VERTEX
10
0.4687
20
-56.8215
0
VERTEX
10
0.4749
20
-56.8329
0
VERTEX
10
0.4823
20
-56.8443
0
VERTEX
10
0.4907
20
-56.8557
0
VERTEX
10
0.5001
20
-56.8670
0
VERTEX
10
0.5102
20
-56.8784
0
VERTEX
10
0.5209
20
-56.8898
0
VERTEX
10
0.5320
20
-56.9012
0
VERTEX
10
0.5433
20
-56.9126
0
VERTEX
10
0.5547
20
-56.9239
0
VERTEX
10
0.5660
20
-56.9353
0
VERTEX
10
0.5769
20
-56.9467
0
VERTEX
10
0.5873
20
-56.9581
0
VERTEX
10
0.5970
20
-56.9695
0
VERTEX
10
0.6060
20
-56.9808
0
VERTEX
10
0.6139
20
-56.9922
0
VERTEX
10
0.6207
20
-57.0036
0
VERTEX
10
0.6263
20
-57.0150
0
VERTEX
10
0.6306
20
-57.0264
0
VERTEX
10
0.6334
20
-57.0377
0
VERTEX
10
0.6349
20
-57.0491
0
VERTEX
10
0.6349
20
-57.0605
0
VERTEX
10
0.6334
20
-57.0719
0
VERTEX
10
0.6306
20
-57.0832
0
VERTEX
10
0.6263
20
-57.0946
0
VERTEX
10
0.6207
20
-57.1060
0
VERTEX
10
0.6139
20
-57.1174
0
VERTEX
10
0.6060
20
-57.1288
0
VERTEX
10
0.5970
20
-57.1401
0
VERTEX
10
0.5873
20
-57.1515
0
VERTEX
10
0.5769
20
-57.1629
0
VERTEX
10
0.5660
20
-57.1743
0
VERTEX
10
0.5547
20
-57.1857
0
VERTEX
10
0.5433
20
-57.1970
0
VERTEX
10
0.5320
20
-57.2084
0
VERTEX
10
0.5209
20
-57.2198
0
VERTEX
10
0.5102
20
-57.2312
0
VERTEX
10
0.5001
20
-57.2426
0
VERTEX
10
0.4907
20
-57.2539
0
VERTEX
10
0.4823
20
-57.2653
0
VERTEX
10
0.4749
20
-57.2767
0
VERTEX
10
0.4687
20
-57.2881
0
VERTEX
10
0.4638
20
-57.2995
0
VERTEX
10
0.4602
20
-57.3108
0
VERTEX
10
0.4580
20
-57.3222
0
VERTEX
10
0.4573
20
-57.3336
0
SEQEND
0
POLYLINE
8
M1_Neg
70
1
0
VERTEX
10
-0.4573
20
-56.7760
0
VERTEX
10
-0.4580
20
-56.7646
0
VERTEX
10
-0.4602
20
-56.7532
0
VERTEX
10
-0.4638
20
-56.7419
0
VERTEX
10
-0.4687
20
-56.7305
0
VERTEX
10
-0.4749
20
-56.7191
0
VERTEX
10
-0.4823
20
-56.7077
0
VERTEX
10
-0.4907
20
-56.6963
0
VERTEX
10
-0.5001
20
-56.6850
0
VERTEX
10
-0.5102
20
-56.6736
0
VERTEX
10
-0.5209
20
-56.6622
0
VERTEX
10
-0.5320
20
-56.6508
0
VERTEX
10
-0.5433
20
-56.6394
0
VERTEX
10
-0.5547
20
-56.6281
0
VERTEX
10
-0.5660
20
-56.6167
0
VERTEX
10
-0.5769
20
-56.6053
0
VERTEX
10
-0.5873
20
-56.5939
0
VERTEX
10
-0.5970
20
-56.5825
0
VERTEX
10
-0.6060
20
-56.5712
0
VERTEX
10
-0.6139
20
-56.5598
0
VERTEX
10
-0.6207
20
-56.5484
0
VERTEX
10
-0.6263
20
-56.5370
0
VERTEX
10
-0.6306
20
-56.5256
0
VERTEX
10
-0.6334
20
-56.5143
0
VERTEX
10
-0.6349
20
-56.5029
0
VERTEX
10
-0.6349
20
-56.4915
0
VERTEX
10
-0.6334
20
-56.4801
0
VERTEX
10
-0.6306
20
-56.4688
0
VERTEX
10
-0.6263
20
-56.4574
0
VERTEX
10
-0.6207
20
-56.4460
0
VERTEX
10
-0.6139
20
-56.4346
0
VERTEX
10
-0.6060
20
-56.4232
0
VERTEX
10
-0.5970
20
-56.4119
0
VERTEX
10
-0.5873
20
-56.4005
0
VERTEX
10
-0.5769
20
-56.3891
0
VERTEX
10
-0.5660
20
-56.3777
0
VERTEX
10
-0.5547
20
-56.3663
0
VERTEX
10
-0.5433
20
-56.3550
0
VERTEX
10
-0.5320
20
-56.3436
0
VERTEX
10
-0.5209
20
-56.3322
0
VERTEX
10
-0.5102
20
-56.3208
0
VERTEX
10
-0.5001
20
-56.3094
0
VERTEX
10
-0.4907
20
-56.2981
0
VERTEX
10
-0.4823
20
-56.2867
0
VERTEX
10
-0.4749
20
-56.2753
0
VERTEX
10
-0.4687
20
-56.2639
0
VERTEX
10
-0.4638
20
-56.2525
0
VERTEX
10
-0.4602
20
-56.2412
0
VERTEX
10
-0.4580
20
-56.2298
0
VERTEX
10
-0.4573
20
-56.2184
0
VERTEX
10
0.4573
20
-56.2184
0
VERTEX
10
0.4580
20
-56.2298
0
VERTEX
10
0.4602
20
-56.2412
0
VERTEX
10
0.4638
20
-56.2525
0
VERTEX
10
0.4687
20
-56.2639
0
VERTEX
10
0.4749
20
-56.2753
0
VERTEX
10
0.4823
20
-56.2867
0
VERTEX
10
0.4907
20
-56.2981
0
VERTEX
10
0.5001
20
-56.3094
0
VERTEX
10
0.5102
20
-56.3208
0
VERTEX
10
0.5209
20
-56.3322
0
VERTEX
10
0.5320
20
-56.3436
0
VERTEX
10
0.5433
20
-56.3550
0
VERTEX
10
0.5547
20
-56.3663
0
VERTEX
10
0.5660
20
-56.3777
0
VERTEX
10
0.5769
20
-56.3891
0
VERTEX
10
0.5873
20
-56.4005
0
VERTEX
10
0.5970
20
-56.4119
0
VERTEX
10
0.6060
20
-56.4232
0
VERTEX
10
0.6139
20
-56.4346
0
VERTEX
10
0.6207
20
-56.4460
0
VERTEX
10
0.6263
20
-56.4574
0
VERTEX
10
0.6306
20
-56.4688
0
VERTEX
10
0.6334
20
-56.4801
0
VERTEX
10
0.6349
20
-56.4915
0
VERTEX
10
0.6349
20
-56.5029
0
VERTEX
10
0.6334
20
-56.5143
0
VERTEX
10
0.6306
20
-56.5256
0
VERTEX
10
0.6263
20
-56.5370
0
VERTEX
10
0.6207
20
-56.5484
0
VERTEX
10
0.6139
20
-56.5598
0
VERTEX
10
0.6060
20
-56.5712
0
VERTEX
10
0.5970
20
-56.5825
0
VERTEX
10
0.5873
20
-56.5939
0
VERTEX
10
0.5769
20
-56.6053
0
VERTEX
10
0.5660
20
-56.6167
0
VERTEX
10
0.5547
20
-56.6281
0
VERTEX
10
0.5433
20
-56.6394
0
VERTEX
10
0.5320
20
-56.6508
0
VERTEX
10
0.5209
20
-56.6622
0
VERTEX
10
0.5102
20
-56.6736
0
VERTEX
10
0.5001
20
-56.6850
0
VERTEX
10
0.4907
20
-56.6963
0
VERTEX
10
0.4823
20
-56.7077
0
VERTEX
10
0.4749
20
-56.7191
0
VERTEX
10
0.4687
20
-56.7305
0
VERTEX
10
0.4638
20
-56.7419
0
VERTEX
10
0.4602
20
-56.7532
0
VERTEX
10
0.4580
20
-56.7646
0
VERTEX
10
0.4573
20
-56.7760
0
SEQEND
0
POLYLINE
8
M1_Neg
70
1
0
VERTEX
10
-0.4573
20
-56.2184
0
VERTEX
10
-0.4580
20
-56.2070
0
VERTEX
10
-0.4602
20
-56.1956
0
VERTEX
10
-0.4638
20
-56.1843
0
VERTEX
10
-0.4687
20
-56.1729
0
VERTEX
10
-0.4749
20
-56.1615
0
VERTEX
10
-0.4823
20
-56.1501
0
VERTEX
10
-0.4907
20
-56.1387
0
VERTEX
10
-0.5001
20
-56.1274
0
VERTEX
10
-0.5102
20
-56.1160
0
VERTEX
10
-0.5209
20
-56.1046
0
VERTEX
10
-0.5320
20
-56.0932
0
VERTEX
10
-0.5433
20
-56.0818
0
VERTEX
10
-0.5547
20
-56.0705
0
VERTEX
10
-0.5660
20
-56.0591
0
VERTEX
10
-0.5769
20
-56.0477
0
VERTEX
10
-0.5873
20
-56.0363
0
VERTEX
10
-0.5970
20
-56.0249
0
VERTEX
10
-0.6060
20
-56.0136
0
VERTEX
10
-0.6139
20
-56.0022
0
VERTEX
10
-0.6207
20
-55.9908
0
VERTEX
10
-0.6263
20
-55.9794
0
VERTEX
10
-0.6306
20
-55.9680
0
VERTEX
10
-0.6334
20
-55.9567
0
VERTEX
10
-0.6349
20
-55.9453
0
VERTEX
10
-0.6349
20
-55.9339
0
VERTEX
10
-0.6334
20
-55.9225
0
VERTEX
10
-0.6306
20
-55.9112
0
VERTEX
10
-0.6263
20
-55.8998
0
VERTEX
10
-0.6207
20
-55.8884
0
VERTEX
10
-0.6139
20
-55.8770
0
VERTEX
10
-0.6060
20
-55.8656
0
VERTEX
10
-0.5970
20
-55.8543
0
VERTEX
10
-0.5873
20
-55.8429
0
VERTEX
10
-0.5769
20
-55.8315
0
VERTEX
10
-0.5660
20
-55.8201
0
VERTEX
10
-0.5547
20
-55.8087
0
VERTEX
10
-0.5433
20
-55.7974
0
VERTEX
10
-0.5320
20
-55.7860
0
VERTEX
10
-0.5209
20
-55.7746
0
VERTEX
10
-0.5102
20
-55.7632
0
VERTEX
10
-0.5001
20
-55.7518
0
VERTEX
10
-0.4907
20
-55.7405
0
VERTEX
10
-0.4823
20
-55.7291
0
VERTEX
10
-0.4749
20
-55.7177
0
VERTEX
10
-0.4687
20
-55.7063
0
VERTEX
10
-0.4638
20
-55.6949
0
VERTEX
10
-0.4602
20
-55.6836
0
VERTEX
10
-0.4580
20
-55.6722
0
VERTEX
10
-0.4573
20
-55.6608
0
VERTEX
10
0.4573
20
-55.6608
0
VERTEX
10
0.4580
20
-55.6722
0
VERTEX
10
0.4602
20
-55.6836
0
VERTEX
10
0.4638
20
-55.6949
0
VERTEX
10
0.4687
20
-55.7063
0
VERTEX
10
0.4749
20
-55.7177
0
VERTEX
10
0.4823
20
-55.7291
0
VERTEX
10
0.4907
20
-55.7405
0
VERTEX
10
0.5001
20
-55.7518
0
VERTEX
10
0.5102
20
-55.7632
0
VERTEX
10
0.5209
20
-55.7746
0
VERTEX
10
0.5320
20
-55.7860
0
VERTEX
10
0.5433
20
-55.7974
0
VERTEX
10
0.5547
20
-55.8087
0
VERTEX
10
0.5660
20
-55.8201
0
VERTEX
10
0.5769
20
-55.8315
0
VERTEX
10
0.5873
20
-55.8429
0
VERTEX
10
0.5970
20
-55.8543
0
VERTEX
10
0.6060
20
-55.8656
0
VERTEX
10
0.6139
20
-55.8770
0
VERTEX
10
0.6207
20
-55.8884
0
VERTEX
10
0.6263
20
-55.8998
0
VERTEX
10
0.6306
20
-55.9112
0
VERTEX
10
0.6334
20
-55.9225
0
VERTEX
10
0.6349
20
-55.9339
0
VERTEX
10
0.6349
20
-55.9453
0
VERTEX
10
0.6334
20
-55.9567
0
VERTEX
10
0.6306
20
-55.9680
0
VERTEX
10
0.6263
20
-55.9794
0
VERTEX
10
0.6207
20
-55.9908
0
VERTEX
10
0.6139
20
-56.0022
0
VERTEX
10
0.6060
20
-56.0136
0
VERTEX
10
0.5970
20
-56.0249
0
VERTEX
10
0.5873
20
-56.0363
0
VERTEX
10
0.5769
20
-56.0477
0
VERTEX
10
0.5660
20
-56.0591
0
VERTEX
10
0.5547
20
-56.0705
0
VERTEX
10
0.5433
20
-56.0818
0
VERTEX
10
0.5320
20
-56.0932
0
VERTEX
10
0.5209
20
-56.1046
0
VERTEX
10
0.5102
20
-56.1160
0
VERTEX
10
0.5001
20
-56.1274
0
VERTEX
10
0.4907
20
-56.1387
0
VERTEX
10
0.4823
20
-56.1501
0
VERTEX
10
0.4749
20
-56.1615
0
VERTEX
10
0.4687
20
-56.1729
0
VERTEX
10
0.4638
20
-56.1843
0
VERTEX
10
0.4602
20
-56.1956
0
VERTEX
10
0.4580
20
-56.2070
0
VERTEX
10
0.4573
20
-56.2184
0
SEQEND
0
POLYLINE
8
M1_Neg
70
1
0
VERTEX
10
-0.4573
20
-55.6608
0
VERTEX
10
-0.4580
20
-55.6494
0
VERTEX
10
-0.4602
20
-55.6380
0
VERTEX
10
-0.4638
20
-55.6267
0
VERTEX
10
-0.4687
20
-55.6153
0
VERTEX
10
-0.4749
20
-55.6039
0
VERTEX
10
-0.4823
20
-55.5925
0
VERTEX
10
-0.4907
20
-55.5811
0
VERTEX
10
-0.5001
20
-55.5698
0
VERTEX
10
-0.5102
20
-55.5584
0
VERTEX
10
-0.5209
20
-55.5470
0
VERTEX
10
-0.5320
20
-55.5356
0
VERTEX
10
-0.5433
20
-55.5242
0
VERTEX
10
-0.5547
20
-55.5129
0
VERTEX
10
-0.5660
20
-55.5015
0
VERTEX
10
-0.5769
20
-55.4901
0
VERTEX
10
-0.5873
20
-55.4787
0
VERTEX
10
-0.5970
20
-55.4673
0
VERTEX
10
-0.6060
20
-55.4560
0
VERTEX
10
-0.6139
20
-55.4446
0
VERTEX
10
-0.6207
20
-55.4332
0
VERTEX
10
-0.6263
20
-55.4218
0
VERTEX
10
-0.6306
20
-55.4104
0
VERTEX
10
-0.6334
20
-55.3991
0
VERTEX
10
-0.6349
20
-55.3877
0
VERTEX
10
-0.6349
20
-55.3763
0
VERTEX
10
-0.6334
20
-55.3649
0
VERTEX
10
-0.6306
20
-55.3536
0
VERTEX
10
-0.6263
20
-55.3422
0
VERTEX
10
-0.6207
20
-55.3308
0
VERTEX
10
-0.6139
20
-55.3194
0
VERTEX
10
-0.6060
20
-55.3080
0
VERTEX
10
-0.5970
20
-55.2967
0
VERTEX
10
-0.5873
20
-55.2853
0
VERTEX
10
-0.5769
20
-55.2739
0
VERTEX
10
-0.5660
20
-55.2625
0
VERTEX
10
-0.5547
20
-55.2511
0
VERTEX
10
-0.5433
20
-55.2398
0
VERTEX
10
-0.5320
20
-55.2284
0
VERTEX
10
-0.5209
20
-55.2170
0
VERTEX
10
-0.5102
20
-55.2056
0
VERTEX
10
-0.5001
20
-55.1942
0
VERTEX
10
-0.4907
20
-55.1829
0
VERTEX
10
-0.4823
20
-55.1715
0
VERTEX
10
-0.4749
20
-55.1601
0
VERTEX
10
-0.4687
20
-55.1487
0
VERTEX
10
-0.4638
20
-55.1373
0
VERTEX
10
-0.4602
20
-55.1260
0
VERTEX
10
-0.4580
20
-55.1146
0
VERTEX
10
-0.4573
20
-55.1032
0
VERTEX
10
0.4573
20
-55.1032
0
VERTEX
10
0.4580
20
-55.1146
0
VERTEX
10
0.4602
20
-55.1260
0
VERTEX
10
0.4638
20
-55.1373
0
VERTEX
10
0.4687
20
-55.1487
0
VERTEX
10
0.4749
20
-55.1601
0
VERTEX
10
0.4823
20
-55.1715
0
VERTEX
10
0.4907
20
-55.1829
0
VERTEX
10
0.5001
20
-55.1942
0
VERTEX
10
0.5102
20
-55.2056
0
VERTEX
10
0.5209
20
-55.2170
0
VERTEX
10
0.5320
20
-55.2284
0
VERTEX
10
0.5433
20
-55.2398
0
VERTEX
10
0.5547
20
-55.2511
0
VERTEX
10
0.5660
20
-55.2625
0
VERTEX
10
0.5769
20
-55.2739
0
VERTEX
10
0.5873
20
-55.2853
0
VERTEX
10
0.5970
20
-55.2967
0
VERTEX
10
0.6060
20
-55.3080
0
VERTEX
10
0.6139
20
-55.3194
0
VERTEX
10
0.6207
20
-55.3308
0
VERTEX
10
0.6263
20
-55.3422
0
VERTEX
10
0.6306
20
-55.3536
0
VERTEX
10
0.6334
20
-55.3649
0
VERTEX
10
0.6349
20
-55.3763
0
VERTEX
10
0.6349
20
-55.3877
0
VERTEX
10
0.6334
20
-55.3991
0
VERTEX
10
0.6306
20
-55.4104
0
VERTEX
10
0.6263
20
-55.4218
0
VERTEX
10
0.6207
20
-55.4332
0
VERTEX
10
0.6139
20
-55.4446
0
VERTEX
10
0.6060
20
-55.4560
0
VERTEX
10
0.5970
20
-55.4673
0
VERTEX
10
0.5873
20
-55.4787
0
VERTEX
10
0.5769
20
-55.4901
0
VERTEX
10
0.5660
20
-55.5015
0
VERTEX
10
0.5547
20
-55.5129
0
VERTEX
10
0.5433
20
-55.5242
0
VERTEX
10
0.5320
20
-55.5356
0
VERTEX
10
0.5209
20
-55.5470
0
VERTEX
10
0.5102
20
-55.5584
0
VERTEX
10
0.5001
20
-55.5698
0
VERTEX
10
0.4907
20
-55.5811
0
VERTEX
10
0.4823
20
-55.5925
0
VERTEX
10
0.4749
20
-55.6039
0
VERTEX
10
0.4687
20
-55.6153
0
VERTEX
10
0.4638
20
-55.6267
0
VERTEX
10
0.4602
20
-55.6380
0
VERTEX
10
0.4580
20
-55.6494
0
VERTEX
10
0.4573
20
-55.6608
0
SEQEND
0
POLYLINE
8
M1_Neg
70
1
0
VERTEX
10
-0.4573
20
-55.1032
0
VERTEX
10
-0.4580
20
-55.0918
0
VERTEX
10
-0.4602
20
-55.0804
0
VERTEX
10
-0.4638
20
-55.0691
0
VERTEX
10
-0.4687
20
-55.0577
0
VERTEX
10
-0.4749
20
-55.0463
0
VERTEX
10
-0.4823
20
-55.0349
0
VERTEX
10
-0.4907
20
-55.0235
0
VERTEX
10
-0.5001
20
-55.0122
0
VERTEX
10
-0.5102
20
-55.0008
0
VERTEX
10
-0.5209
20
-54.9894
0
VERTEX
10
-0.5320
20
-54.9780
0
VERTEX
10
-0.5433
20
-54.9666
0
VERTEX
10
-0.5547
20
-54.9553
0
VERTEX
10
-0.5660
20
-54.9439
0
VERTEX
10
-0.5769
20
-54.9325
0
VERTEX
10
-0.5873
20
-54.9211
0
VERTEX
10
-0.5970
20
-54.9097
0
VERTEX
10
-0.6060
20
-54.8984
0
VERTEX
10
-0.6139
20
-54.8870
0
VERTEX
10
-0.6207
20
-54.8756
0
VERTEX
10
-0.6263
20
-54.8642
0
VERTEX
10
-0.6306
20
-54.8528
0
VERTEX
10
-0.6334
20
-54.8415
0
VERTEX
10
-0.6349
20
-54.8301
0
VERTEX
10
-0.6349
20
-54.8187
0
VERTEX
10
-0.6334
20
-54.8073
0
VERTEX
10
-0.6306
20
-54.7960
0
VERTEX
10
-0.6263
20
-54.7846
0
VERTEX
10
-0.6207
20
-54.7732
0
VERTEX
10
-0.6139
20
-54.7618
0
VERTEX
10
-0.6060
20
-54.7504
0
VERTEX
10
-0.5970
20
-54.7391
0
VERTEX
10
-0.5873
20
-54.7277
0
VERTEX
10
-0.5769
20
-54.7163
0
VERTEX
10
-0.5660
20
-54.7049
0
VERTEX
10
-0.5547
20
-54.6935
0
VERTEX
10
-0.5433
20
-54.6822
0
VERTEX
10
-0.5320
20
-54.6708
0
VERTEX
10
-0.5209
20
-54.6594
0
VERTEX
10
-0.5102
20
-54.6480
0
VERTEX
10
-0.5001
20
-54.6366
0
VERTEX
10
-0.4907
20
-54.6253
0
VERTEX
10
-0.4823
20
-54.6139
0
VERTEX
10
-0.4749
20
-54.6025
0
VERTEX
10
-0.4687
20
-54.5911
0
VERTEX
10
-0.4638
20
-54.5797
0
VERTEX
10
-0.4602
20
-54.5684
0
VERTEX
10
-0.4580
20
-54.5570
0
VERTEX
10
-0.4573
20
-54.5456
0
VERTEX
10
0.4573
20
-54.5456
0
VERTEX
10
0.4580
20
-54.5570
0
VERTEX
10
0.4602
20
-54.5684
0
VERTEX
10
0.4638
20
-54.5797
0
VERTEX
10
0.4687
20
-54.5911
0
VERTEX
10
0.4749
20
-54.6025
0
VERTEX
10
0.4823
20
-54.6139
0
VERTEX
10
0.4907
20
-54.6253
0
VERTEX
10
0.5001
20
-54.6366
0
VERTEX
10
0.5102
20
-54.6480
0
VERTEX
10
0.5209
20
-54.6594
0
VERTEX
10
0.5320
20
-54.6708
0
VERTEX
10
0.5433
20
-54.6822
0
VERTEX
10
0.5547
20
-54.6935
0
VERTEX
10
0.5660
20
-54.7049
0
VERTEX
10
0.5769
20
-54.7163
0
VERTEX
10
0.5873
20
-54.7277
0
VERTEX
10
0.5970
20
-54.7391
0
VERTEX
10
0.6060
20
-54.7504
0
VERTEX
10
0.6139
20
-54.7618
0
VERTEX
10
0.6207
20
-54.7732
0
VERTEX
10
0.6263
20
-54.7846
0
VERTEX
10
0.6306
20
-54.7960
0
VERTEX
10
0.6334
20
-54.8073
0
VERTEX
10
0.6349
20
-54.8187
0
VERTEX
10
0.6349
20
-54.8301
0
VERTEX
10
0.6334
20
-54.8415
0
VERTEX
10
0.6306
20
-54.8528
0
VERTEX
10
0.6263
20
-54.8642
0
VERTEX
10
0.6207
20
-54.8756
0
VERTEX
10
0.6139
20
-54.8870
0
VERTEX
10
0.6060
20
-54.8984
0
VERTEX
10
0.5970
20
-54.9097
0
VERTEX
10
0.5873
20
-54.9211
0
VERTEX
10
0.5769
20
-54.9325
0
VERTEX
10
0.5660
20
-54.9439
0
VERTEX
10
0.5547
20
-54.9553
0
VERTEX
10
0.5433
20
-54.9666
0
VERTEX
10
0.5320
20
-54.9780
0
VERTEX
10
0.5209
20
-54.9894
0
VERTEX
10
0.5102
20
-55.0008
0
VERTEX
10
0.5001
20
-55.0122
0
VERTEX
10
0.4907
20
-55.0235
0
VERTEX
10
0.4823
20
-55.0349
0
VERTEX
10
0.4749
20
-55.0463
0
VERTEX
10
0.4687
20
-55.0577
0
VERTEX
10
0.4638
20
-55.0691
0
VERTEX
10
0.4602
20
-55.0804
0
VERTEX
10
0.4580
20
-55.0918
0
VERTEX
10
0.4573
20
-55.1032
0
SEQEND
0
POLYLINE
8
M1_Neg
70
1
0
VERTEX
10
-0.4573
20
-54.5456
0
VERTEX
10
-0.4580
20
-54.5342
0
VERTEX
10
-0.4602
20
-54.5228
0
VERTEX
10
-0.4638
20
-54.5115
0
VERTEX
10
-0.4687
20
-54.5001
0
VERTEX
10
-0.4749
20
-54.4887
0
VERTEX
10
-0.4823
20
-54.4773
0
VERTEX
10
-0.4907
20
-54.4659
0
VERTEX
10
-0.5001
20
-54.4546
0
VERTEX
10
-0.5102
20
-54.4432
0
VERTEX
10
-0.5209
20
-54.4318
0
VERTEX
10
-0.5320
20
-54.4204
0
VERTEX
10
-0.5433
20
-54.4090
0
VERTEX
10
-0.5547
20
-54.3977
0
VERTEX
10
-0.5660
20
-54.3863
0
VERTEX
10
-0.5769
20
-54.3749
0
VERTEX
10
-0.5873
20
-54.3635
0
VERTEX
10
-0.5970
20
-54.3521
0
VERTEX
10
-0.6060
20
-54.3408
0
VERTEX
10
-0.6139
20
-54.3294
0
VERTEX
10
-0.6207
20
-54.3180
0
VERTEX
10
-0.6263
20
-54.3066
0
VERTEX
10
-0.6306
20
-54.2952
0
VERTEX
10
-0.6334
20
-54.2839
0
VERTEX
10
-0.6349
20
-54.2725
0
VERTEX
10
-0.6349
20
-54.2611
0
VERTEX
10
-0.6334
20
-54.2497
0
VERTEX
10
-0.6306
20
-54.2384
0
VERTEX
10
-0.6263
20
-54.2270
0
VERTEX
10
-0.6207
20
-54.2156
0
VERTEX
10
-0.6139
20
-54.2042
0
VERTEX
10
-0.6060
20
-54.1928
0
VERTEX
10
-0.5970
20
-54.1815
0
VERTEX
10
-0.5873
20
-54.1701
0
VERTEX
10
-0.5769
20
-54.1587
0
VERTEX
10
-0.5660
20
-54.1473
0
VERTEX
10
-0.5547
20
-54.1359
0
VERTEX
10
-0.5433
20
-54.1246
0
VERTEX
10
-0.5320
20
-54.1132
0
VERTEX
10
-0.5209
20
-54.1018
0
VERTEX
10
-0.5102
20
-54.0904
0
VERTEX
10
-0.5001
20
-54.0790
0
VERTEX
10
-0.4907
20
-54.0677
0
VERTEX
10
-0.4823
20
-54.0563
0
VERTEX
10
-0.4749
20
-54.0449
0
VERTEX
10
-0.4687
20
-54.0335
0
VERTEX
10
-0.4638
20
-54.0221
0
VERTEX
10
-0.4602
20
-54.0108
0
VERTEX
10
-0.4580
20
-53.9994
0
VERTEX
10
-0.4573
20
-53.9880
0
VERTEX
10
0.4573
20
-53.9880
0
VERTEX
10
0.4580
20
-53.9994
0
VERTEX
10
0.4602
20
-54.0108
0
VERTEX
10
0.4638
20
-54.0221
0
VERTEX
10
0.4687
20
-54.0335
0
VERTEX
10
0.4749
20
-54.0449
0
VERTEX
10
0.4823
20
-54.0563
0
VERTEX
10
0.4907
20
-54.0677
0
VERTEX
10
0.5001
20
-54.0790
0
VERTEX
10
0.5102
20
-54.0904
0
VERTEX
10
0.5209
20
-54.1018
0
VERTEX
10
0.5320
20
-54.1132
0
VERTEX
10
0.5433
20
-54.1246
0
VERTEX
10
0.5547
20
-54.1359
0
VERTEX
10
0.5660
20
-54.1473
0
VERTEX
10
0.5769
20
-54.1587
0
VERTEX
10
0.5873
20
-54.1701
0
VERTEX
10
0.5970
20
-54.1815
0
VERTEX
10
0.6060
20
-54.1928
0
VERTEX
10
0.6139
20
-54.2042
0
VERTEX
10
0.6207
20
-54.2156
0
VERTEX
10
0.6263
20
-54.2270
0
VERTEX
10
0.6306
20
-54.2384
0
VERTEX
10
0.6334
20
-54.2497
0
VERTEX
10
0.6349
20
-54.2611
0
VERTEX
10
0.6349
20
-54.2725
0
VERTEX
10
0.6334
20
-54.2839
0
VERTEX
10
0.6306
20
-54.2952
0
VERTEX
10
0.6263
20
-54.3066
0
VERTEX
10
0.6207
20
-54.3180
0
VERTEX
10
0.6139
20
-54.3294
0
VERTEX
10
0.6060
20
-54.3408
0
VERTEX
10
0.5970
20
-54.3521
0
VERTEX
10
0.5873
20
-54.3635
0
VERTEX
10
0.5769
20
-54.3749
0
VERTEX
10
0.5660
20
-54.3863
0
VERTEX
10
0.5547
20
-54.3977
0
VERTEX
10
0.5433
20
-54.4090
0
VERTEX
10
0.5320
20
-54.4204
0
VERTEX
10
0.5209
20
-54.4318
0
VERTEX
10
0.5102
20
-54.4432
0
VERTEX
10
0.5001
20
-54.4546
0
VERTEX
10
0.4907
20
-54.4659
0
VERTEX
10
0.4823
20
-54.4773
0
VERTEX
10
0.4749
20
-54.4887
0
VERTEX
10
0.4687
20
-54.5001
0
VERTEX
10
0.4638
20
-54.5115
0
VERTEX
10
0.4602
20
-54.5228
0
VERTEX
10
0.4580
20
-54.5342
0
VERTEX
10
0.4573
20
-54.5456
0
SEQEND
0
POLYLINE
8
M1_Neg
70
1
0
VERTEX
10
-0.4573
20
-53.9880
0
VERTEX
10
-0.4580
20
-53.9766
0
VERTEX
10
-0.4602
20
-53.9652
0
VERTEX
10
-0.4638
20
-53.9539
0
VERTEX
10
-0.4687
20
-53.9425
0
VERTEX
10
-0.4749
20
-53.9311
0
VERTEX
10
-0.4823
20
-53.9197
0
VERTEX
10
-0.4907
20
-53.9083
0
VERTEX
10
-0.5001
20
-53.8970
0
VERTEX
10
-0.5102
20
-53.8856
0
VERTEX
10
-0.5209
20
-53.8742
0
VERTEX
10
-0.5320
20
-53.8628
0
VERTEX
10
-0.5433
20
-53.8514
0
VERTEX
10
-0.5547
20
-53.8401
0
VERTEX
10
-0.5660
20
-53.8287
0
VERTEX
10
-0.5769
20
-53.8173
0
VERTEX
10
-0.5873
20
-53.8059
0
VERTEX
10
-0.5970
20
-53.7945
0
VERTEX
10
-0.6060
20
-53.7832
0
VERTEX
10
-0.6139
20
-53.7718
0
VERTEX
10
-0.6207
20
-53.7604
0
VERTEX
10
-0.6263
20
-53.7490
0
VERTEX
10
-0.6306
20
-53.7376
0
VERTEX
10
-0.6334
20
-53.7263
0
VERTEX
10
-0.6349
20
-53.7149
0
VERTEX
10
-0.6349
20
-53.7035
0
VERTEX
10
-0.6334
20
-53.6921
0
VERTEX
10
-0.6306
20
-53.6808
0
VERTEX
10
-0.6263
20
-53.6694
0
VERTEX
10
-0.6207
20
-53.6580
0
VERTEX
10
-0.6139
20
-53.6466
0
VERTEX
10
-0.6060
20
-53.6352
0
VERTEX
10
-0.5970
20
-53.6239
0
VERTEX
10
-0.5873
20
-53.6125
0
VERTEX
10
-0.5769
20
-53.6011
0
VERTEX
10
-0.5660
20
-53.5897
0
VERTEX
10
-0.5547
20
-53.5783
0
VERTEX
10
-0.5433
20
-53.5670
0
VERTEX
10
-0.5320
20
-53.5556
0
VERTEX
10
-0.5209
20
-53.5442
0
VERTEX
10
-0.5102
20
-53.5328
0
VERTEX
10
-0.5001
20
-53.5214
0
VERTEX
10
-0.4907
20
-53.5101
0
VERTEX
10
-0.4823
20
-53.4987
0
VERTEX
10
-0.4749
20
-53.4873
0
VERTEX
10
-0.4687
20
-53.4759
0
VERTEX
10
-0.4638
20
-53.4645
0
VERTEX
10
-0.4602
20
-53.4532
0
VERTEX
10
-0.4580
20
-53.4418
0
VERTEX
10
-0.4573
20
-53.4304
0
VERTEX
10
0.4573
20
-53.4304
0
VERTEX
10
0.4580
20
-53.4418
0
VERTEX
10
0.4602
20
-53.4532
0
VERTEX
10
0.4638
20
-53.4645
0
VERTEX
10
0.4687
20
-53.4759
0
VERTEX
10
0.4749
20
-53.4873
0
VERTEX
10
0.4823
20
-53.4987
0
VERTEX
10
0.4907
20
-53.5101
0
VERTEX
10
0.5001
20
-53.5214
0
VERTEX
10
0.5102
20
-53.5328
0
VERTEX
10
0.5209
20
-53.5442
0
VERTEX
10
0.5320
20
-53.5556
0
VERTEX
10
0.5433
20
-53.5670
0
VERTEX
10
0.5547
20
-53.5783
0
VERTEX
10
0.5660
20
-53.5897
0
VERTEX
10
0.5769
20
-53.6011
0
VERTEX
10
0.5873
20
-53.6125
0
VERTEX
10
0.5970
20
-53.6239
0
VERTEX
10
0.6060
20
-53.6352
0
VERTEX
10
0.6139
20
-53.6466
0
VERTEX
10
0.6207
20
-53.6580
0
VERTEX
10
0.6263
20
-53.6694
0
VERTEX
10
0.6306
20
-53.6808
0
VERTEX
10
0.6334
20
-53.6921
0
VERTEX
10
0.6349
20
-53.7035
0
VERTEX
10
0.6349
20
-53.7149
0
VERTEX
10
0.6334
20
-53.7263
0
VERTEX
10
0.6306
20
-53.7376
0
VERTEX
10
0.6263
20
-53.7490
0
VERTEX
10
0.6207
20
-53.7604
0
VERTEX
10
0.6139
20
-53.7718
0
VERTEX
10
0.6060
20
-53.7832
0
VERTEX
10
0.5970
20
-53.7945
0
VERTEX
10
0.5873
20
-53.8059
0
VERTEX
10
0.5769
20
-53.8173
0
VERTEX
10
0.5660
20
-53.8287
0
VERTEX
10
0.5547
20
-53.8401
0
VERTEX
10
0.5433
20
-53.8514
0
VERTEX
10
0.5320
20
-53.8628
0
VERTEX
10
0.5209
20
-53.8742
0
VERTEX
10
0.5102
20
-53.8856
0
VERTEX
10
0.5001
20
-53.8970
0
VERTEX
10
0.4907
20
-53.9083
0
VERTEX
10
0.4823
20
-53.9197
0
VERTEX
10
0.4749
20
-53.9311
0
VERTEX
10
0.4687
20
-53.9425
0
VERTEX
10
0.4638
20
-53.9539
0
VERTEX
10
0.4602
20
-53.9652
0
VERTEX
10
0.4580
20
-53.9766
0
VERTEX
10
0.4573
20
-53.9880
0
SEQEND
0
POLYLINE
8
M1_Neg
70
1
0
VERTEX
10
-0.4573
20
-53.4304
0
VERTEX
10
-0.4580
20
-53.4190
0
VERTEX
10
-0.4602
20
-53.4076
0
VERTEX
10
-0.4638
20
-53.3963
0
VERTEX
10
-0.4687
20
-53.3849
0
VERTEX
10
-0.4749
20
-53.3735
0
VERTEX
10
-0.4823
20
-53.3621
0
VERTEX
10
-0.4907
20
-53.3507
0
VERTEX
10
-0.5001
20
-53.3394
0
VERTEX
10
-0.5102
20
-53.3280
0
VERTEX
10
-0.5209
20
-53.3166
0
VERTEX
10
-0.5320
20
-53.3052
0
VERTEX
10
-0.5433
20
-53.2938
0
VERTEX
10
-0.5547
20
-53.2825
0
VERTEX
10
-0.5660
20
-53.2711
0
VERTEX
10
-0.5769
20
-53.2597
0
VERTEX
10
-0.5873
20
-53.2483
0
VERTEX
10
-0.5970
20
-53.2369
0
VERTEX
10
-0.6060
20
-53.2256
0
VERTEX
10
-0.6139
20
-53.2142
0
VERTEX
10
-0.6207
20
-53.2028
0
VERTEX
10
-0.6263
20
-53.1914
0
VERTEX
10
-0.6306
20
-53.1800
0
VERTEX
10
-0.6334
20
-53.1687
0
VERTEX
10
-0.6349
20
-53.1573
0
VERTEX
10
-0.6349
20
-53.1459
0
VERTEX
10
-0.6334
20
-53.1345
0
VERTEX
10
-0.6306
20
-53.1232
0
VERTEX
10
-0.6263
20
-53.1118
0
VERTEX
10
-0.6207
20
-53.1004
0
VERTEX
10
-0.6139
20
-53.0890
0
VERTEX
10
-0.6060
20
-53.0776
0
VERTEX
10
-0.5970
20
-53.0663
0
VERTEX
10
-0.5873
20
-53.0549
0
VERTEX
10
-0.5769
20
-53.0435
0
VERTEX
10
-0.5660
20
-53.0321
0
VERTEX
10
-0.5547
20
-53.0207
0
VERTEX
10
-0.5433
20
-53.0094
0
VERTEX
10
-0.5320
20
-52.9980
0
VERTEX
10
-0.5209
20
-52.9866
0
VERTEX
10
-0.5102
20
-52.9752
0
VERTEX
10
-0.5001
20
-52.9638
0
VERTEX
10
-0.4907
20
-52.9525
0
VERTEX
10
-0.4823
20
-52.9411
0
VERTEX
10
-0.4749
20
-52.9297
0
VERTEX
10
-0.4687
20
-52.9183
0
VERTEX
10
-0.4638
20
-52.9069
0
VERTEX
10
-0.4602
20
-52.8956
0
VERTEX
10
-0.4580
20
-52.8842
0
VERTEX
10
-0.4573
20
-52.8728
0
VERTEX
10
0.4573
20
-52.8728
0
VERTEX
10
0.4580
20
-52.8842
0
VERTEX
10
0.4602
20
-52.8956
0
VERTEX
10
0.4638
20
-52.9069
0
VERTEX
10
0.4687
20
-52.9183
0
VERTEX
10
0.4749
20
-52.9297
0
VERTEX
10
0.4823
20
-52.9411
0
VERTEX
10
0.4907
20
-52.9525
0
VERTEX
10
0.5001
20
-52.9638
0
VERTEX
10
0.5102
20
-52.9752
0
VERTEX
10
0.5209
20
-52.9866
0
VERTEX
10
0.5320
20
-52.9980
0
VERTEX
10
0.5433
20
-53.0094
0
VERTEX
10
0.5547
20
-53.0207
0
VERTEX
10
0.5660
20
-53.0321
0
VERTEX
10
0.5769
20
-53.0435
0
VERTEX
10
0.5873
20
-53.0549
0
VERTEX
10
0.5970
20
-53.0663
0
VERTEX
10
0.6060
20
-53.0776
0
VERTEX
10
0.6139
20
-53.0890
0
VERTEX
10
0.6207
20
-53.1004
0
VERTEX
10
0.6263
20
-53.1118
0
VERTEX
10
0.6306
20
-53.1232
0
VERTEX
10
0.6334
20
-53.1345
0
VERTEX
10
0.6349
20
-53.1459
0
VERTEX
10
0.6349
20
-53.1573
0
VERTEX
10
0.6334
20
-53.1687
0
VERTEX
10
0.6306
20
-53.1800
0
VERTEX
10
0.6263
20
-53.1914
0
VERTEX
10
0.6207
20
-53.2028
0
VERTEX
10
0.6139
20
-53.2142
0
VERTEX
10
0.6060
20
-53.2256
0
VERTEX
10
0.5970
20
-53.2369
0
VERTEX
10
0.5873
20
-53.2483
0
VERTEX
10
0.5769
20
-53.2597
0
VERTEX
10
0.5660
20
-53.2711
0
VERTEX
10
0.5547
20
-53.2825
0
VERTEX
10
0.5433
20
-53.2938
0
VERTEX
10
0.5320
20
-53.3052
0
VERTEX
10
0.5209
20
-53.3166
0
VERTEX
10
0.5102
20
-53.3280
0
VERTEX
10
0.5001
20
-53.3394
0
VERTEX
10
0.4907
20
-53.3507
0
VERTEX
10
0.4823
20
-53.3621
0
VERTEX
10
0.4749
20
-53.3735
0
VERTEX
10
0.4687
20
-53.3849
0
VERTEX
10
0.4638
20
-53.3963
0
VERTEX
10
0.4602
20
-53.4076
0
VERTEX
10
0.4580
20
-53.4190
0
VERTEX
10
0.4573
20
-53.4304
0
SEQEND
0
POLYLINE
8
M1_Neg
70
1
0
VERTEX
10
-0.4573
20
-52.8728
0
VERTEX
10
-0.4580
20
-52.8614
0
VERTEX
10
-0.4602
20
-52.8500
0
VERTEX
10
-0.4638
20
-52.8387
0
VERTEX
10
-0.4687
20
-52.8273
0
VERTEX
10
-0.4749
20
-52.8159
0
VERTEX
10
-0.4823
20
-52.8045
0
VERTEX
10
-0.4907
20
-52.7931
0
VERTEX
10
-0.5001
20
-52.7818
0
VERTEX
10
-0.5102
20
-52.7704
0
VERTEX
10
-0.5209
20
-52.7590
0
VERTEX
10
-0.5320
20
-52.7476
0
VERTEX
10
-0.5433
20
-52.7362
0
VERTEX
10
-0.5547
20
-52.7249
0
VERTEX
10
-0.5660
20
-52.7135
0
VERTEX
10
-0.5769
20
-52.7021
0
VERTEX
10
-0.5873
20
-52.6907
0
VERTEX
10
-0.5970
20
-52.6793
0
VERTEX
10
-0.6060
20
-52.6680
0
VERTEX
10
-0.6139
20
-52.6566
0
VERTEX
10
-0.6207
20
-52.6452
0
VERTEX
10
-0.6263
20
-52.6338
0
VERTEX
10
-0.6306
20
-52.6224
0
VERTEX
10
-0.6334
20
-52.6111
0
VERTEX
10
-0.6349
20
-52.5997
0
VERTEX
10
-0.6349
20
-52.5883
0
VERTEX
10
-0.6334
20
-52.5769
0
VERTEX
10
-0.6306
20
-52.5656
0
VERTEX
10
-0.6263
20
-52.5542
0
VERTEX
10
-0.6207
20
-52.5428
0
VERTEX
10
-0.6139
20
-52.5314
0
VERTEX
10
-0.6060
20
-52.5200
0
VERTEX
10
-0.5970
20
-52.5087
0
VERTEX
10
-0.5873
20
-52.4973
0
VERTEX
10
-0.5769
20
-52.4859
0
VERTEX
10
-0.5660
20
-52.4745
0
VERTEX
10
-0.5547
20
-52.4631
0
VERTEX
10
-0.5433
20
-52.4518
0
VERTEX
10
-0.5320
20
-52.4404
0
VERTEX
10
-0.5209
20
-52.4290
0
VERTEX
10
-0.5102
20
-52.4176
0
VERTEX
10
-0.5001
20
-52.4062
0
VERTEX
10
-0.4907
20
-52.3949
0
VERTEX
10
-0.4823
20
-52.3835
0
VERTEX
10
-0.4749
20
-52.3721
0
VERTEX
10
-0.4687
20
-52.3607
0
VERTEX
10
-0.4638
20
-52.3493
0
VERTEX
10
-0.4602
20
-52.3380
0
VERTEX
10
-0.4580
20
-52.3266
0
VERTEX
10
-0.4573
20
-52.3152
0
VERTEX
10
0.4573
20
-52.3152
0
VERTEX
10
0.4580
20
-52.3266
0
VERTEX
10
0.4602
20
-52.3380
0
VERTEX
10
0.4638
20
-52.3493
0
VERTEX
10
0.4687
20
-52.3607
0
VERTEX
10
0.4749
20
-52.3721
0
VERTEX
10
0.4823
20
-52.3835
0
VERTEX
10
0.4907
20
-52.3949
0
VERTEX
10
0.5001
20
-52.4062
0
VERTEX
10
0.5102
20
-52.4176
0
VERTEX
10
0.5209
20
-52.4290
0
VERTEX
10
0.5320
20
-52.4404
0
VERTEX
10
0.5433
20
-52.4518
0
VERTEX
10
0.5547
20
-52.4631
0
VERTEX
10
0.5660
20
-52.4745
0
VERTEX
10
0.5769
20
-52.4859
0
VERTEX
10
0.5873
20
-52.4973
0
VERTEX
10
0.5970
20
-52.5087
0
VERTEX
10
0.6060
20
-52.5200
0
VERTEX
10
0.6139
20
-52.5314
0
VERTEX
10
0.6207
20
-52.5428
0
VERTEX
10
0.6263
20
-52.5542
0
VERTEX
10
0.6306
20
-52.5656
0
VERTEX
10
0.6334
20
-52.5769
0
VERTEX
10
0.6349
20
-52.5883
0
VERTEX
10
0.6349
20
-52.5997
0
VERTEX
10
0.6334
20
-52.6111
0
VERTEX
10
0.6306
20
-52.6224
0
VERTEX
10
0.6263
20
-52.6338
0
VERTEX
10
0.6207
20
-52.6452
0
VERTEX
10
0.6139
20
-52.6566
0
VERTEX
10
0.6060
20
-52.6680
0
VERTEX
10
0.5970
20
-52.6793
0
VERTEX
10
0.5873
20
-52.6907
0
VERTEX
10
0.5769
20
-52.7021
0
VERTEX
10
0.5660
20
-52.7135
0
VERTEX
10
0.5547
20
-52.7249
0
VERTEX
10
0.5433
20
-52.7362
0
VERTEX
10
0.5320
20
-52.7476
0
VERTEX
10
0.5209
20
-52.7590
0
VERTEX
10
0.5102
20
-52.7704
0
VERTEX
10
0.5001
20
-52.7818
0
VERTEX
10
0.4907
20
-52.7931
0
VERTEX
10
0.4823
20
-52.8045
0
VERTEX
10
0.4749
20
-52.8159
0
VERTEX
10
0.4687
20
-52.8273
0
VERTEX
10
0.4638
20
-52.8387
0
VERTEX
10
0.4602
20
-52.8500
0
VERTEX
10
0.4580
20
-52.8614
0
VERTEX
10
0.4573
20
-52.8728
0
SEQEND
0
POLYLINE
8
M1_Neg
70
1
0
VERTEX
10
-0.4573
20
-52.3152
0
VERTEX
10
-0.4580
20
-52.3038
0
VERTEX
10
-0.4602
20
-52.2924
0
VERTEX
10
-0.4638
20
-52.2811
0
VERTEX
10
-0.4687
20
-52.2697
0
VERTEX
10
-0.4749
20
-52.2583
0
VERTEX
10
-0.4823
20
-52.2469
0
VERTEX
10
-0.4907
20
-52.2355
0
VERTEX
10
-0.5001
20
-52.2242
0
VERTEX
10
-0.5102
20
-52.2128
0
VERTEX
10
-0.5209
20
-52.2014
0
VERTEX
10
-0.5320
20
-52.1900
0
VERTEX
10
-0.5433
20
-52.1786
0
VERTEX
10
-0.5547
20
-52.1673
0
VERTEX
10
-0.5660
20
-52.1559
0
VERTEX
10
-0.5769
20
-52.1445
0
VERTEX
10
-0.5873
20
-52.1331
0
VERTEX
10
-0.5970
20
-52.1217
0
VERTEX
10
-0.6060
20
-52.1104
0
VERTEX
10
-0.6139
20
-52.0990
0
VERTEX
10
-0.6207
20
-52.0876
0
VERTEX
10
-0.6263
20
-52.0762
0
VERTEX
10
-0.6306
20
-52.0648
0
VERTEX
10
-0.6334
20
-52.0535
0
VERTEX
10
-0.6349
20
-52.0421
0
VERTEX
10
-0.6349
20
-52.0307
0
VERTEX
10
-0.6334
20
-52.0193
0
VERTEX
10
-0.6306
20
-52.0080
0
VERTEX
10
-0.6263
20
-51.9966
0
VERTEX
10
-0.6207
20
-51.9852
0
VERTEX
10
-0.6139
20
-51.9738
0
VERTEX
10
-0.6060
20
-51.9624
0
VERTEX
10
-0.5970
20
-51.9511
0
VERTEX
10
-0.5873
20
-51.9397
0
VERTEX
10
-0.5769
20
-51.9283
0
VERTEX
10
-0.5660
20
-51.9169
0
VERTEX
10
-0.5547
20
-51.9055
0
VERTEX
10
-0.5433
20
-51.8942
0
VERTEX
10
-0.5320
20
-51.8828
0
VERTEX
10
-0.5209
20
-51.8714
0
VERTEX
10
-0.5102
20
-51.8600
0
VERTEX
10
-0.5001
20
-51.8486
0
VERTEX
10
-0.4907
20
-51.8373
0
VERTEX
10
-0.4823
20
-51.8259
0
VERTEX
10
-0.4749
20
-51.8145
0
VERTEX
10
-0.4687
20
-51.8031
0
VERTEX
10
-0.4638
20
-51.7917
0
VERTEX
10
-0.4602
20
-51.7804
0
VERTEX
10
-0.4580
20
-51.7690
0
VERTEX
10
-0.4573
20
-51.7576
0
VERTEX
10
0.4573
20
-51.7576
0
VERTEX
10
0.4580
20
-51.7690
0
VERTEX
10
0.4602
20
-51.7804
0
VERTEX
10
0.4638
20
-51.7917
0
VERTEX
10
0.4687
20
-51.8031
0
VERTEX
10
0.4749
20
-51.8145
0
VERTEX
10
0.4823
20
-51.8259
0
VERTEX
10
0.4907
20
-51.8373
0
VERTEX
10
0.5001
20
-51.8486
0
VERTEX
10
0.5102
20
-51.8600
0
VERTEX
10
0.5209
20
-51.8714
0
VERTEX
10
0.5320
20
-51.8828
0
VERTEX
10
0.5433
20
-51.8942
0
VERTEX
10
0.5547
20
-51.9055
0
VERTEX
10
0.5660
20
-51.9169
0
VERTEX
10
0.5769
20
-51.9283
0
VERTEX
10
0.5873
20
-51.9397
0
VERTEX
10
0.5970
20
-51.9511
0
VERTEX
10
0.6060
20
-51.9624
0
VERTEX
10
0.6139
20
-51.9738
0
VERTEX
10
0.6207
20
-51.9852
0
VERTEX
10
0.6263
20
-51.9966
0
VERTEX
10
0.6306
20
-52.0080
0
VERTEX
10
0.6334
20
-52.0193
0
VERTEX
10
0.6349
20
-52.0307
0
VERTEX
10
0.6349
20
-52.0421
0
VERTEX
10
0.6334
20
-52.0535
0
VERTEX
10
0.6306
20
-52.0648
0
VERTEX
10
0.6263
20
-52.0762
0
VERTEX
10
0.6207
20
-52.0876
0
VERTEX
10
0.6139
20
-52.0990
0
VERTEX
10
0.6060
20
-52.1104
0
VERTEX
10
0.5970
20
-52.1217
0
VERTEX
10
0.5873
20
-52.1331
0
VERTEX
10
0.5769
20
-52.1445
0
VERTEX
10
0.5660
20
-52.1559
0
VERTEX
10
0.5547
20
-52.1673
0
VERTEX
10
0.5433
20
-52.1786
0
VERTEX
10
0.5320
20
-52.1900
0
VERTEX
10
0.5209
20
-52.2014
0
VERTEX
10
0.5102
20
-52.2128
0
VERTEX
10
0.5001
20
-52.2242
0
VERTEX
10
0.4907
20
-52.2355
0
VERTEX
10
0.4823
20
-52.2469
0
VERTEX
10
0.4749
20
-52.2583
0
VERTEX
10
0.4687
20
-52.2697
0
VERTEX
10
0.4638
20
-52.2811
0
VERTEX
10
0.4602
20
-52.2924
0
VERTEX
10
0.4580
20
-52.3038
0
VERTEX
10
0.4573
20
-52.3152
0
SEQEND
0
POLYLINE
8
M1_Neg
70
1
0
VERTEX
10
-0.4573
20
-51.7576
0
VERTEX
10
-0.4580
20
-51.7462
0
VERTEX
10
-0.4602
20
-51.7348
0
VERTEX
10
-0.4638
20
-51.7235
0
VERTEX
10
-0.4687
20
-51.7121
0
VERTEX
10
-0.4749
20
-51.7007
0
VERTEX
10
-0.4823
20
-51.6893
0
VERTEX
10
-0.4907
20
-51.6779
0
VERTEX
10
-0.5001
20
-51.6666
0
VERTEX
10
-0.5102
20
-51.6552
0
VERTEX
10
-0.5209
20
-51.6438
0
VERTEX
10
-0.5320
20
-51.6324
0
VERTEX
10
-0.5433
20
-51.6210
0
VERTEX
10
-0.5547
20
-51.6097
0
VERTEX
10
-0.5660
20
-51.5983
0
VERTEX
10
-0.5769
20
-51.5869
0
VERTEX
10
-0.5873
20
-51.5755
0
VERTEX
10
-0.5970
20
-51.5641
0
VERTEX
10
-0.6060
20
-51.5528
0
VERTEX
10
-0.6139
20
-51.5414
0
VERTEX
10
-0.6207
20
-51.5300
0
VERTEX
10
-0.6263
20
-51.5186
0
VERTEX
10
-0.6306
20
-51.5072
0
VERTEX
10
-0.6334
20
-51.4959
0
VERTEX
10
-0.6349
20
-51.4845
0
VERTEX
10
-0.6349
20
-51.4731
0
VERTEX
10
-0.6334
20
-51.4617
0
VERTEX
10
-0.6306
20
-51.4504
0
VERTEX
10
-0.6263
20
-51.4390
0
VERTEX
10
-0.6207
20
-51.4276
0
VERTEX
10
-0.6139
20
-51.4162
0
VERTEX
10
-0.6060
20
-51.4048
0
VERTEX
10
-0.5970
20
-51.3935
0
VERTEX
10
-0.5873
20
-51.3821
0
VERTEX
10
-0.5769
20
-51.3707
0
VERTEX
10
-0.5660
20
-51.3593
0
VERTEX
10
-0.5547
20
-51.3479
0
VERTEX
10
-0.5433
20
-51.3366
0
VERTEX
10
-0.5320
20
-51.3252
0
VERTEX
10
-0.5209
20
-51.3138
0
VERTEX
10
-0.5102
20
-51.3024
0
VERTEX
10
-0.5001
20
-51.2910
0
VERTEX
10
-0.4907
20
-51.2797
0
VERTEX
10
-0.4823
20
-51.2683
0
VERTEX
10
-0.4749
20
-51.2569
0
VERTEX
10
-0.4687
20
-51.2455
0
VERTEX
10
-0.4638
20
-51.2341
0
VERTEX
10
-0.4602
20
-51.2228
0
VERTEX
10
-0.4580
20
-51.2114
0
VERTEX
10
-0.4573
20
-51.2000
0
VERTEX
10
0.4573
20
-51.2000
0
VERTEX
10
0.4580
20
-51.2114
0
VERTEX
10
0.4602
20
-51.2228
0
VERTEX
10
0.4638
20
-51.2341
0
VERTEX
10
0.4687
20
-51.2455
0
VERTEX
10
0.4749
20
-51.2569
0
VERTEX
10
0.4823
20
-51.2683
0
VERTEX
10
0.4907
20
-51.2797
0
VERTEX
10
0.5001
20
-51.2910
0
VERTEX
10
0.5102
20
-51.3024
0
VERTEX
10
0.5209
20
-51.3138
0
VERTEX
10
0.5320
20
-51.3252
0
VERTEX
10
0.5433
20
-51.3366
0
VERTEX
10
0.5547
20
-51.3479
0
VERTEX
10
0.5660
20
-51.3593
0
VERTEX
10
0.5769
20
-51.3707
0
VERTEX
10
0.5873
20
-51.3821
0
VERTEX
10
0.5970
20
-51.3935
0
VERTEX
10
0.6060
20
-51.4048
0
VERTEX
10
0.6139
20
-51.4162
0
VERTEX
10
0.6207
20
-51.4276
0
VERTEX
10
0.6263
20
-51.4390
0
VERTEX
10
0.6306
20
-51.4504
0
VERTEX
10
0.6334
20
-51.4617
0
VERTEX
10
0.6349
20
-51.4731
0
VERTEX
10
0.6349
20
-51.4845
0
VERTEX
10
0.6334
20
-51.4959
0
VERTEX
10
0.6306
20
-51.5072
0
VERTEX
10
0.6263
20
-51.5186
0
VERTEX
10
0.6207
20
-51.5300
0
VERTEX
10
0.6139
20
-51.5414
0
VERTEX
10
0.6060
20
-51.5528
0
VERTEX
10
0.5970
20
-51.5641
0
VERTEX
10
0.5873
20
-51.5755
0
VERTEX
10
0.5769
20
-51.5869
0
VERTEX
10
0.5660
20
-51.5983
0
VERTEX
10
0.5547
20
-51.6097
0
VERTEX
10
0.5433
20
-51.6210
0
VERTEX
10
0.5320
20
-51.6324
0
VERTEX
10
0.5209
20
-51.6438
0
VERTEX
10
0.5102
20
-51.6552
0
VERTEX
10
0.5001
20
-51.6666
0
VERTEX
10
0.4907
20
-51.6779
0
VERTEX
10
0.4823
20
-51.6893
0
VERTEX
10
0.4749
20
-51.7007
0
VERTEX
10
0.4687
20
-51.7121
0
VERTEX
10
0.4638
20
-51.7235
0
VERTEX
10
0.4602
20
-51.7348
0
VERTEX
10
0.4580
20
-51.7462
0
VERTEX
10
0.4573
20
-51.7576
0
SEQEND
0
POLYLINE
8
M1_Neg
70
1
0
VERTEX
10
-0.4573
20
-51.2000
0
VERTEX
10
-0.4579
20
-51.1886
0
VERTEX
10
-0.4600
20
-51.1772
0
VERTEX
10
-0.4635
20
-51.1659
0
VERTEX
10
-0.4684
20
-51.1545
0
VERTEX
10
-0.4746
20
-51.1431
0
VERTEX
10
-0.4819
20
-51.1317
0
VERTEX
10
-0.4902
20
-51.1203
0
VERTEX
10
-0.4995
20
-51.1090
0
VERTEX
10
-0.5095
20
-51.0976
0
VERTEX
10
-0.5201
20
-51.0862
0
VERTEX
10
-0.5312
20
-51.0748
0
VERTEX
10
-0.5425
20
-51.0634
0
VERTEX
10
-0.5538
20
-51.0521
0
VERTEX
10
-0.5649
20
-51.0407
0
VERTEX
10
-0.5758
20
-51.0293
0
VERTEX
10
-0.5861
20
-51.0179
0
VERTEX
10
-0.5958
20
-51.0065
0
VERTEX
10
-0.6046
20
-50.9952
0
VERTEX
10
-0.6125
20
-50.9838
0
VERTEX
10
-0.6192
20
-50.9724
0
VERTEX
10
-0.6247
20
-50.9610
0
VERTEX
10
-0.6289
20
-50.9496
0
VERTEX
10
-0.6318
20
-50.9383
0
VERTEX
10
-0.6331
20
-50.9269
0
VERTEX
10
-0.6331
20
-50.9155
0
VERTEX
10
-0.6315
20
-50.9041
0
VERTEX
10
-0.6286
20
-50.8928
0
VERTEX
10
-0.6242
20
-50.8814
0
VERTEX
10
-0.6186
20
-50.8700
0
VERTEX
10
-0.6117
20
-50.8586
0
VERTEX
10
-0.6037
20
-50.8472
0
VERTEX
10
-0.5947
20
-50.8359
0
VERTEX
10
-0.5849
20
-50.8245
0
VERTEX
10
-0.5744
20
-50.8131
0
VERTEX
10
-0.5634
20
-50.8017
0
VERTEX
10
-0.5521
20
-50.7903
0
VERTEX
10
-0.5406
20
-50.7790
0
VERTEX
10
-0.5292
20
-50.7676
0
VERTEX
10
-0.5180
20
-50.7562
0
VERTEX
10
-0.5073
20
-50.7448
0
VERTEX
10
-0.4971
20
-50.7334
0
VERTEX
10
-0.4877
20
-50.7221
0
VERTEX
10
-0.4792
20
-50.7107
0
VERTEX
10
-0.4717
20
-50.6993
0
VERTEX
10
-0.4654
20
-50.6879
0
VERTEX
10
-0.4604
20
-50.6765
0
VERTEX
10
-0.4567
20
-50.6652
0
VERTEX
10
-0.4545
20
-50.6538
0
VERTEX
10
-0.4537
20
-50.6424
0
VERTEX
10
0.4537
20
-50.6424
0
VERTEX
10
0.4545
20
-50.6538
0
VERTEX
10
0.4567
20
-50.6652
0
VERTEX
10
0.4604
20
-50.6765
0
VERTEX
10
0.4654
20
-50.6879
0
VERTEX
10
0.4717
20
-50.6993
0
VERTEX
10
0.4792
20
-50.7107
0
VERTEX
10
0.4877
20
-50.7221
0
VERTEX
10
0.4971
20
-50.7334
0
VERTEX
10
0.5073
20
-50.7448
0
VERTEX
10
0.5180
20
-50.7562
0
VERTEX
10
0.5292
20
-50.7676
0
VERTEX
10
0.5406
20
-50.7790
0
VERTEX
10
0.5521
20
-50.7903
0
VERTEX
10
0.5634
20
-50.8017
0
VERTEX
10
0.5744
20
-50.8131
0
VERTEX
10
0.5849
20
-50.8245
0
VERTEX
10
0.5947
20
-50.8359
0
VERTEX
10
0.6037
20
-50.8472
0
VERTEX
10
0.6117
20
-50.8586
0
VERTEX
10
0.6186
20
-50.8700
0
VERTEX
10
0.6242
20
-50.8814
0
VERTEX
10
0.6286
20
-50.8928
0
VERTEX
10
0.6315
20
-50.9041
0
VERTEX
10
0.6331
20
-50.9155
0
VERTEX
10
0.6331
20
-50.9269
0
VERTEX
10
0.6318
20
-50.9383
0
VERTEX
10
0.6289
20
-50.9496
0
VERTEX
10
0.6247
20
-50.9610
0
VERTEX
10
0.6192
20
-50.9724
0
VERTEX
10
0.6125
20
-50.9838
0
VERTEX
10
0.6046
20
-50.9952
0
VERTEX
10
0.5958
20
-51.0065
0
VERTEX
10
0.5861
20
-51.0179
0
VERTEX
10
0.5758
20
-51.0293
0
VERTEX
10
0.5649
20
-51.0407
0
VERTEX
10
0.5538
20
-51.0521
0
VERTEX
10
0.5425
20
-51.0634
0
VERTEX
10
0.5312
20
-51.0748
0
VERTEX
10
0.5201
20
-51.0862
0
VERTEX
10
0.5095
20
-51.0976
0
VERTEX
10
0.4995
20
-51.1090
0
VERTEX
10
0.4902
20
-51.1203
0
VERTEX
10
0.4819
20
-51.1317
0
VERTEX
10
0.4746
20
-51.1431
0
VERTEX
10
0.4684
20
-51.1545
0
VERTEX
10
0.4635
20
-51.1659
0
VERTEX
10
0.4600
20
-51.1772
0
VERTEX
10
0.4579
20
-51.1886
0
VERTEX
10
0.4573
20
-51.2000
0
SEQEND
0
POLYLINE
8
M1_Neg
70
1
0
VERTEX
10
-0.4537
20
-50.6424
0
VERTEX
10
-0.4542
20
-50.6310
0
VERTEX
10
-0.4559
20
-50.6196
0
VERTEX
10
-0.4589
20
-50.6083
0
VERTEX
10
-0.4631
20
-50.5969
0
VERTEX
10
-0.4684
20
-50.5855
0
VERTEX
10
-0.4747
20
-50.5741
0
VERTEX
10
-0.4820
20
-50.5627
0
VERTEX
10
-0.4900
20
-50.5514
0
VERTEX
10
-0.4987
20
-50.5400
0
VERTEX
10
-0.5079
20
-50.5286
0
VERTEX
10
-0.5175
20
-50.5172
0
VERTEX
10
-0.5272
20
-50.5058
0
VERTEX
10
-0.5371
20
-50.4945
0
VERTEX
10
-0.5467
20
-50.4831
0
VERTEX
10
-0.5562
20
-50.4717
0
VERTEX
10
-0.5651
20
-50.4603
0
VERTEX
10
-0.5735
20
-50.4489
0
VERTEX
10
-0.5812
20
-50.4376
0
VERTEX
10
-0.5879
20
-50.4262
0
VERTEX
10
-0.5938
20
-50.4148
0
VERTEX
10
-0.5985
20
-50.4034
0
VERTEX
10
-0.6021
20
-50.3920
0
VERTEX
10
-0.6045
20
-50.3807
0
VERTEX
10
-0.6056
20
-50.3693
0
VERTEX
10
-0.6055
20
-50.3579
0
VERTEX
10
-0.6040
20
-50.3465
0
VERTEX
10
-0.6014
20
-50.3352
0
VERTEX
10
-0.5975
20
-50.3238
0
VERTEX
10
-0.5924
20
-50.3124
0
VERTEX
10
-0.5863
20
-50.3010
0
VERTEX
10
-0.5793
20
-50.2896
0
VERTEX
10
-0.5713
20
-50.2783
0
VERTEX
10
-0.5626
20
-50.2669
0
VERTEX
10
-0.5534
20
-50.2555
0
VERTEX
10
-0.5437
20
-50.2441
0
VERTEX
10
-0.5337
20
-50.2327
0
VERTEX
10
-0.5236
20
-50.2214
0
VERTEX
10
-0.5135
20
-50.2100
0
VERTEX
10
-0.5037
20
-50.1986
0
VERTEX
10
-0.4942
20
-50.1872
0
VERTEX
10
-0.4852
20
-50.1758
0
VERTEX
10
-0.4768
20
-50.1645
0
VERTEX
10
-0.4693
20
-50.1531
0
VERTEX
10
-0.4627
20
-50.1417
0
VERTEX
10
-0.4571
20
-50.1303
0
VERTEX
10
-0.4527
20
-50.1189
0
VERTEX
10
-0.4494
20
-50.1076
0
VERTEX
10
-0.4473
20
-50.0962
0
VERTEX
10
-0.4465
20
-50.0848
0
VERTEX
10
0.4465
20
-50.0848
0
VERTEX
10
0.4473
20
-50.0962
0
VERTEX
10
0.4494
20
-50.1076
0
VERTEX
10
0.4527
20
-50.1189
0
VERTEX
10
0.4571
20
-50.1303
0
VERTEX
10
0.4627
20
-50.1417
0
VERTEX
10
0.4693
20
-50.1531
0
VERTEX
10
0.4768
20
-50.1645
0
VERTEX
10
0.4852
20
-50.1758
0
VERTEX
10
0.4942
20
-50.1872
0
VERTEX
10
0.5037
20
-50.1986
0
VERTEX
10
0.5135
20
-50.2100
0
VERTEX
10
0.5236
20
-50.2214
0
VERTEX
10
0.5337
20
-50.2327
0
VERTEX
10
0.5437
20
-50.2441
0
VERTEX
10
0.5534
20
-50.2555
0
VERTEX
10
0.5626
20
-50.2669
0
VERTEX
10
0.5713
20
-50.2783
0
VERTEX
10
0.5793
20
-50.2896
0
VERTEX
10
0.5863
20
-50.3010
0
VERTEX
10
0.5924
20
-50.3124
0
VERTEX
10
0.5975
20
-50.3238
0
VERTEX
10
0.6014
20
-50.3352
0
VERTEX
10
0.6040
20
-50.3465
0
VERTEX
10
0.6055
20
-50.3579
0
VERTEX
10
0.6056
20
-50.3693
0
VERTEX
10
0.6045
20
-50.3807
0
VERTEX
10
0.6021
20
-50.3920
0
VERTEX
10
0.5985
20
-50.4034
0
VERTEX
10
0.5938
20
-50.4148
0
VERTEX
10
0.5879
20
-50.4262
0
VERTEX
10
0.5812
20
-50.4376
0
VERTEX
10
0.5735
20
-50.4489
0
VERTEX
10
0.5651
20
-50.4603
0
VERTEX
10
0.5562
20
-50.4717
0
VERTEX
10
0.5467
20
-50.4831
0
VERTEX
10
0.5371
20
-50.4945
0
VERTEX
10
0.5272
20
-50.5058
0
VERTEX
10
0.5175
20
-50.5172
0
VERTEX
10
0.5079
20
-50.5286
0
VERTEX
10
0.4987
20
-50.5400
0
VERTEX
10
0.4900
20
-50.5514
0
VERTEX
10
0.4820
20
-50.5627
0
VERTEX
10
0.4747
20
-50.5741
0
VERTEX
10
0.4684
20
-50.5855
0
VERTEX
10
0.4631
20
-50.5969
0
VERTEX
10
0.4589
20
-50.6083
0
VERTEX
10
0.4559
20
-50.6196
0
VERTEX
10
0.4542
20
-50.6310
0
VERTEX
10
0.4537
20
-50.6424
0
SEQEND
0
POLYLINE
8
M1_Neg
70
1
0
VERTEX
10
-0.4465
20
-50.0848
0
VERTEX
10
-0.4469
20
-50.0734
0
VERTEX
10
-0.4484
20
-50.0620
0
VERTEX
10
-0.4510
20
-50.0507
0
VERTEX
10
-0.4545
20
-50.0393
0
VERTEX
10
-0.4590
20
-50.0279
0
VERTEX
10
-0.4644
20
-50.0165
0
VERTEX
10
-0.4706
20
-50.0051
0
VERTEX
10
-0.4775
20
-49.9938
0
VERTEX
10
-0.4849
20
-49.9824
0
VERTEX
10
-0.4928
20
-49.9710
0
VERTEX
10
-0.5010
20
-49.9596
0
VERTEX
10
-0.5093
20
-49.9482
0
VERTEX
10
-0.5177
20
-49.9369
0
VERTEX
10
-0.5260
20
-49.9255
0
VERTEX
10
-0.5340
20
-49.9141
0
VERTEX
10
-0.5417
20
-49.9027
0
VERTEX
10
-0.5489
20
-49.8913
0
VERTEX
10
-0.5554
20
-49.8800
0
VERTEX
10
-0.5612
20
-49.8686
0
VERTEX
10
-0.5662
20
-49.8572
0
VERTEX
10
-0.5702
20
-49.8458
0
VERTEX
10
-0.5733
20
-49.8344
0
VERTEX
10
-0.5753
20
-49.8231
0
VERTEX
10
-0.5763
20
-49.8117
0
VERTEX
10
-0.5761
20
-49.8003
0
VERTEX
10
-0.5749
20
-49.7889
0
VERTEX
10
-0.5726
20
-49.7776
0
VERTEX
10
-0.5692
20
-49.7662
0
VERTEX
10
-0.5649
20
-49.7548
0
VERTEX
10
-0.5596
20
-49.7434
0
VERTEX
10
-0.5535
20
-49.7320
0
VERTEX
10
-0.5467
20
-49.7207
0
VERTEX
10
-0.5392
20
-49.7093
0
VERTEX
10
-0.5313
20
-49.6979
0
VERTEX
10
-0.5229
20
-49.6865
0
VERTEX
10
-0.5144
20
-49.6751
0
VERTEX
10
-0.5057
20
-49.6638
0
VERTEX
10
-0.4970
20
-49.6524
0
VERTEX
10
-0.4885
20
-49.6410
0
VERTEX
10
-0.4804
20
-49.6296
0
VERTEX
10
-0.4727
20
-49.6182
0
VERTEX
10
-0.4655
20
-49.6069
0
VERTEX
10
-0.4590
20
-49.5955
0
VERTEX
10
-0.4533
20
-49.5841
0
VERTEX
10
-0.4485
20
-49.5727
0
VERTEX
10
-0.4447
20
-49.5613
0
VERTEX
10
-0.4418
20
-49.5500
0
VERTEX
10
-0.4401
20
-49.5386
0
VERTEX
10
-0.4394
20
-49.5272
0
VERTEX
10
0.4394
20
-49.5272
0
VERTEX
10
0.4401
20
-49.5386
0
VERTEX
10
0.4418
20
-49.5500
0
VERTEX
10
0.4447
20
-49.5613
0
VERTEX
10
0.4485
20
-49.5727
0
VERTEX
10
0.4533
20
-49.5841
0
VERTEX
10
0.4590
20
-49.5955
0
VERTEX
10
0.4655
20
-49.6069
0
VERTEX
10
0.4727
20
-49.6182
0
VERTEX
10
0.4804
20
-49.6296
0
VERTEX
10
0.4885
20
-49.6410
0
VERTEX
10
0.4970
20
-49.6524
0
VERTEX
10
0.5057
20
-49.6638
0
VERTEX
10
0.5144
20
-49.6751
0
VERTEX
10
0.5229
20
-49.6865
0
VERTEX
10
0.5313
20
-49.6979
0
VERTEX
10
0.5392
20
-49.7093
0
VERTEX
10
0.5467
20
-49.7207
0
VERTEX
10
0.5535
20
-49.7320
0
VERTEX
10
0.5596
20
-49.7434
0
VERTEX
10
0.5649
20
-49.7548
0
VERTEX
10
0.5692
20
-49.7662
0
VERTEX
10
0.5726
20
-49.7776
0
VERTEX
10
0.5749
20
-49.7889
0
VERTEX
10
0.5761
20
-49.8003
0
VERTEX
10
0.5763
20
-49.8117
0
VERTEX
10
0.5753
20
-49.8231
0
VERTEX
10
0.5733
20
-49.8344
0
VERTEX
10
0.5702
20
-49.8458
0
VERTEX
10
0.5662
20
-49.8572
0
VERTEX
10
0.5612
20
-49.8686
0
VERTEX
10
0.5554
20
-49.8800
0
VERTEX
10
0.5489
20
-49.8913
0
VERTEX
10
0.5417
20
-49.9027
0
VERTEX
10
0.5340
20
-49.9141
0
VERTEX
10
0.5260
20
-49.9255
0
VERTEX
10
0.5177
20
-49.9369
0
VERTEX
10
0.5093
20
-49.9482
0
VERTEX
10
0.5010
20
-49.9596
0
VERTEX
10
0.4928
20
-49.9710
0
VERTEX
10
0.4849
20
-49.9824
0
VERTEX
10
0.4775
20
-49.9938
0
VERTEX
10
0.4706
20
-50.0051
0
VERTEX
10
0.4644
20
-50.0165
0
VERTEX
10
0.4590
20
-50.0279
0
VERTEX
10
0.4545
20
-50.0393
0
VERTEX
10
0.4510
20
-50.0507
0
VERTEX
10
0.4484
20
-50.0620
0
VERTEX
10
0.4469
20
-50.0734
0
VERTEX
10
0.4465
20
-50.0848
0
SEQEND
0
POLYLINE
8
M1_Neg
70
1
0
VERTEX
10
-0.4394
20
-49.5272
0
VERTEX
10
-0.4397
20
-49.5158
0
VERTEX
10
-0.4409
20
-49.5044
0
VERTEX
10
-0.4430
20
-49.4931
0
VERTEX
10
-0.4459
20
-49.4817
0
VERTEX
10
-0.4497
20
-49.4703
0
VERTEX
10
-0.4541
20
-49.4589
0
VERTEX
10
-0.4593
20
-49.4475
0
VERTEX
10
-0.4650
20
-49.4362
0
VERTEX
10
-0.4711
20
-49.4248
0
VERTEX
10
-0.4777
20
-49.4134
0
VERTEX
10
-0.4845
20
-49.4020
0
VERTEX
10
-0.4914
20
-49.3906
0
VERTEX
10
-0.4984
20
-49.3793
0
VERTEX
10
-0.5053
20
-49.3679
0
VERTEX
10
-0.5119
20
-49.3565
0
VERTEX
10
-0.5183
20
-49.3451
0
VERTEX
10
-0.5242
20
-49.3337
0
VERTEX
10
-0.5297
20
-49.3224
0
VERTEX
10
-0.5345
20
-49.3110
0
VERTEX
10
-0.5386
20
-49.2996
0
VERTEX
10
-0.5419
20
-49.2882
0
VERTEX
10
-0.5445
20
-49.2768
0
VERTEX
10
-0.5461
20
-49.2655
0
VERTEX
10
-0.5469
20
-49.2541
0
VERTEX
10
-0.5467
20
-49.2427
0
VERTEX
10
-0.5457
20
-49.2313
0
VERTEX
10
-0.5437
20
-49.2200
0
VERTEX
10
-0.5409
20
-49.2086
0
VERTEX
10
-0.5373
20
-49.1972
0
VERTEX
10
-0.5329
20
-49.1858
0
VERTEX
10
-0.5278
20
-49.1744
0
VERTEX
10
-0.5221
20
-49.1631
0
VERTEX
10
-0.5158
20
-49.1517
0
VERTEX
10
-0.5092
20
-49.1403
0
VERTEX
10
-0.5022
20
-49.1289
0
VERTEX
10
-0.4950
20
-49.1175
0
VERTEX
10
-0.4878
20
-49.1062
0
VERTEX
10
-0.4805
20
-49.0948
0
VERTEX
10
-0.4734
20
-49.0834
0
VERTEX
10
-0.4666
20
-49.0720
0
VERTEX
10
-0.4601
20
-49.0606
0
VERTEX
10
-0.4542
20
-49.0493
0
VERTEX
10
-0.4487
20
-49.0379
0
VERTEX
10
-0.4440
20
-49.0265
0
VERTEX
10
-0.4399
20
-49.0151
0
VERTEX
10
-0.4367
20
-49.0037
0
VERTEX
10
-0.4343
20
-48.9924
0
VERTEX
10
-0.4328
20
-48.9810
0
VERTEX
10
-0.4322
20
-48.9696
0
VERTEX
10
0.4322
20
-48.9696
0
VERTEX
10
0.4328
20
-48.9810
0
VERTEX
10
0.4343
20
-48.9924
0
VERTEX
10
0.4367
20
-49.0037
0
VERTEX
10
0.4399
20
-49.0151
0
VERTEX
10
0.4440
20
-49.0265
0
VERTEX
10
0.4487
20
-49.0379
0
VERTEX
10
0.4542
20
-49.0493
0
VERTEX
10
0.4601
20
-49.0606
0
VERTEX
10
0.4666
20
-49.0720
0
VERTEX
10
0.4734
20
-49.0834
0
VERTEX
10
0.4805
20
-49.0948
0
VERTEX
10
0.4878
20
-49.1062
0
VERTEX
10
0.4950
20
-49.1175
0
VERTEX
10
0.5022
20
-49.1289
0
VERTEX
10
0.5092
20
-49.1403
0
VERTEX
10
0.5158
20
-49.1517
0
VERTEX
10
0.5221
20
-49.1631
0
VERTEX
10
0.5278
20
-49.1744
0
VERTEX
10
0.5329
20
-49.1858
0
VERTEX
10
0.5373
20
-49.1972
0
VERTEX
10
0.5409
20
-49.2086
0
VERTEX
10
0.5437
20
-49.2200
0
VERTEX
10
0.5457
20
-49.2313
0
VERTEX
10
0.5467
20
-49.2427
0
VERTEX
10
0.5469
20
-49.2541
0
VERTEX
10
0.5461
20
-49.2655
0
VERTEX
10
0.5445
20
-49.2768
0
VERTEX
10
0.5419
20
-49.2882
0
VERTEX
10
0.5386
20
-49.2996
0
VERTEX
10
0.5345
20
-49.3110
0
VERTEX
10
0.5297
20
-49.3224
0
VERTEX
10
0.5242
20
-49.3337
0
VERTEX
10
0.5183
20
-49.3451
0
VERTEX
10
0.5119
20
-49.3565
0
VERTEX
10
0.5053
20
-49.3679
0
VERTEX
10
0.4984
20
-49.3793
0
VERTEX
10
0.4914
20
-49.3906
0
VERTEX
10
0.4845
20
-49.4020
0
VERTEX
10
0.4777
20
-49.4134
0
VERTEX
10
0.4711
20
-49.4248
0
VERTEX
10
0.4650
20
-49.4362
0
VERTEX
10
0.4593
20
-49.4475
0
VERTEX
10
0.4541
20
-49.4589
0
VERTEX
10
0.4497
20
-49.4703
0
VERTEX
10
0.4459
20
-49.4817
0
VERTEX
10
0.4430
20
-49.4931
0
VERTEX
10
0.4409
20
-49.5044
0
VERTEX
10
0.4397
20
-49.5158
0
VERTEX
10
0.4394
20
-49.5272
0
SEQEND
0
POLYLINE
8
M1_Neg
70
1
0
VERTEX
10
-0.4322
20
-48.9696
0
VERTEX
10
-0.4324
20
-48.9582
0
VERTEX
10
-0.4334
20
-48.9468
0
VERTEX
10
-0.4350
20
-48.9355
0
VERTEX
10
-0.4373
20
-48.9241
0
VERTEX
10
-0.4403
20
-48.9127
0
VERTEX
10
-0.4439
20
-48.9013
0
VERTEX
10
-0.4479
20
-48.8899
0
VERTEX
10
-0.4525
20
-48.8786
0
VERTEX
10
-0.4574
20
-48.8672
0
VERTEX
10
-0.4626
20
-48.8558
0
VERTEX
10
-0.4680
20
-48.8444
0
VERTEX
10
-0.4735
20
-48.8330
0
VERTEX
10
-0.4790
20
-48.8217
0
VERTEX
10
-0.4845
20
-48.8103
0
VERTEX
10
-0.4898
20
-48.7989
0
VERTEX
10
-0.4949
20
-48.7875
0
VERTEX
10
-0.4996
20
-48.7761
0
VERTEX
10
-0.5039
20
-48.7648
0
VERTEX
10
-0.5077
20
-48.7534
0
VERTEX
10
-0.5110
20
-48.7420
0
VERTEX
10
-0.5137
20
-48.7306
0
VERTEX
10
-0.5156
20
-48.7192
0
VERTEX
10
-0.5169
20
-48.7079
0
VERTEX
10
-0.5175
20
-48.6965
0
VERTEX
10
-0.5174
20
-48.6851
0
VERTEX
10
-0.5165
20
-48.6737
0
VERTEX
10
-0.5149
20
-48.6624
0
VERTEX
10
-0.5126
20
-48.6510
0
VERTEX
10
-0.5097
20
-48.6396
0
VERTEX
10
-0.5061
20
-48.6282
0
VERTEX
10
-0.5020
20
-48.6168
0
VERTEX
10
-0.4974
20
-48.6055
0
VERTEX
10
-0.4924
20
-48.5941
0
VERTEX
10
-0.4871
20
-48.5827
0
VERTEX
10
-0.4814
20
-48.5713
0
VERTEX
10
-0.4757
20
-48.5599
0
VERTEX
10
-0.4698
20
-48.5486
0
VERTEX
10
-0.4640
20
-48.5372
0
VERTEX
10
-0.4583
20
-48.5258
0
VERTEX
10
-0.4528
20
-48.5144
0
VERTEX
10
-0.4476
20
-48.5030
0
VERTEX
10
-0.4428
20
-48.4917
0
VERTEX
10
-0.4385
20
-48.4803
0
VERTEX
10
-0.4346
20
-48.4689
0
VERTEX
10
-0.4314
20
-48.4575
0
VERTEX
10
-0.4287
20
-48.4461
0
VERTEX
10
-0.4268
20
-48.4348
0
VERTEX
10
-0.4256
20
-48.4234
0
VERTEX
10
-0.4251
20
-48.4120
0
VERTEX
10
0.4251
20
-48.4120
0
VERTEX
10
0.4256
20
-48.4234
0
VERTEX
10
0.4268
20
-48.4348
0
VERTEX
10
0.4287
20
-48.4461
0
VERTEX
10
0.4314
20
-48.4575
0
VERTEX
10
0.4346
20
-48.4689
0
VERTEX
10
0.4385
20
-48.4803
0
VERTEX
10
0.4428
20
-48.4917
0
VERTEX
10
0.4476
20
-48.5030
0
VERTEX
10
0.4528
20
-48.5144
0
VERTEX
10
0.4583
20
-48.5258
0
VERTEX
10
0.4640
20
-48.5372
0
VERTEX
10
0.4698
20
-48.5486
0
VERTEX
10
0.4757
20
-48.5599
0
VERTEX
10
0.4814
20
-48.5713
0
VERTEX
10
0.4871
20
-48.5827
0
VERTEX
10
0.4924
20
-48.5941
0
VERTEX
10
0.4974
20
-48.6055
0
VERTEX
10
0.5020
20
-48.6168
0
VERTEX
10
0.5061
20
-48.6282
0
VERTEX
10
0.5097
20
-48.6396
0
VERTEX
10
0.5126
20
-48.6510
0
VERTEX
10
0.5149
20
-48.6624
0
VERTEX
10
0.5165
20
-48.6737
0
VERTEX
10
0.5174
20
-48.6851
0
VERTEX
10
0.5175
20
-48.6965
0
VERTEX
10
0.5169
20
-48.7079
0
VERTEX
10
0.5156
20
-48.7192
0
VERTEX
10
0.5137
20
-48.7306
0
VERTEX
10
0.5110
20
-48.7420
0
VERTEX
10
0.5077
20
-48.7534
0
VERTEX
10
0.5039
20
-48.7648
0
VERTEX
10
0.4996
20
-48.7761
0
VERTEX
10
0.4949
20
-48.7875
0
VERTEX
10
0.4898
20
-48.7989
0
VERTEX
10
0.4845
20
-48.8103
0
VERTEX
10
0.4790
20
-48.8217
0
VERTEX
10
0.4735
20
-48.8330
0
VERTEX
10
0.4680
20
-48.8444
0
VERTEX
10
0.4626
20
-48.8558
0
VERTEX
10
0.4574
20
-48.8672
0
VERTEX
10
0.4525
20
-48.8786
0
VERTEX
10
0.4479
20
-48.8899
0
VERTEX
10
0.4439
20
-48.9013
0
VERTEX
10
0.4403
20
-48.9127
0
VERTEX
10
0.4373
20
-48.9241
0
VERTEX
10
0.4350
20
-48.9355
0
VERTEX
10
0.4334
20
-48.9468
0
VERTEX
10
0.4324
20
-48.9582
0
VERTEX
10
0.4322
20
-48.9696
0
SEQEND
0
POLYLINE
8
M1_Neg
70
1
0
VERTEX
10
-0.4251
20
-48.4120
0
VERTEX
10
-0.4252
20
-48.4006
0
VERTEX
10
-0.4259
20
-48.3892
0
VERTEX
10
-0.4271
20
-48.3779
0
VERTEX
10
-0.4288
20
-48.3665
0
VERTEX
10
-0.4309
20
-48.3551
0
VERTEX
10
-0.4336
20
-48.3437
0
VERTEX
10
-0.4366
20
-48.3323
0
VERTEX
10
-0.4399
20
-48.3210
0
VERTEX
10
-0.4436
20
-48.3096
0
VERTEX
10
-0.4474
20
-48.2982
0
VERTEX
10
-0.4515
20
-48.2868
0
VERTEX
10
-0.4556
20
-48.2754
0
VERTEX
10
-0.4597
20
-48.2641
0
VERTEX
10
-0.4638
20
-48.2527
0
VERTEX
10
-0.4677
20
-48.2413
0
VERTEX
10
-0.4715
20
-48.2299
0
VERTEX
10
-0.4750
20
-48.2185
0
VERTEX
10
-0.4782
20
-48.2072
0
VERTEX
10
-0.4810
20
-48.1958
0
VERTEX
10
-0.4834
20
-48.1844
0
VERTEX
10
-0.4854
20
-48.1730
0
VERTEX
10
-0.4868
20
-48.1616
0
VERTEX
10
-0.4878
20
-48.1503
0
VERTEX
10
-0.4882
20
-48.1389
0
VERTEX
10
-0.4880
20
-48.1275
0
VERTEX
10
-0.4873
20
-48.1161
0
VERTEX
10
-0.4861
20
-48.1048
0
VERTEX
10
-0.4843
20
-48.0934
0
VERTEX
10
-0.4821
20
-48.0820
0
VERTEX
10
-0.4794
20
-48.0706
0
VERTEX
10
-0.4763
20
-48.0592
0
VERTEX
10
-0.4728
20
-48.0479
0
VERTEX
10
-0.4690
20
-48.0365
0
VERTEX
10
-0.4649
20
-48.0251
0
VERTEX
10
-0.4607
20
-48.0137
0
VERTEX
10
-0.4563
20
-48.0023
0
VERTEX
10
-0.4519
20
-47.9910
0
VERTEX
10
-0.4475
20
-47.9796
0
VERTEX
10
-0.4432
20
-47.9682
0
VERTEX
10
-0.4391
20
-47.9568
0
VERTEX
10
-0.4351
20
-47.9454
0
VERTEX
10
-0.4315
20
-47.9341
0
VERTEX
10
-0.4282
20
-47.9227
0
VERTEX
10
-0.4252
20
-47.9113
0
VERTEX
10
-0.4228
20
-47.8999
0
VERTEX
10
-0.4208
20
-47.8885
0
VERTEX
10
-0.4193
20
-47.8772
0
VERTEX
10
-0.4183
20
-47.8658
0
VERTEX
10
-0.4179
20
-47.8544
0
VERTEX
10
0.4179
20
-47.8544
0
VERTEX
10
0.4183
20
-47.8658
0
VERTEX
10
0.4193
20
-47.8772
0
VERTEX
10
0.4208
20
-47.8885
0
VERTEX
10
0.4228
20
-47.8999
0
VERTEX
10
0.4252
20
-47.9113
0
VERTEX
10
0.4282
20
-47.9227
0
VERTEX
10
0.4315
20
-47.9341
0
VERTEX
10
0.4351
20
-47.9454
0
VERTEX
10
0.4391
20
-47.9568
0
VERTEX
10
0.4432
20
-47.9682
0
VERTEX
10
0.4475
20
-47.9796
0
VERTEX
10
0.4519
20
-47.9910
0
VERTEX
10
0.4563
20
-48.0023
0
VERTEX
10
0.4607
20
-48.0137
0
VERTEX
10
0.4649
20
-48.0251
0
VERTEX
10
0.4690
20
-48.0365
0
VERTEX
10
0.4728
20
-48.0479
0
VERTEX
10
0.4763
20
-48.0592
0
VERTEX
10
0.4794
20
-48.0706
0
VERTEX
10
0.4821
20
-48.0820
0
VERTEX
10
0.4843
20
-48.0934
0
VERTEX
10
0.4861
20
-48.1048
0
VERTEX
10
0.4873
20
-48.1161
0
VERTEX
10
0.4880
20
-48.1275
0
VERTEX
10
0.4882
20
-48.1389
0
VERTEX
10
0.4878
20
-48.1503
0
VERTEX
10
0.4868
20
-48.1616
0
VERTEX
10
0.4854
20
-48.1730
0
VERTEX
10
0.4834
20
-48.1844
0
VERTEX
10
0.4810
20
-48.1958
0
VERTEX
10
0.4782
20
-48.2072
0
VERTEX
10
0.4750
20
-48.2185
0
VERTEX
10
0.4715
20
-48.2299
0
VERTEX
10
0.4677
20
-48.2413
0
VERTEX
10
0.4638
20
-48.2527
0
VERTEX
10
0.4597
20
-48.2641
0
VERTEX
10
0.4556
20
-48.2754
0
VERTEX
10
0.4515
20
-48.2868
0
VERTEX
10
0.4474
20
-48.2982
0
VERTEX
10
0.4436
20
-48.3096
0
VERTEX
10
0.4399
20
-48.3210
0
VERTEX
10
0.4366
20
-48.3323
0
VERTEX
10
0.4336
20
-48.3437
0
VERTEX
10
0.4309
20
-48.3551
0
VERTEX
10
0.4288
20
-48.3665
0
VERTEX
10
0.4271
20
-48.3779
0
VERTEX
10
0.4259
20
-48.3892
0
VERTEX
10
0.4252
20
-48.4006
0
VERTEX
10
0.4251
20
-48.4120
0
SEQEND
0
POLYLINE
8
M1_Neg
70
1
0
VERTEX
10
-0.4179
20
-47.8544
0
VERTEX
10
-0.4179
20
-47.8430
0
VERTEX
10
-0.4183
20
-47.8316
0
VERTEX
10
-0.4191
20
-47.8203
0
VERTEX
10
-0.4202
20
-47.8089
0
VERTEX
10
-0.4216
20
-47.7975
0
VERTEX
10
-0.4233
20
-47.7861
0
VERTEX
10
-0.4252
20
-47.7747
0
VERTEX
10
-0.4274
20
-47.7634
0
VERTEX
10
-0.4298
20
-47.7520
0
VERTEX
10
-0.4323
20
-47.7406
0
VERTEX
10
-0.4350
20
-47.7292
0
VERTEX
10
-0.4377
20
-47.7178
0
VERTEX
10
-0.4404
20
-47.7065
0
VERTEX
10
-0.4430
20
-47.6951
0
VERTEX
10
-0.4456
20
-47.6837
0
VERTEX
10
-0.4481
20
-47.6723
0
VERTEX
10
-0.4504
20
-47.6609
0
VERTEX
10
-0.4524
20
-47.6496
0
VERTEX
10
-0.4543
20
-47.6382
0
VERTEX
10
-0.4558
20
-47.6268
0
VERTEX
10
-0.4571
20
-47.6154
0
VERTEX
10
-0.4580
20
-47.6040
0
VERTEX
10
-0.4586
20
-47.5927
0
VERTEX
10
-0.4588
20
-47.5813
0
VERTEX
10
-0.4587
20
-47.5699
0
VERTEX
10
-0.4581
20
-47.5585
0
VERTEX
10
-0.4573
20
-47.5472
0
VERTEX
10
-0.4561
20
-47.5358
0
VERTEX
10
-0.4545
20
-47.5244
0
VERTEX
10
-0.4527
20
-47.5130
0
VERTEX
10
-0.4505
20
-47.5016
0
VERTEX
10
-0.4482
20
-47.4903
0
VERTEX
10
-0.4456
20
-47.4789
0
VERTEX
10
-0.4428
20
-47.4675
0
VERTEX
10
-0.4400
20
-47.4561
0
VERTEX
10
-0.4370
20
-47.4447
0
VERTEX
10
-0.4340
20
-47.4334
0
VERTEX
10
-0.4310
20
-47.4220
0
VERTEX
10
-0.4281
20
-47.4106
0
VERTEX
10
-0.4253
20
-47.3992
0
VERTEX
10
-0.4226
20
-47.3878
0
VERTEX
10
-0.4201
20
-47.3765
0
VERTEX
10
-0.4179
20
-47.3651
0
VERTEX
10
-0.4159
20
-47.3537
0
VERTEX
10
-0.4142
20
-47.3423
0
VERTEX
10
-0.4128
20
-47.3309
0
VERTEX
10
-0.4118
20
-47.3196
0
VERTEX
10
-0.4111
20
-47.3082
0
VERTEX
10
-0.4107
20
-47.2968
0
VERTEX
10
0.4107
20
-47.2968
0
VERTEX
10
0.4111
20
-47.3082
0
VERTEX
10
0.4118
20
-47.3196
0
VERTEX
10
0.4128
20
-47.3309
0
VERTEX
10
0.4142
20
-47.3423
0
VERTEX
10
0.4159
20
-47.3537
0
VERTEX
10
0.4179
20
-47.3651
0
VERTEX
10
0.4201
20
-47.3765
0
VERTEX
10
0.4226
20
-47.3878
0
VERTEX
10
0.4253
20
-47.3992
0
VERTEX
10
0.4281
20
-47.4106
0
VERTEX
10
0.4310
20
-47.4220
0
VERTEX
10
0.4340
20
-47.4334
0
VERTEX
10
0.4370
20
-47.4447
0
VERTEX
10
0.4400
20
-47.4561
0
VERTEX
10
0.4428
20
-47.4675
0
VERTEX
10
0.4456
20
-47.4789
0
VERTEX
10
0.4482
20
-47.4903
0
VERTEX
10
0.4505
20
-47.5016
0
VERTEX
10
0.4527
20
-47.5130
0
VERTEX
10
0.4545
20
-47.5244
0
VERTEX
10
0.4561
20
-47.5358
0
VERTEX
10
0.4573
20
-47.5472
0
VERTEX
10
0.4581
20
-47.5585
0
VERTEX
10
0.4587
20
-47.5699
0
VERTEX
10
0.4588
20
-47.5813
0
VERTEX
10
0.4586
20
-47.5927
0
VERTEX
10
0.4580
20
-47.6040
0
VERTEX
10
0.4571
20
-47.6154
0
VERTEX
10
0.4558
20
-47.6268
0
VERTEX
10
0.4543
20
-47.6382
0
VERTEX
10
0.4524
20
-47.6496
0
VERTEX
10
0.4504
20
-47.6609
0
VERTEX
10
0.4481
20
-47.6723
0
VERTEX
10
0.4456
20
-47.6837
0
VERTEX
10
0.4430
20
-47.6951
0
VERTEX
10
0.4404
20
-47.7065
0
VERTEX
10
0.4377
20
-47.7178
0
VERTEX
10
0.4350
20
-47.7292
0
VERTEX
10
0.4323
20
-47.7406
0
VERTEX
10
0.4298
20
-47.7520
0
VERTEX
10
0.4274
20
-47.7634
0
VERTEX
10
0.4252
20
-47.7747
0
VERTEX
10
0.4233
20
-47.7861
0
VERTEX
10
0.4216
20
-47.7975
0
VERTEX
10
0.4202
20
-47.8089
0
VERTEX
10
0.4191
20
-47.8203
0
VERTEX
10
0.4183
20
-47.8316
0
VERTEX
10
0.4179
20
-47.8430
0
VERTEX
10
0.4179
20
-47.8544
0
SEQEND
0
POLYLINE
8
M1_Neg
70
1
0
VERTEX
10
-0.4107
20
-47.2968
0
VERTEX
10
-0.4108
20
-47.2854
0
VERTEX
10
-0.4110
20
-47.2740
0
VERTEX
10
-0.4113
20
-47.2627
0
VERTEX
10
-0.4119
20
-47.2513
0
VERTEX
10
-0.4126
20
-47.2399
0
VERTEX
10
-0.4134
20
-47.2285
0
VERTEX
10
-0.4144
20
-47.2171
0
VERTEX
10
-0.4155
20
-47.2058
0
VERTEX
10
-0.4167
20
-47.1944
0
VERTEX
10
-0.4180
20
-47.1830
0
VERTEX
10
-0.4193
20
-47.1716
0
VERTEX
10
-0.4206
20
-47.1602
0
VERTEX
10
-0.4220
20
-47.1489
0
VERTEX
10
-0.4233
20
-47.1375
0
VERTEX
10
-0.4246
20
-47.1261
0
VERTEX
10
-0.4258
20
-47.1147
0
VERTEX
10
-0.4270
20
-47.1033
0
VERTEX
10
-0.4280
20
-47.0920
0
VERTEX
10
-0.4289
20
-47.0806
0
VERTEX
10
-0.4297
20
-47.0692
0
VERTEX
10
-0.4303
20
-47.0578
0
VERTEX
10
-0.4308
20
-47.0464
0
VERTEX
10
-0.4311
20
-47.0351
0
VERTEX
10
-0.4312
20
-47.0237
0
VERTEX
10
-0.4311
20
-47.0123
0
VERTEX
10
-0.4309
20
-47.0009
0
VERTEX
10
-0.4304
20
-46.9896
0
VERTEX
10
-0.4298
20
-46.9782
0
VERTEX
10
-0.4290
20
-46.9668
0
VERTEX
10
-0.4281
20
-46.9554
0
VERTEX
10
-0.4271
20
-46.9440
0
VERTEX
10
-0.4259
20
-46.9327
0
VERTEX
10
-0.4246
20
-46.9213
0
VERTEX
10
-0.4232
20
-46.9099
0
VERTEX
10
-0.4218
20
-46.8985
0
VERTEX
10
-0.4203
20
-46.8871
0
VERTEX
10
-0.4188
20
-46.8758
0
VERTEX
10
-0.4173
20
-46.8644
0
VERTEX
10
-0.4158
20
-46.8530
0
VERTEX
10
-0.4144
20
-46.8416
0
VERTEX
10
-0.4131
20
-46.8302
0
VERTEX
10
-0.4119
20
-46.8189
0
VERTEX
10
-0.4107
20
-46.8075
0
VERTEX
10
-0.4097
20
-46.7961
0
VERTEX
10
-0.4089
20
-46.7847
0
VERTEX
10
-0.4082
20
-46.7733
0
VERTEX
10
-0.4077
20
-46.7620
0
VERTEX
10
-0.4073
20
-46.7506
0
VERTEX
10
-0.4072
20
-46.7392
0
VERTEX
10
0.4072
20
-46.7392
0
VERTEX
10
0.4073
20
-46.7506
0
VERTEX
10
0.4077
20
-46.7620
0
VERTEX
10
0.4082
20
-46.7733
0
VERTEX
10
0.4089
20
-46.7847
0
VERTEX
10
0.4097
20
-46.7961
0
VERTEX
10
0.4107
20
-46.8075
0
VERTEX
10
0.4119
20
-46.8189
0
VERTEX
10
0.4131
20
-46.8302
0
VERTEX
10
0.4144
20
-46.8416
0
VERTEX
10
0.4158
20
-46.8530
0
VERTEX
10
0.4173
20
-46.8644
0
VERTEX
10
0.4188
20
-46.8758
0
VERTEX
10
0.4203
20
-46.8871
0
VERTEX
10
0.4218
20
-46.8985
0
VERTEX
10
0.4232
20
-46.9099
0
VERTEX
10
0.4246
20
-46.9213
0
VERTEX
10
0.4259
20
-46.9327
0
VERTEX
10
0.4271
20
-46.9440
0
VERTEX
10
0.4281
20
-46.9554
0
VERTEX
10
0.4290
20
-46.9668
0
VERTEX
10
0.4298
20
-46.9782
0
VERTEX
10
0.4304
20
-46.9896
0
VERTEX
10
0.4309
20
-47.0009
0
VERTEX
10
0.4311
20
-47.0123
0
VERTEX
10
0.4312
20
-47.0237
0
VERTEX
10
0.4311
20
-47.0351
0
VERTEX
10
0.4308
20
-47.0464
0
VERTEX
10
0.4303
20
-47.0578
0
VERTEX
10
0.4297
20
-47.0692
0
VERTEX
10
0.4289
20
-47.0806
0
VERTEX
10
0.4280
20
-47.0920
0
VERTEX
10
0.4270
20
-47.1033
0
VERTEX
10
0.4258
20
-47.1147
0
VERTEX
10
0.4246
20
-47.1261
0
VERTEX
10
0.4233
20
-47.1375
0
VERTEX
10
0.4220
20
-47.1489
0
VERTEX
10
0.4206
20
-47.1602
0
VERTEX
10
0.4193
20
-47.1716
0
VERTEX
10
0.4180
20
-47.1830
0
VERTEX
10
0.4167
20
-47.1944
0
VERTEX
10
0.4155
20
-47.2058
0
VERTEX
10
0.4144
20
-47.2171
0
VERTEX
10
0.4134
20
-47.2285
0
VERTEX
10
0.4126
20
-47.2399
0
VERTEX
10
0.4119
20
-47.2513
0
VERTEX
10
0.4113
20
-47.2627
0
VERTEX
10
0.4110
20
-47.2740
0
VERTEX
10
0.4108
20
-47.2854
0
VERTEX
10
0.4107
20
-47.2968
0
SEQEND
0
ELLIPSE
100
AcDbEntity
8
M1_Pos_holes
100
AcDbEllipse
10
0.0000
20
-60.9580
30
0.0000
11
-0.4609
21
0.0000
31
0.0000
40
0.3807
41
0.0000
42
6.283185307179586
0
ELLIPSE
100
AcDbEntity
8
M1_Pos_holes
100
AcDbEllipse
10
0.0000
20
-60.4004
30
0.0000
11
-0.4609
21
0.0000
31
0.0000
40
0.3807
41
0.0000
42
6.283185307179586
0
ELLIPSE
100
AcDbEntity
8
M1_Pos_holes
100
AcDbEllipse
10
0.0000
20
-59.8428
30
0.0000
11
-0.4609
21
0.0000
31
0.0000
40
0.3807
41
0.0000
42
6.283185307179586
0
ELLIPSE
100
AcDbEntity
8
M1_Pos_holes
100
AcDbEllipse
10
0.0000
20
-59.2852
30
0.0000
11
-0.4609
21
0.0000
31
0.0000
40
0.3807
41
0.0000
42
6.283185307179586
0
ELLIPSE
100
AcDbEntity
8
M1_Pos_holes
100
AcDbEllipse
10
0.0000
20
-58.7276
30
0.0000
11
-0.4609
21
0.0000
31
0.0000
40
0.3807
41
0.0000
42
6.283185307179586
0
ELLIPSE
100
AcDbEntity
8
M1_Pos_holes
100
AcDbEllipse
10
0.0000
20
-58.1700
30
0.0000
11
-0.4609
21
0.0000
31
0.0000
40
0.3807
41
0.0000
42
6.283185307179586
0
ELLIPSE
100
AcDbEntity
8
M1_Pos_holes
100
AcDbEllipse
10
0.0000
20
-57.6124
30
0.0000
11
-0.4609
21
0.0000
31
0.0000
40
0.3807
41
0.0000
42
6.283185307179586
0
ELLIPSE
100
AcDbEntity
8
M1_Pos_holes
100
AcDbEllipse
10
0.0000
20
-57.0548
30
0.0000
11
-0.4609
21
0.0000
31
0.0000
40
0.3807
41
0.0000
42
6.283185307179586
0
ELLIPSE
100
AcDbEntity
8
M1_Pos_holes
100
AcDbEllipse
10
0.0000
20
-56.4972
30
0.0000
11
-0.4609
21
0.0000
31
0.0000
40
0.3807
41
0.0000
42
6.283185307179586
0
ELLIPSE
100
AcDbEntity
8
M1_Pos_holes
100
AcDbEllipse
10
0.0000
20
-55.9396
30
0.0000
11
-0.4609
21
0.0000
31
0.0000
40
0.3807
41
0.0000
42
6.283185307179586
0
ELLIPSE
100
AcDbEntity
8
M1_Pos_holes
100
AcDbEllipse
10
0.0000
20
-55.3820
30
0.0000
11
-0.4609
21
0.0000
31
0.0000
40
0.3807
41
0.0000
42
6.283185307179586
0
ELLIPSE
100
AcDbEntity
8
M1_Pos_holes
100
AcDbEllipse
10
0.0000
20
-54.8244
30
0.0000
11
-0.4609
21
0.0000
31
0.0000
40
0.3807
41
0.0000
42
6.283185307179586
0
ELLIPSE
100
AcDbEntity
8
M1_Pos_holes
100
AcDbEllipse
10
0.0000
20
-54.2668
30
0.0000
11
-0.4609
21
0.0000
31
0.0000
40
0.3807
41
0.0000
42
6.283185307179586
0
ELLIPSE
100
AcDbEntity
8
M1_Pos_holes
100
AcDbEllipse
10
0.0000
20
-53.7092
30
0.0000
11
-0.4609
21
0.0000
31
0.0000
40
0.3807
41
0.0000
42
6.283185307179586
0
ELLIPSE
100
AcDbEntity
8
M1_Pos_holes
100
AcDbEllipse
10
0.0000
20
-53.1516
30
0.0000
11
-0.4609
21
0.0000
31
0.0000
40
0.3807
41
0.0000
42
6.283185307179586
0
ELLIPSE
100
AcDbEntity
8
M1_Pos_holes
100
AcDbEllipse
10
0.0000
20
-52.5940
30
0.0000
11
-0.4609
21
0.0000
31
0.0000
40
0.3807
41
0.0000
42
6.283185307179586
0
ELLIPSE
100
AcDbEntity
8
M1_Pos_holes
100
AcDbEllipse
10
0.0000
20
-52.0364
30
0.0000
11
-0.4609
21
0.0000
31
0.0000
40
0.3807
41
0.0000
42
6.283185307179586
0
ELLIPSE
100
AcDbEntity
8
M1_Pos_holes
100
AcDbEllipse
10
0.0000
20
-51.4788
30
0.0000
11
-0.4609
21
0.0000
31
0.0000
40
0.3807
41
0.0000
42
6.283185307179586
0
ELLIPSE
100
AcDbEntity
8
M1_Pos_holes
100
AcDbEllipse
10
0.0000
20
-50.9212
30
0.0000
11
-0.4609
21
0.0000
31
0.0000
40
0.3807
41
0.0000
42
6.283185307179586
0
ELLIPSE
100
AcDbEntity
8
M1_Pos_holes
100
AcDbEllipse
10
0.0000
20
-50.3636
30
0.0000
11
-0.4033
21
0.0000
31
0.0000
40
0.3807
41
0.0000
42
6.283185307179586
0
ELLIPSE
100
AcDbEntity
8
M1_Pos_holes
100
AcDbEllipse
10
0.0000
20
-49.8060
30
0.0000
11
-0.3457
21
0.0000
31
0.0000
40
0.3807
41
0.0000
42
6.283185307179586
0
ELLIPSE
100
AcDbEntity
8
M1_Pos_holes
100
AcDbEllipse
10
0.0000
20
-49.2484
30
0.0000
11
-0.2881
21
0.0000
31
0.0000
40
0.3807
41
0.0000
42
6.283185307179586
0
ELLIPSE
100
AcDbEntity
8
M1_Pos_holes
100
AcDbEllipse
10
0.0000
20
-48.6908
30
0.0000
11
-0.2305
21
0.0000
31
0.0000
40
0.3807
41
0.0000
42
6.283185307179586
0
ELLIPSE
100
AcDbEntity
8
M1_Pos_holes
100
AcDbEllipse
10
0.0000
20
-48.1332
30
0.0000
11
-0.1729
21
0.0000
31
0.0000
40
0.3807
41
0.0000
42
6.283185307179586
0
ELLIPSE
100
AcDbEntity
8
M1_Pos_holes
100
AcDbEllipse
10
0.0000
20
-47.5756
30
0.0000
11
-0.1152
21
0.0000
31
0.0000
40
0.3807
41
0.0000
42
6.283185307179586
0
ELLIPSE
100
AcDbEntity
8
M1_Pos_holes
100
AcDbEllipse
10
0.0000
20
-47.0180
30
0.0000
11
-0.0576
21
0.0000
31
0.0000
40
0.3807
41
0.0000
42
6.283185307179586
0
POLYLINE
8
M1_Field
70
1
0
VERTEX
10
-31.0000
20
-61.2368
0
VERTEX
10
31.0000
20
-61.2368
0
VERTEX
10
31.0000
20
0.7632
0
VERTEX
10
-31.0000
20
0.7632
0
SEQEND
0
POLYLINE
8
cure
70
1
0
VERTEX
10
-3.0000
20
-61.2368
0
VERTEX
10
3.0000
20
-61.2368
0
VERTEX
10
3.0000
20
0.7632
0
VERTEX
10
-3.0000
20
0.7632
0
SEQEND
0
POLYLINE
8
M1_Neg
70
1
0
VERTEX
10
-3.5000
20
-41.2000
0
VERTEX
10
3.5000
20
-41.2000
0
VERTEX
10
3.5000
20
-40.2000
0
VERTEX
10
-3.5000
20
-40.2000
0
SEQEND
0
POLYLINE
8
M1_Neg
70
1
0
VERTEX
10
8.7500
20
-44.6000
0
VERTEX
10
8.7500
20
-44.7500
0
VERTEX
10
3.7500
20
-44.7500
0
VERTEX
10
3.7500
20
-45.6500
0
VERTEX
10
8.7500
20
-45.6500
0
VERTEX
10
8.7500
20
-45.8000
0
VERTEX
10
9.0500
20
-45.8000
0
VERTEX
10
9.0500
20
-45.3500
0
VERTEX
10
4.0500
20
-45.3500
0
VERTEX
10
4.0500
20
-45.0500
0
VERTEX
10
9.0500
20
-45.0500
0
VERTEX
10
9.0500
20
-44.6000
0
SEQEND
0
POLYLINE
8
M1_Neg
70
1
0
VERTEX
10
8.7500
20
-43.4000
0
VERTEX
10
8.7500
20
-43.5500
0
VERTEX
10
3.7500
20
-43.5500
0
VERTEX
10
3.7500
20
-44.4500
0
VERTEX
10
8.7500
20
-44.4500
0
VERTEX
10
8.7500
20
-44.6000
0
VERTEX
10
9.0500
20
-44.6000
0
VERTEX
10
9.0500
20
-44.1500
0
VERTEX
10
4.0500
20
-44.1500
0
VERTEX
10
4.0500
20
-43.8500
0
VERTEX
10
9.0500
20
-43.8500
0
VERTEX
10
9.0500
20
-43.4000
0
SEQEND
0
POLYLINE
8
M1_Neg
70
1
0
VERTEX
10
8.7500
20
-42.2000
0
VERTEX
10
8.7500
20
-42.3500
0
VERTEX
10
3.7500
20
-42.3500
0
VERTEX
10
3.7500
20
-43.2500
0
VERTEX
10
8.7500
20
-43.2500
0
VERTEX
10
8.7500
20
-43.4000
0
VERTEX
10
9.0500
20
-43.4000
0
VERTEX
10
9.0500
20
-42.9500
0
VERTEX
10
4.0500
20
-42.9500
0
VERTEX
10
4.0500
20
-42.6500
0
VERTEX
10
9.0500
20
-42.6500
0
VERTEX
10
9.0500
20
-42.2000
0
SEQEND
0
POLYLINE
8
M1_Neg
70
1
0
VERTEX
10
8.7500
20
-41.0000
0
VERTEX
10
8.7500
20
-41.1500
0
VERTEX
10
3.7500
20
-41.1500
0
VERTEX
10
3.7500
20
-42.0500
0
VERTEX
10
8.7500
20
-42.0500
0
VERTEX
10
8.7500
20
-42.2000
0
VERTEX
10
9.0500
20
-42.2000
0
VERTEX
10
9.0500
20
-41.7500
0
VERTEX
10
4.0500
20
-41.7500
0
VERTEX
10
4.0500
20
-41.4500
0
VERTEX
10
9.0500
20
-41.4500
0
VERTEX
10
9.0500
20
-41.0000
0
SEQEND
0
POLYLINE
8
M1_Neg
70
1
0
VERTEX
10
3.7500
20
-40.4000
0
VERTEX
10
3.7500
20
-40.8500
0
VERTEX
10
8.7500
20
-40.8500
0
VERTEX
10
8.7500
20
-41.0000
0
VERTEX
10
9.0500
20
-41.0000
0
VERTEX
10
9.0500
20
-40.5500
0
VERTEX
10
4.0500
20
-40.5500
0
VERTEX
10
4.0500
20
-40.4000
0
SEQEND
0
POLYLINE
8
metal
70
1
0
VERTEX
10
8.7500
20
-44.6000
0
VERTEX
10
8.7500
20
-44.7500
0
VERTEX
10
3.7500
20
-44.7500
0
VERTEX
10
3.7500
20
-45.6500
0
VERTEX
10
8.7500
20
-45.6500
0
VERTEX
10
8.7500
20
-45.8000
0
VERTEX
10
8.8500
20
-45.8000
0
VERTEX
10
8.8500
20
-45.5500
0
VERTEX
10
3.8500
20
-45.5500
0
VERTEX
10
3.8500
20
-44.8500
0
VERTEX
10
8.8500
20
-44.8500
0
VERTEX
10
8.8500
20
-44.6000
0
SEQEND
0
POLYLINE
8
metal
70
1
0
VERTEX
10
8.7500
20
-43.4000
0
VERTEX
10
8.7500
20
-43.5500
0
VERTEX
10
3.7500
20
-43.5500
0
VERTEX
10
3.7500
20
-44.4500
0
VERTEX
10
8.7500
20
-44.4500
0
VERTEX
10
8.7500
20
-44.6000
0
VERTEX
10
8.8500
20
-44.6000
0
VERTEX
10
8.8500
20
-44.3500
0
VERTEX
10
3.8500
20
-44.3500
0
VERTEX
10
3.8500
20
-43.6500
0
VERTEX
10
8.8500
20
-43.6500
0
VERTEX
10
8.8500
20
-43.4000
0
SEQEND
0
POLYLINE
8
metal
70
1
0
VERTEX
10
8.7500
20
-42.2000
0
VERTEX
10
8.7500
20
-42.3500
0
VERTEX
10
3.7500
20
-42.3500
0
VERTEX
10
3.7500
20
-43.2500
0
VERTEX
10
8.7500
20
-43.2500
0
VERTEX
10
8.7500
20
-43.4000
0
VERTEX
10
8.8500
20
-43.4000
0
VERTEX
10
8.8500
20
-43.1500
0
VERTEX
10
3.8500
20
-43.1500
0
VERTEX
10
3.8500
20
-42.4500
0
VERTEX
10
8.8500
20
-42.4500
0
VERTEX
10
8.8500
20
-42.2000
0
SEQEND
0
POLYLINE
8
metal
70
1
0
VERTEX
10
8.7500
20
-41.0000
0
VERTEX
10
8.7500
20
-41.1500
0
VERTEX
10
3.7500
20
-41.1500
0
VERTEX
10
3.7500
20
-42.0500
0
VERTEX
10
8.7500
20
-42.0500
0
VERTEX
10
8.7500
20
-42.2000
0
VERTEX
10
8.8500
20
-42.2000
0
VERTEX
10
8.8500
20
-41.9500
0
VERTEX
10
3.8500
20
-41.9500
0
VERTEX
10
3.8500
20
-41.2500
0
VERTEX
10
8.8500
20
-41.2500
0
VERTEX
10
8.8500
20
-41.0000
0
SEQEND
0
POLYLINE
8
metal
70
1
0
VERTEX
10
3.7500
20
-40.4000
0
VERTEX
10
3.7500
20
-40.8500
0
VERTEX
10
8.7500
20
-40.8500
0
VERTEX
10
8.7500
20
-41.0000
0
VERTEX
10
8.8500
20
-41.0000
0
VERTEX
10
8.8500
20
-40.7500
0
VERTEX
10
3.8500
20
-40.7500
0
VERTEX
10
3.8500
20
-40.4000
0
SEQEND
0
POLYLINE
8
metal
70
1
0
VERTEX
10
8.9500
20
-44.6000
0
VERTEX
10
8.9500
20
-44.9500
0
VERTEX
10
3.9500
20
-44.9500
0
VERTEX
10
3.9500
20
-45.4500
0
VERTEX
10
8.9500
20
-45.4500
0
VERTEX
10
8.9500
20
-45.8000
0
VERTEX
10
9.0500
20
-45.8000
0
VERTEX
10
9.0500
20
-45.3500
0
VERTEX
10
4.0500
20
-45.3500
0
VERTEX
10
4.0500
20
-45.0500
0
VERTEX
10
9.0500
20
-45.0500
0
VERTEX
10
9.0500
20
-44.6000
0
SEQEND
0
POLYLINE
8
metal
70
1
0
VERTEX
10
8.9500
20
-43.4000
0
VERTEX
10
8.9500
20
-43.7500
0
VERTEX
10
3.9500
20
-43.7500
0
VERTEX
10
3.9500
20
-44.2500
0
VERTEX
10
8.9500
20
-44.2500
0
VERTEX
10
8.9500
20
-44.6000
0
VERTEX
10
9.0500
20
-44.6000
0
VERTEX
10
9.0500
20
-44.1500
0
VERTEX
10
4.0500
20
-44.1500
0
VERTEX
10
4.0500
20
-43.8500
0
VERTEX
10
9.0500
20
-43.8500
0
VERTEX
10
9.0500
20
-43.4000
0
SEQEND
0
POLYLINE
8
metal
70
1
0
VERTEX
10
8.9500
20
-42.2000
0
VERTEX
10
8.9500
20
-42.5500
0
VERTEX
10
3.9500
20
-42.5500
0
VERTEX
10
3.9500
20
-43.0500
0
VERTEX
10
8.9500
20
-43.0500
0
VERTEX
10
8.9500
20
-43.4000
0
VERTEX
10
9.0500
20
-43.4000
0
VERTEX
10
9.0500
20
-42.9500
0
VERTEX
10
4.0500
20
-42.9500
0
VERTEX
10
4.0500
20
-42.6500
0
VERTEX
10
9.0500
20
-42.6500
0
VERTEX
10
9.0500
20
-42.2000
0
SEQEND
0
POLYLINE
8
metal
70
1
0
VERTEX
10
8.9500
20
-41.0000
0
VERTEX
10
8.9500
20
-41.3500
0
VERTEX
10
3.9500
20
-41.3500
0
VERTEX
10
3.9500
20
-41.8500
0
VERTEX
10
8.9500
20
-41.8500
0
VERTEX
10
8.9500
20
-42.2000
0
VERTEX
10
9.0500
20
-42.2000
0
VERTEX
10
9.0500
20
-41.7500
0
VERTEX
10
4.0500
20
-41.7500
0
VERTEX
10
4.0500
20
-41.4500
0
VERTEX
10
9.0500
20
-41.4500
0
VERTEX
10
9.0500
20
-41.0000
0
SEQEND
0
POLYLINE
8
metal
70
1
0
VERTEX
10
3.9500
20
-40.4000
0
VERTEX
10
3.9500
20
-40.6500
0
VERTEX
10
8.9500
20
-40.6500
0
VERTEX
10
8.9500
20
-41.0000
0
VERTEX
10
9.0500
20
-41.0000
0
VERTEX
10
9.0500
20
-40.5500
0
VERTEX
10
4.0500
20
-40.5500
0
VERTEX
10
4.0500
20
-40.4000
0
SEQEND
0
POLYLINE
8
M1_Neg
70
1
0
VERTEX
10
8.9311
20
-45.6189
0
VERTEX
10
17.4163
20
-45.6189
0
VERTEX
10
21.6590
20
-49.8616
0
VERTEX
10
12.9616
20
-58.5590
0
VERTEX
10
8.7189
20
-54.3163
0
VERTEX
10
8.7189
20
-45.8311
0
SEQEND
0
POLYLINE
8
cure
70
1
0
VERTEX
10
3.1000
20
-46.4500
0
VERTEX
10
9.7000
20
-46.4500
0
VERTEX
10
9.7000
20
-39.7500
0
VERTEX
10
3.1000
20
-39.7500
0
SEQEND
0
POLYLINE
8
M2_undercutMsk
70
1
0
VERTEX
10
0.1000
20
-46.4500
0
VERTEX
10
12.7000
20
-46.4500
0
VERTEX
10
12.7000
20
-39.7500
0
VERTEX
10
0.1000
20
-39.7500
0
SEQEND
0
CIRCLE
8
M1_LD
10
15.2640
20
-52.1640
40
7.5000
0
SEQEND
0
POLYLINE
8
M1_Neg
70
1
0
VERTEX
10
-8.7500
20
-44.6000
0
VERTEX
10
-8.7500
20
-44.7500
0
VERTEX
10
-3.7500
20
-44.7500
0
VERTEX
10
-3.7500
20
-45.6500
0
VERTEX
10
-8.7500
20
-45.6500
0
VERTEX
10
-8.7500
20
-45.8000
0
VERTEX
10
-9.0500
20
-45.8000
0
VERTEX
10
-9.0500
20
-45.3500
0
VERTEX
10
-4.0500
20
-45.3500
0
VERTEX
10
-4.0500
20
-45.0500
0
VERTEX
10
-9.0500
20
-45.0500
0
VERTEX
10
-9.0500
20
-44.6000
0
SEQEND
0
POLYLINE
8
M1_Neg
70
1
0
VERTEX
10
-8.7500
20
-43.4000
0
VERTEX
10
-8.7500
20
-43.5500
0
VERTEX
10
-3.7500
20
-43.5500
0
VERTEX
10
-3.7500
20
-44.4500
0
VERTEX
10
-8.7500
20
-44.4500
0
VERTEX
10
-8.7500
20
-44.6000
0
VERTEX
10
-9.0500
20
-44.6000
0
VERTEX
10
-9.0500
20
-44.1500
0
VERTEX
10
-4.0500
20
-44.1500
0
VERTEX
10
-4.0500
20
-43.8500
0
VERTEX
10
-9.0500
20
-43.8500
0
VERTEX
10
-9.0500
20
-43.4000
0
SEQEND
0
POLYLINE
8
M1_Neg
70
1
0
VERTEX
10
-8.7500
20
-42.2000
0
VERTEX
10
-8.7500
20
-42.3500
0
VERTEX
10
-3.7500
20
-42.3500
0
VERTEX
10
-3.7500
20
-43.2500
0
VERTEX
10
-8.7500
20
-43.2500
0
VERTEX
10
-8.7500
20
-43.4000
0
VERTEX
10
-9.0500
20
-43.4000
0
VERTEX
10
-9.0500
20
-42.9500
0
VERTEX
10
-4.0500
20
-42.9500
0
VERTEX
10
-4.0500
20
-42.6500
0
VERTEX
10
-9.0500
20
-42.6500
0
VERTEX
10
-9.0500
20
-42.2000
0
SEQEND
0
POLYLINE
8
M1_Neg
70
1
0
VERTEX
10
-8.7500
20
-41.0000
0
VERTEX
10
-8.7500
20
-41.1500
0
VERTEX
10
-3.7500
20
-41.1500
0
VERTEX
10
-3.7500
20
-42.0500
0
VERTEX
10
-8.7500
20
-42.0500
0
VERTEX
10
-8.7500
20
-42.2000
0
VERTEX
10
-9.0500
20
-42.2000
0
VERTEX
10
-9.0500
20
-41.7500
0
VERTEX
10
-4.0500
20
-41.7500
0
VERTEX
10
-4.0500
20
-41.4500
0
VERTEX
10
-9.0500
20
-41.4500
0
VERTEX
10
-9.0500
20
-41.0000
0
SEQEND
0
POLYLINE
8
M1_Neg
70
1
0
VERTEX
10
-3.7500
20
-40.4000
0
VERTEX
10
-3.7500
20
-40.8500
0
VERTEX
10
-8.7500
20
-40.8500
0
VERTEX
10
-8.7500
20
-41.0000
0
VERTEX
10
-9.0500
20
-41.0000
0
VERTEX
10
-9.0500
20
-40.5500
0
VERTEX
10
-4.0500
20
-40.5500
0
VERTEX
10
-4.0500
20
-40.4000
0
SEQEND
0
POLYLINE
8
metal
70
1
0
VERTEX
10
-8.7500
20
-44.6000
0
VERTEX
10
-8.7500
20
-44.7500
0
VERTEX
10
-3.7500
20
-44.7500
0
VERTEX
10
-3.7500
20
-45.6500
0
VERTEX
10
-8.7500
20
-45.6500
0
VERTEX
10
-8.7500
20
-45.8000
0
VERTEX
10
-8.8500
20
-45.8000
0
VERTEX
10
-8.8500
20
-45.5500
0
VERTEX
10
-3.8500
20
-45.5500
0
VERTEX
10
-3.8500
20
-44.8500
0
VERTEX
10
-8.8500
20
-44.8500
0
VERTEX
10
-8.8500
20
-44.6000
0
SEQEND
0
POLYLINE
8
metal
70
1
0
VERTEX
10
-8.7500
20
-43.4000
0
VERTEX
10
-8.7500
20
-43.5500
0
VERTEX
10
-3.7500
20
-43.5500
0
VERTEX
10
-3.7500
20
-44.4500
0
VERTEX
10
-8.7500
20
-44.4500
0
VERTEX
10
-8.7500
20
-44.6000
0
VERTEX
10
-8.8500
20
-44.6000
0
VERTEX
10
-8.8500
20
-44.3500
0
VERTEX
10
-3.8500
20
-44.3500
0
VERTEX
10
-3.8500
20
-43.6500
0
VERTEX
10
-8.8500
20
-43.6500
0
VERTEX
10
-8.8500
20
-43.4000
0
SEQEND
0
POLYLINE
8
metal
70
1
0
VERTEX
10
-8.7500
20
-42.2000
0
VERTEX
10
-8.7500
20
-42.3500
0
VERTEX
10
-3.7500
20
-42.3500
0
VERTEX
10
-3.7500
20
-43.2500
0
VERTEX
10
-8.7500
20
-43.2500
0
VERTEX
10
-8.7500
20
-43.4000
0
VERTEX
10
-8.8500
20
-43.4000
0
VERTEX
10
-8.8500
20
-43.1500
0
VERTEX
10
-3.8500
20
-43.1500
0
VERTEX
10
-3.8500
20
-42.4500
0
VERTEX
10
-8.8500
20
-42.4500
0
VERTEX
10
-8.8500
20
-42.2000
0
SEQEND
0
POLYLINE
8
metal
70
1
0
VERTEX
10
-8.7500
20
-41.0000
0
VERTEX
10
-8.7500
20
-41.1500
0
VERTEX
10
-3.7500
20
-41.1500
0
VERTEX
10
-3.7500
20
-42.0500
0
VERTEX
10
-8.7500
20
-42.0500
0
VERTEX
10
-8.7500
20
-42.2000
0
VERTEX
10
-8.8500
20
-42.2000
0
VERTEX
10
-8.8500
20
-41.9500
0
VERTEX
10
-3.8500
20
-41.9500
0
VERTEX
10
-3.8500
20
-41.2500
0
VERTEX
10
-8.8500
20
-41.2500
0
VERTEX
10
-8.8500
20
-41.0000
0
SEQEND
0
POLYLINE
8
metal
70
1
0
VERTEX
10
-3.7500
20
-40.4000
0
VERTEX
10
-3.7500
20
-40.8500
0
VERTEX
10
-8.7500
20
-40.8500
0
VERTEX
10
-8.7500
20
-41.0000
0
VERTEX
10
-8.8500
20
-41.0000
0
VERTEX
10
-8.8500
20
-40.7500
0
VERTEX
10
-3.8500
20
-40.7500
0
VERTEX
10
-3.8500
20
-40.4000
0
SEQEND
0
POLYLINE
8
metal
70
1
0
VERTEX
10
-8.9500
20
-44.6000
0
VERTEX
10
-8.9500
20
-44.9500
0
VERTEX
10
-3.9500
20
-44.9500
0
VERTEX
10
-3.9500
20
-45.4500
0
VERTEX
10
-8.9500
20
-45.4500
0
VERTEX
10
-8.9500
20
-45.8000
0
VERTEX
10
-9.0500
20
-45.8000
0
VERTEX
10
-9.0500
20
-45.3500
0
VERTEX
10
-4.0500
20
-45.3500
0
VERTEX
10
-4.0500
20
-45.0500
0
VERTEX
10
-9.0500
20
-45.0500
0
VERTEX
10
-9.0500
20
-44.6000
0
SEQEND
0
POLYLINE
8
metal
70
1
0
VERTEX
10
-8.9500
20
-43.4000
0
VERTEX
10
-8.9500
20
-43.7500
0
VERTEX
10
-3.9500
20
-43.7500
0
VERTEX
10
-3.9500
20
-44.2500
0
VERTEX
10
-8.9500
20
-44.2500
0
VERTEX
10
-8.9500
20
-44.6000
0
VERTEX
10
-9.0500
20
-44.6000
0
VERTEX
10
-9.0500
20
-44.1500
0
VERTEX
10
-4.0500
20
-44.1500
0
VERTEX
10
-4.0500
20
-43.8500
0
VERTEX
10
-9.0500
20
-43.8500
0
VERTEX
10
-9.0500
20
-43.4000
0
SEQEND
0
POLYLINE
8
metal
70
1
0
VERTEX
10
-8.9500
20
-42.2000
0
VERTEX
10
-8.9500
20
-42.5500
0
VERTEX
10
-3.9500
20
-42.5500
0
VERTEX
10
-3.9500
20
-43.0500
0
VERTEX
10
-8.9500
20
-43.0500
0
VERTEX
10
-8.9500
20
-43.4000
0
VERTEX
10
-9.0500
20
-43.4000
0
VERTEX
10
-9.0500
20
-42.9500
0
VERTEX
10
-4.0500
20
-42.9500
0
VERTEX
10
-4.0500
20
-42.6500
0
VERTEX
10
-9.0500
20
-42.6500
0
VERTEX
10
-9.0500
20
-42.2000
0
SEQEND
0
POLYLINE
8
metal
70
1
0
VERTEX
10
-8.9500
20
-41.0000
0
VERTEX
10
-8.9500
20
-41.3500
0
VERTEX
10
-3.9500
20
-41.3500
0
VERTEX
10
-3.9500
20
-41.8500
0
VERTEX
10
-8.9500
20
-41.8500
0
VERTEX
10
-8.9500
20
-42.2000
0
VERTEX
10
-9.0500
20
-42.2000
0
VERTEX
10
-9.0500
20
-41.7500
0
VERTEX
10
-4.0500
20
-41.7500
0
VERTEX
10
-4.0500
20
-41.4500
0
VERTEX
10
-9.0500
20
-41.4500
0
VERTEX
10
-9.0500
20
-41.0000
0
SEQEND
0
POLYLINE
8
metal
70
1
0
VERTEX
10
-3.9500
20
-40.4000
0
VERTEX
10
-3.9500
20
-40.6500
0
VERTEX
10
-8.9500
20
-40.6500
0
VERTEX
10
-8.9500
20
-41.0000
0
VERTEX
10
-9.0500
20
-41.0000
0
VERTEX
10
-9.0500
20
-40.5500
0
VERTEX
10
-4.0500
20
-40.5500
0
VERTEX
10
-4.0500
20
-40.4000
0
SEQEND
0
POLYLINE
8
M1_Neg
70
1
0
VERTEX
10
-8.9311
20
-45.6189
0
VERTEX
10
-17.4163
20
-45.6189
0
VERTEX
10
-21.6590
20
-49.8616
0
VERTEX
10
-12.9616
20
-58.5590
0
VERTEX
10
-8.7189
20
-54.3163
0
VERTEX
10
-8.7189
20
-45.8311
0
SEQEND
0
POLYLINE
8
cure
70
1
0
VERTEX
10
-3.1000
20
-39.7500
0
VERTEX
10
-9.7000
20
-39.7500
0
VERTEX
10
-9.7000
20
-46.4500
0
VERTEX
10
-3.1000
20
-46.4500
0
SEQEND
0
POLYLINE
8
M2_undercutMsk
70
1
0
VERTEX
10
-0.1000
20
-39.7500
0
VERTEX
10
-12.7000
20
-39.7500
0
VERTEX
10
-12.7000
20
-46.4500
0
VERTEX
10
-0.1000
20
-46.4500
0
SEQEND
0
CIRCLE
8
M1_LD
10
-15.2640
20
-52.1640
40
7.5000
0
SEQEND
0
POLYLINE
8
M1_Neg
70
1
0
VERTEX
10
3.4625
20
-40.7500
0
VERTEX
10
3.8375
20
-40.7500
0
VERTEX
10
3.8375
20
-40.6500
0
VERTEX
10
3.4625
20
-40.6500
0
SEQEND
0
POLYLINE
8
M1_Neg
70
1
0
VERTEX
10
-3.8375
20
-40.7500
0
VERTEX
10
-3.4625
20
-40.7500
0
VERTEX
10
-3.4625
20
-40.6500
0
VERTEX
10
-3.8375
20
-40.6500
0
SEQEND
0
POLYLINE
8
M2_undercutMsk
70
1
0
VERTEX
10
-6.5000
20
-47.2000
0
VERTEX
10
6.5000
20
-47.2000
0
VERTEX
10
6.5000
20
-34.2000
0
VERTEX
10
-6.5000
20
-34.2000
0
SEQEND
0
POLYLINE
8
M1_Neg
70
1
0
VERTEX
10
0.1500
20
-27.0000
0
VERTEX
10
0.4000
20
-17.0000
0
VERTEX
10
1.2000
20
-13.5000
0
VERTEX
10
0.4000
20
-10.0000
0
VERTEX
10
0.1410
20
0.0000
0
VERTEX
10
-0.1410
20
0.0000
0
VERTEX
10
-0.4000
20
-10.0000
0
VERTEX
10
-1.2000
20
-13.5000
0
VERTEX
10
-0.4000
20
-17.0000
0
VERTEX
10
-0.1500
20
-27.0000
0
SEQEND
0
POLYLINE
8
M1_Neg
70
1
0
VERTEX
10
-8.7500
20
-9.6000
0
VERTEX
10
-8.7500
20
-9.4500
0
VERTEX
10
-3.7500
20
-9.4500
0
VERTEX
10
-3.7500
20
-8.5500
0
VERTEX
10
-8.7500
20
-8.5500
0
VERTEX
10
-8.7500
20
-8.4000
0
VERTEX
10
-9.0500
20
-8.4000
0
VERTEX
10
-9.0500
20
-8.8500
0
VERTEX
10
-4.0500
20
-8.8500
0
VERTEX
10
-4.0500
20
-9.1500
0
VERTEX
10
-9.0500
20
-9.1500
0
VERTEX
10
-9.0500
20
-9.6000
0
SEQEND
0
POLYLINE
8
M1_Neg
70
1
0
VERTEX
10
-8.7500
20
-10.8000
0
VERTEX
10
-8.7500
20
-10.6500
0
VERTEX
10
-3.7500
20
-10.6500
0
VERTEX
10
-3.7500
20
-9.7500
0
VERTEX
10
-8.7500
20
-9.7500
0
VERTEX
10
-8.7500
20
-9.6000
0
VERTEX
10
-9.0500
20
-9.6000
0
VERTEX
10
-9.0500
20
-10.0500
0
VERTEX
10
-4.0500
20
-10.0500
0
VERTEX
10
-4.0500
20
-10.3500
0
VERTEX
10
-9.0500
20
-10.3500
0
VERTEX
10
-9.0500
20
-10.8000
0
SEQEND
0
POLYLINE
8
M1_Neg
70
1
0
VERTEX
10
-8.7500
20
-12.0000
0
VERTEX
10
-8.7500
20
-11.8500
0
VERTEX
10
-3.7500
20
-11.8500
0
VERTEX
10
-3.7500
20
-10.9500
0
VERTEX
10
-8.7500
20
-10.9500
0
VERTEX
10
-8.7500
20
-10.8000
0
VERTEX
10
-9.0500
20
-10.8000
0
VERTEX
10
-9.0500
20
-11.2500
0
VERTEX
10
-4.0500
20
-11.2500
0
VERTEX
10
-4.0500
20
-11.5500
0
VERTEX
10
-9.0500
20
-11.5500
0
VERTEX
10
-9.0500
20
-12.0000
0
SEQEND
0
POLYLINE
8
M1_Neg
70
1
0
VERTEX
10
-8.7500
20
-13.2000
0
VERTEX
10
-8.7500
20
-13.0500
0
VERTEX
10
-3.7500
20
-13.0500
0
VERTEX
10
-3.7500
20
-12.1500
0
VERTEX
10
-8.7500
20
-12.1500
0
VERTEX
10
-8.7500
20
-12.0000
0
VERTEX
10
-9.0500
20
-12.0000
0
VERTEX
10
-9.0500
20
-12.4500
0
VERTEX
10
-4.0500
20
-12.4500
0
VERTEX
10
-4.0500
20
-12.7500
0
VERTEX
10
-9.0500
20
-12.7500
0
VERTEX
10
-9.0500
20
-13.2000
0
SEQEND
0
POLYLINE
8
M1_Neg
70
1
0
VERTEX
10
-3.7500
20
-13.8000
0
VERTEX
10
-3.7500
20
-13.3500
0
VERTEX
10
-8.7500
20
-13.3500
0
VERTEX
10
-8.7500
20
-13.2000
0
VERTEX
10
-9.0500
20
-13.2000
0
VERTEX
10
-9.0500
20
-13.6500
0
VERTEX
10
-4.0500
20
-13.6500
0
VERTEX
10
-4.0500
20
-13.8000
0
SEQEND
0
POLYLINE
8
metal
70
1
0
VERTEX
10
-8.7500
20
-9.6000
0
VERTEX
10
-8.7500
20
-9.4500
0
VERTEX
10
-3.7500
20
-9.4500
0
VERTEX
10
-3.7500
20
-8.5500
0
VERTEX
10
-8.7500
20
-8.5500
0
VERTEX
10
-8.7500
20
-8.4000
0
VERTEX
10
-8.8500
20
-8.4000
0
VERTEX
10
-8.8500
20
-8.6500
0
VERTEX
10
-3.8500
20
-8.6500
0
VERTEX
10
-3.8500
20
-9.3500
0
VERTEX
10
-8.8500
20
-9.3500
0
VERTEX
10
-8.8500
20
-9.6000
0
SEQEND
0
POLYLINE
8
metal
70
1
0
VERTEX
10
-8.7500
20
-10.8000
0
VERTEX
10
-8.7500
20
-10.6500
0
VERTEX
10
-3.7500
20
-10.6500
0
VERTEX
10
-3.7500
20
-9.7500
0
VERTEX
10
-8.7500
20
-9.7500
0
VERTEX
10
-8.7500
20
-9.6000
0
VERTEX
10
-8.8500
20
-9.6000
0
VERTEX
10
-8.8500
20
-9.8500
0
VERTEX
10
-3.8500
20
-9.8500
0
VERTEX
10
-3.8500
20
-10.5500
0
VERTEX
10
-8.8500
20
-10.5500
0
VERTEX
10
-8.8500
20
-10.8000
0
SEQEND
0
POLYLINE
8
metal
70
1
0
VERTEX
10
-8.7500
20
-12.0000
0
VERTEX
10
-8.7500
20
-11.8500
0
VERTEX
10
-3.7500
20
-11.8500
0
VERTEX
10
-3.7500
20
-10.9500
0
VERTEX
10
-8.7500
20
-10.9500
0
VERTEX
10
-8.7500
20
-10.8000
0
VERTEX
10
-8.8500
20
-10.8000
0
VERTEX
10
-8.8500
20
-11.0500
0
VERTEX
10
-3.8500
20
-11.0500
0
VERTEX
10
-3.8500
20
-11.7500
0
VERTEX
10
-8.8500
20
-11.7500
0
VERTEX
10
-8.8500
20
-12.0000
0
SEQEND
0
POLYLINE
8
metal
70
1
0
VERTEX
10
-8.7500
20
-13.2000
0
VERTEX
10
-8.7500
20
-13.0500
0
VERTEX
10
-3.7500
20
-13.0500
0
VERTEX
10
-3.7500
20
-12.1500
0
VERTEX
10
-8.7500
20
-12.1500
0
VERTEX
10
-8.7500
20
-12.0000
0
VERTEX
10
-8.8500
20
-12.0000
0
VERTEX
10
-8.8500
20
-12.2500
0
VERTEX
10
-3.8500
20
-12.2500
0
VERTEX
10
-3.8500
20
-12.9500
0
VERTEX
10
-8.8500
20
-12.9500
0
VERTEX
10
-8.8500
20
-13.2000
0
SEQEND
0
POLYLINE
8
metal
70
1
0
VERTEX
10
-3.7500
20
-13.8000
0
VERTEX
10
-3.7500
20
-13.3500
0
VERTEX
10
-8.7500
20
-13.3500
0
VERTEX
10
-8.7500
20
-13.2000
0
VERTEX
10
-8.8500
20
-13.2000
0
VERTEX
10
-8.8500
20
-13.4500
0
VERTEX
10
-3.8500
20
-13.4500
0
VERTEX
10
-3.8500
20
-13.8000
0
SEQEND
0
POLYLINE
8
metal
70
1
0
VERTEX
10
-8.9500
20
-9.6000
0
VERTEX
10
-8.9500
20
-9.2500
0
VERTEX
10
-3.9500
20
-9.2500
0
VERTEX
10
-3.9500
20
-8.7500
0
VERTEX
10
-8.9500
20
-8.7500
0
VERTEX
10
-8.9500
20
-8.4000
0
VERTEX
10
-9.0500
20
-8.4000
0
VERTEX
10
-9.0500
20
-8.8500
0
VERTEX
10
-4.0500
20
-8.8500
0
VERTEX
10
-4.0500
20
-9.1500
0
VERTEX
10
-9.0500
20
-9.1500
0
VERTEX
10
-9.0500
20
-9.6000
0
SEQEND
0
POLYLINE
8
metal
70
1
0
VERTEX
10
-8.9500
20
-10.8000
0
VERTEX
10
-8.9500
20
-10.4500
0
VERTEX
10
-3.9500
20
-10.4500
0
VERTEX
10
-3.9500
20
-9.9500
0
VERTEX
10
-8.9500
20
-9.9500
0
VERTEX
10
-8.9500
20
-9.6000
0
VERTEX
10
-9.0500
20
-9.6000
0
VERTEX
10
-9.0500
20
-10.0500
0
VERTEX
10
-4.0500
20
-10.0500
0
VERTEX
10
-4.0500
20
-10.3500
0
VERTEX
10
-9.0500
20
-10.3500
0
VERTEX
10
-9.0500
20
-10.8000
0
SEQEND
0
POLYLINE
8
metal
70
1
0
VERTEX
10
-8.9500
20
-12.0000
0
VERTEX
10
-8.9500
20
-11.6500
0
VERTEX
10
-3.9500
20
-11.6500
0
VERTEX
10
-3.9500
20
-11.1500
0
VERTEX
10
-8.9500
20
-11.1500
0
VERTEX
10
-8.9500
20
-10.8000
0
VERTEX
10
-9.0500
20
-10.8000
0
VERTEX
10
-9.0500
20
-11.2500
0
VERTEX
10
-4.0500
20
-11.2500
0
VERTEX
10
-4.0500
20
-11.5500
0
VERTEX
10
-9.0500
20
-11.5500
0
VERTEX
10
-9.0500
20
-12.0000
0
SEQEND
0
POLYLINE
8
metal
70
1
0
VERTEX
10
-8.9500
20
-13.2000
0
VERTEX
10
-8.9500
20
-12.8500
0
VERTEX
10
-3.9500
20
-12.8500
0
VERTEX
10
-3.9500
20
-12.3500
0
VERTEX
10
-8.9500
20
-12.3500
0
VERTEX
10
-8.9500
20
-12.0000
0
VERTEX
10
-9.0500
20
-12.0000
0
VERTEX
10
-9.0500
20
-12.4500
0
VERTEX
10
-4.0500
20
-12.4500
0
VERTEX
10
-4.0500
20
-12.7500
0
VERTEX
10
-9.0500
20
-12.7500
0
VERTEX
10
-9.0500
20
-13.2000
0
SEQEND
0
POLYLINE
8
metal
70
1
0
VERTEX
10
-3.9500
20
-13.8000
0
VERTEX
10
-3.9500
20
-13.5500
0
VERTEX
10
-8.9500
20
-13.5500
0
VERTEX
10
-8.9500
20
-13.2000
0
VERTEX
10
-9.0500
20
-13.2000
0
VERTEX
10
-9.0500
20
-13.6500
0
VERTEX
10
-4.0500
20
-13.6500
0
VERTEX
10
-4.0500
20
-13.8000
0
SEQEND
0
POLYLINE
8
M1_Neg
70
1
0
VERTEX
10
-8.9311
20
-8.5811
0
VERTEX
10
-17.4163
20
-8.5811
0
VERTEX
10
-21.6590
20
-4.3384
0
VERTEX
10
-12.9616
20
4.3590
0
VERTEX
10
-8.7189
20
0.1163
0
VERTEX
10
-8.7189
20
-8.3689
0
SEQEND
0
POLYLINE
8
cure
70
1
0
VERTEX
10
-3.1000
20
-7.7500
0
VERTEX
10
-9.7000
20
-7.7500
0
VERTEX
10
-9.7000
20
-14.4500
0
VERTEX
10
-3.1000
20
-14.4500
0
SEQEND
0
POLYLINE
8
M2_undercutMsk
70
1
0
VERTEX
10
-0.1000
20
-7.7500
0
VERTEX
10
-12.7000
20
-7.7500
0
VERTEX
10
-12.7000
20
-14.4500
0
VERTEX
10
-0.1000
20
-14.4500
0
SEQEND
0
CIRCLE
8
M1_LD
10
-15.2640
20
-2.0360
40
7.5000
0
SEQEND
0
POLYLINE
8
M1_Neg
70
1
0
VERTEX
10
8.7500
20
-9.6000
0
VERTEX
10
8.7500
20
-9.4500
0
VERTEX
10
3.7500
20
-9.4500
0
VERTEX
10
3.7500
20
-8.5500
0
VERTEX
10
8.7500
20
-8.5500
0
VERTEX
10
8.7500
20
-8.4000
0
VERTEX
10
9.0500
20
-8.4000
0
VERTEX
10
9.0500
20
-8.8500
0
VERTEX
10
4.0500
20
-8.8500
0
VERTEX
10
4.0500
20
-9.1500
0
VERTEX
10
9.0500
20
-9.1500
0
VERTEX
10
9.0500
20
-9.6000
0
SEQEND
0
POLYLINE
8
M1_Neg
70
1
0
VERTEX
10
8.7500
20
-10.8000
0
VERTEX
10
8.7500
20
-10.6500
0
VERTEX
10
3.7500
20
-10.6500
0
VERTEX
10
3.7500
20
-9.7500
0
VERTEX
10
8.7500
20
-9.7500
0
VERTEX
10
8.7500
20
-9.6000
0
VERTEX
10
9.0500
20
-9.6000
0
VERTEX
10
9.0500
20
-10.0500
0
VERTEX
10
4.0500
20
-10.0500
0
VERTEX
10
4.0500
20
-10.3500
0
VERTEX
10
9.0500
20
-10.3500
0
VERTEX
10
9.0500
20
-10.8000
0
SEQEND
0
POLYLINE
8
M1_Neg
70
1
0
VERTEX
10
8.7500
20
-12.0000
0
VERTEX
10
8.7500
20
-11.8500
0
VERTEX
10
3.7500
20
-11.8500
0
VERTEX
10
3.7500
20
-10.9500
0
VERTEX
10
8.7500
20
-10.9500
0
VERTEX
10
8.7500
20
-10.8000
0
VERTEX
10
9.0500
20
-10.8000
0
VERTEX
10
9.0500
20
-11.2500
0
VERTEX
10
4.0500
20
-11.2500
0
VERTEX
10
4.0500
20
-11.5500
0
VERTEX
10
9.0500
20
-11.5500
0
VERTEX
10
9.0500
20
-12.0000
0
SEQEND
0
POLYLINE
8
M1_Neg
70
1
0
VERTEX
10
8.7500
20
-13.2000
0
VERTEX
10
8.7500
20
-13.0500
0
VERTEX
10
3.7500
20
-13.0500
0
VERTEX
10
3.7500
20
-12.1500
0
VERTEX
10
8.7500
20
-12.1500
0
VERTEX
10
8.7500
20
-12.0000
0
VERTEX
10
9.0500
20
-12.0000
0
VERTEX
10
9.0500
20
-12.4500
0
VERTEX
10
4.0500
20
-12.4500
0
VERTEX
10
4.0500
20
-12.7500
0
VERTEX
10
9.0500
20
-12.7500
0
VERTEX
10
9.0500
20
-13.2000
0
SEQEND
0
POLYLINE
8
M1_Neg
70
1
0
VERTEX
10
3.7500
20
-13.8000
0
VERTEX
10
3.7500
20
-13.3500
0
VERTEX
10
8.7500
20
-13.3500
0
VERTEX
10
8.7500
20
-13.2000
0
VERTEX
10
9.0500
20
-13.2000
0
VERTEX
10
9.0500
20
-13.6500
0
VERTEX
10
4.0500
20
-13.6500
0
VERTEX
10
4.0500
20
-13.8000
0
SEQEND
0
POLYLINE
8
metal
70
1
0
VERTEX
10
8.7500
20
-9.6000
0
VERTEX
10
8.7500
20
-9.4500
0
VERTEX
10
3.7500
20
-9.4500
0
VERTEX
10
3.7500
20
-8.5500
0
VERTEX
10
8.7500
20
-8.5500
0
VERTEX
10
8.7500
20
-8.4000
0
VERTEX
10
8.8500
20
-8.4000
0
VERTEX
10
8.8500
20
-8.6500
0
VERTEX
10
3.8500
20
-8.6500
0
VERTEX
10
3.8500
20
-9.3500
0
VERTEX
10
8.8500
20
-9.3500
0
VERTEX
10
8.8500
20
-9.6000
0
SEQEND
0
POLYLINE
8
metal
70
1
0
VERTEX
10
8.7500
20
-10.8000
0
VERTEX
10
8.7500
20
-10.6500
0
VERTEX
10
3.7500
20
-10.6500
0
VERTEX
10
3.7500
20
-9.7500
0
VERTEX
10
8.7500
20
-9.7500
0
VERTEX
10
8.7500
20
-9.6000
0
VERTEX
10
8.8500
20
-9.6000
0
VERTEX
10
8.8500
20
-9.8500
0
VERTEX
10
3.8500
20
-9.8500
0
VERTEX
10
3.8500
20
-10.5500
0
VERTEX
10
8.8500
20
-10.5500
0
VERTEX
10
8.8500
20
-10.8000
0
SEQEND
0
POLYLINE
8
metal
70
1
0
VERTEX
10
8.7500
20
-12.0000
0
VERTEX
10
8.7500
20
-11.8500
0
VERTEX
10
3.7500
20
-11.8500
0
VERTEX
10
3.7500
20
-10.9500
0
VERTEX
10
8.7500
20
-10.9500
0
VERTEX
10
8.7500
20
-10.8000
0
VERTEX
10
8.8500
20
-10.8000
0
VERTEX
10
8.8500
20
-11.0500
0
VERTEX
10
3.8500
20
-11.0500
0
VERTEX
10
3.8500
20
-11.7500
0
VERTEX
10
8.8500
20
-11.7500
0
VERTEX
10
8.8500
20
-12.0000
0
SEQEND
0
POLYLINE
8
metal
70
1
0
VERTEX
10
8.7500
20
-13.2000
0
VERTEX
10
8.7500
20
-13.0500
0
VERTEX
10
3.7500
20
-13.0500
0
VERTEX
10
3.7500
20
-12.1500
0
VERTEX
10
8.7500
20
-12.1500
0
VERTEX
10
8.7500
20
-12.0000
0
VERTEX
10
8.8500
20
-12.0000
0
VERTEX
10
8.8500
20
-12.2500
0
VERTEX
10
3.8500
20
-12.2500
0
VERTEX
10
3.8500
20
-12.9500
0
VERTEX
10
8.8500
20
-12.9500
0
VERTEX
10
8.8500
20
-13.2000
0
SEQEND
0
POLYLINE
8
metal
70
1
0
VERTEX
10
3.7500
20
-13.8000
0
VERTEX
10
3.7500
20
-13.3500
0
VERTEX
10
8.7500
20
-13.3500
0
VERTEX
10
8.7500
20
-13.2000
0
VERTEX
10
8.8500
20
-13.2000
0
VERTEX
10
8.8500
20
-13.4500
0
VERTEX
10
3.8500
20
-13.4500
0
VERTEX
10
3.8500
20
-13.8000
0
SEQEND
0
POLYLINE
8
metal
70
1
0
VERTEX
10
8.9500
20
-9.6000
0
VERTEX
10
8.9500
20
-9.2500
0
VERTEX
10
3.9500
20
-9.2500
0
VERTEX
10
3.9500
20
-8.7500
0
VERTEX
10
8.9500
20
-8.7500
0
VERTEX
10
8.9500
20
-8.4000
0
VERTEX
10
9.0500
20
-8.4000
0
VERTEX
10
9.0500
20
-8.8500
0
VERTEX
10
4.0500
20
-8.8500
0
VERTEX
10
4.0500
20
-9.1500
0
VERTEX
10
9.0500
20
-9.1500
0
VERTEX
10
9.0500
20
-9.6000
0
SEQEND
0
POLYLINE
8
metal
70
1
0
VERTEX
10
8.9500
20
-10.8000
0
VERTEX
10
8.9500
20
-10.4500
0
VERTEX
10
3.9500
20
-10.4500
0
VERTEX
10
3.9500
20
-9.9500
0
VERTEX
10
8.9500
20
-9.9500
0
VERTEX
10
8.9500
20
-9.6000
0
VERTEX
10
9.0500
20
-9.6000
0
VERTEX
10
9.0500
20
-10.0500
0
VERTEX
10
4.0500
20
-10.0500
0
VERTEX
10
4.0500
20
-10.3500
0
VERTEX
10
9.0500
20
-10.3500
0
VERTEX
10
9.0500
20
-10.8000
0
SEQEND
0
POLYLINE
8
metal
70
1
0
VERTEX
10
8.9500
20
-12.0000
0
VERTEX
10
8.9500
20
-11.6500
0
VERTEX
10
3.9500
20
-11.6500
0
VERTEX
10
3.9500
20
-11.1500
0
VERTEX
10
8.9500
20
-11.1500
0
VERTEX
10
8.9500
20
-10.8000
0
VERTEX
10
9.0500
20
-10.8000
0
VERTEX
10
9.0500
20
-11.2500
0
VERTEX
10
4.0500
20
-11.2500
0
VERTEX
10
4.0500
20
-11.5500
0
VERTEX
10
9.0500
20
-11.5500
0
VERTEX
10
9.0500
20
-12.0000
0
SEQEND
0
POLYLINE
8
metal
70
1
0
VERTEX
10
8.9500
20
-13.2000
0
VERTEX
10
8.9500
20
-12.8500
0
VERTEX
10
3.9500
20
-12.8500
0
VERTEX
10
3.9500
20
-12.3500
0
VERTEX
10
8.9500
20
-12.3500
0
VERTEX
10
8.9500
20
-12.0000
0
VERTEX
10
9.0500
20
-12.0000
0
VERTEX
10
9.0500
20
-12.4500
0
VERTEX
10
4.0500
20
-12.4500
0
VERTEX
10
4.0500
20
-12.7500
0
VERTEX
10
9.0500
20
-12.7500
0
VERTEX
10
9.0500
20
-13.2000
0
SEQEND
0
POLYLINE
8
metal
70
1
0
VERTEX
10
3.9500
20
-13.8000
0
VERTEX
10
3.9500
20
-13.5500
0
VERTEX
10
8.9500
20
-13.5500
0
VERTEX
10
8.9500
20
-13.2000
0
VERTEX
10
9.0500
20
-13.2000
0
VERTEX
10
9.0500
20
-13.6500
0
VERTEX
10
4.0500
20
-13.6500
0
VERTEX
10
4.0500
20
-13.8000
0
SEQEND
0
POLYLINE
8
M1_Neg
70
1
0
VERTEX
10
8.9311
20
-8.5811
0
VERTEX
10
17.4163
20
-8.5811
0
VERTEX
10
21.6590
20
-4.3384
0
VERTEX
10
12.9616
20
4.3590
0
VERTEX
10
8.7189
20
0.1163
0
VERTEX
10
8.7189
20
-8.3689
0
SEQEND
0
POLYLINE
8
cure
70
1
0
VERTEX
10
3.1000
20
-14.4500
0
VERTEX
10
9.7000
20
-14.4500
0
VERTEX
10
9.7000
20
-7.7500
0
VERTEX
10
3.1000
20
-7.7500
0
SEQEND
0
POLYLINE
8
M2_undercutMsk
70
1
0
VERTEX
10
0.1000
20
-14.4500
0
VERTEX
10
12.7000
20
-14.4500
0
VERTEX
10
12.7000
20
-7.7500
0
VERTEX
10
0.1000
20
-7.7500
0
SEQEND
0
CIRCLE
8
M1_LD
10
15.2640
20
-2.0360
40
7.5000
0
SEQEND
0
POLYLINE
8
M1_Neg
70
1
0
VERTEX
10
-3.4625
20
-13.4500
0
VERTEX
10
-3.8375
20
-13.4500
0
VERTEX
10
-3.8375
20
-13.5500
0
VERTEX
10
-3.4625
20
-13.5500
0
SEQEND
0
POLYLINE
8
M1_Neg
70
1
0
VERTEX
10
3.8375
20
-13.4500
0
VERTEX
10
3.4625
20
-13.4500
0
VERTEX
10
3.4625
20
-13.5500
0
VERTEX
10
3.8375
20
-13.5500
0
SEQEND
0
POLYLINE
8
M2_undercutMsk
70
1
0
VERTEX
10
6.5000
20
-7.0000
0
VERTEX
10
-6.5000
20
-7.0000
0
VERTEX
10
-6.5000
20
-20.0000
0
VERTEX
10
6.5000
20
-20.0000
0
SEQEND
0
POLYLINE
8
M1_Neg
70
1
0
VERTEX
10
-3.5000
20
-14.0000
0
VERTEX
10
3.5000
20
-14.0000
0
VERTEX
10
3.5000
20
-13.0000
0
VERTEX
10
-3.5000
20
-13.0000
0
SEQEND
0
POLYLINE
8
M1_Neg
70
1
0
VERTEX
10
0.8000
20
-80.0000
0
VERTEX
10
1.2000
20
-79.6000
0
VERTEX
10
1.2000
20
-79.2000
0
VERTEX
10
1.6000
20
-78.8000
0
VERTEX
10
2.0000
20
-78.4000
0
VERTEX
10
2.4000
20
-78.4000
0
VERTEX
10
2.8000
20
-78.4000
0
VERTEX
10
3.2000
20
-78.4000
0
VERTEX
10
3.6000
20
-78.4000
0
VERTEX
10
4.0000
20
-78.4000
0
VERTEX
10
4.4000
20
-78.4000
0
VERTEX
10
4.8000
20
-78.4000
0
VERTEX
10
5.2000
20
-78.8000
0
VERTEX
10
5.6000
20
-79.2000
0
VERTEX
10
5.6000
20
-79.6000
0
VERTEX
10
6.0000
20
-80.0000
0
VERTEX
10
6.0000
20
-80.4000
0
VERTEX
10
6.0000
20
-80.8000
0
VERTEX
10
6.0000
20
-81.2000
0
VERTEX
10
6.0000
20
-81.6000
0
VERTEX
10
6.0000
20
-82.0000
0
VERTEX
10
6.0000
20
-82.4000
0
VERTEX
10
6.0000
20
-82.8000
0
VERTEX
10
6.0000
20
-83.2000
0
VERTEX
10
6.0000
20
-83.6000
0
VERTEX
10
5.6000
20
-84.0000
0
VERTEX
10
5.6000
20
-84.4000
0
VERTEX
10
5.2000
20
-84.8000
0
VERTEX
10
4.8000
20
-85.2000
0
VERTEX
10
4.4000
20
-85.2000
0
VERTEX
10
4.0000
20
-85.2000
0
VERTEX
10
3.6000
20
-85.2000
0
VERTEX
10
3.2000
20
-85.2000
0
VERTEX
10
2.8000
20
-85.2000
0
VERTEX
10
2.4000
20
-85.2000
0
VERTEX
10
2.0000
20
-85.2000
0
VERTEX
10
1.6000
20
-84.8000
0
VERTEX
10
1.2000
20
-84.4000
0
VERTEX
10
1.2000
20
-84.0000
0
VERTEX
10
0.8000
20
-83.6000
0
VERTEX
10
0.8000
20
-83.2000
0
VERTEX
10
0.8000
20
-82.8000
0
VERTEX
10
0.8000
20
-82.4000
0
VERTEX
10
0.8000
20
-82.0000
0
VERTEX
10
0.8000
20
-81.6000
0
VERTEX
10
0.8000
20
-81.2000
0
VERTEX
10
0.8000
20
-80.8000
0
VERTEX
10
0.8000
20
-80.4000
0
VERTEX
10
0.8000
20
-80.0000
0
SEQEND
0
POLYLINE
8
M1_Pos_ind
70
1
0
VERTEX
10
2.0000
20
-80.0000
0
VERTEX
10
2.4000
20
-80.0000
0
VERTEX
10
2.4000
20
-79.6000
0
VERTEX
10
2.4000
20
-79.2000
0
VERTEX
10
2.8000
20
-79.2000
0
VERTEX
10
3.2000
20
-79.2000
0
VERTEX
10
3.6000
20
-79.2000
0
VERTEX
10
4.0000
20
-79.2000
0
VERTEX
10
4.4000
20
-79.2000
0
VERTEX
10
4.0000
20
-79.2000
0
VERTEX
10
4.0000
20
-79.6000
0
VERTEX
10
4.0000
20
-80.0000
0
VERTEX
10
3.6000
20
-80.0000
0
VERTEX
10
3.6000
20
-80.4000
0
VERTEX
10
3.2000
20
-80.4000
0
VERTEX
10
3.2000
20
-80.8000
0
VERTEX
10
3.2000
20
-81.2000
0
VERTEX
10
2.8000
20
-81.2000
0
VERTEX
10
2.8000
20
-81.6000
0
VERTEX
10
2.8000
20
-82.0000
0
VERTEX
10
2.4000
20
-82.0000
0
VERTEX
10
2.4000
20
-82.4000
0
VERTEX
10
2.0000
20
-82.4000
0
VERTEX
10
2.0000
20
-82.8000
0
VERTEX
10
2.0000
20
-83.2000
0
VERTEX
10
2.0000
20
-82.8000
0
VERTEX
10
2.0000
20
-82.4000
0
VERTEX
10
2.0000
20
-82.0000
0
VERTEX
10
2.0000
20
-81.6000
0
VERTEX
10
2.0000
20
-81.2000
0
VERTEX
10
2.0000
20
-80.8000
0
VERTEX
10
2.0000
20
-80.4000
0
VERTEX
10
2.0000
20
-80.0000
0
SEQEND
0
POLYLINE
8
M1_Pos_ind
70
1
0
VERTEX
10
2.4000
20
-84.4000
0
VERTEX
10
2.8000
20
-84.4000
0
VERTEX
10
2.8000
20
-84.0000
0
VERTEX
10
2.8000
20
-83.6000
0
VERTEX
10
3.2000
20
-83.6000
0
VERTEX
10
3.2000
20
-83.2000
0
VERTEX
10
3.6000
20
-83.2000
0
VERTEX
10
3.6000
20
-82.8000
0
VERTEX
10
3.6000
20
-82.4000
0
VERTEX
10
4.0000
20
-82.4000
0
VERTEX
10
4.0000
20
-82.0000
0
VERTEX
10
4.4000
20
-82.0000
0
VERTEX
10
4.4000
20
-81.6000
0
VERTEX
10
4.4000
20
-81.2000
0
VERTEX
10
4.8000
20
-81.2000
0
VERTEX
10
4.8000
20
-80.8000
0
VERTEX
10
4.8000
20
-80.4000
0
VERTEX
10
4.8000
20
-80.8000
0
VERTEX
10
4.8000
20
-81.2000
0
VERTEX
10
4.8000
20
-81.6000
0
VERTEX
10
4.8000
20
-82.0000
0
VERTEX
10
4.8000
20
-82.4000
0
VERTEX
10
4.8000
20
-82.8000
0
VERTEX
10
4.8000
20
-83.2000
0
VERTEX
10
4.8000
20
-83.6000
0
VERTEX
10
4.4000
20
-83.6000
0
VERTEX
10
4.4000
20
-84.0000
0
VERTEX
10
4.4000
20
-84.4000
0
VERTEX
10
4.0000
20
-84.4000
0
VERTEX
10
3.6000
20
-84.4000
0
VERTEX
10
3.2000
20
-84.4000
0
VERTEX
10
2.8000
20
-84.4000
0
VERTEX
10
2.4000
20
-84.4000
0
SEQEND
0
ENDSEC
0
EOF