0
SECTION
2
HEADER
9
$ACADVER
1
AC1009
0
ENDSEC
0
SECTION
2
ENTITIES
0
POLYLINE
8
M1_Neg
70
1
0
VERTEX
10
-0.4596
20
-51.0000
0
VERTEX
10
-0.4000
20
-47.5000
0
VERTEX
10
-0.4000
20
-44.0000
0
VERTEX
10
-1.2000
20
-40.5000
0
VERTEX
10
-0.4000
20
-37.0000
0
VERTEX
10
-0.1500
20
-27.0000
0
VERTEX
10
0.1500
20
-27.0000
0
VERTEX
10
0.4000
20
-37.0000
0
VERTEX
10
1.2000
20
-40.5000
0
VERTEX
10
0.4000
20
-44.0000
0
VERTEX
10
0.4000
20
-47.5000
0
VERTEX
10
0.4596
20
-51.0000
0
SEQEND
0
POLYLINE
8
M1_Neg
70
1
0
VERTEX
10
-0.4573
20
-61.0368
0
VERTEX
10
-0.4580
20
-61.0254
0
VERTEX
10
-0.4602
20
-61.0140
0
VERTEX
10
-0.4638
20
-61.0027
0
VERTEX
10
-0.4687
20
-60.9913
0
VERTEX
10
-0.4749
20
-60.9799
0
VERTEX
10
-0.4823
20
-60.9685
0
VERTEX
10
-0.4907
20
-60.9571
0
VERTEX
10
-0.5001
20
-60.9458
0
VERTEX
10
-0.5102
20
-60.9344
0
VERTEX
10
-0.5209
20
-60.9230
0
VERTEX
10
-0.5320
20
-60.9116
0
VERTEX
10
-0.5433
20
-60.9002
0
VERTEX
10
-0.5547
20
-60.8889
0
VERTEX
10
-0.5660
20
-60.8775
0
VERTEX
10
-0.5769
20
-60.8661
0
VERTEX
10
-0.5873
20
-60.8547
0
VERTEX
10
-0.5970
20
-60.8433
0
VERTEX
10
-0.6060
20
-60.8320
0
VERTEX
10
-0.6139
20
-60.8206
0
VERTEX
10
-0.6207
20
-60.8092
0
VERTEX
10
-0.6263
20
-60.7978
0
VERTEX
10
-0.6306
20
-60.7864
0
VERTEX
10
-0.6334
20
-60.7751
0
VERTEX
10
-0.6349
20
-60.7637
0
VERTEX
10
-0.6349
20
-60.7523
0
VERTEX
10
-0.6334
20
-60.7409
0
VERTEX
10
-0.6306
20
-60.7296
0
VERTEX
10
-0.6263
20
-60.7182
0
VERTEX
10
-0.6207
20
-60.7068
0
VERTEX
10
-0.6139
20
-60.6954
0
VERTEX
10
-0.6060
20
-60.6840
0
VERTEX
10
-0.5970
20
-60.6727
0
VERTEX
10
-0.5873
20
-60.6613
0
VERTEX
10
-0.5769
20
-60.6499
0
VERTEX
10
-0.5660
20
-60.6385
0
VERTEX
10
-0.5547
20
-60.6271
0
VERTEX
10
-0.5433
20
-60.6158
0
VERTEX
10
-0.5320
20
-60.6044
0
VERTEX
10
-0.5209
20
-60.5930
0
VERTEX
10
-0.5102
20
-60.5816
0
VERTEX
10
-0.5001
20
-60.5702
0
VERTEX
10
-0.4907
20
-60.5589
0
VERTEX
10
-0.4823
20
-60.5475
0
VERTEX
10
-0.4749
20
-60.5361
0
VERTEX
10
-0.4687
20
-60.5247
0
VERTEX
10
-0.4638
20
-60.5133
0
VERTEX
10
-0.4602
20
-60.5020
0
VERTEX
10
-0.4580
20
-60.4906
0
VERTEX
10
-0.4573
20
-60.4792
0
VERTEX
10
0.4573
20
-60.4792
0
VERTEX
10
0.4580
20
-60.4906
0
VERTEX
10
0.4602
20
-60.5020
0
VERTEX
10
0.4638
20
-60.5133
0
VERTEX
10
0.4687
20
-60.5247
0
VERTEX
10
0.4749
20
-60.5361
0
VERTEX
10
0.4823
20
-60.5475
0
VERTEX
10
0.4907
20
-60.5589
0
VERTEX
10
0.5001
20
-60.5702
0
VERTEX
10
0.5102
20
-60.5816
0
VERTEX
10
0.5209
20
-60.5930
0
VERTEX
10
0.5320
20
-60.6044
0
VERTEX
10
0.5433
20
-60.6158
0
VERTEX
10
0.5547
20
-60.6271
0
VERTEX
10
0.5660
20
-60.6385
0
VERTEX
10
0.5769
20
-60.6499
0
VERTEX
10
0.5873
20
-60.6613
0
VERTEX
10
0.5970
20
-60.6727
0
VERTEX
10
0.6060
20
-60.6840
0
VERTEX
10
0.6139
20
-60.6954
0
VERTEX
10
0.6207
20
-60.7068
0
VERTEX
10
0.6263
20
-60.7182
0
VERTEX
10
0.6306
20
-60.7296
0
VERTEX
10
0.6334
20
-60.7409
0
VERTEX
10
0.6349
20
-60.7523
0
VERTEX
10
0.6349
20
-60.7637
0
VERTEX
10
0.6334
20
-60.7751
0
VERTEX
10
0.6306
20
-60.7864
0
VERTEX
10
0.6263
20
-60.7978
0
VERTEX
10
0.6207
20
-60.8092
0
VERTEX
10
0.6139
20
-60.8206
0
VERTEX
10
0.6060
20
-60.8320
0
VERTEX
10
0.5970
20
-60.8433
0
VERTEX
10
0.5873
20
-60.8547
0
VERTEX
10
0.5769
20
-60.8661
0
VERTEX
10
0.5660
20
-60.8775
0
VERTEX
10
0.5547
20
-60.8889
0
VERTEX
10
0.5433
20
-60.9002
0
VERTEX
10
0.5320
20
-60.9116
0
VERTEX
10
0.5209
20
-60.9230
0
VERTEX
10
0.5102
20
-60.9344
0
VERTEX
10
0.5001
20
-60.9458
0
VERTEX
10
0.4907
20
-60.9571
0
VERTEX
10
0.4823
20
-60.9685
0
VERTEX
10
0.4749
20
-60.9799
0
VERTEX
10
0.4687
20
-60.9913
0
VERTEX
10
0.4638
20
-61.0027
0
VERTEX
10
0.4602
20
-61.0140
0
VERTEX
10
0.4580
20
-61.0254
0
VERTEX
10
0.4573
20
-61.0368
0
SEQEND
0
POLYLINE
8
M1_Neg
70
1
0
VERTEX
10
-0.4573
20
-60.4792
0
VERTEX
10
-0.4580
20
-60.4678
0
VERTEX
10
-0.4602
20
-60.4564
0
VERTEX
10
-0.4638
20
-60.4451
0
VERTEX
10
-0.4687
20
-60.4337
0
VERTEX
10
-0.4749
20
-60.4223
0
VERTEX
10
-0.4823
20
-60.4109
0
VERTEX
10
-0.4907
20
-60.3995
0
VERTEX
10
-0.5001
20
-60.3882
0
VERTEX
10
-0.5102
20
-60.3768
0
VERTEX
10
-0.5209
20
-60.3654
0
VERTEX
10
-0.5320
20
-60.3540
0
VERTEX
10
-0.5433
20
-60.3426
0
VERTEX
10
-0.5547
20
-60.3313
0
VERTEX
10
-0.5660
20
-60.3199
0
VERTEX
10
-0.5769
20
-60.3085
0
VERTEX
10
-0.5873
20
-60.2971
0
VERTEX
10
-0.5970
20
-60.2857
0
VERTEX
10
-0.6060
20
-60.2744
0
VERTEX
10
-0.6139
20
-60.2630
0
VERTEX
10
-0.6207
20
-60.2516
0
VERTEX
10
-0.6263
20
-60.2402
0
VERTEX
10
-0.6306
20
-60.2288
0
VERTEX
10
-0.6334
20
-60.2175
0
VERTEX
10
-0.6349
20
-60.2061
0
VERTEX
10
-0.6349
20
-60.1947
0
VERTEX
10
-0.6334
20
-60.1833
0
VERTEX
10
-0.6306
20
-60.1720
0
VERTEX
10
-0.6263
20
-60.1606
0
VERTEX
10
-0.6207
20
-60.1492
0
VERTEX
10
-0.6139
20
-60.1378
0
VERTEX
10
-0.6060
20
-60.1264
0
VERTEX
10
-0.5970
20
-60.1151
0
VERTEX
10
-0.5873
20
-60.1037
0
VERTEX
10
-0.5769
20
-60.0923
0
VERTEX
10
-0.5660
20
-60.0809
0
VERTEX
10
-0.5547
20
-60.0695
0
VERTEX
10
-0.5433
20
-60.0582
0
VERTEX
10
-0.5320
20
-60.0468
0
VERTEX
10
-0.5209
20
-60.0354
0
VERTEX
10
-0.5102
20
-60.0240
0
VERTEX
10
-0.5001
20
-60.0126
0
VERTEX
10
-0.4907
20
-60.0013
0
VERTEX
10
-0.4823
20
-59.9899
0
VERTEX
10
-0.4749
20
-59.9785
0
VERTEX
10
-0.4687
20
-59.9671
0
VERTEX
10
-0.4638
20
-59.9557
0
VERTEX
10
-0.4602
20
-59.9444
0
VERTEX
10
-0.4580
20
-59.9330
0
VERTEX
10
-0.4573
20
-59.9216
0
VERTEX
10
0.4573
20
-59.9216
0
VERTEX
10
0.4580
20
-59.9330
0
VERTEX
10
0.4602
20
-59.9444
0
VERTEX
10
0.4638
20
-59.9557
0
VERTEX
10
0.4687
20
-59.9671
0
VERTEX
10
0.4749
20
-59.9785
0
VERTEX
10
0.4823
20
-59.9899
0
VERTEX
10
0.4907
20
-60.0013
0
VERTEX
10
0.5001
20
-60.0126
0
VERTEX
10
0.5102
20
-60.0240
0
VERTEX
10
0.5209
20
-60.0354
0
VERTEX
10
0.5320
20
-60.0468
0
VERTEX
10
0.5433
20
-60.0582
0
VERTEX
10
0.5547
20
-60.0695
0
VERTEX
10
0.5660
20
-60.0809
0
VERTEX
10
0.5769
20
-60.0923
0
VERTEX
10
0.5873
20
-60.1037
0
VERTEX
10
0.5970
20
-60.1151
0
VERTEX
10
0.6060
20
-60.1264
0
VERTEX
10
0.6139
20
-60.1378
0
VERTEX
10
0.6207
20
-60.1492
0
VERTEX
10
0.6263
20
-60.1606
0
VERTEX
10
0.6306
20
-60.1720
0
VERTEX
10
0.6334
20
-60.1833
0
VERTEX
10
0.6349
20
-60.1947
0
VERTEX
10
0.6349
20
-60.2061
0
VERTEX
10
0.6334
20
-60.2175
0
VERTEX
10
0.6306
20
-60.2288
0
VERTEX
10
0.6263
20
-60.2402
0
VERTEX
10
0.6207
20
-60.2516
0
VERTEX
10
0.6139
20
-60.2630
0
VERTEX
10
0.6060
20
-60.2744
0
VERTEX
10
0.5970
20
-60.2857
0
VERTEX
10
0.5873
20
-60.2971
0
VERTEX
10
0.5769
20
-60.3085
0
VERTEX
10
0.5660
20
-60.3199
0
VERTEX
10
0.5547
20
-60.3313
0
VERTEX
10
0.5433
20
-60.3426
0
VERTEX
10
0.5320
20
-60.3540
0
VERTEX
10
0.5209
20
-60.3654
0
VERTEX
10
0.5102
20
-60.3768
0
VERTEX
10
0.5001
20
-60.3882
0
VERTEX
10
0.4907
20
-60.3995
0
VERTEX
10
0.4823
20
-60.4109
0
VERTEX
10
0.4749
20
-60.4223
0
VERTEX
10
0.4687
20
-60.4337
0
VERTEX
10
0.4638
20
-60.4451
0
VERTEX
10
0.4602
20
-60.4564
0
VERTEX
10
0.4580
20
-60.4678
0
VERTEX
10
0.4573
20
-60.4792
0
SEQEND
0
POLYLINE
8
M1_Neg
70
1
0
VERTEX
10
-0.4573
20
-59.9216
0
VERTEX
10
-0.4580
20
-59.9102
0
VERTEX
10
-0.4602
20
-59.8988
0
VERTEX
10
-0.4638
20
-59.8875
0
VERTEX
10
-0.4687
20
-59.8761
0
VERTEX
10
-0.4749
20
-59.8647
0
VERTEX
10
-0.4823
20
-59.8533
0
VERTEX
10
-0.4907
20
-59.8419
0
VERTEX
10
-0.5001
20
-59.8306
0
VERTEX
10
-0.5102
20
-59.8192
0
VERTEX
10
-0.5209
20
-59.8078
0
VERTEX
10
-0.5320
20
-59.7964
0
VERTEX
10
-0.5433
20
-59.7850
0
VERTEX
10
-0.5547
20
-59.7737
0
VERTEX
10
-0.5660
20
-59.7623
0
VERTEX
10
-0.5769
20
-59.7509
0
VERTEX
10
-0.5873
20
-59.7395
0
VERTEX
10
-0.5970
20
-59.7281
0
VERTEX
10
-0.6060
20
-59.7168
0
VERTEX
10
-0.6139
20
-59.7054
0
VERTEX
10
-0.6207
20
-59.6940
0
VERTEX
10
-0.6263
20
-59.6826
0
VERTEX
10
-0.6306
20
-59.6712
0
VERTEX
10
-0.6334
20
-59.6599
0
VERTEX
10
-0.6349
20
-59.6485
0
VERTEX
10
-0.6349
20
-59.6371
0
VERTEX
10
-0.6334
20
-59.6257
0
VERTEX
10
-0.6306
20
-59.6144
0
VERTEX
10
-0.6263
20
-59.6030
0
VERTEX
10
-0.6207
20
-59.5916
0
VERTEX
10
-0.6139
20
-59.5802
0
VERTEX
10
-0.6060
20
-59.5688
0
VERTEX
10
-0.5970
20
-59.5575
0
VERTEX
10
-0.5873
20
-59.5461
0
VERTEX
10
-0.5769
20
-59.5347
0
VERTEX
10
-0.5660
20
-59.5233
0
VERTEX
10
-0.5547
20
-59.5119
0
VERTEX
10
-0.5433
20
-59.5006
0
VERTEX
10
-0.5320
20
-59.4892
0
VERTEX
10
-0.5209
20
-59.4778
0
VERTEX
10
-0.5102
20
-59.4664
0
VERTEX
10
-0.5001
20
-59.4550
0
VERTEX
10
-0.4907
20
-59.4437
0
VERTEX
10
-0.4823
20
-59.4323
0
VERTEX
10
-0.4749
20
-59.4209
0
VERTEX
10
-0.4687
20
-59.4095
0
VERTEX
10
-0.4638
20
-59.3981
0
VERTEX
10
-0.4602
20
-59.3868
0
VERTEX
10
-0.4580
20
-59.3754
0
VERTEX
10
-0.4573
20
-59.3640
0
VERTEX
10
0.4573
20
-59.3640
0
VERTEX
10
0.4580
20
-59.3754
0
VERTEX
10
0.4602
20
-59.3868
0
VERTEX
10
0.4638
20
-59.3981
0
VERTEX
10
0.4687
20
-59.4095
0
VERTEX
10
0.4749
20
-59.4209
0
VERTEX
10
0.4823
20
-59.4323
0
VERTEX
10
0.4907
20
-59.4437
0
VERTEX
10
0.5001
20
-59.4550
0
VERTEX
10
0.5102
20
-59.4664
0
VERTEX
10
0.5209
20
-59.4778
0
VERTEX
10
0.5320
20
-59.4892
0
VERTEX
10
0.5433
20
-59.5006
0
VERTEX
10
0.5547
20
-59.5119
0
VERTEX
10
0.5660
20
-59.5233
0
VERTEX
10
0.5769
20
-59.5347
0
VERTEX
10
0.5873
20
-59.5461
0
VERTEX
10
0.5970
20
-59.5575
0
VERTEX
10
0.6060
20
-59.5688
0
VERTEX
10
0.6139
20
-59.5802
0
VERTEX
10
0.6207
20
-59.5916
0
VERTEX
10
0.6263
20
-59.6030
0
VERTEX
10
0.6306
20
-59.6144
0
VERTEX
10
0.6334
20
-59.6257
0
VERTEX
10
0.6349
20
-59.6371
0
VERTEX
10
0.6349
20
-59.6485
0
VERTEX
10
0.6334
20
-59.6599
0
VERTEX
10
0.6306
20
-59.6712
0
VERTEX
10
0.6263
20
-59.6826
0
VERTEX
10
0.6207
20
-59.6940
0
VERTEX
10
0.6139
20
-59.7054
0
VERTEX
10
0.6060
20
-59.7168
0
VERTEX
10
0.5970
20
-59.7281
0
VERTEX
10
0.5873
20
-59.7395
0
VERTEX
10
0.5769
20
-59.7509
0
VERTEX
10
0.5660
20
-59.7623
0
VERTEX
10
0.5547
20
-59.7737
0
VERTEX
10
0.5433
20
-59.7850
0
VERTEX
10
0.5320
20
-59.7964
0
VERTEX
10
0.5209
20
-59.8078
0
VERTEX
10
0.5102
20
-59.8192
0
VERTEX
10
0.5001
20
-59.8306
0
VERTEX
10
0.4907
20
-59.8419
0
VERTEX
10
0.4823
20
-59.8533
0
VERTEX
10
0.4749
20
-59.8647
0
VERTEX
10
0.4687
20
-59.8761
0
VERTEX
10
0.4638
20
-59.8875
0
VERTEX
10
0.4602
20
-59.8988
0
VERTEX
10
0.4580
20
-59.9102
0
VERTEX
10
0.4573
20
-59.9216
0
SEQEND
0
POLYLINE
8
M1_Neg
70
1
0
VERTEX
10
-0.4573
20
-59.3640
0
VERTEX
10
-0.4580
20
-59.3526
0
VERTEX
10
-0.4602
20
-59.3412
0
VERTEX
10
-0.4638
20
-59.3299
0
VERTEX
10
-0.4687
20
-59.3185
0
VERTEX
10
-0.4749
20
-59.3071
0
VERTEX
10
-0.4823
20
-59.2957
0
VERTEX
10
-0.4907
20
-59.2843
0
VERTEX
10
-0.5001
20
-59.2730
0
VERTEX
10
-0.5102
20
-59.2616
0
VERTEX
10
-0.5209
20
-59.2502
0
VERTEX
10
-0.5320
20
-59.2388
0
VERTEX
10
-0.5433
20
-59.2274
0
VERTEX
10
-0.5547
20
-59.2161
0
VERTEX
10
-0.5660
20
-59.2047
0
VERTEX
10
-0.5769
20
-59.1933
0
VERTEX
10
-0.5873
20
-59.1819
0
VERTEX
10
-0.5970
20
-59.1705
0
VERTEX
10
-0.6060
20
-59.1592
0
VERTEX
10
-0.6139
20
-59.1478
0
VERTEX
10
-0.6207
20
-59.1364
0
VERTEX
10
-0.6263
20
-59.1250
0
VERTEX
10
-0.6306
20
-59.1136
0
VERTEX
10
-0.6334
20
-59.1023
0
VERTEX
10
-0.6349
20
-59.0909
0
VERTEX
10
-0.6349
20
-59.0795
0
VERTEX
10
-0.6334
20
-59.0681
0
VERTEX
10
-0.6306
20
-59.0568
0
VERTEX
10
-0.6263
20
-59.0454
0
VERTEX
10
-0.6207
20
-59.0340
0
VERTEX
10
-0.6139
20
-59.0226
0
VERTEX
10
-0.6060
20
-59.0112
0
VERTEX
10
-0.5970
20
-58.9999
0
VERTEX
10
-0.5873
20
-58.9885
0
VERTEX
10
-0.5769
20
-58.9771
0
VERTEX
10
-0.5660
20
-58.9657
0
VERTEX
10
-0.5547
20
-58.9543
0
VERTEX
10
-0.5433
20
-58.9430
0
VERTEX
10
-0.5320
20
-58.9316
0
VERTEX
10
-0.5209
20
-58.9202
0
VERTEX
10
-0.5102
20
-58.9088
0
VERTEX
10
-0.5001
20
-58.8974
0
VERTEX
10
-0.4907
20
-58.8861
0
VERTEX
10
-0.4823
20
-58.8747
0
VERTEX
10
-0.4749
20
-58.8633
0
VERTEX
10
-0.4687
20
-58.8519
0
VERTEX
10
-0.4638
20
-58.8405
0
VERTEX
10
-0.4602
20
-58.8292
0
VERTEX
10
-0.4580
20
-58.8178
0
VERTEX
10
-0.4573
20
-58.8064
0
VERTEX
10
0.4573
20
-58.8064
0
VERTEX
10
0.4580
20
-58.8178
0
VERTEX
10
0.4602
20
-58.8292
0
VERTEX
10
0.4638
20
-58.8405
0
VERTEX
10
0.4687
20
-58.8519
0
VERTEX
10
0.4749
20
-58.8633
0
VERTEX
10
0.4823
20
-58.8747
0
VERTEX
10
0.4907
20
-58.8861
0
VERTEX
10
0.5001
20
-58.8974
0
VERTEX
10
0.5102
20
-58.9088
0
VERTEX
10
0.5209
20
-58.9202
0
VERTEX
10
0.5320
20
-58.9316
0
VERTEX
10
0.5433
20
-58.9430
0
VERTEX
10
0.5547
20
-58.9543
0
VERTEX
10
0.5660
20
-58.9657
0
VERTEX
10
0.5769
20
-58.9771
0
VERTEX
10
0.5873
20
-58.9885
0
VERTEX
10
0.5970
20
-58.9999
0
VERTEX
10
0.6060
20
-59.0112
0
VERTEX
10
0.6139
20
-59.0226
0
VERTEX
10
0.6207
20
-59.0340
0
VERTEX
10
0.6263
20
-59.0454
0
VERTEX
10
0.6306
20
-59.0568
0
VERTEX
10
0.6334
20
-59.0681
0
VERTEX
10
0.6349
20
-59.0795
0
VERTEX
10
0.6349
20
-59.0909
0
VERTEX
10
0.6334
20
-59.1023
0
VERTEX
10
0.6306
20
-59.1136
0
VERTEX
10
0.6263
20
-59.1250
0
VERTEX
10
0.6207
20
-59.1364
0
VERTEX
10
0.6139
20
-59.1478
0
VERTEX
10
0.6060
20
-59.1592
0
VERTEX
10
0.5970
20
-59.1705
0
VERTEX
10
0.5873
20
-59.1819
0
VERTEX
10
0.5769
20
-59.1933
0
VERTEX
10
0.5660
20
-59.2047
0
VERTEX
10
0.5547
20
-59.2161
0
VERTEX
10
0.5433
20
-59.2274
0
VERTEX
10
0.5320
20
-59.2388
0
VERTEX
10
0.5209
20
-59.2502
0
VERTEX
10
0.5102
20
-59.2616
0
VERTEX
10
0.5001
20
-59.2730
0
VERTEX
10
0.4907
20
-59.2843
0
VERTEX
10
0.4823
20
-59.2957
0
VERTEX
10
0.4749
20
-59.3071
0
VERTEX
10
0.4687
20
-59.3185
0
VERTEX
10
0.4638
20
-59.3299
0
VERTEX
10
0.4602
20
-59.3412
0
VERTEX
10
0.4580
20
-59.3526
0
VERTEX
10
0.4573
20
-59.3640
0
SEQEND
0
POLYLINE
8
M1_Neg
70
1
0
VERTEX
10
-0.4573
20
-58.8064
0
VERTEX
10
-0.4580
20
-58.7950
0
VERTEX
10
-0.4602
20
-58.7836
0
VERTEX
10
-0.4638
20
-58.7723
0
VERTEX
10
-0.4687
20
-58.7609
0
VERTEX
10
-0.4749
20
-58.7495
0
VERTEX
10
-0.4823
20
-58.7381
0
VERTEX
10
-0.4907
20
-58.7267
0
VERTEX
10
-0.5001
20
-58.7154
0
VERTEX
10
-0.5102
20
-58.7040
0
VERTEX
10
-0.5209
20
-58.6926
0
VERTEX
10
-0.5320
20
-58.6812
0
VERTEX
10
-0.5433
20
-58.6698
0
VERTEX
10
-0.5547
20
-58.6585
0
VERTEX
10
-0.5660
20
-58.6471
0
VERTEX
10
-0.5769
20
-58.6357
0
VERTEX
10
-0.5873
20
-58.6243
0
VERTEX
10
-0.5970
20
-58.6129
0
VERTEX
10
-0.6060
20
-58.6016
0
VERTEX
10
-0.6139
20
-58.5902
0
VERTEX
10
-0.6207
20
-58.5788
0
VERTEX
10
-0.6263
20
-58.5674
0
VERTEX
10
-0.6306
20
-58.5560
0
VERTEX
10
-0.6334
20
-58.5447
0
VERTEX
10
-0.6349
20
-58.5333
0
VERTEX
10
-0.6349
20
-58.5219
0
VERTEX
10
-0.6334
20
-58.5105
0
VERTEX
10
-0.6306
20
-58.4992
0
VERTEX
10
-0.6263
20
-58.4878
0
VERTEX
10
-0.6207
20
-58.4764
0
VERTEX
10
-0.6139
20
-58.4650
0
VERTEX
10
-0.6060
20
-58.4536
0
VERTEX
10
-0.5970
20
-58.4423
0
VERTEX
10
-0.5873
20
-58.4309
0
VERTEX
10
-0.5769
20
-58.4195
0
VERTEX
10
-0.5660
20
-58.4081
0
VERTEX
10
-0.5547
20
-58.3967
0
VERTEX
10
-0.5433
20
-58.3854
0
VERTEX
10
-0.5320
20
-58.3740
0
VERTEX
10
-0.5209
20
-58.3626
0
VERTEX
10
-0.5102
20
-58.3512
0
VERTEX
10
-0.5001
20
-58.3398
0
VERTEX
10
-0.4907
20
-58.3285
0
VERTEX
10
-0.4823
20
-58.3171
0
VERTEX
10
-0.4749
20
-58.3057
0
VERTEX
10
-0.4687
20
-58.2943
0
VERTEX
10
-0.4638
20
-58.2829
0
VERTEX
10
-0.4602
20
-58.2716
0
VERTEX
10
-0.4580
20
-58.2602
0
VERTEX
10
-0.4573
20
-58.2488
0
VERTEX
10
0.4573
20
-58.2488
0
VERTEX
10
0.4580
20
-58.2602
0
VERTEX
10
0.4602
20
-58.2716
0
VERTEX
10
0.4638
20
-58.2829
0
VERTEX
10
0.4687
20
-58.2943
0
VERTEX
10
0.4749
20
-58.3057
0
VERTEX
10
0.4823
20
-58.3171
0
VERTEX
10
0.4907
20
-58.3285
0
VERTEX
10
0.5001
20
-58.3398
0
VERTEX
10
0.5102
20
-58.3512
0
VERTEX
10
0.5209
20
-58.3626
0
VERTEX
10
0.5320
20
-58.3740
0
VERTEX
10
0.5433
20
-58.3854
0
VERTEX
10
0.5547
20
-58.3967
0
VERTEX
10
0.5660
20
-58.4081
0
VERTEX
10
0.5769
20
-58.4195
0
VERTEX
10
0.5873
20
-58.4309
0
VERTEX
10
0.5970
20
-58.4423
0
VERTEX
10
0.6060
20
-58.4536
0
VERTEX
10
0.6139
20
-58.4650
0
VERTEX
10
0.6207
20
-58.4764
0
VERTEX
10
0.6263
20
-58.4878
0
VERTEX
10
0.6306
20
-58.4992
0
VERTEX
10
0.6334
20
-58.5105
0
VERTEX
10
0.6349
20
-58.5219
0
VERTEX
10
0.6349
20
-58.5333
0
VERTEX
10
0.6334
20
-58.5447
0
VERTEX
10
0.6306
20
-58.5560
0
VERTEX
10
0.6263
20
-58.5674
0
VERTEX
10
0.6207
20
-58.5788
0
VERTEX
10
0.6139
20
-58.5902
0
VERTEX
10
0.6060
20
-58.6016
0
VERTEX
10
0.5970
20
-58.6129
0
VERTEX
10
0.5873
20
-58.6243
0
VERTEX
10
0.5769
20
-58.6357
0
VERTEX
10
0.5660
20
-58.6471
0
VERTEX
10
0.5547
20
-58.6585
0
VERTEX
10
0.5433
20
-58.6698
0
VERTEX
10
0.5320
20
-58.6812
0
VERTEX
10
0.5209
20
-58.6926
0
VERTEX
10
0.5102
20
-58.7040
0
VERTEX
10
0.5001
20
-58.7154
0
VERTEX
10
0.4907
20
-58.7267
0
VERTEX
10
0.4823
20
-58.7381
0
VERTEX
10
0.4749
20
-58.7495
0
VERTEX
10
0.4687
20
-58.7609
0
VERTEX
10
0.4638
20
-58.7723
0
VERTEX
10
0.4602
20
-58.7836
0
VERTEX
10
0.4580
20
-58.7950
0
VERTEX
10
0.4573
20
-58.8064
0
SEQEND
0
POLYLINE
8
M1_Neg
70
1
0
VERTEX
10
-0.4573
20
-58.2488
0
VERTEX
10
-0.4580
20
-58.2374
0
VERTEX
10
-0.4602
20
-58.2260
0
VERTEX
10
-0.4638
20
-58.2147
0
VERTEX
10
-0.4687
20
-58.2033
0
VERTEX
10
-0.4749
20
-58.1919
0
VERTEX
10
-0.4823
20
-58.1805
0
VERTEX
10
-0.4907
20
-58.1691
0
VERTEX
10
-0.5001
20
-58.1578
0
VERTEX
10
-0.5102
20
-58.1464
0
VERTEX
10
-0.5209
20
-58.1350
0
VERTEX
10
-0.5320
20
-58.1236
0
VERTEX
10
-0.5433
20
-58.1122
0
VERTEX
10
-0.5547
20
-58.1009
0
VERTEX
10
-0.5660
20
-58.0895
0
VERTEX
10
-0.5769
20
-58.0781
0
VERTEX
10
-0.5873
20
-58.0667
0
VERTEX
10
-0.5970
20
-58.0553
0
VERTEX
10
-0.6060
20
-58.0440
0
VERTEX
10
-0.6139
20
-58.0326
0
VERTEX
10
-0.6207
20
-58.0212
0
VERTEX
10
-0.6263
20
-58.0098
0
VERTEX
10
-0.6306
20
-57.9984
0
VERTEX
10
-0.6334
20
-57.9871
0
VERTEX
10
-0.6349
20
-57.9757
0
VERTEX
10
-0.6349
20
-57.9643
0
VERTEX
10
-0.6334
20
-57.9529
0
VERTEX
10
-0.6306
20
-57.9416
0
VERTEX
10
-0.6263
20
-57.9302
0
VERTEX
10
-0.6207
20
-57.9188
0
VERTEX
10
-0.6139
20
-57.9074
0
VERTEX
10
-0.6060
20
-57.8960
0
VERTEX
10
-0.5970
20
-57.8847
0
VERTEX
10
-0.5873
20
-57.8733
0
VERTEX
10
-0.5769
20
-57.8619
0
VERTEX
10
-0.5660
20
-57.8505
0
VERTEX
10
-0.5547
20
-57.8391
0
VERTEX
10
-0.5433
20
-57.8278
0
VERTEX
10
-0.5320
20
-57.8164
0
VERTEX
10
-0.5209
20
-57.8050
0
VERTEX
10
-0.5102
20
-57.7936
0
VERTEX
10
-0.5001
20
-57.7822
0
VERTEX
10
-0.4907
20
-57.7709
0
VERTEX
10
-0.4823
20
-57.7595
0
VERTEX
10
-0.4749
20
-57.7481
0
VERTEX
10
-0.4687
20
-57.7367
0
VERTEX
10
-0.4638
20
-57.7253
0
VERTEX
10
-0.4602
20
-57.7140
0
VERTEX
10
-0.4580
20
-57.7026
0
VERTEX
10
-0.4573
20
-57.6912
0
VERTEX
10
0.4573
20
-57.6912
0
VERTEX
10
0.4580
20
-57.7026
0
VERTEX
10
0.4602
20
-57.7140
0
VERTEX
10
0.4638
20
-57.7253
0
VERTEX
10
0.4687
20
-57.7367
0
VERTEX
10
0.4749
20
-57.7481
0
VERTEX
10
0.4823
20
-57.7595
0
VERTEX
10
0.4907
20
-57.7709
0
VERTEX
10
0.5001
20
-57.7822
0
VERTEX
10
0.5102
20
-57.7936
0
VERTEX
10
0.5209
20
-57.8050
0
VERTEX
10
0.5320
20
-57.8164
0
VERTEX
10
0.5433
20
-57.8278
0
VERTEX
10
0.5547
20
-57.8391
0
VERTEX
10
0.5660
20
-57.8505
0
VERTEX
10
0.5769
20
-57.8619
0
VERTEX
10
0.5873
20
-57.8733
0
VERTEX
10
0.5970
20
-57.8847
0
VERTEX
10
0.6060
20
-57.8960
0
VERTEX
10
0.6139
20
-57.9074
0
VERTEX
10
0.6207
20
-57.9188
0
VERTEX
10
0.6263
20
-57.9302
0
VERTEX
10
0.6306
20
-57.9416
0
VERTEX
10
0.6334
20
-57.9529
0
VERTEX
10
0.6349
20
-57.9643
0
VERTEX
10
0.6349
20
-57.9757
0
VERTEX
10
0.6334
20
-57.9871
0
VERTEX
10
0.6306
20
-57.9984
0
VERTEX
10
0.6263
20
-58.0098
0
VERTEX
10
0.6207
20
-58.0212
0
VERTEX
10
0.6139
20
-58.0326
0
VERTEX
10
0.6060
20
-58.0440
0
VERTEX
10
0.5970
20
-58.0553
0
VERTEX
10
0.5873
20
-58.0667
0
VERTEX
10
0.5769
20
-58.0781
0
VERTEX
10
0.5660
20
-58.0895
0
VERTEX
10
0.5547
20
-58.1009
0
VERTEX
10
0.5433
20
-58.1122
0
VERTEX
10
0.5320
20
-58.1236
0
VERTEX
10
0.5209
20
-58.1350
0
VERTEX
10
0.5102
20
-58.1464
0
VERTEX
10
0.5001
20
-58.1578
0
VERTEX
10
0.4907
20
-58.1691
0
VERTEX
10
0.4823
20
-58.1805
0
VERTEX
10
0.4749
20
-58.1919
0
VERTEX
10
0.4687
20
-58.2033
0
VERTEX
10
0.4638
20
-58.2147
0
VERTEX
10
0.4602
20
-58.2260
0
VERTEX
10
0.4580
20
-58.2374
0
VERTEX
10
0.4573
20
-58.2488
0
SEQEND
0
POLYLINE
8
M1_Neg
70
1
0
VERTEX
10
-0.4573
20
-57.6912
0
VERTEX
10
-0.4580
20
-57.6798
0
VERTEX
10
-0.4602
20
-57.6684
0
VERTEX
10
-0.4638
20
-57.6571
0
VERTEX
10
-0.4687
20
-57.6457
0
VERTEX
10
-0.4749
20
-57.6343
0
VERTEX
10
-0.4823
20
-57.6229
0
VERTEX
10
-0.4907
20
-57.6115
0
VERTEX
10
-0.5001
20
-57.6002
0
VERTEX
10
-0.5102
20
-57.5888
0
VERTEX
10
-0.5209
20
-57.5774
0
VERTEX
10
-0.5320
20
-57.5660
0
VERTEX
10
-0.5433
20
-57.5546
0
VERTEX
10
-0.5547
20
-57.5433
0
VERTEX
10
-0.5660
20
-57.5319
0
VERTEX
10
-0.5769
20
-57.5205
0
VERTEX
10
-0.5873
20
-57.5091
0
VERTEX
10
-0.5970
20
-57.4977
0
VERTEX
10
-0.6060
20
-57.4864
0
VERTEX
10
-0.6139
20
-57.4750
0
VERTEX
10
-0.6207
20
-57.4636
0
VERTEX
10
-0.6263
20
-57.4522
0
VERTEX
10
-0.6306
20
-57.4408
0
VERTEX
10
-0.6334
20
-57.4295
0
VERTEX
10
-0.6349
20
-57.4181
0
VERTEX
10
-0.6349
20
-57.4067
0
VERTEX
10
-0.6334
20
-57.3953
0
VERTEX
10
-0.6306
20
-57.3840
0
VERTEX
10
-0.6263
20
-57.3726
0
VERTEX
10
-0.6207
20
-57.3612
0
VERTEX
10
-0.6139
20
-57.3498
0
VERTEX
10
-0.6060
20
-57.3384
0
VERTEX
10
-0.5970
20
-57.3271
0
VERTEX
10
-0.5873
20
-57.3157
0
VERTEX
10
-0.5769
20
-57.3043
0
VERTEX
10
-0.5660
20
-57.2929
0
VERTEX
10
-0.5547
20
-57.2815
0
VERTEX
10
-0.5433
20
-57.2702
0
VERTEX
10
-0.5320
20
-57.2588
0
VERTEX
10
-0.5209
20
-57.2474
0
VERTEX
10
-0.5102
20
-57.2360
0
VERTEX
10
-0.5001
20
-57.2246
0
VERTEX
10
-0.4907
20
-57.2133
0
VERTEX
10
-0.4823
20
-57.2019
0
VERTEX
10
-0.4749
20
-57.1905
0
VERTEX
10
-0.4687
20
-57.1791
0
VERTEX
10
-0.4638
20
-57.1677
0
VERTEX
10
-0.4602
20
-57.1564
0
VERTEX
10
-0.4580
20
-57.1450
0
VERTEX
10
-0.4573
20
-57.1336
0
VERTEX
10
0.4573
20
-57.1336
0
VERTEX
10
0.4580
20
-57.1450
0
VERTEX
10
0.4602
20
-57.1564
0
VERTEX
10
0.4638
20
-57.1677
0
VERTEX
10
0.4687
20
-57.1791
0
VERTEX
10
0.4749
20
-57.1905
0
VERTEX
10
0.4823
20
-57.2019
0
VERTEX
10
0.4907
20
-57.2133
0
VERTEX
10
0.5001
20
-57.2246
0
VERTEX
10
0.5102
20
-57.2360
0
VERTEX
10
0.5209
20
-57.2474
0
VERTEX
10
0.5320
20
-57.2588
0
VERTEX
10
0.5433
20
-57.2702
0
VERTEX
10
0.5547
20
-57.2815
0
VERTEX
10
0.5660
20
-57.2929
0
VERTEX
10
0.5769
20
-57.3043
0
VERTEX
10
0.5873
20
-57.3157
0
VERTEX
10
0.5970
20
-57.3271
0
VERTEX
10
0.6060
20
-57.3384
0
VERTEX
10
0.6139
20
-57.3498
0
VERTEX
10
0.6207
20
-57.3612
0
VERTEX
10
0.6263
20
-57.3726
0
VERTEX
10
0.6306
20
-57.3840
0
VERTEX
10
0.6334
20
-57.3953
0
VERTEX
10
0.6349
20
-57.4067
0
VERTEX
10
0.6349
20
-57.4181
0
VERTEX
10
0.6334
20
-57.4295
0
VERTEX
10
0.6306
20
-57.4408
0
VERTEX
10
0.6263
20
-57.4522
0
VERTEX
10
0.6207
20
-57.4636
0
VERTEX
10
0.6139
20
-57.4750
0
VERTEX
10
0.6060
20
-57.4864
0
VERTEX
10
0.5970
20
-57.4977
0
VERTEX
10
0.5873
20
-57.5091
0
VERTEX
10
0.5769
20
-57.5205
0
VERTEX
10
0.5660
20
-57.5319
0
VERTEX
10
0.5547
20
-57.5433
0
VERTEX
10
0.5433
20
-57.5546
0
VERTEX
10
0.5320
20
-57.5660
0
VERTEX
10
0.5209
20
-57.5774
0
VERTEX
10
0.5102
20
-57.5888
0
VERTEX
10
0.5001
20
-57.6002
0
VERTEX
10
0.4907
20
-57.6115
0
VERTEX
10
0.4823
20
-57.6229
0
VERTEX
10
0.4749
20
-57.6343
0
VERTEX
10
0.4687
20
-57.6457
0
VERTEX
10
0.4638
20
-57.6571
0
VERTEX
10
0.4602
20
-57.6684
0
VERTEX
10
0.4580
20
-57.6798
0
VERTEX
10
0.4573
20
-57.6912
0
SEQEND
0
POLYLINE
8
M1_Neg
70
1
0
VERTEX
10
-0.4573
20
-57.1336
0
VERTEX
10
-0.4580
20
-57.1222
0
VERTEX
10
-0.4602
20
-57.1108
0
VERTEX
10
-0.4638
20
-57.0995
0
VERTEX
10
-0.4687
20
-57.0881
0
VERTEX
10
-0.4749
20
-57.0767
0
VERTEX
10
-0.4823
20
-57.0653
0
VERTEX
10
-0.4907
20
-57.0539
0
VERTEX
10
-0.5001
20
-57.0426
0
VERTEX
10
-0.5102
20
-57.0312
0
VERTEX
10
-0.5209
20
-57.0198
0
VERTEX
10
-0.5320
20
-57.0084
0
VERTEX
10
-0.5433
20
-56.9970
0
VERTEX
10
-0.5547
20
-56.9857
0
VERTEX
10
-0.5660
20
-56.9743
0
VERTEX
10
-0.5769
20
-56.9629
0
VERTEX
10
-0.5873
20
-56.9515
0
VERTEX
10
-0.5970
20
-56.9401
0
VERTEX
10
-0.6060
20
-56.9288
0
VERTEX
10
-0.6139
20
-56.9174
0
VERTEX
10
-0.6207
20
-56.9060
0
VERTEX
10
-0.6263
20
-56.8946
0
VERTEX
10
-0.6306
20
-56.8832
0
VERTEX
10
-0.6334
20
-56.8719
0
VERTEX
10
-0.6349
20
-56.8605
0
VERTEX
10
-0.6349
20
-56.8491
0
VERTEX
10
-0.6334
20
-56.8377
0
VERTEX
10
-0.6306
20
-56.8264
0
VERTEX
10
-0.6263
20
-56.8150
0
VERTEX
10
-0.6207
20
-56.8036
0
VERTEX
10
-0.6139
20
-56.7922
0
VERTEX
10
-0.6060
20
-56.7808
0
VERTEX
10
-0.5970
20
-56.7695
0
VERTEX
10
-0.5873
20
-56.7581
0
VERTEX
10
-0.5769
20
-56.7467
0
VERTEX
10
-0.5660
20
-56.7353
0
VERTEX
10
-0.5547
20
-56.7239
0
VERTEX
10
-0.5433
20
-56.7126
0
VERTEX
10
-0.5320
20
-56.7012
0
VERTEX
10
-0.5209
20
-56.6898
0
VERTEX
10
-0.5102
20
-56.6784
0
VERTEX
10
-0.5001
20
-56.6670
0
VERTEX
10
-0.4907
20
-56.6557
0
VERTEX
10
-0.4823
20
-56.6443
0
VERTEX
10
-0.4749
20
-56.6329
0
VERTEX
10
-0.4687
20
-56.6215
0
VERTEX
10
-0.4638
20
-56.6101
0
VERTEX
10
-0.4602
20
-56.5988
0
VERTEX
10
-0.4580
20
-56.5874
0
VERTEX
10
-0.4573
20
-56.5760
0
VERTEX
10
0.4573
20
-56.5760
0
VERTEX
10
0.4580
20
-56.5874
0
VERTEX
10
0.4602
20
-56.5988
0
VERTEX
10
0.4638
20
-56.6101
0
VERTEX
10
0.4687
20
-56.6215
0
VERTEX
10
0.4749
20
-56.6329
0
VERTEX
10
0.4823
20
-56.6443
0
VERTEX
10
0.4907
20
-56.6557
0
VERTEX
10
0.5001
20
-56.6670
0
VERTEX
10
0.5102
20
-56.6784
0
VERTEX
10
0.5209
20
-56.6898
0
VERTEX
10
0.5320
20
-56.7012
0
VERTEX
10
0.5433
20
-56.7126
0
VERTEX
10
0.5547
20
-56.7239
0
VERTEX
10
0.5660
20
-56.7353
0
VERTEX
10
0.5769
20
-56.7467
0
VERTEX
10
0.5873
20
-56.7581
0
VERTEX
10
0.5970
20
-56.7695
0
VERTEX
10
0.6060
20
-56.7808
0
VERTEX
10
0.6139
20
-56.7922
0
VERTEX
10
0.6207
20
-56.8036
0
VERTEX
10
0.6263
20
-56.8150
0
VERTEX
10
0.6306
20
-56.8264
0
VERTEX
10
0.6334
20
-56.8377
0
VERTEX
10
0.6349
20
-56.8491
0
VERTEX
10
0.6349
20
-56.8605
0
VERTEX
10
0.6334
20
-56.8719
0
VERTEX
10
0.6306
20
-56.8832
0
VERTEX
10
0.6263
20
-56.8946
0
VERTEX
10
0.6207
20
-56.9060
0
VERTEX
10
0.6139
20
-56.9174
0
VERTEX
10
0.6060
20
-56.9288
0
VERTEX
10
0.5970
20
-56.9401
0
VERTEX
10
0.5873
20
-56.9515
0
VERTEX
10
0.5769
20
-56.9629
0
VERTEX
10
0.5660
20
-56.9743
0
VERTEX
10
0.5547
20
-56.9857
0
VERTEX
10
0.5433
20
-56.9970
0
VERTEX
10
0.5320
20
-57.0084
0
VERTEX
10
0.5209
20
-57.0198
0
VERTEX
10
0.5102
20
-57.0312
0
VERTEX
10
0.5001
20
-57.0426
0
VERTEX
10
0.4907
20
-57.0539
0
VERTEX
10
0.4823
20
-57.0653
0
VERTEX
10
0.4749
20
-57.0767
0
VERTEX
10
0.4687
20
-57.0881
0
VERTEX
10
0.4638
20
-57.0995
0
VERTEX
10
0.4602
20
-57.1108
0
VERTEX
10
0.4580
20
-57.1222
0
VERTEX
10
0.4573
20
-57.1336
0
SEQEND
0
POLYLINE
8
M1_Neg
70
1
0
VERTEX
10
-0.4573
20
-56.5760
0
VERTEX
10
-0.4580
20
-56.5646
0
VERTEX
10
-0.4602
20
-56.5532
0
VERTEX
10
-0.4638
20
-56.5419
0
VERTEX
10
-0.4687
20
-56.5305
0
VERTEX
10
-0.4749
20
-56.5191
0
VERTEX
10
-0.4823
20
-56.5077
0
VERTEX
10
-0.4907
20
-56.4963
0
VERTEX
10
-0.5001
20
-56.4850
0
VERTEX
10
-0.5102
20
-56.4736
0
VERTEX
10
-0.5209
20
-56.4622
0
VERTEX
10
-0.5320
20
-56.4508
0
VERTEX
10
-0.5433
20
-56.4394
0
VERTEX
10
-0.5547
20
-56.4281
0
VERTEX
10
-0.5660
20
-56.4167
0
VERTEX
10
-0.5769
20
-56.4053
0
VERTEX
10
-0.5873
20
-56.3939
0
VERTEX
10
-0.5970
20
-56.3825
0
VERTEX
10
-0.6060
20
-56.3712
0
VERTEX
10
-0.6139
20
-56.3598
0
VERTEX
10
-0.6207
20
-56.3484
0
VERTEX
10
-0.6263
20
-56.3370
0
VERTEX
10
-0.6306
20
-56.3256
0
VERTEX
10
-0.6334
20
-56.3143
0
VERTEX
10
-0.6349
20
-56.3029
0
VERTEX
10
-0.6349
20
-56.2915
0
VERTEX
10
-0.6334
20
-56.2801
0
VERTEX
10
-0.6306
20
-56.2688
0
VERTEX
10
-0.6263
20
-56.2574
0
VERTEX
10
-0.6207
20
-56.2460
0
VERTEX
10
-0.6139
20
-56.2346
0
VERTEX
10
-0.6060
20
-56.2232
0
VERTEX
10
-0.5970
20
-56.2119
0
VERTEX
10
-0.5873
20
-56.2005
0
VERTEX
10
-0.5769
20
-56.1891
0
VERTEX
10
-0.5660
20
-56.1777
0
VERTEX
10
-0.5547
20
-56.1663
0
VERTEX
10
-0.5433
20
-56.1550
0
VERTEX
10
-0.5320
20
-56.1436
0
VERTEX
10
-0.5209
20
-56.1322
0
VERTEX
10
-0.5102
20
-56.1208
0
VERTEX
10
-0.5001
20
-56.1094
0
VERTEX
10
-0.4907
20
-56.0981
0
VERTEX
10
-0.4823
20
-56.0867
0
VERTEX
10
-0.4749
20
-56.0753
0
VERTEX
10
-0.4687
20
-56.0639
0
VERTEX
10
-0.4638
20
-56.0525
0
VERTEX
10
-0.4602
20
-56.0412
0
VERTEX
10
-0.4580
20
-56.0298
0
VERTEX
10
-0.4573
20
-56.0184
0
VERTEX
10
0.4573
20
-56.0184
0
VERTEX
10
0.4580
20
-56.0298
0
VERTEX
10
0.4602
20
-56.0412
0
VERTEX
10
0.4638
20
-56.0525
0
VERTEX
10
0.4687
20
-56.0639
0
VERTEX
10
0.4749
20
-56.0753
0
VERTEX
10
0.4823
20
-56.0867
0
VERTEX
10
0.4907
20
-56.0981
0
VERTEX
10
0.5001
20
-56.1094
0
VERTEX
10
0.5102
20
-56.1208
0
VERTEX
10
0.5209
20
-56.1322
0
VERTEX
10
0.5320
20
-56.1436
0
VERTEX
10
0.5433
20
-56.1550
0
VERTEX
10
0.5547
20
-56.1663
0
VERTEX
10
0.5660
20
-56.1777
0
VERTEX
10
0.5769
20
-56.1891
0
VERTEX
10
0.5873
20
-56.2005
0
VERTEX
10
0.5970
20
-56.2119
0
VERTEX
10
0.6060
20
-56.2232
0
VERTEX
10
0.6139
20
-56.2346
0
VERTEX
10
0.6207
20
-56.2460
0
VERTEX
10
0.6263
20
-56.2574
0
VERTEX
10
0.6306
20
-56.2688
0
VERTEX
10
0.6334
20
-56.2801
0
VERTEX
10
0.6349
20
-56.2915
0
VERTEX
10
0.6349
20
-56.3029
0
VERTEX
10
0.6334
20
-56.3143
0
VERTEX
10
0.6306
20
-56.3256
0
VERTEX
10
0.6263
20
-56.3370
0
VERTEX
10
0.6207
20
-56.3484
0
VERTEX
10
0.6139
20
-56.3598
0
VERTEX
10
0.6060
20
-56.3712
0
VERTEX
10
0.5970
20
-56.3825
0
VERTEX
10
0.5873
20
-56.3939
0
VERTEX
10
0.5769
20
-56.4053
0
VERTEX
10
0.5660
20
-56.4167
0
VERTEX
10
0.5547
20
-56.4281
0
VERTEX
10
0.5433
20
-56.4394
0
VERTEX
10
0.5320
20
-56.4508
0
VERTEX
10
0.5209
20
-56.4622
0
VERTEX
10
0.5102
20
-56.4736
0
VERTEX
10
0.5001
20
-56.4850
0
VERTEX
10
0.4907
20
-56.4963
0
VERTEX
10
0.4823
20
-56.5077
0
VERTEX
10
0.4749
20
-56.5191
0
VERTEX
10
0.4687
20
-56.5305
0
VERTEX
10
0.4638
20
-56.5419
0
VERTEX
10
0.4602
20
-56.5532
0
VERTEX
10
0.4580
20
-56.5646
0
VERTEX
10
0.4573
20
-56.5760
0
SEQEND
0
POLYLINE
8
M1_Neg
70
1
0
VERTEX
10
-0.4573
20
-56.0184
0
VERTEX
10
-0.4580
20
-56.0070
0
VERTEX
10
-0.4602
20
-55.9956
0
VERTEX
10
-0.4638
20
-55.9843
0
VERTEX
10
-0.4687
20
-55.9729
0
VERTEX
10
-0.4749
20
-55.9615
0
VERTEX
10
-0.4823
20
-55.9501
0
VERTEX
10
-0.4907
20
-55.9387
0
VERTEX
10
-0.5001
20
-55.9274
0
VERTEX
10
-0.5102
20
-55.9160
0
VERTEX
10
-0.5209
20
-55.9046
0
VERTEX
10
-0.5320
20
-55.8932
0
VERTEX
10
-0.5433
20
-55.8818
0
VERTEX
10
-0.5547
20
-55.8705
0
VERTEX
10
-0.5660
20
-55.8591
0
VERTEX
10
-0.5769
20
-55.8477
0
VERTEX
10
-0.5873
20
-55.8363
0
VERTEX
10
-0.5970
20
-55.8249
0
VERTEX
10
-0.6060
20
-55.8136
0
VERTEX
10
-0.6139
20
-55.8022
0
VERTEX
10
-0.6207
20
-55.7908
0
VERTEX
10
-0.6263
20
-55.7794
0
VERTEX
10
-0.6306
20
-55.7680
0
VERTEX
10
-0.6334
20
-55.7567
0
VERTEX
10
-0.6349
20
-55.7453
0
VERTEX
10
-0.6349
20
-55.7339
0
VERTEX
10
-0.6334
20
-55.7225
0
VERTEX
10
-0.6306
20
-55.7112
0
VERTEX
10
-0.6263
20
-55.6998
0
VERTEX
10
-0.6207
20
-55.6884
0
VERTEX
10
-0.6139
20
-55.6770
0
VERTEX
10
-0.6060
20
-55.6656
0
VERTEX
10
-0.5970
20
-55.6543
0
VERTEX
10
-0.5873
20
-55.6429
0
VERTEX
10
-0.5769
20
-55.6315
0
VERTEX
10
-0.5660
20
-55.6201
0
VERTEX
10
-0.5547
20
-55.6087
0
VERTEX
10
-0.5433
20
-55.5974
0
VERTEX
10
-0.5320
20
-55.5860
0
VERTEX
10
-0.5209
20
-55.5746
0
VERTEX
10
-0.5102
20
-55.5632
0
VERTEX
10
-0.5001
20
-55.5518
0
VERTEX
10
-0.4907
20
-55.5405
0
VERTEX
10
-0.4823
20
-55.5291
0
VERTEX
10
-0.4749
20
-55.5177
0
VERTEX
10
-0.4687
20
-55.5063
0
VERTEX
10
-0.4638
20
-55.4949
0
VERTEX
10
-0.4602
20
-55.4836
0
VERTEX
10
-0.4580
20
-55.4722
0
VERTEX
10
-0.4573
20
-55.4608
0
VERTEX
10
0.4573
20
-55.4608
0
VERTEX
10
0.4580
20
-55.4722
0
VERTEX
10
0.4602
20
-55.4836
0
VERTEX
10
0.4638
20
-55.4949
0
VERTEX
10
0.4687
20
-55.5063
0
VERTEX
10
0.4749
20
-55.5177
0
VERTEX
10
0.4823
20
-55.5291
0
VERTEX
10
0.4907
20
-55.5405
0
VERTEX
10
0.5001
20
-55.5518
0
VERTEX
10
0.5102
20
-55.5632
0
VERTEX
10
0.5209
20
-55.5746
0
VERTEX
10
0.5320
20
-55.5860
0
VERTEX
10
0.5433
20
-55.5974
0
VERTEX
10
0.5547
20
-55.6087
0
VERTEX
10
0.5660
20
-55.6201
0
VERTEX
10
0.5769
20
-55.6315
0
VERTEX
10
0.5873
20
-55.6429
0
VERTEX
10
0.5970
20
-55.6543
0
VERTEX
10
0.6060
20
-55.6656
0
VERTEX
10
0.6139
20
-55.6770
0
VERTEX
10
0.6207
20
-55.6884
0
VERTEX
10
0.6263
20
-55.6998
0
VERTEX
10
0.6306
20
-55.7112
0
VERTEX
10
0.6334
20
-55.7225
0
VERTEX
10
0.6349
20
-55.7339
0
VERTEX
10
0.6349
20
-55.7453
0
VERTEX
10
0.6334
20
-55.7567
0
VERTEX
10
0.6306
20
-55.7680
0
VERTEX
10
0.6263
20
-55.7794
0
VERTEX
10
0.6207
20
-55.7908
0
VERTEX
10
0.6139
20
-55.8022
0
VERTEX
10
0.6060
20
-55.8136
0
VERTEX
10
0.5970
20
-55.8249
0
VERTEX
10
0.5873
20
-55.8363
0
VERTEX
10
0.5769
20
-55.8477
0
VERTEX
10
0.5660
20
-55.8591
0
VERTEX
10
0.5547
20
-55.8705
0
VERTEX
10
0.5433
20
-55.8818
0
VERTEX
10
0.5320
20
-55.8932
0
VERTEX
10
0.5209
20
-55.9046
0
VERTEX
10
0.5102
20
-55.9160
0
VERTEX
10
0.5001
20
-55.9274
0
VERTEX
10
0.4907
20
-55.9387
0
VERTEX
10
0.4823
20
-55.9501
0
VERTEX
10
0.4749
20
-55.9615
0
VERTEX
10
0.4687
20
-55.9729
0
VERTEX
10
0.4638
20
-55.9843
0
VERTEX
10
0.4602
20
-55.9956
0
VERTEX
10
0.4580
20
-56.0070
0
VERTEX
10
0.4573
20
-56.0184
0
SEQEND
0
POLYLINE
8
M1_Neg
70
1
0
VERTEX
10
-0.4573
20
-55.4608
0
VERTEX
10
-0.4580
20
-55.4494
0
VERTEX
10
-0.4602
20
-55.4380
0
VERTEX
10
-0.4638
20
-55.4267
0
VERTEX
10
-0.4687
20
-55.4153
0
VERTEX
10
-0.4749
20
-55.4039
0
VERTEX
10
-0.4823
20
-55.3925
0
VERTEX
10
-0.4907
20
-55.3811
0
VERTEX
10
-0.5001
20
-55.3698
0
VERTEX
10
-0.5102
20
-55.3584
0
VERTEX
10
-0.5209
20
-55.3470
0
VERTEX
10
-0.5320
20
-55.3356
0
VERTEX
10
-0.5433
20
-55.3242
0
VERTEX
10
-0.5547
20
-55.3129
0
VERTEX
10
-0.5660
20
-55.3015
0
VERTEX
10
-0.5769
20
-55.2901
0
VERTEX
10
-0.5873
20
-55.2787
0
VERTEX
10
-0.5970
20
-55.2673
0
VERTEX
10
-0.6060
20
-55.2560
0
VERTEX
10
-0.6139
20
-55.2446
0
VERTEX
10
-0.6207
20
-55.2332
0
VERTEX
10
-0.6263
20
-55.2218
0
VERTEX
10
-0.6306
20
-55.2104
0
VERTEX
10
-0.6334
20
-55.1991
0
VERTEX
10
-0.6349
20
-55.1877
0
VERTEX
10
-0.6349
20
-55.1763
0
VERTEX
10
-0.6334
20
-55.1649
0
VERTEX
10
-0.6306
20
-55.1536
0
VERTEX
10
-0.6263
20
-55.1422
0
VERTEX
10
-0.6207
20
-55.1308
0
VERTEX
10
-0.6139
20
-55.1194
0
VERTEX
10
-0.6060
20
-55.1080
0
VERTEX
10
-0.5970
20
-55.0967
0
VERTEX
10
-0.5873
20
-55.0853
0
VERTEX
10
-0.5769
20
-55.0739
0
VERTEX
10
-0.5660
20
-55.0625
0
VERTEX
10
-0.5547
20
-55.0511
0
VERTEX
10
-0.5433
20
-55.0398
0
VERTEX
10
-0.5320
20
-55.0284
0
VERTEX
10
-0.5209
20
-55.0170
0
VERTEX
10
-0.5102
20
-55.0056
0
VERTEX
10
-0.5001
20
-54.9942
0
VERTEX
10
-0.4907
20
-54.9829
0
VERTEX
10
-0.4823
20
-54.9715
0
VERTEX
10
-0.4749
20
-54.9601
0
VERTEX
10
-0.4687
20
-54.9487
0
VERTEX
10
-0.4638
20
-54.9373
0
VERTEX
10
-0.4602
20
-54.9260
0
VERTEX
10
-0.4580
20
-54.9146
0
VERTEX
10
-0.4573
20
-54.9032
0
VERTEX
10
0.4573
20
-54.9032
0
VERTEX
10
0.4580
20
-54.9146
0
VERTEX
10
0.4602
20
-54.9260
0
VERTEX
10
0.4638
20
-54.9373
0
VERTEX
10
0.4687
20
-54.9487
0
VERTEX
10
0.4749
20
-54.9601
0
VERTEX
10
0.4823
20
-54.9715
0
VERTEX
10
0.4907
20
-54.9829
0
VERTEX
10
0.5001
20
-54.9942
0
VERTEX
10
0.5102
20
-55.0056
0
VERTEX
10
0.5209
20
-55.0170
0
VERTEX
10
0.5320
20
-55.0284
0
VERTEX
10
0.5433
20
-55.0398
0
VERTEX
10
0.5547
20
-55.0511
0
VERTEX
10
0.5660
20
-55.0625
0
VERTEX
10
0.5769
20
-55.0739
0
VERTEX
10
0.5873
20
-55.0853
0
VERTEX
10
0.5970
20
-55.0967
0
VERTEX
10
0.6060
20
-55.1080
0
VERTEX
10
0.6139
20
-55.1194
0
VERTEX
10
0.6207
20
-55.1308
0
VERTEX
10
0.6263
20
-55.1422
0
VERTEX
10
0.6306
20
-55.1536
0
VERTEX
10
0.6334
20
-55.1649
0
VERTEX
10
0.6349
20
-55.1763
0
VERTEX
10
0.6349
20
-55.1877
0
VERTEX
10
0.6334
20
-55.1991
0
VERTEX
10
0.6306
20
-55.2104
0
VERTEX
10
0.6263
20
-55.2218
0
VERTEX
10
0.6207
20
-55.2332
0
VERTEX
10
0.6139
20
-55.2446
0
VERTEX
10
0.6060
20
-55.2560
0
VERTEX
10
0.5970
20
-55.2673
0
VERTEX
10
0.5873
20
-55.2787
0
VERTEX
10
0.5769
20
-55.2901
0
VERTEX
10
0.5660
20
-55.3015
0
VERTEX
10
0.5547
20
-55.3129
0
VERTEX
10
0.5433
20
-55.3242
0
VERTEX
10
0.5320
20
-55.3356
0
VERTEX
10
0.5209
20
-55.3470
0
VERTEX
10
0.5102
20
-55.3584
0
VERTEX
10
0.5001
20
-55.3698
0
VERTEX
10
0.4907
20
-55.3811
0
VERTEX
10
0.4823
20
-55.3925
0
VERTEX
10
0.4749
20
-55.4039
0
VERTEX
10
0.4687
20
-55.4153
0
VERTEX
10
0.4638
20
-55.4267
0
VERTEX
10
0.4602
20
-55.4380
0
VERTEX
10
0.4580
20
-55.4494
0
VERTEX
10
0.4573
20
-55.4608
0
SEQEND
0
POLYLINE
8
M1_Neg
70
1
0
VERTEX
10
-0.4573
20
-54.9032
0
VERTEX
10
-0.4580
20
-54.8918
0
VERTEX
10
-0.4602
20
-54.8804
0
VERTEX
10
-0.4638
20
-54.8691
0
VERTEX
10
-0.4687
20
-54.8577
0
VERTEX
10
-0.4749
20
-54.8463
0
VERTEX
10
-0.4823
20
-54.8349
0
VERTEX
10
-0.4907
20
-54.8235
0
VERTEX
10
-0.5001
20
-54.8122
0
VERTEX
10
-0.5102
20
-54.8008
0
VERTEX
10
-0.5209
20
-54.7894
0
VERTEX
10
-0.5320
20
-54.7780
0
VERTEX
10
-0.5433
20
-54.7666
0
VERTEX
10
-0.5547
20
-54.7553
0
VERTEX
10
-0.5660
20
-54.7439
0
VERTEX
10
-0.5769
20
-54.7325
0
VERTEX
10
-0.5873
20
-54.7211
0
VERTEX
10
-0.5970
20
-54.7097
0
VERTEX
10
-0.6060
20
-54.6984
0
VERTEX
10
-0.6139
20
-54.6870
0
VERTEX
10
-0.6207
20
-54.6756
0
VERTEX
10
-0.6263
20
-54.6642
0
VERTEX
10
-0.6306
20
-54.6528
0
VERTEX
10
-0.6334
20
-54.6415
0
VERTEX
10
-0.6349
20
-54.6301
0
VERTEX
10
-0.6349
20
-54.6187
0
VERTEX
10
-0.6334
20
-54.6073
0
VERTEX
10
-0.6306
20
-54.5960
0
VERTEX
10
-0.6263
20
-54.5846
0
VERTEX
10
-0.6207
20
-54.5732
0
VERTEX
10
-0.6139
20
-54.5618
0
VERTEX
10
-0.6060
20
-54.5504
0
VERTEX
10
-0.5970
20
-54.5391
0
VERTEX
10
-0.5873
20
-54.5277
0
VERTEX
10
-0.5769
20
-54.5163
0
VERTEX
10
-0.5660
20
-54.5049
0
VERTEX
10
-0.5547
20
-54.4935
0
VERTEX
10
-0.5433
20
-54.4822
0
VERTEX
10
-0.5320
20
-54.4708
0
VERTEX
10
-0.5209
20
-54.4594
0
VERTEX
10
-0.5102
20
-54.4480
0
VERTEX
10
-0.5001
20
-54.4366
0
VERTEX
10
-0.4907
20
-54.4253
0
VERTEX
10
-0.4823
20
-54.4139
0
VERTEX
10
-0.4749
20
-54.4025
0
VERTEX
10
-0.4687
20
-54.3911
0
VERTEX
10
-0.4638
20
-54.3797
0
VERTEX
10
-0.4602
20
-54.3684
0
VERTEX
10
-0.4580
20
-54.3570
0
VERTEX
10
-0.4573
20
-54.3456
0
VERTEX
10
0.4573
20
-54.3456
0
VERTEX
10
0.4580
20
-54.3570
0
VERTEX
10
0.4602
20
-54.3684
0
VERTEX
10
0.4638
20
-54.3797
0
VERTEX
10
0.4687
20
-54.3911
0
VERTEX
10
0.4749
20
-54.4025
0
VERTEX
10
0.4823
20
-54.4139
0
VERTEX
10
0.4907
20
-54.4253
0
VERTEX
10
0.5001
20
-54.4366
0
VERTEX
10
0.5102
20
-54.4480
0
VERTEX
10
0.5209
20
-54.4594
0
VERTEX
10
0.5320
20
-54.4708
0
VERTEX
10
0.5433
20
-54.4822
0
VERTEX
10
0.5547
20
-54.4935
0
VERTEX
10
0.5660
20
-54.5049
0
VERTEX
10
0.5769
20
-54.5163
0
VERTEX
10
0.5873
20
-54.5277
0
VERTEX
10
0.5970
20
-54.5391
0
VERTEX
10
0.6060
20
-54.5504
0
VERTEX
10
0.6139
20
-54.5618
0
VERTEX
10
0.6207
20
-54.5732
0
VERTEX
10
0.6263
20
-54.5846
0
VERTEX
10
0.6306
20
-54.5960
0
VERTEX
10
0.6334
20
-54.6073
0
VERTEX
10
0.6349
20
-54.6187
0
VERTEX
10
0.6349
20
-54.6301
0
VERTEX
10
0.6334
20
-54.6415
0
VERTEX
10
0.6306
20
-54.6528
0
VERTEX
10
0.6263
20
-54.6642
0
VERTEX
10
0.6207
20
-54.6756
0
VERTEX
10
0.6139
20
-54.6870
0
VERTEX
10
0.6060
20
-54.6984
0
VERTEX
10
0.5970
20
-54.7097
0
VERTEX
10
0.5873
20
-54.7211
0
VERTEX
10
0.5769
20
-54.7325
0
VERTEX
10
0.5660
20
-54.7439
0
VERTEX
10
0.5547
20
-54.7553
0
VERTEX
10
0.5433
20
-54.7666
0
VERTEX
10
0.5320
20
-54.7780
0
VERTEX
10
0.5209
20
-54.7894
0
VERTEX
10
0.5102
20
-54.8008
0
VERTEX
10
0.5001
20
-54.8122
0
VERTEX
10
0.4907
20
-54.8235
0
VERTEX
10
0.4823
20
-54.8349
0
VERTEX
10
0.4749
20
-54.8463
0
VERTEX
10
0.4687
20
-54.8577
0
VERTEX
10
0.4638
20
-54.8691
0
VERTEX
10
0.4602
20
-54.8804
0
VERTEX
10
0.4580
20
-54.8918
0
VERTEX
10
0.4573
20
-54.9032
0
SEQEND
0
POLYLINE
8
M1_Neg
70
1
0
VERTEX
10
-0.4573
20
-54.3456
0
VERTEX
10
-0.4580
20
-54.3342
0
VERTEX
10
-0.4602
20
-54.3228
0
VERTEX
10
-0.4638
20
-54.3115
0
VERTEX
10
-0.4687
20
-54.3001
0
VERTEX
10
-0.4749
20
-54.2887
0
VERTEX
10
-0.4823
20
-54.2773
0
VERTEX
10
-0.4907
20
-54.2659
0
VERTEX
10
-0.5001
20
-54.2546
0
VERTEX
10
-0.5102
20
-54.2432
0
VERTEX
10
-0.5209
20
-54.2318
0
VERTEX
10
-0.5320
20
-54.2204
0
VERTEX
10
-0.5433
20
-54.2090
0
VERTEX
10
-0.5547
20
-54.1977
0
VERTEX
10
-0.5660
20
-54.1863
0
VERTEX
10
-0.5769
20
-54.1749
0
VERTEX
10
-0.5873
20
-54.1635
0
VERTEX
10
-0.5970
20
-54.1521
0
VERTEX
10
-0.6060
20
-54.1408
0
VERTEX
10
-0.6139
20
-54.1294
0
VERTEX
10
-0.6207
20
-54.1180
0
VERTEX
10
-0.6263
20
-54.1066
0
VERTEX
10
-0.6306
20
-54.0952
0
VERTEX
10
-0.6334
20
-54.0839
0
VERTEX
10
-0.6349
20
-54.0725
0
VERTEX
10
-0.6349
20
-54.0611
0
VERTEX
10
-0.6334
20
-54.0497
0
VERTEX
10
-0.6306
20
-54.0384
0
VERTEX
10
-0.6263
20
-54.0270
0
VERTEX
10
-0.6207
20
-54.0156
0
VERTEX
10
-0.6139
20
-54.0042
0
VERTEX
10
-0.6060
20
-53.9928
0
VERTEX
10
-0.5970
20
-53.9815
0
VERTEX
10
-0.5873
20
-53.9701
0
VERTEX
10
-0.5769
20
-53.9587
0
VERTEX
10
-0.5660
20
-53.9473
0
VERTEX
10
-0.5547
20
-53.9359
0
VERTEX
10
-0.5433
20
-53.9246
0
VERTEX
10
-0.5320
20
-53.9132
0
VERTEX
10
-0.5209
20
-53.9018
0
VERTEX
10
-0.5102
20
-53.8904
0
VERTEX
10
-0.5001
20
-53.8790
0
VERTEX
10
-0.4907
20
-53.8677
0
VERTEX
10
-0.4823
20
-53.8563
0
VERTEX
10
-0.4749
20
-53.8449
0
VERTEX
10
-0.4687
20
-53.8335
0
VERTEX
10
-0.4638
20
-53.8221
0
VERTEX
10
-0.4602
20
-53.8108
0
VERTEX
10
-0.4580
20
-53.7994
0
VERTEX
10
-0.4573
20
-53.7880
0
VERTEX
10
0.4573
20
-53.7880
0
VERTEX
10
0.4580
20
-53.7994
0
VERTEX
10
0.4602
20
-53.8108
0
VERTEX
10
0.4638
20
-53.8221
0
VERTEX
10
0.4687
20
-53.8335
0
VERTEX
10
0.4749
20
-53.8449
0
VERTEX
10
0.4823
20
-53.8563
0
VERTEX
10
0.4907
20
-53.8677
0
VERTEX
10
0.5001
20
-53.8790
0
VERTEX
10
0.5102
20
-53.8904
0
VERTEX
10
0.5209
20
-53.9018
0
VERTEX
10
0.5320
20
-53.9132
0
VERTEX
10
0.5433
20
-53.9246
0
VERTEX
10
0.5547
20
-53.9359
0
VERTEX
10
0.5660
20
-53.9473
0
VERTEX
10
0.5769
20
-53.9587
0
VERTEX
10
0.5873
20
-53.9701
0
VERTEX
10
0.5970
20
-53.9815
0
VERTEX
10
0.6060
20
-53.9928
0
VERTEX
10
0.6139
20
-54.0042
0
VERTEX
10
0.6207
20
-54.0156
0
VERTEX
10
0.6263
20
-54.0270
0
VERTEX
10
0.6306
20
-54.0384
0
VERTEX
10
0.6334
20
-54.0497
0
VERTEX
10
0.6349
20
-54.0611
0
VERTEX
10
0.6349
20
-54.0725
0
VERTEX
10
0.6334
20
-54.0839
0
VERTEX
10
0.6306
20
-54.0952
0
VERTEX
10
0.6263
20
-54.1066
0
VERTEX
10
0.6207
20
-54.1180
0
VERTEX
10
0.6139
20
-54.1294
0
VERTEX
10
0.6060
20
-54.1408
0
VERTEX
10
0.5970
20
-54.1521
0
VERTEX
10
0.5873
20
-54.1635
0
VERTEX
10
0.5769
20
-54.1749
0
VERTEX
10
0.5660
20
-54.1863
0
VERTEX
10
0.5547
20
-54.1977
0
VERTEX
10
0.5433
20
-54.2090
0
VERTEX
10
0.5320
20
-54.2204
0
VERTEX
10
0.5209
20
-54.2318
0
VERTEX
10
0.5102
20
-54.2432
0
VERTEX
10
0.5001
20
-54.2546
0
VERTEX
10
0.4907
20
-54.2659
0
VERTEX
10
0.4823
20
-54.2773
0
VERTEX
10
0.4749
20
-54.2887
0
VERTEX
10
0.4687
20
-54.3001
0
VERTEX
10
0.4638
20
-54.3115
0
VERTEX
10
0.4602
20
-54.3228
0
VERTEX
10
0.4580
20
-54.3342
0
VERTEX
10
0.4573
20
-54.3456
0
SEQEND
0
POLYLINE
8
M1_Neg
70
1
0
VERTEX
10
-0.4573
20
-53.7880
0
VERTEX
10
-0.4580
20
-53.7766
0
VERTEX
10
-0.4602
20
-53.7652
0
VERTEX
10
-0.4638
20
-53.7539
0
VERTEX
10
-0.4687
20
-53.7425
0
VERTEX
10
-0.4749
20
-53.7311
0
VERTEX
10
-0.4823
20
-53.7197
0
VERTEX
10
-0.4907
20
-53.7083
0
VERTEX
10
-0.5001
20
-53.6970
0
VERTEX
10
-0.5102
20
-53.6856
0
VERTEX
10
-0.5209
20
-53.6742
0
VERTEX
10
-0.5320
20
-53.6628
0
VERTEX
10
-0.5433
20
-53.6514
0
VERTEX
10
-0.5547
20
-53.6401
0
VERTEX
10
-0.5660
20
-53.6287
0
VERTEX
10
-0.5769
20
-53.6173
0
VERTEX
10
-0.5873
20
-53.6059
0
VERTEX
10
-0.5970
20
-53.5945
0
VERTEX
10
-0.6060
20
-53.5832
0
VERTEX
10
-0.6139
20
-53.5718
0
VERTEX
10
-0.6207
20
-53.5604
0
VERTEX
10
-0.6263
20
-53.5490
0
VERTEX
10
-0.6306
20
-53.5376
0
VERTEX
10
-0.6334
20
-53.5263
0
VERTEX
10
-0.6349
20
-53.5149
0
VERTEX
10
-0.6349
20
-53.5035
0
VERTEX
10
-0.6334
20
-53.4921
0
VERTEX
10
-0.6306
20
-53.4808
0
VERTEX
10
-0.6263
20
-53.4694
0
VERTEX
10
-0.6207
20
-53.4580
0
VERTEX
10
-0.6139
20
-53.4466
0
VERTEX
10
-0.6060
20
-53.4352
0
VERTEX
10
-0.5970
20
-53.4239
0
VERTEX
10
-0.5873
20
-53.4125
0
VERTEX
10
-0.5769
20
-53.4011
0
VERTEX
10
-0.5660
20
-53.3897
0
VERTEX
10
-0.5547
20
-53.3783
0
VERTEX
10
-0.5433
20
-53.3670
0
VERTEX
10
-0.5320
20
-53.3556
0
VERTEX
10
-0.5209
20
-53.3442
0
VERTEX
10
-0.5102
20
-53.3328
0
VERTEX
10
-0.5001
20
-53.3214
0
VERTEX
10
-0.4907
20
-53.3101
0
VERTEX
10
-0.4823
20
-53.2987
0
VERTEX
10
-0.4749
20
-53.2873
0
VERTEX
10
-0.4687
20
-53.2759
0
VERTEX
10
-0.4638
20
-53.2645
0
VERTEX
10
-0.4602
20
-53.2532
0
VERTEX
10
-0.4580
20
-53.2418
0
VERTEX
10
-0.4573
20
-53.2304
0
VERTEX
10
0.4573
20
-53.2304
0
VERTEX
10
0.4580
20
-53.2418
0
VERTEX
10
0.4602
20
-53.2532
0
VERTEX
10
0.4638
20
-53.2645
0
VERTEX
10
0.4687
20
-53.2759
0
VERTEX
10
0.4749
20
-53.2873
0
VERTEX
10
0.4823
20
-53.2987
0
VERTEX
10
0.4907
20
-53.3101
0
VERTEX
10
0.5001
20
-53.3214
0
VERTEX
10
0.5102
20
-53.3328
0
VERTEX
10
0.5209
20
-53.3442
0
VERTEX
10
0.5320
20
-53.3556
0
VERTEX
10
0.5433
20
-53.3670
0
VERTEX
10
0.5547
20
-53.3783
0
VERTEX
10
0.5660
20
-53.3897
0
VERTEX
10
0.5769
20
-53.4011
0
VERTEX
10
0.5873
20
-53.4125
0
VERTEX
10
0.5970
20
-53.4239
0
VERTEX
10
0.6060
20
-53.4352
0
VERTEX
10
0.6139
20
-53.4466
0
VERTEX
10
0.6207
20
-53.4580
0
VERTEX
10
0.6263
20
-53.4694
0
VERTEX
10
0.6306
20
-53.4808
0
VERTEX
10
0.6334
20
-53.4921
0
VERTEX
10
0.6349
20
-53.5035
0
VERTEX
10
0.6349
20
-53.5149
0
VERTEX
10
0.6334
20
-53.5263
0
VERTEX
10
0.6306
20
-53.5376
0
VERTEX
10
0.6263
20
-53.5490
0
VERTEX
10
0.6207
20
-53.5604
0
VERTEX
10
0.6139
20
-53.5718
0
VERTEX
10
0.6060
20
-53.5832
0
VERTEX
10
0.5970
20
-53.5945
0
VERTEX
10
0.5873
20
-53.6059
0
VERTEX
10
0.5769
20
-53.6173
0
VERTEX
10
0.5660
20
-53.6287
0
VERTEX
10
0.5547
20
-53.6401
0
VERTEX
10
0.5433
20
-53.6514
0
VERTEX
10
0.5320
20
-53.6628
0
VERTEX
10
0.5209
20
-53.6742
0
VERTEX
10
0.5102
20
-53.6856
0
VERTEX
10
0.5001
20
-53.6970
0
VERTEX
10
0.4907
20
-53.7083
0
VERTEX
10
0.4823
20
-53.7197
0
VERTEX
10
0.4749
20
-53.7311
0
VERTEX
10
0.4687
20
-53.7425
0
VERTEX
10
0.4638
20
-53.7539
0
VERTEX
10
0.4602
20
-53.7652
0
VERTEX
10
0.4580
20
-53.7766
0
VERTEX
10
0.4573
20
-53.7880
0
SEQEND
0
POLYLINE
8
M1_Neg
70
1
0
VERTEX
10
-0.4573
20
-53.2304
0
VERTEX
10
-0.4580
20
-53.2190
0
VERTEX
10
-0.4602
20
-53.2076
0
VERTEX
10
-0.4638
20
-53.1963
0
VERTEX
10
-0.4687
20
-53.1849
0
VERTEX
10
-0.4749
20
-53.1735
0
VERTEX
10
-0.4823
20
-53.1621
0
VERTEX
10
-0.4907
20
-53.1507
0
VERTEX
10
-0.5001
20
-53.1394
0
VERTEX
10
-0.5102
20
-53.1280
0
VERTEX
10
-0.5209
20
-53.1166
0
VERTEX
10
-0.5320
20
-53.1052
0
VERTEX
10
-0.5433
20
-53.0938
0
VERTEX
10
-0.5547
20
-53.0825
0
VERTEX
10
-0.5660
20
-53.0711
0
VERTEX
10
-0.5769
20
-53.0597
0
VERTEX
10
-0.5873
20
-53.0483
0
VERTEX
10
-0.5970
20
-53.0369
0
VERTEX
10
-0.6060
20
-53.0256
0
VERTEX
10
-0.6139
20
-53.0142
0
VERTEX
10
-0.6207
20
-53.0028
0
VERTEX
10
-0.6263
20
-52.9914
0
VERTEX
10
-0.6306
20
-52.9800
0
VERTEX
10
-0.6334
20
-52.9687
0
VERTEX
10
-0.6349
20
-52.9573
0
VERTEX
10
-0.6349
20
-52.9459
0
VERTEX
10
-0.6334
20
-52.9345
0
VERTEX
10
-0.6306
20
-52.9232
0
VERTEX
10
-0.6263
20
-52.9118
0
VERTEX
10
-0.6207
20
-52.9004
0
VERTEX
10
-0.6139
20
-52.8890
0
VERTEX
10
-0.6060
20
-52.8776
0
VERTEX
10
-0.5970
20
-52.8663
0
VERTEX
10
-0.5873
20
-52.8549
0
VERTEX
10
-0.5769
20
-52.8435
0
VERTEX
10
-0.5660
20
-52.8321
0
VERTEX
10
-0.5547
20
-52.8207
0
VERTEX
10
-0.5433
20
-52.8094
0
VERTEX
10
-0.5320
20
-52.7980
0
VERTEX
10
-0.5209
20
-52.7866
0
VERTEX
10
-0.5102
20
-52.7752
0
VERTEX
10
-0.5001
20
-52.7638
0
VERTEX
10
-0.4907
20
-52.7525
0
VERTEX
10
-0.4823
20
-52.7411
0
VERTEX
10
-0.4749
20
-52.7297
0
VERTEX
10
-0.4687
20
-52.7183
0
VERTEX
10
-0.4638
20
-52.7069
0
VERTEX
10
-0.4602
20
-52.6956
0
VERTEX
10
-0.4580
20
-52.6842
0
VERTEX
10
-0.4573
20
-52.6728
0
VERTEX
10
0.4573
20
-52.6728
0
VERTEX
10
0.4580
20
-52.6842
0
VERTEX
10
0.4602
20
-52.6956
0
VERTEX
10
0.4638
20
-52.7069
0
VERTEX
10
0.4687
20
-52.7183
0
VERTEX
10
0.4749
20
-52.7297
0
VERTEX
10
0.4823
20
-52.7411
0
VERTEX
10
0.4907
20
-52.7525
0
VERTEX
10
0.5001
20
-52.7638
0
VERTEX
10
0.5102
20
-52.7752
0
VERTEX
10
0.5209
20
-52.7866
0
VERTEX
10
0.5320
20
-52.7980
0
VERTEX
10
0.5433
20
-52.8094
0
VERTEX
10
0.5547
20
-52.8207
0
VERTEX
10
0.5660
20
-52.8321
0
VERTEX
10
0.5769
20
-52.8435
0
VERTEX
10
0.5873
20
-52.8549
0
VERTEX
10
0.5970
20
-52.8663
0
VERTEX
10
0.6060
20
-52.8776
0
VERTEX
10
0.6139
20
-52.8890
0
VERTEX
10
0.6207
20
-52.9004
0
VERTEX
10
0.6263
20
-52.9118
0
VERTEX
10
0.6306
20
-52.9232
0
VERTEX
10
0.6334
20
-52.9345
0
VERTEX
10
0.6349
20
-52.9459
0
VERTEX
10
0.6349
20
-52.9573
0
VERTEX
10
0.6334
20
-52.9687
0
VERTEX
10
0.6306
20
-52.9800
0
VERTEX
10
0.6263
20
-52.9914
0
VERTEX
10
0.6207
20
-53.0028
0
VERTEX
10
0.6139
20
-53.0142
0
VERTEX
10
0.6060
20
-53.0256
0
VERTEX
10
0.5970
20
-53.0369
0
VERTEX
10
0.5873
20
-53.0483
0
VERTEX
10
0.5769
20
-53.0597
0
VERTEX
10
0.5660
20
-53.0711
0
VERTEX
10
0.5547
20
-53.0825
0
VERTEX
10
0.5433
20
-53.0938
0
VERTEX
10
0.5320
20
-53.1052
0
VERTEX
10
0.5209
20
-53.1166
0
VERTEX
10
0.5102
20
-53.1280
0
VERTEX
10
0.5001
20
-53.1394
0
VERTEX
10
0.4907
20
-53.1507
0
VERTEX
10
0.4823
20
-53.1621
0
VERTEX
10
0.4749
20
-53.1735
0
VERTEX
10
0.4687
20
-53.1849
0
VERTEX
10
0.4638
20
-53.1963
0
VERTEX
10
0.4602
20
-53.2076
0
VERTEX
10
0.4580
20
-53.2190
0
VERTEX
10
0.4573
20
-53.2304
0
SEQEND
0
POLYLINE
8
M1_Neg
70
1
0
VERTEX
10
-0.4573
20
-52.6728
0
VERTEX
10
-0.4580
20
-52.6614
0
VERTEX
10
-0.4602
20
-52.6500
0
VERTEX
10
-0.4638
20
-52.6387
0
VERTEX
10
-0.4687
20
-52.6273
0
VERTEX
10
-0.4749
20
-52.6159
0
VERTEX
10
-0.4823
20
-52.6045
0
VERTEX
10
-0.4907
20
-52.5931
0
VERTEX
10
-0.5001
20
-52.5818
0
VERTEX
10
-0.5102
20
-52.5704
0
VERTEX
10
-0.5209
20
-52.5590
0
VERTEX
10
-0.5320
20
-52.5476
0
VERTEX
10
-0.5433
20
-52.5362
0
VERTEX
10
-0.5547
20
-52.5249
0
VERTEX
10
-0.5660
20
-52.5135
0
VERTEX
10
-0.5769
20
-52.5021
0
VERTEX
10
-0.5873
20
-52.4907
0
VERTEX
10
-0.5970
20
-52.4793
0
VERTEX
10
-0.6060
20
-52.4680
0
VERTEX
10
-0.6139
20
-52.4566
0
VERTEX
10
-0.6207
20
-52.4452
0
VERTEX
10
-0.6263
20
-52.4338
0
VERTEX
10
-0.6306
20
-52.4224
0
VERTEX
10
-0.6334
20
-52.4111
0
VERTEX
10
-0.6349
20
-52.3997
0
VERTEX
10
-0.6349
20
-52.3883
0
VERTEX
10
-0.6334
20
-52.3769
0
VERTEX
10
-0.6306
20
-52.3656
0
VERTEX
10
-0.6263
20
-52.3542
0
VERTEX
10
-0.6207
20
-52.3428
0
VERTEX
10
-0.6139
20
-52.3314
0
VERTEX
10
-0.6060
20
-52.3200
0
VERTEX
10
-0.5970
20
-52.3087
0
VERTEX
10
-0.5873
20
-52.2973
0
VERTEX
10
-0.5769
20
-52.2859
0
VERTEX
10
-0.5660
20
-52.2745
0
VERTEX
10
-0.5547
20
-52.2631
0
VERTEX
10
-0.5433
20
-52.2518
0
VERTEX
10
-0.5320
20
-52.2404
0
VERTEX
10
-0.5209
20
-52.2290
0
VERTEX
10
-0.5102
20
-52.2176
0
VERTEX
10
-0.5001
20
-52.2062
0
VERTEX
10
-0.4907
20
-52.1949
0
VERTEX
10
-0.4823
20
-52.1835
0
VERTEX
10
-0.4749
20
-52.1721
0
VERTEX
10
-0.4687
20
-52.1607
0
VERTEX
10
-0.4638
20
-52.1493
0
VERTEX
10
-0.4602
20
-52.1380
0
VERTEX
10
-0.4580
20
-52.1266
0
VERTEX
10
-0.4573
20
-52.1152
0
VERTEX
10
0.4573
20
-52.1152
0
VERTEX
10
0.4580
20
-52.1266
0
VERTEX
10
0.4602
20
-52.1380
0
VERTEX
10
0.4638
20
-52.1493
0
VERTEX
10
0.4687
20
-52.1607
0
VERTEX
10
0.4749
20
-52.1721
0
VERTEX
10
0.4823
20
-52.1835
0
VERTEX
10
0.4907
20
-52.1949
0
VERTEX
10
0.5001
20
-52.2062
0
VERTEX
10
0.5102
20
-52.2176
0
VERTEX
10
0.5209
20
-52.2290
0
VERTEX
10
0.5320
20
-52.2404
0
VERTEX
10
0.5433
20
-52.2518
0
VERTEX
10
0.5547
20
-52.2631
0
VERTEX
10
0.5660
20
-52.2745
0
VERTEX
10
0.5769
20
-52.2859
0
VERTEX
10
0.5873
20
-52.2973
0
VERTEX
10
0.5970
20
-52.3087
0
VERTEX
10
0.6060
20
-52.3200
0
VERTEX
10
0.6139
20
-52.3314
0
VERTEX
10
0.6207
20
-52.3428
0
VERTEX
10
0.6263
20
-52.3542
0
VERTEX
10
0.6306
20
-52.3656
0
VERTEX
10
0.6334
20
-52.3769
0
VERTEX
10
0.6349
20
-52.3883
0
VERTEX
10
0.6349
20
-52.3997
0
VERTEX
10
0.6334
20
-52.4111
0
VERTEX
10
0.6306
20
-52.4224
0
VERTEX
10
0.6263
20
-52.4338
0
VERTEX
10
0.6207
20
-52.4452
0
VERTEX
10
0.6139
20
-52.4566
0
VERTEX
10
0.6060
20
-52.4680
0
VERTEX
10
0.5970
20
-52.4793
0
VERTEX
10
0.5873
20
-52.4907
0
VERTEX
10
0.5769
20
-52.5021
0
VERTEX
10
0.5660
20
-52.5135
0
VERTEX
10
0.5547
20
-52.5249
0
VERTEX
10
0.5433
20
-52.5362
0
VERTEX
10
0.5320
20
-52.5476
0
VERTEX
10
0.5209
20
-52.5590
0
VERTEX
10
0.5102
20
-52.5704
0
VERTEX
10
0.5001
20
-52.5818
0
VERTEX
10
0.4907
20
-52.5931
0
VERTEX
10
0.4823
20
-52.6045
0
VERTEX
10
0.4749
20
-52.6159
0
VERTEX
10
0.4687
20
-52.6273
0
VERTEX
10
0.4638
20
-52.6387
0
VERTEX
10
0.4602
20
-52.6500
0
VERTEX
10
0.4580
20
-52.6614
0
VERTEX
10
0.4573
20
-52.6728
0
SEQEND
0
POLYLINE
8
M1_Neg
70
1
0
VERTEX
10
-0.4573
20
-52.1152
0
VERTEX
10
-0.4580
20
-52.1038
0
VERTEX
10
-0.4602
20
-52.0924
0
VERTEX
10
-0.4638
20
-52.0811
0
VERTEX
10
-0.4687
20
-52.0697
0
VERTEX
10
-0.4749
20
-52.0583
0
VERTEX
10
-0.4823
20
-52.0469
0
VERTEX
10
-0.4907
20
-52.0355
0
VERTEX
10
-0.5001
20
-52.0242
0
VERTEX
10
-0.5102
20
-52.0128
0
VERTEX
10
-0.5209
20
-52.0014
0
VERTEX
10
-0.5320
20
-51.9900
0
VERTEX
10
-0.5433
20
-51.9786
0
VERTEX
10
-0.5547
20
-51.9673
0
VERTEX
10
-0.5660
20
-51.9559
0
VERTEX
10
-0.5769
20
-51.9445
0
VERTEX
10
-0.5873
20
-51.9331
0
VERTEX
10
-0.5970
20
-51.9217
0
VERTEX
10
-0.6060
20
-51.9104
0
VERTEX
10
-0.6139
20
-51.8990
0
VERTEX
10
-0.6207
20
-51.8876
0
VERTEX
10
-0.6263
20
-51.8762
0
VERTEX
10
-0.6306
20
-51.8648
0
VERTEX
10
-0.6334
20
-51.8535
0
VERTEX
10
-0.6349
20
-51.8421
0
VERTEX
10
-0.6349
20
-51.8307
0
VERTEX
10
-0.6334
20
-51.8193
0
VERTEX
10
-0.6306
20
-51.8080
0
VERTEX
10
-0.6263
20
-51.7966
0
VERTEX
10
-0.6207
20
-51.7852
0
VERTEX
10
-0.6139
20
-51.7738
0
VERTEX
10
-0.6060
20
-51.7624
0
VERTEX
10
-0.5970
20
-51.7511
0
VERTEX
10
-0.5873
20
-51.7397
0
VERTEX
10
-0.5769
20
-51.7283
0
VERTEX
10
-0.5660
20
-51.7169
0
VERTEX
10
-0.5547
20
-51.7055
0
VERTEX
10
-0.5433
20
-51.6942
0
VERTEX
10
-0.5320
20
-51.6828
0
VERTEX
10
-0.5209
20
-51.6714
0
VERTEX
10
-0.5102
20
-51.6600
0
VERTEX
10
-0.5001
20
-51.6486
0
VERTEX
10
-0.4907
20
-51.6373
0
VERTEX
10
-0.4823
20
-51.6259
0
VERTEX
10
-0.4749
20
-51.6145
0
VERTEX
10
-0.4687
20
-51.6031
0
VERTEX
10
-0.4638
20
-51.5917
0
VERTEX
10
-0.4602
20
-51.5804
0
VERTEX
10
-0.4580
20
-51.5690
0
VERTEX
10
-0.4573
20
-51.5576
0
VERTEX
10
0.4573
20
-51.5576
0
VERTEX
10
0.4580
20
-51.5690
0
VERTEX
10
0.4602
20
-51.5804
0
VERTEX
10
0.4638
20
-51.5917
0
VERTEX
10
0.4687
20
-51.6031
0
VERTEX
10
0.4749
20
-51.6145
0
VERTEX
10
0.4823
20
-51.6259
0
VERTEX
10
0.4907
20
-51.6373
0
VERTEX
10
0.5001
20
-51.6486
0
VERTEX
10
0.5102
20
-51.6600
0
VERTEX
10
0.5209
20
-51.6714
0
VERTEX
10
0.5320
20
-51.6828
0
VERTEX
10
0.5433
20
-51.6942
0
VERTEX
10
0.5547
20
-51.7055
0
VERTEX
10
0.5660
20
-51.7169
0
VERTEX
10
0.5769
20
-51.7283
0
VERTEX
10
0.5873
20
-51.7397
0
VERTEX
10
0.5970
20
-51.7511
0
VERTEX
10
0.6060
20
-51.7624
0
VERTEX
10
0.6139
20
-51.7738
0
VERTEX
10
0.6207
20
-51.7852
0
VERTEX
10
0.6263
20
-51.7966
0
VERTEX
10
0.6306
20
-51.8080
0
VERTEX
10
0.6334
20
-51.8193
0
VERTEX
10
0.6349
20
-51.8307
0
VERTEX
10
0.6349
20
-51.8421
0
VERTEX
10
0.6334
20
-51.8535
0
VERTEX
10
0.6306
20
-51.8648
0
VERTEX
10
0.6263
20
-51.8762
0
VERTEX
10
0.6207
20
-51.8876
0
VERTEX
10
0.6139
20
-51.8990
0
VERTEX
10
0.6060
20
-51.9104
0
VERTEX
10
0.5970
20
-51.9217
0
VERTEX
10
0.5873
20
-51.9331
0
VERTEX
10
0.5769
20
-51.9445
0
VERTEX
10
0.5660
20
-51.9559
0
VERTEX
10
0.5547
20
-51.9673
0
VERTEX
10
0.5433
20
-51.9786
0
VERTEX
10
0.5320
20
-51.9900
0
VERTEX
10
0.5209
20
-52.0014
0
VERTEX
10
0.5102
20
-52.0128
0
VERTEX
10
0.5001
20
-52.0242
0
VERTEX
10
0.4907
20
-52.0355
0
VERTEX
10
0.4823
20
-52.0469
0
VERTEX
10
0.4749
20
-52.0583
0
VERTEX
10
0.4687
20
-52.0697
0
VERTEX
10
0.4638
20
-52.0811
0
VERTEX
10
0.4602
20
-52.0924
0
VERTEX
10
0.4580
20
-52.1038
0
VERTEX
10
0.4573
20
-52.1152
0
SEQEND
0
POLYLINE
8
M1_Neg
70
1
0
VERTEX
10
-0.4573
20
-51.5576
0
VERTEX
10
-0.4580
20
-51.5462
0
VERTEX
10
-0.4602
20
-51.5348
0
VERTEX
10
-0.4638
20
-51.5235
0
VERTEX
10
-0.4687
20
-51.5121
0
VERTEX
10
-0.4749
20
-51.5007
0
VERTEX
10
-0.4823
20
-51.4893
0
VERTEX
10
-0.4907
20
-51.4779
0
VERTEX
10
-0.5001
20
-51.4666
0
VERTEX
10
-0.5102
20
-51.4552
0
VERTEX
10
-0.5209
20
-51.4438
0
VERTEX
10
-0.5320
20
-51.4324
0
VERTEX
10
-0.5433
20
-51.4210
0
VERTEX
10
-0.5547
20
-51.4097
0
VERTEX
10
-0.5660
20
-51.3983
0
VERTEX
10
-0.5769
20
-51.3869
0
VERTEX
10
-0.5873
20
-51.3755
0
VERTEX
10
-0.5970
20
-51.3641
0
VERTEX
10
-0.6060
20
-51.3528
0
VERTEX
10
-0.6139
20
-51.3414
0
VERTEX
10
-0.6207
20
-51.3300
0
VERTEX
10
-0.6263
20
-51.3186
0
VERTEX
10
-0.6306
20
-51.3072
0
VERTEX
10
-0.6334
20
-51.2959
0
VERTEX
10
-0.6349
20
-51.2845
0
VERTEX
10
-0.6349
20
-51.2731
0
VERTEX
10
-0.6334
20
-51.2617
0
VERTEX
10
-0.6306
20
-51.2504
0
VERTEX
10
-0.6263
20
-51.2390
0
VERTEX
10
-0.6207
20
-51.2276
0
VERTEX
10
-0.6139
20
-51.2162
0
VERTEX
10
-0.6060
20
-51.2048
0
VERTEX
10
-0.5970
20
-51.1935
0
VERTEX
10
-0.5873
20
-51.1821
0
VERTEX
10
-0.5769
20
-51.1707
0
VERTEX
10
-0.5660
20
-51.1593
0
VERTEX
10
-0.5547
20
-51.1479
0
VERTEX
10
-0.5433
20
-51.1366
0
VERTEX
10
-0.5320
20
-51.1252
0
VERTEX
10
-0.5209
20
-51.1138
0
VERTEX
10
-0.5102
20
-51.1024
0
VERTEX
10
-0.5001
20
-51.0910
0
VERTEX
10
-0.4907
20
-51.0797
0
VERTEX
10
-0.4823
20
-51.0683
0
VERTEX
10
-0.4749
20
-51.0569
0
VERTEX
10
-0.4687
20
-51.0455
0
VERTEX
10
-0.4638
20
-51.0341
0
VERTEX
10
-0.4602
20
-51.0228
0
VERTEX
10
-0.4580
20
-51.0114
0
VERTEX
10
-0.4573
20
-51.0000
0
VERTEX
10
0.4573
20
-51.0000
0
VERTEX
10
0.4580
20
-51.0114
0
VERTEX
10
0.4602
20
-51.0228
0
VERTEX
10
0.4638
20
-51.0341
0
VERTEX
10
0.4687
20
-51.0455
0
VERTEX
10
0.4749
20
-51.0569
0
VERTEX
10
0.4823
20
-51.0683
0
VERTEX
10
0.4907
20
-51.0797
0
VERTEX
10
0.5001
20
-51.0910
0
VERTEX
10
0.5102
20
-51.1024
0
VERTEX
10
0.5209
20
-51.1138
0
VERTEX
10
0.5320
20
-51.1252
0
VERTEX
10
0.5433
20
-51.1366
0
VERTEX
10
0.5547
20
-51.1479
0
VERTEX
10
0.5660
20
-51.1593
0
VERTEX
10
0.5769
20
-51.1707
0
VERTEX
10
0.5873
20
-51.1821
0
VERTEX
10
0.5970
20
-51.1935
0
VERTEX
10
0.6060
20
-51.2048
0
VERTEX
10
0.6139
20
-51.2162
0
VERTEX
10
0.6207
20
-51.2276
0
VERTEX
10
0.6263
20
-51.2390
0
VERTEX
10
0.6306
20
-51.2504
0
VERTEX
10
0.6334
20
-51.2617
0
VERTEX
10
0.6349
20
-51.2731
0
VERTEX
10
0.6349
20
-51.2845
0
VERTEX
10
0.6334
20
-51.2959
0
VERTEX
10
0.6306
20
-51.3072
0
VERTEX
10
0.6263
20
-51.3186
0
VERTEX
10
0.6207
20
-51.3300
0
VERTEX
10
0.6139
20
-51.3414
0
VERTEX
10
0.6060
20
-51.3528
0
VERTEX
10
0.5970
20
-51.3641
0
VERTEX
10
0.5873
20
-51.3755
0
VERTEX
10
0.5769
20
-51.3869
0
VERTEX
10
0.5660
20
-51.3983
0
VERTEX
10
0.5547
20
-51.4097
0
VERTEX
10
0.5433
20
-51.4210
0
VERTEX
10
0.5320
20
-51.4324
0
VERTEX
10
0.5209
20
-51.4438
0
VERTEX
10
0.5102
20
-51.4552
0
VERTEX
10
0.5001
20
-51.4666
0
VERTEX
10
0.4907
20
-51.4779
0
VERTEX
10
0.4823
20
-51.4893
0
VERTEX
10
0.4749
20
-51.5007
0
VERTEX
10
0.4687
20
-51.5121
0
VERTEX
10
0.4638
20
-51.5235
0
VERTEX
10
0.4602
20
-51.5348
0
VERTEX
10
0.4580
20
-51.5462
0
VERTEX
10
0.4573
20
-51.5576
0
SEQEND
0
POLYLINE
8
M1_Neg
70
1
0
VERTEX
10
-0.4573
20
-51.0000
0
VERTEX
10
-0.4579
20
-50.9886
0
VERTEX
10
-0.4600
20
-50.9772
0
VERTEX
10
-0.4635
20
-50.9659
0
VERTEX
10
-0.4684
20
-50.9545
0
VERTEX
10
-0.4746
20
-50.9431
0
VERTEX
10
-0.4819
20
-50.9317
0
VERTEX
10
-0.4902
20
-50.9203
0
VERTEX
10
-0.4995
20
-50.9090
0
VERTEX
10
-0.5095
20
-50.8976
0
VERTEX
10
-0.5201
20
-50.8862
0
VERTEX
10
-0.5312
20
-50.8748
0
VERTEX
10
-0.5425
20
-50.8634
0
VERTEX
10
-0.5538
20
-50.8521
0
VERTEX
10
-0.5649
20
-50.8407
0
VERTEX
10
-0.5758
20
-50.8293
0
VERTEX
10
-0.5861
20
-50.8179
0
VERTEX
10
-0.5958
20
-50.8065
0
VERTEX
10
-0.6046
20
-50.7952
0
VERTEX
10
-0.6125
20
-50.7838
0
VERTEX
10
-0.6192
20
-50.7724
0
VERTEX
10
-0.6247
20
-50.7610
0
VERTEX
10
-0.6289
20
-50.7496
0
VERTEX
10
-0.6318
20
-50.7383
0
VERTEX
10
-0.6331
20
-50.7269
0
VERTEX
10
-0.6331
20
-50.7155
0
VERTEX
10
-0.6315
20
-50.7041
0
VERTEX
10
-0.6286
20
-50.6928
0
VERTEX
10
-0.6242
20
-50.6814
0
VERTEX
10
-0.6186
20
-50.6700
0
VERTEX
10
-0.6117
20
-50.6586
0
VERTEX
10
-0.6037
20
-50.6472
0
VERTEX
10
-0.5947
20
-50.6359
0
VERTEX
10
-0.5849
20
-50.6245
0
VERTEX
10
-0.5744
20
-50.6131
0
VERTEX
10
-0.5634
20
-50.6017
0
VERTEX
10
-0.5521
20
-50.5903
0
VERTEX
10
-0.5406
20
-50.5790
0
VERTEX
10
-0.5292
20
-50.5676
0
VERTEX
10
-0.5180
20
-50.5562
0
VERTEX
10
-0.5073
20
-50.5448
0
VERTEX
10
-0.4971
20
-50.5334
0
VERTEX
10
-0.4877
20
-50.5221
0
VERTEX
10
-0.4792
20
-50.5107
0
VERTEX
10
-0.4717
20
-50.4993
0
VERTEX
10
-0.4654
20
-50.4879
0
VERTEX
10
-0.4604
20
-50.4765
0
VERTEX
10
-0.4567
20
-50.4652
0
VERTEX
10
-0.4545
20
-50.4538
0
VERTEX
10
-0.4537
20
-50.4424
0
VERTEX
10
0.4537
20
-50.4424
0
VERTEX
10
0.4545
20
-50.4538
0
VERTEX
10
0.4567
20
-50.4652
0
VERTEX
10
0.4604
20
-50.4765
0
VERTEX
10
0.4654
20
-50.4879
0
VERTEX
10
0.4717
20
-50.4993
0
VERTEX
10
0.4792
20
-50.5107
0
VERTEX
10
0.4877
20
-50.5221
0
VERTEX
10
0.4971
20
-50.5334
0
VERTEX
10
0.5073
20
-50.5448
0
VERTEX
10
0.5180
20
-50.5562
0
VERTEX
10
0.5292
20
-50.5676
0
VERTEX
10
0.5406
20
-50.5790
0
VERTEX
10
0.5521
20
-50.5903
0
VERTEX
10
0.5634
20
-50.6017
0
VERTEX
10
0.5744
20
-50.6131
0
VERTEX
10
0.5849
20
-50.6245
0
VERTEX
10
0.5947
20
-50.6359
0
VERTEX
10
0.6037
20
-50.6472
0
VERTEX
10
0.6117
20
-50.6586
0
VERTEX
10
0.6186
20
-50.6700
0
VERTEX
10
0.6242
20
-50.6814
0
VERTEX
10
0.6286
20
-50.6928
0
VERTEX
10
0.6315
20
-50.7041
0
VERTEX
10
0.6331
20
-50.7155
0
VERTEX
10
0.6331
20
-50.7269
0
VERTEX
10
0.6318
20
-50.7383
0
VERTEX
10
0.6289
20
-50.7496
0
VERTEX
10
0.6247
20
-50.7610
0
VERTEX
10
0.6192
20
-50.7724
0
VERTEX
10
0.6125
20
-50.7838
0
VERTEX
10
0.6046
20
-50.7952
0
VERTEX
10
0.5958
20
-50.8065
0
VERTEX
10
0.5861
20
-50.8179
0
VERTEX
10
0.5758
20
-50.8293
0
VERTEX
10
0.5649
20
-50.8407
0
VERTEX
10
0.5538
20
-50.8521
0
VERTEX
10
0.5425
20
-50.8634
0
VERTEX
10
0.5312
20
-50.8748
0
VERTEX
10
0.5201
20
-50.8862
0
VERTEX
10
0.5095
20
-50.8976
0
VERTEX
10
0.4995
20
-50.9090
0
VERTEX
10
0.4902
20
-50.9203
0
VERTEX
10
0.4819
20
-50.9317
0
VERTEX
10
0.4746
20
-50.9431
0
VERTEX
10
0.4684
20
-50.9545
0
VERTEX
10
0.4635
20
-50.9659
0
VERTEX
10
0.4600
20
-50.9772
0
VERTEX
10
0.4579
20
-50.9886
0
VERTEX
10
0.4573
20
-51.0000
0
SEQEND
0
POLYLINE
8
M1_Neg
70
1
0
VERTEX
10
-0.4537
20
-50.4424
0
VERTEX
10
-0.4542
20
-50.4310
0
VERTEX
10
-0.4559
20
-50.4196
0
VERTEX
10
-0.4589
20
-50.4083
0
VERTEX
10
-0.4631
20
-50.3969
0
VERTEX
10
-0.4684
20
-50.3855
0
VERTEX
10
-0.4747
20
-50.3741
0
VERTEX
10
-0.4820
20
-50.3627
0
VERTEX
10
-0.4900
20
-50.3514
0
VERTEX
10
-0.4987
20
-50.3400
0
VERTEX
10
-0.5079
20
-50.3286
0
VERTEX
10
-0.5175
20
-50.3172
0
VERTEX
10
-0.5272
20
-50.3058
0
VERTEX
10
-0.5371
20
-50.2945
0
VERTEX
10
-0.5467
20
-50.2831
0
VERTEX
10
-0.5562
20
-50.2717
0
VERTEX
10
-0.5651
20
-50.2603
0
VERTEX
10
-0.5735
20
-50.2489
0
VERTEX
10
-0.5812
20
-50.2376
0
VERTEX
10
-0.5879
20
-50.2262
0
VERTEX
10
-0.5938
20
-50.2148
0
VERTEX
10
-0.5985
20
-50.2034
0
VERTEX
10
-0.6021
20
-50.1920
0
VERTEX
10
-0.6045
20
-50.1807
0
VERTEX
10
-0.6056
20
-50.1693
0
VERTEX
10
-0.6055
20
-50.1579
0
VERTEX
10
-0.6040
20
-50.1465
0
VERTEX
10
-0.6014
20
-50.1352
0
VERTEX
10
-0.5975
20
-50.1238
0
VERTEX
10
-0.5924
20
-50.1124
0
VERTEX
10
-0.5863
20
-50.1010
0
VERTEX
10
-0.5793
20
-50.0896
0
VERTEX
10
-0.5713
20
-50.0783
0
VERTEX
10
-0.5626
20
-50.0669
0
VERTEX
10
-0.5534
20
-50.0555
0
VERTEX
10
-0.5437
20
-50.0441
0
VERTEX
10
-0.5337
20
-50.0327
0
VERTEX
10
-0.5236
20
-50.0214
0
VERTEX
10
-0.5135
20
-50.0100
0
VERTEX
10
-0.5037
20
-49.9986
0
VERTEX
10
-0.4942
20
-49.9872
0
VERTEX
10
-0.4852
20
-49.9758
0
VERTEX
10
-0.4768
20
-49.9645
0
VERTEX
10
-0.4693
20
-49.9531
0
VERTEX
10
-0.4627
20
-49.9417
0
VERTEX
10
-0.4571
20
-49.9303
0
VERTEX
10
-0.4527
20
-49.9189
0
VERTEX
10
-0.4494
20
-49.9076
0
VERTEX
10
-0.4473
20
-49.8962
0
VERTEX
10
-0.4465
20
-49.8848
0
VERTEX
10
0.4465
20
-49.8848
0
VERTEX
10
0.4473
20
-49.8962
0
VERTEX
10
0.4494
20
-49.9076
0
VERTEX
10
0.4527
20
-49.9189
0
VERTEX
10
0.4571
20
-49.9303
0
VERTEX
10
0.4627
20
-49.9417
0
VERTEX
10
0.4693
20
-49.9531
0
VERTEX
10
0.4768
20
-49.9645
0
VERTEX
10
0.4852
20
-49.9758
0
VERTEX
10
0.4942
20
-49.9872
0
VERTEX
10
0.5037
20
-49.9986
0
VERTEX
10
0.5135
20
-50.0100
0
VERTEX
10
0.5236
20
-50.0214
0
VERTEX
10
0.5337
20
-50.0327
0
VERTEX
10
0.5437
20
-50.0441
0
VERTEX
10
0.5534
20
-50.0555
0
VERTEX
10
0.5626
20
-50.0669
0
VERTEX
10
0.5713
20
-50.0783
0
VERTEX
10
0.5793
20
-50.0896
0
VERTEX
10
0.5863
20
-50.1010
0
VERTEX
10
0.5924
20
-50.1124
0
VERTEX
10
0.5975
20
-50.1238
0
VERTEX
10
0.6014
20
-50.1352
0
VERTEX
10
0.6040
20
-50.1465
0
VERTEX
10
0.6055
20
-50.1579
0
VERTEX
10
0.6056
20
-50.1693
0
VERTEX
10
0.6045
20
-50.1807
0
VERTEX
10
0.6021
20
-50.1920
0
VERTEX
10
0.5985
20
-50.2034
0
VERTEX
10
0.5938
20
-50.2148
0
VERTEX
10
0.5879
20
-50.2262
0
VERTEX
10
0.5812
20
-50.2376
0
VERTEX
10
0.5735
20
-50.2489
0
VERTEX
10
0.5651
20
-50.2603
0
VERTEX
10
0.5562
20
-50.2717
0
VERTEX
10
0.5467
20
-50.2831
0
VERTEX
10
0.5371
20
-50.2945
0
VERTEX
10
0.5272
20
-50.3058
0
VERTEX
10
0.5175
20
-50.3172
0
VERTEX
10
0.5079
20
-50.3286
0
VERTEX
10
0.4987
20
-50.3400
0
VERTEX
10
0.4900
20
-50.3514
0
VERTEX
10
0.4820
20
-50.3627
0
VERTEX
10
0.4747
20
-50.3741
0
VERTEX
10
0.4684
20
-50.3855
0
VERTEX
10
0.4631
20
-50.3969
0
VERTEX
10
0.4589
20
-50.4083
0
VERTEX
10
0.4559
20
-50.4196
0
VERTEX
10
0.4542
20
-50.4310
0
VERTEX
10
0.4537
20
-50.4424
0
SEQEND
0
POLYLINE
8
M1_Neg
70
1
0
VERTEX
10
-0.4465
20
-49.8848
0
VERTEX
10
-0.4469
20
-49.8734
0
VERTEX
10
-0.4484
20
-49.8620
0
VERTEX
10
-0.4510
20
-49.8507
0
VERTEX
10
-0.4545
20
-49.8393
0
VERTEX
10
-0.4590
20
-49.8279
0
VERTEX
10
-0.4644
20
-49.8165
0
VERTEX
10
-0.4706
20
-49.8051
0
VERTEX
10
-0.4775
20
-49.7938
0
VERTEX
10
-0.4849
20
-49.7824
0
VERTEX
10
-0.4928
20
-49.7710
0
VERTEX
10
-0.5010
20
-49.7596
0
VERTEX
10
-0.5093
20
-49.7482
0
VERTEX
10
-0.5177
20
-49.7369
0
VERTEX
10
-0.5260
20
-49.7255
0
VERTEX
10
-0.5340
20
-49.7141
0
VERTEX
10
-0.5417
20
-49.7027
0
VERTEX
10
-0.5489
20
-49.6913
0
VERTEX
10
-0.5554
20
-49.6800
0
VERTEX
10
-0.5612
20
-49.6686
0
VERTEX
10
-0.5662
20
-49.6572
0
VERTEX
10
-0.5702
20
-49.6458
0
VERTEX
10
-0.5733
20
-49.6344
0
VERTEX
10
-0.5753
20
-49.6231
0
VERTEX
10
-0.5763
20
-49.6117
0
VERTEX
10
-0.5761
20
-49.6003
0
VERTEX
10
-0.5749
20
-49.5889
0
VERTEX
10
-0.5726
20
-49.5776
0
VERTEX
10
-0.5692
20
-49.5662
0
VERTEX
10
-0.5649
20
-49.5548
0
VERTEX
10
-0.5596
20
-49.5434
0
VERTEX
10
-0.5535
20
-49.5320
0
VERTEX
10
-0.5467
20
-49.5207
0
VERTEX
10
-0.5392
20
-49.5093
0
VERTEX
10
-0.5313
20
-49.4979
0
VERTEX
10
-0.5229
20
-49.4865
0
VERTEX
10
-0.5144
20
-49.4751
0
VERTEX
10
-0.5057
20
-49.4638
0
VERTEX
10
-0.4970
20
-49.4524
0
VERTEX
10
-0.4885
20
-49.4410
0
VERTEX
10
-0.4804
20
-49.4296
0
VERTEX
10
-0.4727
20
-49.4182
0
VERTEX
10
-0.4655
20
-49.4069
0
VERTEX
10
-0.4590
20
-49.3955
0
VERTEX
10
-0.4533
20
-49.3841
0
VERTEX
10
-0.4485
20
-49.3727
0
VERTEX
10
-0.4447
20
-49.3613
0
VERTEX
10
-0.4418
20
-49.3500
0
VERTEX
10
-0.4401
20
-49.3386
0
VERTEX
10
-0.4394
20
-49.3272
0
VERTEX
10
0.4394
20
-49.3272
0
VERTEX
10
0.4401
20
-49.3386
0
VERTEX
10
0.4418
20
-49.3500
0
VERTEX
10
0.4447
20
-49.3613
0
VERTEX
10
0.4485
20
-49.3727
0
VERTEX
10
0.4533
20
-49.3841
0
VERTEX
10
0.4590
20
-49.3955
0
VERTEX
10
0.4655
20
-49.4069
0
VERTEX
10
0.4727
20
-49.4182
0
VERTEX
10
0.4804
20
-49.4296
0
VERTEX
10
0.4885
20
-49.4410
0
VERTEX
10
0.4970
20
-49.4524
0
VERTEX
10
0.5057
20
-49.4638
0
VERTEX
10
0.5144
20
-49.4751
0
VERTEX
10
0.5229
20
-49.4865
0
VERTEX
10
0.5313
20
-49.4979
0
VERTEX
10
0.5392
20
-49.5093
0
VERTEX
10
0.5467
20
-49.5207
0
VERTEX
10
0.5535
20
-49.5320
0
VERTEX
10
0.5596
20
-49.5434
0
VERTEX
10
0.5649
20
-49.5548
0
VERTEX
10
0.5692
20
-49.5662
0
VERTEX
10
0.5726
20
-49.5776
0
VERTEX
10
0.5749
20
-49.5889
0
VERTEX
10
0.5761
20
-49.6003
0
VERTEX
10
0.5763
20
-49.6117
0
VERTEX
10
0.5753
20
-49.6231
0
VERTEX
10
0.5733
20
-49.6344
0
VERTEX
10
0.5702
20
-49.6458
0
VERTEX
10
0.5662
20
-49.6572
0
VERTEX
10
0.5612
20
-49.6686
0
VERTEX
10
0.5554
20
-49.6800
0
VERTEX
10
0.5489
20
-49.6913
0
VERTEX
10
0.5417
20
-49.7027
0
VERTEX
10
0.5340
20
-49.7141
0
VERTEX
10
0.5260
20
-49.7255
0
VERTEX
10
0.5177
20
-49.7369
0
VERTEX
10
0.5093
20
-49.7482
0
VERTEX
10
0.5010
20
-49.7596
0
VERTEX
10
0.4928
20
-49.7710
0
VERTEX
10
0.4849
20
-49.7824
0
VERTEX
10
0.4775
20
-49.7938
0
VERTEX
10
0.4706
20
-49.8051
0
VERTEX
10
0.4644
20
-49.8165
0
VERTEX
10
0.4590
20
-49.8279
0
VERTEX
10
0.4545
20
-49.8393
0
VERTEX
10
0.4510
20
-49.8507
0
VERTEX
10
0.4484
20
-49.8620
0
VERTEX
10
0.4469
20
-49.8734
0
VERTEX
10
0.4465
20
-49.8848
0
SEQEND
0
POLYLINE
8
M1_Neg
70
1
0
VERTEX
10
-0.4394
20
-49.3272
0
VERTEX
10
-0.4397
20
-49.3158
0
VERTEX
10
-0.4409
20
-49.3044
0
VERTEX
10
-0.4430
20
-49.2931
0
VERTEX
10
-0.4459
20
-49.2817
0
VERTEX
10
-0.4497
20
-49.2703
0
VERTEX
10
-0.4541
20
-49.2589
0
VERTEX
10
-0.4593
20
-49.2475
0
VERTEX
10
-0.4650
20
-49.2362
0
VERTEX
10
-0.4711
20
-49.2248
0
VERTEX
10
-0.4777
20
-49.2134
0
VERTEX
10
-0.4845
20
-49.2020
0
VERTEX
10
-0.4914
20
-49.1906
0
VERTEX
10
-0.4984
20
-49.1793
0
VERTEX
10
-0.5053
20
-49.1679
0
VERTEX
10
-0.5119
20
-49.1565
0
VERTEX
10
-0.5183
20
-49.1451
0
VERTEX
10
-0.5242
20
-49.1337
0
VERTEX
10
-0.5297
20
-49.1224
0
VERTEX
10
-0.5345
20
-49.1110
0
VERTEX
10
-0.5386
20
-49.0996
0
VERTEX
10
-0.5419
20
-49.0882
0
VERTEX
10
-0.5445
20
-49.0768
0
VERTEX
10
-0.5461
20
-49.0655
0
VERTEX
10
-0.5469
20
-49.0541
0
VERTEX
10
-0.5467
20
-49.0427
0
VERTEX
10
-0.5457
20
-49.0313
0
VERTEX
10
-0.5437
20
-49.0200
0
VERTEX
10
-0.5409
20
-49.0086
0
VERTEX
10
-0.5373
20
-48.9972
0
VERTEX
10
-0.5329
20
-48.9858
0
VERTEX
10
-0.5278
20
-48.9744
0
VERTEX
10
-0.5221
20
-48.9631
0
VERTEX
10
-0.5158
20
-48.9517
0
VERTEX
10
-0.5092
20
-48.9403
0
VERTEX
10
-0.5022
20
-48.9289
0
VERTEX
10
-0.4950
20
-48.9175
0
VERTEX
10
-0.4878
20
-48.9062
0
VERTEX
10
-0.4805
20
-48.8948
0
VERTEX
10
-0.4734
20
-48.8834
0
VERTEX
10
-0.4666
20
-48.8720
0
VERTEX
10
-0.4601
20
-48.8606
0
VERTEX
10
-0.4542
20
-48.8493
0
VERTEX
10
-0.4487
20
-48.8379
0
VERTEX
10
-0.4440
20
-48.8265
0
VERTEX
10
-0.4399
20
-48.8151
0
VERTEX
10
-0.4367
20
-48.8037
0
VERTEX
10
-0.4343
20
-48.7924
0
VERTEX
10
-0.4328
20
-48.7810
0
VERTEX
10
-0.4322
20
-48.7696
0
VERTEX
10
0.4322
20
-48.7696
0
VERTEX
10
0.4328
20
-48.7810
0
VERTEX
10
0.4343
20
-48.7924
0
VERTEX
10
0.4367
20
-48.8037
0
VERTEX
10
0.4399
20
-48.8151
0
VERTEX
10
0.4440
20
-48.8265
0
VERTEX
10
0.4487
20
-48.8379
0
VERTEX
10
0.4542
20
-48.8493
0
VERTEX
10
0.4601
20
-48.8606
0
VERTEX
10
0.4666
20
-48.8720
0
VERTEX
10
0.4734
20
-48.8834
0
VERTEX
10
0.4805
20
-48.8948
0
VERTEX
10
0.4878
20
-48.9062
0
VERTEX
10
0.4950
20
-48.9175
0
VERTEX
10
0.5022
20
-48.9289
0
VERTEX
10
0.5092
20
-48.9403
0
VERTEX
10
0.5158
20
-48.9517
0
VERTEX
10
0.5221
20
-48.9631
0
VERTEX
10
0.5278
20
-48.9744
0
VERTEX
10
0.5329
20
-48.9858
0
VERTEX
10
0.5373
20
-48.9972
0
VERTEX
10
0.5409
20
-49.0086
0
VERTEX
10
0.5437
20
-49.0200
0
VERTEX
10
0.5457
20
-49.0313
0
VERTEX
10
0.5467
20
-49.0427
0
VERTEX
10
0.5469
20
-49.0541
0
VERTEX
10
0.5461
20
-49.0655
0
VERTEX
10
0.5445
20
-49.0768
0
VERTEX
10
0.5419
20
-49.0882
0
VERTEX
10
0.5386
20
-49.0996
0
VERTEX
10
0.5345
20
-49.1110
0
VERTEX
10
0.5297
20
-49.1224
0
VERTEX
10
0.5242
20
-49.1337
0
VERTEX
10
0.5183
20
-49.1451
0
VERTEX
10
0.5119
20
-49.1565
0
VERTEX
10
0.5053
20
-49.1679
0
VERTEX
10
0.4984
20
-49.1793
0
VERTEX
10
0.4914
20
-49.1906
0
VERTEX
10
0.4845
20
-49.2020
0
VERTEX
10
0.4777
20
-49.2134
0
VERTEX
10
0.4711
20
-49.2248
0
VERTEX
10
0.4650
20
-49.2362
0
VERTEX
10
0.4593
20
-49.2475
0
VERTEX
10
0.4541
20
-49.2589
0
VERTEX
10
0.4497
20
-49.2703
0
VERTEX
10
0.4459
20
-49.2817
0
VERTEX
10
0.4430
20
-49.2931
0
VERTEX
10
0.4409
20
-49.3044
0
VERTEX
10
0.4397
20
-49.3158
0
VERTEX
10
0.4394
20
-49.3272
0
SEQEND
0
POLYLINE
8
M1_Neg
70
1
0
VERTEX
10
-0.4322
20
-48.7696
0
VERTEX
10
-0.4324
20
-48.7582
0
VERTEX
10
-0.4334
20
-48.7468
0
VERTEX
10
-0.4350
20
-48.7355
0
VERTEX
10
-0.4373
20
-48.7241
0
VERTEX
10
-0.4403
20
-48.7127
0
VERTEX
10
-0.4439
20
-48.7013
0
VERTEX
10
-0.4479
20
-48.6899
0
VERTEX
10
-0.4525
20
-48.6786
0
VERTEX
10
-0.4574
20
-48.6672
0
VERTEX
10
-0.4626
20
-48.6558
0
VERTEX
10
-0.4680
20
-48.6444
0
VERTEX
10
-0.4735
20
-48.6330
0
VERTEX
10
-0.4790
20
-48.6217
0
VERTEX
10
-0.4845
20
-48.6103
0
VERTEX
10
-0.4898
20
-48.5989
0
VERTEX
10
-0.4949
20
-48.5875
0
VERTEX
10
-0.4996
20
-48.5761
0
VERTEX
10
-0.5039
20
-48.5648
0
VERTEX
10
-0.5077
20
-48.5534
0
VERTEX
10
-0.5110
20
-48.5420
0
VERTEX
10
-0.5137
20
-48.5306
0
VERTEX
10
-0.5156
20
-48.5192
0
VERTEX
10
-0.5169
20
-48.5079
0
VERTEX
10
-0.5175
20
-48.4965
0
VERTEX
10
-0.5174
20
-48.4851
0
VERTEX
10
-0.5165
20
-48.4737
0
VERTEX
10
-0.5149
20
-48.4624
0
VERTEX
10
-0.5126
20
-48.4510
0
VERTEX
10
-0.5097
20
-48.4396
0
VERTEX
10
-0.5061
20
-48.4282
0
VERTEX
10
-0.5020
20
-48.4168
0
VERTEX
10
-0.4974
20
-48.4055
0
VERTEX
10
-0.4924
20
-48.3941
0
VERTEX
10
-0.4871
20
-48.3827
0
VERTEX
10
-0.4814
20
-48.3713
0
VERTEX
10
-0.4757
20
-48.3599
0
VERTEX
10
-0.4698
20
-48.3486
0
VERTEX
10
-0.4640
20
-48.3372
0
VERTEX
10
-0.4583
20
-48.3258
0
VERTEX
10
-0.4528
20
-48.3144
0
VERTEX
10
-0.4476
20
-48.3030
0
VERTEX
10
-0.4428
20
-48.2917
0
VERTEX
10
-0.4385
20
-48.2803
0
VERTEX
10
-0.4346
20
-48.2689
0
VERTEX
10
-0.4314
20
-48.2575
0
VERTEX
10
-0.4287
20
-48.2461
0
VERTEX
10
-0.4268
20
-48.2348
0
VERTEX
10
-0.4256
20
-48.2234
0
VERTEX
10
-0.4251
20
-48.2120
0
VERTEX
10
0.4251
20
-48.2120
0
VERTEX
10
0.4256
20
-48.2234
0
VERTEX
10
0.4268
20
-48.2348
0
VERTEX
10
0.4287
20
-48.2461
0
VERTEX
10
0.4314
20
-48.2575
0
VERTEX
10
0.4346
20
-48.2689
0
VERTEX
10
0.4385
20
-48.2803
0
VERTEX
10
0.4428
20
-48.2917
0
VERTEX
10
0.4476
20
-48.3030
0
VERTEX
10
0.4528
20
-48.3144
0
VERTEX
10
0.4583
20
-48.3258
0
VERTEX
10
0.4640
20
-48.3372
0
VERTEX
10
0.4698
20
-48.3486
0
VERTEX
10
0.4757
20
-48.3599
0
VERTEX
10
0.4814
20
-48.3713
0
VERTEX
10
0.4871
20
-48.3827
0
VERTEX
10
0.4924
20
-48.3941
0
VERTEX
10
0.4974
20
-48.4055
0
VERTEX
10
0.5020
20
-48.4168
0
VERTEX
10
0.5061
20
-48.4282
0
VERTEX
10
0.5097
20
-48.4396
0
VERTEX
10
0.5126
20
-48.4510
0
VERTEX
10
0.5149
20
-48.4624
0
VERTEX
10
0.5165
20
-48.4737
0
VERTEX
10
0.5174
20
-48.4851
0
VERTEX
10
0.5175
20
-48.4965
0
VERTEX
10
0.5169
20
-48.5079
0
VERTEX
10
0.5156
20
-48.5192
0
VERTEX
10
0.5137
20
-48.5306
0
VERTEX
10
0.5110
20
-48.5420
0
VERTEX
10
0.5077
20
-48.5534
0
VERTEX
10
0.5039
20
-48.5648
0
VERTEX
10
0.4996
20
-48.5761
0
VERTEX
10
0.4949
20
-48.5875
0
VERTEX
10
0.4898
20
-48.5989
0
VERTEX
10
0.4845
20
-48.6103
0
VERTEX
10
0.4790
20
-48.6217
0
VERTEX
10
0.4735
20
-48.6330
0
VERTEX
10
0.4680
20
-48.6444
0
VERTEX
10
0.4626
20
-48.6558
0
VERTEX
10
0.4574
20
-48.6672
0
VERTEX
10
0.4525
20
-48.6786
0
VERTEX
10
0.4479
20
-48.6899
0
VERTEX
10
0.4439
20
-48.7013
0
VERTEX
10
0.4403
20
-48.7127
0
VERTEX
10
0.4373
20
-48.7241
0
VERTEX
10
0.4350
20
-48.7355
0
VERTEX
10
0.4334
20
-48.7468
0
VERTEX
10
0.4324
20
-48.7582
0
VERTEX
10
0.4322
20
-48.7696
0
SEQEND
0
POLYLINE
8
M1_Neg
70
1
0
VERTEX
10
-0.4251
20
-48.2120
0
VERTEX
10
-0.4252
20
-48.2006
0
VERTEX
10
-0.4259
20
-48.1892
0
VERTEX
10
-0.4271
20
-48.1779
0
VERTEX
10
-0.4288
20
-48.1665
0
VERTEX
10
-0.4309
20
-48.1551
0
VERTEX
10
-0.4336
20
-48.1437
0
VERTEX
10
-0.4366
20
-48.1323
0
VERTEX
10
-0.4399
20
-48.1210
0
VERTEX
10
-0.4436
20
-48.1096
0
VERTEX
10
-0.4474
20
-48.0982
0
VERTEX
10
-0.4515
20
-48.0868
0
VERTEX
10
-0.4556
20
-48.0754
0
VERTEX
10
-0.4597
20
-48.0641
0
VERTEX
10
-0.4638
20
-48.0527
0
VERTEX
10
-0.4677
20
-48.0413
0
VERTEX
10
-0.4715
20
-48.0299
0
VERTEX
10
-0.4750
20
-48.0185
0
VERTEX
10
-0.4782
20
-48.0072
0
VERTEX
10
-0.4810
20
-47.9958
0
VERTEX
10
-0.4834
20
-47.9844
0
VERTEX
10
-0.4854
20
-47.9730
0
VERTEX
10
-0.4868
20
-47.9616
0
VERTEX
10
-0.4878
20
-47.9503
0
VERTEX
10
-0.4882
20
-47.9389
0
VERTEX
10
-0.4880
20
-47.9275
0
VERTEX
10
-0.4873
20
-47.9161
0
VERTEX
10
-0.4861
20
-47.9048
0
VERTEX
10
-0.4843
20
-47.8934
0
VERTEX
10
-0.4821
20
-47.8820
0
VERTEX
10
-0.4794
20
-47.8706
0
VERTEX
10
-0.4763
20
-47.8592
0
VERTEX
10
-0.4728
20
-47.8479
0
VERTEX
10
-0.4690
20
-47.8365
0
VERTEX
10
-0.4649
20
-47.8251
0
VERTEX
10
-0.4607
20
-47.8137
0
VERTEX
10
-0.4563
20
-47.8023
0
VERTEX
10
-0.4519
20
-47.7910
0
VERTEX
10
-0.4475
20
-47.7796
0
VERTEX
10
-0.4432
20
-47.7682
0
VERTEX
10
-0.4391
20
-47.7568
0
VERTEX
10
-0.4351
20
-47.7454
0
VERTEX
10
-0.4315
20
-47.7341
0
VERTEX
10
-0.4282
20
-47.7227
0
VERTEX
10
-0.4252
20
-47.7113
0
VERTEX
10
-0.4228
20
-47.6999
0
VERTEX
10
-0.4208
20
-47.6885
0
VERTEX
10
-0.4193
20
-47.6772
0
VERTEX
10
-0.4183
20
-47.6658
0
VERTEX
10
-0.4179
20
-47.6544
0
VERTEX
10
0.4179
20
-47.6544
0
VERTEX
10
0.4183
20
-47.6658
0
VERTEX
10
0.4193
20
-47.6772
0
VERTEX
10
0.4208
20
-47.6885
0
VERTEX
10
0.4228
20
-47.6999
0
VERTEX
10
0.4252
20
-47.7113
0
VERTEX
10
0.4282
20
-47.7227
0
VERTEX
10
0.4315
20
-47.7341
0
VERTEX
10
0.4351
20
-47.7454
0
VERTEX
10
0.4391
20
-47.7568
0
VERTEX
10
0.4432
20
-47.7682
0
VERTEX
10
0.4475
20
-47.7796
0
VERTEX
10
0.4519
20
-47.7910
0
VERTEX
10
0.4563
20
-47.8023
0
VERTEX
10
0.4607
20
-47.8137
0
VERTEX
10
0.4649
20
-47.8251
0
VERTEX
10
0.4690
20
-47.8365
0
VERTEX
10
0.4728
20
-47.8479
0
VERTEX
10
0.4763
20
-47.8592
0
VERTEX
10
0.4794
20
-47.8706
0
VERTEX
10
0.4821
20
-47.8820
0
VERTEX
10
0.4843
20
-47.8934
0
VERTEX
10
0.4861
20
-47.9048
0
VERTEX
10
0.4873
20
-47.9161
0
VERTEX
10
0.4880
20
-47.9275
0
VERTEX
10
0.4882
20
-47.9389
0
VERTEX
10
0.4878
20
-47.9503
0
VERTEX
10
0.4868
20
-47.9616
0
VERTEX
10
0.4854
20
-47.9730
0
VERTEX
10
0.4834
20
-47.9844
0
VERTEX
10
0.4810
20
-47.9958
0
VERTEX
10
0.4782
20
-48.0072
0
VERTEX
10
0.4750
20
-48.0185
0
VERTEX
10
0.4715
20
-48.0299
0
VERTEX
10
0.4677
20
-48.0413
0
VERTEX
10
0.4638
20
-48.0527
0
VERTEX
10
0.4597
20
-48.0641
0
VERTEX
10
0.4556
20
-48.0754
0
VERTEX
10
0.4515
20
-48.0868
0
VERTEX
10
0.4474
20
-48.0982
0
VERTEX
10
0.4436
20
-48.1096
0
VERTEX
10
0.4399
20
-48.1210
0
VERTEX
10
0.4366
20
-48.1323
0
VERTEX
10
0.4336
20
-48.1437
0
VERTEX
10
0.4309
20
-48.1551
0
VERTEX
10
0.4288
20
-48.1665
0
VERTEX
10
0.4271
20
-48.1779
0
VERTEX
10
0.4259
20
-48.1892
0
VERTEX
10
0.4252
20
-48.2006
0
VERTEX
10
0.4251
20
-48.2120
0
SEQEND
0
POLYLINE
8
M1_Neg
70
1
0
VERTEX
10
-0.4179
20
-47.6544
0
VERTEX
10
-0.4179
20
-47.6430
0
VERTEX
10
-0.4183
20
-47.6316
0
VERTEX
10
-0.4191
20
-47.6203
0
VERTEX
10
-0.4202
20
-47.6089
0
VERTEX
10
-0.4216
20
-47.5975
0
VERTEX
10
-0.4233
20
-47.5861
0
VERTEX
10
-0.4252
20
-47.5747
0
VERTEX
10
-0.4274
20
-47.5634
0
VERTEX
10
-0.4298
20
-47.5520
0
VERTEX
10
-0.4323
20
-47.5406
0
VERTEX
10
-0.4350
20
-47.5292
0
VERTEX
10
-0.4377
20
-47.5178
0
VERTEX
10
-0.4404
20
-47.5065
0
VERTEX
10
-0.4430
20
-47.4951
0
VERTEX
10
-0.4456
20
-47.4837
0
VERTEX
10
-0.4481
20
-47.4723
0
VERTEX
10
-0.4504
20
-47.4609
0
VERTEX
10
-0.4524
20
-47.4496
0
VERTEX
10
-0.4543
20
-47.4382
0
VERTEX
10
-0.4558
20
-47.4268
0
VERTEX
10
-0.4571
20
-47.4154
0
VERTEX
10
-0.4580
20
-47.4040
0
VERTEX
10
-0.4586
20
-47.3927
0
VERTEX
10
-0.4588
20
-47.3813
0
VERTEX
10
-0.4587
20
-47.3699
0
VERTEX
10
-0.4581
20
-47.3585
0
VERTEX
10
-0.4573
20
-47.3472
0
VERTEX
10
-0.4561
20
-47.3358
0
VERTEX
10
-0.4545
20
-47.3244
0
VERTEX
10
-0.4527
20
-47.3130
0
VERTEX
10
-0.4505
20
-47.3016
0
VERTEX
10
-0.4482
20
-47.2903
0
VERTEX
10
-0.4456
20
-47.2789
0
VERTEX
10
-0.4428
20
-47.2675
0
VERTEX
10
-0.4400
20
-47.2561
0
VERTEX
10
-0.4370
20
-47.2447
0
VERTEX
10
-0.4340
20
-47.2334
0
VERTEX
10
-0.4310
20
-47.2220
0
VERTEX
10
-0.4281
20
-47.2106
0
VERTEX
10
-0.4253
20
-47.1992
0
VERTEX
10
-0.4226
20
-47.1878
0
VERTEX
10
-0.4201
20
-47.1765
0
VERTEX
10
-0.4179
20
-47.1651
0
VERTEX
10
-0.4159
20
-47.1537
0
VERTEX
10
-0.4142
20
-47.1423
0
VERTEX
10
-0.4128
20
-47.1309
0
VERTEX
10
-0.4118
20
-47.1196
0
VERTEX
10
-0.4111
20
-47.1082
0
VERTEX
10
-0.4107
20
-47.0968
0
VERTEX
10
0.4107
20
-47.0968
0
VERTEX
10
0.4111
20
-47.1082
0
VERTEX
10
0.4118
20
-47.1196
0
VERTEX
10
0.4128
20
-47.1309
0
VERTEX
10
0.4142
20
-47.1423
0
VERTEX
10
0.4159
20
-47.1537
0
VERTEX
10
0.4179
20
-47.1651
0
VERTEX
10
0.4201
20
-47.1765
0
VERTEX
10
0.4226
20
-47.1878
0
VERTEX
10
0.4253
20
-47.1992
0
VERTEX
10
0.4281
20
-47.2106
0
VERTEX
10
0.4310
20
-47.2220
0
VERTEX
10
0.4340
20
-47.2334
0
VERTEX
10
0.4370
20
-47.2447
0
VERTEX
10
0.4400
20
-47.2561
0
VERTEX
10
0.4428
20
-47.2675
0
VERTEX
10
0.4456
20
-47.2789
0
VERTEX
10
0.4482
20
-47.2903
0
VERTEX
10
0.4505
20
-47.3016
0
VERTEX
10
0.4527
20
-47.3130
0
VERTEX
10
0.4545
20
-47.3244
0
VERTEX
10
0.4561
20
-47.3358
0
VERTEX
10
0.4573
20
-47.3472
0
VERTEX
10
0.4581
20
-47.3585
0
VERTEX
10
0.4587
20
-47.3699
0
VERTEX
10
0.4588
20
-47.3813
0
VERTEX
10
0.4586
20
-47.3927
0
VERTEX
10
0.4580
20
-47.4040
0
VERTEX
10
0.4571
20
-47.4154
0
VERTEX
10
0.4558
20
-47.4268
0
VERTEX
10
0.4543
20
-47.4382
0
VERTEX
10
0.4524
20
-47.4496
0
VERTEX
10
0.4504
20
-47.4609
0
VERTEX
10
0.4481
20
-47.4723
0
VERTEX
10
0.4456
20
-47.4837
0
VERTEX
10
0.4430
20
-47.4951
0
VERTEX
10
0.4404
20
-47.5065
0
VERTEX
10
0.4377
20
-47.5178
0
VERTEX
10
0.4350
20
-47.5292
0
VERTEX
10
0.4323
20
-47.5406
0
VERTEX
10
0.4298
20
-47.5520
0
VERTEX
10
0.4274
20
-47.5634
0
VERTEX
10
0.4252
20
-47.5747
0
VERTEX
10
0.4233
20
-47.5861
0
VERTEX
10
0.4216
20
-47.5975
0
VERTEX
10
0.4202
20
-47.6089
0
VERTEX
10
0.4191
20
-47.6203
0
VERTEX
10
0.4183
20
-47.6316
0
VERTEX
10
0.4179
20
-47.6430
0
VERTEX
10
0.4179
20
-47.6544
0
SEQEND
0
POLYLINE
8
M1_Neg
70
1
0
VERTEX
10
-0.4107
20
-47.0968
0
VERTEX
10
-0.4108
20
-47.0854
0
VERTEX
10
-0.4110
20
-47.0740
0
VERTEX
10
-0.4113
20
-47.0627
0
VERTEX
10
-0.4119
20
-47.0513
0
VERTEX
10
-0.4126
20
-47.0399
0
VERTEX
10
-0.4134
20
-47.0285
0
VERTEX
10
-0.4144
20
-47.0171
0
VERTEX
10
-0.4155
20
-47.0058
0
VERTEX
10
-0.4167
20
-46.9944
0
VERTEX
10
-0.4180
20
-46.9830
0
VERTEX
10
-0.4193
20
-46.9716
0
VERTEX
10
-0.4206
20
-46.9602
0
VERTEX
10
-0.4220
20
-46.9489
0
VERTEX
10
-0.4233
20
-46.9375
0
VERTEX
10
-0.4246
20
-46.9261
0
VERTEX
10
-0.4258
20
-46.9147
0
VERTEX
10
-0.4270
20
-46.9033
0
VERTEX
10
-0.4280
20
-46.8920
0
VERTEX
10
-0.4289
20
-46.8806
0
VERTEX
10
-0.4297
20
-46.8692
0
VERTEX
10
-0.4303
20
-46.8578
0
VERTEX
10
-0.4308
20
-46.8464
0
VERTEX
10
-0.4311
20
-46.8351
0
VERTEX
10
-0.4312
20
-46.8237
0
VERTEX
10
-0.4311
20
-46.8123
0
VERTEX
10
-0.4309
20
-46.8009
0
VERTEX
10
-0.4304
20
-46.7896
0
VERTEX
10
-0.4298
20
-46.7782
0
VERTEX
10
-0.4290
20
-46.7668
0
VERTEX
10
-0.4281
20
-46.7554
0
VERTEX
10
-0.4271
20
-46.7440
0
VERTEX
10
-0.4259
20
-46.7327
0
VERTEX
10
-0.4246
20
-46.7213
0
VERTEX
10
-0.4232
20
-46.7099
0
VERTEX
10
-0.4218
20
-46.6985
0
VERTEX
10
-0.4203
20
-46.6871
0
VERTEX
10
-0.4188
20
-46.6758
0
VERTEX
10
-0.4173
20
-46.6644
0
VERTEX
10
-0.4158
20
-46.6530
0
VERTEX
10
-0.4144
20
-46.6416
0
VERTEX
10
-0.4131
20
-46.6302
0
VERTEX
10
-0.4119
20
-46.6189
0
VERTEX
10
-0.4107
20
-46.6075
0
VERTEX
10
-0.4097
20
-46.5961
0
VERTEX
10
-0.4089
20
-46.5847
0
VERTEX
10
-0.4082
20
-46.5733
0
VERTEX
10
-0.4077
20
-46.5620
0
VERTEX
10
-0.4073
20
-46.5506
0
VERTEX
10
-0.4072
20
-46.5392
0
VERTEX
10
0.4072
20
-46.5392
0
VERTEX
10
0.4073
20
-46.5506
0
VERTEX
10
0.4077
20
-46.5620
0
VERTEX
10
0.4082
20
-46.5733
0
VERTEX
10
0.4089
20
-46.5847
0
VERTEX
10
0.4097
20
-46.5961
0
VERTEX
10
0.4107
20
-46.6075
0
VERTEX
10
0.4119
20
-46.6189
0
VERTEX
10
0.4131
20
-46.6302
0
VERTEX
10
0.4144
20
-46.6416
0
VERTEX
10
0.4158
20
-46.6530
0
VERTEX
10
0.4173
20
-46.6644
0
VERTEX
10
0.4188
20
-46.6758
0
VERTEX
10
0.4203
20
-46.6871
0
VERTEX
10
0.4218
20
-46.6985
0
VERTEX
10
0.4232
20
-46.7099
0
VERTEX
10
0.4246
20
-46.7213
0
VERTEX
10
0.4259
20
-46.7327
0
VERTEX
10
0.4271
20
-46.7440
0
VERTEX
10
0.4281
20
-46.7554
0
VERTEX
10
0.4290
20
-46.7668
0
VERTEX
10
0.4298
20
-46.7782
0
VERTEX
10
0.4304
20
-46.7896
0
VERTEX
10
0.4309
20
-46.8009
0
VERTEX
10
0.4311
20
-46.8123
0
VERTEX
10
0.4312
20
-46.8237
0
VERTEX
10
0.4311
20
-46.8351
0
VERTEX
10
0.4308
20
-46.8464
0
VERTEX
10
0.4303
20
-46.8578
0
VERTEX
10
0.4297
20
-46.8692
0
VERTEX
10
0.4289
20
-46.8806
0
VERTEX
10
0.4280
20
-46.8920
0
VERTEX
10
0.4270
20
-46.9033
0
VERTEX
10
0.4258
20
-46.9147
0
VERTEX
10
0.4246
20
-46.9261
0
VERTEX
10
0.4233
20
-46.9375
0
VERTEX
10
0.4220
20
-46.9489
0
VERTEX
10
0.4206
20
-46.9602
0
VERTEX
10
0.4193
20
-46.9716
0
VERTEX
10
0.4180
20
-46.9830
0
VERTEX
10
0.4167
20
-46.9944
0
VERTEX
10
0.4155
20
-47.0058
0
VERTEX
10
0.4144
20
-47.0171
0
VERTEX
10
0.4134
20
-47.0285
0
VERTEX
10
0.4126
20
-47.0399
0
VERTEX
10
0.4119
20
-47.0513
0
VERTEX
10
0.4113
20
-47.0627
0
VERTEX
10
0.4110
20
-47.0740
0
VERTEX
10
0.4108
20
-47.0854
0
VERTEX
10
0.4107
20
-47.0968
0
SEQEND
0
ELLIPSE
100
AcDbEntity
8
M1_Pos_holes
100
AcDbEllipse
10
0.0000
20
-60.7580
30
0.0000
11
-0.4609
21
0.0000
31
0.0000
40
0.3807
41
0.0000
42
6.283185307179586
0
ELLIPSE
100
AcDbEntity
8
M1_Pos_holes
100
AcDbEllipse
10
0.0000
20
-60.2004
30
0.0000
11
-0.4609
21
0.0000
31
0.0000
40
0.3807
41
0.0000
42
6.283185307179586
0
ELLIPSE
100
AcDbEntity
8
M1_Pos_holes
100
AcDbEllipse
10
0.0000
20
-59.6428
30
0.0000
11
-0.4609
21
0.0000
31
0.0000
40
0.3807
41
0.0000
42
6.283185307179586
0
ELLIPSE
100
AcDbEntity
8
M1_Pos_holes
100
AcDbEllipse
10
0.0000
20
-59.0852
30
0.0000
11
-0.4609
21
0.0000
31
0.0000
40
0.3807
41
0.0000
42
6.283185307179586
0
ELLIPSE
100
AcDbEntity
8
M1_Pos_holes
100
AcDbEllipse
10
0.0000
20
-58.5276
30
0.0000
11
-0.4609
21
0.0000
31
0.0000
40
0.3807
41
0.0000
42
6.283185307179586
0
ELLIPSE
100
AcDbEntity
8
M1_Pos_holes
100
AcDbEllipse
10
0.0000
20
-57.9700
30
0.0000
11
-0.4609
21
0.0000
31
0.0000
40
0.3807
41
0.0000
42
6.283185307179586
0
ELLIPSE
100
AcDbEntity
8
M1_Pos_holes
100
AcDbEllipse
10
0.0000
20
-57.4124
30
0.0000
11
-0.4609
21
0.0000
31
0.0000
40
0.3807
41
0.0000
42
6.283185307179586
0
ELLIPSE
100
AcDbEntity
8
M1_Pos_holes
100
AcDbEllipse
10
0.0000
20
-56.8548
30
0.0000
11
-0.4609
21
0.0000
31
0.0000
40
0.3807
41
0.0000
42
6.283185307179586
0
ELLIPSE
100
AcDbEntity
8
M1_Pos_holes
100
AcDbEllipse
10
0.0000
20
-56.2972
30
0.0000
11
-0.4609
21
0.0000
31
0.0000
40
0.3807
41
0.0000
42
6.283185307179586
0
ELLIPSE
100
AcDbEntity
8
M1_Pos_holes
100
AcDbEllipse
10
0.0000
20
-55.7396
30
0.0000
11
-0.4609
21
0.0000
31
0.0000
40
0.3807
41
0.0000
42
6.283185307179586
0
ELLIPSE
100
AcDbEntity
8
M1_Pos_holes
100
AcDbEllipse
10
0.0000
20
-55.1820
30
0.0000
11
-0.4609
21
0.0000
31
0.0000
40
0.3807
41
0.0000
42
6.283185307179586
0
ELLIPSE
100
AcDbEntity
8
M1_Pos_holes
100
AcDbEllipse
10
0.0000
20
-54.6244
30
0.0000
11
-0.4609
21
0.0000
31
0.0000
40
0.3807
41
0.0000
42
6.283185307179586
0
ELLIPSE
100
AcDbEntity
8
M1_Pos_holes
100
AcDbEllipse
10
0.0000
20
-54.0668
30
0.0000
11
-0.4609
21
0.0000
31
0.0000
40
0.3807
41
0.0000
42
6.283185307179586
0
ELLIPSE
100
AcDbEntity
8
M1_Pos_holes
100
AcDbEllipse
10
0.0000
20
-53.5092
30
0.0000
11
-0.4609
21
0.0000
31
0.0000
40
0.3807
41
0.0000
42
6.283185307179586
0
ELLIPSE
100
AcDbEntity
8
M1_Pos_holes
100
AcDbEllipse
10
0.0000
20
-52.9516
30
0.0000
11
-0.4609
21
0.0000
31
0.0000
40
0.3807
41
0.0000
42
6.283185307179586
0
ELLIPSE
100
AcDbEntity
8
M1_Pos_holes
100
AcDbEllipse
10
0.0000
20
-52.3940
30
0.0000
11
-0.4609
21
0.0000
31
0.0000
40
0.3807
41
0.0000
42
6.283185307179586
0
ELLIPSE
100
AcDbEntity
8
M1_Pos_holes
100
AcDbEllipse
10
0.0000
20
-51.8364
30
0.0000
11
-0.4609
21
0.0000
31
0.0000
40
0.3807
41
0.0000
42
6.283185307179586
0
ELLIPSE
100
AcDbEntity
8
M1_Pos_holes
100
AcDbEllipse
10
0.0000
20
-51.2788
30
0.0000
11
-0.4609
21
0.0000
31
0.0000
40
0.3807
41
0.0000
42
6.283185307179586
0
ELLIPSE
100
AcDbEntity
8
M1_Pos_holes
100
AcDbEllipse
10
0.0000
20
-50.7212
30
0.0000
11
-0.4609
21
0.0000
31
0.0000
40
0.3807
41
0.0000
42
6.283185307179586
0
ELLIPSE
100
AcDbEntity
8
M1_Pos_holes
100
AcDbEllipse
10
0.0000
20
-50.1636
30
0.0000
11
-0.4033
21
0.0000
31
0.0000
40
0.3807
41
0.0000
42
6.283185307179586
0
ELLIPSE
100
AcDbEntity
8
M1_Pos_holes
100
AcDbEllipse
10
0.0000
20
-49.6060
30
0.0000
11
-0.3457
21
0.0000
31
0.0000
40
0.3807
41
0.0000
42
6.283185307179586
0
ELLIPSE
100
AcDbEntity
8
M1_Pos_holes
100
AcDbEllipse
10
0.0000
20
-49.0484
30
0.0000
11
-0.2881
21
0.0000
31
0.0000
40
0.3807
41
0.0000
42
6.283185307179586
0
ELLIPSE
100
AcDbEntity
8
M1_Pos_holes
100
AcDbEllipse
10
0.0000
20
-48.4908
30
0.0000
11
-0.2305
21
0.0000
31
0.0000
40
0.3807
41
0.0000
42
6.283185307179586
0
ELLIPSE
100
AcDbEntity
8
M1_Pos_holes
100
AcDbEllipse
10
0.0000
20
-47.9332
30
0.0000
11
-0.1729
21
0.0000
31
0.0000
40
0.3807
41
0.0000
42
6.283185307179586
0
ELLIPSE
100
AcDbEntity
8
M1_Pos_holes
100
AcDbEllipse
10
0.0000
20
-47.3756
30
0.0000
11
-0.1152
21
0.0000
31
0.0000
40
0.3807
41
0.0000
42
6.283185307179586
0
ELLIPSE
100
AcDbEntity
8
M1_Pos_holes
100
AcDbEllipse
10
0.0000
20
-46.8180
30
0.0000
11
-0.0576
21
0.0000
31
0.0000
40
0.3807
41
0.0000
42
6.283185307179586
0
POLYLINE
8
M1_Field
70
1
0
VERTEX
10
-31.0000
20
-61.0368
0
VERTEX
10
31.0000
20
-61.0368
0
VERTEX
10
31.0000
20
0.9632
0
VERTEX
10
-31.0000
20
0.9632
0
SEQEND
0
POLYLINE
8
cure
70
1
0
VERTEX
10
-3.0000
20
-61.0368
0
VERTEX
10
3.0000
20
-61.0368
0
VERTEX
10
3.0000
20
0.9632
0
VERTEX
10
-3.0000
20
0.9632
0
SEQEND
0
POLYLINE
8
M1_Neg
70
1
0
VERTEX
10
-3.5000
20
-41.0000
0
VERTEX
10
3.5000
20
-41.0000
0
VERTEX
10
3.5000
20
-40.0000
0
VERTEX
10
-3.5000
20
-40.0000
0
SEQEND
0
POLYLINE
8
M1_Neg
70
1
0
VERTEX
10
8.7500
20
-44.4000
0
VERTEX
10
8.7500
20
-44.5500
0
VERTEX
10
3.7500
20
-44.5500
0
VERTEX
10
3.7500
20
-45.4500
0
VERTEX
10
8.7500
20
-45.4500
0
VERTEX
10
8.7500
20
-45.6000
0
VERTEX
10
9.0500
20
-45.6000
0
VERTEX
10
9.0500
20
-45.1500
0
VERTEX
10
4.0500
20
-45.1500
0
VERTEX
10
4.0500
20
-44.8500
0
VERTEX
10
9.0500
20
-44.8500
0
VERTEX
10
9.0500
20
-44.4000
0
SEQEND
0
POLYLINE
8
M1_Neg
70
1
0
VERTEX
10
8.7500
20
-43.2000
0
VERTEX
10
8.7500
20
-43.3500
0
VERTEX
10
3.7500
20
-43.3500
0
VERTEX
10
3.7500
20
-44.2500
0
VERTEX
10
8.7500
20
-44.2500
0
VERTEX
10
8.7500
20
-44.4000
0
VERTEX
10
9.0500
20
-44.4000
0
VERTEX
10
9.0500
20
-43.9500
0
VERTEX
10
4.0500
20
-43.9500
0
VERTEX
10
4.0500
20
-43.6500
0
VERTEX
10
9.0500
20
-43.6500
0
VERTEX
10
9.0500
20
-43.2000
0
SEQEND
0
POLYLINE
8
M1_Neg
70
1
0
VERTEX
10
8.7500
20
-42.0000
0
VERTEX
10
8.7500
20
-42.1500
0
VERTEX
10
3.7500
20
-42.1500
0
VERTEX
10
3.7500
20
-43.0500
0
VERTEX
10
8.7500
20
-43.0500
0
VERTEX
10
8.7500
20
-43.2000
0
VERTEX
10
9.0500
20
-43.2000
0
VERTEX
10
9.0500
20
-42.7500
0
VERTEX
10
4.0500
20
-42.7500
0
VERTEX
10
4.0500
20
-42.4500
0
VERTEX
10
9.0500
20
-42.4500
0
VERTEX
10
9.0500
20
-42.0000
0
SEQEND
0
POLYLINE
8
M1_Neg
70
1
0
VERTEX
10
8.7500
20
-40.8000
0
VERTEX
10
8.7500
20
-40.9500
0
VERTEX
10
3.7500
20
-40.9500
0
VERTEX
10
3.7500
20
-41.8500
0
VERTEX
10
8.7500
20
-41.8500
0
VERTEX
10
8.7500
20
-42.0000
0
VERTEX
10
9.0500
20
-42.0000
0
VERTEX
10
9.0500
20
-41.5500
0
VERTEX
10
4.0500
20
-41.5500
0
VERTEX
10
4.0500
20
-41.2500
0
VERTEX
10
9.0500
20
-41.2500
0
VERTEX
10
9.0500
20
-40.8000
0
SEQEND
0
POLYLINE
8
M1_Neg
70
1
0
VERTEX
10
3.7500
20
-40.2000
0
VERTEX
10
3.7500
20
-40.6500
0
VERTEX
10
8.7500
20
-40.6500
0
VERTEX
10
8.7500
20
-40.8000
0
VERTEX
10
9.0500
20
-40.8000
0
VERTEX
10
9.0500
20
-40.3500
0
VERTEX
10
4.0500
20
-40.3500
0
VERTEX
10
4.0500
20
-40.2000
0
SEQEND
0
POLYLINE
8
metal
70
1
0
VERTEX
10
8.7500
20
-44.4000
0
VERTEX
10
8.7500
20
-44.5500
0
VERTEX
10
3.7500
20
-44.5500
0
VERTEX
10
3.7500
20
-45.4500
0
VERTEX
10
8.7500
20
-45.4500
0
VERTEX
10
8.7500
20
-45.6000
0
VERTEX
10
8.8500
20
-45.6000
0
VERTEX
10
8.8500
20
-45.3500
0
VERTEX
10
3.8500
20
-45.3500
0
VERTEX
10
3.8500
20
-44.6500
0
VERTEX
10
8.8500
20
-44.6500
0
VERTEX
10
8.8500
20
-44.4000
0
SEQEND
0
POLYLINE
8
metal
70
1
0
VERTEX
10
8.7500
20
-43.2000
0
VERTEX
10
8.7500
20
-43.3500
0
VERTEX
10
3.7500
20
-43.3500
0
VERTEX
10
3.7500
20
-44.2500
0
VERTEX
10
8.7500
20
-44.2500
0
VERTEX
10
8.7500
20
-44.4000
0
VERTEX
10
8.8500
20
-44.4000
0
VERTEX
10
8.8500
20
-44.1500
0
VERTEX
10
3.8500
20
-44.1500
0
VERTEX
10
3.8500
20
-43.4500
0
VERTEX
10
8.8500
20
-43.4500
0
VERTEX
10
8.8500
20
-43.2000
0
SEQEND
0
POLYLINE
8
metal
70
1
0
VERTEX
10
8.7500
20
-42.0000
0
VERTEX
10
8.7500
20
-42.1500
0
VERTEX
10
3.7500
20
-42.1500
0
VERTEX
10
3.7500
20
-43.0500
0
VERTEX
10
8.7500
20
-43.0500
0
VERTEX
10
8.7500
20
-43.2000
0
VERTEX
10
8.8500
20
-43.2000
0
VERTEX
10
8.8500
20
-42.9500
0
VERTEX
10
3.8500
20
-42.9500
0
VERTEX
10
3.8500
20
-42.2500
0
VERTEX
10
8.8500
20
-42.2500
0
VERTEX
10
8.8500
20
-42.0000
0
SEQEND
0
POLYLINE
8
metal
70
1
0
VERTEX
10
8.7500
20
-40.8000
0
VERTEX
10
8.7500
20
-40.9500
0
VERTEX
10
3.7500
20
-40.9500
0
VERTEX
10
3.7500
20
-41.8500
0
VERTEX
10
8.7500
20
-41.8500
0
VERTEX
10
8.7500
20
-42.0000
0
VERTEX
10
8.8500
20
-42.0000
0
VERTEX
10
8.8500
20
-41.7500
0
VERTEX
10
3.8500
20
-41.7500
0
VERTEX
10
3.8500
20
-41.0500
0
VERTEX
10
8.8500
20
-41.0500
0
VERTEX
10
8.8500
20
-40.8000
0
SEQEND
0
POLYLINE
8
metal
70
1
0
VERTEX
10
3.7500
20
-40.2000
0
VERTEX
10
3.7500
20
-40.6500
0
VERTEX
10
8.7500
20
-40.6500
0
VERTEX
10
8.7500
20
-40.8000
0
VERTEX
10
8.8500
20
-40.8000
0
VERTEX
10
8.8500
20
-40.5500
0
VERTEX
10
3.8500
20
-40.5500
0
VERTEX
10
3.8500
20
-40.2000
0
SEQEND
0
POLYLINE
8
metal
70
1
0
VERTEX
10
8.9500
20
-44.4000
0
VERTEX
10
8.9500
20
-44.7500
0
VERTEX
10
3.9500
20
-44.7500
0
VERTEX
10
3.9500
20
-45.2500
0
VERTEX
10
8.9500
20
-45.2500
0
VERTEX
10
8.9500
20
-45.6000
0
VERTEX
10
9.0500
20
-45.6000
0
VERTEX
10
9.0500
20
-45.1500
0
VERTEX
10
4.0500
20
-45.1500
0
VERTEX
10
4.0500
20
-44.8500
0
VERTEX
10
9.0500
20
-44.8500
0
VERTEX
10
9.0500
20
-44.4000
0
SEQEND
0
POLYLINE
8
metal
70
1
0
VERTEX
10
8.9500
20
-43.2000
0
VERTEX
10
8.9500
20
-43.5500
0
VERTEX
10
3.9500
20
-43.5500
0
VERTEX
10
3.9500
20
-44.0500
0
VERTEX
10
8.9500
20
-44.0500
0
VERTEX
10
8.9500
20
-44.4000
0
VERTEX
10
9.0500
20
-44.4000
0
VERTEX
10
9.0500
20
-43.9500
0
VERTEX
10
4.0500
20
-43.9500
0
VERTEX
10
4.0500
20
-43.6500
0
VERTEX
10
9.0500
20
-43.6500
0
VERTEX
10
9.0500
20
-43.2000
0
SEQEND
0
POLYLINE
8
metal
70
1
0
VERTEX
10
8.9500
20
-42.0000
0
VERTEX
10
8.9500
20
-42.3500
0
VERTEX
10
3.9500
20
-42.3500
0
VERTEX
10
3.9500
20
-42.8500
0
VERTEX
10
8.9500
20
-42.8500
0
VERTEX
10
8.9500
20
-43.2000
0
VERTEX
10
9.0500
20
-43.2000
0
VERTEX
10
9.0500
20
-42.7500
0
VERTEX
10
4.0500
20
-42.7500
0
VERTEX
10
4.0500
20
-42.4500
0
VERTEX
10
9.0500
20
-42.4500
0
VERTEX
10
9.0500
20
-42.0000
0
SEQEND
0
POLYLINE
8
metal
70
1
0
VERTEX
10
8.9500
20
-40.8000
0
VERTEX
10
8.9500
20
-41.1500
0
VERTEX
10
3.9500
20
-41.1500
0
VERTEX
10
3.9500
20
-41.6500
0
VERTEX
10
8.9500
20
-41.6500
0
VERTEX
10
8.9500
20
-42.0000
0
VERTEX
10
9.0500
20
-42.0000
0
VERTEX
10
9.0500
20
-41.5500
0
VERTEX
10
4.0500
20
-41.5500
0
VERTEX
10
4.0500
20
-41.2500
0
VERTEX
10
9.0500
20
-41.2500
0
VERTEX
10
9.0500
20
-40.8000
0
SEQEND
0
POLYLINE
8
metal
70
1
0
VERTEX
10
3.9500
20
-40.2000
0
VERTEX
10
3.9500
20
-40.4500
0
VERTEX
10
8.9500
20
-40.4500
0
VERTEX
10
8.9500
20
-40.8000
0
VERTEX
10
9.0500
20
-40.8000
0
VERTEX
10
9.0500
20
-40.3500
0
VERTEX
10
4.0500
20
-40.3500
0
VERTEX
10
4.0500
20
-40.2000
0
SEQEND
0
POLYLINE
8
M1_Neg
70
1
0
VERTEX
10
8.9311
20
-45.4189
0
VERTEX
10
17.4163
20
-45.4189
0
VERTEX
10
21.6590
20
-49.6616
0
VERTEX
10
12.9616
20
-58.3590
0
VERTEX
10
8.7189
20
-54.1163
0
VERTEX
10
8.7189
20
-45.6311
0
SEQEND
0
POLYLINE
8
cure
70
1
0
VERTEX
10
3.1000
20
-46.2500
0
VERTEX
10
9.7000
20
-46.2500
0
VERTEX
10
9.7000
20
-39.5500
0
VERTEX
10
3.1000
20
-39.5500
0
SEQEND
0
POLYLINE
8
M2_undercutMsk
70
1
0
VERTEX
10
0.1000
20
-46.2500
0
VERTEX
10
12.7000
20
-46.2500
0
VERTEX
10
12.7000
20
-39.5500
0
VERTEX
10
0.1000
20
-39.5500
0
SEQEND
0
CIRCLE
8
M1_LD
10
15.2640
20
-51.9640
40
7.5000
0
SEQEND
0
POLYLINE
8
M1_Neg
70
1
0
VERTEX
10
-8.7500
20
-44.4000
0
VERTEX
10
-8.7500
20
-44.5500
0
VERTEX
10
-3.7500
20
-44.5500
0
VERTEX
10
-3.7500
20
-45.4500
0
VERTEX
10
-8.7500
20
-45.4500
0
VERTEX
10
-8.7500
20
-45.6000
0
VERTEX
10
-9.0500
20
-45.6000
0
VERTEX
10
-9.0500
20
-45.1500
0
VERTEX
10
-4.0500
20
-45.1500
0
VERTEX
10
-4.0500
20
-44.8500
0
VERTEX
10
-9.0500
20
-44.8500
0
VERTEX
10
-9.0500
20
-44.4000
0
SEQEND
0
POLYLINE
8
M1_Neg
70
1
0
VERTEX
10
-8.7500
20
-43.2000
0
VERTEX
10
-8.7500
20
-43.3500
0
VERTEX
10
-3.7500
20
-43.3500
0
VERTEX
10
-3.7500
20
-44.2500
0
VERTEX
10
-8.7500
20
-44.2500
0
VERTEX
10
-8.7500
20
-44.4000
0
VERTEX
10
-9.0500
20
-44.4000
0
VERTEX
10
-9.0500
20
-43.9500
0
VERTEX
10
-4.0500
20
-43.9500
0
VERTEX
10
-4.0500
20
-43.6500
0
VERTEX
10
-9.0500
20
-43.6500
0
VERTEX
10
-9.0500
20
-43.2000
0
SEQEND
0
POLYLINE
8
M1_Neg
70
1
0
VERTEX
10
-8.7500
20
-42.0000
0
VERTEX
10
-8.7500
20
-42.1500
0
VERTEX
10
-3.7500
20
-42.1500
0
VERTEX
10
-3.7500
20
-43.0500
0
VERTEX
10
-8.7500
20
-43.0500
0
VERTEX
10
-8.7500
20
-43.2000
0
VERTEX
10
-9.0500
20
-43.2000
0
VERTEX
10
-9.0500
20
-42.7500
0
VERTEX
10
-4.0500
20
-42.7500
0
VERTEX
10
-4.0500
20
-42.4500
0
VERTEX
10
-9.0500
20
-42.4500
0
VERTEX
10
-9.0500
20
-42.0000
0
SEQEND
0
POLYLINE
8
M1_Neg
70
1
0
VERTEX
10
-8.7500
20
-40.8000
0
VERTEX
10
-8.7500
20
-40.9500
0
VERTEX
10
-3.7500
20
-40.9500
0
VERTEX
10
-3.7500
20
-41.8500
0
VERTEX
10
-8.7500
20
-41.8500
0
VERTEX
10
-8.7500
20
-42.0000
0
VERTEX
10
-9.0500
20
-42.0000
0
VERTEX
10
-9.0500
20
-41.5500
0
VERTEX
10
-4.0500
20
-41.5500
0
VERTEX
10
-4.0500
20
-41.2500
0
VERTEX
10
-9.0500
20
-41.2500
0
VERTEX
10
-9.0500
20
-40.8000
0
SEQEND
0
POLYLINE
8
M1_Neg
70
1
0
VERTEX
10
-3.7500
20
-40.2000
0
VERTEX
10
-3.7500
20
-40.6500
0
VERTEX
10
-8.7500
20
-40.6500
0
VERTEX
10
-8.7500
20
-40.8000
0
VERTEX
10
-9.0500
20
-40.8000
0
VERTEX
10
-9.0500
20
-40.3500
0
VERTEX
10
-4.0500
20
-40.3500
0
VERTEX
10
-4.0500
20
-40.2000
0
SEQEND
0
POLYLINE
8
metal
70
1
0
VERTEX
10
-8.7500
20
-44.4000
0
VERTEX
10
-8.7500
20
-44.5500
0
VERTEX
10
-3.7500
20
-44.5500
0
VERTEX
10
-3.7500
20
-45.4500
0
VERTEX
10
-8.7500
20
-45.4500
0
VERTEX
10
-8.7500
20
-45.6000
0
VERTEX
10
-8.8500
20
-45.6000
0
VERTEX
10
-8.8500
20
-45.3500
0
VERTEX
10
-3.8500
20
-45.3500
0
VERTEX
10
-3.8500
20
-44.6500
0
VERTEX
10
-8.8500
20
-44.6500
0
VERTEX
10
-8.8500
20
-44.4000
0
SEQEND
0
POLYLINE
8
metal
70
1
0
VERTEX
10
-8.7500
20
-43.2000
0
VERTEX
10
-8.7500
20
-43.3500
0
VERTEX
10
-3.7500
20
-43.3500
0
VERTEX
10
-3.7500
20
-44.2500
0
VERTEX
10
-8.7500
20
-44.2500
0
VERTEX
10
-8.7500
20
-44.4000
0
VERTEX
10
-8.8500
20
-44.4000
0
VERTEX
10
-8.8500
20
-44.1500
0
VERTEX
10
-3.8500
20
-44.1500
0
VERTEX
10
-3.8500
20
-43.4500
0
VERTEX
10
-8.8500
20
-43.4500
0
VERTEX
10
-8.8500
20
-43.2000
0
SEQEND
0
POLYLINE
8
metal
70
1
0
VERTEX
10
-8.7500
20
-42.0000
0
VERTEX
10
-8.7500
20
-42.1500
0
VERTEX
10
-3.7500
20
-42.1500
0
VERTEX
10
-3.7500
20
-43.0500
0
VERTEX
10
-8.7500
20
-43.0500
0
VERTEX
10
-8.7500
20
-43.2000
0
VERTEX
10
-8.8500
20
-43.2000
0
VERTEX
10
-8.8500
20
-42.9500
0
VERTEX
10
-3.8500
20
-42.9500
0
VERTEX
10
-3.8500
20
-42.2500
0
VERTEX
10
-8.8500
20
-42.2500
0
VERTEX
10
-8.8500
20
-42.0000
0
SEQEND
0
POLYLINE
8
metal
70
1
0
VERTEX
10
-8.7500
20
-40.8000
0
VERTEX
10
-8.7500
20
-40.9500
0
VERTEX
10
-3.7500
20
-40.9500
0
VERTEX
10
-3.7500
20
-41.8500
0
VERTEX
10
-8.7500
20
-41.8500
0
VERTEX
10
-8.7500
20
-42.0000
0
VERTEX
10
-8.8500
20
-42.0000
0
VERTEX
10
-8.8500
20
-41.7500
0
VERTEX
10
-3.8500
20
-41.7500
0
VERTEX
10
-3.8500
20
-41.0500
0
VERTEX
10
-8.8500
20
-41.0500
0
VERTEX
10
-8.8500
20
-40.8000
0
SEQEND
0
POLYLINE
8
metal
70
1
0
VERTEX
10
-3.7500
20
-40.2000
0
VERTEX
10
-3.7500
20
-40.6500
0
VERTEX
10
-8.7500
20
-40.6500
0
VERTEX
10
-8.7500
20
-40.8000
0
VERTEX
10
-8.8500
20
-40.8000
0
VERTEX
10
-8.8500
20
-40.5500
0
VERTEX
10
-3.8500
20
-40.5500
0
VERTEX
10
-3.8500
20
-40.2000
0
SEQEND
0
POLYLINE
8
metal
70
1
0
VERTEX
10
-8.9500
20
-44.4000
0
VERTEX
10
-8.9500
20
-44.7500
0
VERTEX
10
-3.9500
20
-44.7500
0
VERTEX
10
-3.9500
20
-45.2500
0
VERTEX
10
-8.9500
20
-45.2500
0
VERTEX
10
-8.9500
20
-45.6000
0
VERTEX
10
-9.0500
20
-45.6000
0
VERTEX
10
-9.0500
20
-45.1500
0
VERTEX
10
-4.0500
20
-45.1500
0
VERTEX
10
-4.0500
20
-44.8500
0
VERTEX
10
-9.0500
20
-44.8500
0
VERTEX
10
-9.0500
20
-44.4000
0
SEQEND
0
POLYLINE
8
metal
70
1
0
VERTEX
10
-8.9500
20
-43.2000
0
VERTEX
10
-8.9500
20
-43.5500
0
VERTEX
10
-3.9500
20
-43.5500
0
VERTEX
10
-3.9500
20
-44.0500
0
VERTEX
10
-8.9500
20
-44.0500
0
VERTEX
10
-8.9500
20
-44.4000
0
VERTEX
10
-9.0500
20
-44.4000
0
VERTEX
10
-9.0500
20
-43.9500
0
VERTEX
10
-4.0500
20
-43.9500
0
VERTEX
10
-4.0500
20
-43.6500
0
VERTEX
10
-9.0500
20
-43.6500
0
VERTEX
10
-9.0500
20
-43.2000
0
SEQEND
0
POLYLINE
8
metal
70
1
0
VERTEX
10
-8.9500
20
-42.0000
0
VERTEX
10
-8.9500
20
-42.3500
0
VERTEX
10
-3.9500
20
-42.3500
0
VERTEX
10
-3.9500
20
-42.8500
0
VERTEX
10
-8.9500
20
-42.8500
0
VERTEX
10
-8.9500
20
-43.2000
0
VERTEX
10
-9.0500
20
-43.2000
0
VERTEX
10
-9.0500
20
-42.7500
0
VERTEX
10
-4.0500
20
-42.7500
0
VERTEX
10
-4.0500
20
-42.4500
0
VERTEX
10
-9.0500
20
-42.4500
0
VERTEX
10
-9.0500
20
-42.0000
0
SEQEND
0
POLYLINE
8
metal
70
1
0
VERTEX
10
-8.9500
20
-40.8000
0
VERTEX
10
-8.9500
20
-41.1500
0
VERTEX
10
-3.9500
20
-41.1500
0
VERTEX
10
-3.9500
20
-41.6500
0
VERTEX
10
-8.9500
20
-41.6500
0
VERTEX
10
-8.9500
20
-42.0000
0
VERTEX
10
-9.0500
20
-42.0000
0
VERTEX
10
-9.0500
20
-41.5500
0
VERTEX
10
-4.0500
20
-41.5500
0
VERTEX
10
-4.0500
20
-41.2500
0
VERTEX
10
-9.0500
20
-41.2500
0
VERTEX
10
-9.0500
20
-40.8000
0
SEQEND
0
POLYLINE
8
metal
70
1
0
VERTEX
10
-3.9500
20
-40.2000
0
VERTEX
10
-3.9500
20
-40.4500
0
VERTEX
10
-8.9500
20
-40.4500
0
VERTEX
10
-8.9500
20
-40.8000
0
VERTEX
10
-9.0500
20
-40.8000
0
VERTEX
10
-9.0500
20
-40.3500
0
VERTEX
10
-4.0500
20
-40.3500
0
VERTEX
10
-4.0500
20
-40.2000
0
SEQEND
0
POLYLINE
8
M1_Neg
70
1
0
VERTEX
10
-8.9311
20
-45.4189
0
VERTEX
10
-17.4163
20
-45.4189
0
VERTEX
10
-21.6590
20
-49.6616
0
VERTEX
10
-12.9616
20
-58.3590
0
VERTEX
10
-8.7189
20
-54.1163
0
VERTEX
10
-8.7189
20
-45.6311
0
SEQEND
0
POLYLINE
8
cure
70
1
0
VERTEX
10
-3.1000
20
-39.5500
0
VERTEX
10
-9.7000
20
-39.5500
0
VERTEX
10
-9.7000
20
-46.2500
0
VERTEX
10
-3.1000
20
-46.2500
0
SEQEND
0
POLYLINE
8
M2_undercutMsk
70
1
0
VERTEX
10
-0.1000
20
-39.5500
0
VERTEX
10
-12.7000
20
-39.5500
0
VERTEX
10
-12.7000
20
-46.2500
0
VERTEX
10
-0.1000
20
-46.2500
0
SEQEND
0
CIRCLE
8
M1_LD
10
-15.2640
20
-51.9640
40
7.5000
0
SEQEND
0
POLYLINE
8
M1_Neg
70
1
0
VERTEX
10
3.4625
20
-40.5500
0
VERTEX
10
3.8375
20
-40.5500
0
VERTEX
10
3.8375
20
-40.4500
0
VERTEX
10
3.4625
20
-40.4500
0
SEQEND
0
POLYLINE
8
M1_Neg
70
1
0
VERTEX
10
-3.8375
20
-40.5500
0
VERTEX
10
-3.4625
20
-40.5500
0
VERTEX
10
-3.4625
20
-40.4500
0
VERTEX
10
-3.8375
20
-40.4500
0
SEQEND
0
POLYLINE
8
M2_undercutMsk
70
1
0
VERTEX
10
-6.5000
20
-47.0000
0
VERTEX
10
6.5000
20
-47.0000
0
VERTEX
10
6.5000
20
-34.0000
0
VERTEX
10
-6.5000
20
-34.0000
0
SEQEND
0
POLYLINE
8
M1_Neg
70
1
0
VERTEX
10
0.1500
20
-27.0000
0
VERTEX
10
0.4000
20
-17.0000
0
VERTEX
10
1.2000
20
-13.5000
0
VERTEX
10
0.4000
20
-10.0000
0
VERTEX
10
0.1410
20
0.0000
0
VERTEX
10
-0.1410
20
0.0000
0
VERTEX
10
-0.4000
20
-10.0000
0
VERTEX
10
-1.2000
20
-13.5000
0
VERTEX
10
-0.4000
20
-17.0000
0
VERTEX
10
-0.1500
20
-27.0000
0
SEQEND
0
POLYLINE
8
M1_Neg
70
1
0
VERTEX
10
8.7500
20
-17.4000
0
VERTEX
10
8.7500
20
-17.5500
0
VERTEX
10
3.7500
20
-17.5500
0
VERTEX
10
3.7500
20
-18.4500
0
VERTEX
10
8.7500
20
-18.4500
0
VERTEX
10
8.7500
20
-18.6000
0
VERTEX
10
9.0500
20
-18.6000
0
VERTEX
10
9.0500
20
-18.1500
0
VERTEX
10
4.0500
20
-18.1500
0
VERTEX
10
4.0500
20
-17.8500
0
VERTEX
10
9.0500
20
-17.8500
0
VERTEX
10
9.0500
20
-17.4000
0
SEQEND
0
POLYLINE
8
M1_Neg
70
1
0
VERTEX
10
8.7500
20
-16.2000
0
VERTEX
10
8.7500
20
-16.3500
0
VERTEX
10
3.7500
20
-16.3500
0
VERTEX
10
3.7500
20
-17.2500
0
VERTEX
10
8.7500
20
-17.2500
0
VERTEX
10
8.7500
20
-17.4000
0
VERTEX
10
9.0500
20
-17.4000
0
VERTEX
10
9.0500
20
-16.9500
0
VERTEX
10
4.0500
20
-16.9500
0
VERTEX
10
4.0500
20
-16.6500
0
VERTEX
10
9.0500
20
-16.6500
0
VERTEX
10
9.0500
20
-16.2000
0
SEQEND
0
POLYLINE
8
M1_Neg
70
1
0
VERTEX
10
8.7500
20
-15.0000
0
VERTEX
10
8.7500
20
-15.1500
0
VERTEX
10
3.7500
20
-15.1500
0
VERTEX
10
3.7500
20
-16.0500
0
VERTEX
10
8.7500
20
-16.0500
0
VERTEX
10
8.7500
20
-16.2000
0
VERTEX
10
9.0500
20
-16.2000
0
VERTEX
10
9.0500
20
-15.7500
0
VERTEX
10
4.0500
20
-15.7500
0
VERTEX
10
4.0500
20
-15.4500
0
VERTEX
10
9.0500
20
-15.4500
0
VERTEX
10
9.0500
20
-15.0000
0
SEQEND
0
POLYLINE
8
M1_Neg
70
1
0
VERTEX
10
8.7500
20
-13.8000
0
VERTEX
10
8.7500
20
-13.9500
0
VERTEX
10
3.7500
20
-13.9500
0
VERTEX
10
3.7500
20
-14.8500
0
VERTEX
10
8.7500
20
-14.8500
0
VERTEX
10
8.7500
20
-15.0000
0
VERTEX
10
9.0500
20
-15.0000
0
VERTEX
10
9.0500
20
-14.5500
0
VERTEX
10
4.0500
20
-14.5500
0
VERTEX
10
4.0500
20
-14.2500
0
VERTEX
10
9.0500
20
-14.2500
0
VERTEX
10
9.0500
20
-13.8000
0
SEQEND
0
POLYLINE
8
M1_Neg
70
1
0
VERTEX
10
3.7500
20
-13.2000
0
VERTEX
10
3.7500
20
-13.6500
0
VERTEX
10
8.7500
20
-13.6500
0
VERTEX
10
8.7500
20
-13.8000
0
VERTEX
10
9.0500
20
-13.8000
0
VERTEX
10
9.0500
20
-13.3500
0
VERTEX
10
4.0500
20
-13.3500
0
VERTEX
10
4.0500
20
-13.2000
0
SEQEND
0
POLYLINE
8
metal
70
1
0
VERTEX
10
8.7500
20
-17.4000
0
VERTEX
10
8.7500
20
-17.5500
0
VERTEX
10
3.7500
20
-17.5500
0
VERTEX
10
3.7500
20
-18.4500
0
VERTEX
10
8.7500
20
-18.4500
0
VERTEX
10
8.7500
20
-18.6000
0
VERTEX
10
8.8500
20
-18.6000
0
VERTEX
10
8.8500
20
-18.3500
0
VERTEX
10
3.8500
20
-18.3500
0
VERTEX
10
3.8500
20
-17.6500
0
VERTEX
10
8.8500
20
-17.6500
0
VERTEX
10
8.8500
20
-17.4000
0
SEQEND
0
POLYLINE
8
metal
70
1
0
VERTEX
10
8.7500
20
-16.2000
0
VERTEX
10
8.7500
20
-16.3500
0
VERTEX
10
3.7500
20
-16.3500
0
VERTEX
10
3.7500
20
-17.2500
0
VERTEX
10
8.7500
20
-17.2500
0
VERTEX
10
8.7500
20
-17.4000
0
VERTEX
10
8.8500
20
-17.4000
0
VERTEX
10
8.8500
20
-17.1500
0
VERTEX
10
3.8500
20
-17.1500
0
VERTEX
10
3.8500
20
-16.4500
0
VERTEX
10
8.8500
20
-16.4500
0
VERTEX
10
8.8500
20
-16.2000
0
SEQEND
0
POLYLINE
8
metal
70
1
0
VERTEX
10
8.7500
20
-15.0000
0
VERTEX
10
8.7500
20
-15.1500
0
VERTEX
10
3.7500
20
-15.1500
0
VERTEX
10
3.7500
20
-16.0500
0
VERTEX
10
8.7500
20
-16.0500
0
VERTEX
10
8.7500
20
-16.2000
0
VERTEX
10
8.8500
20
-16.2000
0
VERTEX
10
8.8500
20
-15.9500
0
VERTEX
10
3.8500
20
-15.9500
0
VERTEX
10
3.8500
20
-15.2500
0
VERTEX
10
8.8500
20
-15.2500
0
VERTEX
10
8.8500
20
-15.0000
0
SEQEND
0
POLYLINE
8
metal
70
1
0
VERTEX
10
8.7500
20
-13.8000
0
VERTEX
10
8.7500
20
-13.9500
0
VERTEX
10
3.7500
20
-13.9500
0
VERTEX
10
3.7500
20
-14.8500
0
VERTEX
10
8.7500
20
-14.8500
0
VERTEX
10
8.7500
20
-15.0000
0
VERTEX
10
8.8500
20
-15.0000
0
VERTEX
10
8.8500
20
-14.7500
0
VERTEX
10
3.8500
20
-14.7500
0
VERTEX
10
3.8500
20
-14.0500
0
VERTEX
10
8.8500
20
-14.0500
0
VERTEX
10
8.8500
20
-13.8000
0
SEQEND
0
POLYLINE
8
metal
70
1
0
VERTEX
10
3.7500
20
-13.2000
0
VERTEX
10
3.7500
20
-13.6500
0
VERTEX
10
8.7500
20
-13.6500
0
VERTEX
10
8.7500
20
-13.8000
0
VERTEX
10
8.8500
20
-13.8000
0
VERTEX
10
8.8500
20
-13.5500
0
VERTEX
10
3.8500
20
-13.5500
0
VERTEX
10
3.8500
20
-13.2000
0
SEQEND
0
POLYLINE
8
metal
70
1
0
VERTEX
10
8.9500
20
-17.4000
0
VERTEX
10
8.9500
20
-17.7500
0
VERTEX
10
3.9500
20
-17.7500
0
VERTEX
10
3.9500
20
-18.2500
0
VERTEX
10
8.9500
20
-18.2500
0
VERTEX
10
8.9500
20
-18.6000
0
VERTEX
10
9.0500
20
-18.6000
0
VERTEX
10
9.0500
20
-18.1500
0
VERTEX
10
4.0500
20
-18.1500
0
VERTEX
10
4.0500
20
-17.8500
0
VERTEX
10
9.0500
20
-17.8500
0
VERTEX
10
9.0500
20
-17.4000
0
SEQEND
0
POLYLINE
8
metal
70
1
0
VERTEX
10
8.9500
20
-16.2000
0
VERTEX
10
8.9500
20
-16.5500
0
VERTEX
10
3.9500
20
-16.5500
0
VERTEX
10
3.9500
20
-17.0500
0
VERTEX
10
8.9500
20
-17.0500
0
VERTEX
10
8.9500
20
-17.4000
0
VERTEX
10
9.0500
20
-17.4000
0
VERTEX
10
9.0500
20
-16.9500
0
VERTEX
10
4.0500
20
-16.9500
0
VERTEX
10
4.0500
20
-16.6500
0
VERTEX
10
9.0500
20
-16.6500
0
VERTEX
10
9.0500
20
-16.2000
0
SEQEND
0
POLYLINE
8
metal
70
1
0
VERTEX
10
8.9500
20
-15.0000
0
VERTEX
10
8.9500
20
-15.3500
0
VERTEX
10
3.9500
20
-15.3500
0
VERTEX
10
3.9500
20
-15.8500
0
VERTEX
10
8.9500
20
-15.8500
0
VERTEX
10
8.9500
20
-16.2000
0
VERTEX
10
9.0500
20
-16.2000
0
VERTEX
10
9.0500
20
-15.7500
0
VERTEX
10
4.0500
20
-15.7500
0
VERTEX
10
4.0500
20
-15.4500
0
VERTEX
10
9.0500
20
-15.4500
0
VERTEX
10
9.0500
20
-15.0000
0
SEQEND
0
POLYLINE
8
metal
70
1
0
VERTEX
10
8.9500
20
-13.8000
0
VERTEX
10
8.9500
20
-14.1500
0
VERTEX
10
3.9500
20
-14.1500
0
VERTEX
10
3.9500
20
-14.6500
0
VERTEX
10
8.9500
20
-14.6500
0
VERTEX
10
8.9500
20
-15.0000
0
VERTEX
10
9.0500
20
-15.0000
0
VERTEX
10
9.0500
20
-14.5500
0
VERTEX
10
4.0500
20
-14.5500
0
VERTEX
10
4.0500
20
-14.2500
0
VERTEX
10
9.0500
20
-14.2500
0
VERTEX
10
9.0500
20
-13.8000
0
SEQEND
0
POLYLINE
8
metal
70
1
0
VERTEX
10
3.9500
20
-13.2000
0
VERTEX
10
3.9500
20
-13.4500
0
VERTEX
10
8.9500
20
-13.4500
0
VERTEX
10
8.9500
20
-13.8000
0
VERTEX
10
9.0500
20
-13.8000
0
VERTEX
10
9.0500
20
-13.3500
0
VERTEX
10
4.0500
20
-13.3500
0
VERTEX
10
4.0500
20
-13.2000
0
SEQEND
0
POLYLINE
8
M1_Neg
70
1
0
VERTEX
10
8.9311
20
-18.4189
0
VERTEX
10
17.4163
20
-18.4189
0
VERTEX
10
21.6590
20
-22.6616
0
VERTEX
10
12.9616
20
-31.3590
0
VERTEX
10
8.7189
20
-27.1163
0
VERTEX
10
8.7189
20
-18.6311
0
SEQEND
0
POLYLINE
8
cure
70
1
0
VERTEX
10
3.1000
20
-19.2500
0
VERTEX
10
9.7000
20
-19.2500
0
VERTEX
10
9.7000
20
-12.5500
0
VERTEX
10
3.1000
20
-12.5500
0
SEQEND
0
POLYLINE
8
M2_undercutMsk
70
1
0
VERTEX
10
0.1000
20
-19.2500
0
VERTEX
10
12.7000
20
-19.2500
0
VERTEX
10
12.7000
20
-12.5500
0
VERTEX
10
0.1000
20
-12.5500
0
SEQEND
0
CIRCLE
8
M1_LD
10
15.2640
20
-24.9640
40
7.5000
0
SEQEND
0
POLYLINE
8
M1_Neg
70
1
0
VERTEX
10
-8.7500
20
-17.4000
0
VERTEX
10
-8.7500
20
-17.5500
0
VERTEX
10
-3.7500
20
-17.5500
0
VERTEX
10
-3.7500
20
-18.4500
0
VERTEX
10
-8.7500
20
-18.4500
0
VERTEX
10
-8.7500
20
-18.6000
0
VERTEX
10
-9.0500
20
-18.6000
0
VERTEX
10
-9.0500
20
-18.1500
0
VERTEX
10
-4.0500
20
-18.1500
0
VERTEX
10
-4.0500
20
-17.8500
0
VERTEX
10
-9.0500
20
-17.8500
0
VERTEX
10
-9.0500
20
-17.4000
0
SEQEND
0
POLYLINE
8
M1_Neg
70
1
0
VERTEX
10
-8.7500
20
-16.2000
0
VERTEX
10
-8.7500
20
-16.3500
0
VERTEX
10
-3.7500
20
-16.3500
0
VERTEX
10
-3.7500
20
-17.2500
0
VERTEX
10
-8.7500
20
-17.2500
0
VERTEX
10
-8.7500
20
-17.4000
0
VERTEX
10
-9.0500
20
-17.4000
0
VERTEX
10
-9.0500
20
-16.9500
0
VERTEX
10
-4.0500
20
-16.9500
0
VERTEX
10
-4.0500
20
-16.6500
0
VERTEX
10
-9.0500
20
-16.6500
0
VERTEX
10
-9.0500
20
-16.2000
0
SEQEND
0
POLYLINE
8
M1_Neg
70
1
0
VERTEX
10
-8.7500
20
-15.0000
0
VERTEX
10
-8.7500
20
-15.1500
0
VERTEX
10
-3.7500
20
-15.1500
0
VERTEX
10
-3.7500
20
-16.0500
0
VERTEX
10
-8.7500
20
-16.0500
0
VERTEX
10
-8.7500
20
-16.2000
0
VERTEX
10
-9.0500
20
-16.2000
0
VERTEX
10
-9.0500
20
-15.7500
0
VERTEX
10
-4.0500
20
-15.7500
0
VERTEX
10
-4.0500
20
-15.4500
0
VERTEX
10
-9.0500
20
-15.4500
0
VERTEX
10
-9.0500
20
-15.0000
0
SEQEND
0
POLYLINE
8
M1_Neg
70
1
0
VERTEX
10
-8.7500
20
-13.8000
0
VERTEX
10
-8.7500
20
-13.9500
0
VERTEX
10
-3.7500
20
-13.9500
0
VERTEX
10
-3.7500
20
-14.8500
0
VERTEX
10
-8.7500
20
-14.8500
0
VERTEX
10
-8.7500
20
-15.0000
0
VERTEX
10
-9.0500
20
-15.0000
0
VERTEX
10
-9.0500
20
-14.5500
0
VERTEX
10
-4.0500
20
-14.5500
0
VERTEX
10
-4.0500
20
-14.2500
0
VERTEX
10
-9.0500
20
-14.2500
0
VERTEX
10
-9.0500
20
-13.8000
0
SEQEND
0
POLYLINE
8
M1_Neg
70
1
0
VERTEX
10
-3.7500
20
-13.2000
0
VERTEX
10
-3.7500
20
-13.6500
0
VERTEX
10
-8.7500
20
-13.6500
0
VERTEX
10
-8.7500
20
-13.8000
0
VERTEX
10
-9.0500
20
-13.8000
0
VERTEX
10
-9.0500
20
-13.3500
0
VERTEX
10
-4.0500
20
-13.3500
0
VERTEX
10
-4.0500
20
-13.2000
0
SEQEND
0
POLYLINE
8
metal
70
1
0
VERTEX
10
-8.7500
20
-17.4000
0
VERTEX
10
-8.7500
20
-17.5500
0
VERTEX
10
-3.7500
20
-17.5500
0
VERTEX
10
-3.7500
20
-18.4500
0
VERTEX
10
-8.7500
20
-18.4500
0
VERTEX
10
-8.7500
20
-18.6000
0
VERTEX
10
-8.8500
20
-18.6000
0
VERTEX
10
-8.8500
20
-18.3500
0
VERTEX
10
-3.8500
20
-18.3500
0
VERTEX
10
-3.8500
20
-17.6500
0
VERTEX
10
-8.8500
20
-17.6500
0
VERTEX
10
-8.8500
20
-17.4000
0
SEQEND
0
POLYLINE
8
metal
70
1
0
VERTEX
10
-8.7500
20
-16.2000
0
VERTEX
10
-8.7500
20
-16.3500
0
VERTEX
10
-3.7500
20
-16.3500
0
VERTEX
10
-3.7500
20
-17.2500
0
VERTEX
10
-8.7500
20
-17.2500
0
VERTEX
10
-8.7500
20
-17.4000
0
VERTEX
10
-8.8500
20
-17.4000
0
VERTEX
10
-8.8500
20
-17.1500
0
VERTEX
10
-3.8500
20
-17.1500
0
VERTEX
10
-3.8500
20
-16.4500
0
VERTEX
10
-8.8500
20
-16.4500
0
VERTEX
10
-8.8500
20
-16.2000
0
SEQEND
0
POLYLINE
8
metal
70
1
0
VERTEX
10
-8.7500
20
-15.0000
0
VERTEX
10
-8.7500
20
-15.1500
0
VERTEX
10
-3.7500
20
-15.1500
0
VERTEX
10
-3.7500
20
-16.0500
0
VERTEX
10
-8.7500
20
-16.0500
0
VERTEX
10
-8.7500
20
-16.2000
0
VERTEX
10
-8.8500
20
-16.2000
0
VERTEX
10
-8.8500
20
-15.9500
0
VERTEX
10
-3.8500
20
-15.9500
0
VERTEX
10
-3.8500
20
-15.2500
0
VERTEX
10
-8.8500
20
-15.2500
0
VERTEX
10
-8.8500
20
-15.0000
0
SEQEND
0
POLYLINE
8
metal
70
1
0
VERTEX
10
-8.7500
20
-13.8000
0
VERTEX
10
-8.7500
20
-13.9500
0
VERTEX
10
-3.7500
20
-13.9500
0
VERTEX
10
-3.7500
20
-14.8500
0
VERTEX
10
-8.7500
20
-14.8500
0
VERTEX
10
-8.7500
20
-15.0000
0
VERTEX
10
-8.8500
20
-15.0000
0
VERTEX
10
-8.8500
20
-14.7500
0
VERTEX
10
-3.8500
20
-14.7500
0
VERTEX
10
-3.8500
20
-14.0500
0
VERTEX
10
-8.8500
20
-14.0500
0
VERTEX
10
-8.8500
20
-13.8000
0
SEQEND
0
POLYLINE
8
metal
70
1
0
VERTEX
10
-3.7500
20
-13.2000
0
VERTEX
10
-3.7500
20
-13.6500
0
VERTEX
10
-8.7500
20
-13.6500
0
VERTEX
10
-8.7500
20
-13.8000
0
VERTEX
10
-8.8500
20
-13.8000
0
VERTEX
10
-8.8500
20
-13.5500
0
VERTEX
10
-3.8500
20
-13.5500
0
VERTEX
10
-3.8500
20
-13.2000
0
SEQEND
0
POLYLINE
8
metal
70
1
0
VERTEX
10
-8.9500
20
-17.4000
0
VERTEX
10
-8.9500
20
-17.7500
0
VERTEX
10
-3.9500
20
-17.7500
0
VERTEX
10
-3.9500
20
-18.2500
0
VERTEX
10
-8.9500
20
-18.2500
0
VERTEX
10
-8.9500
20
-18.6000
0
VERTEX
10
-9.0500
20
-18.6000
0
VERTEX
10
-9.0500
20
-18.1500
0
VERTEX
10
-4.0500
20
-18.1500
0
VERTEX
10
-4.0500
20
-17.8500
0
VERTEX
10
-9.0500
20
-17.8500
0
VERTEX
10
-9.0500
20
-17.4000
0
SEQEND
0
POLYLINE
8
metal
70
1
0
VERTEX
10
-8.9500
20
-16.2000
0
VERTEX
10
-8.9500
20
-16.5500
0
VERTEX
10
-3.9500
20
-16.5500
0
VERTEX
10
-3.9500
20
-17.0500
0
VERTEX
10
-8.9500
20
-17.0500
0
VERTEX
10
-8.9500
20
-17.4000
0
VERTEX
10
-9.0500
20
-17.4000
0
VERTEX
10
-9.0500
20
-16.9500
0
VERTEX
10
-4.0500
20
-16.9500
0
VERTEX
10
-4.0500
20
-16.6500
0
VERTEX
10
-9.0500
20
-16.6500
0
VERTEX
10
-9.0500
20
-16.2000
0
SEQEND
0
POLYLINE
8
metal
70
1
0
VERTEX
10
-8.9500
20
-15.0000
0
VERTEX
10
-8.9500
20
-15.3500
0
VERTEX
10
-3.9500
20
-15.3500
0
VERTEX
10
-3.9500
20
-15.8500
0
VERTEX
10
-8.9500
20
-15.8500
0
VERTEX
10
-8.9500
20
-16.2000
0
VERTEX
10
-9.0500
20
-16.2000
0
VERTEX
10
-9.0500
20
-15.7500
0
VERTEX
10
-4.0500
20
-15.7500
0
VERTEX
10
-4.0500
20
-15.4500
0
VERTEX
10
-9.0500
20
-15.4500
0
VERTEX
10
-9.0500
20
-15.0000
0
SEQEND
0
POLYLINE
8
metal
70
1
0
VERTEX
10
-8.9500
20
-13.8000
0
VERTEX
10
-8.9500
20
-14.1500
0
VERTEX
10
-3.9500
20
-14.1500
0
VERTEX
10
-3.9500
20
-14.6500
0
VERTEX
10
-8.9500
20
-14.6500
0
VERTEX
10
-8.9500
20
-15.0000
0
VERTEX
10
-9.0500
20
-15.0000
0
VERTEX
10
-9.0500
20
-14.5500
0
VERTEX
10
-4.0500
20
-14.5500
0
VERTEX
10
-4.0500
20
-14.2500
0
VERTEX
10
-9.0500
20
-14.2500
0
VERTEX
10
-9.0500
20
-13.8000
0
SEQEND
0
POLYLINE
8
metal
70
1
0
VERTEX
10
-3.9500
20
-13.2000
0
VERTEX
10
-3.9500
20
-13.4500
0
VERTEX
10
-8.9500
20
-13.4500
0
VERTEX
10
-8.9500
20
-13.8000
0
VERTEX
10
-9.0500
20
-13.8000
0
VERTEX
10
-9.0500
20
-13.3500
0
VERTEX
10
-4.0500
20
-13.3500
0
VERTEX
10
-4.0500
20
-13.2000
0
SEQEND
0
POLYLINE
8
M1_Neg
70
1
0
VERTEX
10
-8.9311
20
-18.4189
0
VERTEX
10
-17.4163
20
-18.4189
0
VERTEX
10
-21.6590
20
-22.6616
0
VERTEX
10
-12.9616
20
-31.3590
0
VERTEX
10
-8.7189
20
-27.1163
0
VERTEX
10
-8.7189
20
-18.6311
0
SEQEND
0
POLYLINE
8
cure
70
1
0
VERTEX
10
-3.1000
20
-12.5500
0
VERTEX
10
-9.7000
20
-12.5500
0
VERTEX
10
-9.7000
20
-19.2500
0
VERTEX
10
-3.1000
20
-19.2500
0
SEQEND
0
POLYLINE
8
M2_undercutMsk
70
1
0
VERTEX
10
-0.1000
20
-12.5500
0
VERTEX
10
-12.7000
20
-12.5500
0
VERTEX
10
-12.7000
20
-19.2500
0
VERTEX
10
-0.1000
20
-19.2500
0
SEQEND
0
CIRCLE
8
M1_LD
10
-15.2640
20
-24.9640
40
7.5000
0
SEQEND
0
POLYLINE
8
M1_Neg
70
1
0
VERTEX
10
3.4625
20
-13.5500
0
VERTEX
10
3.8375
20
-13.5500
0
VERTEX
10
3.8375
20
-13.4500
0
VERTEX
10
3.4625
20
-13.4500
0
SEQEND
0
POLYLINE
8
M1_Neg
70
1
0
VERTEX
10
-3.8375
20
-13.5500
0
VERTEX
10
-3.4625
20
-13.5500
0
VERTEX
10
-3.4625
20
-13.4500
0
VERTEX
10
-3.8375
20
-13.4500
0
SEQEND
0
POLYLINE
8
M2_undercutMsk
70
1
0
VERTEX
10
-6.5000
20
-20.0000
0
VERTEX
10
6.5000
20
-20.0000
0
VERTEX
10
6.5000
20
-7.0000
0
VERTEX
10
-6.5000
20
-7.0000
0
SEQEND
0
POLYLINE
8
M1_Neg
70
1
0
VERTEX
10
-3.5000
20
-14.0000
0
VERTEX
10
3.5000
20
-14.0000
0
VERTEX
10
3.5000
20
-13.0000
0
VERTEX
10
-3.5000
20
-13.0000
0
SEQEND
0
POLYLINE
8
M1_Neg
70
1
0
VERTEX
10
0.8000
20
-79.8000
0
VERTEX
10
1.2000
20
-79.4000
0
VERTEX
10
1.2000
20
-79.0000
0
VERTEX
10
1.6000
20
-78.6000
0
VERTEX
10
2.0000
20
-78.2000
0
VERTEX
10
2.4000
20
-78.2000
0
VERTEX
10
2.8000
20
-78.2000
0
VERTEX
10
3.2000
20
-78.2000
0
VERTEX
10
3.6000
20
-78.2000
0
VERTEX
10
4.0000
20
-78.2000
0
VERTEX
10
4.4000
20
-78.2000
0
VERTEX
10
4.8000
20
-78.2000
0
VERTEX
10
5.2000
20
-78.6000
0
VERTEX
10
5.6000
20
-79.0000
0
VERTEX
10
5.6000
20
-79.4000
0
VERTEX
10
6.0000
20
-79.8000
0
VERTEX
10
6.0000
20
-80.2000
0
VERTEX
10
6.0000
20
-80.6000
0
VERTEX
10
6.0000
20
-81.0000
0
VERTEX
10
6.0000
20
-81.4000
0
VERTEX
10
6.0000
20
-81.8000
0
VERTEX
10
6.0000
20
-82.2000
0
VERTEX
10
6.0000
20
-82.6000
0
VERTEX
10
6.0000
20
-83.0000
0
VERTEX
10
6.0000
20
-83.4000
0
VERTEX
10
5.6000
20
-83.8000
0
VERTEX
10
5.6000
20
-84.2000
0
VERTEX
10
5.2000
20
-84.6000
0
VERTEX
10
4.8000
20
-85.0000
0
VERTEX
10
4.4000
20
-85.0000
0
VERTEX
10
4.0000
20
-85.0000
0
VERTEX
10
3.6000
20
-85.0000
0
VERTEX
10
3.2000
20
-85.0000
0
VERTEX
10
2.8000
20
-85.0000
0
VERTEX
10
2.4000
20
-85.0000
0
VERTEX
10
2.0000
20
-85.0000
0
VERTEX
10
1.6000
20
-84.6000
0
VERTEX
10
1.2000
20
-84.2000
0
VERTEX
10
1.2000
20
-83.8000
0
VERTEX
10
0.8000
20
-83.4000
0
VERTEX
10
0.8000
20
-83.0000
0
VERTEX
10
0.8000
20
-82.6000
0
VERTEX
10
0.8000
20
-82.2000
0
VERTEX
10
0.8000
20
-81.8000
0
VERTEX
10
0.8000
20
-81.4000
0
VERTEX
10
0.8000
20
-81.0000
0
VERTEX
10
0.8000
20
-80.6000
0
VERTEX
10
0.8000
20
-80.2000
0
VERTEX
10
0.8000
20
-79.8000
0
SEQEND
0
POLYLINE
8
M1_Pos_ind
70
1
0
VERTEX
10
2.0000
20
-79.8000
0
VERTEX
10
2.4000
20
-79.8000
0
VERTEX
10
2.4000
20
-79.4000
0
VERTEX
10
2.4000
20
-79.0000
0
VERTEX
10
2.8000
20
-79.0000
0
VERTEX
10
3.2000
20
-79.0000
0
VERTEX
10
3.6000
20
-79.0000
0
VERTEX
10
4.0000
20
-79.0000
0
VERTEX
10
4.4000
20
-79.0000
0
VERTEX
10
4.0000
20
-79.0000
0
VERTEX
10
4.0000
20
-79.4000
0
VERTEX
10
4.0000
20
-79.8000
0
VERTEX
10
3.6000
20
-79.8000
0
VERTEX
10
3.6000
20
-80.2000
0
VERTEX
10
3.2000
20
-80.2000
0
VERTEX
10
3.2000
20
-80.6000
0
VERTEX
10
3.2000
20
-81.0000
0
VERTEX
10
2.8000
20
-81.0000
0
VERTEX
10
2.8000
20
-81.4000
0
VERTEX
10
2.8000
20
-81.8000
0
VERTEX
10
2.4000
20
-81.8000
0
VERTEX
10
2.4000
20
-82.2000
0
VERTEX
10
2.0000
20
-82.2000
0
VERTEX
10
2.0000
20
-82.6000
0
VERTEX
10
2.0000
20
-83.0000
0
VERTEX
10
2.0000
20
-82.6000
0
VERTEX
10
2.0000
20
-82.2000
0
VERTEX
10
2.0000
20
-81.8000
0
VERTEX
10
2.0000
20
-81.4000
0
VERTEX
10
2.0000
20
-81.0000
0
VERTEX
10
2.0000
20
-80.6000
0
VERTEX
10
2.0000
20
-80.2000
0
VERTEX
10
2.0000
20
-79.8000
0
SEQEND
0
POLYLINE
8
M1_Pos_ind
70
1
0
VERTEX
10
2.4000
20
-84.2000
0
VERTEX
10
2.8000
20
-84.2000
0
VERTEX
10
2.8000
20
-83.8000
0
VERTEX
10
2.8000
20
-83.4000
0
VERTEX
10
3.2000
20
-83.4000
0
VERTEX
10
3.2000
20
-83.0000
0
VERTEX
10
3.6000
20
-83.0000
0
VERTEX
10
3.6000
20
-82.6000
0
VERTEX
10
3.6000
20
-82.2000
0
VERTEX
10
4.0000
20
-82.2000
0
VERTEX
10
4.0000
20
-81.8000
0
VERTEX
10
4.4000
20
-81.8000
0
VERTEX
10
4.4000
20
-81.4000
0
VERTEX
10
4.4000
20
-81.0000
0
VERTEX
10
4.8000
20
-81.0000
0
VERTEX
10
4.8000
20
-80.6000
0
VERTEX
10
4.8000
20
-80.2000
0
VERTEX
10
4.8000
20
-80.6000
0
VERTEX
10
4.8000
20
-81.0000
0
VERTEX
10
4.8000
20
-81.4000
0
VERTEX
10
4.8000
20
-81.8000
0
VERTEX
10
4.8000
20
-82.2000
0
VERTEX
10
4.8000
20
-82.6000
0
VERTEX
10
4.8000
20
-83.0000
0
VERTEX
10
4.8000
20
-83.4000
0
VERTEX
10
4.4000
20
-83.4000
0
VERTEX
10
4.4000
20
-83.8000
0
VERTEX
10
4.4000
20
-84.2000
0
VERTEX
10
4.0000
20
-84.2000
0
VERTEX
10
3.6000
20
-84.2000
0
VERTEX
10
3.2000
20
-84.2000
0
VERTEX
10
2.8000
20
-84.2000
0
VERTEX
10
2.4000
20
-84.2000
0
SEQEND
0
ENDSEC
0
EOF