0
SECTION
2
HEADER
9
$ACADVER
1
AC1009
0
ENDSEC
0
SECTION
2
ENTITIES
0
POLYLINE
8
M1_Neg
70
1
0
VERTEX
10
-0.7596
20
-51.1500
0
VERTEX
10
-0.7000
20
-47.6500
0
VERTEX
10
-0.7000
20
-44.1500
0
VERTEX
10
-1.5000
20
-40.6500
0
VERTEX
10
-0.7000
20
-37.1500
0
VERTEX
10
-0.4500
20
-27.1500
0
VERTEX
10
-0.1500
20
-27.1500
0
VERTEX
10
0.1000
20
-37.1500
0
VERTEX
10
0.9000
20
-40.6500
0
VERTEX
10
0.1000
20
-44.1500
0
VERTEX
10
0.1000
20
-47.6500
0
VERTEX
10
0.1596
20
-51.1500
0
SEQEND
0
POLYLINE
8
M1_Neg
70
1
0
VERTEX
10
-0.7573
20
-61.1868
0
VERTEX
10
-0.7580
20
-61.1754
0
VERTEX
10
-0.7602
20
-61.1640
0
VERTEX
10
-0.7638
20
-61.1527
0
VERTEX
10
-0.7687
20
-61.1413
0
VERTEX
10
-0.7749
20
-61.1299
0
VERTEX
10
-0.7823
20
-61.1185
0
VERTEX
10
-0.7907
20
-61.1071
0
VERTEX
10
-0.8001
20
-61.0958
0
VERTEX
10
-0.8102
20
-61.0844
0
VERTEX
10
-0.8209
20
-61.0730
0
VERTEX
10
-0.8320
20
-61.0616
0
VERTEX
10
-0.8433
20
-61.0502
0
VERTEX
10
-0.8547
20
-61.0389
0
VERTEX
10
-0.8660
20
-61.0275
0
VERTEX
10
-0.8769
20
-61.0161
0
VERTEX
10
-0.8873
20
-61.0047
0
VERTEX
10
-0.8970
20
-60.9933
0
VERTEX
10
-0.9060
20
-60.9820
0
VERTEX
10
-0.9139
20
-60.9706
0
VERTEX
10
-0.9207
20
-60.9592
0
VERTEX
10
-0.9263
20
-60.9478
0
VERTEX
10
-0.9306
20
-60.9364
0
VERTEX
10
-0.9334
20
-60.9251
0
VERTEX
10
-0.9349
20
-60.9137
0
VERTEX
10
-0.9349
20
-60.9023
0
VERTEX
10
-0.9334
20
-60.8909
0
VERTEX
10
-0.9306
20
-60.8796
0
VERTEX
10
-0.9263
20
-60.8682
0
VERTEX
10
-0.9207
20
-60.8568
0
VERTEX
10
-0.9139
20
-60.8454
0
VERTEX
10
-0.9060
20
-60.8340
0
VERTEX
10
-0.8970
20
-60.8227
0
VERTEX
10
-0.8873
20
-60.8113
0
VERTEX
10
-0.8769
20
-60.7999
0
VERTEX
10
-0.8660
20
-60.7885
0
VERTEX
10
-0.8547
20
-60.7771
0
VERTEX
10
-0.8433
20
-60.7658
0
VERTEX
10
-0.8320
20
-60.7544
0
VERTEX
10
-0.8209
20
-60.7430
0
VERTEX
10
-0.8102
20
-60.7316
0
VERTEX
10
-0.8001
20
-60.7202
0
VERTEX
10
-0.7907
20
-60.7089
0
VERTEX
10
-0.7823
20
-60.6975
0
VERTEX
10
-0.7749
20
-60.6861
0
VERTEX
10
-0.7687
20
-60.6747
0
VERTEX
10
-0.7638
20
-60.6633
0
VERTEX
10
-0.7602
20
-60.6520
0
VERTEX
10
-0.7580
20
-60.6406
0
VERTEX
10
-0.7573
20
-60.6292
0
VERTEX
10
0.1573
20
-60.6292
0
VERTEX
10
0.1580
20
-60.6406
0
VERTEX
10
0.1602
20
-60.6520
0
VERTEX
10
0.1638
20
-60.6633
0
VERTEX
10
0.1687
20
-60.6747
0
VERTEX
10
0.1749
20
-60.6861
0
VERTEX
10
0.1823
20
-60.6975
0
VERTEX
10
0.1907
20
-60.7089
0
VERTEX
10
0.2001
20
-60.7202
0
VERTEX
10
0.2102
20
-60.7316
0
VERTEX
10
0.2209
20
-60.7430
0
VERTEX
10
0.2320
20
-60.7544
0
VERTEX
10
0.2433
20
-60.7658
0
VERTEX
10
0.2547
20
-60.7771
0
VERTEX
10
0.2660
20
-60.7885
0
VERTEX
10
0.2769
20
-60.7999
0
VERTEX
10
0.2873
20
-60.8113
0
VERTEX
10
0.2970
20
-60.8227
0
VERTEX
10
0.3060
20
-60.8340
0
VERTEX
10
0.3139
20
-60.8454
0
VERTEX
10
0.3207
20
-60.8568
0
VERTEX
10
0.3263
20
-60.8682
0
VERTEX
10
0.3306
20
-60.8796
0
VERTEX
10
0.3334
20
-60.8909
0
VERTEX
10
0.3349
20
-60.9023
0
VERTEX
10
0.3349
20
-60.9137
0
VERTEX
10
0.3334
20
-60.9251
0
VERTEX
10
0.3306
20
-60.9364
0
VERTEX
10
0.3263
20
-60.9478
0
VERTEX
10
0.3207
20
-60.9592
0
VERTEX
10
0.3139
20
-60.9706
0
VERTEX
10
0.3060
20
-60.9820
0
VERTEX
10
0.2970
20
-60.9933
0
VERTEX
10
0.2873
20
-61.0047
0
VERTEX
10
0.2769
20
-61.0161
0
VERTEX
10
0.2660
20
-61.0275
0
VERTEX
10
0.2547
20
-61.0389
0
VERTEX
10
0.2433
20
-61.0502
0
VERTEX
10
0.2320
20
-61.0616
0
VERTEX
10
0.2209
20
-61.0730
0
VERTEX
10
0.2102
20
-61.0844
0
VERTEX
10
0.2001
20
-61.0958
0
VERTEX
10
0.1907
20
-61.1071
0
VERTEX
10
0.1823
20
-61.1185
0
VERTEX
10
0.1749
20
-61.1299
0
VERTEX
10
0.1687
20
-61.1413
0
VERTEX
10
0.1638
20
-61.1527
0
VERTEX
10
0.1602
20
-61.1640
0
VERTEX
10
0.1580
20
-61.1754
0
VERTEX
10
0.1573
20
-61.1868
0
SEQEND
0
POLYLINE
8
M1_Neg
70
1
0
VERTEX
10
-0.7573
20
-60.6292
0
VERTEX
10
-0.7580
20
-60.6178
0
VERTEX
10
-0.7602
20
-60.6064
0
VERTEX
10
-0.7638
20
-60.5951
0
VERTEX
10
-0.7687
20
-60.5837
0
VERTEX
10
-0.7749
20
-60.5723
0
VERTEX
10
-0.7823
20
-60.5609
0
VERTEX
10
-0.7907
20
-60.5495
0
VERTEX
10
-0.8001
20
-60.5382
0
VERTEX
10
-0.8102
20
-60.5268
0
VERTEX
10
-0.8209
20
-60.5154
0
VERTEX
10
-0.8320
20
-60.5040
0
VERTEX
10
-0.8433
20
-60.4926
0
VERTEX
10
-0.8547
20
-60.4813
0
VERTEX
10
-0.8660
20
-60.4699
0
VERTEX
10
-0.8769
20
-60.4585
0
VERTEX
10
-0.8873
20
-60.4471
0
VERTEX
10
-0.8970
20
-60.4357
0
VERTEX
10
-0.9060
20
-60.4244
0
VERTEX
10
-0.9139
20
-60.4130
0
VERTEX
10
-0.9207
20
-60.4016
0
VERTEX
10
-0.9263
20
-60.3902
0
VERTEX
10
-0.9306
20
-60.3788
0
VERTEX
10
-0.9334
20
-60.3675
0
VERTEX
10
-0.9349
20
-60.3561
0
VERTEX
10
-0.9349
20
-60.3447
0
VERTEX
10
-0.9334
20
-60.3333
0
VERTEX
10
-0.9306
20
-60.3220
0
VERTEX
10
-0.9263
20
-60.3106
0
VERTEX
10
-0.9207
20
-60.2992
0
VERTEX
10
-0.9139
20
-60.2878
0
VERTEX
10
-0.9060
20
-60.2764
0
VERTEX
10
-0.8970
20
-60.2651
0
VERTEX
10
-0.8873
20
-60.2537
0
VERTEX
10
-0.8769
20
-60.2423
0
VERTEX
10
-0.8660
20
-60.2309
0
VERTEX
10
-0.8547
20
-60.2195
0
VERTEX
10
-0.8433
20
-60.2082
0
VERTEX
10
-0.8320
20
-60.1968
0
VERTEX
10
-0.8209
20
-60.1854
0
VERTEX
10
-0.8102
20
-60.1740
0
VERTEX
10
-0.8001
20
-60.1626
0
VERTEX
10
-0.7907
20
-60.1513
0
VERTEX
10
-0.7823
20
-60.1399
0
VERTEX
10
-0.7749
20
-60.1285
0
VERTEX
10
-0.7687
20
-60.1171
0
VERTEX
10
-0.7638
20
-60.1057
0
VERTEX
10
-0.7602
20
-60.0944
0
VERTEX
10
-0.7580
20
-60.0830
0
VERTEX
10
-0.7573
20
-60.0716
0
VERTEX
10
0.1573
20
-60.0716
0
VERTEX
10
0.1580
20
-60.0830
0
VERTEX
10
0.1602
20
-60.0944
0
VERTEX
10
0.1638
20
-60.1057
0
VERTEX
10
0.1687
20
-60.1171
0
VERTEX
10
0.1749
20
-60.1285
0
VERTEX
10
0.1823
20
-60.1399
0
VERTEX
10
0.1907
20
-60.1513
0
VERTEX
10
0.2001
20
-60.1626
0
VERTEX
10
0.2102
20
-60.1740
0
VERTEX
10
0.2209
20
-60.1854
0
VERTEX
10
0.2320
20
-60.1968
0
VERTEX
10
0.2433
20
-60.2082
0
VERTEX
10
0.2547
20
-60.2195
0
VERTEX
10
0.2660
20
-60.2309
0
VERTEX
10
0.2769
20
-60.2423
0
VERTEX
10
0.2873
20
-60.2537
0
VERTEX
10
0.2970
20
-60.2651
0
VERTEX
10
0.3060
20
-60.2764
0
VERTEX
10
0.3139
20
-60.2878
0
VERTEX
10
0.3207
20
-60.2992
0
VERTEX
10
0.3263
20
-60.3106
0
VERTEX
10
0.3306
20
-60.3220
0
VERTEX
10
0.3334
20
-60.3333
0
VERTEX
10
0.3349
20
-60.3447
0
VERTEX
10
0.3349
20
-60.3561
0
VERTEX
10
0.3334
20
-60.3675
0
VERTEX
10
0.3306
20
-60.3788
0
VERTEX
10
0.3263
20
-60.3902
0
VERTEX
10
0.3207
20
-60.4016
0
VERTEX
10
0.3139
20
-60.4130
0
VERTEX
10
0.3060
20
-60.4244
0
VERTEX
10
0.2970
20
-60.4357
0
VERTEX
10
0.2873
20
-60.4471
0
VERTEX
10
0.2769
20
-60.4585
0
VERTEX
10
0.2660
20
-60.4699
0
VERTEX
10
0.2547
20
-60.4813
0
VERTEX
10
0.2433
20
-60.4926
0
VERTEX
10
0.2320
20
-60.5040
0
VERTEX
10
0.2209
20
-60.5154
0
VERTEX
10
0.2102
20
-60.5268
0
VERTEX
10
0.2001
20
-60.5382
0
VERTEX
10
0.1907
20
-60.5495
0
VERTEX
10
0.1823
20
-60.5609
0
VERTEX
10
0.1749
20
-60.5723
0
VERTEX
10
0.1687
20
-60.5837
0
VERTEX
10
0.1638
20
-60.5951
0
VERTEX
10
0.1602
20
-60.6064
0
VERTEX
10
0.1580
20
-60.6178
0
VERTEX
10
0.1573
20
-60.6292
0
SEQEND
0
POLYLINE
8
M1_Neg
70
1
0
VERTEX
10
-0.7573
20
-60.0716
0
VERTEX
10
-0.7580
20
-60.0602
0
VERTEX
10
-0.7602
20
-60.0488
0
VERTEX
10
-0.7638
20
-60.0375
0
VERTEX
10
-0.7687
20
-60.0261
0
VERTEX
10
-0.7749
20
-60.0147
0
VERTEX
10
-0.7823
20
-60.0033
0
VERTEX
10
-0.7907
20
-59.9919
0
VERTEX
10
-0.8001
20
-59.9806
0
VERTEX
10
-0.8102
20
-59.9692
0
VERTEX
10
-0.8209
20
-59.9578
0
VERTEX
10
-0.8320
20
-59.9464
0
VERTEX
10
-0.8433
20
-59.9350
0
VERTEX
10
-0.8547
20
-59.9237
0
VERTEX
10
-0.8660
20
-59.9123
0
VERTEX
10
-0.8769
20
-59.9009
0
VERTEX
10
-0.8873
20
-59.8895
0
VERTEX
10
-0.8970
20
-59.8781
0
VERTEX
10
-0.9060
20
-59.8668
0
VERTEX
10
-0.9139
20
-59.8554
0
VERTEX
10
-0.9207
20
-59.8440
0
VERTEX
10
-0.9263
20
-59.8326
0
VERTEX
10
-0.9306
20
-59.8212
0
VERTEX
10
-0.9334
20
-59.8099
0
VERTEX
10
-0.9349
20
-59.7985
0
VERTEX
10
-0.9349
20
-59.7871
0
VERTEX
10
-0.9334
20
-59.7757
0
VERTEX
10
-0.9306
20
-59.7644
0
VERTEX
10
-0.9263
20
-59.7530
0
VERTEX
10
-0.9207
20
-59.7416
0
VERTEX
10
-0.9139
20
-59.7302
0
VERTEX
10
-0.9060
20
-59.7188
0
VERTEX
10
-0.8970
20
-59.7075
0
VERTEX
10
-0.8873
20
-59.6961
0
VERTEX
10
-0.8769
20
-59.6847
0
VERTEX
10
-0.8660
20
-59.6733
0
VERTEX
10
-0.8547
20
-59.6619
0
VERTEX
10
-0.8433
20
-59.6506
0
VERTEX
10
-0.8320
20
-59.6392
0
VERTEX
10
-0.8209
20
-59.6278
0
VERTEX
10
-0.8102
20
-59.6164
0
VERTEX
10
-0.8001
20
-59.6050
0
VERTEX
10
-0.7907
20
-59.5937
0
VERTEX
10
-0.7823
20
-59.5823
0
VERTEX
10
-0.7749
20
-59.5709
0
VERTEX
10
-0.7687
20
-59.5595
0
VERTEX
10
-0.7638
20
-59.5481
0
VERTEX
10
-0.7602
20
-59.5368
0
VERTEX
10
-0.7580
20
-59.5254
0
VERTEX
10
-0.7573
20
-59.5140
0
VERTEX
10
0.1573
20
-59.5140
0
VERTEX
10
0.1580
20
-59.5254
0
VERTEX
10
0.1602
20
-59.5368
0
VERTEX
10
0.1638
20
-59.5481
0
VERTEX
10
0.1687
20
-59.5595
0
VERTEX
10
0.1749
20
-59.5709
0
VERTEX
10
0.1823
20
-59.5823
0
VERTEX
10
0.1907
20
-59.5937
0
VERTEX
10
0.2001
20
-59.6050
0
VERTEX
10
0.2102
20
-59.6164
0
VERTEX
10
0.2209
20
-59.6278
0
VERTEX
10
0.2320
20
-59.6392
0
VERTEX
10
0.2433
20
-59.6506
0
VERTEX
10
0.2547
20
-59.6619
0
VERTEX
10
0.2660
20
-59.6733
0
VERTEX
10
0.2769
20
-59.6847
0
VERTEX
10
0.2873
20
-59.6961
0
VERTEX
10
0.2970
20
-59.7075
0
VERTEX
10
0.3060
20
-59.7188
0
VERTEX
10
0.3139
20
-59.7302
0
VERTEX
10
0.3207
20
-59.7416
0
VERTEX
10
0.3263
20
-59.7530
0
VERTEX
10
0.3306
20
-59.7644
0
VERTEX
10
0.3334
20
-59.7757
0
VERTEX
10
0.3349
20
-59.7871
0
VERTEX
10
0.3349
20
-59.7985
0
VERTEX
10
0.3334
20
-59.8099
0
VERTEX
10
0.3306
20
-59.8212
0
VERTEX
10
0.3263
20
-59.8326
0
VERTEX
10
0.3207
20
-59.8440
0
VERTEX
10
0.3139
20
-59.8554
0
VERTEX
10
0.3060
20
-59.8668
0
VERTEX
10
0.2970
20
-59.8781
0
VERTEX
10
0.2873
20
-59.8895
0
VERTEX
10
0.2769
20
-59.9009
0
VERTEX
10
0.2660
20
-59.9123
0
VERTEX
10
0.2547
20
-59.9237
0
VERTEX
10
0.2433
20
-59.9350
0
VERTEX
10
0.2320
20
-59.9464
0
VERTEX
10
0.2209
20
-59.9578
0
VERTEX
10
0.2102
20
-59.9692
0
VERTEX
10
0.2001
20
-59.9806
0
VERTEX
10
0.1907
20
-59.9919
0
VERTEX
10
0.1823
20
-60.0033
0
VERTEX
10
0.1749
20
-60.0147
0
VERTEX
10
0.1687
20
-60.0261
0
VERTEX
10
0.1638
20
-60.0375
0
VERTEX
10
0.1602
20
-60.0488
0
VERTEX
10
0.1580
20
-60.0602
0
VERTEX
10
0.1573
20
-60.0716
0
SEQEND
0
POLYLINE
8
M1_Neg
70
1
0
VERTEX
10
-0.7573
20
-59.5140
0
VERTEX
10
-0.7580
20
-59.5026
0
VERTEX
10
-0.7602
20
-59.4912
0
VERTEX
10
-0.7638
20
-59.4799
0
VERTEX
10
-0.7687
20
-59.4685
0
VERTEX
10
-0.7749
20
-59.4571
0
VERTEX
10
-0.7823
20
-59.4457
0
VERTEX
10
-0.7907
20
-59.4343
0
VERTEX
10
-0.8001
20
-59.4230
0
VERTEX
10
-0.8102
20
-59.4116
0
VERTEX
10
-0.8209
20
-59.4002
0
VERTEX
10
-0.8320
20
-59.3888
0
VERTEX
10
-0.8433
20
-59.3774
0
VERTEX
10
-0.8547
20
-59.3661
0
VERTEX
10
-0.8660
20
-59.3547
0
VERTEX
10
-0.8769
20
-59.3433
0
VERTEX
10
-0.8873
20
-59.3319
0
VERTEX
10
-0.8970
20
-59.3205
0
VERTEX
10
-0.9060
20
-59.3092
0
VERTEX
10
-0.9139
20
-59.2978
0
VERTEX
10
-0.9207
20
-59.2864
0
VERTEX
10
-0.9263
20
-59.2750
0
VERTEX
10
-0.9306
20
-59.2636
0
VERTEX
10
-0.9334
20
-59.2523
0
VERTEX
10
-0.9349
20
-59.2409
0
VERTEX
10
-0.9349
20
-59.2295
0
VERTEX
10
-0.9334
20
-59.2181
0
VERTEX
10
-0.9306
20
-59.2068
0
VERTEX
10
-0.9263
20
-59.1954
0
VERTEX
10
-0.9207
20
-59.1840
0
VERTEX
10
-0.9139
20
-59.1726
0
VERTEX
10
-0.9060
20
-59.1612
0
VERTEX
10
-0.8970
20
-59.1499
0
VERTEX
10
-0.8873
20
-59.1385
0
VERTEX
10
-0.8769
20
-59.1271
0
VERTEX
10
-0.8660
20
-59.1157
0
VERTEX
10
-0.8547
20
-59.1043
0
VERTEX
10
-0.8433
20
-59.0930
0
VERTEX
10
-0.8320
20
-59.0816
0
VERTEX
10
-0.8209
20
-59.0702
0
VERTEX
10
-0.8102
20
-59.0588
0
VERTEX
10
-0.8001
20
-59.0474
0
VERTEX
10
-0.7907
20
-59.0361
0
VERTEX
10
-0.7823
20
-59.0247
0
VERTEX
10
-0.7749
20
-59.0133
0
VERTEX
10
-0.7687
20
-59.0019
0
VERTEX
10
-0.7638
20
-58.9905
0
VERTEX
10
-0.7602
20
-58.9792
0
VERTEX
10
-0.7580
20
-58.9678
0
VERTEX
10
-0.7573
20
-58.9564
0
VERTEX
10
0.1573
20
-58.9564
0
VERTEX
10
0.1580
20
-58.9678
0
VERTEX
10
0.1602
20
-58.9792
0
VERTEX
10
0.1638
20
-58.9905
0
VERTEX
10
0.1687
20
-59.0019
0
VERTEX
10
0.1749
20
-59.0133
0
VERTEX
10
0.1823
20
-59.0247
0
VERTEX
10
0.1907
20
-59.0361
0
VERTEX
10
0.2001
20
-59.0474
0
VERTEX
10
0.2102
20
-59.0588
0
VERTEX
10
0.2209
20
-59.0702
0
VERTEX
10
0.2320
20
-59.0816
0
VERTEX
10
0.2433
20
-59.0930
0
VERTEX
10
0.2547
20
-59.1043
0
VERTEX
10
0.2660
20
-59.1157
0
VERTEX
10
0.2769
20
-59.1271
0
VERTEX
10
0.2873
20
-59.1385
0
VERTEX
10
0.2970
20
-59.1499
0
VERTEX
10
0.3060
20
-59.1612
0
VERTEX
10
0.3139
20
-59.1726
0
VERTEX
10
0.3207
20
-59.1840
0
VERTEX
10
0.3263
20
-59.1954
0
VERTEX
10
0.3306
20
-59.2068
0
VERTEX
10
0.3334
20
-59.2181
0
VERTEX
10
0.3349
20
-59.2295
0
VERTEX
10
0.3349
20
-59.2409
0
VERTEX
10
0.3334
20
-59.2523
0
VERTEX
10
0.3306
20
-59.2636
0
VERTEX
10
0.3263
20
-59.2750
0
VERTEX
10
0.3207
20
-59.2864
0
VERTEX
10
0.3139
20
-59.2978
0
VERTEX
10
0.3060
20
-59.3092
0
VERTEX
10
0.2970
20
-59.3205
0
VERTEX
10
0.2873
20
-59.3319
0
VERTEX
10
0.2769
20
-59.3433
0
VERTEX
10
0.2660
20
-59.3547
0
VERTEX
10
0.2547
20
-59.3661
0
VERTEX
10
0.2433
20
-59.3774
0
VERTEX
10
0.2320
20
-59.3888
0
VERTEX
10
0.2209
20
-59.4002
0
VERTEX
10
0.2102
20
-59.4116
0
VERTEX
10
0.2001
20
-59.4230
0
VERTEX
10
0.1907
20
-59.4343
0
VERTEX
10
0.1823
20
-59.4457
0
VERTEX
10
0.1749
20
-59.4571
0
VERTEX
10
0.1687
20
-59.4685
0
VERTEX
10
0.1638
20
-59.4799
0
VERTEX
10
0.1602
20
-59.4912
0
VERTEX
10
0.1580
20
-59.5026
0
VERTEX
10
0.1573
20
-59.5140
0
SEQEND
0
POLYLINE
8
M1_Neg
70
1
0
VERTEX
10
-0.7573
20
-58.9564
0
VERTEX
10
-0.7580
20
-58.9450
0
VERTEX
10
-0.7602
20
-58.9336
0
VERTEX
10
-0.7638
20
-58.9223
0
VERTEX
10
-0.7687
20
-58.9109
0
VERTEX
10
-0.7749
20
-58.8995
0
VERTEX
10
-0.7823
20
-58.8881
0
VERTEX
10
-0.7907
20
-58.8767
0
VERTEX
10
-0.8001
20
-58.8654
0
VERTEX
10
-0.8102
20
-58.8540
0
VERTEX
10
-0.8209
20
-58.8426
0
VERTEX
10
-0.8320
20
-58.8312
0
VERTEX
10
-0.8433
20
-58.8198
0
VERTEX
10
-0.8547
20
-58.8085
0
VERTEX
10
-0.8660
20
-58.7971
0
VERTEX
10
-0.8769
20
-58.7857
0
VERTEX
10
-0.8873
20
-58.7743
0
VERTEX
10
-0.8970
20
-58.7629
0
VERTEX
10
-0.9060
20
-58.7516
0
VERTEX
10
-0.9139
20
-58.7402
0
VERTEX
10
-0.9207
20
-58.7288
0
VERTEX
10
-0.9263
20
-58.7174
0
VERTEX
10
-0.9306
20
-58.7060
0
VERTEX
10
-0.9334
20
-58.6947
0
VERTEX
10
-0.9349
20
-58.6833
0
VERTEX
10
-0.9349
20
-58.6719
0
VERTEX
10
-0.9334
20
-58.6605
0
VERTEX
10
-0.9306
20
-58.6492
0
VERTEX
10
-0.9263
20
-58.6378
0
VERTEX
10
-0.9207
20
-58.6264
0
VERTEX
10
-0.9139
20
-58.6150
0
VERTEX
10
-0.9060
20
-58.6036
0
VERTEX
10
-0.8970
20
-58.5923
0
VERTEX
10
-0.8873
20
-58.5809
0
VERTEX
10
-0.8769
20
-58.5695
0
VERTEX
10
-0.8660
20
-58.5581
0
VERTEX
10
-0.8547
20
-58.5467
0
VERTEX
10
-0.8433
20
-58.5354
0
VERTEX
10
-0.8320
20
-58.5240
0
VERTEX
10
-0.8209
20
-58.5126
0
VERTEX
10
-0.8102
20
-58.5012
0
VERTEX
10
-0.8001
20
-58.4898
0
VERTEX
10
-0.7907
20
-58.4785
0
VERTEX
10
-0.7823
20
-58.4671
0
VERTEX
10
-0.7749
20
-58.4557
0
VERTEX
10
-0.7687
20
-58.4443
0
VERTEX
10
-0.7638
20
-58.4329
0
VERTEX
10
-0.7602
20
-58.4216
0
VERTEX
10
-0.7580
20
-58.4102
0
VERTEX
10
-0.7573
20
-58.3988
0
VERTEX
10
0.1573
20
-58.3988
0
VERTEX
10
0.1580
20
-58.4102
0
VERTEX
10
0.1602
20
-58.4216
0
VERTEX
10
0.1638
20
-58.4329
0
VERTEX
10
0.1687
20
-58.4443
0
VERTEX
10
0.1749
20
-58.4557
0
VERTEX
10
0.1823
20
-58.4671
0
VERTEX
10
0.1907
20
-58.4785
0
VERTEX
10
0.2001
20
-58.4898
0
VERTEX
10
0.2102
20
-58.5012
0
VERTEX
10
0.2209
20
-58.5126
0
VERTEX
10
0.2320
20
-58.5240
0
VERTEX
10
0.2433
20
-58.5354
0
VERTEX
10
0.2547
20
-58.5467
0
VERTEX
10
0.2660
20
-58.5581
0
VERTEX
10
0.2769
20
-58.5695
0
VERTEX
10
0.2873
20
-58.5809
0
VERTEX
10
0.2970
20
-58.5923
0
VERTEX
10
0.3060
20
-58.6036
0
VERTEX
10
0.3139
20
-58.6150
0
VERTEX
10
0.3207
20
-58.6264
0
VERTEX
10
0.3263
20
-58.6378
0
VERTEX
10
0.3306
20
-58.6492
0
VERTEX
10
0.3334
20
-58.6605
0
VERTEX
10
0.3349
20
-58.6719
0
VERTEX
10
0.3349
20
-58.6833
0
VERTEX
10
0.3334
20
-58.6947
0
VERTEX
10
0.3306
20
-58.7060
0
VERTEX
10
0.3263
20
-58.7174
0
VERTEX
10
0.3207
20
-58.7288
0
VERTEX
10
0.3139
20
-58.7402
0
VERTEX
10
0.3060
20
-58.7516
0
VERTEX
10
0.2970
20
-58.7629
0
VERTEX
10
0.2873
20
-58.7743
0
VERTEX
10
0.2769
20
-58.7857
0
VERTEX
10
0.2660
20
-58.7971
0
VERTEX
10
0.2547
20
-58.8085
0
VERTEX
10
0.2433
20
-58.8198
0
VERTEX
10
0.2320
20
-58.8312
0
VERTEX
10
0.2209
20
-58.8426
0
VERTEX
10
0.2102
20
-58.8540
0
VERTEX
10
0.2001
20
-58.8654
0
VERTEX
10
0.1907
20
-58.8767
0
VERTEX
10
0.1823
20
-58.8881
0
VERTEX
10
0.1749
20
-58.8995
0
VERTEX
10
0.1687
20
-58.9109
0
VERTEX
10
0.1638
20
-58.9223
0
VERTEX
10
0.1602
20
-58.9336
0
VERTEX
10
0.1580
20
-58.9450
0
VERTEX
10
0.1573
20
-58.9564
0
SEQEND
0
POLYLINE
8
M1_Neg
70
1
0
VERTEX
10
-0.7573
20
-58.3988
0
VERTEX
10
-0.7580
20
-58.3874
0
VERTEX
10
-0.7602
20
-58.3760
0
VERTEX
10
-0.7638
20
-58.3647
0
VERTEX
10
-0.7687
20
-58.3533
0
VERTEX
10
-0.7749
20
-58.3419
0
VERTEX
10
-0.7823
20
-58.3305
0
VERTEX
10
-0.7907
20
-58.3191
0
VERTEX
10
-0.8001
20
-58.3078
0
VERTEX
10
-0.8102
20
-58.2964
0
VERTEX
10
-0.8209
20
-58.2850
0
VERTEX
10
-0.8320
20
-58.2736
0
VERTEX
10
-0.8433
20
-58.2622
0
VERTEX
10
-0.8547
20
-58.2509
0
VERTEX
10
-0.8660
20
-58.2395
0
VERTEX
10
-0.8769
20
-58.2281
0
VERTEX
10
-0.8873
20
-58.2167
0
VERTEX
10
-0.8970
20
-58.2053
0
VERTEX
10
-0.9060
20
-58.1940
0
VERTEX
10
-0.9139
20
-58.1826
0
VERTEX
10
-0.9207
20
-58.1712
0
VERTEX
10
-0.9263
20
-58.1598
0
VERTEX
10
-0.9306
20
-58.1484
0
VERTEX
10
-0.9334
20
-58.1371
0
VERTEX
10
-0.9349
20
-58.1257
0
VERTEX
10
-0.9349
20
-58.1143
0
VERTEX
10
-0.9334
20
-58.1029
0
VERTEX
10
-0.9306
20
-58.0916
0
VERTEX
10
-0.9263
20
-58.0802
0
VERTEX
10
-0.9207
20
-58.0688
0
VERTEX
10
-0.9139
20
-58.0574
0
VERTEX
10
-0.9060
20
-58.0460
0
VERTEX
10
-0.8970
20
-58.0347
0
VERTEX
10
-0.8873
20
-58.0233
0
VERTEX
10
-0.8769
20
-58.0119
0
VERTEX
10
-0.8660
20
-58.0005
0
VERTEX
10
-0.8547
20
-57.9891
0
VERTEX
10
-0.8433
20
-57.9778
0
VERTEX
10
-0.8320
20
-57.9664
0
VERTEX
10
-0.8209
20
-57.9550
0
VERTEX
10
-0.8102
20
-57.9436
0
VERTEX
10
-0.8001
20
-57.9322
0
VERTEX
10
-0.7907
20
-57.9209
0
VERTEX
10
-0.7823
20
-57.9095
0
VERTEX
10
-0.7749
20
-57.8981
0
VERTEX
10
-0.7687
20
-57.8867
0
VERTEX
10
-0.7638
20
-57.8753
0
VERTEX
10
-0.7602
20
-57.8640
0
VERTEX
10
-0.7580
20
-57.8526
0
VERTEX
10
-0.7573
20
-57.8412
0
VERTEX
10
0.1573
20
-57.8412
0
VERTEX
10
0.1580
20
-57.8526
0
VERTEX
10
0.1602
20
-57.8640
0
VERTEX
10
0.1638
20
-57.8753
0
VERTEX
10
0.1687
20
-57.8867
0
VERTEX
10
0.1749
20
-57.8981
0
VERTEX
10
0.1823
20
-57.9095
0
VERTEX
10
0.1907
20
-57.9209
0
VERTEX
10
0.2001
20
-57.9322
0
VERTEX
10
0.2102
20
-57.9436
0
VERTEX
10
0.2209
20
-57.9550
0
VERTEX
10
0.2320
20
-57.9664
0
VERTEX
10
0.2433
20
-57.9778
0
VERTEX
10
0.2547
20
-57.9891
0
VERTEX
10
0.2660
20
-58.0005
0
VERTEX
10
0.2769
20
-58.0119
0
VERTEX
10
0.2873
20
-58.0233
0
VERTEX
10
0.2970
20
-58.0347
0
VERTEX
10
0.3060
20
-58.0460
0
VERTEX
10
0.3139
20
-58.0574
0
VERTEX
10
0.3207
20
-58.0688
0
VERTEX
10
0.3263
20
-58.0802
0
VERTEX
10
0.3306
20
-58.0916
0
VERTEX
10
0.3334
20
-58.1029
0
VERTEX
10
0.3349
20
-58.1143
0
VERTEX
10
0.3349
20
-58.1257
0
VERTEX
10
0.3334
20
-58.1371
0
VERTEX
10
0.3306
20
-58.1484
0
VERTEX
10
0.3263
20
-58.1598
0
VERTEX
10
0.3207
20
-58.1712
0
VERTEX
10
0.3139
20
-58.1826
0
VERTEX
10
0.3060
20
-58.1940
0
VERTEX
10
0.2970
20
-58.2053
0
VERTEX
10
0.2873
20
-58.2167
0
VERTEX
10
0.2769
20
-58.2281
0
VERTEX
10
0.2660
20
-58.2395
0
VERTEX
10
0.2547
20
-58.2509
0
VERTEX
10
0.2433
20
-58.2622
0
VERTEX
10
0.2320
20
-58.2736
0
VERTEX
10
0.2209
20
-58.2850
0
VERTEX
10
0.2102
20
-58.2964
0
VERTEX
10
0.2001
20
-58.3078
0
VERTEX
10
0.1907
20
-58.3191
0
VERTEX
10
0.1823
20
-58.3305
0
VERTEX
10
0.1749
20
-58.3419
0
VERTEX
10
0.1687
20
-58.3533
0
VERTEX
10
0.1638
20
-58.3647
0
VERTEX
10
0.1602
20
-58.3760
0
VERTEX
10
0.1580
20
-58.3874
0
VERTEX
10
0.1573
20
-58.3988
0
SEQEND
0
POLYLINE
8
M1_Neg
70
1
0
VERTEX
10
-0.7573
20
-57.8412
0
VERTEX
10
-0.7580
20
-57.8298
0
VERTEX
10
-0.7602
20
-57.8184
0
VERTEX
10
-0.7638
20
-57.8071
0
VERTEX
10
-0.7687
20
-57.7957
0
VERTEX
10
-0.7749
20
-57.7843
0
VERTEX
10
-0.7823
20
-57.7729
0
VERTEX
10
-0.7907
20
-57.7615
0
VERTEX
10
-0.8001
20
-57.7502
0
VERTEX
10
-0.8102
20
-57.7388
0
VERTEX
10
-0.8209
20
-57.7274
0
VERTEX
10
-0.8320
20
-57.7160
0
VERTEX
10
-0.8433
20
-57.7046
0
VERTEX
10
-0.8547
20
-57.6933
0
VERTEX
10
-0.8660
20
-57.6819
0
VERTEX
10
-0.8769
20
-57.6705
0
VERTEX
10
-0.8873
20
-57.6591
0
VERTEX
10
-0.8970
20
-57.6477
0
VERTEX
10
-0.9060
20
-57.6364
0
VERTEX
10
-0.9139
20
-57.6250
0
VERTEX
10
-0.9207
20
-57.6136
0
VERTEX
10
-0.9263
20
-57.6022
0
VERTEX
10
-0.9306
20
-57.5908
0
VERTEX
10
-0.9334
20
-57.5795
0
VERTEX
10
-0.9349
20
-57.5681
0
VERTEX
10
-0.9349
20
-57.5567
0
VERTEX
10
-0.9334
20
-57.5453
0
VERTEX
10
-0.9306
20
-57.5340
0
VERTEX
10
-0.9263
20
-57.5226
0
VERTEX
10
-0.9207
20
-57.5112
0
VERTEX
10
-0.9139
20
-57.4998
0
VERTEX
10
-0.9060
20
-57.4884
0
VERTEX
10
-0.8970
20
-57.4771
0
VERTEX
10
-0.8873
20
-57.4657
0
VERTEX
10
-0.8769
20
-57.4543
0
VERTEX
10
-0.8660
20
-57.4429
0
VERTEX
10
-0.8547
20
-57.4315
0
VERTEX
10
-0.8433
20
-57.4202
0
VERTEX
10
-0.8320
20
-57.4088
0
VERTEX
10
-0.8209
20
-57.3974
0
VERTEX
10
-0.8102
20
-57.3860
0
VERTEX
10
-0.8001
20
-57.3746
0
VERTEX
10
-0.7907
20
-57.3633
0
VERTEX
10
-0.7823
20
-57.3519
0
VERTEX
10
-0.7749
20
-57.3405
0
VERTEX
10
-0.7687
20
-57.3291
0
VERTEX
10
-0.7638
20
-57.3177
0
VERTEX
10
-0.7602
20
-57.3064
0
VERTEX
10
-0.7580
20
-57.2950
0
VERTEX
10
-0.7573
20
-57.2836
0
VERTEX
10
0.1573
20
-57.2836
0
VERTEX
10
0.1580
20
-57.2950
0
VERTEX
10
0.1602
20
-57.3064
0
VERTEX
10
0.1638
20
-57.3177
0
VERTEX
10
0.1687
20
-57.3291
0
VERTEX
10
0.1749
20
-57.3405
0
VERTEX
10
0.1823
20
-57.3519
0
VERTEX
10
0.1907
20
-57.3633
0
VERTEX
10
0.2001
20
-57.3746
0
VERTEX
10
0.2102
20
-57.3860
0
VERTEX
10
0.2209
20
-57.3974
0
VERTEX
10
0.2320
20
-57.4088
0
VERTEX
10
0.2433
20
-57.4202
0
VERTEX
10
0.2547
20
-57.4315
0
VERTEX
10
0.2660
20
-57.4429
0
VERTEX
10
0.2769
20
-57.4543
0
VERTEX
10
0.2873
20
-57.4657
0
VERTEX
10
0.2970
20
-57.4771
0
VERTEX
10
0.3060
20
-57.4884
0
VERTEX
10
0.3139
20
-57.4998
0
VERTEX
10
0.3207
20
-57.5112
0
VERTEX
10
0.3263
20
-57.5226
0
VERTEX
10
0.3306
20
-57.5340
0
VERTEX
10
0.3334
20
-57.5453
0
VERTEX
10
0.3349
20
-57.5567
0
VERTEX
10
0.3349
20
-57.5681
0
VERTEX
10
0.3334
20
-57.5795
0
VERTEX
10
0.3306
20
-57.5908
0
VERTEX
10
0.3263
20
-57.6022
0
VERTEX
10
0.3207
20
-57.6136
0
VERTEX
10
0.3139
20
-57.6250
0
VERTEX
10
0.3060
20
-57.6364
0
VERTEX
10
0.2970
20
-57.6477
0
VERTEX
10
0.2873
20
-57.6591
0
VERTEX
10
0.2769
20
-57.6705
0
VERTEX
10
0.2660
20
-57.6819
0
VERTEX
10
0.2547
20
-57.6933
0
VERTEX
10
0.2433
20
-57.7046
0
VERTEX
10
0.2320
20
-57.7160
0
VERTEX
10
0.2209
20
-57.7274
0
VERTEX
10
0.2102
20
-57.7388
0
VERTEX
10
0.2001
20
-57.7502
0
VERTEX
10
0.1907
20
-57.7615
0
VERTEX
10
0.1823
20
-57.7729
0
VERTEX
10
0.1749
20
-57.7843
0
VERTEX
10
0.1687
20
-57.7957
0
VERTEX
10
0.1638
20
-57.8071
0
VERTEX
10
0.1602
20
-57.8184
0
VERTEX
10
0.1580
20
-57.8298
0
VERTEX
10
0.1573
20
-57.8412
0
SEQEND
0
POLYLINE
8
M1_Neg
70
1
0
VERTEX
10
-0.7573
20
-57.2836
0
VERTEX
10
-0.7580
20
-57.2722
0
VERTEX
10
-0.7602
20
-57.2608
0
VERTEX
10
-0.7638
20
-57.2495
0
VERTEX
10
-0.7687
20
-57.2381
0
VERTEX
10
-0.7749
20
-57.2267
0
VERTEX
10
-0.7823
20
-57.2153
0
VERTEX
10
-0.7907
20
-57.2039
0
VERTEX
10
-0.8001
20
-57.1926
0
VERTEX
10
-0.8102
20
-57.1812
0
VERTEX
10
-0.8209
20
-57.1698
0
VERTEX
10
-0.8320
20
-57.1584
0
VERTEX
10
-0.8433
20
-57.1470
0
VERTEX
10
-0.8547
20
-57.1357
0
VERTEX
10
-0.8660
20
-57.1243
0
VERTEX
10
-0.8769
20
-57.1129
0
VERTEX
10
-0.8873
20
-57.1015
0
VERTEX
10
-0.8970
20
-57.0901
0
VERTEX
10
-0.9060
20
-57.0788
0
VERTEX
10
-0.9139
20
-57.0674
0
VERTEX
10
-0.9207
20
-57.0560
0
VERTEX
10
-0.9263
20
-57.0446
0
VERTEX
10
-0.9306
20
-57.0332
0
VERTEX
10
-0.9334
20
-57.0219
0
VERTEX
10
-0.9349
20
-57.0105
0
VERTEX
10
-0.9349
20
-56.9991
0
VERTEX
10
-0.9334
20
-56.9877
0
VERTEX
10
-0.9306
20
-56.9764
0
VERTEX
10
-0.9263
20
-56.9650
0
VERTEX
10
-0.9207
20
-56.9536
0
VERTEX
10
-0.9139
20
-56.9422
0
VERTEX
10
-0.9060
20
-56.9308
0
VERTEX
10
-0.8970
20
-56.9195
0
VERTEX
10
-0.8873
20
-56.9081
0
VERTEX
10
-0.8769
20
-56.8967
0
VERTEX
10
-0.8660
20
-56.8853
0
VERTEX
10
-0.8547
20
-56.8739
0
VERTEX
10
-0.8433
20
-56.8626
0
VERTEX
10
-0.8320
20
-56.8512
0
VERTEX
10
-0.8209
20
-56.8398
0
VERTEX
10
-0.8102
20
-56.8284
0
VERTEX
10
-0.8001
20
-56.8170
0
VERTEX
10
-0.7907
20
-56.8057
0
VERTEX
10
-0.7823
20
-56.7943
0
VERTEX
10
-0.7749
20
-56.7829
0
VERTEX
10
-0.7687
20
-56.7715
0
VERTEX
10
-0.7638
20
-56.7601
0
VERTEX
10
-0.7602
20
-56.7488
0
VERTEX
10
-0.7580
20
-56.7374
0
VERTEX
10
-0.7573
20
-56.7260
0
VERTEX
10
0.1573
20
-56.7260
0
VERTEX
10
0.1580
20
-56.7374
0
VERTEX
10
0.1602
20
-56.7488
0
VERTEX
10
0.1638
20
-56.7601
0
VERTEX
10
0.1687
20
-56.7715
0
VERTEX
10
0.1749
20
-56.7829
0
VERTEX
10
0.1823
20
-56.7943
0
VERTEX
10
0.1907
20
-56.8057
0
VERTEX
10
0.2001
20
-56.8170
0
VERTEX
10
0.2102
20
-56.8284
0
VERTEX
10
0.2209
20
-56.8398
0
VERTEX
10
0.2320
20
-56.8512
0
VERTEX
10
0.2433
20
-56.8626
0
VERTEX
10
0.2547
20
-56.8739
0
VERTEX
10
0.2660
20
-56.8853
0
VERTEX
10
0.2769
20
-56.8967
0
VERTEX
10
0.2873
20
-56.9081
0
VERTEX
10
0.2970
20
-56.9195
0
VERTEX
10
0.3060
20
-56.9308
0
VERTEX
10
0.3139
20
-56.9422
0
VERTEX
10
0.3207
20
-56.9536
0
VERTEX
10
0.3263
20
-56.9650
0
VERTEX
10
0.3306
20
-56.9764
0
VERTEX
10
0.3334
20
-56.9877
0
VERTEX
10
0.3349
20
-56.9991
0
VERTEX
10
0.3349
20
-57.0105
0
VERTEX
10
0.3334
20
-57.0219
0
VERTEX
10
0.3306
20
-57.0332
0
VERTEX
10
0.3263
20
-57.0446
0
VERTEX
10
0.3207
20
-57.0560
0
VERTEX
10
0.3139
20
-57.0674
0
VERTEX
10
0.3060
20
-57.0788
0
VERTEX
10
0.2970
20
-57.0901
0
VERTEX
10
0.2873
20
-57.1015
0
VERTEX
10
0.2769
20
-57.1129
0
VERTEX
10
0.2660
20
-57.1243
0
VERTEX
10
0.2547
20
-57.1357
0
VERTEX
10
0.2433
20
-57.1470
0
VERTEX
10
0.2320
20
-57.1584
0
VERTEX
10
0.2209
20
-57.1698
0
VERTEX
10
0.2102
20
-57.1812
0
VERTEX
10
0.2001
20
-57.1926
0
VERTEX
10
0.1907
20
-57.2039
0
VERTEX
10
0.1823
20
-57.2153
0
VERTEX
10
0.1749
20
-57.2267
0
VERTEX
10
0.1687
20
-57.2381
0
VERTEX
10
0.1638
20
-57.2495
0
VERTEX
10
0.1602
20
-57.2608
0
VERTEX
10
0.1580
20
-57.2722
0
VERTEX
10
0.1573
20
-57.2836
0
SEQEND
0
POLYLINE
8
M1_Neg
70
1
0
VERTEX
10
-0.7573
20
-56.7260
0
VERTEX
10
-0.7580
20
-56.7146
0
VERTEX
10
-0.7602
20
-56.7032
0
VERTEX
10
-0.7638
20
-56.6919
0
VERTEX
10
-0.7687
20
-56.6805
0
VERTEX
10
-0.7749
20
-56.6691
0
VERTEX
10
-0.7823
20
-56.6577
0
VERTEX
10
-0.7907
20
-56.6463
0
VERTEX
10
-0.8001
20
-56.6350
0
VERTEX
10
-0.8102
20
-56.6236
0
VERTEX
10
-0.8209
20
-56.6122
0
VERTEX
10
-0.8320
20
-56.6008
0
VERTEX
10
-0.8433
20
-56.5894
0
VERTEX
10
-0.8547
20
-56.5781
0
VERTEX
10
-0.8660
20
-56.5667
0
VERTEX
10
-0.8769
20
-56.5553
0
VERTEX
10
-0.8873
20
-56.5439
0
VERTEX
10
-0.8970
20
-56.5325
0
VERTEX
10
-0.9060
20
-56.5212
0
VERTEX
10
-0.9139
20
-56.5098
0
VERTEX
10
-0.9207
20
-56.4984
0
VERTEX
10
-0.9263
20
-56.4870
0
VERTEX
10
-0.9306
20
-56.4756
0
VERTEX
10
-0.9334
20
-56.4643
0
VERTEX
10
-0.9349
20
-56.4529
0
VERTEX
10
-0.9349
20
-56.4415
0
VERTEX
10
-0.9334
20
-56.4301
0
VERTEX
10
-0.9306
20
-56.4188
0
VERTEX
10
-0.9263
20
-56.4074
0
VERTEX
10
-0.9207
20
-56.3960
0
VERTEX
10
-0.9139
20
-56.3846
0
VERTEX
10
-0.9060
20
-56.3732
0
VERTEX
10
-0.8970
20
-56.3619
0
VERTEX
10
-0.8873
20
-56.3505
0
VERTEX
10
-0.8769
20
-56.3391
0
VERTEX
10
-0.8660
20
-56.3277
0
VERTEX
10
-0.8547
20
-56.3163
0
VERTEX
10
-0.8433
20
-56.3050
0
VERTEX
10
-0.8320
20
-56.2936
0
VERTEX
10
-0.8209
20
-56.2822
0
VERTEX
10
-0.8102
20
-56.2708
0
VERTEX
10
-0.8001
20
-56.2594
0
VERTEX
10
-0.7907
20
-56.2481
0
VERTEX
10
-0.7823
20
-56.2367
0
VERTEX
10
-0.7749
20
-56.2253
0
VERTEX
10
-0.7687
20
-56.2139
0
VERTEX
10
-0.7638
20
-56.2025
0
VERTEX
10
-0.7602
20
-56.1912
0
VERTEX
10
-0.7580
20
-56.1798
0
VERTEX
10
-0.7573
20
-56.1684
0
VERTEX
10
0.1573
20
-56.1684
0
VERTEX
10
0.1580
20
-56.1798
0
VERTEX
10
0.1602
20
-56.1912
0
VERTEX
10
0.1638
20
-56.2025
0
VERTEX
10
0.1687
20
-56.2139
0
VERTEX
10
0.1749
20
-56.2253
0
VERTEX
10
0.1823
20
-56.2367
0
VERTEX
10
0.1907
20
-56.2481
0
VERTEX
10
0.2001
20
-56.2594
0
VERTEX
10
0.2102
20
-56.2708
0
VERTEX
10
0.2209
20
-56.2822
0
VERTEX
10
0.2320
20
-56.2936
0
VERTEX
10
0.2433
20
-56.3050
0
VERTEX
10
0.2547
20
-56.3163
0
VERTEX
10
0.2660
20
-56.3277
0
VERTEX
10
0.2769
20
-56.3391
0
VERTEX
10
0.2873
20
-56.3505
0
VERTEX
10
0.2970
20
-56.3619
0
VERTEX
10
0.3060
20
-56.3732
0
VERTEX
10
0.3139
20
-56.3846
0
VERTEX
10
0.3207
20
-56.3960
0
VERTEX
10
0.3263
20
-56.4074
0
VERTEX
10
0.3306
20
-56.4188
0
VERTEX
10
0.3334
20
-56.4301
0
VERTEX
10
0.3349
20
-56.4415
0
VERTEX
10
0.3349
20
-56.4529
0
VERTEX
10
0.3334
20
-56.4643
0
VERTEX
10
0.3306
20
-56.4756
0
VERTEX
10
0.3263
20
-56.4870
0
VERTEX
10
0.3207
20
-56.4984
0
VERTEX
10
0.3139
20
-56.5098
0
VERTEX
10
0.3060
20
-56.5212
0
VERTEX
10
0.2970
20
-56.5325
0
VERTEX
10
0.2873
20
-56.5439
0
VERTEX
10
0.2769
20
-56.5553
0
VERTEX
10
0.2660
20
-56.5667
0
VERTEX
10
0.2547
20
-56.5781
0
VERTEX
10
0.2433
20
-56.5894
0
VERTEX
10
0.2320
20
-56.6008
0
VERTEX
10
0.2209
20
-56.6122
0
VERTEX
10
0.2102
20
-56.6236
0
VERTEX
10
0.2001
20
-56.6350
0
VERTEX
10
0.1907
20
-56.6463
0
VERTEX
10
0.1823
20
-56.6577
0
VERTEX
10
0.1749
20
-56.6691
0
VERTEX
10
0.1687
20
-56.6805
0
VERTEX
10
0.1638
20
-56.6919
0
VERTEX
10
0.1602
20
-56.7032
0
VERTEX
10
0.1580
20
-56.7146
0
VERTEX
10
0.1573
20
-56.7260
0
SEQEND
0
POLYLINE
8
M1_Neg
70
1
0
VERTEX
10
-0.7573
20
-56.1684
0
VERTEX
10
-0.7580
20
-56.1570
0
VERTEX
10
-0.7602
20
-56.1456
0
VERTEX
10
-0.7638
20
-56.1343
0
VERTEX
10
-0.7687
20
-56.1229
0
VERTEX
10
-0.7749
20
-56.1115
0
VERTEX
10
-0.7823
20
-56.1001
0
VERTEX
10
-0.7907
20
-56.0887
0
VERTEX
10
-0.8001
20
-56.0774
0
VERTEX
10
-0.8102
20
-56.0660
0
VERTEX
10
-0.8209
20
-56.0546
0
VERTEX
10
-0.8320
20
-56.0432
0
VERTEX
10
-0.8433
20
-56.0318
0
VERTEX
10
-0.8547
20
-56.0205
0
VERTEX
10
-0.8660
20
-56.0091
0
VERTEX
10
-0.8769
20
-55.9977
0
VERTEX
10
-0.8873
20
-55.9863
0
VERTEX
10
-0.8970
20
-55.9749
0
VERTEX
10
-0.9060
20
-55.9636
0
VERTEX
10
-0.9139
20
-55.9522
0
VERTEX
10
-0.9207
20
-55.9408
0
VERTEX
10
-0.9263
20
-55.9294
0
VERTEX
10
-0.9306
20
-55.9180
0
VERTEX
10
-0.9334
20
-55.9067
0
VERTEX
10
-0.9349
20
-55.8953
0
VERTEX
10
-0.9349
20
-55.8839
0
VERTEX
10
-0.9334
20
-55.8725
0
VERTEX
10
-0.9306
20
-55.8612
0
VERTEX
10
-0.9263
20
-55.8498
0
VERTEX
10
-0.9207
20
-55.8384
0
VERTEX
10
-0.9139
20
-55.8270
0
VERTEX
10
-0.9060
20
-55.8156
0
VERTEX
10
-0.8970
20
-55.8043
0
VERTEX
10
-0.8873
20
-55.7929
0
VERTEX
10
-0.8769
20
-55.7815
0
VERTEX
10
-0.8660
20
-55.7701
0
VERTEX
10
-0.8547
20
-55.7587
0
VERTEX
10
-0.8433
20
-55.7474
0
VERTEX
10
-0.8320
20
-55.7360
0
VERTEX
10
-0.8209
20
-55.7246
0
VERTEX
10
-0.8102
20
-55.7132
0
VERTEX
10
-0.8001
20
-55.7018
0
VERTEX
10
-0.7907
20
-55.6905
0
VERTEX
10
-0.7823
20
-55.6791
0
VERTEX
10
-0.7749
20
-55.6677
0
VERTEX
10
-0.7687
20
-55.6563
0
VERTEX
10
-0.7638
20
-55.6449
0
VERTEX
10
-0.7602
20
-55.6336
0
VERTEX
10
-0.7580
20
-55.6222
0
VERTEX
10
-0.7573
20
-55.6108
0
VERTEX
10
0.1573
20
-55.6108
0
VERTEX
10
0.1580
20
-55.6222
0
VERTEX
10
0.1602
20
-55.6336
0
VERTEX
10
0.1638
20
-55.6449
0
VERTEX
10
0.1687
20
-55.6563
0
VERTEX
10
0.1749
20
-55.6677
0
VERTEX
10
0.1823
20
-55.6791
0
VERTEX
10
0.1907
20
-55.6905
0
VERTEX
10
0.2001
20
-55.7018
0
VERTEX
10
0.2102
20
-55.7132
0
VERTEX
10
0.2209
20
-55.7246
0
VERTEX
10
0.2320
20
-55.7360
0
VERTEX
10
0.2433
20
-55.7474
0
VERTEX
10
0.2547
20
-55.7587
0
VERTEX
10
0.2660
20
-55.7701
0
VERTEX
10
0.2769
20
-55.7815
0
VERTEX
10
0.2873
20
-55.7929
0
VERTEX
10
0.2970
20
-55.8043
0
VERTEX
10
0.3060
20
-55.8156
0
VERTEX
10
0.3139
20
-55.8270
0
VERTEX
10
0.3207
20
-55.8384
0
VERTEX
10
0.3263
20
-55.8498
0
VERTEX
10
0.3306
20
-55.8612
0
VERTEX
10
0.3334
20
-55.8725
0
VERTEX
10
0.3349
20
-55.8839
0
VERTEX
10
0.3349
20
-55.8953
0
VERTEX
10
0.3334
20
-55.9067
0
VERTEX
10
0.3306
20
-55.9180
0
VERTEX
10
0.3263
20
-55.9294
0
VERTEX
10
0.3207
20
-55.9408
0
VERTEX
10
0.3139
20
-55.9522
0
VERTEX
10
0.3060
20
-55.9636
0
VERTEX
10
0.2970
20
-55.9749
0
VERTEX
10
0.2873
20
-55.9863
0
VERTEX
10
0.2769
20
-55.9977
0
VERTEX
10
0.2660
20
-56.0091
0
VERTEX
10
0.2547
20
-56.0205
0
VERTEX
10
0.2433
20
-56.0318
0
VERTEX
10
0.2320
20
-56.0432
0
VERTEX
10
0.2209
20
-56.0546
0
VERTEX
10
0.2102
20
-56.0660
0
VERTEX
10
0.2001
20
-56.0774
0
VERTEX
10
0.1907
20
-56.0887
0
VERTEX
10
0.1823
20
-56.1001
0
VERTEX
10
0.1749
20
-56.1115
0
VERTEX
10
0.1687
20
-56.1229
0
VERTEX
10
0.1638
20
-56.1343
0
VERTEX
10
0.1602
20
-56.1456
0
VERTEX
10
0.1580
20
-56.1570
0
VERTEX
10
0.1573
20
-56.1684
0
SEQEND
0
POLYLINE
8
M1_Neg
70
1
0
VERTEX
10
-0.7573
20
-55.6108
0
VERTEX
10
-0.7580
20
-55.5994
0
VERTEX
10
-0.7602
20
-55.5880
0
VERTEX
10
-0.7638
20
-55.5767
0
VERTEX
10
-0.7687
20
-55.5653
0
VERTEX
10
-0.7749
20
-55.5539
0
VERTEX
10
-0.7823
20
-55.5425
0
VERTEX
10
-0.7907
20
-55.5311
0
VERTEX
10
-0.8001
20
-55.5198
0
VERTEX
10
-0.8102
20
-55.5084
0
VERTEX
10
-0.8209
20
-55.4970
0
VERTEX
10
-0.8320
20
-55.4856
0
VERTEX
10
-0.8433
20
-55.4742
0
VERTEX
10
-0.8547
20
-55.4629
0
VERTEX
10
-0.8660
20
-55.4515
0
VERTEX
10
-0.8769
20
-55.4401
0
VERTEX
10
-0.8873
20
-55.4287
0
VERTEX
10
-0.8970
20
-55.4173
0
VERTEX
10
-0.9060
20
-55.4060
0
VERTEX
10
-0.9139
20
-55.3946
0
VERTEX
10
-0.9207
20
-55.3832
0
VERTEX
10
-0.9263
20
-55.3718
0
VERTEX
10
-0.9306
20
-55.3604
0
VERTEX
10
-0.9334
20
-55.3491
0
VERTEX
10
-0.9349
20
-55.3377
0
VERTEX
10
-0.9349
20
-55.3263
0
VERTEX
10
-0.9334
20
-55.3149
0
VERTEX
10
-0.9306
20
-55.3036
0
VERTEX
10
-0.9263
20
-55.2922
0
VERTEX
10
-0.9207
20
-55.2808
0
VERTEX
10
-0.9139
20
-55.2694
0
VERTEX
10
-0.9060
20
-55.2580
0
VERTEX
10
-0.8970
20
-55.2467
0
VERTEX
10
-0.8873
20
-55.2353
0
VERTEX
10
-0.8769
20
-55.2239
0
VERTEX
10
-0.8660
20
-55.2125
0
VERTEX
10
-0.8547
20
-55.2011
0
VERTEX
10
-0.8433
20
-55.1898
0
VERTEX
10
-0.8320
20
-55.1784
0
VERTEX
10
-0.8209
20
-55.1670
0
VERTEX
10
-0.8102
20
-55.1556
0
VERTEX
10
-0.8001
20
-55.1442
0
VERTEX
10
-0.7907
20
-55.1329
0
VERTEX
10
-0.7823
20
-55.1215
0
VERTEX
10
-0.7749
20
-55.1101
0
VERTEX
10
-0.7687
20
-55.0987
0
VERTEX
10
-0.7638
20
-55.0873
0
VERTEX
10
-0.7602
20
-55.0760
0
VERTEX
10
-0.7580
20
-55.0646
0
VERTEX
10
-0.7573
20
-55.0532
0
VERTEX
10
0.1573
20
-55.0532
0
VERTEX
10
0.1580
20
-55.0646
0
VERTEX
10
0.1602
20
-55.0760
0
VERTEX
10
0.1638
20
-55.0873
0
VERTEX
10
0.1687
20
-55.0987
0
VERTEX
10
0.1749
20
-55.1101
0
VERTEX
10
0.1823
20
-55.1215
0
VERTEX
10
0.1907
20
-55.1329
0
VERTEX
10
0.2001
20
-55.1442
0
VERTEX
10
0.2102
20
-55.1556
0
VERTEX
10
0.2209
20
-55.1670
0
VERTEX
10
0.2320
20
-55.1784
0
VERTEX
10
0.2433
20
-55.1898
0
VERTEX
10
0.2547
20
-55.2011
0
VERTEX
10
0.2660
20
-55.2125
0
VERTEX
10
0.2769
20
-55.2239
0
VERTEX
10
0.2873
20
-55.2353
0
VERTEX
10
0.2970
20
-55.2467
0
VERTEX
10
0.3060
20
-55.2580
0
VERTEX
10
0.3139
20
-55.2694
0
VERTEX
10
0.3207
20
-55.2808
0
VERTEX
10
0.3263
20
-55.2922
0
VERTEX
10
0.3306
20
-55.3036
0
VERTEX
10
0.3334
20
-55.3149
0
VERTEX
10
0.3349
20
-55.3263
0
VERTEX
10
0.3349
20
-55.3377
0
VERTEX
10
0.3334
20
-55.3491
0
VERTEX
10
0.3306
20
-55.3604
0
VERTEX
10
0.3263
20
-55.3718
0
VERTEX
10
0.3207
20
-55.3832
0
VERTEX
10
0.3139
20
-55.3946
0
VERTEX
10
0.3060
20
-55.4060
0
VERTEX
10
0.2970
20
-55.4173
0
VERTEX
10
0.2873
20
-55.4287
0
VERTEX
10
0.2769
20
-55.4401
0
VERTEX
10
0.2660
20
-55.4515
0
VERTEX
10
0.2547
20
-55.4629
0
VERTEX
10
0.2433
20
-55.4742
0
VERTEX
10
0.2320
20
-55.4856
0
VERTEX
10
0.2209
20
-55.4970
0
VERTEX
10
0.2102
20
-55.5084
0
VERTEX
10
0.2001
20
-55.5198
0
VERTEX
10
0.1907
20
-55.5311
0
VERTEX
10
0.1823
20
-55.5425
0
VERTEX
10
0.1749
20
-55.5539
0
VERTEX
10
0.1687
20
-55.5653
0
VERTEX
10
0.1638
20
-55.5767
0
VERTEX
10
0.1602
20
-55.5880
0
VERTEX
10
0.1580
20
-55.5994
0
VERTEX
10
0.1573
20
-55.6108
0
SEQEND
0
POLYLINE
8
M1_Neg
70
1
0
VERTEX
10
-0.7573
20
-55.0532
0
VERTEX
10
-0.7580
20
-55.0418
0
VERTEX
10
-0.7602
20
-55.0304
0
VERTEX
10
-0.7638
20
-55.0191
0
VERTEX
10
-0.7687
20
-55.0077
0
VERTEX
10
-0.7749
20
-54.9963
0
VERTEX
10
-0.7823
20
-54.9849
0
VERTEX
10
-0.7907
20
-54.9735
0
VERTEX
10
-0.8001
20
-54.9622
0
VERTEX
10
-0.8102
20
-54.9508
0
VERTEX
10
-0.8209
20
-54.9394
0
VERTEX
10
-0.8320
20
-54.9280
0
VERTEX
10
-0.8433
20
-54.9166
0
VERTEX
10
-0.8547
20
-54.9053
0
VERTEX
10
-0.8660
20
-54.8939
0
VERTEX
10
-0.8769
20
-54.8825
0
VERTEX
10
-0.8873
20
-54.8711
0
VERTEX
10
-0.8970
20
-54.8597
0
VERTEX
10
-0.9060
20
-54.8484
0
VERTEX
10
-0.9139
20
-54.8370
0
VERTEX
10
-0.9207
20
-54.8256
0
VERTEX
10
-0.9263
20
-54.8142
0
VERTEX
10
-0.9306
20
-54.8028
0
VERTEX
10
-0.9334
20
-54.7915
0
VERTEX
10
-0.9349
20
-54.7801
0
VERTEX
10
-0.9349
20
-54.7687
0
VERTEX
10
-0.9334
20
-54.7573
0
VERTEX
10
-0.9306
20
-54.7460
0
VERTEX
10
-0.9263
20
-54.7346
0
VERTEX
10
-0.9207
20
-54.7232
0
VERTEX
10
-0.9139
20
-54.7118
0
VERTEX
10
-0.9060
20
-54.7004
0
VERTEX
10
-0.8970
20
-54.6891
0
VERTEX
10
-0.8873
20
-54.6777
0
VERTEX
10
-0.8769
20
-54.6663
0
VERTEX
10
-0.8660
20
-54.6549
0
VERTEX
10
-0.8547
20
-54.6435
0
VERTEX
10
-0.8433
20
-54.6322
0
VERTEX
10
-0.8320
20
-54.6208
0
VERTEX
10
-0.8209
20
-54.6094
0
VERTEX
10
-0.8102
20
-54.5980
0
VERTEX
10
-0.8001
20
-54.5866
0
VERTEX
10
-0.7907
20
-54.5753
0
VERTEX
10
-0.7823
20
-54.5639
0
VERTEX
10
-0.7749
20
-54.5525
0
VERTEX
10
-0.7687
20
-54.5411
0
VERTEX
10
-0.7638
20
-54.5297
0
VERTEX
10
-0.7602
20
-54.5184
0
VERTEX
10
-0.7580
20
-54.5070
0
VERTEX
10
-0.7573
20
-54.4956
0
VERTEX
10
0.1573
20
-54.4956
0
VERTEX
10
0.1580
20
-54.5070
0
VERTEX
10
0.1602
20
-54.5184
0
VERTEX
10
0.1638
20
-54.5297
0
VERTEX
10
0.1687
20
-54.5411
0
VERTEX
10
0.1749
20
-54.5525
0
VERTEX
10
0.1823
20
-54.5639
0
VERTEX
10
0.1907
20
-54.5753
0
VERTEX
10
0.2001
20
-54.5866
0
VERTEX
10
0.2102
20
-54.5980
0
VERTEX
10
0.2209
20
-54.6094
0
VERTEX
10
0.2320
20
-54.6208
0
VERTEX
10
0.2433
20
-54.6322
0
VERTEX
10
0.2547
20
-54.6435
0
VERTEX
10
0.2660
20
-54.6549
0
VERTEX
10
0.2769
20
-54.6663
0
VERTEX
10
0.2873
20
-54.6777
0
VERTEX
10
0.2970
20
-54.6891
0
VERTEX
10
0.3060
20
-54.7004
0
VERTEX
10
0.3139
20
-54.7118
0
VERTEX
10
0.3207
20
-54.7232
0
VERTEX
10
0.3263
20
-54.7346
0
VERTEX
10
0.3306
20
-54.7460
0
VERTEX
10
0.3334
20
-54.7573
0
VERTEX
10
0.3349
20
-54.7687
0
VERTEX
10
0.3349
20
-54.7801
0
VERTEX
10
0.3334
20
-54.7915
0
VERTEX
10
0.3306
20
-54.8028
0
VERTEX
10
0.3263
20
-54.8142
0
VERTEX
10
0.3207
20
-54.8256
0
VERTEX
10
0.3139
20
-54.8370
0
VERTEX
10
0.3060
20
-54.8484
0
VERTEX
10
0.2970
20
-54.8597
0
VERTEX
10
0.2873
20
-54.8711
0
VERTEX
10
0.2769
20
-54.8825
0
VERTEX
10
0.2660
20
-54.8939
0
VERTEX
10
0.2547
20
-54.9053
0
VERTEX
10
0.2433
20
-54.9166
0
VERTEX
10
0.2320
20
-54.9280
0
VERTEX
10
0.2209
20
-54.9394
0
VERTEX
10
0.2102
20
-54.9508
0
VERTEX
10
0.2001
20
-54.9622
0
VERTEX
10
0.1907
20
-54.9735
0
VERTEX
10
0.1823
20
-54.9849
0
VERTEX
10
0.1749
20
-54.9963
0
VERTEX
10
0.1687
20
-55.0077
0
VERTEX
10
0.1638
20
-55.0191
0
VERTEX
10
0.1602
20
-55.0304
0
VERTEX
10
0.1580
20
-55.0418
0
VERTEX
10
0.1573
20
-55.0532
0
SEQEND
0
POLYLINE
8
M1_Neg
70
1
0
VERTEX
10
-0.7573
20
-54.4956
0
VERTEX
10
-0.7580
20
-54.4842
0
VERTEX
10
-0.7602
20
-54.4728
0
VERTEX
10
-0.7638
20
-54.4615
0
VERTEX
10
-0.7687
20
-54.4501
0
VERTEX
10
-0.7749
20
-54.4387
0
VERTEX
10
-0.7823
20
-54.4273
0
VERTEX
10
-0.7907
20
-54.4159
0
VERTEX
10
-0.8001
20
-54.4046
0
VERTEX
10
-0.8102
20
-54.3932
0
VERTEX
10
-0.8209
20
-54.3818
0
VERTEX
10
-0.8320
20
-54.3704
0
VERTEX
10
-0.8433
20
-54.3590
0
VERTEX
10
-0.8547
20
-54.3477
0
VERTEX
10
-0.8660
20
-54.3363
0
VERTEX
10
-0.8769
20
-54.3249
0
VERTEX
10
-0.8873
20
-54.3135
0
VERTEX
10
-0.8970
20
-54.3021
0
VERTEX
10
-0.9060
20
-54.2908
0
VERTEX
10
-0.9139
20
-54.2794
0
VERTEX
10
-0.9207
20
-54.2680
0
VERTEX
10
-0.9263
20
-54.2566
0
VERTEX
10
-0.9306
20
-54.2452
0
VERTEX
10
-0.9334
20
-54.2339
0
VERTEX
10
-0.9349
20
-54.2225
0
VERTEX
10
-0.9349
20
-54.2111
0
VERTEX
10
-0.9334
20
-54.1997
0
VERTEX
10
-0.9306
20
-54.1884
0
VERTEX
10
-0.9263
20
-54.1770
0
VERTEX
10
-0.9207
20
-54.1656
0
VERTEX
10
-0.9139
20
-54.1542
0
VERTEX
10
-0.9060
20
-54.1428
0
VERTEX
10
-0.8970
20
-54.1315
0
VERTEX
10
-0.8873
20
-54.1201
0
VERTEX
10
-0.8769
20
-54.1087
0
VERTEX
10
-0.8660
20
-54.0973
0
VERTEX
10
-0.8547
20
-54.0859
0
VERTEX
10
-0.8433
20
-54.0746
0
VERTEX
10
-0.8320
20
-54.0632
0
VERTEX
10
-0.8209
20
-54.0518
0
VERTEX
10
-0.8102
20
-54.0404
0
VERTEX
10
-0.8001
20
-54.0290
0
VERTEX
10
-0.7907
20
-54.0177
0
VERTEX
10
-0.7823
20
-54.0063
0
VERTEX
10
-0.7749
20
-53.9949
0
VERTEX
10
-0.7687
20
-53.9835
0
VERTEX
10
-0.7638
20
-53.9721
0
VERTEX
10
-0.7602
20
-53.9608
0
VERTEX
10
-0.7580
20
-53.9494
0
VERTEX
10
-0.7573
20
-53.9380
0
VERTEX
10
0.1573
20
-53.9380
0
VERTEX
10
0.1580
20
-53.9494
0
VERTEX
10
0.1602
20
-53.9608
0
VERTEX
10
0.1638
20
-53.9721
0
VERTEX
10
0.1687
20
-53.9835
0
VERTEX
10
0.1749
20
-53.9949
0
VERTEX
10
0.1823
20
-54.0063
0
VERTEX
10
0.1907
20
-54.0177
0
VERTEX
10
0.2001
20
-54.0290
0
VERTEX
10
0.2102
20
-54.0404
0
VERTEX
10
0.2209
20
-54.0518
0
VERTEX
10
0.2320
20
-54.0632
0
VERTEX
10
0.2433
20
-54.0746
0
VERTEX
10
0.2547
20
-54.0859
0
VERTEX
10
0.2660
20
-54.0973
0
VERTEX
10
0.2769
20
-54.1087
0
VERTEX
10
0.2873
20
-54.1201
0
VERTEX
10
0.2970
20
-54.1315
0
VERTEX
10
0.3060
20
-54.1428
0
VERTEX
10
0.3139
20
-54.1542
0
VERTEX
10
0.3207
20
-54.1656
0
VERTEX
10
0.3263
20
-54.1770
0
VERTEX
10
0.3306
20
-54.1884
0
VERTEX
10
0.3334
20
-54.1997
0
VERTEX
10
0.3349
20
-54.2111
0
VERTEX
10
0.3349
20
-54.2225
0
VERTEX
10
0.3334
20
-54.2339
0
VERTEX
10
0.3306
20
-54.2452
0
VERTEX
10
0.3263
20
-54.2566
0
VERTEX
10
0.3207
20
-54.2680
0
VERTEX
10
0.3139
20
-54.2794
0
VERTEX
10
0.3060
20
-54.2908
0
VERTEX
10
0.2970
20
-54.3021
0
VERTEX
10
0.2873
20
-54.3135
0
VERTEX
10
0.2769
20
-54.3249
0
VERTEX
10
0.2660
20
-54.3363
0
VERTEX
10
0.2547
20
-54.3477
0
VERTEX
10
0.2433
20
-54.3590
0
VERTEX
10
0.2320
20
-54.3704
0
VERTEX
10
0.2209
20
-54.3818
0
VERTEX
10
0.2102
20
-54.3932
0
VERTEX
10
0.2001
20
-54.4046
0
VERTEX
10
0.1907
20
-54.4159
0
VERTEX
10
0.1823
20
-54.4273
0
VERTEX
10
0.1749
20
-54.4387
0
VERTEX
10
0.1687
20
-54.4501
0
VERTEX
10
0.1638
20
-54.4615
0
VERTEX
10
0.1602
20
-54.4728
0
VERTEX
10
0.1580
20
-54.4842
0
VERTEX
10
0.1573
20
-54.4956
0
SEQEND
0
POLYLINE
8
M1_Neg
70
1
0
VERTEX
10
-0.7573
20
-53.9380
0
VERTEX
10
-0.7580
20
-53.9266
0
VERTEX
10
-0.7602
20
-53.9152
0
VERTEX
10
-0.7638
20
-53.9039
0
VERTEX
10
-0.7687
20
-53.8925
0
VERTEX
10
-0.7749
20
-53.8811
0
VERTEX
10
-0.7823
20
-53.8697
0
VERTEX
10
-0.7907
20
-53.8583
0
VERTEX
10
-0.8001
20
-53.8470
0
VERTEX
10
-0.8102
20
-53.8356
0
VERTEX
10
-0.8209
20
-53.8242
0
VERTEX
10
-0.8320
20
-53.8128
0
VERTEX
10
-0.8433
20
-53.8014
0
VERTEX
10
-0.8547
20
-53.7901
0
VERTEX
10
-0.8660
20
-53.7787
0
VERTEX
10
-0.8769
20
-53.7673
0
VERTEX
10
-0.8873
20
-53.7559
0
VERTEX
10
-0.8970
20
-53.7445
0
VERTEX
10
-0.9060
20
-53.7332
0
VERTEX
10
-0.9139
20
-53.7218
0
VERTEX
10
-0.9207
20
-53.7104
0
VERTEX
10
-0.9263
20
-53.6990
0
VERTEX
10
-0.9306
20
-53.6876
0
VERTEX
10
-0.9334
20
-53.6763
0
VERTEX
10
-0.9349
20
-53.6649
0
VERTEX
10
-0.9349
20
-53.6535
0
VERTEX
10
-0.9334
20
-53.6421
0
VERTEX
10
-0.9306
20
-53.6308
0
VERTEX
10
-0.9263
20
-53.6194
0
VERTEX
10
-0.9207
20
-53.6080
0
VERTEX
10
-0.9139
20
-53.5966
0
VERTEX
10
-0.9060
20
-53.5852
0
VERTEX
10
-0.8970
20
-53.5739
0
VERTEX
10
-0.8873
20
-53.5625
0
VERTEX
10
-0.8769
20
-53.5511
0
VERTEX
10
-0.8660
20
-53.5397
0
VERTEX
10
-0.8547
20
-53.5283
0
VERTEX
10
-0.8433
20
-53.5170
0
VERTEX
10
-0.8320
20
-53.5056
0
VERTEX
10
-0.8209
20
-53.4942
0
VERTEX
10
-0.8102
20
-53.4828
0
VERTEX
10
-0.8001
20
-53.4714
0
VERTEX
10
-0.7907
20
-53.4601
0
VERTEX
10
-0.7823
20
-53.4487
0
VERTEX
10
-0.7749
20
-53.4373
0
VERTEX
10
-0.7687
20
-53.4259
0
VERTEX
10
-0.7638
20
-53.4145
0
VERTEX
10
-0.7602
20
-53.4032
0
VERTEX
10
-0.7580
20
-53.3918
0
VERTEX
10
-0.7573
20
-53.3804
0
VERTEX
10
0.1573
20
-53.3804
0
VERTEX
10
0.1580
20
-53.3918
0
VERTEX
10
0.1602
20
-53.4032
0
VERTEX
10
0.1638
20
-53.4145
0
VERTEX
10
0.1687
20
-53.4259
0
VERTEX
10
0.1749
20
-53.4373
0
VERTEX
10
0.1823
20
-53.4487
0
VERTEX
10
0.1907
20
-53.4601
0
VERTEX
10
0.2001
20
-53.4714
0
VERTEX
10
0.2102
20
-53.4828
0
VERTEX
10
0.2209
20
-53.4942
0
VERTEX
10
0.2320
20
-53.5056
0
VERTEX
10
0.2433
20
-53.5170
0
VERTEX
10
0.2547
20
-53.5283
0
VERTEX
10
0.2660
20
-53.5397
0
VERTEX
10
0.2769
20
-53.5511
0
VERTEX
10
0.2873
20
-53.5625
0
VERTEX
10
0.2970
20
-53.5739
0
VERTEX
10
0.3060
20
-53.5852
0
VERTEX
10
0.3139
20
-53.5966
0
VERTEX
10
0.3207
20
-53.6080
0
VERTEX
10
0.3263
20
-53.6194
0
VERTEX
10
0.3306
20
-53.6308
0
VERTEX
10
0.3334
20
-53.6421
0
VERTEX
10
0.3349
20
-53.6535
0
VERTEX
10
0.3349
20
-53.6649
0
VERTEX
10
0.3334
20
-53.6763
0
VERTEX
10
0.3306
20
-53.6876
0
VERTEX
10
0.3263
20
-53.6990
0
VERTEX
10
0.3207
20
-53.7104
0
VERTEX
10
0.3139
20
-53.7218
0
VERTEX
10
0.3060
20
-53.7332
0
VERTEX
10
0.2970
20
-53.7445
0
VERTEX
10
0.2873
20
-53.7559
0
VERTEX
10
0.2769
20
-53.7673
0
VERTEX
10
0.2660
20
-53.7787
0
VERTEX
10
0.2547
20
-53.7901
0
VERTEX
10
0.2433
20
-53.8014
0
VERTEX
10
0.2320
20
-53.8128
0
VERTEX
10
0.2209
20
-53.8242
0
VERTEX
10
0.2102
20
-53.8356
0
VERTEX
10
0.2001
20
-53.8470
0
VERTEX
10
0.1907
20
-53.8583
0
VERTEX
10
0.1823
20
-53.8697
0
VERTEX
10
0.1749
20
-53.8811
0
VERTEX
10
0.1687
20
-53.8925
0
VERTEX
10
0.1638
20
-53.9039
0
VERTEX
10
0.1602
20
-53.9152
0
VERTEX
10
0.1580
20
-53.9266
0
VERTEX
10
0.1573
20
-53.9380
0
SEQEND
0
POLYLINE
8
M1_Neg
70
1
0
VERTEX
10
-0.7573
20
-53.3804
0
VERTEX
10
-0.7580
20
-53.3690
0
VERTEX
10
-0.7602
20
-53.3576
0
VERTEX
10
-0.7638
20
-53.3463
0
VERTEX
10
-0.7687
20
-53.3349
0
VERTEX
10
-0.7749
20
-53.3235
0
VERTEX
10
-0.7823
20
-53.3121
0
VERTEX
10
-0.7907
20
-53.3007
0
VERTEX
10
-0.8001
20
-53.2894
0
VERTEX
10
-0.8102
20
-53.2780
0
VERTEX
10
-0.8209
20
-53.2666
0
VERTEX
10
-0.8320
20
-53.2552
0
VERTEX
10
-0.8433
20
-53.2438
0
VERTEX
10
-0.8547
20
-53.2325
0
VERTEX
10
-0.8660
20
-53.2211
0
VERTEX
10
-0.8769
20
-53.2097
0
VERTEX
10
-0.8873
20
-53.1983
0
VERTEX
10
-0.8970
20
-53.1869
0
VERTEX
10
-0.9060
20
-53.1756
0
VERTEX
10
-0.9139
20
-53.1642
0
VERTEX
10
-0.9207
20
-53.1528
0
VERTEX
10
-0.9263
20
-53.1414
0
VERTEX
10
-0.9306
20
-53.1300
0
VERTEX
10
-0.9334
20
-53.1187
0
VERTEX
10
-0.9349
20
-53.1073
0
VERTEX
10
-0.9349
20
-53.0959
0
VERTEX
10
-0.9334
20
-53.0845
0
VERTEX
10
-0.9306
20
-53.0732
0
VERTEX
10
-0.9263
20
-53.0618
0
VERTEX
10
-0.9207
20
-53.0504
0
VERTEX
10
-0.9139
20
-53.0390
0
VERTEX
10
-0.9060
20
-53.0276
0
VERTEX
10
-0.8970
20
-53.0163
0
VERTEX
10
-0.8873
20
-53.0049
0
VERTEX
10
-0.8769
20
-52.9935
0
VERTEX
10
-0.8660
20
-52.9821
0
VERTEX
10
-0.8547
20
-52.9707
0
VERTEX
10
-0.8433
20
-52.9594
0
VERTEX
10
-0.8320
20
-52.9480
0
VERTEX
10
-0.8209
20
-52.9366
0
VERTEX
10
-0.8102
20
-52.9252
0
VERTEX
10
-0.8001
20
-52.9138
0
VERTEX
10
-0.7907
20
-52.9025
0
VERTEX
10
-0.7823
20
-52.8911
0
VERTEX
10
-0.7749
20
-52.8797
0
VERTEX
10
-0.7687
20
-52.8683
0
VERTEX
10
-0.7638
20
-52.8569
0
VERTEX
10
-0.7602
20
-52.8456
0
VERTEX
10
-0.7580
20
-52.8342
0
VERTEX
10
-0.7573
20
-52.8228
0
VERTEX
10
0.1573
20
-52.8228
0
VERTEX
10
0.1580
20
-52.8342
0
VERTEX
10
0.1602
20
-52.8456
0
VERTEX
10
0.1638
20
-52.8569
0
VERTEX
10
0.1687
20
-52.8683
0
VERTEX
10
0.1749
20
-52.8797
0
VERTEX
10
0.1823
20
-52.8911
0
VERTEX
10
0.1907
20
-52.9025
0
VERTEX
10
0.2001
20
-52.9138
0
VERTEX
10
0.2102
20
-52.9252
0
VERTEX
10
0.2209
20
-52.9366
0
VERTEX
10
0.2320
20
-52.9480
0
VERTEX
10
0.2433
20
-52.9594
0
VERTEX
10
0.2547
20
-52.9707
0
VERTEX
10
0.2660
20
-52.9821
0
VERTEX
10
0.2769
20
-52.9935
0
VERTEX
10
0.2873
20
-53.0049
0
VERTEX
10
0.2970
20
-53.0163
0
VERTEX
10
0.3060
20
-53.0276
0
VERTEX
10
0.3139
20
-53.0390
0
VERTEX
10
0.3207
20
-53.0504
0
VERTEX
10
0.3263
20
-53.0618
0
VERTEX
10
0.3306
20
-53.0732
0
VERTEX
10
0.3334
20
-53.0845
0
VERTEX
10
0.3349
20
-53.0959
0
VERTEX
10
0.3349
20
-53.1073
0
VERTEX
10
0.3334
20
-53.1187
0
VERTEX
10
0.3306
20
-53.1300
0
VERTEX
10
0.3263
20
-53.1414
0
VERTEX
10
0.3207
20
-53.1528
0
VERTEX
10
0.3139
20
-53.1642
0
VERTEX
10
0.3060
20
-53.1756
0
VERTEX
10
0.2970
20
-53.1869
0
VERTEX
10
0.2873
20
-53.1983
0
VERTEX
10
0.2769
20
-53.2097
0
VERTEX
10
0.2660
20
-53.2211
0
VERTEX
10
0.2547
20
-53.2325
0
VERTEX
10
0.2433
20
-53.2438
0
VERTEX
10
0.2320
20
-53.2552
0
VERTEX
10
0.2209
20
-53.2666
0
VERTEX
10
0.2102
20
-53.2780
0
VERTEX
10
0.2001
20
-53.2894
0
VERTEX
10
0.1907
20
-53.3007
0
VERTEX
10
0.1823
20
-53.3121
0
VERTEX
10
0.1749
20
-53.3235
0
VERTEX
10
0.1687
20
-53.3349
0
VERTEX
10
0.1638
20
-53.3463
0
VERTEX
10
0.1602
20
-53.3576
0
VERTEX
10
0.1580
20
-53.3690
0
VERTEX
10
0.1573
20
-53.3804
0
SEQEND
0
POLYLINE
8
M1_Neg
70
1
0
VERTEX
10
-0.7573
20
-52.8228
0
VERTEX
10
-0.7580
20
-52.8114
0
VERTEX
10
-0.7602
20
-52.8000
0
VERTEX
10
-0.7638
20
-52.7887
0
VERTEX
10
-0.7687
20
-52.7773
0
VERTEX
10
-0.7749
20
-52.7659
0
VERTEX
10
-0.7823
20
-52.7545
0
VERTEX
10
-0.7907
20
-52.7431
0
VERTEX
10
-0.8001
20
-52.7318
0
VERTEX
10
-0.8102
20
-52.7204
0
VERTEX
10
-0.8209
20
-52.7090
0
VERTEX
10
-0.8320
20
-52.6976
0
VERTEX
10
-0.8433
20
-52.6862
0
VERTEX
10
-0.8547
20
-52.6749
0
VERTEX
10
-0.8660
20
-52.6635
0
VERTEX
10
-0.8769
20
-52.6521
0
VERTEX
10
-0.8873
20
-52.6407
0
VERTEX
10
-0.8970
20
-52.6293
0
VERTEX
10
-0.9060
20
-52.6180
0
VERTEX
10
-0.9139
20
-52.6066
0
VERTEX
10
-0.9207
20
-52.5952
0
VERTEX
10
-0.9263
20
-52.5838
0
VERTEX
10
-0.9306
20
-52.5724
0
VERTEX
10
-0.9334
20
-52.5611
0
VERTEX
10
-0.9349
20
-52.5497
0
VERTEX
10
-0.9349
20
-52.5383
0
VERTEX
10
-0.9334
20
-52.5269
0
VERTEX
10
-0.9306
20
-52.5156
0
VERTEX
10
-0.9263
20
-52.5042
0
VERTEX
10
-0.9207
20
-52.4928
0
VERTEX
10
-0.9139
20
-52.4814
0
VERTEX
10
-0.9060
20
-52.4700
0
VERTEX
10
-0.8970
20
-52.4587
0
VERTEX
10
-0.8873
20
-52.4473
0
VERTEX
10
-0.8769
20
-52.4359
0
VERTEX
10
-0.8660
20
-52.4245
0
VERTEX
10
-0.8547
20
-52.4131
0
VERTEX
10
-0.8433
20
-52.4018
0
VERTEX
10
-0.8320
20
-52.3904
0
VERTEX
10
-0.8209
20
-52.3790
0
VERTEX
10
-0.8102
20
-52.3676
0
VERTEX
10
-0.8001
20
-52.3562
0
VERTEX
10
-0.7907
20
-52.3449
0
VERTEX
10
-0.7823
20
-52.3335
0
VERTEX
10
-0.7749
20
-52.3221
0
VERTEX
10
-0.7687
20
-52.3107
0
VERTEX
10
-0.7638
20
-52.2993
0
VERTEX
10
-0.7602
20
-52.2880
0
VERTEX
10
-0.7580
20
-52.2766
0
VERTEX
10
-0.7573
20
-52.2652
0
VERTEX
10
0.1573
20
-52.2652
0
VERTEX
10
0.1580
20
-52.2766
0
VERTEX
10
0.1602
20
-52.2880
0
VERTEX
10
0.1638
20
-52.2993
0
VERTEX
10
0.1687
20
-52.3107
0
VERTEX
10
0.1749
20
-52.3221
0
VERTEX
10
0.1823
20
-52.3335
0
VERTEX
10
0.1907
20
-52.3449
0
VERTEX
10
0.2001
20
-52.3562
0
VERTEX
10
0.2102
20
-52.3676
0
VERTEX
10
0.2209
20
-52.3790
0
VERTEX
10
0.2320
20
-52.3904
0
VERTEX
10
0.2433
20
-52.4018
0
VERTEX
10
0.2547
20
-52.4131
0
VERTEX
10
0.2660
20
-52.4245
0
VERTEX
10
0.2769
20
-52.4359
0
VERTEX
10
0.2873
20
-52.4473
0
VERTEX
10
0.2970
20
-52.4587
0
VERTEX
10
0.3060
20
-52.4700
0
VERTEX
10
0.3139
20
-52.4814
0
VERTEX
10
0.3207
20
-52.4928
0
VERTEX
10
0.3263
20
-52.5042
0
VERTEX
10
0.3306
20
-52.5156
0
VERTEX
10
0.3334
20
-52.5269
0
VERTEX
10
0.3349
20
-52.5383
0
VERTEX
10
0.3349
20
-52.5497
0
VERTEX
10
0.3334
20
-52.5611
0
VERTEX
10
0.3306
20
-52.5724
0
VERTEX
10
0.3263
20
-52.5838
0
VERTEX
10
0.3207
20
-52.5952
0
VERTEX
10
0.3139
20
-52.6066
0
VERTEX
10
0.3060
20
-52.6180
0
VERTEX
10
0.2970
20
-52.6293
0
VERTEX
10
0.2873
20
-52.6407
0
VERTEX
10
0.2769
20
-52.6521
0
VERTEX
10
0.2660
20
-52.6635
0
VERTEX
10
0.2547
20
-52.6749
0
VERTEX
10
0.2433
20
-52.6862
0
VERTEX
10
0.2320
20
-52.6976
0
VERTEX
10
0.2209
20
-52.7090
0
VERTEX
10
0.2102
20
-52.7204
0
VERTEX
10
0.2001
20
-52.7318
0
VERTEX
10
0.1907
20
-52.7431
0
VERTEX
10
0.1823
20
-52.7545
0
VERTEX
10
0.1749
20
-52.7659
0
VERTEX
10
0.1687
20
-52.7773
0
VERTEX
10
0.1638
20
-52.7887
0
VERTEX
10
0.1602
20
-52.8000
0
VERTEX
10
0.1580
20
-52.8114
0
VERTEX
10
0.1573
20
-52.8228
0
SEQEND
0
POLYLINE
8
M1_Neg
70
1
0
VERTEX
10
-0.7573
20
-52.2652
0
VERTEX
10
-0.7580
20
-52.2538
0
VERTEX
10
-0.7602
20
-52.2424
0
VERTEX
10
-0.7638
20
-52.2311
0
VERTEX
10
-0.7687
20
-52.2197
0
VERTEX
10
-0.7749
20
-52.2083
0
VERTEX
10
-0.7823
20
-52.1969
0
VERTEX
10
-0.7907
20
-52.1855
0
VERTEX
10
-0.8001
20
-52.1742
0
VERTEX
10
-0.8102
20
-52.1628
0
VERTEX
10
-0.8209
20
-52.1514
0
VERTEX
10
-0.8320
20
-52.1400
0
VERTEX
10
-0.8433
20
-52.1286
0
VERTEX
10
-0.8547
20
-52.1173
0
VERTEX
10
-0.8660
20
-52.1059
0
VERTEX
10
-0.8769
20
-52.0945
0
VERTEX
10
-0.8873
20
-52.0831
0
VERTEX
10
-0.8970
20
-52.0717
0
VERTEX
10
-0.9060
20
-52.0604
0
VERTEX
10
-0.9139
20
-52.0490
0
VERTEX
10
-0.9207
20
-52.0376
0
VERTEX
10
-0.9263
20
-52.0262
0
VERTEX
10
-0.9306
20
-52.0148
0
VERTEX
10
-0.9334
20
-52.0035
0
VERTEX
10
-0.9349
20
-51.9921
0
VERTEX
10
-0.9349
20
-51.9807
0
VERTEX
10
-0.9334
20
-51.9693
0
VERTEX
10
-0.9306
20
-51.9580
0
VERTEX
10
-0.9263
20
-51.9466
0
VERTEX
10
-0.9207
20
-51.9352
0
VERTEX
10
-0.9139
20
-51.9238
0
VERTEX
10
-0.9060
20
-51.9124
0
VERTEX
10
-0.8970
20
-51.9011
0
VERTEX
10
-0.8873
20
-51.8897
0
VERTEX
10
-0.8769
20
-51.8783
0
VERTEX
10
-0.8660
20
-51.8669
0
VERTEX
10
-0.8547
20
-51.8555
0
VERTEX
10
-0.8433
20
-51.8442
0
VERTEX
10
-0.8320
20
-51.8328
0
VERTEX
10
-0.8209
20
-51.8214
0
VERTEX
10
-0.8102
20
-51.8100
0
VERTEX
10
-0.8001
20
-51.7986
0
VERTEX
10
-0.7907
20
-51.7873
0
VERTEX
10
-0.7823
20
-51.7759
0
VERTEX
10
-0.7749
20
-51.7645
0
VERTEX
10
-0.7687
20
-51.7531
0
VERTEX
10
-0.7638
20
-51.7417
0
VERTEX
10
-0.7602
20
-51.7304
0
VERTEX
10
-0.7580
20
-51.7190
0
VERTEX
10
-0.7573
20
-51.7076
0
VERTEX
10
0.1573
20
-51.7076
0
VERTEX
10
0.1580
20
-51.7190
0
VERTEX
10
0.1602
20
-51.7304
0
VERTEX
10
0.1638
20
-51.7417
0
VERTEX
10
0.1687
20
-51.7531
0
VERTEX
10
0.1749
20
-51.7645
0
VERTEX
10
0.1823
20
-51.7759
0
VERTEX
10
0.1907
20
-51.7873
0
VERTEX
10
0.2001
20
-51.7986
0
VERTEX
10
0.2102
20
-51.8100
0
VERTEX
10
0.2209
20
-51.8214
0
VERTEX
10
0.2320
20
-51.8328
0
VERTEX
10
0.2433
20
-51.8442
0
VERTEX
10
0.2547
20
-51.8555
0
VERTEX
10
0.2660
20
-51.8669
0
VERTEX
10
0.2769
20
-51.8783
0
VERTEX
10
0.2873
20
-51.8897
0
VERTEX
10
0.2970
20
-51.9011
0
VERTEX
10
0.3060
20
-51.9124
0
VERTEX
10
0.3139
20
-51.9238
0
VERTEX
10
0.3207
20
-51.9352
0
VERTEX
10
0.3263
20
-51.9466
0
VERTEX
10
0.3306
20
-51.9580
0
VERTEX
10
0.3334
20
-51.9693
0
VERTEX
10
0.3349
20
-51.9807
0
VERTEX
10
0.3349
20
-51.9921
0
VERTEX
10
0.3334
20
-52.0035
0
VERTEX
10
0.3306
20
-52.0148
0
VERTEX
10
0.3263
20
-52.0262
0
VERTEX
10
0.3207
20
-52.0376
0
VERTEX
10
0.3139
20
-52.0490
0
VERTEX
10
0.3060
20
-52.0604
0
VERTEX
10
0.2970
20
-52.0717
0
VERTEX
10
0.2873
20
-52.0831
0
VERTEX
10
0.2769
20
-52.0945
0
VERTEX
10
0.2660
20
-52.1059
0
VERTEX
10
0.2547
20
-52.1173
0
VERTEX
10
0.2433
20
-52.1286
0
VERTEX
10
0.2320
20
-52.1400
0
VERTEX
10
0.2209
20
-52.1514
0
VERTEX
10
0.2102
20
-52.1628
0
VERTEX
10
0.2001
20
-52.1742
0
VERTEX
10
0.1907
20
-52.1855
0
VERTEX
10
0.1823
20
-52.1969
0
VERTEX
10
0.1749
20
-52.2083
0
VERTEX
10
0.1687
20
-52.2197
0
VERTEX
10
0.1638
20
-52.2311
0
VERTEX
10
0.1602
20
-52.2424
0
VERTEX
10
0.1580
20
-52.2538
0
VERTEX
10
0.1573
20
-52.2652
0
SEQEND
0
POLYLINE
8
M1_Neg
70
1
0
VERTEX
10
-0.7573
20
-51.7076
0
VERTEX
10
-0.7580
20
-51.6962
0
VERTEX
10
-0.7602
20
-51.6848
0
VERTEX
10
-0.7638
20
-51.6735
0
VERTEX
10
-0.7687
20
-51.6621
0
VERTEX
10
-0.7749
20
-51.6507
0
VERTEX
10
-0.7823
20
-51.6393
0
VERTEX
10
-0.7907
20
-51.6279
0
VERTEX
10
-0.8001
20
-51.6166
0
VERTEX
10
-0.8102
20
-51.6052
0
VERTEX
10
-0.8209
20
-51.5938
0
VERTEX
10
-0.8320
20
-51.5824
0
VERTEX
10
-0.8433
20
-51.5710
0
VERTEX
10
-0.8547
20
-51.5597
0
VERTEX
10
-0.8660
20
-51.5483
0
VERTEX
10
-0.8769
20
-51.5369
0
VERTEX
10
-0.8873
20
-51.5255
0
VERTEX
10
-0.8970
20
-51.5141
0
VERTEX
10
-0.9060
20
-51.5028
0
VERTEX
10
-0.9139
20
-51.4914
0
VERTEX
10
-0.9207
20
-51.4800
0
VERTEX
10
-0.9263
20
-51.4686
0
VERTEX
10
-0.9306
20
-51.4572
0
VERTEX
10
-0.9334
20
-51.4459
0
VERTEX
10
-0.9349
20
-51.4345
0
VERTEX
10
-0.9349
20
-51.4231
0
VERTEX
10
-0.9334
20
-51.4117
0
VERTEX
10
-0.9306
20
-51.4004
0
VERTEX
10
-0.9263
20
-51.3890
0
VERTEX
10
-0.9207
20
-51.3776
0
VERTEX
10
-0.9139
20
-51.3662
0
VERTEX
10
-0.9060
20
-51.3548
0
VERTEX
10
-0.8970
20
-51.3435
0
VERTEX
10
-0.8873
20
-51.3321
0
VERTEX
10
-0.8769
20
-51.3207
0
VERTEX
10
-0.8660
20
-51.3093
0
VERTEX
10
-0.8547
20
-51.2979
0
VERTEX
10
-0.8433
20
-51.2866
0
VERTEX
10
-0.8320
20
-51.2752
0
VERTEX
10
-0.8209
20
-51.2638
0
VERTEX
10
-0.8102
20
-51.2524
0
VERTEX
10
-0.8001
20
-51.2410
0
VERTEX
10
-0.7907
20
-51.2297
0
VERTEX
10
-0.7823
20
-51.2183
0
VERTEX
10
-0.7749
20
-51.2069
0
VERTEX
10
-0.7687
20
-51.1955
0
VERTEX
10
-0.7638
20
-51.1841
0
VERTEX
10
-0.7602
20
-51.1728
0
VERTEX
10
-0.7580
20
-51.1614
0
VERTEX
10
-0.7573
20
-51.1500
0
VERTEX
10
0.1573
20
-51.1500
0
VERTEX
10
0.1580
20
-51.1614
0
VERTEX
10
0.1602
20
-51.1728
0
VERTEX
10
0.1638
20
-51.1841
0
VERTEX
10
0.1687
20
-51.1955
0
VERTEX
10
0.1749
20
-51.2069
0
VERTEX
10
0.1823
20
-51.2183
0
VERTEX
10
0.1907
20
-51.2297
0
VERTEX
10
0.2001
20
-51.2410
0
VERTEX
10
0.2102
20
-51.2524
0
VERTEX
10
0.2209
20
-51.2638
0
VERTEX
10
0.2320
20
-51.2752
0
VERTEX
10
0.2433
20
-51.2866
0
VERTEX
10
0.2547
20
-51.2979
0
VERTEX
10
0.2660
20
-51.3093
0
VERTEX
10
0.2769
20
-51.3207
0
VERTEX
10
0.2873
20
-51.3321
0
VERTEX
10
0.2970
20
-51.3435
0
VERTEX
10
0.3060
20
-51.3548
0
VERTEX
10
0.3139
20
-51.3662
0
VERTEX
10
0.3207
20
-51.3776
0
VERTEX
10
0.3263
20
-51.3890
0
VERTEX
10
0.3306
20
-51.4004
0
VERTEX
10
0.3334
20
-51.4117
0
VERTEX
10
0.3349
20
-51.4231
0
VERTEX
10
0.3349
20
-51.4345
0
VERTEX
10
0.3334
20
-51.4459
0
VERTEX
10
0.3306
20
-51.4572
0
VERTEX
10
0.3263
20
-51.4686
0
VERTEX
10
0.3207
20
-51.4800
0
VERTEX
10
0.3139
20
-51.4914
0
VERTEX
10
0.3060
20
-51.5028
0
VERTEX
10
0.2970
20
-51.5141
0
VERTEX
10
0.2873
20
-51.5255
0
VERTEX
10
0.2769
20
-51.5369
0
VERTEX
10
0.2660
20
-51.5483
0
VERTEX
10
0.2547
20
-51.5597
0
VERTEX
10
0.2433
20
-51.5710
0
VERTEX
10
0.2320
20
-51.5824
0
VERTEX
10
0.2209
20
-51.5938
0
VERTEX
10
0.2102
20
-51.6052
0
VERTEX
10
0.2001
20
-51.6166
0
VERTEX
10
0.1907
20
-51.6279
0
VERTEX
10
0.1823
20
-51.6393
0
VERTEX
10
0.1749
20
-51.6507
0
VERTEX
10
0.1687
20
-51.6621
0
VERTEX
10
0.1638
20
-51.6735
0
VERTEX
10
0.1602
20
-51.6848
0
VERTEX
10
0.1580
20
-51.6962
0
VERTEX
10
0.1573
20
-51.7076
0
SEQEND
0
POLYLINE
8
M1_Neg
70
1
0
VERTEX
10
-0.7573
20
-51.1500
0
VERTEX
10
-0.7579
20
-51.1386
0
VERTEX
10
-0.7600
20
-51.1272
0
VERTEX
10
-0.7635
20
-51.1159
0
VERTEX
10
-0.7684
20
-51.1045
0
VERTEX
10
-0.7746
20
-51.0931
0
VERTEX
10
-0.7819
20
-51.0817
0
VERTEX
10
-0.7902
20
-51.0703
0
VERTEX
10
-0.7995
20
-51.0590
0
VERTEX
10
-0.8095
20
-51.0476
0
VERTEX
10
-0.8201
20
-51.0362
0
VERTEX
10
-0.8312
20
-51.0248
0
VERTEX
10
-0.8425
20
-51.0134
0
VERTEX
10
-0.8538
20
-51.0021
0
VERTEX
10
-0.8649
20
-50.9907
0
VERTEX
10
-0.8758
20
-50.9793
0
VERTEX
10
-0.8861
20
-50.9679
0
VERTEX
10
-0.8958
20
-50.9565
0
VERTEX
10
-0.9046
20
-50.9452
0
VERTEX
10
-0.9125
20
-50.9338
0
VERTEX
10
-0.9192
20
-50.9224
0
VERTEX
10
-0.9247
20
-50.9110
0
VERTEX
10
-0.9289
20
-50.8996
0
VERTEX
10
-0.9318
20
-50.8883
0
VERTEX
10
-0.9331
20
-50.8769
0
VERTEX
10
-0.9331
20
-50.8655
0
VERTEX
10
-0.9315
20
-50.8541
0
VERTEX
10
-0.9286
20
-50.8428
0
VERTEX
10
-0.9242
20
-50.8314
0
VERTEX
10
-0.9186
20
-50.8200
0
VERTEX
10
-0.9117
20
-50.8086
0
VERTEX
10
-0.9037
20
-50.7972
0
VERTEX
10
-0.8947
20
-50.7859
0
VERTEX
10
-0.8849
20
-50.7745
0
VERTEX
10
-0.8744
20
-50.7631
0
VERTEX
10
-0.8634
20
-50.7517
0
VERTEX
10
-0.8521
20
-50.7403
0
VERTEX
10
-0.8406
20
-50.7290
0
VERTEX
10
-0.8292
20
-50.7176
0
VERTEX
10
-0.8180
20
-50.7062
0
VERTEX
10
-0.8073
20
-50.6948
0
VERTEX
10
-0.7971
20
-50.6834
0
VERTEX
10
-0.7877
20
-50.6721
0
VERTEX
10
-0.7792
20
-50.6607
0
VERTEX
10
-0.7717
20
-50.6493
0
VERTEX
10
-0.7654
20
-50.6379
0
VERTEX
10
-0.7604
20
-50.6265
0
VERTEX
10
-0.7567
20
-50.6152
0
VERTEX
10
-0.7545
20
-50.6038
0
VERTEX
10
-0.7537
20
-50.5924
0
VERTEX
10
0.1537
20
-50.5924
0
VERTEX
10
0.1545
20
-50.6038
0
VERTEX
10
0.1567
20
-50.6152
0
VERTEX
10
0.1604
20
-50.6265
0
VERTEX
10
0.1654
20
-50.6379
0
VERTEX
10
0.1717
20
-50.6493
0
VERTEX
10
0.1792
20
-50.6607
0
VERTEX
10
0.1877
20
-50.6721
0
VERTEX
10
0.1971
20
-50.6834
0
VERTEX
10
0.2073
20
-50.6948
0
VERTEX
10
0.2180
20
-50.7062
0
VERTEX
10
0.2292
20
-50.7176
0
VERTEX
10
0.2406
20
-50.7290
0
VERTEX
10
0.2521
20
-50.7403
0
VERTEX
10
0.2634
20
-50.7517
0
VERTEX
10
0.2744
20
-50.7631
0
VERTEX
10
0.2849
20
-50.7745
0
VERTEX
10
0.2947
20
-50.7859
0
VERTEX
10
0.3037
20
-50.7972
0
VERTEX
10
0.3117
20
-50.8086
0
VERTEX
10
0.3186
20
-50.8200
0
VERTEX
10
0.3242
20
-50.8314
0
VERTEX
10
0.3286
20
-50.8428
0
VERTEX
10
0.3315
20
-50.8541
0
VERTEX
10
0.3331
20
-50.8655
0
VERTEX
10
0.3331
20
-50.8769
0
VERTEX
10
0.3318
20
-50.8883
0
VERTEX
10
0.3289
20
-50.8996
0
VERTEX
10
0.3247
20
-50.9110
0
VERTEX
10
0.3192
20
-50.9224
0
VERTEX
10
0.3125
20
-50.9338
0
VERTEX
10
0.3046
20
-50.9452
0
VERTEX
10
0.2958
20
-50.9565
0
VERTEX
10
0.2861
20
-50.9679
0
VERTEX
10
0.2758
20
-50.9793
0
VERTEX
10
0.2649
20
-50.9907
0
VERTEX
10
0.2538
20
-51.0021
0
VERTEX
10
0.2425
20
-51.0134
0
VERTEX
10
0.2312
20
-51.0248
0
VERTEX
10
0.2201
20
-51.0362
0
VERTEX
10
0.2095
20
-51.0476
0
VERTEX
10
0.1995
20
-51.0590
0
VERTEX
10
0.1902
20
-51.0703
0
VERTEX
10
0.1819
20
-51.0817
0
VERTEX
10
0.1746
20
-51.0931
0
VERTEX
10
0.1684
20
-51.1045
0
VERTEX
10
0.1635
20
-51.1159
0
VERTEX
10
0.1600
20
-51.1272
0
VERTEX
10
0.1579
20
-51.1386
0
VERTEX
10
0.1573
20
-51.1500
0
SEQEND
0
POLYLINE
8
M1_Neg
70
1
0
VERTEX
10
-0.7537
20
-50.5924
0
VERTEX
10
-0.7542
20
-50.5810
0
VERTEX
10
-0.7559
20
-50.5696
0
VERTEX
10
-0.7589
20
-50.5583
0
VERTEX
10
-0.7631
20
-50.5469
0
VERTEX
10
-0.7684
20
-50.5355
0
VERTEX
10
-0.7747
20
-50.5241
0
VERTEX
10
-0.7820
20
-50.5127
0
VERTEX
10
-0.7900
20
-50.5014
0
VERTEX
10
-0.7987
20
-50.4900
0
VERTEX
10
-0.8079
20
-50.4786
0
VERTEX
10
-0.8175
20
-50.4672
0
VERTEX
10
-0.8272
20
-50.4558
0
VERTEX
10
-0.8371
20
-50.4445
0
VERTEX
10
-0.8467
20
-50.4331
0
VERTEX
10
-0.8562
20
-50.4217
0
VERTEX
10
-0.8651
20
-50.4103
0
VERTEX
10
-0.8735
20
-50.3989
0
VERTEX
10
-0.8812
20
-50.3876
0
VERTEX
10
-0.8879
20
-50.3762
0
VERTEX
10
-0.8938
20
-50.3648
0
VERTEX
10
-0.8985
20
-50.3534
0
VERTEX
10
-0.9021
20
-50.3420
0
VERTEX
10
-0.9045
20
-50.3307
0
VERTEX
10
-0.9056
20
-50.3193
0
VERTEX
10
-0.9055
20
-50.3079
0
VERTEX
10
-0.9040
20
-50.2965
0
VERTEX
10
-0.9014
20
-50.2852
0
VERTEX
10
-0.8975
20
-50.2738
0
VERTEX
10
-0.8924
20
-50.2624
0
VERTEX
10
-0.8863
20
-50.2510
0
VERTEX
10
-0.8793
20
-50.2396
0
VERTEX
10
-0.8713
20
-50.2283
0
VERTEX
10
-0.8626
20
-50.2169
0
VERTEX
10
-0.8534
20
-50.2055
0
VERTEX
10
-0.8437
20
-50.1941
0
VERTEX
10
-0.8337
20
-50.1827
0
VERTEX
10
-0.8236
20
-50.1714
0
VERTEX
10
-0.8135
20
-50.1600
0
VERTEX
10
-0.8037
20
-50.1486
0
VERTEX
10
-0.7942
20
-50.1372
0
VERTEX
10
-0.7852
20
-50.1258
0
VERTEX
10
-0.7768
20
-50.1145
0
VERTEX
10
-0.7693
20
-50.1031
0
VERTEX
10
-0.7627
20
-50.0917
0
VERTEX
10
-0.7571
20
-50.0803
0
VERTEX
10
-0.7527
20
-50.0689
0
VERTEX
10
-0.7494
20
-50.0576
0
VERTEX
10
-0.7473
20
-50.0462
0
VERTEX
10
-0.7465
20
-50.0348
0
VERTEX
10
0.1465
20
-50.0348
0
VERTEX
10
0.1473
20
-50.0462
0
VERTEX
10
0.1494
20
-50.0576
0
VERTEX
10
0.1527
20
-50.0689
0
VERTEX
10
0.1571
20
-50.0803
0
VERTEX
10
0.1627
20
-50.0917
0
VERTEX
10
0.1693
20
-50.1031
0
VERTEX
10
0.1768
20
-50.1145
0
VERTEX
10
0.1852
20
-50.1258
0
VERTEX
10
0.1942
20
-50.1372
0
VERTEX
10
0.2037
20
-50.1486
0
VERTEX
10
0.2135
20
-50.1600
0
VERTEX
10
0.2236
20
-50.1714
0
VERTEX
10
0.2337
20
-50.1827
0
VERTEX
10
0.2437
20
-50.1941
0
VERTEX
10
0.2534
20
-50.2055
0
VERTEX
10
0.2626
20
-50.2169
0
VERTEX
10
0.2713
20
-50.2283
0
VERTEX
10
0.2793
20
-50.2396
0
VERTEX
10
0.2863
20
-50.2510
0
VERTEX
10
0.2924
20
-50.2624
0
VERTEX
10
0.2975
20
-50.2738
0
VERTEX
10
0.3014
20
-50.2852
0
VERTEX
10
0.3040
20
-50.2965
0
VERTEX
10
0.3055
20
-50.3079
0
VERTEX
10
0.3056
20
-50.3193
0
VERTEX
10
0.3045
20
-50.3307
0
VERTEX
10
0.3021
20
-50.3420
0
VERTEX
10
0.2985
20
-50.3534
0
VERTEX
10
0.2938
20
-50.3648
0
VERTEX
10
0.2879
20
-50.3762
0
VERTEX
10
0.2812
20
-50.3876
0
VERTEX
10
0.2735
20
-50.3989
0
VERTEX
10
0.2651
20
-50.4103
0
VERTEX
10
0.2562
20
-50.4217
0
VERTEX
10
0.2467
20
-50.4331
0
VERTEX
10
0.2371
20
-50.4445
0
VERTEX
10
0.2272
20
-50.4558
0
VERTEX
10
0.2175
20
-50.4672
0
VERTEX
10
0.2079
20
-50.4786
0
VERTEX
10
0.1987
20
-50.4900
0
VERTEX
10
0.1900
20
-50.5014
0
VERTEX
10
0.1820
20
-50.5127
0
VERTEX
10
0.1747
20
-50.5241
0
VERTEX
10
0.1684
20
-50.5355
0
VERTEX
10
0.1631
20
-50.5469
0
VERTEX
10
0.1589
20
-50.5583
0
VERTEX
10
0.1559
20
-50.5696
0
VERTEX
10
0.1542
20
-50.5810
0
VERTEX
10
0.1537
20
-50.5924
0
SEQEND
0
POLYLINE
8
M1_Neg
70
1
0
VERTEX
10
-0.7465
20
-50.0348
0
VERTEX
10
-0.7469
20
-50.0234
0
VERTEX
10
-0.7484
20
-50.0120
0
VERTEX
10
-0.7510
20
-50.0007
0
VERTEX
10
-0.7545
20
-49.9893
0
VERTEX
10
-0.7590
20
-49.9779
0
VERTEX
10
-0.7644
20
-49.9665
0
VERTEX
10
-0.7706
20
-49.9551
0
VERTEX
10
-0.7775
20
-49.9438
0
VERTEX
10
-0.7849
20
-49.9324
0
VERTEX
10
-0.7928
20
-49.9210
0
VERTEX
10
-0.8010
20
-49.9096
0
VERTEX
10
-0.8093
20
-49.8982
0
VERTEX
10
-0.8177
20
-49.8869
0
VERTEX
10
-0.8260
20
-49.8755
0
VERTEX
10
-0.8340
20
-49.8641
0
VERTEX
10
-0.8417
20
-49.8527
0
VERTEX
10
-0.8489
20
-49.8413
0
VERTEX
10
-0.8554
20
-49.8300
0
VERTEX
10
-0.8612
20
-49.8186
0
VERTEX
10
-0.8662
20
-49.8072
0
VERTEX
10
-0.8702
20
-49.7958
0
VERTEX
10
-0.8733
20
-49.7844
0
VERTEX
10
-0.8753
20
-49.7731
0
VERTEX
10
-0.8763
20
-49.7617
0
VERTEX
10
-0.8761
20
-49.7503
0
VERTEX
10
-0.8749
20
-49.7389
0
VERTEX
10
-0.8726
20
-49.7276
0
VERTEX
10
-0.8692
20
-49.7162
0
VERTEX
10
-0.8649
20
-49.7048
0
VERTEX
10
-0.8596
20
-49.6934
0
VERTEX
10
-0.8535
20
-49.6820
0
VERTEX
10
-0.8467
20
-49.6707
0
VERTEX
10
-0.8392
20
-49.6593
0
VERTEX
10
-0.8313
20
-49.6479
0
VERTEX
10
-0.8229
20
-49.6365
0
VERTEX
10
-0.8144
20
-49.6251
0
VERTEX
10
-0.8057
20
-49.6138
0
VERTEX
10
-0.7970
20
-49.6024
0
VERTEX
10
-0.7885
20
-49.5910
0
VERTEX
10
-0.7804
20
-49.5796
0
VERTEX
10
-0.7727
20
-49.5682
0
VERTEX
10
-0.7655
20
-49.5569
0
VERTEX
10
-0.7590
20
-49.5455
0
VERTEX
10
-0.7533
20
-49.5341
0
VERTEX
10
-0.7485
20
-49.5227
0
VERTEX
10
-0.7447
20
-49.5113
0
VERTEX
10
-0.7418
20
-49.5000
0
VERTEX
10
-0.7401
20
-49.4886
0
VERTEX
10
-0.7394
20
-49.4772
0
VERTEX
10
0.1394
20
-49.4772
0
VERTEX
10
0.1401
20
-49.4886
0
VERTEX
10
0.1418
20
-49.5000
0
VERTEX
10
0.1447
20
-49.5113
0
VERTEX
10
0.1485
20
-49.5227
0
VERTEX
10
0.1533
20
-49.5341
0
VERTEX
10
0.1590
20
-49.5455
0
VERTEX
10
0.1655
20
-49.5569
0
VERTEX
10
0.1727
20
-49.5682
0
VERTEX
10
0.1804
20
-49.5796
0
VERTEX
10
0.1885
20
-49.5910
0
VERTEX
10
0.1970
20
-49.6024
0
VERTEX
10
0.2057
20
-49.6138
0
VERTEX
10
0.2144
20
-49.6251
0
VERTEX
10
0.2229
20
-49.6365
0
VERTEX
10
0.2313
20
-49.6479
0
VERTEX
10
0.2392
20
-49.6593
0
VERTEX
10
0.2467
20
-49.6707
0
VERTEX
10
0.2535
20
-49.6820
0
VERTEX
10
0.2596
20
-49.6934
0
VERTEX
10
0.2649
20
-49.7048
0
VERTEX
10
0.2692
20
-49.7162
0
VERTEX
10
0.2726
20
-49.7276
0
VERTEX
10
0.2749
20
-49.7389
0
VERTEX
10
0.2761
20
-49.7503
0
VERTEX
10
0.2763
20
-49.7617
0
VERTEX
10
0.2753
20
-49.7731
0
VERTEX
10
0.2733
20
-49.7844
0
VERTEX
10
0.2702
20
-49.7958
0
VERTEX
10
0.2662
20
-49.8072
0
VERTEX
10
0.2612
20
-49.8186
0
VERTEX
10
0.2554
20
-49.8300
0
VERTEX
10
0.2489
20
-49.8413
0
VERTEX
10
0.2417
20
-49.8527
0
VERTEX
10
0.2340
20
-49.8641
0
VERTEX
10
0.2260
20
-49.8755
0
VERTEX
10
0.2177
20
-49.8869
0
VERTEX
10
0.2093
20
-49.8982
0
VERTEX
10
0.2010
20
-49.9096
0
VERTEX
10
0.1928
20
-49.9210
0
VERTEX
10
0.1849
20
-49.9324
0
VERTEX
10
0.1775
20
-49.9438
0
VERTEX
10
0.1706
20
-49.9551
0
VERTEX
10
0.1644
20
-49.9665
0
VERTEX
10
0.1590
20
-49.9779
0
VERTEX
10
0.1545
20
-49.9893
0
VERTEX
10
0.1510
20
-50.0007
0
VERTEX
10
0.1484
20
-50.0120
0
VERTEX
10
0.1469
20
-50.0234
0
VERTEX
10
0.1465
20
-50.0348
0
SEQEND
0
POLYLINE
8
M1_Neg
70
1
0
VERTEX
10
-0.7394
20
-49.4772
0
VERTEX
10
-0.7397
20
-49.4658
0
VERTEX
10
-0.7409
20
-49.4544
0
VERTEX
10
-0.7430
20
-49.4431
0
VERTEX
10
-0.7459
20
-49.4317
0
VERTEX
10
-0.7497
20
-49.4203
0
VERTEX
10
-0.7541
20
-49.4089
0
VERTEX
10
-0.7593
20
-49.3975
0
VERTEX
10
-0.7650
20
-49.3862
0
VERTEX
10
-0.7711
20
-49.3748
0
VERTEX
10
-0.7777
20
-49.3634
0
VERTEX
10
-0.7845
20
-49.3520
0
VERTEX
10
-0.7914
20
-49.3406
0
VERTEX
10
-0.7984
20
-49.3293
0
VERTEX
10
-0.8053
20
-49.3179
0
VERTEX
10
-0.8119
20
-49.3065
0
VERTEX
10
-0.8183
20
-49.2951
0
VERTEX
10
-0.8242
20
-49.2837
0
VERTEX
10
-0.8297
20
-49.2724
0
VERTEX
10
-0.8345
20
-49.2610
0
VERTEX
10
-0.8386
20
-49.2496
0
VERTEX
10
-0.8419
20
-49.2382
0
VERTEX
10
-0.8445
20
-49.2268
0
VERTEX
10
-0.8461
20
-49.2155
0
VERTEX
10
-0.8469
20
-49.2041
0
VERTEX
10
-0.8467
20
-49.1927
0
VERTEX
10
-0.8457
20
-49.1813
0
VERTEX
10
-0.8437
20
-49.1700
0
VERTEX
10
-0.8409
20
-49.1586
0
VERTEX
10
-0.8373
20
-49.1472
0
VERTEX
10
-0.8329
20
-49.1358
0
VERTEX
10
-0.8278
20
-49.1244
0
VERTEX
10
-0.8221
20
-49.1131
0
VERTEX
10
-0.8158
20
-49.1017
0
VERTEX
10
-0.8092
20
-49.0903
0
VERTEX
10
-0.8022
20
-49.0789
0
VERTEX
10
-0.7950
20
-49.0675
0
VERTEX
10
-0.7878
20
-49.0562
0
VERTEX
10
-0.7805
20
-49.0448
0
VERTEX
10
-0.7734
20
-49.0334
0
VERTEX
10
-0.7666
20
-49.0220
0
VERTEX
10
-0.7601
20
-49.0106
0
VERTEX
10
-0.7542
20
-48.9993
0
VERTEX
10
-0.7487
20
-48.9879
0
VERTEX
10
-0.7440
20
-48.9765
0
VERTEX
10
-0.7399
20
-48.9651
0
VERTEX
10
-0.7367
20
-48.9537
0
VERTEX
10
-0.7343
20
-48.9424
0
VERTEX
10
-0.7328
20
-48.9310
0
VERTEX
10
-0.7322
20
-48.9196
0
VERTEX
10
0.1322
20
-48.9196
0
VERTEX
10
0.1328
20
-48.9310
0
VERTEX
10
0.1343
20
-48.9424
0
VERTEX
10
0.1367
20
-48.9537
0
VERTEX
10
0.1399
20
-48.9651
0
VERTEX
10
0.1440
20
-48.9765
0
VERTEX
10
0.1487
20
-48.9879
0
VERTEX
10
0.1542
20
-48.9993
0
VERTEX
10
0.1601
20
-49.0106
0
VERTEX
10
0.1666
20
-49.0220
0
VERTEX
10
0.1734
20
-49.0334
0
VERTEX
10
0.1805
20
-49.0448
0
VERTEX
10
0.1878
20
-49.0562
0
VERTEX
10
0.1950
20
-49.0675
0
VERTEX
10
0.2022
20
-49.0789
0
VERTEX
10
0.2092
20
-49.0903
0
VERTEX
10
0.2158
20
-49.1017
0
VERTEX
10
0.2221
20
-49.1131
0
VERTEX
10
0.2278
20
-49.1244
0
VERTEX
10
0.2329
20
-49.1358
0
VERTEX
10
0.2373
20
-49.1472
0
VERTEX
10
0.2409
20
-49.1586
0
VERTEX
10
0.2437
20
-49.1700
0
VERTEX
10
0.2457
20
-49.1813
0
VERTEX
10
0.2467
20
-49.1927
0
VERTEX
10
0.2469
20
-49.2041
0
VERTEX
10
0.2461
20
-49.2155
0
VERTEX
10
0.2445
20
-49.2268
0
VERTEX
10
0.2419
20
-49.2382
0
VERTEX
10
0.2386
20
-49.2496
0
VERTEX
10
0.2345
20
-49.2610
0
VERTEX
10
0.2297
20
-49.2724
0
VERTEX
10
0.2242
20
-49.2837
0
VERTEX
10
0.2183
20
-49.2951
0
VERTEX
10
0.2119
20
-49.3065
0
VERTEX
10
0.2053
20
-49.3179
0
VERTEX
10
0.1984
20
-49.3293
0
VERTEX
10
0.1914
20
-49.3406
0
VERTEX
10
0.1845
20
-49.3520
0
VERTEX
10
0.1777
20
-49.3634
0
VERTEX
10
0.1711
20
-49.3748
0
VERTEX
10
0.1650
20
-49.3862
0
VERTEX
10
0.1593
20
-49.3975
0
VERTEX
10
0.1541
20
-49.4089
0
VERTEX
10
0.1497
20
-49.4203
0
VERTEX
10
0.1459
20
-49.4317
0
VERTEX
10
0.1430
20
-49.4431
0
VERTEX
10
0.1409
20
-49.4544
0
VERTEX
10
0.1397
20
-49.4658
0
VERTEX
10
0.1394
20
-49.4772
0
SEQEND
0
POLYLINE
8
M1_Neg
70
1
0
VERTEX
10
-0.7322
20
-48.9196
0
VERTEX
10
-0.7324
20
-48.9082
0
VERTEX
10
-0.7334
20
-48.8968
0
VERTEX
10
-0.7350
20
-48.8855
0
VERTEX
10
-0.7373
20
-48.8741
0
VERTEX
10
-0.7403
20
-48.8627
0
VERTEX
10
-0.7439
20
-48.8513
0
VERTEX
10
-0.7479
20
-48.8399
0
VERTEX
10
-0.7525
20
-48.8286
0
VERTEX
10
-0.7574
20
-48.8172
0
VERTEX
10
-0.7626
20
-48.8058
0
VERTEX
10
-0.7680
20
-48.7944
0
VERTEX
10
-0.7735
20
-48.7830
0
VERTEX
10
-0.7790
20
-48.7717
0
VERTEX
10
-0.7845
20
-48.7603
0
VERTEX
10
-0.7898
20
-48.7489
0
VERTEX
10
-0.7949
20
-48.7375
0
VERTEX
10
-0.7996
20
-48.7261
0
VERTEX
10
-0.8039
20
-48.7148
0
VERTEX
10
-0.8077
20
-48.7034
0
VERTEX
10
-0.8110
20
-48.6920
0
VERTEX
10
-0.8137
20
-48.6806
0
VERTEX
10
-0.8156
20
-48.6692
0
VERTEX
10
-0.8169
20
-48.6579
0
VERTEX
10
-0.8175
20
-48.6465
0
VERTEX
10
-0.8174
20
-48.6351
0
VERTEX
10
-0.8165
20
-48.6237
0
VERTEX
10
-0.8149
20
-48.6124
0
VERTEX
10
-0.8126
20
-48.6010
0
VERTEX
10
-0.8097
20
-48.5896
0
VERTEX
10
-0.8061
20
-48.5782
0
VERTEX
10
-0.8020
20
-48.5668
0
VERTEX
10
-0.7974
20
-48.5555
0
VERTEX
10
-0.7924
20
-48.5441
0
VERTEX
10
-0.7871
20
-48.5327
0
VERTEX
10
-0.7814
20
-48.5213
0
VERTEX
10
-0.7757
20
-48.5099
0
VERTEX
10
-0.7698
20
-48.4986
0
VERTEX
10
-0.7640
20
-48.4872
0
VERTEX
10
-0.7583
20
-48.4758
0
VERTEX
10
-0.7528
20
-48.4644
0
VERTEX
10
-0.7476
20
-48.4530
0
VERTEX
10
-0.7428
20
-48.4417
0
VERTEX
10
-0.7385
20
-48.4303
0
VERTEX
10
-0.7346
20
-48.4189
0
VERTEX
10
-0.7314
20
-48.4075
0
VERTEX
10
-0.7287
20
-48.3961
0
VERTEX
10
-0.7268
20
-48.3848
0
VERTEX
10
-0.7256
20
-48.3734
0
VERTEX
10
-0.7251
20
-48.3620
0
VERTEX
10
0.1251
20
-48.3620
0
VERTEX
10
0.1256
20
-48.3734
0
VERTEX
10
0.1268
20
-48.3848
0
VERTEX
10
0.1287
20
-48.3961
0
VERTEX
10
0.1314
20
-48.4075
0
VERTEX
10
0.1346
20
-48.4189
0
VERTEX
10
0.1385
20
-48.4303
0
VERTEX
10
0.1428
20
-48.4417
0
VERTEX
10
0.1476
20
-48.4530
0
VERTEX
10
0.1528
20
-48.4644
0
VERTEX
10
0.1583
20
-48.4758
0
VERTEX
10
0.1640
20
-48.4872
0
VERTEX
10
0.1698
20
-48.4986
0
VERTEX
10
0.1757
20
-48.5099
0
VERTEX
10
0.1814
20
-48.5213
0
VERTEX
10
0.1871
20
-48.5327
0
VERTEX
10
0.1924
20
-48.5441
0
VERTEX
10
0.1974
20
-48.5555
0
VERTEX
10
0.2020
20
-48.5668
0
VERTEX
10
0.2061
20
-48.5782
0
VERTEX
10
0.2097
20
-48.5896
0
VERTEX
10
0.2126
20
-48.6010
0
VERTEX
10
0.2149
20
-48.6124
0
VERTEX
10
0.2165
20
-48.6237
0
VERTEX
10
0.2174
20
-48.6351
0
VERTEX
10
0.2175
20
-48.6465
0
VERTEX
10
0.2169
20
-48.6579
0
VERTEX
10
0.2156
20
-48.6692
0
VERTEX
10
0.2137
20
-48.6806
0
VERTEX
10
0.2110
20
-48.6920
0
VERTEX
10
0.2077
20
-48.7034
0
VERTEX
10
0.2039
20
-48.7148
0
VERTEX
10
0.1996
20
-48.7261
0
VERTEX
10
0.1949
20
-48.7375
0
VERTEX
10
0.1898
20
-48.7489
0
VERTEX
10
0.1845
20
-48.7603
0
VERTEX
10
0.1790
20
-48.7717
0
VERTEX
10
0.1735
20
-48.7830
0
VERTEX
10
0.1680
20
-48.7944
0
VERTEX
10
0.1626
20
-48.8058
0
VERTEX
10
0.1574
20
-48.8172
0
VERTEX
10
0.1525
20
-48.8286
0
VERTEX
10
0.1479
20
-48.8399
0
VERTEX
10
0.1439
20
-48.8513
0
VERTEX
10
0.1403
20
-48.8627
0
VERTEX
10
0.1373
20
-48.8741
0
VERTEX
10
0.1350
20
-48.8855
0
VERTEX
10
0.1334
20
-48.8968
0
VERTEX
10
0.1324
20
-48.9082
0
VERTEX
10
0.1322
20
-48.9196
0
SEQEND
0
POLYLINE
8
M1_Neg
70
1
0
VERTEX
10
-0.7251
20
-48.3620
0
VERTEX
10
-0.7252
20
-48.3506
0
VERTEX
10
-0.7259
20
-48.3392
0
VERTEX
10
-0.7271
20
-48.3279
0
VERTEX
10
-0.7288
20
-48.3165
0
VERTEX
10
-0.7309
20
-48.3051
0
VERTEX
10
-0.7336
20
-48.2937
0
VERTEX
10
-0.7366
20
-48.2823
0
VERTEX
10
-0.7399
20
-48.2710
0
VERTEX
10
-0.7436
20
-48.2596
0
VERTEX
10
-0.7474
20
-48.2482
0
VERTEX
10
-0.7515
20
-48.2368
0
VERTEX
10
-0.7556
20
-48.2254
0
VERTEX
10
-0.7597
20
-48.2141
0
VERTEX
10
-0.7638
20
-48.2027
0
VERTEX
10
-0.7677
20
-48.1913
0
VERTEX
10
-0.7715
20
-48.1799
0
VERTEX
10
-0.7750
20
-48.1685
0
VERTEX
10
-0.7782
20
-48.1572
0
VERTEX
10
-0.7810
20
-48.1458
0
VERTEX
10
-0.7834
20
-48.1344
0
VERTEX
10
-0.7854
20
-48.1230
0
VERTEX
10
-0.7868
20
-48.1116
0
VERTEX
10
-0.7878
20
-48.1003
0
VERTEX
10
-0.7882
20
-48.0889
0
VERTEX
10
-0.7880
20
-48.0775
0
VERTEX
10
-0.7873
20
-48.0661
0
VERTEX
10
-0.7861
20
-48.0548
0
VERTEX
10
-0.7843
20
-48.0434
0
VERTEX
10
-0.7821
20
-48.0320
0
VERTEX
10
-0.7794
20
-48.0206
0
VERTEX
10
-0.7763
20
-48.0092
0
VERTEX
10
-0.7728
20
-47.9979
0
VERTEX
10
-0.7690
20
-47.9865
0
VERTEX
10
-0.7649
20
-47.9751
0
VERTEX
10
-0.7607
20
-47.9637
0
VERTEX
10
-0.7563
20
-47.9523
0
VERTEX
10
-0.7519
20
-47.9410
0
VERTEX
10
-0.7475
20
-47.9296
0
VERTEX
10
-0.7432
20
-47.9182
0
VERTEX
10
-0.7391
20
-47.9068
0
VERTEX
10
-0.7351
20
-47.8954
0
VERTEX
10
-0.7315
20
-47.8841
0
VERTEX
10
-0.7282
20
-47.8727
0
VERTEX
10
-0.7252
20
-47.8613
0
VERTEX
10
-0.7228
20
-47.8499
0
VERTEX
10
-0.7208
20
-47.8385
0
VERTEX
10
-0.7193
20
-47.8272
0
VERTEX
10
-0.7183
20
-47.8158
0
VERTEX
10
-0.7179
20
-47.8044
0
VERTEX
10
0.1179
20
-47.8044
0
VERTEX
10
0.1183
20
-47.8158
0
VERTEX
10
0.1193
20
-47.8272
0
VERTEX
10
0.1208
20
-47.8385
0
VERTEX
10
0.1228
20
-47.8499
0
VERTEX
10
0.1252
20
-47.8613
0
VERTEX
10
0.1282
20
-47.8727
0
VERTEX
10
0.1315
20
-47.8841
0
VERTEX
10
0.1351
20
-47.8954
0
VERTEX
10
0.1391
20
-47.9068
0
VERTEX
10
0.1432
20
-47.9182
0
VERTEX
10
0.1475
20
-47.9296
0
VERTEX
10
0.1519
20
-47.9410
0
VERTEX
10
0.1563
20
-47.9523
0
VERTEX
10
0.1607
20
-47.9637
0
VERTEX
10
0.1649
20
-47.9751
0
VERTEX
10
0.1690
20
-47.9865
0
VERTEX
10
0.1728
20
-47.9979
0
VERTEX
10
0.1763
20
-48.0092
0
VERTEX
10
0.1794
20
-48.0206
0
VERTEX
10
0.1821
20
-48.0320
0
VERTEX
10
0.1843
20
-48.0434
0
VERTEX
10
0.1861
20
-48.0548
0
VERTEX
10
0.1873
20
-48.0661
0
VERTEX
10
0.1880
20
-48.0775
0
VERTEX
10
0.1882
20
-48.0889
0
VERTEX
10
0.1878
20
-48.1003
0
VERTEX
10
0.1868
20
-48.1116
0
VERTEX
10
0.1854
20
-48.1230
0
VERTEX
10
0.1834
20
-48.1344
0
VERTEX
10
0.1810
20
-48.1458
0
VERTEX
10
0.1782
20
-48.1572
0
VERTEX
10
0.1750
20
-48.1685
0
VERTEX
10
0.1715
20
-48.1799
0
VERTEX
10
0.1677
20
-48.1913
0
VERTEX
10
0.1638
20
-48.2027
0
VERTEX
10
0.1597
20
-48.2141
0
VERTEX
10
0.1556
20
-48.2254
0
VERTEX
10
0.1515
20
-48.2368
0
VERTEX
10
0.1474
20
-48.2482
0
VERTEX
10
0.1436
20
-48.2596
0
VERTEX
10
0.1399
20
-48.2710
0
VERTEX
10
0.1366
20
-48.2823
0
VERTEX
10
0.1336
20
-48.2937
0
VERTEX
10
0.1309
20
-48.3051
0
VERTEX
10
0.1288
20
-48.3165
0
VERTEX
10
0.1271
20
-48.3279
0
VERTEX
10
0.1259
20
-48.3392
0
VERTEX
10
0.1252
20
-48.3506
0
VERTEX
10
0.1251
20
-48.3620
0
SEQEND
0
POLYLINE
8
M1_Neg
70
1
0
VERTEX
10
-0.7179
20
-47.8044
0
VERTEX
10
-0.7179
20
-47.7930
0
VERTEX
10
-0.7183
20
-47.7816
0
VERTEX
10
-0.7191
20
-47.7703
0
VERTEX
10
-0.7202
20
-47.7589
0
VERTEX
10
-0.7216
20
-47.7475
0
VERTEX
10
-0.7233
20
-47.7361
0
VERTEX
10
-0.7252
20
-47.7247
0
VERTEX
10
-0.7274
20
-47.7134
0
VERTEX
10
-0.7298
20
-47.7020
0
VERTEX
10
-0.7323
20
-47.6906
0
VERTEX
10
-0.7350
20
-47.6792
0
VERTEX
10
-0.7377
20
-47.6678
0
VERTEX
10
-0.7404
20
-47.6565
0
VERTEX
10
-0.7430
20
-47.6451
0
VERTEX
10
-0.7456
20
-47.6337
0
VERTEX
10
-0.7481
20
-47.6223
0
VERTEX
10
-0.7504
20
-47.6109
0
VERTEX
10
-0.7524
20
-47.5996
0
VERTEX
10
-0.7543
20
-47.5882
0
VERTEX
10
-0.7558
20
-47.5768
0
VERTEX
10
-0.7571
20
-47.5654
0
VERTEX
10
-0.7580
20
-47.5540
0
VERTEX
10
-0.7586
20
-47.5427
0
VERTEX
10
-0.7588
20
-47.5313
0
VERTEX
10
-0.7587
20
-47.5199
0
VERTEX
10
-0.7581
20
-47.5085
0
VERTEX
10
-0.7573
20
-47.4972
0
VERTEX
10
-0.7561
20
-47.4858
0
VERTEX
10
-0.7545
20
-47.4744
0
VERTEX
10
-0.7527
20
-47.4630
0
VERTEX
10
-0.7505
20
-47.4516
0
VERTEX
10
-0.7482
20
-47.4403
0
VERTEX
10
-0.7456
20
-47.4289
0
VERTEX
10
-0.7428
20
-47.4175
0
VERTEX
10
-0.7400
20
-47.4061
0
VERTEX
10
-0.7370
20
-47.3947
0
VERTEX
10
-0.7340
20
-47.3834
0
VERTEX
10
-0.7310
20
-47.3720
0
VERTEX
10
-0.7281
20
-47.3606
0
VERTEX
10
-0.7253
20
-47.3492
0
VERTEX
10
-0.7226
20
-47.3378
0
VERTEX
10
-0.7201
20
-47.3265
0
VERTEX
10
-0.7179
20
-47.3151
0
VERTEX
10
-0.7159
20
-47.3037
0
VERTEX
10
-0.7142
20
-47.2923
0
VERTEX
10
-0.7128
20
-47.2809
0
VERTEX
10
-0.7118
20
-47.2696
0
VERTEX
10
-0.7111
20
-47.2582
0
VERTEX
10
-0.7107
20
-47.2468
0
VERTEX
10
0.1107
20
-47.2468
0
VERTEX
10
0.1111
20
-47.2582
0
VERTEX
10
0.1118
20
-47.2696
0
VERTEX
10
0.1128
20
-47.2809
0
VERTEX
10
0.1142
20
-47.2923
0
VERTEX
10
0.1159
20
-47.3037
0
VERTEX
10
0.1179
20
-47.3151
0
VERTEX
10
0.1201
20
-47.3265
0
VERTEX
10
0.1226
20
-47.3378
0
VERTEX
10
0.1253
20
-47.3492
0
VERTEX
10
0.1281
20
-47.3606
0
VERTEX
10
0.1310
20
-47.3720
0
VERTEX
10
0.1340
20
-47.3834
0
VERTEX
10
0.1370
20
-47.3947
0
VERTEX
10
0.1400
20
-47.4061
0
VERTEX
10
0.1428
20
-47.4175
0
VERTEX
10
0.1456
20
-47.4289
0
VERTEX
10
0.1482
20
-47.4403
0
VERTEX
10
0.1505
20
-47.4516
0
VERTEX
10
0.1527
20
-47.4630
0
VERTEX
10
0.1545
20
-47.4744
0
VERTEX
10
0.1561
20
-47.4858
0
VERTEX
10
0.1573
20
-47.4972
0
VERTEX
10
0.1581
20
-47.5085
0
VERTEX
10
0.1587
20
-47.5199
0
VERTEX
10
0.1588
20
-47.5313
0
VERTEX
10
0.1586
20
-47.5427
0
VERTEX
10
0.1580
20
-47.5540
0
VERTEX
10
0.1571
20
-47.5654
0
VERTEX
10
0.1558
20
-47.5768
0
VERTEX
10
0.1543
20
-47.5882
0
VERTEX
10
0.1524
20
-47.5996
0
VERTEX
10
0.1504
20
-47.6109
0
VERTEX
10
0.1481
20
-47.6223
0
VERTEX
10
0.1456
20
-47.6337
0
VERTEX
10
0.1430
20
-47.6451
0
VERTEX
10
0.1404
20
-47.6565
0
VERTEX
10
0.1377
20
-47.6678
0
VERTEX
10
0.1350
20
-47.6792
0
VERTEX
10
0.1323
20
-47.6906
0
VERTEX
10
0.1298
20
-47.7020
0
VERTEX
10
0.1274
20
-47.7134
0
VERTEX
10
0.1252
20
-47.7247
0
VERTEX
10
0.1233
20
-47.7361
0
VERTEX
10
0.1216
20
-47.7475
0
VERTEX
10
0.1202
20
-47.7589
0
VERTEX
10
0.1191
20
-47.7703
0
VERTEX
10
0.1183
20
-47.7816
0
VERTEX
10
0.1179
20
-47.7930
0
VERTEX
10
0.1179
20
-47.8044
0
SEQEND
0
POLYLINE
8
M1_Neg
70
1
0
VERTEX
10
-0.7107
20
-47.2468
0
VERTEX
10
-0.7108
20
-47.2354
0
VERTEX
10
-0.7110
20
-47.2240
0
VERTEX
10
-0.7113
20
-47.2127
0
VERTEX
10
-0.7119
20
-47.2013
0
VERTEX
10
-0.7126
20
-47.1899
0
VERTEX
10
-0.7134
20
-47.1785
0
VERTEX
10
-0.7144
20
-47.1671
0
VERTEX
10
-0.7155
20
-47.1558
0
VERTEX
10
-0.7167
20
-47.1444
0
VERTEX
10
-0.7180
20
-47.1330
0
VERTEX
10
-0.7193
20
-47.1216
0
VERTEX
10
-0.7206
20
-47.1102
0
VERTEX
10
-0.7220
20
-47.0989
0
VERTEX
10
-0.7233
20
-47.0875
0
VERTEX
10
-0.7246
20
-47.0761
0
VERTEX
10
-0.7258
20
-47.0647
0
VERTEX
10
-0.7270
20
-47.0533
0
VERTEX
10
-0.7280
20
-47.0420
0
VERTEX
10
-0.7289
20
-47.0306
0
VERTEX
10
-0.7297
20
-47.0192
0
VERTEX
10
-0.7303
20
-47.0078
0
VERTEX
10
-0.7308
20
-46.9964
0
VERTEX
10
-0.7311
20
-46.9851
0
VERTEX
10
-0.7312
20
-46.9737
0
VERTEX
10
-0.7311
20
-46.9623
0
VERTEX
10
-0.7309
20
-46.9509
0
VERTEX
10
-0.7304
20
-46.9396
0
VERTEX
10
-0.7298
20
-46.9282
0
VERTEX
10
-0.7290
20
-46.9168
0
VERTEX
10
-0.7281
20
-46.9054
0
VERTEX
10
-0.7271
20
-46.8940
0
VERTEX
10
-0.7259
20
-46.8827
0
VERTEX
10
-0.7246
20
-46.8713
0
VERTEX
10
-0.7232
20
-46.8599
0
VERTEX
10
-0.7218
20
-46.8485
0
VERTEX
10
-0.7203
20
-46.8371
0
VERTEX
10
-0.7188
20
-46.8258
0
VERTEX
10
-0.7173
20
-46.8144
0
VERTEX
10
-0.7158
20
-46.8030
0
VERTEX
10
-0.7144
20
-46.7916
0
VERTEX
10
-0.7131
20
-46.7802
0
VERTEX
10
-0.7119
20
-46.7689
0
VERTEX
10
-0.7107
20
-46.7575
0
VERTEX
10
-0.7097
20
-46.7461
0
VERTEX
10
-0.7089
20
-46.7347
0
VERTEX
10
-0.7082
20
-46.7233
0
VERTEX
10
-0.7077
20
-46.7120
0
VERTEX
10
-0.7073
20
-46.7006
0
VERTEX
10
-0.7072
20
-46.6892
0
VERTEX
10
0.1072
20
-46.6892
0
VERTEX
10
0.1073
20
-46.7006
0
VERTEX
10
0.1077
20
-46.7120
0
VERTEX
10
0.1082
20
-46.7233
0
VERTEX
10
0.1089
20
-46.7347
0
VERTEX
10
0.1097
20
-46.7461
0
VERTEX
10
0.1107
20
-46.7575
0
VERTEX
10
0.1119
20
-46.7689
0
VERTEX
10
0.1131
20
-46.7802
0
VERTEX
10
0.1144
20
-46.7916
0
VERTEX
10
0.1158
20
-46.8030
0
VERTEX
10
0.1173
20
-46.8144
0
VERTEX
10
0.1188
20
-46.8258
0
VERTEX
10
0.1203
20
-46.8371
0
VERTEX
10
0.1218
20
-46.8485
0
VERTEX
10
0.1232
20
-46.8599
0
VERTEX
10
0.1246
20
-46.8713
0
VERTEX
10
0.1259
20
-46.8827
0
VERTEX
10
0.1271
20
-46.8940
0
VERTEX
10
0.1281
20
-46.9054
0
VERTEX
10
0.1290
20
-46.9168
0
VERTEX
10
0.1298
20
-46.9282
0
VERTEX
10
0.1304
20
-46.9396
0
VERTEX
10
0.1309
20
-46.9509
0
VERTEX
10
0.1311
20
-46.9623
0
VERTEX
10
0.1312
20
-46.9737
0
VERTEX
10
0.1311
20
-46.9851
0
VERTEX
10
0.1308
20
-46.9964
0
VERTEX
10
0.1303
20
-47.0078
0
VERTEX
10
0.1297
20
-47.0192
0
VERTEX
10
0.1289
20
-47.0306
0
VERTEX
10
0.1280
20
-47.0420
0
VERTEX
10
0.1270
20
-47.0533
0
VERTEX
10
0.1258
20
-47.0647
0
VERTEX
10
0.1246
20
-47.0761
0
VERTEX
10
0.1233
20
-47.0875
0
VERTEX
10
0.1220
20
-47.0989
0
VERTEX
10
0.1206
20
-47.1102
0
VERTEX
10
0.1193
20
-47.1216
0
VERTEX
10
0.1180
20
-47.1330
0
VERTEX
10
0.1167
20
-47.1444
0
VERTEX
10
0.1155
20
-47.1558
0
VERTEX
10
0.1144
20
-47.1671
0
VERTEX
10
0.1134
20
-47.1785
0
VERTEX
10
0.1126
20
-47.1899
0
VERTEX
10
0.1119
20
-47.2013
0
VERTEX
10
0.1113
20
-47.2127
0
VERTEX
10
0.1110
20
-47.2240
0
VERTEX
10
0.1108
20
-47.2354
0
VERTEX
10
0.1107
20
-47.2468
0
SEQEND
0
ELLIPSE
100
AcDbEntity
8
M1_Pos_holes
100
AcDbEllipse
10
-0.3000
20
-60.9080
30
0.0000
11
-0.4609
21
0.0000
31
0.0000
40
0.3807
41
0.0000
42
6.283185307179586
0
ELLIPSE
100
AcDbEntity
8
M1_Pos_holes
100
AcDbEllipse
10
-0.3000
20
-60.3504
30
0.0000
11
-0.4609
21
0.0000
31
0.0000
40
0.3807
41
0.0000
42
6.283185307179586
0
ELLIPSE
100
AcDbEntity
8
M1_Pos_holes
100
AcDbEllipse
10
-0.3000
20
-59.7928
30
0.0000
11
-0.4609
21
0.0000
31
0.0000
40
0.3807
41
0.0000
42
6.283185307179586
0
ELLIPSE
100
AcDbEntity
8
M1_Pos_holes
100
AcDbEllipse
10
-0.3000
20
-59.2352
30
0.0000
11
-0.4609
21
0.0000
31
0.0000
40
0.3807
41
0.0000
42
6.283185307179586
0
ELLIPSE
100
AcDbEntity
8
M1_Pos_holes
100
AcDbEllipse
10
-0.3000
20
-58.6776
30
0.0000
11
-0.4609
21
0.0000
31
0.0000
40
0.3807
41
0.0000
42
6.283185307179586
0
ELLIPSE
100
AcDbEntity
8
M1_Pos_holes
100
AcDbEllipse
10
-0.3000
20
-58.1200
30
0.0000
11
-0.4609
21
0.0000
31
0.0000
40
0.3807
41
0.0000
42
6.283185307179586
0
ELLIPSE
100
AcDbEntity
8
M1_Pos_holes
100
AcDbEllipse
10
-0.3000
20
-57.5624
30
0.0000
11
-0.4609
21
0.0000
31
0.0000
40
0.3807
41
0.0000
42
6.283185307179586
0
ELLIPSE
100
AcDbEntity
8
M1_Pos_holes
100
AcDbEllipse
10
-0.3000
20
-57.0048
30
0.0000
11
-0.4609
21
0.0000
31
0.0000
40
0.3807
41
0.0000
42
6.283185307179586
0
ELLIPSE
100
AcDbEntity
8
M1_Pos_holes
100
AcDbEllipse
10
-0.3000
20
-56.4472
30
0.0000
11
-0.4609
21
0.0000
31
0.0000
40
0.3807
41
0.0000
42
6.283185307179586
0
ELLIPSE
100
AcDbEntity
8
M1_Pos_holes
100
AcDbEllipse
10
-0.3000
20
-55.8896
30
0.0000
11
-0.4609
21
0.0000
31
0.0000
40
0.3807
41
0.0000
42
6.283185307179586
0
ELLIPSE
100
AcDbEntity
8
M1_Pos_holes
100
AcDbEllipse
10
-0.3000
20
-55.3320
30
0.0000
11
-0.4609
21
0.0000
31
0.0000
40
0.3807
41
0.0000
42
6.283185307179586
0
ELLIPSE
100
AcDbEntity
8
M1_Pos_holes
100
AcDbEllipse
10
-0.3000
20
-54.7744
30
0.0000
11
-0.4609
21
0.0000
31
0.0000
40
0.3807
41
0.0000
42
6.283185307179586
0
ELLIPSE
100
AcDbEntity
8
M1_Pos_holes
100
AcDbEllipse
10
-0.3000
20
-54.2168
30
0.0000
11
-0.4609
21
0.0000
31
0.0000
40
0.3807
41
0.0000
42
6.283185307179586
0
ELLIPSE
100
AcDbEntity
8
M1_Pos_holes
100
AcDbEllipse
10
-0.3000
20
-53.6592
30
0.0000
11
-0.4609
21
0.0000
31
0.0000
40
0.3807
41
0.0000
42
6.283185307179586
0
ELLIPSE
100
AcDbEntity
8
M1_Pos_holes
100
AcDbEllipse
10
-0.3000
20
-53.1016
30
0.0000
11
-0.4609
21
0.0000
31
0.0000
40
0.3807
41
0.0000
42
6.283185307179586
0
ELLIPSE
100
AcDbEntity
8
M1_Pos_holes
100
AcDbEllipse
10
-0.3000
20
-52.5440
30
0.0000
11
-0.4609
21
0.0000
31
0.0000
40
0.3807
41
0.0000
42
6.283185307179586
0
ELLIPSE
100
AcDbEntity
8
M1_Pos_holes
100
AcDbEllipse
10
-0.3000
20
-51.9864
30
0.0000
11
-0.4609
21
0.0000
31
0.0000
40
0.3807
41
0.0000
42
6.283185307179586
0
ELLIPSE
100
AcDbEntity
8
M1_Pos_holes
100
AcDbEllipse
10
-0.3000
20
-51.4288
30
0.0000
11
-0.4609
21
0.0000
31
0.0000
40
0.3807
41
0.0000
42
6.283185307179586
0
ELLIPSE
100
AcDbEntity
8
M1_Pos_holes
100
AcDbEllipse
10
-0.3000
20
-50.8712
30
0.0000
11
-0.4609
21
0.0000
31
0.0000
40
0.3807
41
0.0000
42
6.283185307179586
0
ELLIPSE
100
AcDbEntity
8
M1_Pos_holes
100
AcDbEllipse
10
-0.3000
20
-50.3136
30
0.0000
11
-0.4033
21
0.0000
31
0.0000
40
0.3807
41
0.0000
42
6.283185307179586
0
ELLIPSE
100
AcDbEntity
8
M1_Pos_holes
100
AcDbEllipse
10
-0.3000
20
-49.7560
30
0.0000
11
-0.3457
21
0.0000
31
0.0000
40
0.3807
41
0.0000
42
6.283185307179586
0
ELLIPSE
100
AcDbEntity
8
M1_Pos_holes
100
AcDbEllipse
10
-0.3000
20
-49.1984
30
0.0000
11
-0.2881
21
0.0000
31
0.0000
40
0.3807
41
0.0000
42
6.283185307179586
0
ELLIPSE
100
AcDbEntity
8
M1_Pos_holes
100
AcDbEllipse
10
-0.3000
20
-48.6408
30
0.0000
11
-0.2305
21
0.0000
31
0.0000
40
0.3807
41
0.0000
42
6.283185307179586
0
ELLIPSE
100
AcDbEntity
8
M1_Pos_holes
100
AcDbEllipse
10
-0.3000
20
-48.0832
30
0.0000
11
-0.1729
21
0.0000
31
0.0000
40
0.3807
41
0.0000
42
6.283185307179586
0
ELLIPSE
100
AcDbEntity
8
M1_Pos_holes
100
AcDbEllipse
10
-0.3000
20
-47.5256
30
0.0000
11
-0.1152
21
0.0000
31
0.0000
40
0.3807
41
0.0000
42
6.283185307179586
0
ELLIPSE
100
AcDbEntity
8
M1_Pos_holes
100
AcDbEllipse
10
-0.3000
20
-46.9680
30
0.0000
11
-0.0576
21
0.0000
31
0.0000
40
0.3807
41
0.0000
42
6.283185307179586
0
POLYLINE
8
M1_Field
70
1
0
VERTEX
10
-31.3000
20
-61.1868
0
VERTEX
10
30.7000
20
-61.1868
0
VERTEX
10
30.7000
20
0.8132
0
VERTEX
10
-31.3000
20
0.8132
0
SEQEND
0
POLYLINE
8
cure
70
1
0
VERTEX
10
-3.3000
20
-61.1868
0
VERTEX
10
2.7000
20
-61.1868
0
VERTEX
10
2.7000
20
0.8132
0
VERTEX
10
-3.3000
20
0.8132
0
SEQEND
0
POLYLINE
8
M1_Neg
70
1
0
VERTEX
10
-3.8000
20
-41.1500
0
VERTEX
10
3.2000
20
-41.1500
0
VERTEX
10
3.2000
20
-40.1500
0
VERTEX
10
-3.8000
20
-40.1500
0
SEQEND
0
POLYLINE
8
M1_Neg
70
1
0
VERTEX
10
13.4500
20
-49.3500
0
VERTEX
10
13.4500
20
-49.5000
0
VERTEX
10
3.4500
20
-49.5000
0
VERTEX
10
3.4500
20
-50.4000
0
VERTEX
10
13.4500
20
-50.4000
0
VERTEX
10
13.4500
20
-50.5500
0
VERTEX
10
13.7500
20
-50.5500
0
VERTEX
10
13.7500
20
-50.1000
0
VERTEX
10
3.7500
20
-50.1000
0
VERTEX
10
3.7500
20
-49.8000
0
VERTEX
10
13.7500
20
-49.8000
0
VERTEX
10
13.7500
20
-49.3500
0
SEQEND
0
POLYLINE
8
M1_Neg
70
1
0
VERTEX
10
13.4500
20
-48.1500
0
VERTEX
10
13.4500
20
-48.3000
0
VERTEX
10
3.4500
20
-48.3000
0
VERTEX
10
3.4500
20
-49.2000
0
VERTEX
10
13.4500
20
-49.2000
0
VERTEX
10
13.4500
20
-49.3500
0
VERTEX
10
13.7500
20
-49.3500
0
VERTEX
10
13.7500
20
-48.9000
0
VERTEX
10
3.7500
20
-48.9000
0
VERTEX
10
3.7500
20
-48.6000
0
VERTEX
10
13.7500
20
-48.6000
0
VERTEX
10
13.7500
20
-48.1500
0
SEQEND
0
POLYLINE
8
M1_Neg
70
1
0
VERTEX
10
13.4500
20
-46.9500
0
VERTEX
10
13.4500
20
-47.1000
0
VERTEX
10
3.4500
20
-47.1000
0
VERTEX
10
3.4500
20
-48.0000
0
VERTEX
10
13.4500
20
-48.0000
0
VERTEX
10
13.4500
20
-48.1500
0
VERTEX
10
13.7500
20
-48.1500
0
VERTEX
10
13.7500
20
-47.7000
0
VERTEX
10
3.7500
20
-47.7000
0
VERTEX
10
3.7500
20
-47.4000
0
VERTEX
10
13.7500
20
-47.4000
0
VERTEX
10
13.7500
20
-46.9500
0
SEQEND
0
POLYLINE
8
M1_Neg
70
1
0
VERTEX
10
13.4500
20
-45.7500
0
VERTEX
10
13.4500
20
-45.9000
0
VERTEX
10
3.4500
20
-45.9000
0
VERTEX
10
3.4500
20
-46.8000
0
VERTEX
10
13.4500
20
-46.8000
0
VERTEX
10
13.4500
20
-46.9500
0
VERTEX
10
13.7500
20
-46.9500
0
VERTEX
10
13.7500
20
-46.5000
0
VERTEX
10
3.7500
20
-46.5000
0
VERTEX
10
3.7500
20
-46.2000
0
VERTEX
10
13.7500
20
-46.2000
0
VERTEX
10
13.7500
20
-45.7500
0
SEQEND
0
POLYLINE
8
M1_Neg
70
1
0
VERTEX
10
13.4500
20
-44.5500
0
VERTEX
10
13.4500
20
-44.7000
0
VERTEX
10
3.4500
20
-44.7000
0
VERTEX
10
3.4500
20
-45.6000
0
VERTEX
10
13.4500
20
-45.6000
0
VERTEX
10
13.4500
20
-45.7500
0
VERTEX
10
13.7500
20
-45.7500
0
VERTEX
10
13.7500
20
-45.3000
0
VERTEX
10
3.7500
20
-45.3000
0
VERTEX
10
3.7500
20
-45.0000
0
VERTEX
10
13.7500
20
-45.0000
0
VERTEX
10
13.7500
20
-44.5500
0
SEQEND
0
POLYLINE
8
M1_Neg
70
1
0
VERTEX
10
13.4500
20
-43.3500
0
VERTEX
10
13.4500
20
-43.5000
0
VERTEX
10
3.4500
20
-43.5000
0
VERTEX
10
3.4500
20
-44.4000
0
VERTEX
10
13.4500
20
-44.4000
0
VERTEX
10
13.4500
20
-44.5500
0
VERTEX
10
13.7500
20
-44.5500
0
VERTEX
10
13.7500
20
-44.1000
0
VERTEX
10
3.7500
20
-44.1000
0
VERTEX
10
3.7500
20
-43.8000
0
VERTEX
10
13.7500
20
-43.8000
0
VERTEX
10
13.7500
20
-43.3500
0
SEQEND
0
POLYLINE
8
M1_Neg
70
1
0
VERTEX
10
13.4500
20
-42.1500
0
VERTEX
10
13.4500
20
-42.3000
0
VERTEX
10
3.4500
20
-42.3000
0
VERTEX
10
3.4500
20
-43.2000
0
VERTEX
10
13.4500
20
-43.2000
0
VERTEX
10
13.4500
20
-43.3500
0
VERTEX
10
13.7500
20
-43.3500
0
VERTEX
10
13.7500
20
-42.9000
0
VERTEX
10
3.7500
20
-42.9000
0
VERTEX
10
3.7500
20
-42.6000
0
VERTEX
10
13.7500
20
-42.6000
0
VERTEX
10
13.7500
20
-42.1500
0
SEQEND
0
POLYLINE
8
M1_Neg
70
1
0
VERTEX
10
13.4500
20
-40.9500
0
VERTEX
10
13.4500
20
-41.1000
0
VERTEX
10
3.4500
20
-41.1000
0
VERTEX
10
3.4500
20
-42.0000
0
VERTEX
10
13.4500
20
-42.0000
0
VERTEX
10
13.4500
20
-42.1500
0
VERTEX
10
13.7500
20
-42.1500
0
VERTEX
10
13.7500
20
-41.7000
0
VERTEX
10
3.7500
20
-41.7000
0
VERTEX
10
3.7500
20
-41.4000
0
VERTEX
10
13.7500
20
-41.4000
0
VERTEX
10
13.7500
20
-40.9500
0
SEQEND
0
POLYLINE
8
M1_Neg
70
1
0
VERTEX
10
3.4500
20
-40.3500
0
VERTEX
10
3.4500
20
-40.8000
0
VERTEX
10
13.4500
20
-40.8000
0
VERTEX
10
13.4500
20
-40.9500
0
VERTEX
10
13.7500
20
-40.9500
0
VERTEX
10
13.7500
20
-40.5000
0
VERTEX
10
3.7500
20
-40.5000
0
VERTEX
10
3.7500
20
-40.3500
0
SEQEND
0
POLYLINE
8
metal
70
1
0
VERTEX
10
13.4500
20
-49.3500
0
VERTEX
10
13.4500
20
-49.5000
0
VERTEX
10
3.4500
20
-49.5000
0
VERTEX
10
3.4500
20
-50.4000
0
VERTEX
10
13.4500
20
-50.4000
0
VERTEX
10
13.4500
20
-50.5500
0
VERTEX
10
13.5500
20
-50.5500
0
VERTEX
10
13.5500
20
-50.3000
0
VERTEX
10
3.5500
20
-50.3000
0
VERTEX
10
3.5500
20
-49.6000
0
VERTEX
10
13.5500
20
-49.6000
0
VERTEX
10
13.5500
20
-49.3500
0
SEQEND
0
POLYLINE
8
metal
70
1
0
VERTEX
10
13.4500
20
-48.1500
0
VERTEX
10
13.4500
20
-48.3000
0
VERTEX
10
3.4500
20
-48.3000
0
VERTEX
10
3.4500
20
-49.2000
0
VERTEX
10
13.4500
20
-49.2000
0
VERTEX
10
13.4500
20
-49.3500
0
VERTEX
10
13.5500
20
-49.3500
0
VERTEX
10
13.5500
20
-49.1000
0
VERTEX
10
3.5500
20
-49.1000
0
VERTEX
10
3.5500
20
-48.4000
0
VERTEX
10
13.5500
20
-48.4000
0
VERTEX
10
13.5500
20
-48.1500
0
SEQEND
0
POLYLINE
8
metal
70
1
0
VERTEX
10
13.4500
20
-46.9500
0
VERTEX
10
13.4500
20
-47.1000
0
VERTEX
10
3.4500
20
-47.1000
0
VERTEX
10
3.4500
20
-48.0000
0
VERTEX
10
13.4500
20
-48.0000
0
VERTEX
10
13.4500
20
-48.1500
0
VERTEX
10
13.5500
20
-48.1500
0
VERTEX
10
13.5500
20
-47.9000
0
VERTEX
10
3.5500
20
-47.9000
0
VERTEX
10
3.5500
20
-47.2000
0
VERTEX
10
13.5500
20
-47.2000
0
VERTEX
10
13.5500
20
-46.9500
0
SEQEND
0
POLYLINE
8
metal
70
1
0
VERTEX
10
13.4500
20
-45.7500
0
VERTEX
10
13.4500
20
-45.9000
0
VERTEX
10
3.4500
20
-45.9000
0
VERTEX
10
3.4500
20
-46.8000
0
VERTEX
10
13.4500
20
-46.8000
0
VERTEX
10
13.4500
20
-46.9500
0
VERTEX
10
13.5500
20
-46.9500
0
VERTEX
10
13.5500
20
-46.7000
0
VERTEX
10
3.5500
20
-46.7000
0
VERTEX
10
3.5500
20
-46.0000
0
VERTEX
10
13.5500
20
-46.0000
0
VERTEX
10
13.5500
20
-45.7500
0
SEQEND
0
POLYLINE
8
metal
70
1
0
VERTEX
10
13.4500
20
-44.5500
0
VERTEX
10
13.4500
20
-44.7000
0
VERTEX
10
3.4500
20
-44.7000
0
VERTEX
10
3.4500
20
-45.6000
0
VERTEX
10
13.4500
20
-45.6000
0
VERTEX
10
13.4500
20
-45.7500
0
VERTEX
10
13.5500
20
-45.7500
0
VERTEX
10
13.5500
20
-45.5000
0
VERTEX
10
3.5500
20
-45.5000
0
VERTEX
10
3.5500
20
-44.8000
0
VERTEX
10
13.5500
20
-44.8000
0
VERTEX
10
13.5500
20
-44.5500
0
SEQEND
0
POLYLINE
8
metal
70
1
0
VERTEX
10
13.4500
20
-43.3500
0
VERTEX
10
13.4500
20
-43.5000
0
VERTEX
10
3.4500
20
-43.5000
0
VERTEX
10
3.4500
20
-44.4000
0
VERTEX
10
13.4500
20
-44.4000
0
VERTEX
10
13.4500
20
-44.5500
0
VERTEX
10
13.5500
20
-44.5500
0
VERTEX
10
13.5500
20
-44.3000
0
VERTEX
10
3.5500
20
-44.3000
0
VERTEX
10
3.5500
20
-43.6000
0
VERTEX
10
13.5500
20
-43.6000
0
VERTEX
10
13.5500
20
-43.3500
0
SEQEND
0
POLYLINE
8
metal
70
1
0
VERTEX
10
13.4500
20
-42.1500
0
VERTEX
10
13.4500
20
-42.3000
0
VERTEX
10
3.4500
20
-42.3000
0
VERTEX
10
3.4500
20
-43.2000
0
VERTEX
10
13.4500
20
-43.2000
0
VERTEX
10
13.4500
20
-43.3500
0
VERTEX
10
13.5500
20
-43.3500
0
VERTEX
10
13.5500
20
-43.1000
0
VERTEX
10
3.5500
20
-43.1000
0
VERTEX
10
3.5500
20
-42.4000
0
VERTEX
10
13.5500
20
-42.4000
0
VERTEX
10
13.5500
20
-42.1500
0
SEQEND
0
POLYLINE
8
metal
70
1
0
VERTEX
10
13.4500
20
-40.9500
0
VERTEX
10
13.4500
20
-41.1000
0
VERTEX
10
3.4500
20
-41.1000
0
VERTEX
10
3.4500
20
-42.0000
0
VERTEX
10
13.4500
20
-42.0000
0
VERTEX
10
13.4500
20
-42.1500
0
VERTEX
10
13.5500
20
-42.1500
0
VERTEX
10
13.5500
20
-41.9000
0
VERTEX
10
3.5500
20
-41.9000
0
VERTEX
10
3.5500
20
-41.2000
0
VERTEX
10
13.5500
20
-41.2000
0
VERTEX
10
13.5500
20
-40.9500
0
SEQEND
0
POLYLINE
8
metal
70
1
0
VERTEX
10
3.4500
20
-40.3500
0
VERTEX
10
3.4500
20
-40.8000
0
VERTEX
10
13.4500
20
-40.8000
0
VERTEX
10
13.4500
20
-40.9500
0
VERTEX
10
13.5500
20
-40.9500
0
VERTEX
10
13.5500
20
-40.7000
0
VERTEX
10
3.5500
20
-40.7000
0
VERTEX
10
3.5500
20
-40.3500
0
SEQEND
0
POLYLINE
8
metal
70
1
0
VERTEX
10
13.6500
20
-49.3500
0
VERTEX
10
13.6500
20
-49.7000
0
VERTEX
10
3.6500
20
-49.7000
0
VERTEX
10
3.6500
20
-50.2000
0
VERTEX
10
13.6500
20
-50.2000
0
VERTEX
10
13.6500
20
-50.5500
0
VERTEX
10
13.7500
20
-50.5500
0
VERTEX
10
13.7500
20
-50.1000
0
VERTEX
10
3.7500
20
-50.1000
0
VERTEX
10
3.7500
20
-49.8000
0
VERTEX
10
13.7500
20
-49.8000
0
VERTEX
10
13.7500
20
-49.3500
0
SEQEND
0
POLYLINE
8
metal
70
1
0
VERTEX
10
13.6500
20
-48.1500
0
VERTEX
10
13.6500
20
-48.5000
0
VERTEX
10
3.6500
20
-48.5000
0
VERTEX
10
3.6500
20
-49.0000
0
VERTEX
10
13.6500
20
-49.0000
0
VERTEX
10
13.6500
20
-49.3500
0
VERTEX
10
13.7500
20
-49.3500
0
VERTEX
10
13.7500
20
-48.9000
0
VERTEX
10
3.7500
20
-48.9000
0
VERTEX
10
3.7500
20
-48.6000
0
VERTEX
10
13.7500
20
-48.6000
0
VERTEX
10
13.7500
20
-48.1500
0
SEQEND
0
POLYLINE
8
metal
70
1
0
VERTEX
10
13.6500
20
-46.9500
0
VERTEX
10
13.6500
20
-47.3000
0
VERTEX
10
3.6500
20
-47.3000
0
VERTEX
10
3.6500
20
-47.8000
0
VERTEX
10
13.6500
20
-47.8000
0
VERTEX
10
13.6500
20
-48.1500
0
VERTEX
10
13.7500
20
-48.1500
0
VERTEX
10
13.7500
20
-47.7000
0
VERTEX
10
3.7500
20
-47.7000
0
VERTEX
10
3.7500
20
-47.4000
0
VERTEX
10
13.7500
20
-47.4000
0
VERTEX
10
13.7500
20
-46.9500
0
SEQEND
0
POLYLINE
8
metal
70
1
0
VERTEX
10
13.6500
20
-45.7500
0
VERTEX
10
13.6500
20
-46.1000
0
VERTEX
10
3.6500
20
-46.1000
0
VERTEX
10
3.6500
20
-46.6000
0
VERTEX
10
13.6500
20
-46.6000
0
VERTEX
10
13.6500
20
-46.9500
0
VERTEX
10
13.7500
20
-46.9500
0
VERTEX
10
13.7500
20
-46.5000
0
VERTEX
10
3.7500
20
-46.5000
0
VERTEX
10
3.7500
20
-46.2000
0
VERTEX
10
13.7500
20
-46.2000
0
VERTEX
10
13.7500
20
-45.7500
0
SEQEND
0
POLYLINE
8
metal
70
1
0
VERTEX
10
13.6500
20
-44.5500
0
VERTEX
10
13.6500
20
-44.9000
0
VERTEX
10
3.6500
20
-44.9000
0
VERTEX
10
3.6500
20
-45.4000
0
VERTEX
10
13.6500
20
-45.4000
0
VERTEX
10
13.6500
20
-45.7500
0
VERTEX
10
13.7500
20
-45.7500
0
VERTEX
10
13.7500
20
-45.3000
0
VERTEX
10
3.7500
20
-45.3000
0
VERTEX
10
3.7500
20
-45.0000
0
VERTEX
10
13.7500
20
-45.0000
0
VERTEX
10
13.7500
20
-44.5500
0
SEQEND
0
POLYLINE
8
metal
70
1
0
VERTEX
10
13.6500
20
-43.3500
0
VERTEX
10
13.6500
20
-43.7000
0
VERTEX
10
3.6500
20
-43.7000
0
VERTEX
10
3.6500
20
-44.2000
0
VERTEX
10
13.6500
20
-44.2000
0
VERTEX
10
13.6500
20
-44.5500
0
VERTEX
10
13.7500
20
-44.5500
0
VERTEX
10
13.7500
20
-44.1000
0
VERTEX
10
3.7500
20
-44.1000
0
VERTEX
10
3.7500
20
-43.8000
0
VERTEX
10
13.7500
20
-43.8000
0
VERTEX
10
13.7500
20
-43.3500
0
SEQEND
0
POLYLINE
8
metal
70
1
0
VERTEX
10
13.6500
20
-42.1500
0
VERTEX
10
13.6500
20
-42.5000
0
VERTEX
10
3.6500
20
-42.5000
0
VERTEX
10
3.6500
20
-43.0000
0
VERTEX
10
13.6500
20
-43.0000
0
VERTEX
10
13.6500
20
-43.3500
0
VERTEX
10
13.7500
20
-43.3500
0
VERTEX
10
13.7500
20
-42.9000
0
VERTEX
10
3.7500
20
-42.9000
0
VERTEX
10
3.7500
20
-42.6000
0
VERTEX
10
13.7500
20
-42.6000
0
VERTEX
10
13.7500
20
-42.1500
0
SEQEND
0
POLYLINE
8
metal
70
1
0
VERTEX
10
13.6500
20
-40.9500
0
VERTEX
10
13.6500
20
-41.3000
0
VERTEX
10
3.6500
20
-41.3000
0
VERTEX
10
3.6500
20
-41.8000
0
VERTEX
10
13.6500
20
-41.8000
0
VERTEX
10
13.6500
20
-42.1500
0
VERTEX
10
13.7500
20
-42.1500
0
VERTEX
10
13.7500
20
-41.7000
0
VERTEX
10
3.7500
20
-41.7000
0
VERTEX
10
3.7500
20
-41.4000
0
VERTEX
10
13.7500
20
-41.4000
0
VERTEX
10
13.7500
20
-40.9500
0
SEQEND
0
POLYLINE
8
metal
70
1
0
VERTEX
10
3.6500
20
-40.3500
0
VERTEX
10
3.6500
20
-40.6000
0
VERTEX
10
13.6500
20
-40.6000
0
VERTEX
10
13.6500
20
-40.9500
0
VERTEX
10
13.7500
20
-40.9500
0
VERTEX
10
13.7500
20
-40.5000
0
VERTEX
10
3.7500
20
-40.5000
0
VERTEX
10
3.7500
20
-40.3500
0
SEQEND
0
POLYLINE
8
M1_Neg
70
1
0
VERTEX
10
13.6311
20
-50.3689
0
VERTEX
10
22.1163
20
-50.3689
0
VERTEX
10
26.3590
20
-54.6116
0
VERTEX
10
17.6616
20
-63.3090
0
VERTEX
10
13.4189
20
-59.0663
0
VERTEX
10
13.4189
20
-50.5811
0
SEQEND
0
POLYLINE
8
cure
70
1
0
VERTEX
10
2.8000
20
-51.2000
0
VERTEX
10
14.4000
20
-51.2000
0
VERTEX
10
14.4000
20
-39.7000
0
VERTEX
10
2.8000
20
-39.7000
0
SEQEND
0
POLYLINE
8
M2_undercutMsk
70
1
0
VERTEX
10
-0.2000
20
-51.2000
0
VERTEX
10
17.4000
20
-51.2000
0
VERTEX
10
17.4000
20
-39.7000
0
VERTEX
10
-0.2000
20
-39.7000
0
SEQEND
0
CIRCLE
8
M1_LD
10
19.9640
20
-56.9140
40
7.5000
0
SEQEND
0
POLYLINE
8
M1_Neg
70
1
0
VERTEX
10
-14.0500
20
-49.3500
0
VERTEX
10
-14.0500
20
-49.5000
0
VERTEX
10
-4.0500
20
-49.5000
0
VERTEX
10
-4.0500
20
-50.4000
0
VERTEX
10
-14.0500
20
-50.4000
0
VERTEX
10
-14.0500
20
-50.5500
0
VERTEX
10
-14.3500
20
-50.5500
0
VERTEX
10
-14.3500
20
-50.1000
0
VERTEX
10
-4.3500
20
-50.1000
0
VERTEX
10
-4.3500
20
-49.8000
0
VERTEX
10
-14.3500
20
-49.8000
0
VERTEX
10
-14.3500
20
-49.3500
0
SEQEND
0
POLYLINE
8
M1_Neg
70
1
0
VERTEX
10
-14.0500
20
-48.1500
0
VERTEX
10
-14.0500
20
-48.3000
0
VERTEX
10
-4.0500
20
-48.3000
0
VERTEX
10
-4.0500
20
-49.2000
0
VERTEX
10
-14.0500
20
-49.2000
0
VERTEX
10
-14.0500
20
-49.3500
0
VERTEX
10
-14.3500
20
-49.3500
0
VERTEX
10
-14.3500
20
-48.9000
0
VERTEX
10
-4.3500
20
-48.9000
0
VERTEX
10
-4.3500
20
-48.6000
0
VERTEX
10
-14.3500
20
-48.6000
0
VERTEX
10
-14.3500
20
-48.1500
0
SEQEND
0
POLYLINE
8
M1_Neg
70
1
0
VERTEX
10
-14.0500
20
-46.9500
0
VERTEX
10
-14.0500
20
-47.1000
0
VERTEX
10
-4.0500
20
-47.1000
0
VERTEX
10
-4.0500
20
-48.0000
0
VERTEX
10
-14.0500
20
-48.0000
0
VERTEX
10
-14.0500
20
-48.1500
0
VERTEX
10
-14.3500
20
-48.1500
0
VERTEX
10
-14.3500
20
-47.7000
0
VERTEX
10
-4.3500
20
-47.7000
0
VERTEX
10
-4.3500
20
-47.4000
0
VERTEX
10
-14.3500
20
-47.4000
0
VERTEX
10
-14.3500
20
-46.9500
0
SEQEND
0
POLYLINE
8
M1_Neg
70
1
0
VERTEX
10
-14.0500
20
-45.7500
0
VERTEX
10
-14.0500
20
-45.9000
0
VERTEX
10
-4.0500
20
-45.9000
0
VERTEX
10
-4.0500
20
-46.8000
0
VERTEX
10
-14.0500
20
-46.8000
0
VERTEX
10
-14.0500
20
-46.9500
0
VERTEX
10
-14.3500
20
-46.9500
0
VERTEX
10
-14.3500
20
-46.5000
0
VERTEX
10
-4.3500
20
-46.5000
0
VERTEX
10
-4.3500
20
-46.2000
0
VERTEX
10
-14.3500
20
-46.2000
0
VERTEX
10
-14.3500
20
-45.7500
0
SEQEND
0
POLYLINE
8
M1_Neg
70
1
0
VERTEX
10
-14.0500
20
-44.5500
0
VERTEX
10
-14.0500
20
-44.7000
0
VERTEX
10
-4.0500
20
-44.7000
0
VERTEX
10
-4.0500
20
-45.6000
0
VERTEX
10
-14.0500
20
-45.6000
0
VERTEX
10
-14.0500
20
-45.7500
0
VERTEX
10
-14.3500
20
-45.7500
0
VERTEX
10
-14.3500
20
-45.3000
0
VERTEX
10
-4.3500
20
-45.3000
0
VERTEX
10
-4.3500
20
-45.0000
0
VERTEX
10
-14.3500
20
-45.0000
0
VERTEX
10
-14.3500
20
-44.5500
0
SEQEND
0
POLYLINE
8
M1_Neg
70
1
0
VERTEX
10
-14.0500
20
-43.3500
0
VERTEX
10
-14.0500
20
-43.5000
0
VERTEX
10
-4.0500
20
-43.5000
0
VERTEX
10
-4.0500
20
-44.4000
0
VERTEX
10
-14.0500
20
-44.4000
0
VERTEX
10
-14.0500
20
-44.5500
0
VERTEX
10
-14.3500
20
-44.5500
0
VERTEX
10
-14.3500
20
-44.1000
0
VERTEX
10
-4.3500
20
-44.1000
0
VERTEX
10
-4.3500
20
-43.8000
0
VERTEX
10
-14.3500
20
-43.8000
0
VERTEX
10
-14.3500
20
-43.3500
0
SEQEND
0
POLYLINE
8
M1_Neg
70
1
0
VERTEX
10
-14.0500
20
-42.1500
0
VERTEX
10
-14.0500
20
-42.3000
0
VERTEX
10
-4.0500
20
-42.3000
0
VERTEX
10
-4.0500
20
-43.2000
0
VERTEX
10
-14.0500
20
-43.2000
0
VERTEX
10
-14.0500
20
-43.3500
0
VERTEX
10
-14.3500
20
-43.3500
0
VERTEX
10
-14.3500
20
-42.9000
0
VERTEX
10
-4.3500
20
-42.9000
0
VERTEX
10
-4.3500
20
-42.6000
0
VERTEX
10
-14.3500
20
-42.6000
0
VERTEX
10
-14.3500
20
-42.1500
0
SEQEND
0
POLYLINE
8
M1_Neg
70
1
0
VERTEX
10
-14.0500
20
-40.9500
0
VERTEX
10
-14.0500
20
-41.1000
0
VERTEX
10
-4.0500
20
-41.1000
0
VERTEX
10
-4.0500
20
-42.0000
0
VERTEX
10
-14.0500
20
-42.0000
0
VERTEX
10
-14.0500
20
-42.1500
0
VERTEX
10
-14.3500
20
-42.1500
0
VERTEX
10
-14.3500
20
-41.7000
0
VERTEX
10
-4.3500
20
-41.7000
0
VERTEX
10
-4.3500
20
-41.4000
0
VERTEX
10
-14.3500
20
-41.4000
0
VERTEX
10
-14.3500
20
-40.9500
0
SEQEND
0
POLYLINE
8
M1_Neg
70
1
0
VERTEX
10
-4.0500
20
-40.3500
0
VERTEX
10
-4.0500
20
-40.8000
0
VERTEX
10
-14.0500
20
-40.8000
0
VERTEX
10
-14.0500
20
-40.9500
0
VERTEX
10
-14.3500
20
-40.9500
0
VERTEX
10
-14.3500
20
-40.5000
0
VERTEX
10
-4.3500
20
-40.5000
0
VERTEX
10
-4.3500
20
-40.3500
0
SEQEND
0
POLYLINE
8
metal
70
1
0
VERTEX
10
-14.0500
20
-49.3500
0
VERTEX
10
-14.0500
20
-49.5000
0
VERTEX
10
-4.0500
20
-49.5000
0
VERTEX
10
-4.0500
20
-50.4000
0
VERTEX
10
-14.0500
20
-50.4000
0
VERTEX
10
-14.0500
20
-50.5500
0
VERTEX
10
-14.1500
20
-50.5500
0
VERTEX
10
-14.1500
20
-50.3000
0
VERTEX
10
-4.1500
20
-50.3000
0
VERTEX
10
-4.1500
20
-49.6000
0
VERTEX
10
-14.1500
20
-49.6000
0
VERTEX
10
-14.1500
20
-49.3500
0
SEQEND
0
POLYLINE
8
metal
70
1
0
VERTEX
10
-14.0500
20
-48.1500
0
VERTEX
10
-14.0500
20
-48.3000
0
VERTEX
10
-4.0500
20
-48.3000
0
VERTEX
10
-4.0500
20
-49.2000
0
VERTEX
10
-14.0500
20
-49.2000
0
VERTEX
10
-14.0500
20
-49.3500
0
VERTEX
10
-14.1500
20
-49.3500
0
VERTEX
10
-14.1500
20
-49.1000
0
VERTEX
10
-4.1500
20
-49.1000
0
VERTEX
10
-4.1500
20
-48.4000
0
VERTEX
10
-14.1500
20
-48.4000
0
VERTEX
10
-14.1500
20
-48.1500
0
SEQEND
0
POLYLINE
8
metal
70
1
0
VERTEX
10
-14.0500
20
-46.9500
0
VERTEX
10
-14.0500
20
-47.1000
0
VERTEX
10
-4.0500
20
-47.1000
0
VERTEX
10
-4.0500
20
-48.0000
0
VERTEX
10
-14.0500
20
-48.0000
0
VERTEX
10
-14.0500
20
-48.1500
0
VERTEX
10
-14.1500
20
-48.1500
0
VERTEX
10
-14.1500
20
-47.9000
0
VERTEX
10
-4.1500
20
-47.9000
0
VERTEX
10
-4.1500
20
-47.2000
0
VERTEX
10
-14.1500
20
-47.2000
0
VERTEX
10
-14.1500
20
-46.9500
0
SEQEND
0
POLYLINE
8
metal
70
1
0
VERTEX
10
-14.0500
20
-45.7500
0
VERTEX
10
-14.0500
20
-45.9000
0
VERTEX
10
-4.0500
20
-45.9000
0
VERTEX
10
-4.0500
20
-46.8000
0
VERTEX
10
-14.0500
20
-46.8000
0
VERTEX
10
-14.0500
20
-46.9500
0
VERTEX
10
-14.1500
20
-46.9500
0
VERTEX
10
-14.1500
20
-46.7000
0
VERTEX
10
-4.1500
20
-46.7000
0
VERTEX
10
-4.1500
20
-46.0000
0
VERTEX
10
-14.1500
20
-46.0000
0
VERTEX
10
-14.1500
20
-45.7500
0
SEQEND
0
POLYLINE
8
metal
70
1
0
VERTEX
10
-14.0500
20
-44.5500
0
VERTEX
10
-14.0500
20
-44.7000
0
VERTEX
10
-4.0500
20
-44.7000
0
VERTEX
10
-4.0500
20
-45.6000
0
VERTEX
10
-14.0500
20
-45.6000
0
VERTEX
10
-14.0500
20
-45.7500
0
VERTEX
10
-14.1500
20
-45.7500
0
VERTEX
10
-14.1500
20
-45.5000
0
VERTEX
10
-4.1500
20
-45.5000
0
VERTEX
10
-4.1500
20
-44.8000
0
VERTEX
10
-14.1500
20
-44.8000
0
VERTEX
10
-14.1500
20
-44.5500
0
SEQEND
0
POLYLINE
8
metal
70
1
0
VERTEX
10
-14.0500
20
-43.3500
0
VERTEX
10
-14.0500
20
-43.5000
0
VERTEX
10
-4.0500
20
-43.5000
0
VERTEX
10
-4.0500
20
-44.4000
0
VERTEX
10
-14.0500
20
-44.4000
0
VERTEX
10
-14.0500
20
-44.5500
0
VERTEX
10
-14.1500
20
-44.5500
0
VERTEX
10
-14.1500
20
-44.3000
0
VERTEX
10
-4.1500
20
-44.3000
0
VERTEX
10
-4.1500
20
-43.6000
0
VERTEX
10
-14.1500
20
-43.6000
0
VERTEX
10
-14.1500
20
-43.3500
0
SEQEND
0
POLYLINE
8
metal
70
1
0
VERTEX
10
-14.0500
20
-42.1500
0
VERTEX
10
-14.0500
20
-42.3000
0
VERTEX
10
-4.0500
20
-42.3000
0
VERTEX
10
-4.0500
20
-43.2000
0
VERTEX
10
-14.0500
20
-43.2000
0
VERTEX
10
-14.0500
20
-43.3500
0
VERTEX
10
-14.1500
20
-43.3500
0
VERTEX
10
-14.1500
20
-43.1000
0
VERTEX
10
-4.1500
20
-43.1000
0
VERTEX
10
-4.1500
20
-42.4000
0
VERTEX
10
-14.1500
20
-42.4000
0
VERTEX
10
-14.1500
20
-42.1500
0
SEQEND
0
POLYLINE
8
metal
70
1
0
VERTEX
10
-14.0500
20
-40.9500
0
VERTEX
10
-14.0500
20
-41.1000
0
VERTEX
10
-4.0500
20
-41.1000
0
VERTEX
10
-4.0500
20
-42.0000
0
VERTEX
10
-14.0500
20
-42.0000
0
VERTEX
10
-14.0500
20
-42.1500
0
VERTEX
10
-14.1500
20
-42.1500
0
VERTEX
10
-14.1500
20
-41.9000
0
VERTEX
10
-4.1500
20
-41.9000
0
VERTEX
10
-4.1500
20
-41.2000
0
VERTEX
10
-14.1500
20
-41.2000
0
VERTEX
10
-14.1500
20
-40.9500
0
SEQEND
0
POLYLINE
8
metal
70
1
0
VERTEX
10
-4.0500
20
-40.3500
0
VERTEX
10
-4.0500
20
-40.8000
0
VERTEX
10
-14.0500
20
-40.8000
0
VERTEX
10
-14.0500
20
-40.9500
0
VERTEX
10
-14.1500
20
-40.9500
0
VERTEX
10
-14.1500
20
-40.7000
0
VERTEX
10
-4.1500
20
-40.7000
0
VERTEX
10
-4.1500
20
-40.3500
0
SEQEND
0
POLYLINE
8
metal
70
1
0
VERTEX
10
-14.2500
20
-49.3500
0
VERTEX
10
-14.2500
20
-49.7000
0
VERTEX
10
-4.2500
20
-49.7000
0
VERTEX
10
-4.2500
20
-50.2000
0
VERTEX
10
-14.2500
20
-50.2000
0
VERTEX
10
-14.2500
20
-50.5500
0
VERTEX
10
-14.3500
20
-50.5500
0
VERTEX
10
-14.3500
20
-50.1000
0
VERTEX
10
-4.3500
20
-50.1000
0
VERTEX
10
-4.3500
20
-49.8000
0
VERTEX
10
-14.3500
20
-49.8000
0
VERTEX
10
-14.3500
20
-49.3500
0
SEQEND
0
POLYLINE
8
metal
70
1
0
VERTEX
10
-14.2500
20
-48.1500
0
VERTEX
10
-14.2500
20
-48.5000
0
VERTEX
10
-4.2500
20
-48.5000
0
VERTEX
10
-4.2500
20
-49.0000
0
VERTEX
10
-14.2500
20
-49.0000
0
VERTEX
10
-14.2500
20
-49.3500
0
VERTEX
10
-14.3500
20
-49.3500
0
VERTEX
10
-14.3500
20
-48.9000
0
VERTEX
10
-4.3500
20
-48.9000
0
VERTEX
10
-4.3500
20
-48.6000
0
VERTEX
10
-14.3500
20
-48.6000
0
VERTEX
10
-14.3500
20
-48.1500
0
SEQEND
0
POLYLINE
8
metal
70
1
0
VERTEX
10
-14.2500
20
-46.9500
0
VERTEX
10
-14.2500
20
-47.3000
0
VERTEX
10
-4.2500
20
-47.3000
0
VERTEX
10
-4.2500
20
-47.8000
0
VERTEX
10
-14.2500
20
-47.8000
0
VERTEX
10
-14.2500
20
-48.1500
0
VERTEX
10
-14.3500
20
-48.1500
0
VERTEX
10
-14.3500
20
-47.7000
0
VERTEX
10
-4.3500
20
-47.7000
0
VERTEX
10
-4.3500
20
-47.4000
0
VERTEX
10
-14.3500
20
-47.4000
0
VERTEX
10
-14.3500
20
-46.9500
0
SEQEND
0
POLYLINE
8
metal
70
1
0
VERTEX
10
-14.2500
20
-45.7500
0
VERTEX
10
-14.2500
20
-46.1000
0
VERTEX
10
-4.2500
20
-46.1000
0
VERTEX
10
-4.2500
20
-46.6000
0
VERTEX
10
-14.2500
20
-46.6000
0
VERTEX
10
-14.2500
20
-46.9500
0
VERTEX
10
-14.3500
20
-46.9500
0
VERTEX
10
-14.3500
20
-46.5000
0
VERTEX
10
-4.3500
20
-46.5000
0
VERTEX
10
-4.3500
20
-46.2000
0
VERTEX
10
-14.3500
20
-46.2000
0
VERTEX
10
-14.3500
20
-45.7500
0
SEQEND
0
POLYLINE
8
metal
70
1
0
VERTEX
10
-14.2500
20
-44.5500
0
VERTEX
10
-14.2500
20
-44.9000
0
VERTEX
10
-4.2500
20
-44.9000
0
VERTEX
10
-4.2500
20
-45.4000
0
VERTEX
10
-14.2500
20
-45.4000
0
VERTEX
10
-14.2500
20
-45.7500
0
VERTEX
10
-14.3500
20
-45.7500
0
VERTEX
10
-14.3500
20
-45.3000
0
VERTEX
10
-4.3500
20
-45.3000
0
VERTEX
10
-4.3500
20
-45.0000
0
VERTEX
10
-14.3500
20
-45.0000
0
VERTEX
10
-14.3500
20
-44.5500
0
SEQEND
0
POLYLINE
8
metal
70
1
0
VERTEX
10
-14.2500
20
-43.3500
0
VERTEX
10
-14.2500
20
-43.7000
0
VERTEX
10
-4.2500
20
-43.7000
0
VERTEX
10
-4.2500
20
-44.2000
0
VERTEX
10
-14.2500
20
-44.2000
0
VERTEX
10
-14.2500
20
-44.5500
0
VERTEX
10
-14.3500
20
-44.5500
0
VERTEX
10
-14.3500
20
-44.1000
0
VERTEX
10
-4.3500
20
-44.1000
0
VERTEX
10
-4.3500
20
-43.8000
0
VERTEX
10
-14.3500
20
-43.8000
0
VERTEX
10
-14.3500
20
-43.3500
0
SEQEND
0
POLYLINE
8
metal
70
1
0
VERTEX
10
-14.2500
20
-42.1500
0
VERTEX
10
-14.2500
20
-42.5000
0
VERTEX
10
-4.2500
20
-42.5000
0
VERTEX
10
-4.2500
20
-43.0000
0
VERTEX
10
-14.2500
20
-43.0000
0
VERTEX
10
-14.2500
20
-43.3500
0
VERTEX
10
-14.3500
20
-43.3500
0
VERTEX
10
-14.3500
20
-42.9000
0
VERTEX
10
-4.3500
20
-42.9000
0
VERTEX
10
-4.3500
20
-42.6000
0
VERTEX
10
-14.3500
20
-42.6000
0
VERTEX
10
-14.3500
20
-42.1500
0
SEQEND
0
POLYLINE
8
metal
70
1
0
VERTEX
10
-14.2500
20
-40.9500
0
VERTEX
10
-14.2500
20
-41.3000
0
VERTEX
10
-4.2500
20
-41.3000
0
VERTEX
10
-4.2500
20
-41.8000
0
VERTEX
10
-14.2500
20
-41.8000
0
VERTEX
10
-14.2500
20
-42.1500
0
VERTEX
10
-14.3500
20
-42.1500
0
VERTEX
10
-14.3500
20
-41.7000
0
VERTEX
10
-4.3500
20
-41.7000
0
VERTEX
10
-4.3500
20
-41.4000
0
VERTEX
10
-14.3500
20
-41.4000
0
VERTEX
10
-14.3500
20
-40.9500
0
SEQEND
0
POLYLINE
8
metal
70
1
0
VERTEX
10
-4.2500
20
-40.3500
0
VERTEX
10
-4.2500
20
-40.6000
0
VERTEX
10
-14.2500
20
-40.6000
0
VERTEX
10
-14.2500
20
-40.9500
0
VERTEX
10
-14.3500
20
-40.9500
0
VERTEX
10
-14.3500
20
-40.5000
0
VERTEX
10
-4.3500
20
-40.5000
0
VERTEX
10
-4.3500
20
-40.3500
0
SEQEND
0
POLYLINE
8
M1_Neg
70
1
0
VERTEX
10
-14.2311
20
-50.3689
0
VERTEX
10
-22.7163
20
-50.3689
0
VERTEX
10
-26.9590
20
-54.6116
0
VERTEX
10
-18.2616
20
-63.3090
0
VERTEX
10
-14.0189
20
-59.0663
0
VERTEX
10
-14.0189
20
-50.5811
0
SEQEND
0
POLYLINE
8
cure
70
1
0
VERTEX
10
-3.4000
20
-39.7000
0
VERTEX
10
-15.0000
20
-39.7000
0
VERTEX
10
-15.0000
20
-51.2000
0
VERTEX
10
-3.4000
20
-51.2000
0
SEQEND
0
POLYLINE
8
M2_undercutMsk
70
1
0
VERTEX
10
-0.4000
20
-39.7000
0
VERTEX
10
-18.0000
20
-39.7000
0
VERTEX
10
-18.0000
20
-51.2000
0
VERTEX
10
-0.4000
20
-51.2000
0
SEQEND
0
CIRCLE
8
M1_LD
10
-20.5640
20
-56.9140
40
7.5000
0
SEQEND
0
POLYLINE
8
M1_Neg
70
1
0
VERTEX
10
3.1625
20
-40.7000
0
VERTEX
10
3.5375
20
-40.7000
0
VERTEX
10
3.5375
20
-40.6000
0
VERTEX
10
3.1625
20
-40.6000
0
SEQEND
0
POLYLINE
8
M1_Neg
70
1
0
VERTEX
10
-4.1375
20
-40.7000
0
VERTEX
10
-3.7625
20
-40.7000
0
VERTEX
10
-3.7625
20
-40.6000
0
VERTEX
10
-4.1375
20
-40.6000
0
SEQEND
0
POLYLINE
8
M2_undercutMsk
70
1
0
VERTEX
10
-6.8000
20
-47.1500
0
VERTEX
10
6.2000
20
-47.1500
0
VERTEX
10
6.2000
20
-34.1500
0
VERTEX
10
-6.8000
20
-34.1500
0
SEQEND
0
POLYLINE
8
M1_Neg
70
1
0
VERTEX
10
0.1500
20
-27.0000
0
VERTEX
10
0.4000
20
-17.0000
0
VERTEX
10
1.2000
20
-13.5000
0
VERTEX
10
0.4000
20
-10.0000
0
VERTEX
10
0.1085
20
0.0000
0
VERTEX
10
-0.1085
20
0.0000
0
VERTEX
10
-0.4000
20
-10.0000
0
VERTEX
10
-1.2000
20
-13.5000
0
VERTEX
10
-0.4000
20
-17.0000
0
VERTEX
10
-0.1500
20
-27.0000
0
SEQEND
0
POLYLINE
8
M1_Neg
70
1
0
VERTEX
10
13.7500
20
-22.2000
0
VERTEX
10
13.7500
20
-22.3500
0
VERTEX
10
3.7500
20
-22.3500
0
VERTEX
10
3.7500
20
-23.2500
0
VERTEX
10
13.7500
20
-23.2500
0
VERTEX
10
13.7500
20
-23.4000
0
VERTEX
10
14.0500
20
-23.4000
0
VERTEX
10
14.0500
20
-22.9500
0
VERTEX
10
4.0500
20
-22.9500
0
VERTEX
10
4.0500
20
-22.6500
0
VERTEX
10
14.0500
20
-22.6500
0
VERTEX
10
14.0500
20
-22.2000
0
SEQEND
0
POLYLINE
8
M1_Neg
70
1
0
VERTEX
10
13.7500
20
-21.0000
0
VERTEX
10
13.7500
20
-21.1500
0
VERTEX
10
3.7500
20
-21.1500
0
VERTEX
10
3.7500
20
-22.0500
0
VERTEX
10
13.7500
20
-22.0500
0
VERTEX
10
13.7500
20
-22.2000
0
VERTEX
10
14.0500
20
-22.2000
0
VERTEX
10
14.0500
20
-21.7500
0
VERTEX
10
4.0500
20
-21.7500
0
VERTEX
10
4.0500
20
-21.4500
0
VERTEX
10
14.0500
20
-21.4500
0
VERTEX
10
14.0500
20
-21.0000
0
SEQEND
0
POLYLINE
8
M1_Neg
70
1
0
VERTEX
10
13.7500
20
-19.8000
0
VERTEX
10
13.7500
20
-19.9500
0
VERTEX
10
3.7500
20
-19.9500
0
VERTEX
10
3.7500
20
-20.8500
0
VERTEX
10
13.7500
20
-20.8500
0
VERTEX
10
13.7500
20
-21.0000
0
VERTEX
10
14.0500
20
-21.0000
0
VERTEX
10
14.0500
20
-20.5500
0
VERTEX
10
4.0500
20
-20.5500
0
VERTEX
10
4.0500
20
-20.2500
0
VERTEX
10
14.0500
20
-20.2500
0
VERTEX
10
14.0500
20
-19.8000
0
SEQEND
0
POLYLINE
8
M1_Neg
70
1
0
VERTEX
10
13.7500
20
-18.6000
0
VERTEX
10
13.7500
20
-18.7500
0
VERTEX
10
3.7500
20
-18.7500
0
VERTEX
10
3.7500
20
-19.6500
0
VERTEX
10
13.7500
20
-19.6500
0
VERTEX
10
13.7500
20
-19.8000
0
VERTEX
10
14.0500
20
-19.8000
0
VERTEX
10
14.0500
20
-19.3500
0
VERTEX
10
4.0500
20
-19.3500
0
VERTEX
10
4.0500
20
-19.0500
0
VERTEX
10
14.0500
20
-19.0500
0
VERTEX
10
14.0500
20
-18.6000
0
SEQEND
0
POLYLINE
8
M1_Neg
70
1
0
VERTEX
10
13.7500
20
-17.4000
0
VERTEX
10
13.7500
20
-17.5500
0
VERTEX
10
3.7500
20
-17.5500
0
VERTEX
10
3.7500
20
-18.4500
0
VERTEX
10
13.7500
20
-18.4500
0
VERTEX
10
13.7500
20
-18.6000
0
VERTEX
10
14.0500
20
-18.6000
0
VERTEX
10
14.0500
20
-18.1500
0
VERTEX
10
4.0500
20
-18.1500
0
VERTEX
10
4.0500
20
-17.8500
0
VERTEX
10
14.0500
20
-17.8500
0
VERTEX
10
14.0500
20
-17.4000
0
SEQEND
0
POLYLINE
8
M1_Neg
70
1
0
VERTEX
10
13.7500
20
-16.2000
0
VERTEX
10
13.7500
20
-16.3500
0
VERTEX
10
3.7500
20
-16.3500
0
VERTEX
10
3.7500
20
-17.2500
0
VERTEX
10
13.7500
20
-17.2500
0
VERTEX
10
13.7500
20
-17.4000
0
VERTEX
10
14.0500
20
-17.4000
0
VERTEX
10
14.0500
20
-16.9500
0
VERTEX
10
4.0500
20
-16.9500
0
VERTEX
10
4.0500
20
-16.6500
0
VERTEX
10
14.0500
20
-16.6500
0
VERTEX
10
14.0500
20
-16.2000
0
SEQEND
0
POLYLINE
8
M1_Neg
70
1
0
VERTEX
10
13.7500
20
-15.0000
0
VERTEX
10
13.7500
20
-15.1500
0
VERTEX
10
3.7500
20
-15.1500
0
VERTEX
10
3.7500
20
-16.0500
0
VERTEX
10
13.7500
20
-16.0500
0
VERTEX
10
13.7500
20
-16.2000
0
VERTEX
10
14.0500
20
-16.2000
0
VERTEX
10
14.0500
20
-15.7500
0
VERTEX
10
4.0500
20
-15.7500
0
VERTEX
10
4.0500
20
-15.4500
0
VERTEX
10
14.0500
20
-15.4500
0
VERTEX
10
14.0500
20
-15.0000
0
SEQEND
0
POLYLINE
8
M1_Neg
70
1
0
VERTEX
10
13.7500
20
-13.8000
0
VERTEX
10
13.7500
20
-13.9500
0
VERTEX
10
3.7500
20
-13.9500
0
VERTEX
10
3.7500
20
-14.8500
0
VERTEX
10
13.7500
20
-14.8500
0
VERTEX
10
13.7500
20
-15.0000
0
VERTEX
10
14.0500
20
-15.0000
0
VERTEX
10
14.0500
20
-14.5500
0
VERTEX
10
4.0500
20
-14.5500
0
VERTEX
10
4.0500
20
-14.2500
0
VERTEX
10
14.0500
20
-14.2500
0
VERTEX
10
14.0500
20
-13.8000
0
SEQEND
0
POLYLINE
8
M1_Neg
70
1
0
VERTEX
10
3.7500
20
-13.2000
0
VERTEX
10
3.7500
20
-13.6500
0
VERTEX
10
13.7500
20
-13.6500
0
VERTEX
10
13.7500
20
-13.8000
0
VERTEX
10
14.0500
20
-13.8000
0
VERTEX
10
14.0500
20
-13.3500
0
VERTEX
10
4.0500
20
-13.3500
0
VERTEX
10
4.0500
20
-13.2000
0
SEQEND
0
POLYLINE
8
metal
70
1
0
VERTEX
10
13.7500
20
-22.2000
0
VERTEX
10
13.7500
20
-22.3500
0
VERTEX
10
3.7500
20
-22.3500
0
VERTEX
10
3.7500
20
-23.2500
0
VERTEX
10
13.7500
20
-23.2500
0
VERTEX
10
13.7500
20
-23.4000
0
VERTEX
10
13.8500
20
-23.4000
0
VERTEX
10
13.8500
20
-23.1500
0
VERTEX
10
3.8500
20
-23.1500
0
VERTEX
10
3.8500
20
-22.4500
0
VERTEX
10
13.8500
20
-22.4500
0
VERTEX
10
13.8500
20
-22.2000
0
SEQEND
0
POLYLINE
8
metal
70
1
0
VERTEX
10
13.7500
20
-21.0000
0
VERTEX
10
13.7500
20
-21.1500
0
VERTEX
10
3.7500
20
-21.1500
0
VERTEX
10
3.7500
20
-22.0500
0
VERTEX
10
13.7500
20
-22.0500
0
VERTEX
10
13.7500
20
-22.2000
0
VERTEX
10
13.8500
20
-22.2000
0
VERTEX
10
13.8500
20
-21.9500
0
VERTEX
10
3.8500
20
-21.9500
0
VERTEX
10
3.8500
20
-21.2500
0
VERTEX
10
13.8500
20
-21.2500
0
VERTEX
10
13.8500
20
-21.0000
0
SEQEND
0
POLYLINE
8
metal
70
1
0
VERTEX
10
13.7500
20
-19.8000
0
VERTEX
10
13.7500
20
-19.9500
0
VERTEX
10
3.7500
20
-19.9500
0
VERTEX
10
3.7500
20
-20.8500
0
VERTEX
10
13.7500
20
-20.8500
0
VERTEX
10
13.7500
20
-21.0000
0
VERTEX
10
13.8500
20
-21.0000
0
VERTEX
10
13.8500
20
-20.7500
0
VERTEX
10
3.8500
20
-20.7500
0
VERTEX
10
3.8500
20
-20.0500
0
VERTEX
10
13.8500
20
-20.0500
0
VERTEX
10
13.8500
20
-19.8000
0
SEQEND
0
POLYLINE
8
metal
70
1
0
VERTEX
10
13.7500
20
-18.6000
0
VERTEX
10
13.7500
20
-18.7500
0
VERTEX
10
3.7500
20
-18.7500
0
VERTEX
10
3.7500
20
-19.6500
0
VERTEX
10
13.7500
20
-19.6500
0
VERTEX
10
13.7500
20
-19.8000
0
VERTEX
10
13.8500
20
-19.8000
0
VERTEX
10
13.8500
20
-19.5500
0
VERTEX
10
3.8500
20
-19.5500
0
VERTEX
10
3.8500
20
-18.8500
0
VERTEX
10
13.8500
20
-18.8500
0
VERTEX
10
13.8500
20
-18.6000
0
SEQEND
0
POLYLINE
8
metal
70
1
0
VERTEX
10
13.7500
20
-17.4000
0
VERTEX
10
13.7500
20
-17.5500
0
VERTEX
10
3.7500
20
-17.5500
0
VERTEX
10
3.7500
20
-18.4500
0
VERTEX
10
13.7500
20
-18.4500
0
VERTEX
10
13.7500
20
-18.6000
0
VERTEX
10
13.8500
20
-18.6000
0
VERTEX
10
13.8500
20
-18.3500
0
VERTEX
10
3.8500
20
-18.3500
0
VERTEX
10
3.8500
20
-17.6500
0
VERTEX
10
13.8500
20
-17.6500
0
VERTEX
10
13.8500
20
-17.4000
0
SEQEND
0
POLYLINE
8
metal
70
1
0
VERTEX
10
13.7500
20
-16.2000
0
VERTEX
10
13.7500
20
-16.3500
0
VERTEX
10
3.7500
20
-16.3500
0
VERTEX
10
3.7500
20
-17.2500
0
VERTEX
10
13.7500
20
-17.2500
0
VERTEX
10
13.7500
20
-17.4000
0
VERTEX
10
13.8500
20
-17.4000
0
VERTEX
10
13.8500
20
-17.1500
0
VERTEX
10
3.8500
20
-17.1500
0
VERTEX
10
3.8500
20
-16.4500
0
VERTEX
10
13.8500
20
-16.4500
0
VERTEX
10
13.8500
20
-16.2000
0
SEQEND
0
POLYLINE
8
metal
70
1
0
VERTEX
10
13.7500
20
-15.0000
0
VERTEX
10
13.7500
20
-15.1500
0
VERTEX
10
3.7500
20
-15.1500
0
VERTEX
10
3.7500
20
-16.0500
0
VERTEX
10
13.7500
20
-16.0500
0
VERTEX
10
13.7500
20
-16.2000
0
VERTEX
10
13.8500
20
-16.2000
0
VERTEX
10
13.8500
20
-15.9500
0
VERTEX
10
3.8500
20
-15.9500
0
VERTEX
10
3.8500
20
-15.2500
0
VERTEX
10
13.8500
20
-15.2500
0
VERTEX
10
13.8500
20
-15.0000
0
SEQEND
0
POLYLINE
8
metal
70
1
0
VERTEX
10
13.7500
20
-13.8000
0
VERTEX
10
13.7500
20
-13.9500
0
VERTEX
10
3.7500
20
-13.9500
0
VERTEX
10
3.7500
20
-14.8500
0
VERTEX
10
13.7500
20
-14.8500
0
VERTEX
10
13.7500
20
-15.0000
0
VERTEX
10
13.8500
20
-15.0000
0
VERTEX
10
13.8500
20
-14.7500
0
VERTEX
10
3.8500
20
-14.7500
0
VERTEX
10
3.8500
20
-14.0500
0
VERTEX
10
13.8500
20
-14.0500
0
VERTEX
10
13.8500
20
-13.8000
0
SEQEND
0
POLYLINE
8
metal
70
1
0
VERTEX
10
3.7500
20
-13.2000
0
VERTEX
10
3.7500
20
-13.6500
0
VERTEX
10
13.7500
20
-13.6500
0
VERTEX
10
13.7500
20
-13.8000
0
VERTEX
10
13.8500
20
-13.8000
0
VERTEX
10
13.8500
20
-13.5500
0
VERTEX
10
3.8500
20
-13.5500
0
VERTEX
10
3.8500
20
-13.2000
0
SEQEND
0
POLYLINE
8
metal
70
1
0
VERTEX
10
13.9500
20
-22.2000
0
VERTEX
10
13.9500
20
-22.5500
0
VERTEX
10
3.9500
20
-22.5500
0
VERTEX
10
3.9500
20
-23.0500
0
VERTEX
10
13.9500
20
-23.0500
0
VERTEX
10
13.9500
20
-23.4000
0
VERTEX
10
14.0500
20
-23.4000
0
VERTEX
10
14.0500
20
-22.9500
0
VERTEX
10
4.0500
20
-22.9500
0
VERTEX
10
4.0500
20
-22.6500
0
VERTEX
10
14.0500
20
-22.6500
0
VERTEX
10
14.0500
20
-22.2000
0
SEQEND
0
POLYLINE
8
metal
70
1
0
VERTEX
10
13.9500
20
-21.0000
0
VERTEX
10
13.9500
20
-21.3500
0
VERTEX
10
3.9500
20
-21.3500
0
VERTEX
10
3.9500
20
-21.8500
0
VERTEX
10
13.9500
20
-21.8500
0
VERTEX
10
13.9500
20
-22.2000
0
VERTEX
10
14.0500
20
-22.2000
0
VERTEX
10
14.0500
20
-21.7500
0
VERTEX
10
4.0500
20
-21.7500
0
VERTEX
10
4.0500
20
-21.4500
0
VERTEX
10
14.0500
20
-21.4500
0
VERTEX
10
14.0500
20
-21.0000
0
SEQEND
0
POLYLINE
8
metal
70
1
0
VERTEX
10
13.9500
20
-19.8000
0
VERTEX
10
13.9500
20
-20.1500
0
VERTEX
10
3.9500
20
-20.1500
0
VERTEX
10
3.9500
20
-20.6500
0
VERTEX
10
13.9500
20
-20.6500
0
VERTEX
10
13.9500
20
-21.0000
0
VERTEX
10
14.0500
20
-21.0000
0
VERTEX
10
14.0500
20
-20.5500
0
VERTEX
10
4.0500
20
-20.5500
0
VERTEX
10
4.0500
20
-20.2500
0
VERTEX
10
14.0500
20
-20.2500
0
VERTEX
10
14.0500
20
-19.8000
0
SEQEND
0
POLYLINE
8
metal
70
1
0
VERTEX
10
13.9500
20
-18.6000
0
VERTEX
10
13.9500
20
-18.9500
0
VERTEX
10
3.9500
20
-18.9500
0
VERTEX
10
3.9500
20
-19.4500
0
VERTEX
10
13.9500
20
-19.4500
0
VERTEX
10
13.9500
20
-19.8000
0
VERTEX
10
14.0500
20
-19.8000
0
VERTEX
10
14.0500
20
-19.3500
0
VERTEX
10
4.0500
20
-19.3500
0
VERTEX
10
4.0500
20
-19.0500
0
VERTEX
10
14.0500
20
-19.0500
0
VERTEX
10
14.0500
20
-18.6000
0
SEQEND
0
POLYLINE
8
metal
70
1
0
VERTEX
10
13.9500
20
-17.4000
0
VERTEX
10
13.9500
20
-17.7500
0
VERTEX
10
3.9500
20
-17.7500
0
VERTEX
10
3.9500
20
-18.2500
0
VERTEX
10
13.9500
20
-18.2500
0
VERTEX
10
13.9500
20
-18.6000
0
VERTEX
10
14.0500
20
-18.6000
0
VERTEX
10
14.0500
20
-18.1500
0
VERTEX
10
4.0500
20
-18.1500
0
VERTEX
10
4.0500
20
-17.8500
0
VERTEX
10
14.0500
20
-17.8500
0
VERTEX
10
14.0500
20
-17.4000
0
SEQEND
0
POLYLINE
8
metal
70
1
0
VERTEX
10
13.9500
20
-16.2000
0
VERTEX
10
13.9500
20
-16.5500
0
VERTEX
10
3.9500
20
-16.5500
0
VERTEX
10
3.9500
20
-17.0500
0
VERTEX
10
13.9500
20
-17.0500
0
VERTEX
10
13.9500
20
-17.4000
0
VERTEX
10
14.0500
20
-17.4000
0
VERTEX
10
14.0500
20
-16.9500
0
VERTEX
10
4.0500
20
-16.9500
0
VERTEX
10
4.0500
20
-16.6500
0
VERTEX
10
14.0500
20
-16.6500
0
VERTEX
10
14.0500
20
-16.2000
0
SEQEND
0
POLYLINE
8
metal
70
1
0
VERTEX
10
13.9500
20
-15.0000
0
VERTEX
10
13.9500
20
-15.3500
0
VERTEX
10
3.9500
20
-15.3500
0
VERTEX
10
3.9500
20
-15.8500
0
VERTEX
10
13.9500
20
-15.8500
0
VERTEX
10
13.9500
20
-16.2000
0
VERTEX
10
14.0500
20
-16.2000
0
VERTEX
10
14.0500
20
-15.7500
0
VERTEX
10
4.0500
20
-15.7500
0
VERTEX
10
4.0500
20
-15.4500
0
VERTEX
10
14.0500
20
-15.4500
0
VERTEX
10
14.0500
20
-15.0000
0
SEQEND
0
POLYLINE
8
metal
70
1
0
VERTEX
10
13.9500
20
-13.8000
0
VERTEX
10
13.9500
20
-14.1500
0
VERTEX
10
3.9500
20
-14.1500
0
VERTEX
10
3.9500
20
-14.6500
0
VERTEX
10
13.9500
20
-14.6500
0
VERTEX
10
13.9500
20
-15.0000
0
VERTEX
10
14.0500
20
-15.0000
0
VERTEX
10
14.0500
20
-14.5500
0
VERTEX
10
4.0500
20
-14.5500
0
VERTEX
10
4.0500
20
-14.2500
0
VERTEX
10
14.0500
20
-14.2500
0
VERTEX
10
14.0500
20
-13.8000
0
SEQEND
0
POLYLINE
8
metal
70
1
0
VERTEX
10
3.9500
20
-13.2000
0
VERTEX
10
3.9500
20
-13.4500
0
VERTEX
10
13.9500
20
-13.4500
0
VERTEX
10
13.9500
20
-13.8000
0
VERTEX
10
14.0500
20
-13.8000
0
VERTEX
10
14.0500
20
-13.3500
0
VERTEX
10
4.0500
20
-13.3500
0
VERTEX
10
4.0500
20
-13.2000
0
SEQEND
0
POLYLINE
8
M1_Neg
70
1
0
VERTEX
10
13.9311
20
-23.2189
0
VERTEX
10
22.4163
20
-23.2189
0
VERTEX
10
26.6590
20
-27.4616
0
VERTEX
10
17.9616
20
-36.1590
0
VERTEX
10
13.7189
20
-31.9163
0
VERTEX
10
13.7189
20
-23.4311
0
SEQEND
0
POLYLINE
8
cure
70
1
0
VERTEX
10
3.1000
20
-24.0500
0
VERTEX
10
14.7000
20
-24.0500
0
VERTEX
10
14.7000
20
-12.5500
0
VERTEX
10
3.1000
20
-12.5500
0
SEQEND
0
POLYLINE
8
M2_undercutMsk
70
1
0
VERTEX
10
0.1000
20
-24.0500
0
VERTEX
10
17.7000
20
-24.0500
0
VERTEX
10
17.7000
20
-12.5500
0
VERTEX
10
0.1000
20
-12.5500
0
SEQEND
0
CIRCLE
8
M1_LD
10
20.2640
20
-29.7640
40
7.5000
0
SEQEND
0
POLYLINE
8
M1_Neg
70
1
0
VERTEX
10
-13.7500
20
-22.2000
0
VERTEX
10
-13.7500
20
-22.3500
0
VERTEX
10
-3.7500
20
-22.3500
0
VERTEX
10
-3.7500
20
-23.2500
0
VERTEX
10
-13.7500
20
-23.2500
0
VERTEX
10
-13.7500
20
-23.4000
0
VERTEX
10
-14.0500
20
-23.4000
0
VERTEX
10
-14.0500
20
-22.9500
0
VERTEX
10
-4.0500
20
-22.9500
0
VERTEX
10
-4.0500
20
-22.6500
0
VERTEX
10
-14.0500
20
-22.6500
0
VERTEX
10
-14.0500
20
-22.2000
0
SEQEND
0
POLYLINE
8
M1_Neg
70
1
0
VERTEX
10
-13.7500
20
-21.0000
0
VERTEX
10
-13.7500
20
-21.1500
0
VERTEX
10
-3.7500
20
-21.1500
0
VERTEX
10
-3.7500
20
-22.0500
0
VERTEX
10
-13.7500
20
-22.0500
0
VERTEX
10
-13.7500
20
-22.2000
0
VERTEX
10
-14.0500
20
-22.2000
0
VERTEX
10
-14.0500
20
-21.7500
0
VERTEX
10
-4.0500
20
-21.7500
0
VERTEX
10
-4.0500
20
-21.4500
0
VERTEX
10
-14.0500
20
-21.4500
0
VERTEX
10
-14.0500
20
-21.0000
0
SEQEND
0
POLYLINE
8
M1_Neg
70
1
0
VERTEX
10
-13.7500
20
-19.8000
0
VERTEX
10
-13.7500
20
-19.9500
0
VERTEX
10
-3.7500
20
-19.9500
0
VERTEX
10
-3.7500
20
-20.8500
0
VERTEX
10
-13.7500
20
-20.8500
0
VERTEX
10
-13.7500
20
-21.0000
0
VERTEX
10
-14.0500
20
-21.0000
0
VERTEX
10
-14.0500
20
-20.5500
0
VERTEX
10
-4.0500
20
-20.5500
0
VERTEX
10
-4.0500
20
-20.2500
0
VERTEX
10
-14.0500
20
-20.2500
0
VERTEX
10
-14.0500
20
-19.8000
0
SEQEND
0
POLYLINE
8
M1_Neg
70
1
0
VERTEX
10
-13.7500
20
-18.6000
0
VERTEX
10
-13.7500
20
-18.7500
0
VERTEX
10
-3.7500
20
-18.7500
0
VERTEX
10
-3.7500
20
-19.6500
0
VERTEX
10
-13.7500
20
-19.6500
0
VERTEX
10
-13.7500
20
-19.8000
0
VERTEX
10
-14.0500
20
-19.8000
0
VERTEX
10
-14.0500
20
-19.3500
0
VERTEX
10
-4.0500
20
-19.3500
0
VERTEX
10
-4.0500
20
-19.0500
0
VERTEX
10
-14.0500
20
-19.0500
0
VERTEX
10
-14.0500
20
-18.6000
0
SEQEND
0
POLYLINE
8
M1_Neg
70
1
0
VERTEX
10
-13.7500
20
-17.4000
0
VERTEX
10
-13.7500
20
-17.5500
0
VERTEX
10
-3.7500
20
-17.5500
0
VERTEX
10
-3.7500
20
-18.4500
0
VERTEX
10
-13.7500
20
-18.4500
0
VERTEX
10
-13.7500
20
-18.6000
0
VERTEX
10
-14.0500
20
-18.6000
0
VERTEX
10
-14.0500
20
-18.1500
0
VERTEX
10
-4.0500
20
-18.1500
0
VERTEX
10
-4.0500
20
-17.8500
0
VERTEX
10
-14.0500
20
-17.8500
0
VERTEX
10
-14.0500
20
-17.4000
0
SEQEND
0
POLYLINE
8
M1_Neg
70
1
0
VERTEX
10
-13.7500
20
-16.2000
0
VERTEX
10
-13.7500
20
-16.3500
0
VERTEX
10
-3.7500
20
-16.3500
0
VERTEX
10
-3.7500
20
-17.2500
0
VERTEX
10
-13.7500
20
-17.2500
0
VERTEX
10
-13.7500
20
-17.4000
0
VERTEX
10
-14.0500
20
-17.4000
0
VERTEX
10
-14.0500
20
-16.9500
0
VERTEX
10
-4.0500
20
-16.9500
0
VERTEX
10
-4.0500
20
-16.6500
0
VERTEX
10
-14.0500
20
-16.6500
0
VERTEX
10
-14.0500
20
-16.2000
0
SEQEND
0
POLYLINE
8
M1_Neg
70
1
0
VERTEX
10
-13.7500
20
-15.0000
0
VERTEX
10
-13.7500
20
-15.1500
0
VERTEX
10
-3.7500
20
-15.1500
0
VERTEX
10
-3.7500
20
-16.0500
0
VERTEX
10
-13.7500
20
-16.0500
0
VERTEX
10
-13.7500
20
-16.2000
0
VERTEX
10
-14.0500
20
-16.2000
0
VERTEX
10
-14.0500
20
-15.7500
0
VERTEX
10
-4.0500
20
-15.7500
0
VERTEX
10
-4.0500
20
-15.4500
0
VERTEX
10
-14.0500
20
-15.4500
0
VERTEX
10
-14.0500
20
-15.0000
0
SEQEND
0
POLYLINE
8
M1_Neg
70
1
0
VERTEX
10
-13.7500
20
-13.8000
0
VERTEX
10
-13.7500
20
-13.9500
0
VERTEX
10
-3.7500
20
-13.9500
0
VERTEX
10
-3.7500
20
-14.8500
0
VERTEX
10
-13.7500
20
-14.8500
0
VERTEX
10
-13.7500
20
-15.0000
0
VERTEX
10
-14.0500
20
-15.0000
0
VERTEX
10
-14.0500
20
-14.5500
0
VERTEX
10
-4.0500
20
-14.5500
0
VERTEX
10
-4.0500
20
-14.2500
0
VERTEX
10
-14.0500
20
-14.2500
0
VERTEX
10
-14.0500
20
-13.8000
0
SEQEND
0
POLYLINE
8
M1_Neg
70
1
0
VERTEX
10
-3.7500
20
-13.2000
0
VERTEX
10
-3.7500
20
-13.6500
0
VERTEX
10
-13.7500
20
-13.6500
0
VERTEX
10
-13.7500
20
-13.8000
0
VERTEX
10
-14.0500
20
-13.8000
0
VERTEX
10
-14.0500
20
-13.3500
0
VERTEX
10
-4.0500
20
-13.3500
0
VERTEX
10
-4.0500
20
-13.2000
0
SEQEND
0
POLYLINE
8
metal
70
1
0
VERTEX
10
-13.7500
20
-22.2000
0
VERTEX
10
-13.7500
20
-22.3500
0
VERTEX
10
-3.7500
20
-22.3500
0
VERTEX
10
-3.7500
20
-23.2500
0
VERTEX
10
-13.7500
20
-23.2500
0
VERTEX
10
-13.7500
20
-23.4000
0
VERTEX
10
-13.8500
20
-23.4000
0
VERTEX
10
-13.8500
20
-23.1500
0
VERTEX
10
-3.8500
20
-23.1500
0
VERTEX
10
-3.8500
20
-22.4500
0
VERTEX
10
-13.8500
20
-22.4500
0
VERTEX
10
-13.8500
20
-22.2000
0
SEQEND
0
POLYLINE
8
metal
70
1
0
VERTEX
10
-13.7500
20
-21.0000
0
VERTEX
10
-13.7500
20
-21.1500
0
VERTEX
10
-3.7500
20
-21.1500
0
VERTEX
10
-3.7500
20
-22.0500
0
VERTEX
10
-13.7500
20
-22.0500
0
VERTEX
10
-13.7500
20
-22.2000
0
VERTEX
10
-13.8500
20
-22.2000
0
VERTEX
10
-13.8500
20
-21.9500
0
VERTEX
10
-3.8500
20
-21.9500
0
VERTEX
10
-3.8500
20
-21.2500
0
VERTEX
10
-13.8500
20
-21.2500
0
VERTEX
10
-13.8500
20
-21.0000
0
SEQEND
0
POLYLINE
8
metal
70
1
0
VERTEX
10
-13.7500
20
-19.8000
0
VERTEX
10
-13.7500
20
-19.9500
0
VERTEX
10
-3.7500
20
-19.9500
0
VERTEX
10
-3.7500
20
-20.8500
0
VERTEX
10
-13.7500
20
-20.8500
0
VERTEX
10
-13.7500
20
-21.0000
0
VERTEX
10
-13.8500
20
-21.0000
0
VERTEX
10
-13.8500
20
-20.7500
0
VERTEX
10
-3.8500
20
-20.7500
0
VERTEX
10
-3.8500
20
-20.0500
0
VERTEX
10
-13.8500
20
-20.0500
0
VERTEX
10
-13.8500
20
-19.8000
0
SEQEND
0
POLYLINE
8
metal
70
1
0
VERTEX
10
-13.7500
20
-18.6000
0
VERTEX
10
-13.7500
20
-18.7500
0
VERTEX
10
-3.7500
20
-18.7500
0
VERTEX
10
-3.7500
20
-19.6500
0
VERTEX
10
-13.7500
20
-19.6500
0
VERTEX
10
-13.7500
20
-19.8000
0
VERTEX
10
-13.8500
20
-19.8000
0
VERTEX
10
-13.8500
20
-19.5500
0
VERTEX
10
-3.8500
20
-19.5500
0
VERTEX
10
-3.8500
20
-18.8500
0
VERTEX
10
-13.8500
20
-18.8500
0
VERTEX
10
-13.8500
20
-18.6000
0
SEQEND
0
POLYLINE
8
metal
70
1
0
VERTEX
10
-13.7500
20
-17.4000
0
VERTEX
10
-13.7500
20
-17.5500
0
VERTEX
10
-3.7500
20
-17.5500
0
VERTEX
10
-3.7500
20
-18.4500
0
VERTEX
10
-13.7500
20
-18.4500
0
VERTEX
10
-13.7500
20
-18.6000
0
VERTEX
10
-13.8500
20
-18.6000
0
VERTEX
10
-13.8500
20
-18.3500
0
VERTEX
10
-3.8500
20
-18.3500
0
VERTEX
10
-3.8500
20
-17.6500
0
VERTEX
10
-13.8500
20
-17.6500
0
VERTEX
10
-13.8500
20
-17.4000
0
SEQEND
0
POLYLINE
8
metal
70
1
0
VERTEX
10
-13.7500
20
-16.2000
0
VERTEX
10
-13.7500
20
-16.3500
0
VERTEX
10
-3.7500
20
-16.3500
0
VERTEX
10
-3.7500
20
-17.2500
0
VERTEX
10
-13.7500
20
-17.2500
0
VERTEX
10
-13.7500
20
-17.4000
0
VERTEX
10
-13.8500
20
-17.4000
0
VERTEX
10
-13.8500
20
-17.1500
0
VERTEX
10
-3.8500
20
-17.1500
0
VERTEX
10
-3.8500
20
-16.4500
0
VERTEX
10
-13.8500
20
-16.4500
0
VERTEX
10
-13.8500
20
-16.2000
0
SEQEND
0
POLYLINE
8
metal
70
1
0
VERTEX
10
-13.7500
20
-15.0000
0
VERTEX
10
-13.7500
20
-15.1500
0
VERTEX
10
-3.7500
20
-15.1500
0
VERTEX
10
-3.7500
20
-16.0500
0
VERTEX
10
-13.7500
20
-16.0500
0
VERTEX
10
-13.7500
20
-16.2000
0
VERTEX
10
-13.8500
20
-16.2000
0
VERTEX
10
-13.8500
20
-15.9500
0
VERTEX
10
-3.8500
20
-15.9500
0
VERTEX
10
-3.8500
20
-15.2500
0
VERTEX
10
-13.8500
20
-15.2500
0
VERTEX
10
-13.8500
20
-15.0000
0
SEQEND
0
POLYLINE
8
metal
70
1
0
VERTEX
10
-13.7500
20
-13.8000
0
VERTEX
10
-13.7500
20
-13.9500
0
VERTEX
10
-3.7500
20
-13.9500
0
VERTEX
10
-3.7500
20
-14.8500
0
VERTEX
10
-13.7500
20
-14.8500
0
VERTEX
10
-13.7500
20
-15.0000
0
VERTEX
10
-13.8500
20
-15.0000
0
VERTEX
10
-13.8500
20
-14.7500
0
VERTEX
10
-3.8500
20
-14.7500
0
VERTEX
10
-3.8500
20
-14.0500
0
VERTEX
10
-13.8500
20
-14.0500
0
VERTEX
10
-13.8500
20
-13.8000
0
SEQEND
0
POLYLINE
8
metal
70
1
0
VERTEX
10
-3.7500
20
-13.2000
0
VERTEX
10
-3.7500
20
-13.6500
0
VERTEX
10
-13.7500
20
-13.6500
0
VERTEX
10
-13.7500
20
-13.8000
0
VERTEX
10
-13.8500
20
-13.8000
0
VERTEX
10
-13.8500
20
-13.5500
0
VERTEX
10
-3.8500
20
-13.5500
0
VERTEX
10
-3.8500
20
-13.2000
0
SEQEND
0
POLYLINE
8
metal
70
1
0
VERTEX
10
-13.9500
20
-22.2000
0
VERTEX
10
-13.9500
20
-22.5500
0
VERTEX
10
-3.9500
20
-22.5500
0
VERTEX
10
-3.9500
20
-23.0500
0
VERTEX
10
-13.9500
20
-23.0500
0
VERTEX
10
-13.9500
20
-23.4000
0
VERTEX
10
-14.0500
20
-23.4000
0
VERTEX
10
-14.0500
20
-22.9500
0
VERTEX
10
-4.0500
20
-22.9500
0
VERTEX
10
-4.0500
20
-22.6500
0
VERTEX
10
-14.0500
20
-22.6500
0
VERTEX
10
-14.0500
20
-22.2000
0
SEQEND
0
POLYLINE
8
metal
70
1
0
VERTEX
10
-13.9500
20
-21.0000
0
VERTEX
10
-13.9500
20
-21.3500
0
VERTEX
10
-3.9500
20
-21.3500
0
VERTEX
10
-3.9500
20
-21.8500
0
VERTEX
10
-13.9500
20
-21.8500
0
VERTEX
10
-13.9500
20
-22.2000
0
VERTEX
10
-14.0500
20
-22.2000
0
VERTEX
10
-14.0500
20
-21.7500
0
VERTEX
10
-4.0500
20
-21.7500
0
VERTEX
10
-4.0500
20
-21.4500
0
VERTEX
10
-14.0500
20
-21.4500
0
VERTEX
10
-14.0500
20
-21.0000
0
SEQEND
0
POLYLINE
8
metal
70
1
0
VERTEX
10
-13.9500
20
-19.8000
0
VERTEX
10
-13.9500
20
-20.1500
0
VERTEX
10
-3.9500
20
-20.1500
0
VERTEX
10
-3.9500
20
-20.6500
0
VERTEX
10
-13.9500
20
-20.6500
0
VERTEX
10
-13.9500
20
-21.0000
0
VERTEX
10
-14.0500
20
-21.0000
0
VERTEX
10
-14.0500
20
-20.5500
0
VERTEX
10
-4.0500
20
-20.5500
0
VERTEX
10
-4.0500
20
-20.2500
0
VERTEX
10
-14.0500
20
-20.2500
0
VERTEX
10
-14.0500
20
-19.8000
0
SEQEND
0
POLYLINE
8
metal
70
1
0
VERTEX
10
-13.9500
20
-18.6000
0
VERTEX
10
-13.9500
20
-18.9500
0
VERTEX
10
-3.9500
20
-18.9500
0
VERTEX
10
-3.9500
20
-19.4500
0
VERTEX
10
-13.9500
20
-19.4500
0
VERTEX
10
-13.9500
20
-19.8000
0
VERTEX
10
-14.0500
20
-19.8000
0
VERTEX
10
-14.0500
20
-19.3500
0
VERTEX
10
-4.0500
20
-19.3500
0
VERTEX
10
-4.0500
20
-19.0500
0
VERTEX
10
-14.0500
20
-19.0500
0
VERTEX
10
-14.0500
20
-18.6000
0
SEQEND
0
POLYLINE
8
metal
70
1
0
VERTEX
10
-13.9500
20
-17.4000
0
VERTEX
10
-13.9500
20
-17.7500
0
VERTEX
10
-3.9500
20
-17.7500
0
VERTEX
10
-3.9500
20
-18.2500
0
VERTEX
10
-13.9500
20
-18.2500
0
VERTEX
10
-13.9500
20
-18.6000
0
VERTEX
10
-14.0500
20
-18.6000
0
VERTEX
10
-14.0500
20
-18.1500
0
VERTEX
10
-4.0500
20
-18.1500
0
VERTEX
10
-4.0500
20
-17.8500
0
VERTEX
10
-14.0500
20
-17.8500
0
VERTEX
10
-14.0500
20
-17.4000
0
SEQEND
0
POLYLINE
8
metal
70
1
0
VERTEX
10
-13.9500
20
-16.2000
0
VERTEX
10
-13.9500
20
-16.5500
0
VERTEX
10
-3.9500
20
-16.5500
0
VERTEX
10
-3.9500
20
-17.0500
0
VERTEX
10
-13.9500
20
-17.0500
0
VERTEX
10
-13.9500
20
-17.4000
0
VERTEX
10
-14.0500
20
-17.4000
0
VERTEX
10
-14.0500
20
-16.9500
0
VERTEX
10
-4.0500
20
-16.9500
0
VERTEX
10
-4.0500
20
-16.6500
0
VERTEX
10
-14.0500
20
-16.6500
0
VERTEX
10
-14.0500
20
-16.2000
0
SEQEND
0
POLYLINE
8
metal
70
1
0
VERTEX
10
-13.9500
20
-15.0000
0
VERTEX
10
-13.9500
20
-15.3500
0
VERTEX
10
-3.9500
20
-15.3500
0
VERTEX
10
-3.9500
20
-15.8500
0
VERTEX
10
-13.9500
20
-15.8500
0
VERTEX
10
-13.9500
20
-16.2000
0
VERTEX
10
-14.0500
20
-16.2000
0
VERTEX
10
-14.0500
20
-15.7500
0
VERTEX
10
-4.0500
20
-15.7500
0
VERTEX
10
-4.0500
20
-15.4500
0
VERTEX
10
-14.0500
20
-15.4500
0
VERTEX
10
-14.0500
20
-15.0000
0
SEQEND
0
POLYLINE
8
metal
70
1
0
VERTEX
10
-13.9500
20
-13.8000
0
VERTEX
10
-13.9500
20
-14.1500
0
VERTEX
10
-3.9500
20
-14.1500
0
VERTEX
10
-3.9500
20
-14.6500
0
VERTEX
10
-13.9500
20
-14.6500
0
VERTEX
10
-13.9500
20
-15.0000
0
VERTEX
10
-14.0500
20
-15.0000
0
VERTEX
10
-14.0500
20
-14.5500
0
VERTEX
10
-4.0500
20
-14.5500
0
VERTEX
10
-4.0500
20
-14.2500
0
VERTEX
10
-14.0500
20
-14.2500
0
VERTEX
10
-14.0500
20
-13.8000
0
SEQEND
0
POLYLINE
8
metal
70
1
0
VERTEX
10
-3.9500
20
-13.2000
0
VERTEX
10
-3.9500
20
-13.4500
0
VERTEX
10
-13.9500
20
-13.4500
0
VERTEX
10
-13.9500
20
-13.8000
0
VERTEX
10
-14.0500
20
-13.8000
0
VERTEX
10
-14.0500
20
-13.3500
0
VERTEX
10
-4.0500
20
-13.3500
0
VERTEX
10
-4.0500
20
-13.2000
0
SEQEND
0
POLYLINE
8
M1_Neg
70
1
0
VERTEX
10
-13.9311
20
-23.2189
0
VERTEX
10
-22.4163
20
-23.2189
0
VERTEX
10
-26.6590
20
-27.4616
0
VERTEX
10
-17.9616
20
-36.1590
0
VERTEX
10
-13.7189
20
-31.9163
0
VERTEX
10
-13.7189
20
-23.4311
0
SEQEND
0
POLYLINE
8
cure
70
1
0
VERTEX
10
-3.1000
20
-12.5500
0
VERTEX
10
-14.7000
20
-12.5500
0
VERTEX
10
-14.7000
20
-24.0500
0
VERTEX
10
-3.1000
20
-24.0500
0
SEQEND
0
POLYLINE
8
M2_undercutMsk
70
1
0
VERTEX
10
-0.1000
20
-12.5500
0
VERTEX
10
-17.7000
20
-12.5500
0
VERTEX
10
-17.7000
20
-24.0500
0
VERTEX
10
-0.1000
20
-24.0500
0
SEQEND
0
CIRCLE
8
M1_LD
10
-20.2640
20
-29.7640
40
7.5000
0
SEQEND
0
POLYLINE
8
M1_Neg
70
1
0
VERTEX
10
3.4625
20
-13.5500
0
VERTEX
10
3.8375
20
-13.5500
0
VERTEX
10
3.8375
20
-13.4500
0
VERTEX
10
3.4625
20
-13.4500
0
SEQEND
0
POLYLINE
8
M1_Neg
70
1
0
VERTEX
10
-3.8375
20
-13.5500
0
VERTEX
10
-3.4625
20
-13.5500
0
VERTEX
10
-3.4625
20
-13.4500
0
VERTEX
10
-3.8375
20
-13.4500
0
SEQEND
0
POLYLINE
8
M2_undercutMsk
70
1
0
VERTEX
10
-6.5000
20
-20.0000
0
VERTEX
10
6.5000
20
-20.0000
0
VERTEX
10
6.5000
20
-7.0000
0
VERTEX
10
-6.5000
20
-7.0000
0
SEQEND
0
POLYLINE
8
M1_Neg
70
1
0
VERTEX
10
-3.5000
20
-14.0000
0
VERTEX
10
3.5000
20
-14.0000
0
VERTEX
10
3.5000
20
-13.0000
0
VERTEX
10
-3.5000
20
-13.0000
0
SEQEND
0
POLYLINE
8
M1_Neg
70
1
0
VERTEX
10
0.8000
20
-79.9500
0
VERTEX
10
1.2000
20
-79.5500
0
VERTEX
10
1.2000
20
-79.1500
0
VERTEX
10
1.6000
20
-78.7500
0
VERTEX
10
2.0000
20
-78.3500
0
VERTEX
10
2.4000
20
-78.3500
0
VERTEX
10
2.8000
20
-78.3500
0
VERTEX
10
3.2000
20
-78.3500
0
VERTEX
10
3.6000
20
-78.3500
0
VERTEX
10
4.0000
20
-78.3500
0
VERTEX
10
4.4000
20
-78.3500
0
VERTEX
10
4.8000
20
-78.3500
0
VERTEX
10
5.2000
20
-78.7500
0
VERTEX
10
5.6000
20
-79.1500
0
VERTEX
10
5.6000
20
-79.5500
0
VERTEX
10
6.0000
20
-79.9500
0
VERTEX
10
6.0000
20
-80.3500
0
VERTEX
10
6.0000
20
-80.7500
0
VERTEX
10
6.0000
20
-81.1500
0
VERTEX
10
6.0000
20
-81.5500
0
VERTEX
10
6.0000
20
-81.9500
0
VERTEX
10
6.0000
20
-82.3500
0
VERTEX
10
6.0000
20
-82.7500
0
VERTEX
10
6.0000
20
-83.1500
0
VERTEX
10
6.0000
20
-83.5500
0
VERTEX
10
5.6000
20
-83.9500
0
VERTEX
10
5.6000
20
-84.3500
0
VERTEX
10
5.2000
20
-84.7500
0
VERTEX
10
4.8000
20
-85.1500
0
VERTEX
10
4.4000
20
-85.1500
0
VERTEX
10
4.0000
20
-85.1500
0
VERTEX
10
3.6000
20
-85.1500
0
VERTEX
10
3.2000
20
-85.1500
0
VERTEX
10
2.8000
20
-85.1500
0
VERTEX
10
2.4000
20
-85.1500
0
VERTEX
10
2.0000
20
-85.1500
0
VERTEX
10
1.6000
20
-84.7500
0
VERTEX
10
1.2000
20
-84.3500
0
VERTEX
10
1.2000
20
-83.9500
0
VERTEX
10
0.8000
20
-83.5500
0
VERTEX
10
0.8000
20
-83.1500
0
VERTEX
10
0.8000
20
-82.7500
0
VERTEX
10
0.8000
20
-82.3500
0
VERTEX
10
0.8000
20
-81.9500
0
VERTEX
10
0.8000
20
-81.5500
0
VERTEX
10
0.8000
20
-81.1500
0
VERTEX
10
0.8000
20
-80.7500
0
VERTEX
10
0.8000
20
-80.3500
0
VERTEX
10
0.8000
20
-79.9500
0
SEQEND
0
POLYLINE
8
M1_Pos_ind
70
1
0
VERTEX
10
2.0000
20
-79.9500
0
VERTEX
10
2.4000
20
-79.9500
0
VERTEX
10
2.4000
20
-79.5500
0
VERTEX
10
2.4000
20
-79.1500
0
VERTEX
10
2.8000
20
-79.1500
0
VERTEX
10
3.2000
20
-79.1500
0
VERTEX
10
3.6000
20
-79.1500
0
VERTEX
10
4.0000
20
-79.1500
0
VERTEX
10
4.4000
20
-79.1500
0
VERTEX
10
4.0000
20
-79.1500
0
VERTEX
10
4.0000
20
-79.5500
0
VERTEX
10
4.0000
20
-79.9500
0
VERTEX
10
3.6000
20
-79.9500
0
VERTEX
10
3.6000
20
-80.3500
0
VERTEX
10
3.2000
20
-80.3500
0
VERTEX
10
3.2000
20
-80.7500
0
VERTEX
10
3.2000
20
-81.1500
0
VERTEX
10
2.8000
20
-81.1500
0
VERTEX
10
2.8000
20
-81.5500
0
VERTEX
10
2.8000
20
-81.9500
0
VERTEX
10
2.4000
20
-81.9500
0
VERTEX
10
2.4000
20
-82.3500
0
VERTEX
10
2.0000
20
-82.3500
0
VERTEX
10
2.0000
20
-82.7500
0
VERTEX
10
2.0000
20
-83.1500
0
VERTEX
10
2.0000
20
-82.7500
0
VERTEX
10
2.0000
20
-82.3500
0
VERTEX
10
2.0000
20
-81.9500
0
VERTEX
10
2.0000
20
-81.5500
0
VERTEX
10
2.0000
20
-81.1500
0
VERTEX
10
2.0000
20
-80.7500
0
VERTEX
10
2.0000
20
-80.3500
0
VERTEX
10
2.0000
20
-79.9500
0
SEQEND
0
POLYLINE
8
M1_Pos_ind
70
1
0
VERTEX
10
2.4000
20
-84.3500
0
VERTEX
10
2.8000
20
-84.3500
0
VERTEX
10
2.8000
20
-83.9500
0
VERTEX
10
2.8000
20
-83.5500
0
VERTEX
10
3.2000
20
-83.5500
0
VERTEX
10
3.2000
20
-83.1500
0
VERTEX
10
3.6000
20
-83.1500
0
VERTEX
10
3.6000
20
-82.7500
0
VERTEX
10
3.6000
20
-82.3500
0
VERTEX
10
4.0000
20
-82.3500
0
VERTEX
10
4.0000
20
-81.9500
0
VERTEX
10
4.4000
20
-81.9500
0
VERTEX
10
4.4000
20
-81.5500
0
VERTEX
10
4.4000
20
-81.1500
0
VERTEX
10
4.8000
20
-81.1500
0
VERTEX
10
4.8000
20
-80.7500
0
VERTEX
10
4.8000
20
-80.3500
0
VERTEX
10
4.8000
20
-80.7500
0
VERTEX
10
4.8000
20
-81.1500
0
VERTEX
10
4.8000
20
-81.5500
0
VERTEX
10
4.8000
20
-81.9500
0
VERTEX
10
4.8000
20
-82.3500
0
VERTEX
10
4.8000
20
-82.7500
0
VERTEX
10
4.8000
20
-83.1500
0
VERTEX
10
4.8000
20
-83.5500
0
VERTEX
10
4.4000
20
-83.5500
0
VERTEX
10
4.4000
20
-83.9500
0
VERTEX
10
4.4000
20
-84.3500
0
VERTEX
10
4.0000
20
-84.3500
0
VERTEX
10
3.6000
20
-84.3500
0
VERTEX
10
3.2000
20
-84.3500
0
VERTEX
10
2.8000
20
-84.3500
0
VERTEX
10
2.4000
20
-84.3500
0
SEQEND
0
ENDSEC
0
EOF